<svg width="993" height="130" viewBox="0 0 993 130" fill="none" xmlns="http://www.w3.org/2000/svg">
<path fill-rule="evenodd" clip-rule="evenodd" d="M339.561 65.5379C340.323 65.5526 341.094 65.5599 341.875 65.5599H413.535C418.95 65.5599 423.885 65.2086 428.341 64.506C432.797 63.745 436.52 62.7497 439.509 61.5203C442.386 60.3494 444.98 58.8857 447.293 57.1294C449.549 55.4316 451.297 53.7045 452.538 51.9482C453.779 50.2504 454.794 48.3477 455.584 46.2401C456.374 44.2495 456.881 42.4347 457.107 40.7954C457.332 39.1562 457.445 37.4876 457.445 35.7898V33.4188C457.445 31.721 457.332 30.0524 457.107 28.4132C456.881 26.7739 456.374 24.959 455.584 22.9685C454.794 20.978 453.779 19.1046 452.538 17.3482C451.297 15.6504 449.549 13.9526 447.293 12.2548C445.037 10.557 442.414 9.12267 439.424 7.95178C436.435 6.78088 432.741 5.81489 428.341 5.05381C423.885 4.35127 418.95 4 413.535 4H377.705H341.875C341.094 4 340.323 4.0073 339.561 4.02191V18.5003C340.419 18.4515 341.303 18.4188 342.214 18.402H413.789C417.004 18.5191 419.881 18.8411 422.419 19.368C425.521 20.0706 427.946 20.9194 429.695 21.9147C431.443 22.91 432.91 24.1394 434.094 25.603C435.166 27.0081 435.927 28.3839 436.379 29.7304C436.717 31.0184 436.914 32.4235 436.971 33.9457V35.0873C436.971 36.9607 436.604 38.7756 435.871 40.532C435.194 42.2298 433.982 43.9276 432.233 45.6254C430.485 47.3232 427.862 48.6404 424.365 49.5771C421.319 50.4553 417.681 50.9529 413.451 51.07H342.467C341.468 51.0571 340.499 51.0226 339.561 50.9665V65.5379Z" fill="#41F168"/>
<path fill-rule="evenodd" clip-rule="evenodd" d="M470 65.5599H533.414C538.828 65.5599 543.764 65.2086 548.219 64.506C552.675 63.745 556.398 62.7497 559.387 61.5203C562.264 60.3494 564.858 58.8857 567.171 57.1294C569.427 55.4316 571.175 53.7045 572.416 51.9482C573.657 50.2504 574.673 48.3477 575.462 46.2401C576.252 44.2495 576.759 42.4347 576.985 40.7954C577.211 39.1562 577.323 37.4876 577.323 35.7898V33.4188C577.323 31.721 577.211 30.0524 576.985 28.4132C576.759 26.7739 576.252 24.959 575.462 22.9685C574.673 20.978 573.657 19.1046 572.416 17.3482C571.175 15.6504 569.427 13.9526 567.171 12.2548C564.915 10.557 562.292 9.12267 559.303 7.95178C556.313 6.78088 552.619 5.81489 548.219 5.05381C543.764 4.35127 538.828 4 533.414 4H497.583H470V18.402H533.667C536.882 18.5191 539.759 18.8411 542.297 19.368C545.399 20.0706 547.825 20.9194 549.573 21.9147C551.322 22.91 552.788 24.1394 553.973 25.603C555.044 27.0081 555.806 28.3839 556.257 29.7304C556.595 31.0184 556.793 32.4235 556.849 33.9457V35.0873C556.849 36.9607 556.482 38.7756 555.749 40.532C555.072 42.2298 553.86 43.9276 552.111 45.6254C550.363 47.3232 547.74 48.6404 544.243 49.5771C541.197 50.4553 537.559 50.9529 533.329 51.07H470V65.5599Z" fill="#41F168"/>
<path fill-rule="evenodd" clip-rule="evenodd" d="M593 65.5599H641.414C646.828 65.5599 651.764 65.2086 656.219 64.506C660.675 63.745 664.398 62.7497 667.387 61.5203C670.264 60.3494 672.858 58.8857 675.171 57.1294C677.427 55.4316 679.175 53.7045 680.416 51.9482C681.657 50.2504 682.672 48.3477 683.462 46.2401C684.252 44.2495 684.759 42.4347 684.985 40.7954C685.211 39.1562 685.323 37.4876 685.323 35.7898V33.4188C685.323 31.721 685.211 30.0524 684.985 28.4132C684.759 26.7739 684.252 24.959 683.462 22.9685C682.672 20.978 681.657 19.1046 680.416 17.3482C679.175 15.6504 677.427 13.9526 675.171 12.2548C672.915 10.557 670.292 9.12267 667.303 7.95178C664.313 6.78088 660.619 5.81489 656.219 5.05381C651.764 4.35127 646.828 4 641.414 4H605.583H593V18.402H641.667C644.882 18.5191 647.759 18.8411 650.297 19.368C653.399 20.0706 655.825 20.9194 657.573 21.9147C659.322 22.91 660.788 24.1394 661.973 25.603C663.044 27.0081 663.806 28.3839 664.257 29.7304C664.595 31.0184 664.793 32.4235 664.849 33.9457V35.0873C664.849 36.9607 664.482 38.7756 663.749 40.532C663.072 42.2298 661.86 43.9276 660.111 45.6254C658.363 47.3232 655.74 48.6404 652.243 49.5771C649.197 50.4553 645.559 50.9529 641.329 51.07H593V65.5599Z" fill="#41F168"/>
<path fill-rule="evenodd" clip-rule="evenodd" d="M701 65.5599H735.414C740.828 65.5599 745.764 65.2086 750.219 64.506C754.675 63.745 758.398 62.7497 761.387 61.5203C764.264 60.3494 766.858 58.8857 769.171 57.1294C771.427 55.4316 773.175 53.7045 774.416 51.9482C775.657 50.2504 776.672 48.3477 777.462 46.2401C778.252 44.2495 778.759 42.4347 778.985 40.7954C779.211 39.1562 779.323 37.4876 779.323 35.7898V33.4188C779.323 31.721 779.211 30.0524 778.985 28.4132C778.759 26.7739 778.252 24.959 777.462 22.9685C776.672 20.978 775.657 19.1046 774.416 17.3482C773.175 15.6504 771.427 13.9526 769.171 12.2548C766.915 10.557 764.292 9.12267 761.303 7.95178C758.313 6.78088 754.619 5.81489 750.219 5.05381C745.764 4.35127 740.828 4 735.414 4H701V18.402H735.667C738.882 18.5191 741.759 18.8411 744.297 19.368C747.399 20.0706 749.825 20.9194 751.573 21.9147C753.322 22.91 754.788 24.1394 755.973 25.603C757.044 27.0081 757.806 28.3839 758.257 29.7304C758.595 31.0184 758.793 32.4235 758.849 33.9457V35.0873C758.849 36.9607 758.482 38.7756 757.749 40.532C757.072 42.2298 755.86 43.9276 754.111 45.6254C752.363 47.3232 749.74 48.6404 746.243 49.5771C743.197 50.4553 739.559 50.9529 735.329 51.07H701V65.5599Z" fill="#41F168"/>
<path fill-rule="evenodd" clip-rule="evenodd" d="M795 65.5599H822.414C827.828 65.5599 832.764 65.2086 837.219 64.506C841.675 63.745 845.398 62.7497 848.387 61.5203C851.264 60.3494 853.858 58.8857 856.171 57.1294C858.427 55.4316 860.175 53.7045 861.416 51.9482C862.657 50.2504 863.672 48.3477 864.462 46.2401C865.252 44.2495 865.759 42.4347 865.985 40.7954C866.211 39.1562 866.323 37.4876 866.323 35.7898V33.4188C866.323 31.721 866.211 30.0524 865.985 28.4132C865.759 26.7739 865.252 24.959 864.462 22.9685C863.672 20.978 862.657 19.1046 861.416 17.3482C860.175 15.6504 858.427 13.9526 856.171 12.2548C853.915 10.557 851.292 9.12267 848.303 7.95178C845.313 6.78088 841.619 5.81489 837.219 5.05381C832.764 4.35127 827.828 4 822.414 4H795V18.402H822.667C825.882 18.5191 828.759 18.8411 831.297 19.368C834.399 20.0706 836.825 20.9194 838.573 21.9147C840.322 22.91 841.788 24.1394 842.973 25.603C844.044 27.0081 844.806 28.3839 845.257 29.7304C845.595 31.0184 845.793 32.4235 845.849 33.9457V35.0873C845.849 36.9607 845.482 38.7756 844.749 40.532C844.072 42.2298 842.86 43.9276 841.111 45.6254C839.363 47.3232 836.74 48.6404 833.243 49.5771C830.197 50.4553 826.559 50.9529 822.329 51.07H795V65.5599Z" fill="#41F168"/>
<path fill-rule="evenodd" clip-rule="evenodd" d="M879 65.5599H896.655C902.069 65.5599 907.005 65.2086 911.461 64.506C915.916 63.745 919.639 62.7497 922.628 61.5203C925.505 60.3494 928.1 58.8857 930.412 57.1294C932.668 55.4316 934.417 53.7045 935.658 51.9482C936.898 50.2504 937.914 48.3477 938.703 46.2401C939.493 44.2495 940.001 42.4347 940.226 40.7954C940.452 39.1562 940.565 37.4876 940.565 35.7898V33.4188C940.565 31.721 940.452 30.0524 940.226 28.4132C940.001 26.7739 939.493 24.959 938.703 22.9685C937.914 20.978 936.898 19.1046 935.658 17.3482C934.417 15.6504 932.668 13.9526 930.412 12.2548C928.156 10.557 925.533 9.12267 922.544 7.95178C919.554 6.78088 915.86 5.81489 911.461 5.05381C907.005 4.35127 902.069 4 896.655 4H879V18.402H896.909C900.124 18.5191 903 18.8411 905.538 19.368C908.64 20.0706 911.066 20.9194 912.814 21.9147C914.563 22.91 916.029 24.1394 917.214 25.603C918.285 27.0081 919.047 28.3839 919.498 29.7304C919.836 31.0184 920.034 32.4235 920.09 33.9457V35.0873C920.09 36.9607 919.724 38.7756 918.99 40.532C918.314 42.2298 917.101 43.9276 915.352 45.6254C913.604 47.3232 910.981 48.6404 907.484 49.5771C904.438 50.4553 900.8 50.9529 896.57 51.07H879V65.5599Z" fill="#41F168"/>
<path fill-rule="evenodd" clip-rule="evenodd" d="M956 65.3249C958.621 65.1498 961.107 64.8768 963.461 64.5058C967.916 63.7447 971.639 62.7494 974.628 61.52C977.505 60.3491 980.1 58.8855 982.412 57.1291C984.668 55.4313 986.417 53.7042 987.658 51.9479C988.898 50.2501 989.914 48.3474 990.703 46.2398C991.493 44.2493 992.001 42.4344 992.226 40.7951C992.452 39.1559 992.565 37.4873 992.565 35.7895V33.4185C992.565 31.7207 992.452 30.0521 992.226 28.4129C992.001 26.7736 991.493 24.9587 990.703 22.9682C989.914 20.9777 988.898 19.1043 987.658 17.3479C986.417 15.6501 984.668 13.9523 982.412 12.2545C980.156 10.5567 977.533 9.12238 974.544 7.95148C971.554 6.78058 967.86 5.8146 963.461 5.05352C961.107 4.6825 958.621 4.40945 956 4.23438V19.0804C956.526 19.1682 957.039 19.264 957.538 19.3677C960.64 20.0703 963.066 20.9192 964.814 21.9144C966.563 22.9097 968.029 24.1391 969.214 25.6027C970.285 27.0078 971.047 28.3836 971.498 29.7301C971.836 31.0181 972.034 32.4232 972.09 33.9454V35.087C972.09 36.9604 971.724 38.7753 970.99 40.5317C970.314 42.2295 969.101 43.9273 967.352 45.6251C965.604 47.3229 962.981 48.6401 959.484 49.5768C958.398 49.89 957.237 50.1547 956 50.3711V65.3249Z" fill="#41F168"/>
<path d="M3 93.1H115.85V101H14.85V106.2H115.2V114.15H14.85V128H3V93.1ZM132.333 115.6V128H120.383V93H217.133C228.166 93 233.683 96.0333 233.683 102.1V102.65C233.683 106.35 231.316 108.9 226.583 110.3C228.749 110.867 230.499 111.817 231.833 113.15C233.166 114.483 233.833 116.217 233.833 118.35V123.5V128H221.833C221.833 127.967 221.833 127.233 221.833 125.8V121.75C221.833 119.583 221.233 118.017 220.033 117.05C218.833 116.083 216.783 115.6 213.883 115.6H132.333ZM132.333 100.95V107.85H216.383C218.049 107.85 219.266 107.533 220.033 106.9C220.833 106.267 221.233 105.433 221.233 104.4V104.35C221.233 103.35 220.833 102.533 220.033 101.9C219.266 101.267 218.049 100.95 216.383 100.95H132.333ZM250.983 93.05V127.95H239.083V93.05H250.983ZM265.554 122.15V129.05H255.204V122.15H265.554Z" fill="white"/>
<path d="M48.1 71C42.5667 71 37.5667 70.6667 33.1 70C28.5667 69.2667 24.8 68.3333 21.8 67.2C18.8 66.0667 16.2 64.7333 14 63.2C11.7333 61.6667 10 60.1333 8.8 58.6C7.6 57.0667 6.63333 55.4667 5.9 53.8C5.16667 52.0667 4.7 50.6 4.5 49.4C4.3 48.2 4.2 47 4.2 45.8V45.1H28.5C29.6333 51.9667 36.8333 55.4 50.1 55.4C54.1667 55.4 57.6333 55.2 60.5 54.8C63.3667 54.4667 65.5333 54.0333 67 53.5C68.4667 52.9667 69.6333 52.3333 70.5 51.6C71.3667 50.8667 71.9 50.2333 72.1 49.7C72.2333 49.1667 72.3 48.5333 72.3 47.8C72.3 44.3333 68.8667 42.6 62 42.6H36V26.9H60.8C67.2 26.9 70.4 25.4 70.4 22.4C70.4 21.8 70.3 21.2667 70.1 20.8C69.8333 20.3333 69.3333 19.8333 68.6 19.3C67.6667 18.7 66.4667 18.2333 65 17.9C63.4667 17.5 61.3667 17.1667 58.7 16.9C55.8333 16.6333 52.5 16.5 48.7 16.5C44.9667 16.5 41.7333 16.7667 39 17.3C36.3333 17.7667 34.3667 18.2667 33.1 18.8C31.8333 19.2667 30.8 20 30 21C29.2667 21.9333 28.8667 22.5333 28.8 22.8C28.6667 23.1333 28.5667 23.6 28.5 24.2H4.4V23.3C4.4 22.2333 4.46667 21.1667 4.6 20.1C4.8 18.9667 5.23333 17.6667 5.9 16.2C6.63333 14.6 7.56667 13.1667 8.7 11.9C9.76667 10.6333 11.3667 9.3 13.5 7.9C15.7 6.5 18.2 5.3 21 4.29999C23.9333 3.36666 27.5667 2.59999 31.9 1.99999C36.3 1.39999 41.1667 1.09999 46.5 1.09999H50.6C58.1333 1.09999 64.7 1.46666 70.3 2.2C75.9 2.93333 80.2 3.9 83.2 5.1C86.2667 6.23333 88.6667 7.63333 90.4 9.3C92.2 10.9667 93.3333 12.5 93.8 13.9C94.3333 15.3 94.6 16.8333 94.6 18.5V19.1C94.6 22.3 93.3667 24.9 90.9 26.9C88.5 28.9 85.8 30.2 82.8 30.8C84.4667 31.2 86.0333 31.7667 87.5 32.5C89.0333 33.3 90.5333 34.3333 92 35.6C93.4667 36.9333 94.6333 38.5667 95.5 40.5C96.4333 42.5667 96.9 44.8333 96.9 47.3V47.9C96.9 63.3 82.1667 71 52.7 71H48.1ZM124.467 59.3V73.1H103.767V59.3H124.467ZM222.953 71H131.453V63.2C131.453 61.4667 131.52 59.9333 131.653 58.6C131.786 57.1333 132.12 55.4667 132.653 53.6C133.253 51.6 134.02 49.8667 134.953 48.4C135.953 46.8 137.353 45.1333 139.153 43.4C141.02 41.6 143.186 40 145.653 38.6C148.186 37.2 151.353 35.8333 155.153 34.5C159.02 33.1667 163.386 32.0333 168.253 31.1L185.753 27.8C190.353 27 193.353 26.1667 194.753 25.3C196.086 24.3667 196.786 23.2667 196.853 22C196.853 21 196.453 20.1667 195.653 19.5C194.786 18.7667 192.953 18.1667 190.153 17.7C187.22 17.1667 183.153 16.9 177.953 16.9C173.553 16.9 169.853 17.2333 166.853 17.9C163.92 18.5 161.82 19.3667 160.553 20.5C159.286 21.6333 158.42 22.6667 157.953 23.6C157.553 24.5333 157.32 25.5333 157.253 26.6H132.753V25.8C132.753 23.8 132.953 21.9333 133.353 20.2C133.82 18.3333 134.886 16.2 136.553 13.8C138.286 11.3333 140.553 9.23333 143.353 7.49999C146.22 5.76666 150.386 4.26667 155.853 3C161.32 1.73333 167.753 1.09999 175.153 1.09999H179.153C186.02 1.09999 191.986 1.49999 197.053 2.3C202.186 3.1 206.286 4.13333 209.353 5.4C212.42 6.66666 214.886 8.23333 216.753 10.1C218.62 11.9667 219.886 13.8667 220.553 15.8C221.22 17.7333 221.553 19.8667 221.553 22.2V22.4C221.553 25.2667 221.186 27.6667 220.453 29.6C219.72 31.5333 218.353 33.4 216.353 35.2C214.286 36.9333 211.353 38.4333 207.553 39.7C203.686 40.9667 198.72 42.0667 192.653 43L172.153 46.2C159.02 48.4 152.453 51.2333 152.453 54.7H199.853V45.9H222.953V71ZM276.551 70.9C270.217 70.9 264.551 70.4667 259.551 69.6C254.551 68.6667 250.517 67.4667 247.451 66C244.384 64.5333 241.851 62.8667 239.851 61C237.851 59.0667 236.451 57.1667 235.651 55.3C234.851 53.4333 234.451 51.5667 234.451 49.7V49.4H258.351C258.417 49.6667 258.584 50 258.851 50.4C259.184 50.8 259.751 51.3 260.551 51.9C261.484 52.5 262.551 53.0333 263.751 53.5C265.084 53.9667 266.984 54.3667 269.451 54.7C271.917 55.1 274.784 55.3 278.051 55.3C282.051 55.3 285.551 54.8667 288.551 54C291.551 53.2 293.851 52.2333 295.451 51.1C297.051 49.9 298.317 48.5333 299.251 47C300.251 45.4 300.884 44.0333 301.151 42.9C301.417 41.7 301.551 40.5333 301.551 39.4V39.2C295.284 43.5333 285.484 45.7 272.151 45.7H270.851C263.451 45.7 257.051 45.1333 251.651 44C246.317 42.8 242.217 41.2 239.351 39.2C236.484 37.1333 234.417 34.9333 233.151 32.6C231.884 30.2 231.251 27.5667 231.251 24.7V23.9C231.251 21.5667 231.484 19.4333 231.951 17.5C232.551 15.5667 233.717 13.5333 235.451 11.4C237.251 9.2 239.651 7.36667 242.651 5.9C245.651 4.36666 249.851 3.1 255.251 2.1C260.651 1.1 267.017 0.599994 274.351 0.599994H278.651C309.384 0.599994 324.751 11.9667 324.751 34.7V36.9C324.751 40.3667 324.384 43.6 323.651 46.6C322.917 49.6 321.517 52.6333 319.451 55.7C317.451 58.7667 314.817 61.4 311.551 63.6C308.351 65.7333 304.117 67.5 298.851 68.9C293.584 70.2333 287.451 70.9 280.451 70.9H276.551ZM298.551 23.9V23.6C298.551 18.6 291.351 16.1 276.951 16.1C262.684 16.1 255.551 18.6 255.551 23.6V23.9C255.551 28.9667 262.684 31.5 276.951 31.5C291.351 31.5 298.551 28.9667 298.551 23.9Z" fill="#CEFFD9"/>
</svg>
