<svg width="993" height="129" viewBox="0 0 993 129" fill="none" xmlns="http://www.w3.org/2000/svg">
<mask id="path-1-outside-1_1_826" maskUnits="userSpaceOnUse" x="337.561" y="1" width="122" height="66" fill="black">
<rect fill="white" x="337.561" y="1" width="122" height="66"/>
<path fill-rule="evenodd" clip-rule="evenodd" d="M339.561 64.5379C340.323 64.5526 341.094 64.5599 341.875 64.5599H413.535C418.95 64.5599 423.885 64.2086 428.341 63.506C432.797 62.745 436.52 61.7497 439.509 60.5203C442.386 59.3494 444.98 57.8857 447.293 56.1294C449.549 54.4316 451.297 52.7045 452.538 50.9482C453.779 49.2504 454.794 47.3477 455.584 45.2401C456.374 43.2495 456.881 41.4347 457.107 39.7954C457.332 38.1562 457.445 36.4876 457.445 34.7898V32.4188C457.445 30.721 457.332 29.0524 457.107 27.4132C456.881 25.7739 456.374 23.959 455.584 21.9685C454.794 19.978 453.779 18.1046 452.538 16.3482C451.297 14.6504 449.549 12.9526 447.293 11.2548C445.037 9.55702 442.414 8.12267 439.424 6.95178C436.435 5.78088 432.741 4.81489 428.341 4.05381C423.885 3.35127 418.95 3 413.535 3H377.705H341.875C341.094 3 340.323 3.0073 339.561 3.02191V17.5003C340.419 17.4515 341.303 17.4188 342.214 17.402H413.789C417.004 17.5191 419.881 17.8411 422.419 18.368C425.521 19.0706 427.946 19.9194 429.695 20.9147C431.443 21.91 432.91 23.1394 434.094 24.603C435.166 26.0081 435.927 27.3839 436.379 28.7304C436.717 30.0184 436.914 31.4235 436.971 32.9457V34.0873C436.971 35.9607 436.604 37.7756 435.871 39.532C435.194 41.2298 433.982 42.9276 432.233 44.6254C430.485 46.3232 427.862 47.6404 424.365 48.5771C421.319 49.4553 417.681 49.9529 413.451 50.07H342.467C341.468 50.0571 340.499 50.0226 339.561 49.9665V64.5379Z"/>
</mask>
<path d="M339.561 64.5379H337.561V66.5L339.523 66.5376L339.561 64.5379ZM428.341 63.506L428.653 65.4816L428.665 65.4796L428.678 65.4775L428.341 63.506ZM439.509 60.5203L438.755 58.6678L438.748 58.6706L439.509 60.5203ZM447.293 56.1294L446.09 54.5313L446.083 54.5367L447.293 56.1294ZM452.538 50.9482L450.923 49.7681L450.914 49.781L450.905 49.7941L452.538 50.9482ZM455.584 45.2401L453.725 44.5026L453.718 44.5204L453.711 44.5384L455.584 45.2401ZM457.107 39.7954L459.088 40.0681L459.088 40.0681L457.107 39.7954ZM457.107 27.4132L459.088 27.1405L459.088 27.1405L457.107 27.4132ZM455.584 21.9685L457.443 21.231L457.443 21.231L455.584 21.9685ZM452.538 16.3482L454.172 15.1942L454.162 15.181L454.153 15.1681L452.538 16.3482ZM447.293 11.2548L448.495 9.65676L448.495 9.65676L447.293 11.2548ZM439.424 6.95178L438.695 8.81402L438.695 8.81402L439.424 6.95178ZM428.341 4.05381L428.682 2.08308L428.667 2.08054L428.653 2.07821L428.341 4.05381ZM339.561 3.02191L339.523 1.02228L337.561 1.05988V3.02191H339.561ZM339.561 17.5003H337.561V19.6172L339.675 19.4971L339.561 17.5003ZM342.214 17.402V15.402H342.195L342.177 15.4024L342.214 17.402ZM413.789 17.402L413.862 15.4033L413.826 15.402H413.789V17.402ZM422.419 18.368L422.861 16.4174L422.843 16.4134L422.825 16.4098L422.419 18.368ZM429.695 20.9147L430.684 19.1766L430.684 19.1766L429.695 20.9147ZM434.094 24.603L435.685 23.3901L435.667 23.3672L435.649 23.3449L434.094 24.603ZM436.379 28.7304L438.313 28.2222L438.296 28.1579L438.275 28.095L436.379 28.7304ZM436.971 32.9457H438.971V32.9086L438.97 32.8716L436.971 32.9457ZM435.871 39.532L434.025 38.7614L434.019 38.7763L434.013 38.7913L435.871 39.532ZM432.233 44.6254L433.626 46.0602L433.626 46.0602L432.233 44.6254ZM424.365 48.5771L423.847 46.6452L423.829 46.6501L423.811 46.6554L424.365 48.5771ZM413.451 50.07V52.07H413.478L413.506 52.0692L413.451 50.07ZM342.467 50.07L342.441 52.0698L342.454 52.07H342.467V50.07ZM339.561 49.9665L339.68 47.9701L337.561 47.8436V49.9665H339.561ZM341.875 62.5599C341.107 62.5599 340.348 62.5527 339.599 62.5383L339.523 66.5376C340.298 66.5524 341.082 66.5599 341.875 66.5599V62.5599ZM413.535 62.5599H341.875V66.5599H413.535V62.5599ZM428.03 61.5305C423.695 62.2139 418.866 62.5599 413.535 62.5599V66.5599C419.034 66.5599 424.076 66.2033 428.653 65.4816L428.03 61.5305ZM438.748 58.6706C435.937 59.8267 432.368 60.7893 428.004 61.5346L428.678 65.4775C433.226 64.7006 437.102 63.6727 440.27 62.3699L438.748 58.6706ZM446.083 54.5367C443.92 56.1797 441.48 57.5586 438.755 58.6678L440.263 62.3727C443.291 61.1402 446.041 59.5918 448.502 57.7221L446.083 54.5367ZM450.905 49.7941C449.814 51.3375 448.229 52.9216 446.09 54.5313L448.495 57.7275C450.868 55.9416 452.78 54.0716 454.172 52.1022L450.905 49.7941ZM453.711 44.5384C452.981 46.4874 452.05 48.2272 450.923 49.7681L454.153 52.1283C455.508 50.2736 456.608 48.2079 457.457 45.9418L453.711 44.5384ZM455.126 39.5227C454.927 40.964 454.472 42.6203 453.725 44.5026L457.443 45.9776C458.276 43.8788 458.835 41.9053 459.088 40.0681L455.126 39.5227ZM455.445 34.7898C455.445 36.3988 455.338 37.9761 455.126 39.5227L459.088 40.0681C459.327 38.3362 459.445 36.5765 459.445 34.7898H455.445ZM455.445 32.4188V34.7898H459.445V32.4188H455.445ZM455.126 27.6859C455.338 29.2325 455.445 30.8098 455.445 32.4188H459.445C459.445 30.6321 459.327 28.8724 459.088 27.1405L455.126 27.6859ZM453.725 22.706C454.472 24.5883 454.927 26.2445 455.126 27.6859L459.088 27.1405C458.835 25.3033 458.276 23.3298 457.443 21.231L453.725 22.706ZM450.905 17.5023C452.055 19.1297 452.994 20.8634 453.725 22.706L457.443 21.231C456.595 19.0926 455.504 17.0794 454.172 15.1942L450.905 17.5023ZM446.09 12.8529C448.239 14.4701 449.831 16.0331 450.923 17.5284L454.153 15.1681C452.764 13.2677 450.858 11.4351 448.495 9.65676L446.09 12.8529ZM438.695 8.81402C441.538 9.92761 443.997 11.2779 446.09 12.8529L448.495 9.65676C446.076 7.8361 443.29 6.31773 440.154 5.08953L438.695 8.81402ZM428 6.02454C432.314 6.77082 435.869 7.70715 438.695 8.81402L440.154 5.08953C437.001 3.85461 433.167 2.85895 428.682 2.08308L428 6.02454ZM413.535 5C418.866 5 423.695 5.34595 428.03 6.0294L428.653 2.07821C424.076 1.35659 419.034 1 413.535 1V5ZM377.705 5H413.535V1H377.705V5ZM341.875 5H377.705V1H341.875V5ZM339.599 5.02154C340.348 5.00719 341.107 5 341.875 5V1C341.082 1 340.298 1.00742 339.523 1.02228L339.599 5.02154ZM337.561 3.02191V17.5003H341.561V3.02191H337.561ZM342.177 15.4024C341.242 15.4196 340.333 15.4532 339.448 15.5035L339.675 19.4971C340.506 19.4498 341.364 19.418 342.25 19.4017L342.177 15.4024ZM413.789 15.402H342.214V19.402H413.789V15.402ZM422.825 16.4098C420.155 15.8554 417.164 15.5236 413.862 15.4033L413.716 19.4007C416.845 19.5146 419.607 19.8268 422.012 20.3263L422.825 16.4098ZM430.684 19.1766C428.695 18.0444 426.057 17.1413 422.861 16.4174L421.977 20.3186C424.985 20.9998 427.198 21.7945 428.706 22.6529L430.684 19.1766ZM435.649 23.3449C434.297 21.6744 432.634 20.2866 430.684 19.1766L428.706 22.6529C430.252 23.5333 431.523 24.6044 432.54 25.8612L435.649 23.3449ZM438.275 28.095C437.739 26.4968 436.858 24.9287 435.685 23.3901L432.504 25.8159C433.474 27.0875 434.115 28.271 434.482 29.3659L438.275 28.095ZM438.97 32.8716C438.908 31.2233 438.694 29.6707 438.313 28.2222L434.444 29.2387C434.741 30.3662 434.921 31.6237 434.972 33.0197L438.97 32.8716ZM438.971 34.0873V32.9457H434.971V34.0873H438.971ZM437.717 40.3025C438.55 38.306 438.971 36.2295 438.971 34.0873H434.971C434.971 35.6919 434.658 37.2452 434.025 38.7614L437.717 40.3025ZM433.626 46.0602C435.513 44.2284 436.919 42.3036 437.729 40.2726L434.013 38.7913C433.469 40.1559 432.45 41.6268 430.84 43.1905L433.626 46.0602ZM424.882 50.509C428.561 49.5237 431.543 48.0836 433.626 46.0602L430.84 43.1905C429.427 44.5627 427.163 45.7571 423.847 46.6452L424.882 50.509ZM413.506 52.0692C417.853 51.9489 421.667 51.4364 424.919 50.4988L423.811 46.6554C420.971 47.4742 417.509 47.9569 413.395 48.0708L413.506 52.0692ZM342.467 52.07H413.451V48.07H342.467V52.07ZM339.442 51.963C340.413 52.021 341.413 52.0565 342.441 52.0698L342.493 48.0702C341.523 48.0576 340.586 48.0241 339.68 47.9701L339.442 51.963ZM337.561 49.9665V64.5379H341.561V49.9665H337.561Z" fill="#41F168" mask="url(#path-1-outside-1_1_826)"/>
<mask id="path-3-outside-2_1_826" maskUnits="userSpaceOnUse" x="468" y="1" width="112" height="66" fill="black">
<rect fill="white" x="468" y="1" width="112" height="66"/>
<path fill-rule="evenodd" clip-rule="evenodd" d="M470 64.5599H533.414C538.828 64.5599 543.764 64.2086 548.219 63.506C552.675 62.745 556.398 61.7497 559.387 60.5203C562.264 59.3494 564.858 57.8857 567.171 56.1294C569.427 54.4316 571.175 52.7045 572.416 50.9482C573.657 49.2504 574.673 47.3477 575.462 45.2401C576.252 43.2495 576.759 41.4347 576.985 39.7954C577.211 38.1562 577.323 36.4876 577.323 34.7898V32.4188C577.323 30.721 577.211 29.0524 576.985 27.4132C576.759 25.7739 576.252 23.959 575.462 21.9685C574.673 19.978 573.657 18.1046 572.416 16.3482C571.175 14.6504 569.427 12.9526 567.171 11.2548C564.915 9.55702 562.292 8.12267 559.303 6.95178C556.313 5.78088 552.619 4.81489 548.219 4.05381C543.764 3.35127 538.828 3 533.414 3H497.583H470V17.402H533.667C536.882 17.5191 539.759 17.8411 542.297 18.368C545.399 19.0706 547.825 19.9194 549.573 20.9147C551.322 21.91 552.788 23.1394 553.973 24.603C555.044 26.0081 555.806 27.3839 556.257 28.7304C556.595 30.0184 556.793 31.4235 556.849 32.9457V34.0873C556.849 35.9607 556.482 37.7756 555.749 39.532C555.072 41.2298 553.86 42.9276 552.111 44.6254C550.363 46.3232 547.74 47.6404 544.243 48.5771C541.197 49.4553 537.559 49.9529 533.329 50.07H470V64.5599Z"/>
</mask>
<path d="M470 64.5599H468V66.5599H470V64.5599ZM548.219 63.506L548.531 65.4816L548.544 65.4796L548.556 65.4775L548.219 63.506ZM559.387 60.5203L558.633 58.6678L558.627 58.6706L559.387 60.5203ZM567.171 56.1294L565.968 54.5313L565.961 54.5367L567.171 56.1294ZM572.416 50.9482L570.802 49.7681L570.792 49.781L570.783 49.7941L572.416 50.9482ZM575.462 45.2401L573.603 44.5026L573.596 44.5204L573.589 44.5384L575.462 45.2401ZM576.985 39.7954L578.966 40.0681L578.966 40.0681L576.985 39.7954ZM576.985 27.4132L578.966 27.1405L578.966 27.1405L576.985 27.4132ZM575.462 21.9685L577.321 21.231L577.321 21.231L575.462 21.9685ZM572.416 16.3482L574.05 15.1942L574.041 15.181L574.031 15.1681L572.416 16.3482ZM567.171 11.2548L568.373 9.65676L568.373 9.65676L567.171 11.2548ZM559.303 6.95178L558.573 8.81402L558.573 8.81402L559.303 6.95178ZM548.219 4.05381L548.56 2.08308L548.546 2.08054L548.531 2.07821L548.219 4.05381ZM470 3V1H468V3H470ZM470 17.402H468V19.402H470V17.402ZM533.667 17.402L533.74 15.4033L533.704 15.402H533.667V17.402ZM542.297 18.368L542.739 16.4174L542.721 16.4134L542.704 16.4098L542.297 18.368ZM549.573 20.9147L550.562 19.1766L550.562 19.1766L549.573 20.9147ZM553.973 24.603L555.563 23.3901L555.545 23.3672L555.527 23.3449L553.973 24.603ZM556.257 28.7304L558.191 28.2222L558.174 28.1579L558.153 28.095L556.257 28.7304ZM556.849 32.9457H558.849V32.9086L558.848 32.8716L556.849 32.9457ZM555.749 39.532L553.904 38.7614L553.897 38.7763L553.891 38.7913L555.749 39.532ZM552.111 44.6254L550.718 43.1905L550.718 43.1905L552.111 44.6254ZM544.243 48.5771L543.725 46.6452L543.707 46.6501L543.689 46.6554L544.243 48.5771ZM533.329 50.07V52.07H533.357L533.384 52.0692L533.329 50.07ZM470 50.07V48.07H468V50.07H470ZM533.414 62.5599H470V66.5599H533.414V62.5599ZM547.908 61.5305C543.573 62.2139 538.744 62.5599 533.414 62.5599V66.5599C538.913 66.5599 543.954 66.2033 548.531 65.4816L547.908 61.5305ZM558.627 58.6706C555.815 59.8267 552.246 60.7893 547.883 61.5346L548.556 65.4775C553.105 64.7006 556.98 63.6727 560.148 62.3699L558.627 58.6706ZM565.961 54.5367C563.798 56.1797 561.358 57.5586 558.633 58.6678L560.141 62.3727C563.169 61.1402 565.919 59.5918 568.381 57.7221L565.961 54.5367ZM570.783 49.7941C569.693 51.3375 568.107 52.9216 565.968 54.5313L568.373 57.7275C570.747 55.9416 572.658 54.0716 574.05 52.1022L570.783 49.7941ZM573.589 44.5384C572.859 46.4874 571.928 48.2272 570.802 49.7681L574.031 52.1283C575.387 50.2736 576.486 48.2079 577.335 45.9418L573.589 44.5384ZM575.004 39.5227C574.805 40.964 574.35 42.6203 573.603 44.5026L577.321 45.9776C578.154 43.8788 578.714 41.9053 578.966 40.0681L575.004 39.5227ZM575.323 34.7898C575.323 36.3988 575.217 37.9761 575.004 39.5227L578.966 40.0681C579.205 38.3362 579.323 36.5765 579.323 34.7898H575.323ZM575.323 32.4188V34.7898H579.323V32.4188H575.323ZM575.004 27.6859C575.217 29.2324 575.323 30.8098 575.323 32.4188H579.323C579.323 30.6321 579.205 28.8724 578.966 27.1405L575.004 27.6859ZM573.603 22.706C574.35 24.5883 574.805 26.2445 575.004 27.6859L578.966 27.1405C578.714 25.3033 578.154 23.3298 577.321 21.231L573.603 22.706ZM570.783 17.5023C571.933 19.1297 572.872 20.8634 573.603 22.706L577.321 21.231C576.473 19.0926 575.382 17.0794 574.05 15.1942L570.783 17.5023ZM565.968 12.8529C568.117 14.4701 569.709 16.0331 570.802 17.5284L574.031 15.1681C572.642 13.2677 570.737 11.4351 568.373 9.65676L565.968 12.8529ZM558.573 8.81402C561.416 9.92761 563.875 11.2779 565.968 12.8529L568.373 9.65676C565.954 7.8361 563.168 6.31773 560.032 5.08953L558.573 8.81402ZM547.878 6.02454C552.192 6.77082 555.747 7.70715 558.573 8.81402L560.032 5.08953C556.879 3.85461 553.045 2.85895 548.56 2.08308L547.878 6.02454ZM533.414 5C538.744 5 543.573 5.34595 547.908 6.0294L548.531 2.07821C543.954 1.35659 538.913 1 533.414 1V5ZM497.583 5H533.414V1H497.583V5ZM470 5H497.583V1H470V5ZM468 3V17.402H472V3H468ZM533.667 15.402H470V19.402H533.667V15.402ZM542.704 16.4098C540.033 15.8554 537.042 15.5236 533.74 15.4033L533.595 19.4007C536.723 19.5146 539.485 19.8268 541.891 20.3263L542.704 16.4098ZM550.562 19.1766C548.573 18.0444 545.935 17.1413 542.739 16.4174L541.855 20.3186C544.863 20.9998 547.076 21.7945 548.584 22.6529L550.562 19.1766ZM555.527 23.3449C554.175 21.6744 552.513 20.2866 550.562 19.1766L548.584 22.6529C550.13 23.5333 551.401 24.6044 552.418 25.8612L555.527 23.3449ZM558.153 28.095C557.618 26.4968 556.736 24.9287 555.563 23.3901L552.382 25.8159C553.352 27.0875 553.994 28.271 554.361 29.3659L558.153 28.095ZM558.848 32.8716C558.787 31.2233 558.572 29.6707 558.191 28.2222L554.323 29.2387C554.619 30.3662 554.799 31.6237 554.85 33.0197L558.848 32.8716ZM558.849 34.0873V32.9457H554.849V34.0873H558.849ZM557.595 40.3025C558.428 38.306 558.849 36.2295 558.849 34.0873H554.849C554.849 35.6919 554.537 37.2452 553.904 38.7614L557.595 40.3025ZM553.504 46.0602C555.391 44.2284 556.797 42.3036 557.607 40.2726L553.891 38.7913C553.347 40.1559 552.328 41.6268 550.718 43.1905L553.504 46.0602ZM544.76 50.509C548.439 49.5237 551.421 48.0836 553.504 46.0602L550.718 43.1905C549.305 44.5627 547.041 45.7571 543.725 46.6452L544.76 50.509ZM533.384 52.0692C537.731 51.9489 541.545 51.4364 544.797 50.4988L543.689 46.6554C540.849 47.4742 537.388 47.9569 533.274 48.0708L533.384 52.0692ZM470 52.07H533.329V48.07H470V52.07ZM468 50.07V64.5599H472V50.07H468Z" fill="#41F168" mask="url(#path-3-outside-2_1_826)"/>
<mask id="path-5-outside-3_1_826" maskUnits="userSpaceOnUse" x="591" y="1" width="97" height="66" fill="black">
<rect fill="white" x="591" y="1" width="97" height="66"/>
<path fill-rule="evenodd" clip-rule="evenodd" d="M593 64.5599H641.414C646.828 64.5599 651.764 64.2086 656.219 63.506C660.675 62.745 664.398 61.7497 667.387 60.5203C670.264 59.3494 672.858 57.8857 675.171 56.1294C677.427 54.4316 679.175 52.7045 680.416 50.9482C681.657 49.2504 682.672 47.3477 683.462 45.2401C684.252 43.2495 684.759 41.4347 684.985 39.7954C685.211 38.1562 685.323 36.4876 685.323 34.7898V32.4188C685.323 30.721 685.211 29.0524 684.985 27.4132C684.759 25.7739 684.252 23.959 683.462 21.9685C682.672 19.978 681.657 18.1046 680.416 16.3482C679.175 14.6504 677.427 12.9526 675.171 11.2548C672.915 9.55702 670.292 8.12267 667.303 6.95178C664.313 5.78088 660.619 4.81489 656.219 4.05381C651.764 3.35127 646.828 3 641.414 3H605.583H593V17.402H641.667C644.882 17.5191 647.759 17.8411 650.297 18.368C653.399 19.0706 655.825 19.9194 657.573 20.9147C659.322 21.91 660.788 23.1394 661.973 24.603C663.044 26.0081 663.806 27.3839 664.257 28.7304C664.595 30.0184 664.793 31.4235 664.849 32.9457V34.0873C664.849 35.9607 664.482 37.7756 663.749 39.532C663.072 41.2298 661.86 42.9276 660.111 44.6254C658.363 46.3232 655.74 47.6404 652.243 48.5771C649.197 49.4553 645.559 49.9529 641.329 50.07H593V64.5599Z"/>
</mask>
<path d="M593 64.5599H591V66.5599H593V64.5599ZM656.219 63.506L656.531 65.4816L656.544 65.4796L656.556 65.4775L656.219 63.506ZM667.387 60.5203L666.633 58.6678L666.627 58.6706L667.387 60.5203ZM675.171 56.1294L673.968 54.5313L673.961 54.5367L675.171 56.1294ZM680.416 50.9482L678.802 49.7681L678.792 49.781L678.783 49.7941L680.416 50.9482ZM683.462 45.2401L681.603 44.5026L681.596 44.5204L681.589 44.5384L683.462 45.2401ZM684.985 39.7954L686.966 40.0681L686.966 40.0681L684.985 39.7954ZM684.985 27.4132L686.966 27.1405L686.966 27.1405L684.985 27.4132ZM683.462 21.9685L685.321 21.231L685.321 21.231L683.462 21.9685ZM680.416 16.3482L682.05 15.1942L682.041 15.181L682.031 15.1681L680.416 16.3482ZM675.171 11.2548L676.373 9.65676L676.373 9.65676L675.171 11.2548ZM667.303 6.95178L666.573 8.81402L666.573 8.81402L667.303 6.95178ZM656.219 4.05381L656.56 2.08308L656.546 2.08054L656.531 2.07821L656.219 4.05381ZM593 3V1H591V3H593ZM593 17.402H591V19.402H593V17.402ZM641.667 17.402L641.74 15.4033L641.704 15.402H641.667V17.402ZM650.297 18.368L650.739 16.4174L650.721 16.4134L650.704 16.4098L650.297 18.368ZM657.573 20.9147L658.562 19.1766L658.562 19.1766L657.573 20.9147ZM661.973 24.603L663.563 23.3901L663.545 23.3672L663.527 23.3449L661.973 24.603ZM664.257 28.7304L666.191 28.2222L666.174 28.1579L666.153 28.095L664.257 28.7304ZM664.849 32.9457H666.849V32.9086L666.848 32.8716L664.849 32.9457ZM663.749 39.532L661.904 38.7614L661.897 38.7763L661.891 38.7913L663.749 39.532ZM660.111 44.6254L658.718 43.1905L658.718 43.1905L660.111 44.6254ZM652.243 48.5771L651.725 46.6452L651.707 46.6501L651.689 46.6554L652.243 48.5771ZM641.329 50.07V52.07H641.357L641.384 52.0692L641.329 50.07ZM593 50.07V48.07H591V50.07H593ZM641.414 62.5599H593V66.5599H641.414V62.5599ZM655.908 61.5305C651.573 62.2139 646.744 62.5599 641.414 62.5599V66.5599C646.913 66.5599 651.954 66.2033 656.531 65.4816L655.908 61.5305ZM666.627 58.6706C663.815 59.8267 660.246 60.7893 655.883 61.5346L656.556 65.4775C661.105 64.7006 664.98 63.6727 668.148 62.3699L666.627 58.6706ZM673.961 54.5367C671.798 56.1797 669.358 57.5586 666.633 58.6678L668.141 62.3727C671.169 61.1402 673.919 59.5918 676.381 57.7221L673.961 54.5367ZM678.783 49.7941C677.693 51.3375 676.107 52.9216 673.968 54.5313L676.373 57.7275C678.747 55.9416 680.658 54.0716 682.05 52.1022L678.783 49.7941ZM681.589 44.5384C680.859 46.4874 679.928 48.2272 678.802 49.7681L682.031 52.1283C683.387 50.2736 684.486 48.2079 685.335 45.9418L681.589 44.5384ZM683.004 39.5227C682.805 40.964 682.35 42.6203 681.603 44.5026L685.321 45.9776C686.154 43.8788 686.713 41.9053 686.966 40.0681L683.004 39.5227ZM683.323 34.7898C683.323 36.3988 683.217 37.9761 683.004 39.5227L686.966 40.0681C687.205 38.3362 687.323 36.5765 687.323 34.7898H683.323ZM683.323 32.4188V34.7898H687.323V32.4188H683.323ZM683.004 27.6859C683.217 29.2324 683.323 30.8098 683.323 32.4188H687.323C687.323 30.6321 687.205 28.8724 686.966 27.1405L683.004 27.6859ZM681.603 22.706C682.35 24.5883 682.805 26.2445 683.004 27.6859L686.966 27.1405C686.713 25.3033 686.154 23.3298 685.321 21.231L681.603 22.706ZM678.783 17.5023C679.933 19.1297 680.872 20.8634 681.603 22.706L685.321 21.231C684.473 19.0926 683.382 17.0794 682.05 15.1942L678.783 17.5023ZM673.968 12.8529C676.117 14.4701 677.709 16.0331 678.802 17.5284L682.031 15.1681C680.642 13.2677 678.737 11.4351 676.373 9.65676L673.968 12.8529ZM666.573 8.81402C669.416 9.92761 671.875 11.2779 673.968 12.8529L676.373 9.65676C673.954 7.8361 671.168 6.31773 668.032 5.08953L666.573 8.81402ZM655.878 6.02454C660.192 6.77082 663.747 7.70715 666.573 8.81402L668.032 5.08953C664.879 3.85461 661.045 2.85895 656.56 2.08308L655.878 6.02454ZM641.414 5C646.744 5 651.573 5.34595 655.908 6.0294L656.531 2.07821C651.954 1.35659 646.913 1 641.414 1V5ZM605.583 5H641.414V1H605.583V5ZM593 5H605.583V1H593V5ZM591 3V17.402H595V3H591ZM641.667 15.402H593V19.402H641.667V15.402ZM650.704 16.4098C648.033 15.8554 645.042 15.5236 641.74 15.4033L641.595 19.4007C644.723 19.5146 647.485 19.8268 649.891 20.3263L650.704 16.4098ZM658.562 19.1766C656.573 18.0444 653.935 17.1413 650.739 16.4174L649.855 20.3186C652.863 20.9998 655.076 21.7945 656.584 22.6529L658.562 19.1766ZM663.527 23.3449C662.175 21.6744 660.513 20.2866 658.562 19.1766L656.584 22.6529C658.13 23.5333 659.401 24.6044 660.418 25.8612L663.527 23.3449ZM666.153 28.095C665.618 26.4968 664.736 24.9287 663.563 23.3901L660.382 25.8159C661.352 27.0875 661.994 28.271 662.36 29.3659L666.153 28.095ZM666.848 32.8716C666.787 31.2233 666.572 29.6707 666.191 28.2222L662.323 29.2387C662.619 30.3662 662.799 31.6237 662.85 33.0197L666.848 32.8716ZM666.849 34.0873V32.9457H662.849V34.0873H666.849ZM665.595 40.3025C666.428 38.306 666.849 36.2295 666.849 34.0873H662.849C662.849 35.6919 662.537 37.2452 661.904 38.7614L665.595 40.3025ZM661.504 46.0602C663.391 44.2284 664.797 42.3036 665.607 40.2726L661.891 38.7913C661.347 40.1559 660.328 41.6268 658.718 43.1905L661.504 46.0602ZM652.76 50.509C656.439 49.5237 659.421 48.0836 661.504 46.0602L658.718 43.1905C657.305 44.5627 655.041 45.7571 651.725 46.6452L652.76 50.509ZM641.384 52.0692C645.731 51.9489 649.545 51.4364 652.797 50.4988L651.689 46.6554C648.849 47.4742 645.388 47.9569 641.274 48.0708L641.384 52.0692ZM593 52.07H641.329V48.07H593V52.07ZM591 50.07V64.5599H595V50.07H591Z" fill="#41F168" mask="url(#path-5-outside-3_1_826)"/>
<mask id="path-7-outside-4_1_826" maskUnits="userSpaceOnUse" x="699" y="1" width="83" height="66" fill="black">
<rect fill="white" x="699" y="1" width="83" height="66"/>
<path fill-rule="evenodd" clip-rule="evenodd" d="M701 64.5599H735.414C740.828 64.5599 745.764 64.2086 750.219 63.506C754.675 62.745 758.398 61.7497 761.387 60.5203C764.264 59.3494 766.858 57.8857 769.171 56.1294C771.427 54.4316 773.175 52.7045 774.416 50.9482C775.657 49.2504 776.672 47.3477 777.462 45.2401C778.252 43.2495 778.759 41.4347 778.985 39.7954C779.211 38.1562 779.323 36.4876 779.323 34.7898V32.4188C779.323 30.721 779.211 29.0524 778.985 27.4132C778.759 25.7739 778.252 23.959 777.462 21.9685C776.672 19.978 775.657 18.1046 774.416 16.3482C773.175 14.6504 771.427 12.9526 769.171 11.2548C766.915 9.55702 764.292 8.12267 761.303 6.95178C758.313 5.78088 754.619 4.81489 750.219 4.05381C745.764 3.35127 740.828 3 735.414 3H701V17.402H735.667C738.882 17.5191 741.759 17.8411 744.297 18.368C747.399 19.0706 749.825 19.9194 751.573 20.9147C753.322 21.91 754.788 23.1394 755.973 24.603C757.044 26.0081 757.806 27.3839 758.257 28.7304C758.595 30.0184 758.793 31.4235 758.849 32.9457V34.0873C758.849 35.9607 758.482 37.7756 757.749 39.532C757.072 41.2298 755.86 42.9276 754.111 44.6254C752.363 46.3232 749.74 47.6404 746.243 48.5771C743.197 49.4553 739.559 49.9529 735.329 50.07H701V64.5599Z"/>
</mask>
<path d="M701 64.5599H699V66.5599H701V64.5599ZM750.219 63.506L750.531 65.4816L750.544 65.4796L750.556 65.4775L750.219 63.506ZM761.387 60.5203L760.633 58.6678L760.627 58.6706L761.387 60.5203ZM769.171 56.1294L767.968 54.5313L767.961 54.5367L769.171 56.1294ZM774.416 50.9482L772.802 49.7681L772.792 49.781L772.783 49.7941L774.416 50.9482ZM777.462 45.2401L775.603 44.5026L775.596 44.5204L775.589 44.5384L777.462 45.2401ZM778.985 39.7954L780.966 40.0681L780.966 40.0681L778.985 39.7954ZM778.985 27.4132L780.966 27.1405L780.966 27.1405L778.985 27.4132ZM777.462 21.9685L779.321 21.231L779.321 21.231L777.462 21.9685ZM774.416 16.3482L776.05 15.1942L776.041 15.181L776.031 15.1681L774.416 16.3482ZM769.171 11.2548L770.373 9.65676L770.373 9.65676L769.171 11.2548ZM761.303 6.95178L760.573 8.81402L760.573 8.81402L761.303 6.95178ZM750.219 4.05381L750.56 2.08308L750.546 2.08054L750.531 2.07821L750.219 4.05381ZM701 3V1H699V3H701ZM701 17.402H699V19.402H701V17.402ZM735.667 17.402L735.74 15.4033L735.704 15.402H735.667V17.402ZM744.297 18.368L744.739 16.4174L744.721 16.4134L744.704 16.4098L744.297 18.368ZM751.573 20.9147L752.562 19.1766L752.562 19.1766L751.573 20.9147ZM755.973 24.603L757.563 23.3901L757.545 23.3672L757.527 23.3449L755.973 24.603ZM758.257 28.7304L760.191 28.2222L760.174 28.1579L760.153 28.095L758.257 28.7304ZM758.849 32.9457H760.849V32.9086L760.848 32.8716L758.849 32.9457ZM757.749 39.532L755.904 38.7614L755.897 38.7763L755.891 38.7913L757.749 39.532ZM754.111 44.6254L752.718 43.1905L752.718 43.1905L754.111 44.6254ZM746.243 48.5771L745.725 46.6452L745.707 46.6501L745.689 46.6554L746.243 48.5771ZM735.329 50.07V52.07H735.357L735.384 52.0692L735.329 50.07ZM701 50.07V48.07H699V50.07H701ZM735.414 62.5599H701V66.5599H735.414V62.5599ZM749.908 61.5305C745.573 62.2139 740.744 62.5599 735.414 62.5599V66.5599C740.913 66.5599 745.954 66.2033 750.531 65.4816L749.908 61.5305ZM760.627 58.6706C757.815 59.8267 754.246 60.7893 749.883 61.5346L750.556 65.4775C755.105 64.7006 758.98 63.6727 762.148 62.3699L760.627 58.6706ZM767.961 54.5367C765.798 56.1797 763.358 57.5586 760.633 58.6678L762.141 62.3727C765.169 61.1402 767.919 59.5918 770.381 57.7221L767.961 54.5367ZM772.783 49.7941C771.693 51.3375 770.107 52.9216 767.968 54.5313L770.373 57.7275C772.747 55.9416 774.658 54.0716 776.05 52.1022L772.783 49.7941ZM775.589 44.5384C774.859 46.4874 773.928 48.2272 772.802 49.7681L776.031 52.1283C777.387 50.2736 778.486 48.2079 779.335 45.9418L775.589 44.5384ZM777.004 39.5227C776.805 40.964 776.35 42.6203 775.603 44.5026L779.321 45.9776C780.154 43.8788 780.713 41.9053 780.966 40.0681L777.004 39.5227ZM777.323 34.7898C777.323 36.3988 777.217 37.9761 777.004 39.5227L780.966 40.0681C781.205 38.3362 781.323 36.5765 781.323 34.7898H777.323ZM777.323 32.4188V34.7898H781.323V32.4188H777.323ZM777.004 27.6859C777.217 29.2324 777.323 30.8098 777.323 32.4188H781.323C781.323 30.6321 781.205 28.8724 780.966 27.1405L777.004 27.6859ZM775.603 22.706C776.35 24.5883 776.805 26.2445 777.004 27.6859L780.966 27.1405C780.713 25.3033 780.154 23.3298 779.321 21.231L775.603 22.706ZM772.783 17.5023C773.933 19.1297 774.872 20.8634 775.603 22.706L779.321 21.231C778.473 19.0926 777.382 17.0794 776.05 15.1942L772.783 17.5023ZM767.968 12.8529C770.117 14.4701 771.709 16.0331 772.802 17.5284L776.031 15.1681C774.642 13.2677 772.737 11.4351 770.373 9.65676L767.968 12.8529ZM760.573 8.81402C763.416 9.92761 765.875 11.2779 767.968 12.8529L770.373 9.65676C767.954 7.8361 765.168 6.31773 762.032 5.08953L760.573 8.81402ZM749.878 6.02454C754.192 6.77082 757.747 7.70715 760.573 8.81402L762.032 5.08953C758.879 3.85461 755.045 2.85895 750.56 2.08308L749.878 6.02454ZM735.414 5C740.744 5 745.573 5.34595 749.908 6.0294L750.531 2.07821C745.954 1.35659 740.913 1 735.414 1V5ZM701 5H735.414V1H701V5ZM699 3V17.402H703V3H699ZM735.667 15.402H701V19.402H735.667V15.402ZM744.704 16.4098C742.033 15.8554 739.042 15.5236 735.74 15.4033L735.595 19.4007C738.723 19.5146 741.485 19.8268 743.891 20.3263L744.704 16.4098ZM752.562 19.1766C750.573 18.0444 747.935 17.1413 744.739 16.4174L743.855 20.3186C746.863 20.9998 749.076 21.7945 750.584 22.6529L752.562 19.1766ZM757.527 23.3449C756.175 21.6744 754.513 20.2866 752.562 19.1766L750.584 22.6529C752.13 23.5333 753.401 24.6044 754.418 25.8612L757.527 23.3449ZM760.153 28.095C759.618 26.4968 758.736 24.9287 757.563 23.3901L754.382 25.8159C755.352 27.0875 755.994 28.271 756.36 29.3659L760.153 28.095ZM760.848 32.8716C760.787 31.2233 760.572 29.6707 760.191 28.2222L756.323 29.2387C756.619 30.3662 756.799 31.6237 756.85 33.0197L760.848 32.8716ZM760.849 34.0873V32.9457H756.849V34.0873H760.849ZM759.595 40.3025C760.428 38.306 760.849 36.2295 760.849 34.0873H756.849C756.849 35.6919 756.537 37.2452 755.904 38.7614L759.595 40.3025ZM755.504 46.0602C757.391 44.2284 758.797 42.3036 759.607 40.2726L755.891 38.7913C755.347 40.1559 754.328 41.6268 752.718 43.1905L755.504 46.0602ZM746.76 50.509C750.439 49.5237 753.421 48.0836 755.504 46.0602L752.718 43.1905C751.305 44.5627 749.041 45.7571 745.725 46.6452L746.76 50.509ZM735.384 52.0692C739.731 51.9489 743.545 51.4364 746.797 50.4988L745.689 46.6554C742.849 47.4742 739.388 47.9569 735.274 48.0708L735.384 52.0692ZM701 52.07H735.329V48.07H701V52.07ZM699 50.07V64.5599H703V50.07H699Z" fill="#41F168" mask="url(#path-7-outside-4_1_826)"/>
<path fill-rule="evenodd" clip-rule="evenodd" d="M795 64.5599H822.414C827.828 64.5599 832.764 64.2086 837.219 63.506C841.675 62.745 845.398 61.7497 848.387 60.5203C851.264 59.3494 853.858 57.8857 856.171 56.1294C858.427 54.4316 860.175 52.7045 861.416 50.9482C862.657 49.2504 863.672 47.3477 864.462 45.2401C865.252 43.2495 865.759 41.4347 865.985 39.7954C866.211 38.1562 866.323 36.4876 866.323 34.7898V32.4188C866.323 30.721 866.211 29.0524 865.985 27.4132C865.759 25.7739 865.252 23.959 864.462 21.9685C863.672 19.978 862.657 18.1046 861.416 16.3482C860.175 14.6504 858.427 12.9526 856.171 11.2548C853.915 9.55702 851.292 8.12267 848.303 6.95178C845.313 5.78088 841.619 4.81489 837.219 4.05381C832.764 3.35127 827.828 3 822.414 3H795V17.402H822.667C825.882 17.5191 828.759 17.8411 831.297 18.368C834.399 19.0706 836.825 19.9194 838.573 20.9147C840.322 21.91 841.788 23.1394 842.973 24.603C844.044 26.0081 844.806 27.3839 845.257 28.7304C845.595 30.0184 845.793 31.4235 845.849 32.9457V34.0873C845.849 35.9607 845.482 37.7756 844.749 39.532C844.072 41.2298 842.86 42.9276 841.111 44.6254C839.363 46.3232 836.74 47.6404 833.243 48.5771C830.197 49.4553 826.559 49.9529 822.329 50.07H795V64.5599Z" fill="#41F168"/>
<path fill-rule="evenodd" clip-rule="evenodd" d="M879 64.5599H896.655C902.069 64.5599 907.005 64.2086 911.461 63.506C915.916 62.745 919.639 61.7497 922.628 60.5203C925.505 59.3494 928.1 57.8857 930.412 56.1294C932.668 54.4316 934.417 52.7045 935.658 50.9482C936.898 49.2504 937.914 47.3477 938.703 45.2401C939.493 43.2495 940.001 41.4347 940.226 39.7954C940.452 38.1562 940.565 36.4876 940.565 34.7898V32.4188C940.565 30.721 940.452 29.0524 940.226 27.4132C940.001 25.7739 939.493 23.959 938.703 21.9685C937.914 19.978 936.898 18.1046 935.658 16.3482C934.417 14.6504 932.668 12.9526 930.412 11.2548C928.156 9.55702 925.533 8.12267 922.544 6.95178C919.554 5.78088 915.86 4.81489 911.461 4.05381C907.005 3.35127 902.069 3 896.655 3H879V17.402H896.909C900.124 17.5191 903 17.8411 905.538 18.368C908.64 19.0706 911.066 19.9194 912.814 20.9147C914.563 21.91 916.029 23.1394 917.214 24.603C918.285 26.0081 919.047 27.3839 919.498 28.7304C919.836 30.0184 920.034 31.4235 920.09 32.9457V34.0873C920.09 35.9607 919.724 37.7756 918.99 39.532C918.314 41.2298 917.101 42.9276 915.352 44.6254C913.604 46.3232 910.981 47.6404 907.484 48.5771C904.438 49.4553 900.8 49.9529 896.57 50.07H879V64.5599Z" fill="#41F168"/>
<path fill-rule="evenodd" clip-rule="evenodd" d="M956 64.3249C958.621 64.1498 961.107 63.8768 963.461 63.5058C967.916 62.7447 971.639 61.7494 974.628 60.52C977.505 59.3491 980.1 57.8855 982.412 56.1291C984.668 54.4313 986.417 52.7042 987.658 50.9479C988.898 49.2501 989.914 47.3474 990.703 45.2398C991.493 43.2493 992.001 41.4344 992.226 39.7951C992.452 38.1559 992.565 36.4873 992.565 34.7895V32.4185C992.565 30.7207 992.452 29.0521 992.226 27.4129C992.001 25.7736 991.493 23.9587 990.703 21.9682C989.914 19.9777 988.898 18.1043 987.658 16.3479C986.417 14.6501 984.668 12.9523 982.412 11.2545C980.156 9.55672 977.533 8.12238 974.544 6.95148C971.554 5.78058 967.86 4.8146 963.461 4.05352C961.107 3.6825 958.621 3.40945 956 3.23438V18.0804C956.526 18.1682 957.039 18.264 957.538 18.3677C960.64 19.0703 963.066 19.9192 964.814 20.9144C966.563 21.9097 968.029 23.1391 969.214 24.6027C970.285 26.0078 971.047 27.3836 971.498 28.7301C971.836 30.0181 972.034 31.4232 972.09 32.9454V34.087C972.09 35.9604 971.724 37.7753 970.99 39.5317C970.314 41.2295 969.101 42.9273 967.352 44.6251C965.604 46.3229 962.981 47.6401 959.484 48.5768C958.398 48.89 957.237 49.1547 956 49.3711V64.3249Z" fill="#41F168"/>
<path d="M3 127V92.05H19.95L33.15 113.8L46.35 92.05H62.75V127H50.95V102.8L35.9 127H29.5L14.5 102.8V127H3ZM93.2215 91.95H135.571C138.771 91.95 141.688 92.15 144.321 92.55C146.921 92.9833 149.105 93.5333 150.871 94.2C152.638 94.8667 154.188 95.6833 155.521 96.65C156.855 97.6167 157.888 98.5833 158.621 99.55C159.355 100.55 159.955 101.617 160.421 102.75C160.888 103.883 161.188 104.917 161.321 105.85C161.455 106.783 161.521 107.733 161.521 108.7V110.05C161.521 111.017 161.455 111.967 161.321 112.9C161.188 113.833 160.888 114.867 160.421 116C159.955 117.2 159.355 118.283 158.621 119.25C157.888 120.25 156.855 121.233 155.521 122.2C154.155 123.2 152.621 124.033 150.921 124.7C149.155 125.4 146.955 125.967 144.321 126.4C141.688 126.8 138.771 127 135.571 127H93.2215C90.0215 127 87.0882 126.8 84.4215 126.4C81.7882 125.967 79.5882 125.4 77.8215 124.7C76.0548 124 74.5215 123.167 73.2215 122.2C71.8548 121.2 70.8048 120.217 70.0715 119.25C69.3382 118.25 68.7382 117.167 68.2715 116C67.8382 114.833 67.5548 113.8 67.4215 112.9C67.2882 111.967 67.2215 111.017 67.2215 110.05V108.7C67.2215 107.7 67.2882 106.75 67.4215 105.85C67.5548 104.95 67.8382 103.917 68.2715 102.75C68.7382 101.583 69.3382 100.517 70.0715 99.55C70.8048 98.5833 71.8382 97.6167 73.1715 96.65C74.5048 95.6833 76.0548 94.8667 77.8215 94.2C79.6215 93.5 81.8215 92.95 84.4215 92.55C87.0882 92.15 90.0215 91.95 93.2215 91.95ZM149.421 109C149.388 108.133 149.271 107.333 149.071 106.6C148.805 105.833 148.355 105.05 147.721 104.25C147.021 103.417 146.155 102.717 145.121 102.15C144.088 101.583 142.655 101.1 140.821 100.7C139.321 100.4 137.621 100.217 135.721 100.15H93.4215C84.0215 100.317 79.3215 103.267 79.3215 109V109.55C79.3215 110.65 79.5382 111.683 79.9715 112.65C80.4048 113.65 81.1048 114.617 82.0715 115.55C83.0715 116.55 84.6048 117.333 86.6715 117.9C88.6048 118.433 90.9048 118.717 93.5715 118.75H135.521C138.021 118.683 140.171 118.4 141.971 117.9C144.038 117.367 145.588 116.617 146.621 115.65C147.655 114.683 148.371 113.717 148.771 112.75C149.205 111.75 149.421 110.717 149.421 109.65V109ZM165.988 92.05H179.338L203.688 114.05V92.05H215.438V127H203.688L177.788 103.85V127H165.988V92.05ZM230.056 121.15V128.05H219.706V121.15H230.056Z" fill="white"/>
<path d="M48.1 70C42.5667 70 37.5667 69.6667 33.1 69C28.5667 68.2667 24.8 67.3333 21.8 66.2C18.8 65.0667 16.2 63.7333 14 62.2C11.7333 60.6667 10 59.1333 8.8 57.6C7.6 56.0667 6.63333 54.4667 5.9 52.8C5.16667 51.0667 4.7 49.6 4.5 48.4C4.3 47.2 4.2 46 4.2 44.8V44.1H28.5C29.6333 50.9667 36.8333 54.4 50.1 54.4C54.1667 54.4 57.6333 54.2 60.5 53.8C63.3667 53.4667 65.5333 53.0333 67 52.5C68.4667 51.9667 69.6333 51.3333 70.5 50.6C71.3667 49.8667 71.9 49.2333 72.1 48.7C72.2333 48.1667 72.3 47.5333 72.3 46.8C72.3 43.3333 68.8667 41.6 62 41.6H36V25.9H60.8C67.2 25.9 70.4 24.4 70.4 21.4C70.4 20.8 70.3 20.2667 70.1 19.8C69.8333 19.3333 69.3333 18.8333 68.6 18.3C67.6667 17.7 66.4667 17.2333 65 16.9C63.4667 16.5 61.3667 16.1667 58.7 15.9C55.8333 15.6333 52.5 15.5 48.7 15.5C44.9667 15.5 41.7333 15.7667 39 16.3C36.3333 16.7667 34.3667 17.2667 33.1 17.8C31.8333 18.2667 30.8 19 30 20C29.2667 20.9333 28.8667 21.5333 28.8 21.8C28.6667 22.1333 28.5667 22.6 28.5 23.2H4.4V22.3C4.4 21.2333 4.46667 20.1667 4.6 19.1C4.8 17.9667 5.23333 16.6667 5.9 15.2C6.63333 13.6 7.56667 12.1667 8.7 10.9C9.76667 9.63333 11.3667 8.3 13.5 6.9C15.7 5.5 18.2 4.3 21 3.29999C23.9333 2.36666 27.5667 1.59999 31.9 0.999994C36.3 0.399994 41.1667 0.0999939 46.5 0.0999939H50.6C58.1333 0.0999939 64.7 0.466662 70.3 1.2C75.9 1.93333 80.2 2.9 83.2 4.1C86.2667 5.23333 88.6667 6.63333 90.4 8.3C92.2 9.96666 93.3333 11.5 93.8 12.9C94.3333 14.3 94.6 15.8333 94.6 17.5V18.1C94.6 21.3 93.3667 23.9 90.9 25.9C88.5 27.9 85.8 29.2 82.8 29.8C84.4667 30.2 86.0333 30.7667 87.5 31.5C89.0333 32.3 90.5333 33.3333 92 34.6C93.4667 35.9333 94.6333 37.5667 95.5 39.5C96.4333 41.5667 96.9 43.8333 96.9 46.3V46.9C96.9 62.3 82.1667 70 52.7 70H48.1ZM124.467 58.3V72.1H103.767V58.3H124.467ZM222.953 70H131.453V62.2C131.453 60.4667 131.52 58.9333 131.653 57.6C131.786 56.1333 132.12 54.4667 132.653 52.6C133.253 50.6 134.02 48.8667 134.953 47.4C135.953 45.8 137.353 44.1333 139.153 42.4C141.02 40.6 143.186 39 145.653 37.6C148.186 36.2 151.353 34.8333 155.153 33.5C159.02 32.1667 163.386 31.0333 168.253 30.1L185.753 26.8C190.353 26 193.353 25.1667 194.753 24.3C196.086 23.3667 196.786 22.2667 196.853 21C196.853 20 196.453 19.1667 195.653 18.5C194.786 17.7667 192.953 17.1667 190.153 16.7C187.22 16.1667 183.153 15.9 177.953 15.9C173.553 15.9 169.853 16.2333 166.853 16.9C163.92 17.5 161.82 18.3667 160.553 19.5C159.286 20.6333 158.42 21.6667 157.953 22.6C157.553 23.5333 157.32 24.5333 157.253 25.6H132.753V24.8C132.753 22.8 132.953 20.9333 133.353 19.2C133.82 17.3333 134.886 15.2 136.553 12.8C138.286 10.3333 140.553 8.23333 143.353 6.49999C146.22 4.76666 150.386 3.26667 155.853 2C161.32 0.733329 167.753 0.0999939 175.153 0.0999939H179.153C186.02 0.0999939 191.986 0.499995 197.053 1.3C202.186 2.1 206.286 3.13333 209.353 4.4C212.42 5.66666 214.886 7.23333 216.753 9.1C218.62 10.9667 219.886 12.8667 220.553 14.8C221.22 16.7333 221.553 18.8667 221.553 21.2V21.4C221.553 24.2667 221.186 26.6667 220.453 28.6C219.72 30.5333 218.353 32.4 216.353 34.2C214.286 35.9333 211.353 37.4333 207.553 38.7C203.686 39.9667 198.72 41.0667 192.653 42L172.153 45.2C159.02 47.4 152.453 50.2333 152.453 53.7H199.853V44.9H222.953V70ZM279.446 70H274.746C269.546 70 264.813 69.7333 260.546 69.2C256.279 68.6 252.713 67.8 249.846 66.8C246.979 65.8667 244.446 64.7333 242.246 63.4C239.979 62.0667 238.246 60.7333 237.046 59.4C235.846 58.0667 234.879 56.6667 234.146 55.2C233.346 53.7333 232.846 52.4333 232.646 51.3C232.379 50.1 232.246 48.9667 232.246 47.9V47.3H257.046C258.379 51.8333 265.046 54.1 277.046 54.1C284.779 54.1 289.946 53.3333 292.546 51.8C295.146 50.2 296.446 48.1667 296.446 45.7V45.2C296.446 42.7333 295.146 40.7 292.546 39.1C289.946 37.5 284.779 36.7 277.046 36.7C273.713 36.7667 270.746 36.9667 268.146 37.3C265.479 37.7 263.479 38.1 262.146 38.5C260.813 38.9667 259.679 39.5 258.746 40.1C257.879 40.7 257.346 41.1667 257.146 41.5C256.946 41.8333 256.813 42.1 256.746 42.3H233.846V0.0999939H315.746V16.1H256.946V28.3C262.813 24.1 271.713 22 283.646 22H284.546C291.746 22 297.813 22.6 302.746 23.8C307.679 24.9333 311.413 26.6333 313.946 28.9C316.546 31.1 318.346 33.5 319.346 36.1C320.413 38.7 320.946 41.7 320.946 45.1V45.6C320.946 48.1333 320.613 50.4333 319.946 52.5C319.279 54.6333 318.046 56.8 316.246 59C314.313 61.2667 311.879 63.1667 308.946 64.7C305.946 66.3 301.913 67.6 296.846 68.6C291.846 69.5333 286.046 70 279.446 70Z" fill="#CEFFD9"/>
</svg>
