<svg width="993" height="130" viewBox="0 0 993 130" fill="none" xmlns="http://www.w3.org/2000/svg">
<path fill-rule="evenodd" clip-rule="evenodd" d="M339.561 65.5379C340.323 65.5526 341.094 65.5599 341.875 65.5599H413.535C418.95 65.5599 423.885 65.2086 428.341 64.506C432.797 63.745 436.52 62.7497 439.509 61.5203C442.386 60.3494 444.98 58.8857 447.293 57.1294C449.549 55.4316 451.297 53.7045 452.538 51.9482C453.779 50.2504 454.794 48.3477 455.584 46.2401C456.374 44.2495 456.881 42.4347 457.107 40.7954C457.332 39.1562 457.445 37.4876 457.445 35.7898V33.4188C457.445 31.721 457.332 30.0524 457.107 28.4132C456.881 26.7739 456.374 24.959 455.584 22.9685C454.794 20.978 453.779 19.1046 452.538 17.3482C451.297 15.6504 449.549 13.9526 447.293 12.2548C445.037 10.557 442.414 9.12267 439.424 7.95178C436.435 6.78088 432.741 5.81489 428.341 5.05381C423.885 4.35127 418.95 4 413.535 4H377.705H341.875C341.094 4 340.323 4.0073 339.561 4.02191V18.5003C340.419 18.4515 341.303 18.4188 342.214 18.402H413.789C417.004 18.5191 419.881 18.8411 422.419 19.368C425.521 20.0706 427.946 20.9194 429.695 21.9147C431.443 22.91 432.91 24.1394 434.094 25.603C435.166 27.0081 435.927 28.3839 436.379 29.7304C436.717 31.0184 436.914 32.4235 436.971 33.9457V35.0873C436.971 36.9607 436.604 38.7756 435.871 40.532C435.194 42.2298 433.982 43.9276 432.233 45.6254C430.485 47.3232 427.862 48.6404 424.365 49.5771C421.319 50.4553 417.681 50.9529 413.451 51.07H342.467C341.468 51.0571 340.499 51.0226 339.561 50.9665V65.5379Z" fill="#41F168"/>
<path fill-rule="evenodd" clip-rule="evenodd" d="M470 65.5599H533.414C538.828 65.5599 543.764 65.2086 548.219 64.506C552.675 63.745 556.398 62.7497 559.387 61.5203C562.264 60.3494 564.858 58.8857 567.171 57.1294C569.427 55.4316 571.175 53.7045 572.416 51.9482C573.657 50.2504 574.673 48.3477 575.462 46.2401C576.252 44.2495 576.759 42.4347 576.985 40.7954C577.211 39.1562 577.323 37.4876 577.323 35.7898V33.4188C577.323 31.721 577.211 30.0524 576.985 28.4132C576.759 26.7739 576.252 24.959 575.462 22.9685C574.673 20.978 573.657 19.1046 572.416 17.3482C571.175 15.6504 569.427 13.9526 567.171 12.2548C564.915 10.557 562.292 9.12267 559.303 7.95178C556.313 6.78088 552.619 5.81489 548.219 5.05381C543.764 4.35127 538.828 4 533.414 4H497.583H470V18.402H533.667C536.882 18.5191 539.759 18.8411 542.297 19.368C545.399 20.0706 547.825 20.9194 549.573 21.9147C551.322 22.91 552.788 24.1394 553.973 25.603C555.044 27.0081 555.806 28.3839 556.257 29.7304C556.595 31.0184 556.793 32.4235 556.849 33.9457V35.0873C556.849 36.9607 556.482 38.7756 555.749 40.532C555.072 42.2298 553.86 43.9276 552.111 45.6254C550.363 47.3232 547.74 48.6404 544.243 49.5771C541.197 50.4553 537.559 50.9529 533.329 51.07H470V65.5599Z" fill="#41F168"/>
<path fill-rule="evenodd" clip-rule="evenodd" d="M593 65.5599H641.414C646.828 65.5599 651.764 65.2086 656.219 64.506C660.675 63.745 664.398 62.7497 667.387 61.5203C670.264 60.3494 672.858 58.8857 675.171 57.1294C677.427 55.4316 679.175 53.7045 680.416 51.9482C681.657 50.2504 682.672 48.3477 683.462 46.2401C684.252 44.2495 684.759 42.4347 684.985 40.7954C685.211 39.1562 685.323 37.4876 685.323 35.7898V33.4188C685.323 31.721 685.211 30.0524 684.985 28.4132C684.759 26.7739 684.252 24.959 683.462 22.9685C682.672 20.978 681.657 19.1046 680.416 17.3482C679.175 15.6504 677.427 13.9526 675.171 12.2548C672.915 10.557 670.292 9.12267 667.303 7.95178C664.313 6.78088 660.619 5.81489 656.219 5.05381C651.764 4.35127 646.828 4 641.414 4H605.583H593V18.402H641.667C644.882 18.5191 647.759 18.8411 650.297 19.368C653.399 20.0706 655.825 20.9194 657.573 21.9147C659.322 22.91 660.788 24.1394 661.973 25.603C663.044 27.0081 663.806 28.3839 664.257 29.7304C664.595 31.0184 664.793 32.4235 664.849 33.9457V35.0873C664.849 36.9607 664.482 38.7756 663.749 40.532C663.072 42.2298 661.86 43.9276 660.111 45.6254C658.363 47.3232 655.74 48.6404 652.243 49.5771C649.197 50.4553 645.559 50.9529 641.329 51.07H593V65.5599Z" fill="#41F168"/>
<path fill-rule="evenodd" clip-rule="evenodd" d="M701 65.5599H735.414C740.828 65.5599 745.764 65.2086 750.219 64.506C754.675 63.745 758.398 62.7497 761.387 61.5203C764.264 60.3494 766.858 58.8857 769.171 57.1294C771.427 55.4316 773.175 53.7045 774.416 51.9482C775.657 50.2504 776.672 48.3477 777.462 46.2401C778.252 44.2495 778.759 42.4347 778.985 40.7954C779.211 39.1562 779.323 37.4876 779.323 35.7898V33.4188C779.323 31.721 779.211 30.0524 778.985 28.4132C778.759 26.7739 778.252 24.959 777.462 22.9685C776.672 20.978 775.657 19.1046 774.416 17.3482C773.175 15.6504 771.427 13.9526 769.171 12.2548C766.915 10.557 764.292 9.12267 761.303 7.95178C758.313 6.78088 754.619 5.81489 750.219 5.05381C745.764 4.35127 740.828 4 735.414 4H701V18.402H735.667C738.882 18.5191 741.759 18.8411 744.297 19.368C747.399 20.0706 749.825 20.9194 751.573 21.9147C753.322 22.91 754.788 24.1394 755.973 25.603C757.044 27.0081 757.806 28.3839 758.257 29.7304C758.595 31.0184 758.793 32.4235 758.849 33.9457V35.0873C758.849 36.9607 758.482 38.7756 757.749 40.532C757.072 42.2298 755.86 43.9276 754.111 45.6254C752.363 47.3232 749.74 48.6404 746.243 49.5771C743.197 50.4553 739.559 50.9529 735.329 51.07H701V65.5599Z" fill="#41F168"/>
<path fill-rule="evenodd" clip-rule="evenodd" d="M795 65.5599H822.414C827.828 65.5599 832.764 65.2086 837.219 64.506C841.675 63.745 845.398 62.7497 848.387 61.5203C851.264 60.3494 853.858 58.8857 856.171 57.1294C858.427 55.4316 860.175 53.7045 861.416 51.9482C862.657 50.2504 863.672 48.3477 864.462 46.2401C865.252 44.2495 865.759 42.4347 865.985 40.7954C866.211 39.1562 866.323 37.4876 866.323 35.7898V33.4188C866.323 31.721 866.211 30.0524 865.985 28.4132C865.759 26.7739 865.252 24.959 864.462 22.9685C863.672 20.978 862.657 19.1046 861.416 17.3482C860.175 15.6504 858.427 13.9526 856.171 12.2548C853.915 10.557 851.292 9.12267 848.303 7.95178C845.313 6.78088 841.619 5.81489 837.219 5.05381C832.764 4.35127 827.828 4 822.414 4H795V18.402H822.667C825.882 18.5191 828.759 18.8411 831.297 19.368C834.399 20.0706 836.825 20.9194 838.573 21.9147C840.322 22.91 841.788 24.1394 842.973 25.603C844.044 27.0081 844.806 28.3839 845.257 29.7304C845.595 31.0184 845.793 32.4235 845.849 33.9457V35.0873C845.849 36.9607 845.482 38.7756 844.749 40.532C844.072 42.2298 842.86 43.9276 841.111 45.6254C839.363 47.3232 836.74 48.6404 833.243 49.5771C830.197 50.4553 826.559 50.9529 822.329 51.07H795V65.5599Z" fill="#41F168"/>
<path fill-rule="evenodd" clip-rule="evenodd" d="M879 65.5599H896.655C902.069 65.5599 907.005 65.2086 911.461 64.506C915.916 63.745 919.639 62.7497 922.628 61.5203C925.505 60.3494 928.1 58.8857 930.412 57.1294C932.668 55.4316 934.417 53.7045 935.658 51.9482C936.898 50.2504 937.914 48.3477 938.703 46.2401C939.493 44.2495 940.001 42.4347 940.226 40.7954C940.452 39.1562 940.565 37.4876 940.565 35.7898V33.4188C940.565 31.721 940.452 30.0524 940.226 28.4132C940.001 26.7739 939.493 24.959 938.703 22.9685C937.914 20.978 936.898 19.1046 935.658 17.3482C934.417 15.6504 932.668 13.9526 930.412 12.2548C928.156 10.557 925.533 9.12267 922.544 7.95178C919.554 6.78088 915.86 5.81489 911.461 5.05381C907.005 4.35127 902.069 4 896.655 4H879V18.402H896.909C900.124 18.5191 903 18.8411 905.538 19.368C908.64 20.0706 911.066 20.9194 912.814 21.9147C914.563 22.91 916.029 24.1394 917.214 25.603C918.285 27.0081 919.047 28.3839 919.498 29.7304C919.836 31.0184 920.034 32.4235 920.09 33.9457V35.0873C920.09 36.9607 919.724 38.7756 918.99 40.532C918.314 42.2298 917.101 43.9276 915.352 45.6254C913.604 47.3232 910.981 48.6404 907.484 49.5771C904.438 50.4553 900.8 50.9529 896.57 51.07H879V65.5599Z" fill="#41F168"/>
<path fill-rule="evenodd" clip-rule="evenodd" d="M956 65.3249C958.621 65.1498 961.107 64.8768 963.461 64.5058C967.916 63.7447 971.639 62.7494 974.628 61.52C977.505 60.3491 980.1 58.8855 982.412 57.1291C984.668 55.4313 986.417 53.7042 987.658 51.9479C988.898 50.2501 989.914 48.3474 990.703 46.2398C991.493 44.2493 992.001 42.4344 992.226 40.7951C992.452 39.1559 992.565 37.4873 992.565 35.7895V33.4185C992.565 31.7207 992.452 30.0521 992.226 28.4129C992.001 26.7736 991.493 24.9587 990.703 22.9682C989.914 20.9777 988.898 19.1043 987.658 17.3479C986.417 15.6501 984.668 13.9523 982.412 12.2545C980.156 10.5567 977.533 9.12238 974.544 7.95148C971.554 6.78058 967.86 5.8146 963.461 5.05352C961.107 4.6825 958.621 4.40945 956 4.23438V19.0804C956.526 19.1682 957.039 19.264 957.538 19.3677C960.64 20.0703 963.066 20.9192 964.814 21.9144C966.563 22.9097 968.029 24.1391 969.214 25.6027C970.285 27.0078 971.047 28.3836 971.498 29.7301C971.836 31.0181 972.034 32.4232 972.09 33.9454V35.087C972.09 36.9604 971.724 38.7753 970.99 40.5317C970.314 42.2295 969.101 43.9273 967.352 45.6251C965.604 47.3229 962.981 48.6401 959.484 49.5768C958.398 49.89 957.237 50.1547 956 50.3711V65.3249Z" fill="#41F168"/>
<path d="M24 128C20.2 128 16.8833 127.7 14.05 127.1C11.2167 126.5 9.03333 125.783 7.5 124.95C5.96667 124.083 4.73333 123.05 3.8 121.85C2.9 120.65 2.33333 119.567 2.1 118.6C1.83333 117.6 1.7 116.567 1.7 115.5V114.95H14.15C14.35 117.55 15.8667 119.217 18.7 119.95C20.2 120.317 22.1 120.5 24.4 120.5H92.75C94.5167 120.5 96.1833 120.4 97.75 120.2C99.3167 120 100.45 119.717 101.15 119.35C101.883 118.95 102.367 118.567 102.6 118.2C102.833 117.767 102.95 117.3 102.95 116.8C102.95 116.067 102.75 115.467 102.35 115C101.883 114.567 100.933 114.183 99.5 113.85C97.9667 113.55 95.7833 113.367 92.95 113.3L23.65 113.2L20.8 113.15C8.4 112.817 2.2 109.4 2.2 102.9V102.45C2.23333 101.317 2.38333 100.283 2.65 99.35C3.01667 98.3833 3.63333 97.4167 4.5 96.45C5.43333 95.5167 6.63333 94.7167 8.1 94.05C9.6 93.3833 11.6167 92.85 14.15 92.45C16.6833 92.0167 19.6333 91.8 23 91.8H92.1C95.5667 91.8 98.6333 92.0167 101.3 92.45C103.967 92.8833 106.1 93.45 107.7 94.15C109.3 94.85 110.6 95.7 111.6 96.7C112.6 97.7 113.3 98.6833 113.7 99.65C114.067 100.683 114.25 101.75 114.25 102.85V103.3H101.85C101.75 102.933 101.65 102.617 101.55 102.35C101.417 102.083 101.133 101.733 100.7 101.3C100.267 100.867 99.6833 100.5 98.95 100.2C98.2167 99.9333 97.15 99.6833 95.75 99.45C94.3167 99.25 92.8667 99.15 91.4 99.15H24C21.4 99.15 19.3333 99.3 17.8 99.6C16.2667 99.9333 15.3333 100.283 15 100.65C14.6667 101.017 14.5 101.517 14.5 102.15C14.5333 102.75 14.7167 103.233 15.05 103.6C15.4167 103.967 16.2667 104.317 17.6 104.65C18.9667 104.95 20.8833 105.117 23.35 105.15L91.7 105.2L95.3 105.25C102.433 105.383 107.567 106.267 110.7 107.9C113.867 109.533 115.45 112.117 115.45 115.65V116.3C115.45 117.567 115.3 118.717 115 119.75C114.7 120.783 114.067 121.833 113.1 122.9C112.167 123.933 110.9 124.817 109.3 125.55C107.7 126.283 105.517 126.883 102.75 127.35C100.017 127.783 96.8 128 93.1 128H24ZM213.12 128L209.52 121.6H131.42L128.02 128H115.82L135.12 92.95H205.57L226.02 128H213.12ZM197.97 101H142.52L135.72 113.65H205.12L197.97 101ZM236.968 128V101.3H220.568V93.05H265.468V101.3H249.018V128H236.968ZM274.636 122.15V129.05H264.286V122.15H274.636Z" fill="white"/>
<path d="M48.1 71C42.5667 71 37.5667 70.6667 33.1 70C28.5667 69.2667 24.8 68.3333 21.8 67.2C18.8 66.0667 16.2 64.7333 14 63.2C11.7333 61.6667 10 60.1333 8.8 58.6C7.6 57.0667 6.63333 55.4667 5.9 53.8C5.16667 52.0667 4.7 50.6 4.5 49.4C4.3 48.2 4.2 47 4.2 45.8V45.1H28.5C29.6333 51.9667 36.8333 55.4 50.1 55.4C54.1667 55.4 57.6333 55.2 60.5 54.8C63.3667 54.4667 65.5333 54.0333 67 53.5C68.4667 52.9667 69.6333 52.3333 70.5 51.6C71.3667 50.8667 71.9 50.2333 72.1 49.7C72.2333 49.1667 72.3 48.5333 72.3 47.8C72.3 44.3333 68.8667 42.6 62 42.6H36V26.9H60.8C67.2 26.9 70.4 25.4 70.4 22.4C70.4 21.8 70.3 21.2667 70.1 20.8C69.8333 20.3333 69.3333 19.8333 68.6 19.3C67.6667 18.7 66.4667 18.2333 65 17.9C63.4667 17.5 61.3667 17.1667 58.7 16.9C55.8333 16.6333 52.5 16.5 48.7 16.5C44.9667 16.5 41.7333 16.7667 39 17.3C36.3333 17.7667 34.3667 18.2667 33.1 18.8C31.8333 19.2667 30.8 20 30 21C29.2667 21.9333 28.8667 22.5333 28.8 22.8C28.6667 23.1333 28.5667 23.6 28.5 24.2H4.4V23.3C4.4 22.2333 4.46667 21.1667 4.6 20.1C4.8 18.9667 5.23333 17.6667 5.9 16.2C6.63333 14.6 7.56667 13.1667 8.7 11.9C9.76667 10.6333 11.3667 9.3 13.5 7.9C15.7 6.5 18.2 5.3 21 4.29999C23.9333 3.36666 27.5667 2.59999 31.9 1.99999C36.3 1.39999 41.1667 1.09999 46.5 1.09999H50.6C58.1333 1.09999 64.7 1.46666 70.3 2.2C75.9 2.93333 80.2 3.9 83.2 5.1C86.2667 6.23333 88.6667 7.63333 90.4 9.3C92.2 10.9667 93.3333 12.5 93.8 13.9C94.3333 15.3 94.6 16.8333 94.6 18.5V19.1C94.6 22.3 93.3667 24.9 90.9 26.9C88.5 28.9 85.8 30.2 82.8 30.8C84.4667 31.2 86.0333 31.7667 87.5 32.5C89.0333 33.3 90.5333 34.3333 92 35.6C93.4667 36.9333 94.6333 38.5667 95.5 40.5C96.4333 42.5667 96.9 44.8333 96.9 47.3V47.9C96.9 63.3 82.1667 71 52.7 71H48.1ZM124.467 59.3V73.1H103.767V59.3H124.467ZM175.053 71C169.52 71 164.52 70.6667 160.053 70C155.52 69.2667 151.753 68.3333 148.753 67.2C145.753 66.0667 143.153 64.7333 140.953 63.2C138.686 61.6667 136.953 60.1333 135.753 58.6C134.553 57.0667 133.586 55.4667 132.853 53.8C132.12 52.0667 131.653 50.6 131.453 49.4C131.253 48.2 131.153 47 131.153 45.8V45.1H155.453C156.586 51.9667 163.786 55.4 177.053 55.4C181.12 55.4 184.586 55.2 187.453 54.8C190.32 54.4667 192.486 54.0333 193.953 53.5C195.42 52.9667 196.586 52.3333 197.453 51.6C198.32 50.8667 198.853 50.2333 199.053 49.7C199.186 49.1667 199.253 48.5333 199.253 47.8C199.253 44.3333 195.82 42.6 188.953 42.6H162.953V26.9H187.753C194.153 26.9 197.353 25.4 197.353 22.4C197.353 21.8 197.253 21.2667 197.053 20.8C196.786 20.3333 196.286 19.8333 195.553 19.3C194.62 18.7 193.42 18.2333 191.953 17.9C190.42 17.5 188.32 17.1667 185.653 16.9C182.786 16.6333 179.453 16.5 175.653 16.5C171.92 16.5 168.686 16.7667 165.953 17.3C163.286 17.7667 161.32 18.2667 160.053 18.8C158.786 19.2667 157.753 20 156.953 21C156.22 21.9333 155.82 22.5333 155.753 22.8C155.62 23.1333 155.52 23.6 155.453 24.2H131.353V23.3C131.353 22.2333 131.42 21.1667 131.553 20.1C131.753 18.9667 132.186 17.6667 132.853 16.2C133.586 14.6 134.52 13.1667 135.653 11.9C136.72 10.6333 138.32 9.3 140.453 7.9C142.653 6.5 145.153 5.3 147.953 4.29999C150.886 3.36666 154.52 2.59999 158.853 1.99999C163.253 1.39999 168.12 1.09999 173.453 1.09999H177.553C185.086 1.09999 191.653 1.46666 197.253 2.2C202.853 2.93333 207.153 3.9 210.153 5.1C213.22 6.23333 215.62 7.63333 217.353 9.3C219.153 10.9667 220.286 12.5 220.753 13.9C221.286 15.3 221.553 16.8333 221.553 18.5V19.1C221.553 22.3 220.32 24.9 217.853 26.9C215.453 28.9 212.753 30.2 209.753 30.8C211.42 31.2 212.986 31.7667 214.453 32.5C215.986 33.3 217.486 34.3333 218.953 35.6C220.42 36.9333 221.586 38.5667 222.453 40.5C223.386 42.5667 223.853 44.8333 223.853 47.3V47.9C223.853 63.3 209.12 71 179.653 71H175.053ZM335.334 33.9V36.7C335.334 39.4333 335.034 42.1333 334.434 44.8C333.834 47.4 332.468 50.3333 330.334 53.6C328.268 56.8 325.534 59.5667 322.134 61.9C318.601 64.2333 313.768 66.2333 307.634 67.9C301.368 69.5 294.101 70.3 285.834 70.3H281.434C273.168 70.3 265.934 69.5 259.734 67.9C253.468 66.2333 248.634 64.2333 245.234 61.9C241.834 59.6333 239.068 56.8667 236.934 53.6C234.868 50.3333 233.501 47.4 232.834 44.8C232.234 42.1333 231.934 39.4333 231.934 36.7V33.9C231.934 31.1 232.234 28.4 232.834 25.8C233.501 23.1333 234.868 20.2333 236.934 17.1C239.068 13.9 241.834 11.1667 245.234 8.89999C248.701 6.56666 253.534 4.6 259.734 3C265.934 1.4 273.168 0.599994 281.434 0.599994H285.834C294.101 0.599994 301.368 1.4 307.634 3C313.834 4.66666 318.668 6.63333 322.134 8.89999C325.534 11.1667 328.268 13.9 330.334 17.1C332.468 20.3 333.834 23.2 334.434 25.8C335.034 28.4667 335.334 31.1667 335.334 33.9ZM311.234 34.6C311.234 32.4667 310.834 30.4667 310.034 28.6C309.168 26.6667 307.801 24.8 305.934 23C304.001 21.2 301.134 19.7667 297.334 18.7C293.534 17.5667 288.968 17 283.634 17C279.234 17 275.334 17.4 271.934 18.2C268.601 18.9333 265.968 19.8667 264.034 21C262.034 22.2 260.401 23.5667 259.134 25.1C257.934 26.7667 257.101 28.3333 256.634 29.8C256.234 31.3333 256.034 32.9333 256.034 34.6V35.7C256.034 37.8333 256.434 39.8667 257.234 41.8C258.101 43.8 259.468 45.7333 261.334 47.6C263.268 49.4667 266.134 50.9667 269.934 52.1C273.734 53.2333 278.301 53.8 283.634 53.8C288.968 53.8 293.534 53.2667 297.334 52.2C301.134 51.0667 303.968 49.5667 305.834 47.7C307.768 45.8333 309.168 43.9333 310.034 42C310.834 40 311.234 37.9333 311.234 35.8V34.6Z" fill="#FD39C3"/>
</svg>
