<svg width="993" height="130" viewBox="0 0 993 130" fill="none" xmlns="http://www.w3.org/2000/svg">
<mask id="path-1-outside-1_1_874" maskUnits="userSpaceOnUse" x="337.561" y="2" width="122" height="66" fill="black">
<rect fill="white" x="337.561" y="2" width="122" height="66"/>
<path fill-rule="evenodd" clip-rule="evenodd" d="M339.561 65.5379C340.323 65.5526 341.094 65.5599 341.875 65.5599H413.535C418.95 65.5599 423.885 65.2086 428.341 64.506C432.797 63.745 436.52 62.7497 439.509 61.5203C442.386 60.3494 444.98 58.8857 447.293 57.1294C449.549 55.4316 451.297 53.7045 452.538 51.9482C453.779 50.2504 454.794 48.3477 455.584 46.2401C456.374 44.2495 456.881 42.4347 457.107 40.7954C457.332 39.1562 457.445 37.4876 457.445 35.7898V33.4188C457.445 31.721 457.332 30.0524 457.107 28.4132C456.881 26.7739 456.374 24.959 455.584 22.9685C454.794 20.978 453.779 19.1046 452.538 17.3482C451.297 15.6504 449.549 13.9526 447.293 12.2548C445.037 10.557 442.414 9.12267 439.424 7.95178C436.435 6.78088 432.741 5.81489 428.341 5.05381C423.885 4.35127 418.95 4 413.535 4H377.705H341.875C341.094 4 340.323 4.0073 339.561 4.02191V18.5003C340.419 18.4515 341.303 18.4188 342.214 18.402H413.789C417.004 18.5191 419.881 18.8411 422.419 19.368C425.521 20.0706 427.946 20.9194 429.695 21.9147C431.443 22.91 432.91 24.1394 434.094 25.603C435.166 27.0081 435.927 28.3839 436.379 29.7304C436.717 31.0184 436.914 32.4235 436.971 33.9457V35.0873C436.971 36.9607 436.604 38.7756 435.871 40.532C435.194 42.2298 433.982 43.9276 432.233 45.6254C430.485 47.3232 427.862 48.6404 424.365 49.5771C421.319 50.4553 417.681 50.9529 413.451 51.07H342.467C341.468 51.0571 340.499 51.0226 339.561 50.9665V65.5379Z"/>
</mask>
<path d="M339.561 65.5379H337.561V67.5L339.523 67.5376L339.561 65.5379ZM428.341 64.506L428.653 66.4816L428.665 66.4796L428.678 66.4775L428.341 64.506ZM439.509 61.5203L438.755 59.6678L438.748 59.6706L439.509 61.5203ZM447.293 57.1294L446.09 55.5313L446.083 55.5367L447.293 57.1294ZM452.538 51.9482L450.923 50.7681L450.914 50.781L450.905 50.7941L452.538 51.9482ZM455.584 46.2401L453.725 45.5026L453.718 45.5204L453.711 45.5384L455.584 46.2401ZM457.107 40.7954L459.088 41.0681L459.088 41.0681L457.107 40.7954ZM457.107 28.4132L459.088 28.1405L459.088 28.1405L457.107 28.4132ZM455.584 22.9685L457.443 22.231L457.443 22.231L455.584 22.9685ZM452.538 17.3482L454.172 16.1942L454.162 16.181L454.153 16.1681L452.538 17.3482ZM447.293 12.2548L448.495 10.6568L448.495 10.6568L447.293 12.2548ZM439.424 7.95178L438.695 9.81402L438.695 9.81402L439.424 7.95178ZM428.341 5.05381L428.682 3.08308L428.667 3.08054L428.653 3.07821L428.341 5.05381ZM339.561 4.02191L339.523 2.02228L337.561 2.05988V4.02191H339.561ZM339.561 18.5003H337.561V20.6172L339.675 20.4971L339.561 18.5003ZM342.214 18.402V16.402H342.195L342.177 16.4024L342.214 18.402ZM413.789 18.402L413.862 16.4033L413.826 16.402H413.789V18.402ZM422.419 19.368L422.861 17.4174L422.843 17.4134L422.825 17.4098L422.419 19.368ZM429.695 21.9147L430.684 20.1766L430.684 20.1766L429.695 21.9147ZM434.094 25.603L435.685 24.3901L435.667 24.3672L435.649 24.3449L434.094 25.603ZM436.379 29.7304L438.313 29.2222L438.296 29.1579L438.275 29.095L436.379 29.7304ZM436.971 33.9457H438.971V33.9086L438.97 33.8716L436.971 33.9457ZM435.871 40.532L434.025 39.7614L434.019 39.7763L434.013 39.7913L435.871 40.532ZM432.233 45.6254L433.626 47.0602L433.626 47.0602L432.233 45.6254ZM424.365 49.5771L423.847 47.6452L423.829 47.6501L423.811 47.6554L424.365 49.5771ZM413.451 51.07V53.07H413.478L413.506 53.0692L413.451 51.07ZM342.467 51.07L342.441 53.0698L342.454 53.07H342.467V51.07ZM339.561 50.9665L339.68 48.9701L337.561 48.8436V50.9665H339.561ZM341.875 63.5599C341.107 63.5599 340.348 63.5527 339.599 63.5383L339.523 67.5376C340.298 67.5524 341.082 67.5599 341.875 67.5599V63.5599ZM413.535 63.5599H341.875V67.5599H413.535V63.5599ZM428.03 62.5305C423.695 63.2139 418.866 63.5599 413.535 63.5599V67.5599C419.034 67.5599 424.076 67.2033 428.653 66.4816L428.03 62.5305ZM438.748 59.6706C435.937 60.8267 432.368 61.7893 428.004 62.5346L428.678 66.4775C433.226 65.7006 437.102 64.6727 440.27 63.3699L438.748 59.6706ZM446.083 55.5367C443.92 57.1797 441.48 58.5586 438.755 59.6678L440.263 63.3727C443.291 62.1402 446.041 60.5918 448.502 58.7221L446.083 55.5367ZM450.905 50.7941C449.814 52.3375 448.229 53.9216 446.09 55.5313L448.495 58.7275C450.868 56.9416 452.78 55.0716 454.172 53.1022L450.905 50.7941ZM453.711 45.5384C452.981 47.4874 452.05 49.2272 450.923 50.7681L454.153 53.1283C455.508 51.2736 456.608 49.2079 457.457 46.9418L453.711 45.5384ZM455.126 40.5227C454.927 41.964 454.472 43.6203 453.725 45.5026L457.443 46.9776C458.276 44.8788 458.835 42.9053 459.088 41.0681L455.126 40.5227ZM455.445 35.7898C455.445 37.3988 455.338 38.9761 455.126 40.5227L459.088 41.0681C459.327 39.3362 459.445 37.5765 459.445 35.7898H455.445ZM455.445 33.4188V35.7898H459.445V33.4188H455.445ZM455.126 28.6859C455.338 30.2325 455.445 31.8098 455.445 33.4188H459.445C459.445 31.6321 459.327 29.8724 459.088 28.1405L455.126 28.6859ZM453.725 23.706C454.472 25.5883 454.927 27.2445 455.126 28.6859L459.088 28.1405C458.835 26.3033 458.276 24.3298 457.443 22.231L453.725 23.706ZM450.905 18.5023C452.055 20.1297 452.994 21.8634 453.725 23.706L457.443 22.231C456.595 20.0926 455.504 18.0794 454.172 16.1942L450.905 18.5023ZM446.09 13.8529C448.239 15.4701 449.831 17.0331 450.923 18.5284L454.153 16.1681C452.764 14.2677 450.858 12.4351 448.495 10.6568L446.09 13.8529ZM438.695 9.81402C441.538 10.9276 443.997 12.2779 446.09 13.8529L448.495 10.6568C446.076 8.8361 443.29 7.31773 440.154 6.08953L438.695 9.81402ZM428 7.02454C432.314 7.77082 435.869 8.70715 438.695 9.81402L440.154 6.08953C437.001 4.85461 433.167 3.85895 428.682 3.08308L428 7.02454ZM413.535 6C418.866 6 423.695 6.34595 428.03 7.0294L428.653 3.07821C424.076 2.35659 419.034 2 413.535 2V6ZM377.705 6H413.535V2H377.705V6ZM341.875 6H377.705V2H341.875V6ZM339.599 6.02154C340.348 6.00719 341.107 6 341.875 6V2C341.082 2 340.298 2.00742 339.523 2.02228L339.599 6.02154ZM337.561 4.02191V18.5003H341.561V4.02191H337.561ZM342.177 16.4024C341.242 16.4196 340.333 16.4532 339.448 16.5035L339.675 20.4971C340.506 20.4498 341.364 20.418 342.25 20.4017L342.177 16.4024ZM413.789 16.402H342.214V20.402H413.789V16.402ZM422.825 17.4098C420.155 16.8554 417.164 16.5236 413.862 16.4033L413.716 20.4007C416.845 20.5146 419.607 20.8268 422.012 21.3263L422.825 17.4098ZM430.684 20.1766C428.695 19.0444 426.057 18.1413 422.861 17.4174L421.977 21.3186C424.985 21.9998 427.198 22.7945 428.706 23.6529L430.684 20.1766ZM435.649 24.3449C434.297 22.6744 432.634 21.2866 430.684 20.1766L428.706 23.6529C430.252 24.5333 431.523 25.6044 432.54 26.8612L435.649 24.3449ZM438.275 29.095C437.739 27.4968 436.858 25.9287 435.685 24.3901L432.504 26.8159C433.474 28.0875 434.115 29.271 434.482 30.3659L438.275 29.095ZM438.97 33.8716C438.908 32.2233 438.694 30.6707 438.313 29.2222L434.444 30.2387C434.741 31.3662 434.921 32.6237 434.972 34.0197L438.97 33.8716ZM438.971 35.0873V33.9457H434.971V35.0873H438.971ZM437.717 41.3025C438.55 39.306 438.971 37.2295 438.971 35.0873H434.971C434.971 36.6919 434.658 38.2452 434.025 39.7614L437.717 41.3025ZM433.626 47.0602C435.513 45.2284 436.919 43.3036 437.729 41.2726L434.013 39.7913C433.469 41.1559 432.45 42.6268 430.84 44.1905L433.626 47.0602ZM424.882 51.509C428.561 50.5237 431.543 49.0836 433.626 47.0602L430.84 44.1905C429.427 45.5627 427.163 46.7571 423.847 47.6452L424.882 51.509ZM413.506 53.0692C417.853 52.9489 421.667 52.4364 424.919 51.4988L423.811 47.6554C420.971 48.4742 417.509 48.9569 413.395 49.0708L413.506 53.0692ZM342.467 53.07H413.451V49.07H342.467V53.07ZM339.442 52.963C340.413 53.021 341.413 53.0565 342.441 53.0698L342.493 49.0702C341.523 49.0576 340.586 49.0241 339.68 48.9701L339.442 52.963ZM337.561 50.9665V65.5379H341.561V50.9665H337.561Z" fill="#41F168" mask="url(#path-1-outside-1_1_874)"/>
<path fill-rule="evenodd" clip-rule="evenodd" d="M470 65.5599H533.414C538.828 65.5599 543.764 65.2086 548.219 64.506C552.675 63.745 556.398 62.7497 559.387 61.5203C562.264 60.3494 564.858 58.8857 567.171 57.1294C569.427 55.4316 571.175 53.7045 572.416 51.9482C573.657 50.2504 574.673 48.3477 575.462 46.2401C576.252 44.2495 576.759 42.4347 576.985 40.7954C577.211 39.1562 577.323 37.4876 577.323 35.7898V33.4188C577.323 31.721 577.211 30.0524 576.985 28.4132C576.759 26.7739 576.252 24.959 575.462 22.9685C574.673 20.978 573.657 19.1046 572.416 17.3482C571.175 15.6504 569.427 13.9526 567.171 12.2548C564.915 10.557 562.292 9.12267 559.303 7.95178C556.313 6.78088 552.619 5.81489 548.219 5.05381C543.764 4.35127 538.828 4 533.414 4H497.583H470V18.402H533.667C536.882 18.5191 539.759 18.8411 542.297 19.368C545.399 20.0706 547.825 20.9194 549.573 21.9147C551.322 22.91 552.788 24.1394 553.973 25.603C555.044 27.0081 555.806 28.3839 556.257 29.7304C556.595 31.0184 556.793 32.4235 556.849 33.9457V35.0873C556.849 36.9607 556.482 38.7756 555.749 40.532C555.072 42.2298 553.86 43.9276 552.111 45.6254C550.363 47.3232 547.74 48.6404 544.243 49.5771C541.197 50.4553 537.559 50.9529 533.329 51.07H470V65.5599Z" fill="#41F168"/>
<path fill-rule="evenodd" clip-rule="evenodd" d="M593 65.5599H641.414C646.828 65.5599 651.764 65.2086 656.219 64.506C660.675 63.745 664.398 62.7497 667.387 61.5203C670.264 60.3494 672.858 58.8857 675.171 57.1294C677.427 55.4316 679.175 53.7045 680.416 51.9482C681.657 50.2504 682.672 48.3477 683.462 46.2401C684.252 44.2495 684.759 42.4347 684.985 40.7954C685.211 39.1562 685.323 37.4876 685.323 35.7898V33.4188C685.323 31.721 685.211 30.0524 684.985 28.4132C684.759 26.7739 684.252 24.959 683.462 22.9685C682.672 20.978 681.657 19.1046 680.416 17.3482C679.175 15.6504 677.427 13.9526 675.171 12.2548C672.915 10.557 670.292 9.12267 667.303 7.95178C664.313 6.78088 660.619 5.81489 656.219 5.05381C651.764 4.35127 646.828 4 641.414 4H605.583H593V18.402H641.667C644.882 18.5191 647.759 18.8411 650.297 19.368C653.399 20.0706 655.825 20.9194 657.573 21.9147C659.322 22.91 660.788 24.1394 661.973 25.603C663.044 27.0081 663.806 28.3839 664.257 29.7304C664.595 31.0184 664.793 32.4235 664.849 33.9457V35.0873C664.849 36.9607 664.482 38.7756 663.749 40.532C663.072 42.2298 661.86 43.9276 660.111 45.6254C658.363 47.3232 655.74 48.6404 652.243 49.5771C649.197 50.4553 645.559 50.9529 641.329 51.07H593V65.5599Z" fill="#41F168"/>
<path fill-rule="evenodd" clip-rule="evenodd" d="M701 65.5599H735.414C740.828 65.5599 745.764 65.2086 750.219 64.506C754.675 63.745 758.398 62.7497 761.387 61.5203C764.264 60.3494 766.858 58.8857 769.171 57.1294C771.427 55.4316 773.175 53.7045 774.416 51.9482C775.657 50.2504 776.672 48.3477 777.462 46.2401C778.252 44.2495 778.759 42.4347 778.985 40.7954C779.211 39.1562 779.323 37.4876 779.323 35.7898V33.4188C779.323 31.721 779.211 30.0524 778.985 28.4132C778.759 26.7739 778.252 24.959 777.462 22.9685C776.672 20.978 775.657 19.1046 774.416 17.3482C773.175 15.6504 771.427 13.9526 769.171 12.2548C766.915 10.557 764.292 9.12267 761.303 7.95178C758.313 6.78088 754.619 5.81489 750.219 5.05381C745.764 4.35127 740.828 4 735.414 4H701V18.402H735.667C738.882 18.5191 741.759 18.8411 744.297 19.368C747.399 20.0706 749.825 20.9194 751.573 21.9147C753.322 22.91 754.788 24.1394 755.973 25.603C757.044 27.0081 757.806 28.3839 758.257 29.7304C758.595 31.0184 758.793 32.4235 758.849 33.9457V35.0873C758.849 36.9607 758.482 38.7756 757.749 40.532C757.072 42.2298 755.86 43.9276 754.111 45.6254C752.363 47.3232 749.74 48.6404 746.243 49.5771C743.197 50.4553 739.559 50.9529 735.329 51.07H701V65.5599Z" fill="#41F168"/>
<path fill-rule="evenodd" clip-rule="evenodd" d="M795 65.5599H822.414C827.828 65.5599 832.764 65.2086 837.219 64.506C841.675 63.745 845.398 62.7497 848.387 61.5203C851.264 60.3494 853.858 58.8857 856.171 57.1294C858.427 55.4316 860.175 53.7045 861.416 51.9482C862.657 50.2504 863.672 48.3477 864.462 46.2401C865.252 44.2495 865.759 42.4347 865.985 40.7954C866.211 39.1562 866.323 37.4876 866.323 35.7898V33.4188C866.323 31.721 866.211 30.0524 865.985 28.4132C865.759 26.7739 865.252 24.959 864.462 22.9685C863.672 20.978 862.657 19.1046 861.416 17.3482C860.175 15.6504 858.427 13.9526 856.171 12.2548C853.915 10.557 851.292 9.12267 848.303 7.95178C845.313 6.78088 841.619 5.81489 837.219 5.05381C832.764 4.35127 827.828 4 822.414 4H795V18.402H822.667C825.882 18.5191 828.759 18.8411 831.297 19.368C834.399 20.0706 836.825 20.9194 838.573 21.9147C840.322 22.91 841.788 24.1394 842.973 25.603C844.044 27.0081 844.806 28.3839 845.257 29.7304C845.595 31.0184 845.793 32.4235 845.849 33.9457V35.0873C845.849 36.9607 845.482 38.7756 844.749 40.532C844.072 42.2298 842.86 43.9276 841.111 45.6254C839.363 47.3232 836.74 48.6404 833.243 49.5771C830.197 50.4553 826.559 50.9529 822.329 51.07H795V65.5599Z" fill="#41F168"/>
<path fill-rule="evenodd" clip-rule="evenodd" d="M879 65.5599H896.655C902.069 65.5599 907.005 65.2086 911.461 64.506C915.916 63.745 919.639 62.7497 922.628 61.5203C925.505 60.3494 928.1 58.8857 930.412 57.1294C932.668 55.4316 934.417 53.7045 935.658 51.9482C936.898 50.2504 937.914 48.3477 938.703 46.2401C939.493 44.2495 940.001 42.4347 940.226 40.7954C940.452 39.1562 940.565 37.4876 940.565 35.7898V33.4188C940.565 31.721 940.452 30.0524 940.226 28.4132C940.001 26.7739 939.493 24.959 938.703 22.9685C937.914 20.978 936.898 19.1046 935.658 17.3482C934.417 15.6504 932.668 13.9526 930.412 12.2548C928.156 10.557 925.533 9.12267 922.544 7.95178C919.554 6.78088 915.86 5.81489 911.461 5.05381C907.005 4.35127 902.069 4 896.655 4H879V18.402H896.909C900.124 18.5191 903 18.8411 905.538 19.368C908.64 20.0706 911.066 20.9194 912.814 21.9147C914.563 22.91 916.029 24.1394 917.214 25.603C918.285 27.0081 919.047 28.3839 919.498 29.7304C919.836 31.0184 920.034 32.4235 920.09 33.9457V35.0873C920.09 36.9607 919.724 38.7756 918.99 40.532C918.314 42.2298 917.101 43.9276 915.352 45.6254C913.604 47.3232 910.981 48.6404 907.484 49.5771C904.438 50.4553 900.8 50.9529 896.57 51.07H879V65.5599Z" fill="#41F168"/>
<path fill-rule="evenodd" clip-rule="evenodd" d="M956 65.3249C958.621 65.1498 961.107 64.8768 963.461 64.5058C967.916 63.7447 971.639 62.7494 974.628 61.52C977.505 60.3491 980.1 58.8855 982.412 57.1291C984.668 55.4313 986.417 53.7042 987.658 51.9479C988.898 50.2501 989.914 48.3474 990.703 46.2398C991.493 44.2493 992.001 42.4344 992.226 40.7951C992.452 39.1559 992.565 37.4873 992.565 35.7895V33.4185C992.565 31.7207 992.452 30.0521 992.226 28.4129C992.001 26.7736 991.493 24.9587 990.703 22.9682C989.914 20.9777 988.898 19.1043 987.658 17.3479C986.417 15.6501 984.668 13.9523 982.412 12.2545C980.156 10.5567 977.533 9.12238 974.544 7.95148C971.554 6.78058 967.86 5.8146 963.461 5.05352C961.107 4.6825 958.621 4.40945 956 4.23438V19.0804C956.526 19.1682 957.039 19.264 957.538 19.3677C960.64 20.0703 963.066 20.9192 964.814 21.9144C966.563 22.9097 968.029 24.1391 969.214 25.6027C970.285 27.0078 971.047 28.3836 971.498 29.7301C971.836 31.0181 972.034 32.4232 972.09 33.9454V35.087C972.09 36.9604 971.724 38.7753 970.99 40.5317C970.314 42.2295 969.101 43.9273 967.352 45.6251C965.604 47.3229 962.981 48.6401 959.484 49.5768C958.398 49.89 957.237 50.1547 956 50.3711V65.3249Z" fill="#41F168"/>
<path d="M16.9 128V101.3H0.5V93.05H45.4V101.3H28.95V128H16.9ZM48.9473 128V93.1H60.8473V105.8H152.147V93.1H164.047V128H152.147V114.25H60.8473V128H48.9473ZM259.29 128H192.69C189.89 128 187.323 127.783 184.99 127.35C182.69 126.883 180.74 126.283 179.14 125.55C177.573 124.817 176.173 123.917 174.94 122.85C173.74 121.783 172.79 120.717 172.09 119.65C171.357 118.55 170.773 117.383 170.34 116.15C169.873 114.917 169.573 113.783 169.44 112.75C169.273 111.717 169.19 110.7 169.19 109.7V92.95H181.04V109.05C181.04 110.283 181.207 111.433 181.54 112.5C181.94 113.6 182.54 114.667 183.34 115.7C184.207 116.733 185.507 117.55 187.24 118.15C189.007 118.75 190.857 119.05 192.79 119.05C236.323 119.05 258.357 119.033 258.89 119C261.223 118.9 263.073 118.617 264.44 118.15C266.14 117.55 267.423 116.733 268.29 115.7C269.157 114.633 269.757 113.567 270.09 112.5C270.457 111.433 270.64 110.283 270.64 109.05V92.95H282.44V109.7C282.44 111.167 282.257 112.633 281.89 114.1C281.523 115.633 280.823 117.233 279.79 118.9C278.757 120.633 277.423 122.15 275.79 123.45C274.19 124.75 271.957 125.833 269.09 126.7C266.223 127.567 262.957 128 259.29 128ZM299.471 115.6V128H287.521V93H384.271C395.305 93 400.821 96.0333 400.821 102.1V102.65C400.821 106.35 398.455 108.9 393.721 110.3C395.888 110.867 397.638 111.817 398.971 113.15C400.305 114.483 400.971 116.217 400.971 118.35V123.5V128H388.971C388.971 127.967 388.971 127.233 388.971 125.8V121.75C388.971 119.583 388.371 118.017 387.171 117.05C385.971 116.083 383.921 115.6 381.021 115.6H299.471ZM299.471 100.95V107.85H383.521C385.188 107.85 386.405 107.533 387.171 106.9C387.971 106.267 388.371 105.433 388.371 104.4V104.35C388.371 103.35 387.971 102.533 387.171 101.9C386.405 101.267 385.188 100.95 383.521 100.95H299.471ZM427.271 128C423.471 128 420.155 127.7 417.321 127.1C414.488 126.5 412.305 125.783 410.771 124.95C409.238 124.083 408.005 123.05 407.071 121.85C406.171 120.65 405.605 119.567 405.371 118.6C405.105 117.6 404.971 116.567 404.971 115.5V114.95H417.421C417.621 117.55 419.138 119.217 421.971 119.95C423.471 120.317 425.371 120.5 427.671 120.5H496.021C497.788 120.5 499.455 120.4 501.021 120.2C502.588 120 503.721 119.717 504.421 119.35C505.155 118.95 505.638 118.567 505.871 118.2C506.105 117.767 506.221 117.3 506.221 116.8C506.221 116.067 506.021 115.467 505.621 115C505.155 114.567 504.205 114.183 502.771 113.85C501.238 113.55 499.055 113.367 496.221 113.3L426.921 113.2L424.071 113.15C411.671 112.817 405.471 109.4 405.471 102.9V102.45C405.505 101.317 405.655 100.283 405.921 99.35C406.288 98.3833 406.905 97.4167 407.771 96.45C408.705 95.5167 409.905 94.7167 411.371 94.05C412.871 93.3833 414.888 92.85 417.421 92.45C419.955 92.0167 422.905 91.8 426.271 91.8H495.371C498.838 91.8 501.905 92.0167 504.571 92.45C507.238 92.8833 509.371 93.45 510.971 94.15C512.571 94.85 513.871 95.7 514.871 96.7C515.871 97.7 516.571 98.6833 516.971 99.65C517.338 100.683 517.521 101.75 517.521 102.85V103.3H505.121C505.021 102.933 504.921 102.617 504.821 102.35C504.688 102.083 504.405 101.733 503.971 101.3C503.538 100.867 502.955 100.5 502.221 100.2C501.488 99.9333 500.421 99.6833 499.021 99.45C497.588 99.25 496.138 99.15 494.671 99.15H427.271C424.671 99.15 422.605 99.3 421.071 99.6C419.538 99.9333 418.605 100.283 418.271 100.65C417.938 101.017 417.771 101.517 417.771 102.15C417.805 102.75 417.988 103.233 418.321 103.6C418.688 103.967 419.538 104.317 420.871 104.65C422.238 104.95 424.155 105.117 426.621 105.15L494.971 105.2L498.571 105.25C505.705 105.383 510.838 106.267 513.971 107.9C517.138 109.533 518.721 112.117 518.721 115.65V116.3C518.721 117.567 518.571 118.717 518.271 119.75C517.971 120.783 517.338 121.833 516.371 122.9C515.438 123.933 514.171 124.817 512.571 125.55C510.971 126.283 508.788 126.883 506.021 127.35C503.288 127.783 500.071 128 496.371 128H427.271ZM531.96 122.15V129.05H521.61V122.15H531.96Z" fill="white"/>
<path d="M48.1 71C42.5667 71 37.5667 70.6667 33.1 70C28.5667 69.2667 24.8 68.3333 21.8 67.2C18.8 66.0667 16.2 64.7333 14 63.2C11.7333 61.6667 10 60.1333 8.8 58.6C7.6 57.0667 6.63333 55.4667 5.9 53.8C5.16667 52.0667 4.7 50.6 4.5 49.4C4.3 48.2 4.2 47 4.2 45.8V45.1H28.5C29.6333 51.9667 36.8333 55.4 50.1 55.4C54.1667 55.4 57.6333 55.2 60.5 54.8C63.3667 54.4667 65.5333 54.0333 67 53.5C68.4667 52.9667 69.6333 52.3333 70.5 51.6C71.3667 50.8667 71.9 50.2333 72.1 49.7C72.2333 49.1667 72.3 48.5333 72.3 47.8C72.3 44.3333 68.8667 42.6 62 42.6H36V26.9H60.8C67.2 26.9 70.4 25.4 70.4 22.4C70.4 21.8 70.3 21.2667 70.1 20.8C69.8333 20.3333 69.3333 19.8333 68.6 19.3C67.6667 18.7 66.4667 18.2333 65 17.9C63.4667 17.5 61.3667 17.1667 58.7 16.9C55.8333 16.6333 52.5 16.5 48.7 16.5C44.9667 16.5 41.7333 16.7667 39 17.3C36.3333 17.7667 34.3667 18.2667 33.1 18.8C31.8333 19.2667 30.8 20 30 21C29.2667 21.9333 28.8667 22.5333 28.8 22.8C28.6667 23.1333 28.5667 23.6 28.5 24.2H4.4V23.3C4.4 22.2333 4.46667 21.1667 4.6 20.1C4.8 18.9667 5.23333 17.6667 5.9 16.2C6.63333 14.6 7.56667 13.1667 8.7 11.9C9.76667 10.6333 11.3667 9.3 13.5 7.9C15.7 6.5 18.2 5.3 21 4.29999C23.9333 3.36666 27.5667 2.59999 31.9 1.99999C36.3 1.39999 41.1667 1.09999 46.5 1.09999H50.6C58.1333 1.09999 64.7 1.46666 70.3 2.2C75.9 2.93333 80.2 3.9 83.2 5.1C86.2667 6.23333 88.6667 7.63333 90.4 9.3C92.2 10.9667 93.3333 12.5 93.8 13.9C94.3333 15.3 94.6 16.8333 94.6 18.5V19.1C94.6 22.3 93.3667 24.9 90.9 26.9C88.5 28.9 85.8 30.2 82.8 30.8C84.4667 31.2 86.0333 31.7667 87.5 32.5C89.0333 33.3 90.5333 34.3333 92 35.6C93.4667 36.9333 94.6333 38.5667 95.5 40.5C96.4333 42.5667 96.9 44.8333 96.9 47.3V47.9C96.9 63.3 82.1667 71 52.7 71H48.1ZM124.467 59.3V73.1H103.767V59.3H124.467ZM222.953 71H131.453V63.2C131.453 61.4667 131.52 59.9333 131.653 58.6C131.786 57.1333 132.12 55.4667 132.653 53.6C133.253 51.6 134.02 49.8667 134.953 48.4C135.953 46.8 137.353 45.1333 139.153 43.4C141.02 41.6 143.186 40 145.653 38.6C148.186 37.2 151.353 35.8333 155.153 34.5C159.02 33.1667 163.386 32.0333 168.253 31.1L185.753 27.8C190.353 27 193.353 26.1667 194.753 25.3C196.086 24.3667 196.786 23.2667 196.853 22C196.853 21 196.453 20.1667 195.653 19.5C194.786 18.7667 192.953 18.1667 190.153 17.7C187.22 17.1667 183.153 16.9 177.953 16.9C173.553 16.9 169.853 17.2333 166.853 17.9C163.92 18.5 161.82 19.3667 160.553 20.5C159.286 21.6333 158.42 22.6667 157.953 23.6C157.553 24.5333 157.32 25.5333 157.253 26.6H132.753V25.8C132.753 23.8 132.953 21.9333 133.353 20.2C133.82 18.3333 134.886 16.2 136.553 13.8C138.286 11.3333 140.553 9.23333 143.353 7.49999C146.22 5.76666 150.386 4.26667 155.853 3C161.32 1.73333 167.753 1.09999 175.153 1.09999H179.153C186.02 1.09999 191.986 1.49999 197.053 2.3C202.186 3.1 206.286 4.13333 209.353 5.4C212.42 6.66666 214.886 8.23333 216.753 10.1C218.62 11.9667 219.886 13.8667 220.553 15.8C221.22 17.7333 221.553 19.8667 221.553 22.2V22.4C221.553 25.2667 221.186 27.6667 220.453 29.6C219.72 31.5333 218.353 33.4 216.353 35.2C214.286 36.9333 211.353 38.4333 207.553 39.7C203.686 40.9667 198.72 42.0667 192.653 43L172.153 46.2C159.02 48.4 152.453 51.2333 152.453 54.7H199.853V45.9H222.953V71ZM322.63 19.9C322.63 23.8333 320.996 27.0667 317.73 29.6C314.53 32.0667 311.13 33.5 307.53 33.9C311.996 34.6333 315.93 36.3 319.33 38.9C322.796 41.5 324.53 44.9 324.53 49.1V50.3C324.53 52.1667 324.296 53.8667 323.83 55.4C323.296 57 322.13 58.8 320.33 60.8C318.53 62.8 316.13 64.5 313.13 65.9C310.063 67.3667 305.796 68.5667 300.33 69.5C294.73 70.5 288.196 71 280.73 71H276.33C247.063 71 232.43 64.1 232.43 50.3V49.1C232.43 45.1 234.163 41.8 237.63 39.2C241.096 36.5333 245.063 34.7667 249.53 33.9C245.596 33.2333 242.063 31.7333 238.93 29.4C235.796 27 234.23 23.8333 234.23 19.9V19C234.23 17.8667 234.296 16.8667 234.43 16C234.63 15 235.063 13.8667 235.73 12.6C236.396 11.3333 237.296 10.2 238.43 9.2C239.563 8.13333 241.163 7.03333 243.23 5.9C245.43 4.83333 247.93 3.9 250.73 3.1C253.663 2.36666 257.296 1.76666 261.63 1.3C266.03 0.833329 270.93 0.599994 276.33 0.599994H280.73C288.196 0.599994 294.63 1.06666 300.03 1.99999C305.496 2.93333 309.63 4.03333 312.43 5.3C315.296 6.5 317.53 8.03333 319.13 9.9C320.73 11.7 321.696 13.2667 322.03 14.6C322.43 15.9333 322.63 17.4 322.63 19V19.9ZM300.73 49V48.8C300.663 47.8 300.43 46.9667 300.03 46.3C299.496 45.6333 298.596 44.9333 297.33 44.2C295.863 43.4667 293.563 42.9 290.43 42.5C287.296 42.1 283.296 41.9 278.43 41.9C273.563 41.9 269.53 42.1 266.33 42.5C263.13 42.9 260.863 43.4667 259.53 44.2C258.13 44.9333 257.23 45.6333 256.83 46.3C256.496 47.0333 256.296 47.8667 256.23 48.8V49C256.296 49.7333 256.43 50.3667 256.63 50.9C256.963 51.5 257.496 52.1333 258.23 52.8C259.163 53.4667 260.363 54.0333 261.83 54.5C263.43 54.9667 265.63 55.3667 268.43 55.7C271.296 55.9667 274.63 56.1 278.43 56.1C282.363 56.1 285.73 55.9333 288.53 55.6C291.396 55.2667 293.596 54.9 295.13 54.5C296.663 53.9667 297.863 53.4 298.73 52.8C299.53 52.0667 300.063 51.4333 300.33 50.9C300.53 50.3667 300.663 49.7333 300.73 49ZM298.73 20.9V20.6C298.663 20 298.563 19.4667 298.43 19C298.23 18.4667 297.763 17.9 297.03 17.3C296.23 16.6333 295.163 16.1 293.83 15.7C292.363 15.3 290.363 14.9667 287.83 14.7C285.163 14.3667 282.03 14.2 278.43 14.2C274.763 14.2 271.63 14.3667 269.03 14.7C266.43 14.9667 264.463 15.3 263.13 15.7C261.73 16.1667 260.663 16.7 259.93 17.3C259.196 17.9667 258.73 18.5 258.53 18.9C258.33 19.4333 258.23 20 258.23 20.6V20.9C258.296 21.5667 258.396 22.1333 258.53 22.6C258.796 23.1333 259.296 23.7 260.03 24.3C260.83 24.9667 261.896 25.5 263.23 25.9C264.696 26.3 266.696 26.6667 269.23 27C271.83 27.2667 274.896 27.4 278.43 27.4C282.03 27.4 285.13 27.2667 287.73 27C290.33 26.6667 292.33 26.3 293.73 25.9C295.13 25.4333 296.23 24.9 297.03 24.3C297.763 23.6333 298.23 23.0667 298.43 22.6C298.63 22.0667 298.73 21.5 298.73 20.9Z" fill="#CEFFD9"/>
</svg>
