<svg width="993" height="130" viewBox="0 0 993 130" fill="none" xmlns="http://www.w3.org/2000/svg">
<mask id="path-1-outside-1_1_754" maskUnits="userSpaceOnUse" x="337.561" y="2" width="122" height="66" fill="black">
<rect fill="white" x="337.561" y="2" width="122" height="66"/>
<path fill-rule="evenodd" clip-rule="evenodd" d="M339.561 65.5379C340.323 65.5526 341.094 65.5599 341.875 65.5599H413.535C418.95 65.5599 423.885 65.2086 428.341 64.506C432.797 63.745 436.52 62.7497 439.509 61.5203C442.386 60.3494 444.98 58.8857 447.293 57.1294C449.549 55.4316 451.297 53.7045 452.538 51.9482C453.779 50.2504 454.794 48.3477 455.584 46.2401C456.374 44.2495 456.881 42.4347 457.107 40.7954C457.332 39.1562 457.445 37.4876 457.445 35.7898V33.4188C457.445 31.721 457.332 30.0524 457.107 28.4132C456.881 26.7739 456.374 24.959 455.584 22.9685C454.794 20.978 453.779 19.1046 452.538 17.3482C451.297 15.6504 449.549 13.9526 447.293 12.2548C445.037 10.557 442.414 9.12267 439.424 7.95178C436.435 6.78088 432.741 5.81489 428.341 5.05381C423.885 4.35127 418.95 4 413.535 4H377.705H341.875C341.094 4 340.323 4.0073 339.561 4.02191V18.5003C340.419 18.4515 341.303 18.4188 342.214 18.402H413.789C417.004 18.5191 419.881 18.8411 422.419 19.368C425.521 20.0706 427.946 20.9194 429.695 21.9147C431.443 22.91 432.91 24.1394 434.094 25.603C435.166 27.0081 435.927 28.3839 436.379 29.7304C436.717 31.0184 436.914 32.4235 436.971 33.9457V35.0873C436.971 36.9607 436.604 38.7756 435.871 40.532C435.194 42.2298 433.982 43.9276 432.233 45.6254C430.485 47.3232 427.862 48.6404 424.365 49.5771C421.319 50.4553 417.681 50.9529 413.451 51.07H342.467C341.468 51.0571 340.499 51.0226 339.561 50.9665V65.5379Z"/>
</mask>
<path d="M339.561 65.5379H337.561V67.5L339.523 67.5376L339.561 65.5379ZM428.341 64.506L428.653 66.4816L428.665 66.4796L428.678 66.4775L428.341 64.506ZM439.509 61.5203L438.755 59.6678L438.748 59.6706L439.509 61.5203ZM447.293 57.1294L446.09 55.5313L446.083 55.5367L447.293 57.1294ZM452.538 51.9482L450.923 50.7681L450.914 50.781L450.905 50.7941L452.538 51.9482ZM455.584 46.2401L453.725 45.5026L453.718 45.5204L453.711 45.5384L455.584 46.2401ZM457.107 40.7954L459.088 41.0681L459.088 41.0681L457.107 40.7954ZM457.107 28.4132L459.088 28.1405L459.088 28.1405L457.107 28.4132ZM455.584 22.9685L457.443 22.231L457.443 22.231L455.584 22.9685ZM452.538 17.3482L454.172 16.1942L454.162 16.181L454.153 16.1681L452.538 17.3482ZM447.293 12.2548L448.495 10.6568L448.495 10.6568L447.293 12.2548ZM439.424 7.95178L438.695 9.81402L438.695 9.81402L439.424 7.95178ZM428.341 5.05381L428.682 3.08308L428.667 3.08054L428.653 3.07821L428.341 5.05381ZM339.561 4.02191L339.523 2.02228L337.561 2.05988V4.02191H339.561ZM339.561 18.5003H337.561V20.6172L339.675 20.4971L339.561 18.5003ZM342.214 18.402V16.402H342.195L342.177 16.4024L342.214 18.402ZM413.789 18.402L413.862 16.4033L413.826 16.402H413.789V18.402ZM422.419 19.368L422.861 17.4174L422.843 17.4134L422.825 17.4098L422.419 19.368ZM429.695 21.9147L430.684 20.1766L430.684 20.1766L429.695 21.9147ZM434.094 25.603L435.685 24.3901L435.667 24.3672L435.649 24.3449L434.094 25.603ZM436.379 29.7304L438.313 29.2222L438.296 29.1579L438.275 29.095L436.379 29.7304ZM436.971 33.9457H438.971V33.9086L438.97 33.8716L436.971 33.9457ZM435.871 40.532L434.025 39.7614L434.019 39.7763L434.013 39.7913L435.871 40.532ZM432.233 45.6254L433.626 47.0602L433.626 47.0602L432.233 45.6254ZM424.365 49.5771L423.847 47.6452L423.829 47.6501L423.811 47.6554L424.365 49.5771ZM413.451 51.07V53.07H413.478L413.506 53.0692L413.451 51.07ZM342.467 51.07L342.441 53.0698L342.454 53.07H342.467V51.07ZM339.561 50.9665L339.68 48.9701L337.561 48.8436V50.9665H339.561ZM341.875 63.5599C341.107 63.5599 340.348 63.5527 339.599 63.5383L339.523 67.5376C340.298 67.5524 341.082 67.5599 341.875 67.5599V63.5599ZM413.535 63.5599H341.875V67.5599H413.535V63.5599ZM428.03 62.5305C423.695 63.2139 418.866 63.5599 413.535 63.5599V67.5599C419.034 67.5599 424.076 67.2033 428.653 66.4816L428.03 62.5305ZM438.748 59.6706C435.937 60.8267 432.368 61.7893 428.004 62.5346L428.678 66.4775C433.226 65.7006 437.102 64.6727 440.27 63.3699L438.748 59.6706ZM446.083 55.5367C443.92 57.1797 441.48 58.5586 438.755 59.6678L440.263 63.3727C443.291 62.1402 446.041 60.5918 448.502 58.7221L446.083 55.5367ZM450.905 50.7941C449.814 52.3375 448.229 53.9216 446.09 55.5313L448.495 58.7275C450.868 56.9416 452.78 55.0716 454.172 53.1022L450.905 50.7941ZM453.711 45.5384C452.981 47.4874 452.05 49.2272 450.923 50.7681L454.153 53.1283C455.508 51.2736 456.608 49.2079 457.457 46.9418L453.711 45.5384ZM455.126 40.5227C454.927 41.964 454.472 43.6203 453.725 45.5026L457.443 46.9776C458.276 44.8788 458.835 42.9053 459.088 41.0681L455.126 40.5227ZM455.445 35.7898C455.445 37.3988 455.338 38.9761 455.126 40.5227L459.088 41.0681C459.327 39.3362 459.445 37.5765 459.445 35.7898H455.445ZM455.445 33.4188V35.7898H459.445V33.4188H455.445ZM455.126 28.6859C455.338 30.2325 455.445 31.8098 455.445 33.4188H459.445C459.445 31.6321 459.327 29.8724 459.088 28.1405L455.126 28.6859ZM453.725 23.706C454.472 25.5883 454.927 27.2445 455.126 28.6859L459.088 28.1405C458.835 26.3033 458.276 24.3298 457.443 22.231L453.725 23.706ZM450.905 18.5023C452.055 20.1297 452.994 21.8634 453.725 23.706L457.443 22.231C456.595 20.0926 455.504 18.0794 454.172 16.1942L450.905 18.5023ZM446.09 13.8529C448.239 15.4701 449.831 17.0331 450.923 18.5284L454.153 16.1681C452.764 14.2677 450.858 12.4351 448.495 10.6568L446.09 13.8529ZM438.695 9.81402C441.538 10.9276 443.997 12.2779 446.09 13.8529L448.495 10.6568C446.076 8.8361 443.29 7.31773 440.154 6.08953L438.695 9.81402ZM428 7.02454C432.314 7.77082 435.869 8.70715 438.695 9.81402L440.154 6.08953C437.001 4.85461 433.167 3.85895 428.682 3.08308L428 7.02454ZM413.535 6C418.866 6 423.695 6.34595 428.03 7.0294L428.653 3.07821C424.076 2.35659 419.034 2 413.535 2V6ZM377.705 6H413.535V2H377.705V6ZM341.875 6H377.705V2H341.875V6ZM339.599 6.02154C340.348 6.00719 341.107 6 341.875 6V2C341.082 2 340.298 2.00742 339.523 2.02228L339.599 6.02154ZM337.561 4.02191V18.5003H341.561V4.02191H337.561ZM342.177 16.4024C341.242 16.4196 340.333 16.4532 339.448 16.5035L339.675 20.4971C340.506 20.4498 341.364 20.418 342.25 20.4017L342.177 16.4024ZM413.789 16.402H342.214V20.402H413.789V16.402ZM422.825 17.4098C420.155 16.8554 417.164 16.5236 413.862 16.4033L413.716 20.4007C416.845 20.5146 419.607 20.8268 422.012 21.3263L422.825 17.4098ZM430.684 20.1766C428.695 19.0444 426.057 18.1413 422.861 17.4174L421.977 21.3186C424.985 21.9998 427.198 22.7945 428.706 23.6529L430.684 20.1766ZM435.649 24.3449C434.297 22.6744 432.634 21.2866 430.684 20.1766L428.706 23.6529C430.252 24.5333 431.523 25.6044 432.54 26.8612L435.649 24.3449ZM438.275 29.095C437.739 27.4968 436.858 25.9287 435.685 24.3901L432.504 26.8159C433.474 28.0875 434.115 29.271 434.482 30.3659L438.275 29.095ZM438.97 33.8716C438.908 32.2233 438.694 30.6707 438.313 29.2222L434.444 30.2387C434.741 31.3662 434.921 32.6237 434.972 34.0197L438.97 33.8716ZM438.971 35.0873V33.9457H434.971V35.0873H438.971ZM437.717 41.3025C438.55 39.306 438.971 37.2295 438.971 35.0873H434.971C434.971 36.6919 434.658 38.2452 434.025 39.7614L437.717 41.3025ZM433.626 47.0602C435.513 45.2284 436.919 43.3036 437.729 41.2726L434.013 39.7913C433.469 41.1559 432.45 42.6268 430.84 44.1905L433.626 47.0602ZM424.882 51.509C428.561 50.5237 431.543 49.0836 433.626 47.0602L430.84 44.1905C429.427 45.5627 427.163 46.7571 423.847 47.6452L424.882 51.509ZM413.506 53.0692C417.853 52.9489 421.667 52.4364 424.919 51.4988L423.811 47.6554C420.971 48.4742 417.509 48.9569 413.395 49.0708L413.506 53.0692ZM342.467 53.07H413.451V49.07H342.467V53.07ZM339.442 52.963C340.413 53.021 341.413 53.0565 342.441 53.0698L342.493 49.0702C341.523 49.0576 340.586 49.0241 339.68 48.9701L339.442 52.963ZM337.561 50.9665V65.5379H341.561V50.9665H337.561Z" fill="#41F168" mask="url(#path-1-outside-1_1_754)"/>
<mask id="path-3-outside-2_1_754" maskUnits="userSpaceOnUse" x="468" y="2" width="112" height="66" fill="black">
<rect fill="white" x="468" y="2" width="112" height="66"/>
<path fill-rule="evenodd" clip-rule="evenodd" d="M470 65.5599H533.414C538.828 65.5599 543.764 65.2086 548.219 64.506C552.675 63.745 556.398 62.7497 559.387 61.5203C562.264 60.3494 564.858 58.8857 567.171 57.1294C569.427 55.4316 571.175 53.7045 572.416 51.9482C573.657 50.2504 574.673 48.3477 575.462 46.2401C576.252 44.2495 576.759 42.4347 576.985 40.7954C577.211 39.1562 577.323 37.4876 577.323 35.7898V33.4188C577.323 31.721 577.211 30.0524 576.985 28.4132C576.759 26.7739 576.252 24.959 575.462 22.9685C574.673 20.978 573.657 19.1046 572.416 17.3482C571.175 15.6504 569.427 13.9526 567.171 12.2548C564.915 10.557 562.292 9.12267 559.303 7.95178C556.313 6.78088 552.619 5.81489 548.219 5.05381C543.764 4.35127 538.828 4 533.414 4H497.583H470V18.402H533.667C536.882 18.5191 539.759 18.8411 542.297 19.368C545.399 20.0706 547.825 20.9194 549.573 21.9147C551.322 22.91 552.788 24.1394 553.973 25.603C555.044 27.0081 555.806 28.3839 556.257 29.7304C556.595 31.0184 556.793 32.4235 556.849 33.9457V35.0873C556.849 36.9607 556.482 38.7756 555.749 40.532C555.072 42.2298 553.86 43.9276 552.111 45.6254C550.363 47.3232 547.74 48.6404 544.243 49.5771C541.197 50.4553 537.559 50.9529 533.329 51.07H470V65.5599Z"/>
</mask>
<path d="M470 65.5599H468V67.5599H470V65.5599ZM548.219 64.506L548.531 66.4816L548.544 66.4796L548.556 66.4775L548.219 64.506ZM559.387 61.5203L558.633 59.6678L558.627 59.6706L559.387 61.5203ZM567.171 57.1294L565.968 55.5313L565.961 55.5367L567.171 57.1294ZM572.416 51.9482L570.802 50.7681L570.792 50.781L570.783 50.7941L572.416 51.9482ZM575.462 46.2401L573.603 45.5026L573.596 45.5204L573.589 45.5384L575.462 46.2401ZM576.985 40.7954L578.966 41.0681L578.966 41.0681L576.985 40.7954ZM576.985 28.4132L578.966 28.1405L578.966 28.1405L576.985 28.4132ZM575.462 22.9685L577.321 22.231L577.321 22.231L575.462 22.9685ZM572.416 17.3482L574.05 16.1942L574.041 16.181L574.031 16.1681L572.416 17.3482ZM567.171 12.2548L568.373 10.6568L568.373 10.6568L567.171 12.2548ZM559.303 7.95178L558.573 9.81402L558.573 9.81402L559.303 7.95178ZM548.219 5.05381L548.56 3.08308L548.546 3.08054L548.531 3.07821L548.219 5.05381ZM470 4V2H468V4H470ZM470 18.402H468V20.402H470V18.402ZM533.667 18.402L533.74 16.4033L533.704 16.402H533.667V18.402ZM542.297 19.368L542.739 17.4174L542.721 17.4134L542.704 17.4098L542.297 19.368ZM549.573 21.9147L550.562 20.1766L550.562 20.1766L549.573 21.9147ZM553.973 25.603L555.563 24.3901L555.545 24.3672L555.527 24.3449L553.973 25.603ZM556.257 29.7304L558.191 29.2222L558.174 29.1579L558.153 29.095L556.257 29.7304ZM556.849 33.9457H558.849V33.9086L558.848 33.8716L556.849 33.9457ZM555.749 40.532L553.904 39.7614L553.897 39.7763L553.891 39.7913L555.749 40.532ZM552.111 45.6254L550.718 44.1905L550.718 44.1905L552.111 45.6254ZM544.243 49.5771L543.725 47.6452L543.707 47.6501L543.689 47.6554L544.243 49.5771ZM533.329 51.07V53.07H533.357L533.384 53.0692L533.329 51.07ZM470 51.07V49.07H468V51.07H470ZM533.414 63.5599H470V67.5599H533.414V63.5599ZM547.908 62.5305C543.573 63.2139 538.744 63.5599 533.414 63.5599V67.5599C538.913 67.5599 543.954 67.2033 548.531 66.4816L547.908 62.5305ZM558.627 59.6706C555.815 60.8267 552.246 61.7893 547.883 62.5346L548.556 66.4775C553.105 65.7006 556.98 64.6727 560.148 63.3699L558.627 59.6706ZM565.961 55.5367C563.798 57.1797 561.358 58.5586 558.633 59.6678L560.141 63.3727C563.169 62.1402 565.919 60.5918 568.381 58.7221L565.961 55.5367ZM570.783 50.7941C569.693 52.3375 568.107 53.9216 565.968 55.5313L568.373 58.7275C570.747 56.9416 572.658 55.0716 574.05 53.1022L570.783 50.7941ZM573.589 45.5384C572.859 47.4874 571.928 49.2272 570.802 50.7681L574.031 53.1283C575.387 51.2736 576.486 49.2079 577.335 46.9418L573.589 45.5384ZM575.004 40.5227C574.805 41.964 574.35 43.6203 573.603 45.5026L577.321 46.9776C578.154 44.8788 578.714 42.9053 578.966 41.0681L575.004 40.5227ZM575.323 35.7898C575.323 37.3988 575.217 38.9761 575.004 40.5227L578.966 41.0681C579.205 39.3362 579.323 37.5765 579.323 35.7898H575.323ZM575.323 33.4188V35.7898H579.323V33.4188H575.323ZM575.004 28.6859C575.217 30.2324 575.323 31.8098 575.323 33.4188H579.323C579.323 31.6321 579.205 29.8724 578.966 28.1405L575.004 28.6859ZM573.603 23.706C574.35 25.5883 574.805 27.2445 575.004 28.6859L578.966 28.1405C578.714 26.3033 578.154 24.3298 577.321 22.231L573.603 23.706ZM570.783 18.5023C571.933 20.1297 572.872 21.8634 573.603 23.706L577.321 22.231C576.473 20.0926 575.382 18.0794 574.05 16.1942L570.783 18.5023ZM565.968 13.8529C568.117 15.4701 569.709 17.0331 570.802 18.5284L574.031 16.1681C572.642 14.2677 570.737 12.4351 568.373 10.6568L565.968 13.8529ZM558.573 9.81402C561.416 10.9276 563.875 12.2779 565.968 13.8529L568.373 10.6568C565.954 8.8361 563.168 7.31773 560.032 6.08953L558.573 9.81402ZM547.878 7.02454C552.192 7.77082 555.747 8.70715 558.573 9.81402L560.032 6.08953C556.879 4.85461 553.045 3.85895 548.56 3.08308L547.878 7.02454ZM533.414 6C538.744 6 543.573 6.34595 547.908 7.0294L548.531 3.07821C543.954 2.35659 538.913 2 533.414 2V6ZM497.583 6H533.414V2H497.583V6ZM470 6H497.583V2H470V6ZM468 4V18.402H472V4H468ZM533.667 16.402H470V20.402H533.667V16.402ZM542.704 17.4098C540.033 16.8554 537.042 16.5236 533.74 16.4033L533.595 20.4007C536.723 20.5146 539.485 20.8268 541.891 21.3263L542.704 17.4098ZM550.562 20.1766C548.573 19.0444 545.935 18.1413 542.739 17.4174L541.855 21.3186C544.863 21.9998 547.076 22.7945 548.584 23.6529L550.562 20.1766ZM555.527 24.3449C554.175 22.6744 552.513 21.2866 550.562 20.1766L548.584 23.6529C550.13 24.5333 551.401 25.6044 552.418 26.8612L555.527 24.3449ZM558.153 29.095C557.618 27.4968 556.736 25.9287 555.563 24.3901L552.382 26.8159C553.352 28.0875 553.994 29.271 554.361 30.3659L558.153 29.095ZM558.848 33.8716C558.787 32.2233 558.572 30.6707 558.191 29.2222L554.323 30.2387C554.619 31.3662 554.799 32.6237 554.85 34.0197L558.848 33.8716ZM558.849 35.0873V33.9457H554.849V35.0873H558.849ZM557.595 41.3025C558.428 39.306 558.849 37.2295 558.849 35.0873H554.849C554.849 36.6919 554.537 38.2452 553.904 39.7614L557.595 41.3025ZM553.504 47.0602C555.391 45.2284 556.797 43.3036 557.607 41.2726L553.891 39.7913C553.347 41.1559 552.328 42.6268 550.718 44.1905L553.504 47.0602ZM544.76 51.509C548.439 50.5237 551.421 49.0836 553.504 47.0602L550.718 44.1905C549.305 45.5627 547.041 46.7571 543.725 47.6452L544.76 51.509ZM533.384 53.0692C537.731 52.9489 541.545 52.4364 544.797 51.4988L543.689 47.6554C540.849 48.4742 537.388 48.9569 533.274 49.0708L533.384 53.0692ZM470 53.07H533.329V49.07H470V53.07ZM468 51.07V65.5599H472V51.07H468Z" fill="#41F168" mask="url(#path-3-outside-2_1_754)"/>
<mask id="path-5-outside-3_1_754" maskUnits="userSpaceOnUse" x="591" y="2" width="97" height="66" fill="black">
<rect fill="white" x="591" y="2" width="97" height="66"/>
<path fill-rule="evenodd" clip-rule="evenodd" d="M593 65.5599H641.414C646.828 65.5599 651.764 65.2086 656.219 64.506C660.675 63.745 664.398 62.7497 667.387 61.5203C670.264 60.3494 672.858 58.8857 675.171 57.1294C677.427 55.4316 679.175 53.7045 680.416 51.9482C681.657 50.2504 682.672 48.3477 683.462 46.2401C684.252 44.2495 684.759 42.4347 684.985 40.7954C685.211 39.1562 685.323 37.4876 685.323 35.7898V33.4188C685.323 31.721 685.211 30.0524 684.985 28.4132C684.759 26.7739 684.252 24.959 683.462 22.9685C682.672 20.978 681.657 19.1046 680.416 17.3482C679.175 15.6504 677.427 13.9526 675.171 12.2548C672.915 10.557 670.292 9.12267 667.303 7.95178C664.313 6.78088 660.619 5.81489 656.219 5.05381C651.764 4.35127 646.828 4 641.414 4H605.583H593V18.402H641.667C644.882 18.5191 647.759 18.8411 650.297 19.368C653.399 20.0706 655.825 20.9194 657.573 21.9147C659.322 22.91 660.788 24.1394 661.973 25.603C663.044 27.0081 663.806 28.3839 664.257 29.7304C664.595 31.0184 664.793 32.4235 664.849 33.9457V35.0873C664.849 36.9607 664.482 38.7756 663.749 40.532C663.072 42.2298 661.86 43.9276 660.111 45.6254C658.363 47.3232 655.74 48.6404 652.243 49.5771C649.197 50.4553 645.559 50.9529 641.329 51.07H593V65.5599Z"/>
</mask>
<path d="M593 65.5599H591V67.5599H593V65.5599ZM656.219 64.506L656.531 66.4816L656.544 66.4796L656.556 66.4775L656.219 64.506ZM667.387 61.5203L666.633 59.6678L666.627 59.6706L667.387 61.5203ZM675.171 57.1294L673.968 55.5313L673.961 55.5367L675.171 57.1294ZM680.416 51.9482L678.802 50.7681L678.792 50.781L678.783 50.7941L680.416 51.9482ZM683.462 46.2401L681.603 45.5026L681.596 45.5204L681.589 45.5384L683.462 46.2401ZM684.985 40.7954L686.966 41.0681L686.966 41.0681L684.985 40.7954ZM684.985 28.4132L686.966 28.1405L686.966 28.1405L684.985 28.4132ZM683.462 22.9685L685.321 22.231L685.321 22.231L683.462 22.9685ZM680.416 17.3482L682.05 16.1942L682.041 16.181L682.031 16.1681L680.416 17.3482ZM675.171 12.2548L676.373 10.6568L676.373 10.6568L675.171 12.2548ZM667.303 7.95178L666.573 9.81402L666.573 9.81402L667.303 7.95178ZM656.219 5.05381L656.56 3.08308L656.546 3.08054L656.531 3.07821L656.219 5.05381ZM593 4V2H591V4H593ZM593 18.402H591V20.402H593V18.402ZM641.667 18.402L641.74 16.4033L641.704 16.402H641.667V18.402ZM650.297 19.368L650.739 17.4174L650.721 17.4134L650.704 17.4098L650.297 19.368ZM657.573 21.9147L658.562 20.1766L658.562 20.1766L657.573 21.9147ZM661.973 25.603L663.563 24.3901L663.545 24.3672L663.527 24.3449L661.973 25.603ZM664.257 29.7304L666.191 29.2222L666.174 29.1579L666.153 29.095L664.257 29.7304ZM664.849 33.9457H666.849V33.9086L666.848 33.8716L664.849 33.9457ZM663.749 40.532L661.904 39.7614L661.897 39.7763L661.891 39.7913L663.749 40.532ZM660.111 45.6254L658.718 44.1905L658.718 44.1905L660.111 45.6254ZM652.243 49.5771L651.725 47.6452L651.707 47.6501L651.689 47.6554L652.243 49.5771ZM641.329 51.07V53.07H641.357L641.384 53.0692L641.329 51.07ZM593 51.07V49.07H591V51.07H593ZM641.414 63.5599H593V67.5599H641.414V63.5599ZM655.908 62.5305C651.573 63.2139 646.744 63.5599 641.414 63.5599V67.5599C646.913 67.5599 651.954 67.2033 656.531 66.4816L655.908 62.5305ZM666.627 59.6706C663.815 60.8267 660.246 61.7893 655.883 62.5346L656.556 66.4775C661.105 65.7006 664.98 64.6727 668.148 63.3699L666.627 59.6706ZM673.961 55.5367C671.798 57.1797 669.358 58.5586 666.633 59.6678L668.141 63.3727C671.169 62.1402 673.919 60.5918 676.381 58.7221L673.961 55.5367ZM678.783 50.7941C677.693 52.3375 676.107 53.9216 673.968 55.5313L676.373 58.7275C678.747 56.9416 680.658 55.0716 682.05 53.1022L678.783 50.7941ZM681.589 45.5384C680.859 47.4874 679.928 49.2272 678.802 50.7681L682.031 53.1283C683.387 51.2736 684.486 49.2079 685.335 46.9418L681.589 45.5384ZM683.004 40.5227C682.805 41.964 682.35 43.6203 681.603 45.5026L685.321 46.9776C686.154 44.8788 686.713 42.9053 686.966 41.0681L683.004 40.5227ZM683.323 35.7898C683.323 37.3988 683.217 38.9761 683.004 40.5227L686.966 41.0681C687.205 39.3362 687.323 37.5765 687.323 35.7898H683.323ZM683.323 33.4188V35.7898H687.323V33.4188H683.323ZM683.004 28.6859C683.217 30.2324 683.323 31.8098 683.323 33.4188H687.323C687.323 31.6321 687.205 29.8724 686.966 28.1405L683.004 28.6859ZM681.603 23.706C682.35 25.5883 682.805 27.2445 683.004 28.6859L686.966 28.1405C686.713 26.3033 686.154 24.3298 685.321 22.231L681.603 23.706ZM678.783 18.5023C679.933 20.1297 680.872 21.8634 681.603 23.706L685.321 22.231C684.473 20.0926 683.382 18.0794 682.05 16.1942L678.783 18.5023ZM673.968 13.8529C676.117 15.4701 677.709 17.0331 678.802 18.5284L682.031 16.1681C680.642 14.2677 678.737 12.4351 676.373 10.6568L673.968 13.8529ZM666.573 9.81402C669.416 10.9276 671.875 12.2779 673.968 13.8529L676.373 10.6568C673.954 8.8361 671.168 7.31773 668.032 6.08953L666.573 9.81402ZM655.878 7.02454C660.192 7.77082 663.747 8.70715 666.573 9.81402L668.032 6.08953C664.879 4.85461 661.045 3.85895 656.56 3.08308L655.878 7.02454ZM641.414 6C646.744 6 651.573 6.34595 655.908 7.0294L656.531 3.07821C651.954 2.35659 646.913 2 641.414 2V6ZM605.583 6H641.414V2H605.583V6ZM593 6H605.583V2H593V6ZM591 4V18.402H595V4H591ZM641.667 16.402H593V20.402H641.667V16.402ZM650.704 17.4098C648.033 16.8554 645.042 16.5236 641.74 16.4033L641.595 20.4007C644.723 20.5146 647.485 20.8268 649.891 21.3263L650.704 17.4098ZM658.562 20.1766C656.573 19.0444 653.935 18.1413 650.739 17.4174L649.855 21.3186C652.863 21.9998 655.076 22.7945 656.584 23.6529L658.562 20.1766ZM663.527 24.3449C662.175 22.6744 660.513 21.2866 658.562 20.1766L656.584 23.6529C658.13 24.5333 659.401 25.6044 660.418 26.8612L663.527 24.3449ZM666.153 29.095C665.618 27.4968 664.736 25.9287 663.563 24.3901L660.382 26.8159C661.352 28.0875 661.994 29.271 662.36 30.3659L666.153 29.095ZM666.848 33.8716C666.787 32.2233 666.572 30.6707 666.191 29.2222L662.323 30.2387C662.619 31.3662 662.799 32.6237 662.85 34.0197L666.848 33.8716ZM666.849 35.0873V33.9457H662.849V35.0873H666.849ZM665.595 41.3025C666.428 39.306 666.849 37.2295 666.849 35.0873H662.849C662.849 36.6919 662.537 38.2452 661.904 39.7614L665.595 41.3025ZM661.504 47.0602C663.391 45.2284 664.797 43.3036 665.607 41.2726L661.891 39.7913C661.347 41.1559 660.328 42.6268 658.718 44.1905L661.504 47.0602ZM652.76 51.509C656.439 50.5237 659.421 49.0836 661.504 47.0602L658.718 44.1905C657.305 45.5627 655.041 46.7571 651.725 47.6452L652.76 51.509ZM641.384 53.0692C645.731 52.9489 649.545 52.4364 652.797 51.4988L651.689 47.6554C648.849 48.4742 645.388 48.9569 641.274 49.0708L641.384 53.0692ZM593 53.07H641.329V49.07H593V53.07ZM591 51.07V65.5599H595V51.07H591Z" fill="#41F168" mask="url(#path-5-outside-3_1_754)"/>
<path fill-rule="evenodd" clip-rule="evenodd" d="M701 65.5599H735.414C740.828 65.5599 745.764 65.2086 750.219 64.506C754.675 63.745 758.398 62.7497 761.387 61.5203C764.264 60.3494 766.858 58.8857 769.171 57.1294C771.427 55.4316 773.175 53.7045 774.416 51.9482C775.657 50.2504 776.672 48.3477 777.462 46.2401C778.252 44.2495 778.759 42.4347 778.985 40.7954C779.211 39.1562 779.323 37.4876 779.323 35.7898V33.4188C779.323 31.721 779.211 30.0524 778.985 28.4132C778.759 26.7739 778.252 24.959 777.462 22.9685C776.672 20.978 775.657 19.1046 774.416 17.3482C773.175 15.6504 771.427 13.9526 769.171 12.2548C766.915 10.557 764.292 9.12267 761.303 7.95178C758.313 6.78088 754.619 5.81489 750.219 5.05381C745.764 4.35127 740.828 4 735.414 4H701V18.402H735.667C738.882 18.5191 741.759 18.8411 744.297 19.368C747.399 20.0706 749.825 20.9194 751.573 21.9147C753.322 22.91 754.788 24.1394 755.973 25.603C757.044 27.0081 757.806 28.3839 758.257 29.7304C758.595 31.0184 758.793 32.4235 758.849 33.9457V35.0873C758.849 36.9607 758.482 38.7756 757.749 40.532C757.072 42.2298 755.86 43.9276 754.111 45.6254C752.363 47.3232 749.74 48.6404 746.243 49.5771C743.197 50.4553 739.559 50.9529 735.329 51.07H701V65.5599Z" fill="#41F168"/>
<path fill-rule="evenodd" clip-rule="evenodd" d="M795 65.5599H822.414C827.828 65.5599 832.764 65.2086 837.219 64.506C841.675 63.745 845.398 62.7497 848.387 61.5203C851.264 60.3494 853.858 58.8857 856.171 57.1294C858.427 55.4316 860.175 53.7045 861.416 51.9482C862.657 50.2504 863.672 48.3477 864.462 46.2401C865.252 44.2495 865.759 42.4347 865.985 40.7954C866.211 39.1562 866.323 37.4876 866.323 35.7898V33.4188C866.323 31.721 866.211 30.0524 865.985 28.4132C865.759 26.7739 865.252 24.959 864.462 22.9685C863.672 20.978 862.657 19.1046 861.416 17.3482C860.175 15.6504 858.427 13.9526 856.171 12.2548C853.915 10.557 851.292 9.12267 848.303 7.95178C845.313 6.78088 841.619 5.81489 837.219 5.05381C832.764 4.35127 827.828 4 822.414 4H795V18.402H822.667C825.882 18.5191 828.759 18.8411 831.297 19.368C834.399 20.0706 836.825 20.9194 838.573 21.9147C840.322 22.91 841.788 24.1394 842.973 25.603C844.044 27.0081 844.806 28.3839 845.257 29.7304C845.595 31.0184 845.793 32.4235 845.849 33.9457V35.0873C845.849 36.9607 845.482 38.7756 844.749 40.532C844.072 42.2298 842.86 43.9276 841.111 45.6254C839.363 47.3232 836.74 48.6404 833.243 49.5771C830.197 50.4553 826.559 50.9529 822.329 51.07H795V65.5599Z" fill="#41F168"/>
<path fill-rule="evenodd" clip-rule="evenodd" d="M879 65.5599H896.655C902.069 65.5599 907.005 65.2086 911.461 64.506C915.916 63.745 919.639 62.7497 922.628 61.5203C925.505 60.3494 928.1 58.8857 930.412 57.1294C932.668 55.4316 934.417 53.7045 935.658 51.9482C936.898 50.2504 937.914 48.3477 938.703 46.2401C939.493 44.2495 940.001 42.4347 940.226 40.7954C940.452 39.1562 940.565 37.4876 940.565 35.7898V33.4188C940.565 31.721 940.452 30.0524 940.226 28.4132C940.001 26.7739 939.493 24.959 938.703 22.9685C937.914 20.978 936.898 19.1046 935.658 17.3482C934.417 15.6504 932.668 13.9526 930.412 12.2548C928.156 10.557 925.533 9.12267 922.544 7.95178C919.554 6.78088 915.86 5.81489 911.461 5.05381C907.005 4.35127 902.069 4 896.655 4H879V18.402H896.909C900.124 18.5191 903 18.8411 905.538 19.368C908.64 20.0706 911.066 20.9194 912.814 21.9147C914.563 22.91 916.029 24.1394 917.214 25.603C918.285 27.0081 919.047 28.3839 919.498 29.7304C919.836 31.0184 920.034 32.4235 920.09 33.9457V35.0873C920.09 36.9607 919.724 38.7756 918.99 40.532C918.314 42.2298 917.101 43.9276 915.352 45.6254C913.604 47.3232 910.981 48.6404 907.484 49.5771C904.438 50.4553 900.8 50.9529 896.57 51.07H879V65.5599Z" fill="#41F168"/>
<path fill-rule="evenodd" clip-rule="evenodd" d="M956 65.3249C958.621 65.1498 961.107 64.8768 963.461 64.5058C967.916 63.7447 971.639 62.7494 974.628 61.52C977.505 60.3491 980.1 58.8855 982.412 57.1291C984.668 55.4313 986.417 53.7042 987.658 51.9479C988.898 50.2501 989.914 48.3474 990.703 46.2398C991.493 44.2493 992.001 42.4344 992.226 40.7951C992.452 39.1559 992.565 37.4873 992.565 35.7895V33.4185C992.565 31.7207 992.452 30.0521 992.226 28.4129C992.001 26.7736 991.493 24.9587 990.703 22.9682C989.914 20.9777 988.898 19.1043 987.658 17.3479C986.417 15.6501 984.668 13.9523 982.412 12.2545C980.156 10.5567 977.533 9.12238 974.544 7.95148C971.554 6.78058 967.86 5.8146 963.461 5.05352C961.107 4.6825 958.621 4.40945 956 4.23438V19.0804C956.526 19.1682 957.039 19.264 957.538 19.3677C960.64 20.0703 963.066 20.9192 964.814 21.9144C966.563 22.9097 968.029 24.1391 969.214 25.6027C970.285 27.0078 971.047 28.3836 971.498 29.7301C971.836 31.0181 972.034 32.4232 972.09 33.9454V35.087C972.09 36.9604 971.724 38.7753 970.99 40.5317C970.314 42.2295 969.101 43.9273 967.352 45.6251C965.604 47.3229 962.981 48.6401 959.484 49.5768C958.398 49.89 957.237 50.1547 956 50.3711V65.3249Z" fill="#41F168"/>
<path d="M16.9 128V101.3H0.5V93.05H45.4V101.3H28.95V128H16.9ZM138.147 128H71.5473C68.7473 128 66.1806 127.783 63.8473 127.35C61.5473 126.883 59.5973 126.283 57.9973 125.55C56.4306 124.817 55.0306 123.917 53.7973 122.85C52.5973 121.783 51.6473 120.717 50.9473 119.65C50.2139 118.55 49.6306 117.383 49.1973 116.15C48.7306 114.917 48.4306 113.783 48.2973 112.75C48.1306 111.717 48.0473 110.7 48.0473 109.7V92.95H59.8973V109.05C59.8973 110.283 60.0639 111.433 60.3973 112.5C60.7973 113.6 61.3973 114.667 62.1973 115.7C63.0639 116.733 64.3639 117.55 66.0973 118.15C67.8639 118.75 69.7139 119.05 71.6473 119.05C115.181 119.05 137.214 119.033 137.747 119C140.081 118.9 141.931 118.617 143.297 118.15C144.997 117.55 146.281 116.733 147.147 115.7C148.014 114.633 148.614 113.567 148.947 112.5C149.314 111.433 149.497 110.283 149.497 109.05V92.95H161.297V109.7C161.297 111.167 161.114 112.633 160.747 114.1C160.381 115.633 159.681 117.233 158.647 118.9C157.614 120.633 156.281 122.15 154.647 123.45C153.047 124.75 150.814 125.833 147.947 126.7C145.081 127.567 141.814 128 138.147 128ZM166.379 92.95H279.579V100.9H178.179V106.1H278.929V114.1H178.179V119.85H280.079V128H166.379V92.95ZM306.373 128C302.573 128 299.256 127.7 296.423 127.1C293.59 126.5 291.406 125.783 289.873 124.95C288.34 124.083 287.106 123.05 286.173 121.85C285.273 120.65 284.706 119.567 284.473 118.6C284.206 117.6 284.073 116.567 284.073 115.5V114.95H296.523C296.723 117.55 298.24 119.217 301.073 119.95C302.573 120.317 304.473 120.5 306.773 120.5H375.123C376.89 120.5 378.556 120.4 380.123 120.2C381.69 120 382.823 119.717 383.523 119.35C384.256 118.95 384.74 118.567 384.973 118.2C385.206 117.767 385.323 117.3 385.323 116.8C385.323 116.067 385.123 115.467 384.723 115C384.256 114.567 383.306 114.183 381.873 113.85C380.34 113.55 378.156 113.367 375.323 113.3L306.023 113.2L303.173 113.15C290.773 112.817 284.573 109.4 284.573 102.9V102.45C284.606 101.317 284.756 100.283 285.023 99.35C285.39 98.3833 286.006 97.4167 286.873 96.45C287.806 95.5167 289.006 94.7167 290.473 94.05C291.973 93.3833 293.99 92.85 296.523 92.45C299.056 92.0167 302.006 91.8 305.373 91.8H374.473C377.94 91.8 381.006 92.0167 383.673 92.45C386.34 92.8833 388.473 93.45 390.073 94.15C391.673 94.85 392.973 95.7 393.973 96.7C394.973 97.7 395.673 98.6833 396.073 99.65C396.44 100.683 396.623 101.75 396.623 102.85V103.3H384.223C384.123 102.933 384.023 102.617 383.923 102.35C383.79 102.083 383.506 101.733 383.073 101.3C382.64 100.867 382.056 100.5 381.323 100.2C380.59 99.9333 379.523 99.6833 378.123 99.45C376.69 99.25 375.24 99.15 373.773 99.15H306.373C303.773 99.15 301.706 99.3 300.173 99.6C298.64 99.9333 297.706 100.283 297.373 100.65C297.04 101.017 296.873 101.517 296.873 102.15C296.906 102.75 297.09 103.233 297.423 103.6C297.79 103.967 298.64 104.317 299.973 104.65C301.34 104.95 303.256 105.117 305.723 105.15L374.073 105.2L377.673 105.25C384.806 105.383 389.94 106.267 393.073 107.9C396.24 109.533 397.823 112.117 397.823 115.65V116.3C397.823 117.567 397.673 118.717 397.373 119.75C397.073 120.783 396.44 121.833 395.473 122.9C394.54 123.933 393.273 124.817 391.673 125.55C390.073 126.283 387.89 126.883 385.123 127.35C382.39 127.783 379.173 128 375.473 128H306.373ZM411.062 122.15V129.05H400.712V122.15H411.062Z" fill="white"/>
<path d="M48.1 71C42.5667 71 37.5667 70.6667 33.1 70C28.5667 69.2667 24.8 68.3333 21.8 67.2C18.8 66.0667 16.2 64.7333 14 63.2C11.7333 61.6667 10 60.1333 8.8 58.6C7.6 57.0667 6.63333 55.4667 5.9 53.8C5.16667 52.0667 4.7 50.6 4.5 49.4C4.3 48.2 4.2 47 4.2 45.8V45.1H28.5C29.6333 51.9667 36.8333 55.4 50.1 55.4C54.1667 55.4 57.6333 55.2 60.5 54.8C63.3667 54.4667 65.5333 54.0333 67 53.5C68.4667 52.9667 69.6333 52.3333 70.5 51.6C71.3667 50.8667 71.9 50.2333 72.1 49.7C72.2333 49.1667 72.3 48.5333 72.3 47.8C72.3 44.3333 68.8667 42.6 62 42.6H36V26.9H60.8C67.2 26.9 70.4 25.4 70.4 22.4C70.4 21.8 70.3 21.2667 70.1 20.8C69.8333 20.3333 69.3333 19.8333 68.6 19.3C67.6667 18.7 66.4667 18.2333 65 17.9C63.4667 17.5 61.3667 17.1667 58.7 16.9C55.8333 16.6333 52.5 16.5 48.7 16.5C44.9667 16.5 41.7333 16.7667 39 17.3C36.3333 17.7667 34.3667 18.2667 33.1 18.8C31.8333 19.2667 30.8 20 30 21C29.2667 21.9333 28.8667 22.5333 28.8 22.8C28.6667 23.1333 28.5667 23.6 28.5 24.2H4.4V23.3C4.4 22.2333 4.46667 21.1667 4.6 20.1C4.8 18.9667 5.23333 17.6667 5.9 16.2C6.63333 14.6 7.56667 13.1667 8.7 11.9C9.76667 10.6333 11.3667 9.3 13.5 7.9C15.7 6.5 18.2 5.3 21 4.29999C23.9333 3.36666 27.5667 2.59999 31.9 1.99999C36.3 1.39999 41.1667 1.09999 46.5 1.09999H50.6C58.1333 1.09999 64.7 1.46666 70.3 2.2C75.9 2.93333 80.2 3.9 83.2 5.1C86.2667 6.23333 88.6667 7.63333 90.4 9.3C92.2 10.9667 93.3333 12.5 93.8 13.9C94.3333 15.3 94.6 16.8333 94.6 18.5V19.1C94.6 22.3 93.3667 24.9 90.9 26.9C88.5 28.9 85.8 30.2 82.8 30.8C84.4667 31.2 86.0333 31.7667 87.5 32.5C89.0333 33.3 90.5333 34.3333 92 35.6C93.4667 36.9333 94.6333 38.5667 95.5 40.5C96.4333 42.5667 96.9 44.8333 96.9 47.3V47.9C96.9 63.3 82.1667 71 52.7 71H48.1ZM124.467 59.3V73.1H103.767V59.3H124.467ZM222.953 71H131.453V63.2C131.453 61.4667 131.52 59.9333 131.653 58.6C131.786 57.1333 132.12 55.4667 132.653 53.6C133.253 51.6 134.02 49.8667 134.953 48.4C135.953 46.8 137.353 45.1333 139.153 43.4C141.02 41.6 143.186 40 145.653 38.6C148.186 37.2 151.353 35.8333 155.153 34.5C159.02 33.1667 163.386 32.0333 168.253 31.1L185.753 27.8C190.353 27 193.353 26.1667 194.753 25.3C196.086 24.3667 196.786 23.2667 196.853 22C196.853 21 196.453 20.1667 195.653 19.5C194.786 18.7667 192.953 18.1667 190.153 17.7C187.22 17.1667 183.153 16.9 177.953 16.9C173.553 16.9 169.853 17.2333 166.853 17.9C163.92 18.5 161.82 19.3667 160.553 20.5C159.286 21.6333 158.42 22.6667 157.953 23.6C157.553 24.5333 157.32 25.5333 157.253 26.6H132.753V25.8C132.753 23.8 132.953 21.9333 133.353 20.2C133.82 18.3333 134.886 16.2 136.553 13.8C138.286 11.3333 140.553 9.23333 143.353 7.49999C146.22 5.76666 150.386 4.26667 155.853 3C161.32 1.73333 167.753 1.09999 175.153 1.09999H179.153C186.02 1.09999 191.986 1.49999 197.053 2.3C202.186 3.1 206.286 4.13333 209.353 5.4C212.42 6.66666 214.886 8.23333 216.753 10.1C218.62 11.9667 219.886 13.8667 220.553 15.8C221.22 17.7333 221.553 19.8667 221.553 22.2V22.4C221.553 25.2667 221.186 27.6667 220.453 29.6C219.72 31.5333 218.353 33.4 216.353 35.2C214.286 36.9333 211.353 38.4333 207.553 39.7C203.686 40.9667 198.72 42.0667 192.653 43L172.153 46.2C159.02 48.4 152.453 51.2333 152.453 54.7H199.853V45.9H222.953V71ZM277.055 71C269.722 71 263.255 70.3 257.655 68.9C252.122 67.5 247.689 65.7 244.355 63.5C241.089 61.3 238.422 58.6333 236.355 55.5C234.289 52.3667 232.889 49.3333 232.155 46.4C231.489 43.4 231.155 40.2 231.155 36.8V34.6C231.155 31.2 231.555 28 232.355 25C233.155 21.9333 234.622 18.8667 236.755 15.8C238.889 12.7333 241.555 10.1 244.755 7.9C248.022 5.7 252.322 3.9 257.655 2.49999C263.055 1.1 269.222 0.399997 276.155 0.399997H280.155C288.089 0.399997 294.922 1.06666 300.655 2.4C306.389 3.73333 310.722 5.5 313.655 7.7C316.589 9.9 318.689 12.1667 319.955 14.5C321.155 16.8333 321.789 19.2333 321.855 21.7V22.1H297.855C296.989 20.7667 296.055 19.8 295.055 19.2C291.655 17.1333 286.022 16.1 278.155 16.1C274.089 16.1 270.522 16.5333 267.455 17.4C264.389 18.2 262.055 19.1667 260.455 20.3C258.855 21.5 257.589 22.8667 256.655 24.4C255.655 26 255.022 27.4 254.755 28.6C254.489 29.7333 254.355 30.8667 254.355 32V32.4C257.289 30.5333 260.122 29.2 262.855 28.4C268.589 26.6667 276.055 25.8 285.255 25.8H286.455C312.122 25.8 324.955 32.8333 324.955 46.9V47.7C324.955 49.9667 324.655 52.0667 324.055 54C323.455 56 322.222 58.0667 320.355 60.2C318.489 62.3333 316.022 64.1667 312.955 65.7C309.889 67.2333 305.655 68.5 300.255 69.5C294.855 70.5 288.589 71 281.455 71H277.055ZM257.355 47.4V47.7C257.422 48.6333 257.722 49.5 258.255 50.3C258.922 51.1667 259.955 52 261.355 52.8C262.822 53.6667 265.055 54.3333 268.055 54.8C271.122 55.2667 274.822 55.5 279.155 55.5C293.489 55.5 300.655 52.9667 300.655 47.9V47.6C300.655 46.6 300.422 45.7333 299.955 45C299.355 44.2 298.389 43.4 297.055 42.6C295.655 41.8 293.455 41.1667 290.455 40.7C287.389 40.3 283.622 40.1 279.155 40.1C264.622 40.1 257.355 42.5333 257.355 47.4Z" fill="#CEFFD9"/>
</svg>
