<svg width="759" height="395" viewBox="0 0 759 395" fill="none" xmlns="http://www.w3.org/2000/svg">
<mask id="path-1-inside-1_215_2491" fill="white">
<path fill-rule="evenodd" clip-rule="evenodd" d="M-5.34058e-05 395L-3.77326e-05 277.991C-3.62197e-05 266.697 0.721042 256.402 2.1632 247.107C3.72554 237.813 5.76858 230.047 8.29235 223.812C10.6959 217.811 13.7004 212.399 17.3058 207.576C20.791 202.869 24.3363 199.222 27.9417 196.634C31.4269 194.045 35.3327 191.928 39.6592 190.28C43.7453 188.633 47.4709 187.574 50.8359 187.104C54.2009 186.633 57.626 186.398 61.1112 186.398L65.9785 186.398C69.4637 186.398 72.8888 186.633 76.2538 187.104C79.6189 187.574 83.3444 188.633 87.4305 190.28C91.5166 191.928 95.3624 194.045 98.9678 196.634C102.453 199.222 105.938 202.869 109.423 207.576C112.909 212.282 115.853 217.753 118.257 223.988C120.66 230.224 122.643 237.93 124.205 247.107C125.648 256.402 126.369 266.697 126.369 277.992L126.369 352.731L126.369 395L96.8045 395L96.8045 277.462C96.5642 270.756 95.9032 264.755 94.8216 259.461C93.3794 252.99 91.6368 247.931 89.5938 244.284C87.5507 240.636 85.0269 237.577 82.0225 235.107C79.1381 232.871 76.3139 231.283 73.5498 230.342C70.9059 229.636 68.0215 229.224 64.8969 229.106L62.5534 229.106C58.7076 229.106 54.9821 229.871 51.3767 231.401C47.8915 232.812 44.4063 235.342 40.9211 238.989C37.4359 242.636 34.7318 248.107 32.809 255.402C31.0063 261.755 29.9847 269.344 29.7444 278.168L29.7444 395L-5.34058e-05 395Z"/>
</mask>
<path d="M-5.34058e-05 395L-5.43434e-05 402L-7.00005 402L-7.00005 395L-5.34058e-05 395ZM2.1632 247.107L-4.75404 246.034L-4.74726 245.99L-4.73996 245.947L2.1632 247.107ZM8.29235 223.812L14.7904 226.415L14.7857 226.426L14.781 226.438L8.29235 223.812ZM17.3058 207.576L22.9312 211.742L22.922 211.754L22.9128 211.766L17.3058 207.576ZM27.9417 196.634L32.1153 202.253L32.07 202.287L32.0241 202.32L27.9417 196.634ZM39.6592 190.28L42.2763 196.773L42.2133 196.798L42.1498 196.822L39.6592 190.28ZM50.8359 187.104L49.8663 180.171L49.8663 180.171L50.8359 187.104ZM76.2538 187.104L77.2234 180.171L77.2234 180.171L76.2538 187.104ZM87.4305 190.28L90.0477 183.788L90.0477 183.788L87.4305 190.28ZM98.9678 196.634L103.05 190.947L103.096 190.98L103.141 191.014L98.9678 196.634ZM109.423 207.576L115.049 203.41L115.049 203.41L109.423 207.576ZM118.257 223.988L111.725 226.506L111.725 226.506L118.257 223.988ZM124.205 247.107L131.106 245.933L131.115 245.983L131.123 246.034L124.205 247.107ZM126.369 395L133.369 395L133.369 402L126.369 402L126.369 395ZM96.8045 395L96.8045 402L89.8045 402L89.8045 395L96.8045 395ZM96.8045 277.462L103.8 277.211L103.805 277.337L103.805 277.462L96.8045 277.462ZM94.8216 259.461L101.654 257.938L101.667 257.999L101.68 258.06L94.8216 259.461ZM89.5938 244.284L95.7009 240.863L95.7009 240.863L89.5938 244.284ZM82.0225 235.107L86.3106 229.574L86.3905 229.636L86.4686 229.7L82.0225 235.107ZM73.5498 230.342L75.3555 223.579L75.5832 223.639L75.8062 223.715L73.5498 230.342ZM64.8969 229.106L64.8969 222.106L65.0286 222.106L65.1603 222.111L64.8969 229.106ZM51.3767 231.401L54.1105 237.845L54.0579 237.867L54.0049 237.888L51.3767 231.401ZM32.809 255.402L39.5777 257.186L39.561 257.25L39.5431 257.313L32.809 255.402ZM29.7444 278.168L22.7444 278.168L22.7444 278.073L22.747 277.977L29.7444 278.168ZM29.7444 395L36.7444 395L36.7444 402L29.7444 402L29.7444 395ZM6.99996 277.992L6.99995 395L-7.00005 395L-7.00003 277.991L6.99996 277.992ZM9.08043 248.181C7.70301 257.058 6.99996 266.987 6.99996 277.992L-7.00003 277.991C-7.00003 266.406 -6.26092 255.746 -4.75404 246.034L9.08043 248.181ZM14.781 226.438C12.5074 232.056 10.5751 239.292 9.06636 248.268L-4.73996 245.947C-3.12403 236.333 -0.9702 228.039 1.80366 221.186L14.781 226.438ZM22.9128 211.766C19.6979 216.068 16.9839 220.939 14.7904 226.415L1.7943 221.209C4.40801 214.684 7.70291 208.731 11.6989 203.385L22.9128 211.766ZM32.0241 202.32C29.1629 204.374 26.1136 207.444 22.9312 211.742L11.6804 203.41C15.4684 198.295 19.5098 194.07 23.8593 190.947L32.0241 202.32ZM42.1498 196.822C38.3843 198.256 35.0515 200.073 32.1153 202.253L23.7681 191.014C27.8024 188.018 32.2812 185.599 37.1686 183.738L42.1498 196.822ZM51.8055 194.036C49.1436 194.409 45.9804 195.28 42.2763 196.773L37.0421 183.788C41.5103 181.987 45.7982 180.74 49.8663 180.171L51.8055 194.036ZM61.1112 193.398C57.9421 193.398 54.8411 193.612 51.8054 194.036L49.8663 180.171C53.5607 179.655 57.31 179.398 61.1112 179.398L61.1112 193.398ZM65.9785 193.398L61.1112 193.398L61.1112 179.398L65.9785 179.398L65.9785 193.398ZM75.2843 194.036C72.2486 193.612 69.1477 193.398 65.9785 193.398L65.9785 179.398C69.7798 179.398 73.529 179.655 77.2234 180.171L75.2843 194.036ZM84.8134 196.773C81.1094 195.28 77.9462 194.409 75.2843 194.036L77.2234 180.171C81.2916 180.74 85.5795 181.987 90.0477 183.788L84.8134 196.773ZM94.8854 202.32C91.7311 200.056 88.3768 198.209 84.8134 196.773L90.0477 183.788C94.6565 185.646 98.9937 188.035 103.05 190.947L94.8854 202.32ZM103.798 211.742C100.59 207.409 97.572 204.317 94.7941 202.253L103.141 191.014C107.334 194.128 111.287 198.33 115.049 203.41L103.798 211.742ZM111.725 226.506C109.517 220.777 106.86 215.876 103.798 211.742L115.049 203.41C118.957 208.687 122.189 214.728 124.788 221.471L111.725 226.506ZM117.305 248.282C115.793 239.4 113.91 232.176 111.725 226.506L124.788 221.471C127.41 228.272 129.494 236.461 131.106 245.933L117.305 248.282ZM119.369 277.992C119.369 266.987 118.666 257.058 117.288 248.181L131.123 246.034C132.63 255.746 133.369 266.406 133.369 277.992L119.369 277.992ZM119.369 352.731L119.369 277.992L133.369 277.992L133.369 352.731L119.369 352.731ZM119.369 395L119.369 352.731L133.369 352.731L133.369 395L119.369 395ZM126.369 402L96.8045 402L96.8045 388L126.369 388L126.369 402ZM103.805 277.462L103.804 395L89.8045 395L89.8045 277.462L103.805 277.462ZM101.68 258.06C102.855 263.811 103.549 270.207 103.8 277.211L89.809 277.713C89.5793 271.305 88.9515 265.7 87.9632 260.862L101.68 258.06ZM95.7009 240.863C98.2125 245.346 100.14 251.143 101.654 257.938L87.9892 260.984C86.6193 254.837 85.0611 250.515 83.4866 247.705L95.7009 240.863ZM86.4686 229.7C90.1942 232.764 93.2645 236.513 95.7009 240.863L83.4866 247.705C81.837 244.76 79.8597 242.391 77.5763 240.513L86.4686 229.7ZM75.8062 223.715C79.4603 224.96 82.9606 226.977 86.3106 229.574L77.7343 240.639C75.3157 238.765 73.1676 237.606 71.2934 236.968L75.8062 223.715ZM65.1603 222.111C68.7337 222.246 72.1422 222.721 75.3555 223.579L71.7441 237.105C69.6695 236.551 67.3094 236.202 64.6335 236.101L65.1603 222.111ZM62.5534 222.106L64.8969 222.106L64.8969 236.106L62.5534 236.106L62.5534 222.106ZM48.6429 224.956C53.0967 223.067 57.7507 222.106 62.5534 222.106L62.5534 236.106C59.6645 236.106 56.8674 236.675 54.1105 237.845L48.6429 224.956ZM35.8602 234.153C39.8085 230.021 44.0877 226.801 48.7485 224.913L54.0049 237.888C51.6953 238.824 49.004 240.663 45.982 243.825L35.8602 234.153ZM26.0402 253.618C28.1268 245.702 31.2498 238.978 35.8602 234.153L45.982 243.825C43.6219 246.295 41.3368 250.513 39.5777 257.186L26.0402 253.618ZM22.747 277.977C22.9982 268.753 24.0701 260.556 26.0748 253.491L39.5431 257.313C37.9424 262.954 36.9712 269.935 36.7418 278.359L22.747 277.977ZM22.7444 395L22.7444 278.168L36.7444 278.168L36.7444 395L22.7444 395ZM29.7444 402L-5.43434e-05 402L-5.24681e-05 388L29.7444 388L29.7444 402Z" fill="#FD39C3" mask="url(#path-1-inside-1_215_2491)"/>
<mask id="path-3-inside-2_215_2491" fill="white">
<path fill-rule="evenodd" clip-rule="evenodd" d="M0.00532532 176.096L0.00532704 163.239C0.00532855 151.944 0.726407 141.65 2.16856 132.355C3.7309 123.06 5.77394 115.295 8.29772 109.059C10.7013 103.059 13.7058 97.647 17.3112 92.8231C20.7964 88.117 24.3417 84.4697 27.9471 81.8813C31.4323 79.2929 35.3381 77.1752 39.6646 75.528C43.7507 73.8808 47.4762 72.822 50.8412 72.3513C54.2063 71.8807 57.6314 71.6454 61.1166 71.6454L65.9839 71.6454C69.4691 71.6454 72.8942 71.8807 76.2592 72.3514C79.6242 72.822 83.3498 73.8808 87.4359 75.528C91.522 77.1752 95.3677 79.293 98.9731 81.8813C102.458 84.4697 105.944 88.117 109.429 92.8232C112.914 97.5293 115.858 103 118.262 109.236C120.666 115.472 122.648 123.178 124.211 132.355C125.653 141.65 126.374 151.944 126.374 163.239L126.374 176.096L96.8099 176.096L96.8099 162.71C96.5695 156.003 95.9085 150.003 94.8269 144.709C93.3848 138.238 91.6422 133.178 89.5991 129.531C87.5561 125.884 85.0323 122.825 82.0278 120.354C79.1435 118.119 76.3193 116.53 73.5552 115.589C70.9112 114.883 68.0269 114.471 64.9022 114.354L62.5587 114.354C58.713 114.354 54.9874 115.119 51.382 116.648C47.8968 118.06 44.4116 120.589 40.9264 124.237C37.4412 127.884 34.7372 133.355 32.8143 140.649C31.0116 147.003 29.9901 154.591 29.7497 163.416L29.7497 176.096L0.00532532 176.096Z"/>
</mask>
<path d="M0.00532532 176.096L0.00532438 183.096L-6.99468 183.096L-6.99467 176.096L0.00532532 176.096ZM0.00532704 163.239L-6.99467 163.239L0.00532704 163.239ZM2.16856 132.355L-4.74867 131.282L-4.74191 131.238L-4.7346 131.195L2.16856 132.355ZM8.29772 109.059L14.7958 111.662L14.7911 111.674L14.7864 111.686L8.29772 109.059ZM17.3112 92.8231L22.9366 96.9891L22.9274 97.0015L22.9181 97.0139L17.3112 92.8231ZM27.9471 81.8813L32.1207 87.501L32.0753 87.5347L32.0294 87.5677L27.9471 81.8813ZM39.6646 75.528L42.2817 82.0203L42.2187 82.0458L42.1552 82.0699L39.6646 75.528ZM50.8412 72.3513L49.8717 65.4188L49.8717 65.4188L50.8412 72.3513ZM61.1166 71.6454L61.1166 64.6454L61.1166 71.6454ZM65.9839 71.6454L65.9839 78.6454L65.9839 71.6454ZM76.2592 72.3514L77.2287 65.4188L77.2288 65.4188L76.2592 72.3514ZM87.4359 75.528L84.8187 82.0203L87.4359 75.528ZM98.9731 81.8813L103.055 76.195L103.101 76.228L103.147 76.2617L98.9731 81.8813ZM109.429 92.8232L103.803 96.9891L103.803 96.9891L109.429 92.8232ZM118.262 109.236L111.73 111.754L111.73 111.754L118.262 109.236ZM124.211 132.355L131.112 131.18L131.12 131.231L131.128 131.282L124.211 132.355ZM126.374 163.239L119.374 163.239L126.374 163.239ZM126.374 176.096L133.374 176.096L133.374 183.096L126.374 183.096L126.374 176.096ZM96.8099 176.096L96.8099 183.096L89.8099 183.096L89.8099 176.096L96.8099 176.096ZM96.8099 162.71L103.805 162.459L103.81 162.584L103.81 162.71L96.8099 162.71ZM94.8269 144.709L101.659 143.186L101.673 143.247L101.685 143.307L94.8269 144.709ZM82.0278 120.354L86.3159 114.821L86.3959 114.883L86.474 114.948L82.0278 120.354ZM73.5552 115.589L75.3608 108.826L75.5885 108.887L75.8116 108.963L73.5552 115.589ZM64.9022 114.354L64.9022 107.354L65.034 107.354L65.1656 107.359L64.9022 114.354ZM62.5587 114.354L62.5587 121.354L62.5587 114.354ZM51.382 116.648L54.1158 123.092L54.0632 123.115L54.0102 123.136L51.382 116.648ZM40.9264 124.237L45.9874 129.073L45.9873 129.073L40.9264 124.237ZM32.8143 140.649L39.5831 142.434L39.5664 142.497L39.5485 142.56L32.8143 140.649ZM29.7497 163.416L22.7497 163.416L22.7497 163.32L22.7523 163.225L29.7497 163.416ZM29.7497 176.096L36.7497 176.096L36.7497 183.096L29.7497 183.096L29.7497 176.096ZM-6.99467 176.096L-6.99467 163.239L7.00533 163.239L7.00533 176.096L-6.99467 176.096ZM-6.99467 163.239C-6.99467 151.654 -6.25556 140.993 -4.74867 131.282L9.08579 133.428C7.70837 142.306 7.00533 152.235 7.00533 163.239L-6.99467 163.239ZM-4.7346 131.195C-3.11868 121.581 -0.964835 113.287 1.80902 106.433L14.7864 111.686C12.5127 117.303 10.5805 124.539 9.07172 133.515L-4.7346 131.195ZM1.79967 106.456C4.41337 99.9315 7.70827 93.9788 11.7042 88.6324L22.9181 97.0139C19.7033 101.315 16.9892 106.187 14.7958 111.662L1.79967 106.456ZM11.6858 88.6572C15.4737 83.5422 19.5151 79.3177 23.8647 76.195L32.0294 87.5677C29.1682 89.6218 26.119 92.6917 22.9366 96.9891L11.6858 88.6572ZM23.7735 76.2616C27.8077 73.2655 32.2866 70.8468 37.1739 68.9861L42.1552 82.0699C38.3897 83.5035 35.0568 85.3204 32.1207 87.501L23.7735 76.2616ZM37.0474 69.0356C41.5156 67.2345 45.8035 65.9878 49.8717 65.4188L51.8108 79.2839C49.1489 79.6562 45.9857 80.5272 42.2817 82.0203L37.0474 69.0356ZM49.8717 65.4188C53.5661 64.9021 57.3154 64.6454 61.1166 64.6454L61.1166 78.6454C57.9474 78.6454 54.8464 78.8593 51.8108 79.2839L49.8717 65.4188ZM61.1166 64.6454L65.9839 64.6454L65.9839 78.6454L61.1166 78.6454L61.1166 64.6454ZM65.9839 64.6454C69.7851 64.6454 73.5344 64.9021 77.2287 65.4188L75.2897 79.2839C72.254 78.8593 69.153 78.6454 65.9839 78.6454L65.9839 64.6454ZM77.2288 65.4188C81.2969 65.9878 85.5848 67.2345 90.053 69.0357L84.8187 82.0203C81.1147 80.5272 77.9515 79.6562 75.2896 79.2839L77.2288 65.4188ZM90.053 69.0357C94.6619 70.8935 98.9991 73.2828 103.055 76.195L94.8908 87.5677C91.7364 85.3031 88.3821 83.4568 84.8187 82.0203L90.053 69.0357ZM103.147 76.2617C107.339 79.3753 111.292 83.5772 115.054 88.6572L103.803 96.9891C100.595 92.6568 97.5774 89.5641 94.7995 87.501L103.147 76.2617ZM115.054 88.6572C118.963 93.935 122.195 99.976 124.793 106.718L111.73 111.754C109.522 106.024 106.865 101.124 103.803 96.9891L115.054 88.6572ZM124.793 106.718C127.415 113.52 129.499 121.709 131.112 131.18L117.31 133.53C115.798 124.647 113.916 117.423 111.73 111.754L124.793 106.718ZM131.128 131.282C132.635 140.993 133.374 151.654 133.374 163.239L119.374 163.239C119.374 152.235 118.671 142.306 117.294 133.428L131.128 131.282ZM133.374 163.239L133.374 176.096L119.374 176.096L119.374 163.239L133.374 163.239ZM126.374 183.096L96.8099 183.096L96.8099 169.096L126.374 169.096L126.374 183.096ZM89.8099 176.096L89.8099 162.71L103.81 162.71L103.81 176.096L89.8099 176.096ZM89.8144 162.96C89.5847 156.552 88.9569 150.947 87.9686 146.11L101.685 143.307C102.86 149.059 103.554 155.454 103.805 162.459L89.8144 162.96ZM87.9945 146.231C86.6246 140.084 85.0664 135.763 83.492 132.952L95.7062 126.11C98.2179 130.594 100.145 136.391 101.659 143.186L87.9945 146.231ZM83.492 132.952C81.8423 130.007 79.865 127.639 77.5816 125.761L86.474 114.948C90.1995 118.011 93.2698 121.761 95.7062 126.11L83.492 132.952ZM77.7397 125.887C75.3211 124.012 73.1729 122.854 71.2988 122.216L75.8116 108.963C79.4656 110.207 82.9659 112.225 86.3159 114.821L77.7397 125.887ZM71.7495 122.352C69.6748 121.798 67.3147 121.45 64.6388 121.349L65.1656 107.359C68.7391 107.493 72.1476 107.968 75.3608 108.826L71.7495 122.352ZM64.9022 121.354L62.5587 121.354L62.5587 107.354L64.9022 107.354L64.9022 121.354ZM62.5587 121.354C59.6699 121.354 56.8728 121.923 54.1158 123.092L48.6483 110.204C53.1021 108.315 57.7561 107.354 62.5587 107.354L62.5587 121.354ZM54.0102 123.136C51.7007 124.072 49.0094 125.91 45.9874 129.073L35.8655 119.401C39.8139 115.269 44.093 112.048 48.7539 110.16L54.0102 123.136ZM45.9873 129.073C43.6273 131.543 41.3422 135.761 39.5831 142.434L26.0455 138.865C28.1322 130.949 31.2552 124.225 35.8655 119.401L45.9873 129.073ZM39.5485 142.56C37.9477 148.202 36.9766 155.182 36.7472 163.606L22.7523 163.225C23.0036 154.001 24.0755 145.804 26.0802 138.739L39.5485 142.56ZM36.7497 163.416L36.7497 176.096L22.7497 176.096L22.7497 163.416L36.7497 163.416ZM29.7497 183.096L0.00532438 183.096L0.00532626 169.096L29.7497 169.096L29.7497 183.096Z" fill="#41F168" mask="url(#path-3-inside-2_215_2491)"/>
<mask id="path-5-inside-3_215_2491" fill="white">
<path fill-rule="evenodd" clip-rule="evenodd" d="M0.00102997 62.0467C0.0665589 61.5987 0.133736 61.1529 0.202545 60.7094C1.76488 51.4147 3.80792 43.6496 6.3317 37.4139C8.73529 31.4136 11.7398 26.0015 15.3452 21.1777C18.8304 16.4715 22.3757 12.8243 25.981 10.2359C29.4663 7.64749 33.3721 5.5297 37.6985 3.88254C41.7846 2.23539 45.5102 1.17652 48.8752 0.705893C52.2403 0.235282 55.6654 -2.3832e-05 59.1506 -2.33846e-05L64.0178 -2.27597e-05C67.503 -2.23123e-05 70.9282 0.235284 74.2932 0.705896C77.6582 1.17652 81.3838 2.23539 85.4699 3.88255C89.556 5.5297 93.4017 7.6475 97.0071 10.2359C100.492 12.8243 103.978 16.4715 107.463 21.1777C110.948 25.8838 113.892 31.3548 116.296 37.5904C118.699 43.8261 120.682 51.5324 122.245 60.7094C122.314 61.1529 122.381 61.5987 122.446 62.0468L89.5933 62.0467C88.9739 60.4999 88.3205 59.1129 87.6331 57.8857C85.59 54.2385 83.0663 51.1795 80.0618 48.7087C77.1775 46.4733 74.3533 44.885 71.5891 43.9437C68.9452 43.2378 66.0609 42.826 62.9362 42.7084L60.5927 42.7084C56.747 42.7084 53.0214 43.4731 49.416 45.0026C45.9308 46.4145 42.4456 48.944 38.9604 52.5913C36.6889 54.9684 34.7492 58.1203 33.1414 62.0467L0.00102997 62.0467Z"/>
</mask>
<path d="M0.00102997 62.0467L0.00102903 69.0467L-8.09721 69.0467L-6.92529 61.0337L0.00102997 62.0467ZM0.202545 60.7094L-6.71469 59.6362L-6.70793 59.5926L-6.70062 59.5491L0.202545 60.7094ZM6.3317 37.4139L12.8297 40.0169L12.8251 40.0285L12.8204 40.0401L6.3317 37.4139ZM15.3452 21.1777L20.9705 25.3436L20.9613 25.356L20.9521 25.3684L15.3452 21.1777ZM25.981 10.2359L30.1547 15.8556L30.1093 15.8893L30.0634 15.9222L25.981 10.2359ZM37.6985 3.88254L40.3157 10.3749L40.2527 10.4003L40.1892 10.4245L37.6985 3.88254ZM48.8752 0.705893L47.9057 -6.22663L47.9057 -6.22664L48.8752 0.705893ZM59.1506 -2.33846e-05L59.1506 -7.00002L59.1506 -2.33846e-05ZM64.0178 -2.27597e-05L64.0178 6.99998L64.0178 -2.27597e-05ZM74.2932 0.705896L75.2627 -6.22664L75.2628 -6.22663L74.2932 0.705896ZM85.4699 3.88255L82.8527 10.3749L85.4699 3.88255ZM97.0071 10.2359L101.089 4.54954L101.135 4.58251L101.181 4.6162L97.0071 10.2359ZM107.463 21.1777L101.837 25.3437L101.837 25.3436L107.463 21.1777ZM116.296 37.5904L109.764 40.1081L109.764 40.1081L116.296 37.5904ZM122.245 60.7094L129.145 59.5346L129.154 59.5853L129.162 59.6362L122.245 60.7094ZM122.446 62.0468L129.373 61.0338L130.545 69.0468L122.446 69.0468L122.446 62.0468ZM89.5933 62.0467L89.5933 69.0467L84.8559 69.0467L83.0949 64.6488L89.5933 62.0467ZM87.6331 57.8857L81.526 61.3067L81.526 61.3067L87.6331 57.8857ZM80.0618 48.7087L84.3499 43.1759L84.4298 43.2379L84.508 43.3021L80.0618 48.7087ZM71.5891 43.9437L73.3948 37.1806L73.6225 37.2414L73.8455 37.3174L71.5891 43.9437ZM62.9362 42.7084L62.9362 35.7084L63.068 35.7084L63.1996 35.7133L62.9362 42.7084ZM60.5927 42.7084L60.5927 35.7084L60.5927 42.7084ZM49.416 45.0026L52.1498 51.4467L52.0972 51.4691L52.0442 51.4905L49.416 45.0026ZM38.9604 52.5913L44.0213 57.4273L44.0213 57.4273L38.9604 52.5913ZM33.1414 62.0467L39.6193 64.6994L37.8391 69.0467L33.1414 69.0467L33.1414 62.0467ZM-6.92529 61.0337C-6.85684 60.5657 -6.78664 60.0999 -6.71469 59.6362L7.11978 61.7826C7.0541 62.206 6.98995 62.6317 6.92735 63.0597L-6.92529 61.0337ZM-6.70062 59.5491C-5.08469 49.9356 -2.93085 41.6413 -0.156994 34.7877L12.8204 40.0401C10.5467 45.6579 8.61444 52.8939 7.10571 61.8698L-6.70062 59.5491ZM-0.166355 34.811C2.44735 28.2861 5.74225 22.3333 9.73821 16.987L20.9521 25.3684C17.7373 29.6697 15.0232 34.5411 12.8297 40.0169L-0.166355 34.811ZM9.71978 17.0117C13.5077 11.8968 17.5491 7.67222 21.8987 4.54954L30.0634 15.9222C27.2022 17.9763 24.153 21.0463 20.9705 25.3436L9.71978 17.0117ZM21.8074 4.61618C25.8417 1.62003 30.3205 -0.798672 35.2079 -2.65938L40.1892 10.4245C36.4236 11.8581 33.0908 13.675 30.1547 15.8556L21.8074 4.61618ZM35.0814 -2.60981C39.5496 -4.41098 43.8375 -5.65767 47.9057 -6.22663L49.8448 7.63842C47.1829 8.01071 44.0197 8.88176 40.3157 10.3749L35.0814 -2.60981ZM47.9057 -6.22664C51.6001 -6.74331 55.3493 -7.00002 59.1506 -7.00002L59.1506 6.99998C55.9814 6.99998 52.8804 7.21388 49.8448 7.63843L47.9057 -6.22664ZM59.1506 -7.00002L64.0178 -7.00002L64.0178 6.99998L59.1506 6.99998L59.1506 -7.00002ZM64.0178 -7.00002C67.8191 -7.00002 71.5683 -6.74331 75.2627 -6.22664L73.3236 7.63843C70.288 7.21388 67.187 6.99998 64.0178 6.99998L64.0178 -7.00002ZM75.2628 -6.22663C79.3309 -5.65767 83.6188 -4.41098 88.087 -2.6098L82.8527 10.3749C79.1487 8.88176 75.9855 8.01071 73.3236 7.63842L75.2628 -6.22663ZM88.087 -2.6098C92.6959 -0.751915 97.0331 1.63737 101.089 4.54954L92.9248 15.9222C89.7704 13.6576 86.4161 11.8113 82.8527 10.3749L88.087 -2.6098ZM101.181 4.6162C105.373 7.72988 109.326 11.9317 113.088 17.0118L101.837 25.3436C98.629 21.0114 95.6114 17.9187 92.8335 15.8556L101.181 4.6162ZM113.088 17.0118C116.997 22.2895 120.229 28.3306 122.827 35.0728L109.764 40.1081C107.556 34.379 104.899 29.4782 101.837 25.3437L113.088 17.0118ZM122.827 35.0728C125.449 41.8745 127.533 50.0631 129.145 59.5346L115.344 61.8842C113.832 53.0018 111.95 45.7776 109.764 40.1081L122.827 35.0728ZM129.162 59.6362C129.234 60.0999 129.304 60.5658 129.373 61.0338L115.52 63.0598C115.457 62.6316 115.393 62.2059 115.328 61.7827L129.162 59.6362ZM122.446 69.0468L89.5933 69.0467L89.5933 55.0467L122.446 55.0468L122.446 69.0468ZM83.0949 64.6488C82.5682 63.3334 82.0413 62.2268 81.526 61.3067L93.7402 54.4648C94.5997 55.9991 95.3796 57.6664 96.0917 59.4447L83.0949 64.6488ZM81.526 61.3067C79.8763 58.3617 77.899 55.9931 75.6156 54.1153L84.508 43.3021C88.2335 46.3658 91.3038 50.1153 93.7402 54.4648L81.526 61.3067ZM75.7737 54.2415C73.3551 52.367 71.2069 51.2083 69.3327 50.5701L73.8455 37.3174C77.4996 38.5616 80.9999 40.5795 84.3499 43.1759L75.7737 54.2415ZM69.7835 50.7068C67.7088 50.1529 65.3487 49.8042 62.6728 49.7034L63.1996 35.7133C66.7731 35.8479 70.1816 36.3227 73.3948 37.1806L69.7835 50.7068ZM62.9362 49.7084L60.5927 49.7084L60.5927 35.7084L62.9362 35.7084L62.9362 49.7084ZM60.5927 49.7084C57.7039 49.7084 54.9068 50.2772 52.1498 51.4467L46.6823 38.5585C51.1361 36.6691 55.7901 35.7084 60.5927 35.7084L60.5927 49.7084ZM52.0442 51.4905C49.7347 52.4261 47.0434 54.2647 44.0213 57.4273L33.8995 47.7553C37.8479 43.6233 42.127 40.4028 46.7878 38.5148L52.0442 51.4905ZM44.0213 57.4273C42.5019 59.0174 40.9873 61.3587 39.6193 64.6994L26.6634 59.3941C28.5111 54.8819 30.8759 50.9195 33.8995 47.7553L44.0213 57.4273ZM33.1414 69.0467L0.00102903 69.0467L0.00103091 55.0467L33.1414 55.0467L33.1414 69.0467Z" fill="#41F168" mask="url(#path-5-inside-3_215_2491)"/>
<mask id="path-7-inside-4_215_2491" fill="white">
<path fill-rule="evenodd" clip-rule="evenodd" d="M159.374 395L159.374 280.983C159.374 269.977 160.077 259.945 161.482 250.888C163.005 241.831 164.995 234.264 167.455 228.188C169.797 222.341 172.725 217.067 176.238 212.367C179.634 207.781 183.089 204.227 186.602 201.705C189.998 199.183 193.804 197.119 198.02 195.514C202.001 193.909 205.632 192.877 208.911 192.418C212.19 191.96 215.527 191.731 218.923 191.731L223.666 191.731C227.062 191.731 230.4 191.96 233.679 192.418C236.958 192.877 240.588 193.909 244.57 195.514C248.551 197.119 252.299 199.183 255.812 201.705C259.208 204.227 262.604 207.781 266 212.367C269.396 216.953 272.266 222.284 274.608 228.36C276.95 234.436 278.882 241.946 280.405 250.888C281.81 259.945 282.512 269.977 282.512 280.983L282.512 353.812L282.512 395L253.704 395L253.704 280.467C253.47 273.932 252.826 268.085 251.772 262.926C250.367 256.62 248.669 251.691 246.678 248.137C244.687 244.582 242.228 241.602 239.3 239.194C236.489 237.016 233.737 235.468 231.044 234.551C228.468 233.863 225.657 233.462 222.612 233.347L220.329 233.347C216.581 233.347 212.951 234.092 209.438 235.583C206.042 236.959 202.645 239.423 199.249 242.977C195.853 246.531 193.218 251.863 191.345 258.971C189.588 265.161 188.593 272.556 188.358 281.155L188.358 395L159.374 395Z"/>
</mask>
<path d="M159.374 395L159.374 402L152.374 402L152.374 395L159.374 395ZM161.482 250.888L154.565 249.815L154.572 249.771L154.579 249.728L161.482 250.888ZM167.455 228.188L173.953 230.791L173.948 230.803L173.943 230.814L167.455 228.188ZM176.238 212.367L181.863 216.533L181.854 216.545L181.845 216.558L176.238 212.367ZM186.602 201.705L190.775 207.325L190.73 207.358L190.684 207.391L186.602 201.705ZM198.02 195.514L200.637 202.006L200.574 202.032L200.51 202.056L198.02 195.514ZM218.923 191.731L218.923 198.731L218.923 191.731ZM223.666 191.731L223.666 184.731L223.666 191.731ZM244.57 195.514L247.187 189.022L247.187 189.022L244.57 195.514ZM255.812 201.705L259.894 196.018L259.94 196.051L259.986 196.085L255.812 201.705ZM266 212.367L271.626 208.201L271.626 208.201L266 212.367ZM274.608 228.36L268.076 230.878L268.076 230.878L274.608 228.36ZM280.405 250.888L287.305 249.713L287.314 249.764L287.322 249.815L280.405 250.888ZM282.512 395L289.512 395L289.512 402L282.512 402L282.512 395ZM253.704 395L253.704 402L246.704 402L246.704 395L253.704 395ZM253.704 280.467L260.7 280.216L260.704 280.341L260.704 280.467L253.704 280.467ZM251.772 262.926L258.604 261.403L258.618 261.464L258.63 261.525L251.772 262.926ZM246.678 248.137L252.785 244.716L252.785 244.716L246.678 248.137ZM239.3 239.194L243.588 233.661L243.668 233.723L243.746 233.787L239.3 239.194ZM231.044 234.551L232.85 227.788L233.077 227.849L233.3 227.925L231.044 234.551ZM222.612 233.347L222.612 226.347L222.744 226.347L222.876 226.352L222.612 233.347ZM220.329 233.347L220.329 240.347L220.329 233.347ZM209.438 235.583L212.171 242.027L212.119 242.049L212.066 242.071L209.438 235.583ZM199.249 242.977L204.31 247.813L204.31 247.813L199.249 242.977ZM191.345 258.971L198.113 260.755L198.097 260.818L198.079 260.881L191.345 258.971ZM188.358 281.155L181.358 281.155L181.358 281.059L181.361 280.964L188.358 281.155ZM188.358 395L195.358 395L195.358 402L188.358 402L188.358 395ZM166.374 280.983L166.374 395L152.374 395L152.374 280.983L166.374 280.983ZM168.4 251.961C167.059 260.601 166.374 270.267 166.374 280.983L152.374 280.983C152.374 269.686 153.095 259.289 154.565 249.815L168.4 251.961ZM173.943 230.814C171.734 236.273 169.854 243.31 168.385 252.048L154.579 249.728C156.155 240.352 158.257 232.256 160.966 225.562L173.943 230.814ZM181.845 216.558C178.722 220.736 176.085 225.469 173.953 230.791L160.957 225.585C163.509 219.214 166.727 213.399 170.631 208.176L181.845 216.558ZM190.684 207.391C187.915 209.379 184.957 212.356 181.863 216.533L170.612 208.201C174.311 203.206 178.262 199.075 182.519 196.018L190.684 207.391ZM200.51 202.056C196.855 203.447 193.622 205.21 190.775 207.325L182.428 196.085C186.373 193.155 190.752 190.791 195.529 188.972L200.51 202.056ZM209.88 199.351C207.304 199.711 204.236 200.555 200.637 202.006L195.403 189.022C199.766 187.263 203.959 186.043 207.941 185.486L209.88 199.351ZM218.923 198.731C215.843 198.731 212.83 198.938 209.88 199.351L207.941 185.486C211.549 184.981 215.211 184.731 218.923 184.731L218.923 198.731ZM223.666 198.731L218.923 198.731L218.923 184.731L223.666 184.731L223.666 198.731ZM232.709 199.351C229.76 198.938 226.746 198.731 223.666 198.731L223.666 184.731C227.378 184.731 231.04 184.981 234.648 185.486L232.709 199.351ZM241.953 202.006C238.353 200.555 235.285 199.711 232.709 199.351L234.648 185.486C238.63 186.043 242.823 187.263 247.187 189.022L241.953 202.006ZM251.73 207.391C248.668 205.193 245.412 203.401 241.953 202.006L247.187 189.022C251.691 190.837 255.93 193.172 259.894 196.018L251.73 207.391ZM260.375 216.533C257.256 212.321 254.327 209.321 251.638 207.325L259.986 196.085C264.089 199.133 267.953 203.241 271.626 208.201L260.375 216.533ZM268.076 230.878C265.929 225.308 263.348 220.547 260.375 216.533L271.626 208.201C275.445 213.358 278.602 219.26 281.139 225.842L268.076 230.878ZM273.504 252.063C272.032 243.415 270.2 236.388 268.076 230.878L281.139 225.842C283.7 232.485 285.733 240.476 287.305 249.713L273.504 252.063ZM275.512 280.983C275.512 270.267 274.828 260.601 273.487 251.961L287.322 249.815C288.792 259.289 289.512 269.686 289.512 280.983L275.512 280.983ZM275.512 353.812L275.512 280.983L289.512 280.983L289.512 353.812L275.512 353.812ZM275.512 395L275.512 353.812L289.512 353.812L289.512 395L275.512 395ZM282.512 402L253.704 402L253.704 388L282.512 388L282.512 402ZM260.704 280.467L260.704 395L246.704 395L246.704 280.467L260.704 280.467ZM258.63 261.525C259.777 267.141 260.455 273.383 260.7 280.216L246.709 280.717C246.485 274.481 245.874 269.029 244.914 264.327L258.63 261.525ZM252.785 244.716C255.244 249.106 257.127 254.773 258.604 261.403L244.939 264.449C243.606 258.467 242.093 254.275 240.571 251.557L252.785 244.716ZM243.746 233.787C247.395 236.788 250.401 240.459 252.785 244.716L240.571 251.557C238.973 248.706 237.06 246.415 234.854 244.601L243.746 233.787ZM233.3 227.925C236.884 229.145 240.312 231.122 243.588 233.661L235.012 244.727C232.667 242.91 230.591 241.791 228.788 241.177L233.3 227.925ZM222.876 226.352C226.369 226.484 229.704 226.948 232.85 227.788L229.238 241.314C227.231 240.778 224.945 240.44 222.349 240.342L222.876 226.352ZM220.329 226.347L222.612 226.347L222.612 240.347L220.329 240.347L220.329 226.347ZM206.704 229.139C211.065 227.288 215.624 226.347 220.329 226.347L220.329 240.347C217.538 240.347 214.836 240.896 212.171 242.027L206.704 229.139ZM194.188 238.141C198.048 234.103 202.238 230.947 206.809 229.095L212.066 242.071C209.845 242.97 207.243 244.744 204.31 247.813L194.188 238.141ZM184.576 257.186C186.613 249.457 189.667 242.873 194.188 238.141L204.31 247.813C202.039 250.19 199.823 254.268 198.113 260.755L184.576 257.186ZM181.361 280.964C181.606 271.965 182.652 263.962 184.61 257.06L198.079 260.881C196.524 266.361 195.579 273.147 195.356 281.345L181.361 280.964ZM181.358 395L181.358 281.155L195.358 281.155L195.358 395L181.358 395ZM188.358 402L159.374 402L159.374 388L188.358 388L188.358 402Z" fill="#FD39C3" mask="url(#path-7-inside-4_215_2491)"/>
<mask id="path-9-inside-5_215_2491" fill="white">
<path fill-rule="evenodd" clip-rule="evenodd" d="M159.38 181.692L159.38 171.422C159.38 162.4 160.125 154.177 161.615 146.752C163.229 139.328 165.339 133.125 167.946 128.144C170.429 123.351 173.533 119.028 177.257 115.174C180.857 111.415 184.519 108.502 188.244 106.434C191.844 104.367 195.878 102.675 200.348 101.359C204.568 100.043 208.417 99.1975 211.893 98.8216C215.369 98.4457 218.907 98.2577 222.507 98.2577L227.535 98.2577C231.135 98.2577 234.673 98.4457 238.149 98.8216C241.625 99.1975 245.474 100.043 249.694 101.359C253.915 102.675 257.888 104.367 261.612 106.434C265.212 108.502 268.812 111.415 272.413 115.174C276.013 118.934 279.054 123.304 281.537 128.285C284.02 133.266 286.068 139.421 287.682 146.752C289.172 154.177 289.917 162.4 289.917 171.422L289.917 181.692L259.378 181.692L259.378 170.999C259.129 165.642 258.446 160.849 257.329 156.62C255.839 151.451 254.039 147.41 251.929 144.496C249.819 141.583 247.212 139.14 244.108 137.166C241.129 135.38 238.211 134.112 235.356 133.36C232.625 132.796 229.645 132.467 226.418 132.373L223.997 132.373C220.024 132.373 216.176 132.984 212.451 134.206C208.851 135.333 205.251 137.354 201.651 140.267C198.051 143.181 195.258 147.551 193.271 153.378C191.409 158.453 190.354 164.514 190.106 171.563L190.106 181.692L159.38 181.692ZM227.535 364.131L227.702 364.13L222.346 364.13L222.507 364.131L227.535 364.131Z"/>
</mask>
<path d="M159.38 181.692L159.38 188.692L152.38 188.692L152.38 181.692L159.38 181.692ZM161.615 146.752L154.752 145.375L154.763 145.32L154.775 145.265L161.615 146.752ZM167.946 128.144L174.162 131.363L174.155 131.377L174.148 131.39L167.946 128.144ZM177.257 115.174L182.312 120.016L182.301 120.028L182.29 120.039L177.257 115.174ZM188.244 106.434L191.73 112.504L191.686 112.53L191.641 112.554L188.244 106.434ZM200.348 101.359L202.431 108.042L202.378 108.058L202.324 108.074L200.348 101.359ZM211.893 98.8216L212.646 105.781L212.645 105.781L211.893 98.8216ZM238.149 98.8216L237.396 105.781L237.396 105.781L238.149 98.8216ZM249.694 101.359L247.611 108.042L247.611 108.042L249.694 101.359ZM261.612 106.434L265.01 100.314L265.054 100.339L265.098 100.364L261.612 106.434ZM272.413 115.174L277.468 110.333L277.468 110.333L272.413 115.174ZM281.537 128.285L275.272 131.408L275.272 131.408L281.537 128.285ZM287.682 146.752L294.518 145.247L294.533 145.311L294.545 145.375L287.682 146.752ZM289.917 181.692L296.917 181.692L296.917 188.692L289.917 188.692L289.917 181.692ZM259.378 181.692L259.378 188.692L252.378 188.692L252.378 181.692L259.378 181.692ZM259.378 170.999L266.37 170.675L266.378 170.837L266.378 170.999L259.378 170.999ZM257.329 156.62L264.055 154.682L264.077 154.757L264.097 154.832L257.329 156.62ZM251.929 144.496L257.598 140.39L257.598 140.39L251.929 144.496ZM244.108 137.166L247.706 131.162L247.786 131.209L247.864 131.259L244.108 137.166ZM235.356 133.36L236.771 126.504L236.956 126.542L237.138 126.59L235.356 133.36ZM226.418 132.373L226.418 125.373L226.519 125.373L226.621 125.376L226.418 132.373ZM212.451 134.206L214.633 140.857L214.589 140.871L214.544 140.885L212.451 134.206ZM193.271 153.378L199.897 155.636L199.871 155.713L199.843 155.789L193.271 153.378ZM190.106 171.563L183.106 171.563L183.106 171.44L183.11 171.317L190.106 171.563ZM190.106 181.692L197.106 181.692L197.106 188.692L190.106 188.692L190.106 181.692ZM227.702 364.13L227.702 357.13L227.707 371.13L227.702 364.13ZM227.535 364.131L227.54 371.131L227.535 371.131L227.535 364.131ZM222.346 364.13L222.34 371.13L222.346 357.13L222.346 364.13ZM222.507 364.131L222.507 371.131L222.502 371.131L222.507 364.131ZM152.38 181.692L152.38 171.422L166.38 171.422L166.38 181.692L152.38 181.692ZM152.38 171.422C152.38 162.022 153.156 153.329 154.752 145.375L168.478 148.129C167.095 155.024 166.38 162.777 166.38 171.422L152.38 171.422ZM154.775 145.265C156.478 137.428 158.765 130.59 161.744 124.898L174.148 131.39C171.913 135.66 169.979 141.227 168.455 148.239L154.775 145.265ZM161.731 124.924C164.523 119.533 168.024 114.654 172.224 110.31L182.29 120.039C179.041 123.401 176.335 127.169 174.162 131.363L161.731 124.924ZM172.201 110.333C176.183 106.175 180.39 102.788 184.846 100.314L191.641 112.554C188.649 114.215 185.531 116.655 182.312 120.016L172.201 110.333ZM184.757 100.364C188.887 97.9921 193.438 96.0963 198.371 94.6441L202.324 108.074C198.319 109.253 194.8 110.741 191.73 112.504L184.757 100.364ZM198.264 94.6763C202.811 93.259 207.113 92.2978 211.14 91.8622L212.645 105.781C209.721 106.097 206.326 106.828 202.431 108.042L198.264 94.6763ZM211.14 91.8622C214.873 91.4584 218.663 91.2577 222.507 91.2577L222.507 105.258C219.151 105.258 215.864 105.433 212.646 105.781L211.14 91.8622ZM222.507 91.2577L227.535 91.2577L227.535 105.258L222.507 105.258L222.507 91.2577ZM227.535 91.2577C231.379 91.2577 235.168 91.4584 238.902 91.8622L237.396 105.781C234.178 105.433 230.891 105.258 227.535 105.258L227.535 91.2577ZM238.902 91.8622C242.929 92.2978 247.231 93.259 251.778 94.6763L247.611 108.042C243.716 106.828 240.321 106.097 237.396 105.781L238.902 91.8622ZM251.778 94.6763C256.437 96.1288 260.852 98.0058 265.01 100.314L258.215 112.554C254.924 110.727 251.393 109.221 247.611 108.042L251.778 94.6763ZM265.098 100.364C269.402 102.836 273.518 106.208 277.468 110.333L267.357 120.016C264.107 116.623 261.022 114.168 258.126 112.504L265.098 100.364ZM277.468 110.333C281.588 114.635 285.027 119.594 287.802 125.162L275.272 131.408C273.082 127.013 270.437 123.232 267.357 120.016L277.468 110.333ZM287.802 125.162C290.612 130.8 292.821 137.537 294.518 145.247L280.846 148.257C279.316 141.306 277.428 135.732 275.272 131.408L287.802 125.162ZM294.545 145.375C296.141 153.329 296.917 162.022 296.917 171.422L282.917 171.422C282.917 162.777 282.202 155.024 280.819 148.129L294.545 145.375ZM296.917 171.422L296.917 181.692L282.917 181.692L282.917 171.422L296.917 171.422ZM289.917 188.692L259.378 188.692L259.378 174.692L289.917 174.692L289.917 188.692ZM252.378 181.692L252.378 170.999L266.378 170.999L266.378 181.692L252.378 181.692ZM252.385 171.323C252.155 166.354 251.528 162.066 250.561 158.408L264.097 154.832C265.365 159.633 266.104 164.93 266.37 170.675L252.385 171.323ZM250.603 158.559C249.238 153.821 247.722 150.621 246.26 148.603L257.598 140.39C260.357 144.199 262.441 149.081 264.055 154.682L250.603 158.559ZM246.26 148.603C244.68 146.421 242.727 144.583 240.352 143.073L247.864 131.259C251.696 133.696 254.958 136.745 257.598 140.39L246.26 148.603ZM240.509 143.17C237.999 141.666 235.69 140.686 233.573 140.129L237.138 126.59C240.733 127.537 244.258 129.095 247.706 131.162L240.509 143.17ZM233.941 140.215C231.665 139.745 229.096 139.454 226.214 139.37L226.621 125.376C230.194 125.48 233.585 125.846 236.771 126.504L233.941 140.215ZM226.418 139.373L223.997 139.373L223.997 125.373L226.418 125.373L226.418 139.373ZM223.997 139.373C220.755 139.373 217.644 139.869 214.633 140.857L210.269 127.554C214.708 126.098 219.293 125.373 223.997 125.373L223.997 139.373ZM214.544 140.885C211.953 141.697 209.12 143.228 206.054 145.709L197.248 134.826C201.382 131.48 205.75 128.969 210.359 127.526L214.544 140.885ZM206.054 145.709C203.766 147.56 201.594 150.657 199.897 155.636L186.646 151.119C188.921 144.444 192.335 138.801 197.248 134.826L206.054 145.709ZM199.843 155.789C198.3 159.995 197.331 165.288 197.101 171.809L183.11 171.317C183.377 163.741 184.519 156.911 186.7 150.966L199.843 155.789ZM197.106 171.563L197.106 181.692L183.106 181.692L183.106 171.563L197.106 171.563ZM190.106 188.692L159.38 188.692L159.38 174.692L190.106 174.692L190.106 188.692ZM227.707 371.13L227.54 371.131L227.53 357.131L227.696 357.13L227.707 371.13ZM222.346 357.13L227.702 357.13L227.702 371.13L222.346 371.13L222.346 357.13ZM222.502 371.131L222.34 371.13L222.351 357.13L222.512 357.131L222.502 371.131ZM227.535 371.131L222.507 371.131L222.507 357.131L227.535 357.131L227.535 371.131Z" fill="#41F168" mask="url(#path-9-inside-5_215_2491)"/>
<mask id="path-11-inside-6_215_2491" fill="white">
<path fill-rule="evenodd" clip-rule="evenodd" d="M159.375 90.5907C159.443 90.2327 159.512 89.8765 159.583 89.5221C161.197 82.0976 163.307 75.8948 165.914 70.9138C168.397 66.1208 171.501 61.7977 175.225 57.9444C178.825 54.1852 182.487 51.2718 186.212 49.2042C189.812 47.1366 193.847 45.4449 198.316 44.1292C202.537 42.8134 206.385 41.9676 209.861 41.5917C213.337 41.2158 216.875 41.0278 220.475 41.0278L225.503 41.0278C229.103 41.0278 232.641 41.2158 236.117 41.5917C239.593 41.9676 243.442 42.8134 247.663 44.1292C251.883 45.4449 255.856 47.1366 259.58 49.2042C263.181 51.2718 266.781 54.1852 270.381 57.9444C273.981 61.7037 277.022 66.0738 279.505 71.0548C281.988 76.0358 284.037 82.1916 285.65 89.5221C285.722 89.8765 285.791 90.2327 285.859 90.5907L251.922 90.5907C251.282 89.355 250.607 88.2469 249.897 87.2666C247.787 84.3531 245.18 81.9096 242.076 79.936C239.097 78.1504 236.179 76.8816 233.324 76.1298C230.593 75.5659 227.613 75.237 224.386 75.143L221.965 75.143C217.992 75.143 214.144 75.7539 210.42 76.9756C206.82 78.1034 203.219 80.124 199.619 83.0374C197.273 84.9363 195.269 87.4541 193.608 90.5907L159.375 90.5907Z"/>
</mask>
<path d="M159.375 90.5907L159.375 97.5907L150.927 97.5907L152.497 89.2899L159.375 90.5907ZM159.583 89.5221L152.72 88.145L152.731 88.09L152.743 88.0352L159.583 89.5221ZM165.914 70.9138L172.13 74.1336L172.123 74.1467L172.116 74.1598L165.914 70.9138ZM175.225 57.9444L180.281 62.786L180.27 62.7977L180.258 62.8092L175.225 57.9444ZM186.212 49.2042L189.698 55.2743L189.654 55.2996L189.609 55.3243L186.212 49.2042ZM198.316 44.1292L200.399 50.812L200.346 50.8285L200.293 50.8442L198.316 44.1292ZM247.663 44.1292L245.579 50.812L245.579 50.812L247.663 44.1292ZM259.58 49.2042L262.978 43.084L263.022 43.1087L263.067 43.134L259.58 49.2042ZM270.381 57.9444L275.436 53.1028L275.436 53.1028L270.381 57.9444ZM279.505 71.0548L273.241 74.1776L273.241 74.1776L279.505 71.0548ZM285.65 89.5221L292.487 88.0171L292.501 88.0809L292.514 88.145L285.65 89.5221ZM285.859 90.5907L292.737 89.2899L294.307 97.5907L285.859 97.5907L285.859 90.5907ZM251.922 90.5907L251.922 97.5907L247.664 97.5907L245.706 93.8094L251.922 90.5907ZM249.897 87.2666L244.228 91.373L244.228 91.373L249.897 87.2666ZM242.076 79.936L245.675 73.9318L245.754 73.9794L245.832 74.0292L242.076 79.936ZM233.324 76.1298L234.739 69.2744L234.924 69.3125L235.107 69.3605L233.324 76.1298ZM224.386 75.143L224.386 68.143L224.488 68.143L224.59 68.1459L224.386 75.143ZM221.965 75.143L221.965 68.143L221.965 75.143ZM210.42 76.9756L212.602 83.6269L212.557 83.6415L212.512 83.6555L210.42 76.9756ZM199.619 83.0374L204.023 88.4788L204.023 88.4788L199.619 83.0374ZM193.608 90.5907L199.794 93.8665L197.822 97.5907L193.608 97.5907L193.608 90.5907ZM152.497 89.2899C152.569 88.9066 152.644 88.525 152.72 88.145L166.446 90.8992C166.38 91.2279 166.316 91.5587 166.253 91.8915L152.497 89.2899ZM152.743 88.0352C154.446 80.1978 156.733 73.3596 159.712 67.6678L172.116 74.1598C169.881 78.43 167.947 83.9974 166.423 91.009L152.743 88.0352ZM159.699 67.6941C162.492 62.3027 165.992 57.4245 170.192 53.0796L180.258 62.8092C177.009 66.1708 174.303 69.9389 172.13 74.1336L159.699 67.6941ZM170.17 53.1028C174.152 48.9448 178.358 45.558 182.814 43.084L189.609 55.3243C186.617 56.9855 183.499 59.4255 180.281 62.786L170.17 53.1028ZM182.726 43.134C186.856 40.7621 191.406 38.8664 196.339 37.4141L200.293 50.8442C196.287 52.0235 192.768 53.511 189.698 55.2743L182.726 43.134ZM196.233 37.4463C200.779 36.0291 205.081 35.0678 209.108 34.6323L210.614 48.5511C207.689 48.8674 204.294 49.5978 200.399 50.812L196.233 37.4463ZM209.108 34.6323C212.842 34.2285 216.631 34.0278 220.475 34.0278L220.475 48.0278C217.119 48.0278 213.832 48.203 210.614 48.5511L209.108 34.6323ZM220.475 34.0278L225.503 34.0278L225.503 48.0278L220.475 48.0278L220.475 34.0278ZM225.503 34.0278C229.347 34.0278 233.137 34.2285 236.87 34.6323L235.365 48.5511C232.146 48.203 228.859 48.0278 225.503 48.0278L225.503 34.0278ZM236.87 34.6323C240.897 35.0678 245.199 36.0291 249.746 37.4463L245.579 50.812C241.684 49.5978 238.289 48.8674 235.365 48.5511L236.87 34.6323ZM249.746 37.4463C254.406 38.8989 258.82 40.7759 262.978 43.084L256.183 55.3243C252.892 53.4973 249.361 51.9909 245.579 50.812L249.746 37.4463ZM263.067 43.134C267.371 45.6059 271.486 48.9777 275.436 53.1028L265.325 62.786C262.075 59.3926 258.99 56.9376 256.094 55.2743L263.067 43.134ZM275.436 53.1028C279.556 57.4049 282.995 62.3641 285.77 67.932L273.241 74.1776C271.05 69.7835 268.405 66.0024 265.325 62.786L275.436 53.1028ZM285.77 67.932C288.58 73.5696 290.789 80.3067 292.487 88.0171L278.814 91.0272C277.284 84.0764 275.396 78.502 273.241 74.1776L285.77 67.932ZM292.514 88.145C292.59 88.525 292.664 88.9066 292.737 89.2899L278.981 91.8915C278.918 91.5588 278.853 91.228 278.787 90.8992L292.514 88.145ZM285.859 97.5907L251.922 97.5907L251.922 83.5907L285.859 83.5907L285.859 97.5907ZM245.706 93.8094C245.203 92.8381 244.707 92.0335 244.228 91.373L255.566 83.1601C256.508 84.4604 257.362 85.8718 258.138 87.372L245.706 93.8094ZM244.228 91.373C242.648 89.1912 240.695 87.3533 238.32 85.8429L245.832 74.0292C249.664 76.466 252.926 79.5151 255.566 83.1601L244.228 91.373ZM238.478 85.9403C235.968 84.4359 233.658 83.4562 231.542 82.899L235.107 69.3605C238.701 70.307 242.226 71.8649 245.675 73.9318L238.478 85.9403ZM231.909 82.9852C229.633 82.5154 227.065 82.2239 224.182 82.14L224.59 68.1459C228.162 68.25 231.553 68.6164 234.739 69.2744L231.909 82.9852ZM224.386 82.143L221.965 82.143L221.965 68.143L224.386 68.143L224.386 82.143ZM221.965 82.143C218.723 82.143 215.612 82.6393 212.602 83.6269L208.238 70.3244C212.676 68.8684 217.261 68.143 221.965 68.143L221.965 82.143ZM212.512 83.6555C209.921 84.4672 207.089 85.9978 204.023 88.4788L195.216 77.596C199.35 74.2502 203.718 71.7396 208.327 70.2957L212.512 83.6555ZM204.023 88.4788C202.528 89.6885 201.09 91.4199 199.794 93.8665L187.422 87.3149C189.448 83.4882 192.018 80.1841 195.216 77.596L204.023 88.4788ZM193.608 97.5907L159.375 97.5907L159.375 83.5907L193.608 83.5907L193.608 97.5907Z" fill="#41F168" mask="url(#path-11-inside-6_215_2491)"/>
<mask id="path-13-inside-7_215_2491" fill="white">
<path fill-rule="evenodd" clip-rule="evenodd" d="M322.917 395L322.917 280.983C322.917 269.977 323.619 259.945 325.025 250.888C326.547 241.831 328.538 234.264 330.997 228.188C333.339 222.341 336.267 217.068 339.78 212.367C343.176 207.781 346.631 204.227 350.144 201.705C353.54 199.183 357.346 197.119 361.562 195.514C365.544 193.909 369.174 192.877 372.453 192.419C375.732 191.96 379.069 191.731 382.466 191.731L387.208 191.731C390.604 191.731 393.942 191.96 397.221 192.419C400.5 192.877 404.13 193.909 408.112 195.514C412.094 197.119 415.841 199.183 419.354 201.705C422.75 204.227 426.146 207.781 429.543 212.367C432.939 216.953 435.808 222.284 438.15 228.36C440.492 234.436 442.424 241.946 443.947 250.888C445.352 259.945 446.055 269.977 446.055 280.983L446.055 353.812L446.055 395L417.246 395L417.246 280.467C417.012 273.932 416.368 268.085 415.314 262.926C413.909 256.62 412.211 251.691 410.22 248.137C408.229 244.583 405.77 241.602 402.842 239.194C400.032 237.016 397.28 235.468 394.586 234.551C392.01 233.863 389.199 233.462 386.154 233.347L383.871 233.347C380.123 233.347 376.493 234.092 372.98 235.583C369.584 236.959 366.188 239.424 362.792 242.978C359.395 246.532 356.761 251.863 354.887 258.971C353.13 265.162 352.135 272.556 351.901 281.155L351.901 395L322.917 395Z"/>
</mask>
<path d="M322.917 395L322.917 402L315.917 402L315.917 395L322.917 395ZM325.025 250.888L318.107 249.815L318.114 249.771L318.121 249.728L325.025 250.888ZM330.997 228.188L337.495 230.791L337.49 230.803L337.486 230.814L330.997 228.188ZM339.78 212.367L345.405 216.533L345.396 216.545L345.387 216.558L339.78 212.367ZM350.144 201.705L354.318 207.325L354.272 207.358L354.226 207.391L350.144 201.705ZM361.562 195.514L364.179 202.006L364.116 202.032L364.053 202.056L361.562 195.514ZM382.466 191.731L382.466 198.731L382.466 191.731ZM387.208 191.731L387.208 184.731L387.208 191.731ZM397.221 192.419L396.251 199.351L397.221 192.419ZM408.112 195.514L410.729 189.022L410.729 189.022L408.112 195.514ZM419.354 201.705L423.437 196.019L423.483 196.052L423.528 196.085L419.354 201.705ZM429.543 212.367L435.168 208.201L435.168 208.201L429.543 212.367ZM438.15 228.36L431.618 230.878L431.618 230.878L438.15 228.36ZM443.947 250.888L450.847 249.713L450.856 249.764L450.864 249.815L443.947 250.888ZM446.055 395L453.055 395L453.055 402L446.055 402L446.055 395ZM417.246 395L417.246 402L410.246 402L410.246 395L417.246 395ZM417.246 280.467L424.242 280.216L424.246 280.341L424.246 280.467L417.246 280.467ZM415.314 262.926L422.146 261.403L422.16 261.464L422.172 261.525L415.314 262.926ZM410.22 248.137L416.327 244.716L416.327 244.716L410.22 248.137ZM402.842 239.194L407.13 233.661L407.21 233.723L407.288 233.788L402.842 239.194ZM394.586 234.551L396.392 227.788L396.619 227.849L396.842 227.925L394.586 234.551ZM386.154 233.347L386.154 226.347L386.286 226.347L386.418 226.352L386.154 233.347ZM372.98 235.583L375.714 242.027L375.661 242.049L375.608 242.071L372.98 235.583ZM354.887 258.971L361.656 260.755L361.639 260.818L361.621 260.881L354.887 258.971ZM351.901 281.155L344.901 281.155L344.901 281.059L344.903 280.964L351.901 281.155ZM351.901 395L358.901 395L358.901 402L351.901 402L351.901 395ZM329.917 280.983L329.917 395L315.917 395L315.917 280.983L329.917 280.983ZM331.942 251.961C330.601 260.601 329.917 270.267 329.917 280.983L315.917 280.983C315.917 269.686 316.637 259.289 318.107 249.815L331.942 251.961ZM337.486 230.814C335.276 236.273 333.396 243.31 331.928 252.048L318.121 249.728C319.697 240.352 321.799 232.256 324.508 225.562L337.486 230.814ZM345.387 216.558C342.264 220.736 339.627 225.469 337.495 230.791L324.499 225.585C327.051 219.214 330.269 213.399 334.173 208.176L345.387 216.558ZM354.226 207.391C351.457 209.379 348.499 212.356 345.405 216.533L334.155 208.201C337.853 203.206 341.804 199.075 346.062 196.019L354.226 207.391ZM364.053 202.056C360.398 203.447 357.165 205.21 354.318 207.325L345.97 196.085C349.916 193.155 354.295 190.791 359.071 188.972L364.053 202.056ZM373.422 199.351C370.847 199.711 367.779 200.555 364.179 202.006L358.945 189.022C363.309 187.263 367.501 186.043 371.483 185.486L373.422 199.351ZM382.466 198.731C379.385 198.731 376.372 198.939 373.422 199.351L371.483 185.486C375.092 184.981 378.753 184.731 382.466 184.731L382.466 198.731ZM387.208 198.731L382.466 198.731L382.466 184.731L387.208 184.731L387.208 198.731ZM396.251 199.351C393.302 198.939 390.288 198.731 387.208 198.731L387.208 184.731C390.921 184.731 394.582 184.981 398.191 185.486L396.251 199.351ZM405.495 202.006C401.895 200.555 398.827 199.711 396.251 199.351L398.191 185.486C402.173 186.043 406.365 187.263 410.729 189.022L405.495 202.006ZM415.272 207.391C412.21 205.193 408.954 203.401 405.495 202.006L410.729 189.022C415.234 190.837 419.472 193.173 423.437 196.019L415.272 207.391ZM423.917 216.533C420.798 212.321 417.869 209.322 415.181 207.325L423.528 196.085C427.631 199.133 431.495 203.241 435.168 208.201L423.917 216.533ZM431.618 230.878C429.472 225.308 426.89 220.547 423.917 216.533L435.168 208.201C438.987 213.359 442.144 219.26 444.682 225.843L431.618 230.878ZM437.046 252.063C435.574 243.415 433.742 236.388 431.618 230.878L444.682 225.843C447.242 232.485 449.275 240.476 450.847 249.713L437.046 252.063ZM439.055 280.983C439.055 270.267 438.37 260.601 437.03 251.961L450.864 249.815C452.334 259.289 453.055 269.686 453.055 280.983L439.055 280.983ZM439.055 353.812L439.055 280.983L453.055 280.983L453.055 353.812L439.055 353.812ZM439.055 395L439.055 353.812L453.055 353.812L453.055 395L439.055 395ZM446.055 402L417.246 402L417.246 388L446.055 388L446.055 402ZM424.246 280.467L424.246 395L410.246 395L410.246 280.467L424.246 280.467ZM422.172 261.525C423.32 267.141 423.997 273.383 424.242 280.216L410.251 280.718C410.027 274.481 409.416 269.029 408.456 264.327L422.172 261.525ZM416.327 244.716C418.786 249.106 420.669 254.774 422.146 261.403L408.482 264.449C407.149 258.467 405.635 254.275 404.113 251.558L416.327 244.716ZM407.288 233.788C410.937 236.788 413.943 240.459 416.327 244.716L404.113 251.558C402.515 248.706 400.603 246.415 398.396 244.601L407.288 233.788ZM396.842 227.925C400.426 229.145 403.854 231.122 407.13 233.661L398.554 244.727C396.209 242.91 394.133 241.792 392.33 241.177L396.842 227.925ZM386.418 226.352C389.911 226.484 393.246 226.948 396.392 227.788L392.78 241.314C390.773 240.778 388.487 240.44 385.891 240.342L386.418 226.352ZM383.871 226.347L386.154 226.347L386.154 240.347L383.871 240.347L383.871 226.347ZM370.246 229.139C374.608 227.288 379.167 226.347 383.871 226.347L383.871 240.347C381.08 240.347 378.378 240.897 375.714 242.027L370.246 229.139ZM357.731 238.142C361.59 234.103 365.78 230.947 370.352 229.095L375.608 242.071C373.388 242.97 370.785 244.744 367.852 247.814L357.731 238.142ZM348.118 257.186C350.156 249.457 353.209 242.873 357.731 238.142L367.852 247.814C365.581 250.19 363.365 254.268 361.656 260.755L348.118 257.186ZM344.903 280.964C345.148 271.965 346.194 263.963 348.153 257.06L361.621 260.881C360.066 266.361 359.121 273.147 358.898 281.345L344.903 280.964ZM344.901 395L344.901 281.155L358.901 281.155L358.901 395L344.901 395ZM351.901 402L322.917 402L322.917 388L351.901 388L351.901 402Z" fill="#FD39C3" mask="url(#path-13-inside-7_215_2491)"/>
<mask id="path-15-inside-8_215_2491" fill="white">
<path fill-rule="evenodd" clip-rule="evenodd" d="M322.922 181.692L322.922 171.463C322.922 162.477 323.625 154.286 325.03 146.892C326.553 139.497 328.543 133.319 331.003 128.358C333.345 123.584 336.272 119.278 339.786 115.44C343.182 111.696 346.636 108.794 350.15 106.735C353.546 104.676 357.352 102.991 361.568 101.68C365.549 100.37 369.179 99.5273 372.458 99.1529C375.737 98.7785 379.075 98.5913 382.471 98.5913L387.214 98.5913C390.61 98.5913 393.948 98.7785 397.227 99.1529C400.506 99.5273 404.136 100.37 408.118 101.68C412.099 102.991 415.847 104.676 419.36 106.735C422.756 108.794 426.152 111.696 429.548 115.44C432.944 119.184 435.813 123.537 438.156 128.498C440.498 133.459 442.43 139.59 443.952 146.892C445.358 154.286 446.06 162.477 446.06 171.463L446.06 181.692L417.252 181.692L417.252 171.042C417.018 165.706 416.374 160.932 415.32 156.72C413.914 151.572 412.216 147.547 410.226 144.645C408.235 141.743 405.775 139.31 402.848 137.344C400.037 135.565 397.285 134.302 394.592 133.553C392.015 132.991 389.205 132.664 386.16 132.57L383.876 132.57C380.129 132.57 376.499 133.178 372.985 134.395C369.589 135.519 366.193 137.531 362.797 140.433C359.401 143.335 356.766 147.687 354.892 153.491C353.136 158.546 352.14 164.583 351.906 171.603L351.906 181.692L322.922 181.692Z"/>
</mask>
<path d="M322.922 181.692L322.922 188.692L315.922 188.692L315.922 181.692L322.922 181.692ZM325.03 146.892L318.153 145.585L318.163 145.532L318.174 145.48L325.03 146.892ZM331.003 128.358L337.287 131.441L337.281 131.454L337.274 131.467L331.003 128.358ZM339.786 115.44L344.97 120.143L344.96 120.155L344.949 120.167L339.786 115.44ZM350.15 106.735L353.779 112.721L353.734 112.748L353.689 112.774L350.15 106.735ZM361.568 101.68L363.756 108.329L363.701 108.348L363.645 108.365L361.568 101.68ZM372.458 99.1529L371.664 92.1981L371.664 92.1981L372.458 99.1529ZM397.227 99.1529L398.021 92.1981L398.021 92.1981L397.227 99.1529ZM408.118 101.68L405.929 108.329L405.929 108.329L408.118 101.68ZM419.36 106.735L422.9 100.696L422.945 100.722L422.989 100.749L419.36 106.735ZM429.548 115.44L434.733 110.737L434.733 110.737L429.548 115.44ZM438.156 128.498L431.826 131.487L431.826 131.487L438.156 128.498ZM443.952 146.892L450.805 145.463L450.818 145.524L450.829 145.585L443.952 146.892ZM446.06 171.463L453.06 171.463L446.06 171.463ZM446.06 181.692L453.06 181.692L453.06 188.692L446.06 188.692L446.06 181.692ZM417.252 181.692L417.252 188.692L410.252 188.692L410.252 181.692L417.252 181.692ZM417.252 171.042L424.245 170.735L424.252 170.888L424.252 171.042L417.252 171.042ZM415.32 156.72L422.073 154.877L422.092 154.949L422.11 155.021L415.32 156.72ZM410.226 144.645L415.998 140.685L415.998 140.685L410.226 144.645ZM402.848 137.344L406.591 131.429L406.671 131.479L406.75 131.532L402.848 137.344ZM394.592 133.553L396.083 126.714L396.276 126.756L396.467 126.809L394.592 133.553ZM386.16 132.57L386.16 125.57L386.268 125.57L386.375 125.573L386.16 132.57ZM372.985 134.395L375.276 141.01L375.23 141.026L375.184 141.041L372.985 134.395ZM362.797 140.433L358.25 135.111L358.25 135.111L362.797 140.433ZM354.892 153.491L361.554 155.642L361.53 155.715L361.505 155.789L354.892 153.491ZM351.906 171.603L344.906 171.603L344.906 171.487L344.91 171.37L351.906 171.603ZM351.906 181.692L358.906 181.692L358.906 188.692L351.906 188.692L351.906 181.692ZM315.922 181.692L315.922 171.463L329.922 171.463L329.922 181.692L315.922 181.692ZM315.922 171.463C315.922 162.12 316.652 153.484 318.153 145.585L331.907 148.199C330.598 155.089 329.922 162.834 329.922 171.463L315.922 171.463ZM318.174 145.48C319.777 137.694 321.928 130.903 324.731 125.249L337.274 131.467C335.159 135.735 333.328 141.3 331.886 148.303L318.174 145.48ZM324.718 125.275C327.347 119.916 330.649 115.054 334.622 110.714L344.949 120.167C341.896 123.502 339.342 127.252 337.287 131.441L324.718 125.275ZM334.601 110.737C338.364 106.588 342.356 103.189 346.61 100.696L353.689 112.774C350.916 114.399 347.999 116.804 344.97 120.143L334.601 110.737ZM346.52 100.749C350.454 98.3642 354.79 96.4567 359.49 94.9957L363.645 108.365C359.914 109.525 356.638 110.987 353.779 112.721L346.52 100.749ZM359.379 95.0311C363.699 93.6094 367.804 92.6389 371.664 92.1981L373.253 106.108C370.555 106.416 367.4 107.13 363.756 108.329L359.379 95.0311ZM371.664 92.1981C375.214 91.7927 378.817 91.5913 382.471 91.5913L382.471 105.591C379.333 105.591 376.26 105.764 373.253 106.108L371.664 92.1981ZM382.471 91.5913L387.214 91.5913L387.214 105.591L382.471 105.591L382.471 91.5913ZM387.214 91.5913C390.868 91.5913 394.471 91.7927 398.021 92.1981L396.433 106.108C393.425 105.764 390.352 105.591 387.214 105.591L387.214 91.5913ZM398.021 92.1981C401.881 92.6389 405.986 93.6094 410.306 95.0311L405.929 108.329C402.286 107.13 399.131 106.416 396.432 106.108L398.021 92.1981ZM410.306 95.0311C414.745 96.492 418.947 98.3788 422.9 100.696L415.82 112.774C412.747 110.973 409.454 109.489 405.929 108.329L410.306 95.0311ZM422.989 100.749C427.096 103.239 431 106.622 434.733 110.737L424.363 120.143C421.304 116.77 418.416 114.349 415.73 112.721L422.989 100.749ZM434.733 110.737C438.631 115.035 441.874 119.977 444.486 125.51L431.826 131.487C429.753 127.097 427.257 123.334 424.363 120.143L434.733 110.737ZM444.486 125.51C447.129 131.11 449.208 137.801 450.805 145.463L437.1 148.321C435.652 141.379 433.866 135.809 431.826 131.487L444.486 125.51ZM450.829 145.585C452.33 153.484 453.06 162.12 453.06 171.463L439.06 171.463C439.06 162.834 438.385 155.089 437.075 148.199L450.829 145.585ZM453.06 171.463L453.06 181.692L439.06 181.692L439.06 171.463L453.06 171.463ZM446.06 188.692L417.252 188.692L417.252 174.692L446.06 174.692L446.06 188.692ZM410.252 181.692L410.252 171.042L424.252 171.042L424.252 181.692L410.252 181.692ZM410.259 171.349C410.041 166.38 409.446 162.086 408.529 158.419L422.11 155.021C423.301 159.779 423.995 165.032 424.245 170.735L410.259 171.349ZM408.567 158.564C407.272 153.822 405.835 150.618 404.453 148.605L415.998 140.685C418.598 144.475 420.556 149.322 422.073 154.877L408.567 158.564ZM404.453 148.605C402.964 146.435 401.14 144.629 398.946 143.155L406.75 131.532C410.411 133.99 413.505 137.052 415.998 140.685L404.453 148.605ZM399.105 143.259C396.767 141.78 394.639 140.832 392.717 140.297L396.467 126.809C399.931 127.772 403.308 129.351 406.591 131.429L399.105 143.259ZM393.101 140.392C391.003 139.935 388.625 139.649 385.945 139.567L386.375 125.573C389.785 125.678 393.028 126.048 396.083 126.714L393.101 140.392ZM386.16 139.57L383.876 139.57L383.876 125.57L386.16 125.57L386.16 139.57ZM383.876 139.57C380.903 139.57 378.047 140.05 375.276 141.01L370.694 127.781C374.95 126.307 379.355 125.57 383.876 125.57L383.876 139.57ZM375.184 141.041C372.834 141.818 370.216 143.301 367.344 145.755L358.25 135.111C362.17 131.761 366.345 129.219 370.787 127.749L375.184 141.041ZM367.344 145.755C365.23 147.562 363.17 150.636 361.554 155.642L348.231 151.34C350.362 144.738 353.572 139.108 358.25 135.111L367.344 145.755ZM361.505 155.789C360.038 160.008 359.12 165.313 358.902 171.837L344.91 171.37C345.161 163.853 346.233 157.083 348.28 151.193L361.505 155.789ZM358.906 171.603L358.906 181.692L344.906 181.692L344.906 171.603L358.906 171.603ZM351.906 188.692L322.922 188.692L322.922 174.692L351.906 174.692L351.906 188.692Z" fill="#41F168" mask="url(#path-15-inside-8_215_2491)"/>
<mask id="path-17-inside-9_215_2491" fill="white">
<path fill-rule="evenodd" clip-rule="evenodd" d="M479.06 395L479.06 280.983C479.06 269.977 479.763 259.945 481.168 250.888C482.691 241.831 484.682 234.264 487.141 228.188C489.483 222.341 492.411 217.068 495.924 212.367C499.32 207.781 502.775 204.227 506.288 201.705C509.684 199.183 513.49 197.119 517.706 195.514C521.687 193.909 525.318 192.877 528.597 192.419C531.876 191.96 535.213 191.731 538.609 191.731L543.352 191.731C546.748 191.731 550.086 191.96 553.365 192.419C556.644 192.877 560.274 193.909 564.256 195.514C568.237 197.119 571.985 199.183 575.498 201.705C578.894 204.227 582.29 207.781 585.686 212.367C589.083 216.953 591.952 222.284 594.294 228.36C596.636 234.436 598.568 241.946 600.091 250.888C601.496 259.945 602.199 269.977 602.199 280.983L602.198 353.812L602.198 395L573.39 395L573.39 280.467C573.156 273.932 572.512 268.085 571.458 262.926C570.053 256.62 568.355 251.691 566.364 248.137C564.373 244.583 561.914 241.602 558.986 239.194C556.175 237.016 553.423 235.468 550.73 234.551C548.154 233.863 545.343 233.462 542.298 233.347L540.015 233.347C536.267 233.347 532.637 234.092 529.124 235.583C525.728 236.959 522.331 239.424 518.935 242.978C515.539 246.532 512.904 251.863 511.031 258.971C509.274 265.162 508.279 272.556 508.044 281.155L508.044 395L479.06 395Z"/>
</mask>
<path d="M479.06 395L479.06 402L472.06 402L472.06 395L479.06 395ZM481.168 250.888L474.251 249.815L474.258 249.771L474.265 249.728L481.168 250.888ZM487.141 228.188L493.639 230.791L493.634 230.803L493.629 230.814L487.141 228.188ZM495.924 212.367L501.549 216.533L501.54 216.545L501.531 216.558L495.924 212.367ZM506.288 201.705L510.461 207.325L510.416 207.358L510.37 207.391L506.288 201.705ZM517.706 195.514L520.323 202.006L520.26 202.032L520.196 202.056L517.706 195.514ZM538.609 191.731L538.609 184.731L538.609 191.731ZM543.352 191.731L543.352 198.731L543.352 191.731ZM553.365 192.419L552.395 199.351L552.395 199.351L553.365 192.419ZM564.256 195.514L566.873 189.022L566.873 189.022L564.256 195.514ZM575.498 201.705L579.58 196.019L579.626 196.052L579.672 196.085L575.498 201.705ZM585.686 212.367L591.312 208.201L591.312 208.201L585.686 212.367ZM594.294 228.36L587.762 230.878L587.762 230.878L594.294 228.36ZM600.091 250.888L606.991 249.713L607 249.764L607.008 249.815L600.091 250.888ZM602.198 395L609.198 395L609.198 402L602.198 402L602.198 395ZM573.39 395L573.39 402L566.39 402L566.39 395L573.39 395ZM573.39 280.467L580.386 280.216L580.39 280.341L580.39 280.467L573.39 280.467ZM571.458 262.926L578.29 261.403L578.304 261.464L578.316 261.525L571.458 262.926ZM566.364 248.137L572.471 244.716L572.471 244.716L566.364 248.137ZM558.986 239.194L563.274 233.661L563.354 233.723L563.432 233.788L558.986 239.194ZM550.73 234.551L552.536 227.788L552.763 227.849L552.986 227.925L550.73 234.551ZM542.298 233.347L542.298 226.347L542.43 226.347L542.562 226.352L542.298 233.347ZM540.015 233.347L540.015 226.347L540.015 233.347ZM529.124 235.583L531.857 242.027L531.805 242.049L531.752 242.071L529.124 235.583ZM518.935 242.978L523.996 247.814L523.996 247.814L518.935 242.978ZM511.031 258.971L517.799 260.755L517.783 260.818L517.765 260.881L511.031 258.971ZM508.044 281.155L501.044 281.155L501.044 281.059L501.047 280.964L508.044 281.155ZM508.044 395L515.044 395L515.044 402L508.044 402L508.044 395ZM486.06 280.983L486.06 395L472.06 395L472.06 280.983L486.06 280.983ZM488.086 251.961C486.745 260.601 486.06 270.267 486.06 280.983L472.06 280.983C472.06 269.686 472.781 259.289 474.251 249.815L488.086 251.961ZM493.629 230.814C491.42 236.273 489.54 243.31 488.071 252.048L474.265 249.728C475.841 240.352 477.943 232.256 480.652 225.562L493.629 230.814ZM501.531 216.558C498.408 220.736 495.771 225.469 493.639 230.791L480.643 225.585C483.195 219.214 486.413 213.399 490.317 208.176L501.531 216.558ZM510.37 207.391C507.601 209.379 504.643 212.356 501.549 216.533L490.298 208.201C493.997 203.206 497.948 199.075 502.205 196.019L510.37 207.391ZM520.196 202.056C516.541 203.447 513.308 205.21 510.461 207.325L502.114 196.085C506.059 193.155 510.438 190.791 515.215 188.972L520.196 202.056ZM529.566 199.351C526.99 199.711 523.922 200.555 520.323 202.006L515.089 189.022C519.452 187.263 523.645 186.043 527.627 185.486L529.566 199.351ZM538.609 198.731C535.529 198.731 532.516 198.939 529.566 199.351L527.627 185.486C531.236 184.981 534.897 184.731 538.609 184.731L538.609 198.731ZM543.352 198.731L538.609 198.731L538.609 184.731L543.352 184.731L543.352 198.731ZM552.395 199.351C549.446 198.939 546.432 198.731 543.352 198.731L543.352 184.731C547.064 184.731 550.726 184.981 554.334 185.486L552.395 199.351ZM561.639 202.006C558.039 200.555 554.971 199.711 552.395 199.351L554.334 185.486C558.317 186.043 562.509 187.263 566.873 189.022L561.639 202.006ZM571.416 207.391C568.354 205.193 565.098 203.401 561.639 202.006L566.873 189.022C571.377 190.837 575.616 193.173 579.58 196.019L571.416 207.391ZM580.061 216.533C576.942 212.321 574.013 209.322 571.324 207.325L579.672 196.085C583.775 199.133 587.639 203.241 591.312 208.201L580.061 216.533ZM587.762 230.878C585.615 225.308 583.034 220.547 580.061 216.533L591.312 208.201C595.131 213.359 598.288 219.26 600.825 225.843L587.762 230.878ZM593.19 252.063C591.718 243.415 589.886 236.388 587.762 230.878L600.825 225.843C603.386 232.485 605.419 240.476 606.991 249.713L593.19 252.063ZM595.199 280.983C595.199 270.267 594.514 260.601 593.173 251.961L607.008 249.815C608.478 259.289 609.199 269.686 609.199 280.983L595.199 280.983ZM595.198 353.812L595.199 280.983L609.199 280.983L609.198 353.812L595.198 353.812ZM595.198 395L595.198 353.812L609.198 353.812L609.198 395L595.198 395ZM602.198 402L573.39 402L573.39 388L602.198 388L602.198 402ZM580.39 280.467L580.39 395L566.39 395L566.39 280.467L580.39 280.467ZM578.316 261.525C579.464 267.141 580.141 273.383 580.386 280.216L566.395 280.718C566.171 274.481 565.56 269.029 564.6 264.327L578.316 261.525ZM572.471 244.716C574.93 249.106 576.813 254.774 578.29 261.403L564.626 264.449C563.292 258.467 561.779 254.275 560.257 251.558L572.471 244.716ZM563.432 233.788C567.081 236.788 570.087 240.459 572.471 244.716L560.257 251.558C558.659 248.706 556.746 246.415 554.54 244.601L563.432 233.788ZM552.986 227.925C556.57 229.145 559.998 231.122 563.274 233.661L554.698 244.727C552.353 242.91 550.277 241.792 548.474 241.177L552.986 227.925ZM542.562 226.352C546.055 226.484 549.39 226.948 552.536 227.788L548.924 241.314C546.917 240.778 544.631 240.44 542.035 240.342L542.562 226.352ZM540.015 226.347L542.298 226.347L542.298 240.347L540.015 240.347L540.015 226.347ZM526.39 229.139C530.752 227.288 535.31 226.347 540.015 226.347L540.015 240.347C537.224 240.347 534.522 240.897 531.857 242.027L526.39 229.139ZM513.874 238.142C517.734 234.103 521.924 230.947 526.495 229.095L531.752 242.071C529.531 242.97 526.929 244.744 523.996 247.814L513.874 238.142ZM504.262 257.186C506.299 249.457 509.353 242.873 513.874 238.142L523.996 247.814C521.725 250.19 519.509 254.268 517.799 260.755L504.262 257.186ZM501.047 280.964C501.292 271.965 502.338 263.963 504.296 257.06L517.765 260.881C516.21 266.361 515.265 273.147 515.042 281.345L501.047 280.964ZM501.044 395L501.044 281.155L515.044 281.155L515.044 395L501.044 395ZM508.044 402L479.06 402L479.06 388L508.044 388L508.044 402Z" fill="#FD39C3" mask="url(#path-17-inside-9_215_2491)"/>
<mask id="path-19-inside-10_215_2491" fill="white">
<path fill-rule="evenodd" clip-rule="evenodd" d="M479.065 181.692L479.065 175.376C479.065 169.827 479.768 164.77 481.173 160.204C482.696 155.638 484.687 151.823 487.146 148.76C489.488 145.812 492.416 143.154 495.929 140.784C499.325 138.472 502.78 136.68 506.293 135.409C509.689 134.137 513.495 133.097 517.711 132.287C521.692 131.478 525.323 130.958 528.602 130.727C531.881 130.496 535.218 130.38 538.614 130.38L543.357 130.38C546.753 130.38 550.091 130.496 553.37 130.727C556.649 130.958 560.279 131.478 564.261 132.288C568.242 133.097 571.99 134.137 575.503 135.409C578.899 136.68 582.295 138.472 585.691 140.784C589.088 143.096 591.957 145.783 594.299 148.847C596.641 151.91 598.573 155.696 600.096 160.204C601.501 164.77 602.204 169.827 602.204 175.376L602.204 181.692L573.395 181.692L573.395 175.116C573.161 171.821 572.517 168.874 571.463 166.273C570.058 163.094 568.36 160.609 566.369 158.817C564.378 157.025 561.919 155.522 558.991 154.309C556.18 153.21 553.428 152.43 550.735 151.968C548.159 151.621 545.348 151.419 542.303 151.361L540.02 151.361C536.272 151.361 532.642 151.737 529.129 152.488C525.733 153.182 522.336 154.424 518.94 156.216C515.544 158.008 512.909 160.695 511.036 164.279C509.279 167.4 508.284 171.128 508.049 175.463L508.049 181.692L479.065 181.692ZM543.357 293.891L543.502 293.891L538.474 293.891L538.614 293.891L543.357 293.891Z"/>
</mask>
<path d="M479.065 181.692L479.065 188.692L472.065 188.692L472.065 181.692L479.065 181.692ZM481.173 160.204L474.483 158.145L474.507 158.067L474.533 157.99L481.173 160.204ZM487.146 148.76L492.626 153.115L492.615 153.128L492.604 153.142L487.146 148.76ZM495.929 140.784L499.868 146.57L499.856 146.579L499.843 146.587L495.929 140.784ZM506.293 135.409L508.747 141.964L508.711 141.978L508.675 141.991L506.293 135.409ZM517.711 132.287L519.105 139.147L519.068 139.155L519.03 139.162L517.711 132.287ZM528.602 130.727L528.109 123.744L528.109 123.744L528.602 130.727ZM553.37 130.727L553.862 123.744L553.862 123.744L553.37 130.727ZM564.261 132.288L565.655 125.428L565.655 125.428L564.261 132.288ZM575.503 135.409L577.885 128.826L577.922 128.84L577.958 128.853L575.503 135.409ZM585.691 140.784L581.752 146.57L581.752 146.57L585.691 140.784ZM594.299 148.847L588.738 153.098L588.738 153.098L594.299 148.847ZM600.096 160.204L606.728 157.964L606.758 158.054L606.786 158.145L600.096 160.204ZM602.204 175.376L595.204 175.376L602.204 175.376ZM602.204 181.692L609.204 181.692L609.204 188.692L602.204 188.692L602.204 181.692ZM573.395 181.692L573.395 188.692L566.395 188.692L566.395 181.692L573.395 181.692ZM573.395 175.116L580.378 174.62L580.395 174.867L580.395 175.116L573.395 175.116ZM571.463 166.273L577.865 163.443L577.909 163.543L577.95 163.644L571.463 166.273ZM566.369 158.817L571.051 153.614L571.051 153.614L566.369 158.817ZM558.991 154.309L561.539 147.789L561.605 147.815L561.672 147.842L558.991 154.309ZM550.735 151.968L551.669 145.03L551.794 145.047L551.919 145.069L550.735 151.968ZM542.303 151.361L542.303 144.361L542.37 144.361L542.436 144.362L542.303 151.361ZM540.02 151.361L540.02 158.361L540.02 151.361ZM529.129 152.488L530.593 159.333L530.561 159.34L530.529 159.346L529.129 152.488ZM518.94 156.216L522.207 162.407L518.94 156.216ZM511.036 164.279L517.239 167.522L517.189 167.618L517.136 167.712L511.036 164.279ZM508.049 175.463L501.049 175.463L501.049 175.274L501.06 175.085L508.049 175.463ZM508.049 181.692L515.049 181.692L515.049 188.692L508.049 188.692L508.049 181.692ZM543.502 293.891L543.502 286.891L543.505 300.891L543.502 293.891ZM543.357 293.891L543.36 300.891L543.357 300.891L543.357 293.891ZM538.474 293.891L538.471 300.891L538.474 286.891L538.474 293.891ZM538.614 293.891L538.614 300.891L538.611 300.891L538.614 293.891ZM472.065 181.692L472.065 175.376L486.065 175.376L486.065 181.692L472.065 181.692ZM472.065 175.376C472.065 169.239 472.842 163.476 474.483 158.145L487.864 162.263C486.694 166.065 486.065 170.415 486.065 175.376L472.065 175.376ZM474.533 157.99C476.26 152.808 478.606 148.215 481.687 144.378L492.604 153.142C490.767 155.431 489.131 158.468 487.814 162.418L474.533 157.99ZM481.665 144.405C484.504 140.832 487.982 137.701 492.014 134.981L499.843 146.587C496.85 148.606 494.472 150.792 492.626 153.115L481.665 144.405ZM491.99 134.997C495.822 132.389 499.796 130.316 503.91 128.826L508.675 141.991C505.764 143.045 502.828 144.555 499.868 146.57L491.99 134.997ZM503.838 128.853C507.663 127.421 511.857 126.283 516.391 125.413L519.03 139.162C515.133 139.91 511.715 140.853 508.747 141.964L503.838 128.853ZM516.317 125.428C520.53 124.572 524.467 124.001 528.109 123.744L529.094 137.71C526.179 137.915 522.855 138.385 519.105 139.147L516.317 125.428ZM528.109 123.744C531.558 123.501 535.059 123.38 538.614 123.38L538.614 137.38C535.377 137.38 532.204 137.49 529.094 137.71L528.109 123.744ZM538.614 123.38L543.357 123.38L543.357 137.38L538.614 137.38L538.614 123.38ZM543.357 123.38C546.912 123.38 550.414 123.501 553.862 123.744L552.878 137.71C549.768 137.49 546.594 137.38 543.357 137.38L543.357 123.38ZM553.862 123.744C557.505 124.001 561.442 124.572 565.655 125.428L562.867 139.147C559.116 138.385 555.793 137.915 552.877 137.71L553.862 123.744ZM565.655 125.428C569.943 126.299 574.023 127.429 577.885 128.826L573.121 141.991C569.956 140.845 566.541 139.894 562.867 139.147L565.655 125.428ZM577.958 128.853C581.941 130.345 585.832 132.412 589.631 134.997L581.752 146.57C578.758 144.532 575.857 143.016 573.049 141.964L577.958 128.853ZM589.631 134.997C593.605 137.703 597.034 140.899 599.86 144.595L588.738 153.098C586.88 150.668 584.57 148.488 581.752 146.57L589.631 134.997ZM599.86 144.595C602.76 148.389 605.016 152.894 606.728 157.964L593.464 162.444C592.131 158.497 590.521 155.431 588.738 153.098L599.86 144.595ZM606.786 158.145C608.427 163.476 609.204 169.239 609.204 175.376L595.204 175.376C595.204 170.415 594.575 166.065 593.405 162.263L606.786 158.145ZM609.204 175.376L609.204 181.692L595.204 181.692L595.204 175.376L609.204 175.376ZM602.204 188.692L573.395 188.692L573.395 174.692L602.204 174.692L602.204 188.692ZM566.395 181.692L566.395 175.116L580.395 175.116L580.395 181.692L566.395 181.692ZM566.413 175.612C566.222 172.924 565.71 170.714 564.975 168.902L577.95 163.644C579.324 167.033 580.1 170.719 580.378 174.62L566.413 175.612ZM565.061 169.103C563.941 166.57 562.759 164.985 561.686 164.02L571.051 153.614C573.96 156.232 576.174 159.618 577.865 163.443L565.061 169.103ZM561.686 164.02C560.383 162.847 558.635 161.739 556.31 160.775L561.672 147.842C565.202 149.306 568.373 151.203 571.051 153.614L561.686 164.02ZM556.443 160.829C554.028 159.885 551.733 159.241 549.551 158.867L551.919 145.069C555.124 145.619 558.333 146.536 561.539 147.789L556.443 160.829ZM549.801 158.905C547.531 158.6 544.991 158.413 542.17 158.36L542.436 144.362C545.705 144.424 548.786 144.642 551.669 145.03L549.801 158.905ZM542.303 158.361L540.02 158.361L540.02 144.361L542.303 144.361L542.303 158.361ZM540.02 158.361C536.743 158.361 533.604 158.689 530.593 159.333L527.665 145.643C531.679 144.784 535.801 144.361 540.02 144.361L540.02 158.361ZM530.529 159.346C527.849 159.894 525.078 160.892 522.207 162.407L515.674 150.025C519.595 147.956 523.616 146.469 527.728 145.63L530.529 159.346ZM522.207 162.407C520.134 163.5 518.492 165.126 517.239 167.522L504.832 161.035C507.327 156.265 510.954 152.515 515.674 150.025L522.207 162.407ZM517.136 167.712C516.007 169.719 515.228 172.354 515.039 175.84L501.06 175.085C501.34 169.901 502.551 165.081 504.935 160.846L517.136 167.712ZM515.049 175.463L515.049 181.692L501.049 181.692L501.049 175.463L515.049 175.463ZM508.049 188.692L479.065 188.692L479.065 174.692L508.049 174.692L508.049 188.692ZM543.505 300.891L543.36 300.891L543.354 286.891L543.499 286.891L543.505 300.891ZM538.474 286.891L543.502 286.891L543.502 300.891L538.474 300.891L538.474 286.891ZM538.611 300.891L538.471 300.891L538.477 286.891L538.618 286.891L538.611 300.891ZM543.357 300.891L538.614 300.891L538.614 286.891L543.357 286.891L543.357 300.891Z" fill="#41F168" mask="url(#path-19-inside-10_215_2491)"/>
<mask id="path-21-inside-11_215_2491" fill="white">
<path fill-rule="evenodd" clip-rule="evenodd" d="M635.204 395L635.204 280.983C635.204 269.977 635.906 259.945 637.311 250.888C638.834 241.831 640.825 234.264 643.284 228.188C645.626 222.341 648.554 217.068 652.067 212.367C655.463 207.781 658.918 204.227 662.431 201.705C665.827 199.183 669.633 197.119 673.849 195.514C677.831 193.909 681.461 192.877 684.74 192.419C688.019 191.96 691.356 191.731 694.753 191.731L699.495 191.731C702.891 191.731 706.229 191.96 709.508 192.419C712.787 192.877 716.417 193.909 720.399 195.514C724.381 197.119 728.128 199.183 731.641 201.705C735.037 204.227 738.433 207.781 741.83 212.367C745.226 216.953 748.095 222.284 750.437 228.36C752.779 234.436 754.711 241.946 756.234 250.888C757.639 259.945 758.342 269.977 758.342 280.983L758.342 353.812L758.342 395L729.533 395L729.533 280.467C729.299 273.932 728.655 268.085 727.601 262.926C726.196 256.62 724.498 251.691 722.507 248.137C720.516 244.583 718.057 241.602 715.129 239.194C712.319 237.016 709.567 235.468 706.873 234.551C704.297 233.863 701.486 233.462 698.441 233.347L696.158 233.347C692.41 233.347 688.78 234.092 685.267 235.583C681.871 236.959 678.475 239.424 675.079 242.978C671.682 246.532 669.048 251.863 667.174 258.971C665.417 265.162 664.422 272.556 664.188 281.155L664.188 395L635.204 395Z"/>
</mask>
<path d="M635.204 395L635.204 402L628.204 402L628.204 395L635.204 395ZM637.311 250.888L630.394 249.815L630.401 249.771L630.408 249.728L637.311 250.888ZM643.284 228.188L649.782 230.791L649.777 230.803L649.773 230.814L643.284 228.188ZM652.067 212.367L657.692 216.533L657.683 216.545L657.674 216.558L652.067 212.367ZM662.431 201.705L666.605 207.325L666.559 207.358L666.513 207.391L662.431 201.705ZM673.849 195.514L676.466 202.006L676.403 202.032L676.34 202.056L673.849 195.514ZM709.508 192.419L708.538 199.351L708.538 199.351L709.508 192.419ZM720.399 195.514L723.016 189.022L723.016 189.022L720.399 195.514ZM731.641 201.705L735.724 196.019L735.77 196.052L735.815 196.085L731.641 201.705ZM741.83 212.367L747.455 208.201L747.455 208.201L741.83 212.367ZM750.437 228.36L743.905 230.878L743.905 230.878L750.437 228.36ZM756.234 250.888L763.134 249.713L763.143 249.764L763.151 249.815L756.234 250.888ZM758.342 395L765.342 395L765.342 402L758.342 402L758.342 395ZM729.533 395L729.533 402L722.533 402L722.533 395L729.533 395ZM729.533 280.467L736.529 280.216L736.533 280.341L736.533 280.467L729.533 280.467ZM727.601 262.926L734.433 261.403L734.447 261.464L734.459 261.525L727.601 262.926ZM722.507 248.137L728.614 244.716L728.614 244.716L722.507 248.137ZM715.129 239.194L719.417 233.661L719.497 233.723L719.575 233.788L715.129 239.194ZM706.873 234.551L708.679 227.788L708.906 227.849L709.129 227.925L706.873 234.551ZM698.441 233.347L698.441 226.347L698.573 226.347L698.705 226.352L698.441 233.347ZM685.267 235.583L688.001 242.027L687.948 242.049L687.895 242.071L685.267 235.583ZM675.079 242.978L670.018 238.142L670.018 238.142L675.079 242.978ZM667.174 258.971L673.943 260.755L673.926 260.818L673.908 260.881L667.174 258.971ZM664.188 281.155L657.188 281.155L657.188 281.059L657.19 280.964L664.188 281.155ZM664.188 395L671.188 395L671.188 402L664.188 402L664.188 395ZM642.204 280.983L642.204 395L628.204 395L628.204 280.983L642.204 280.983ZM644.229 251.961C642.888 260.601 642.204 270.267 642.204 280.983L628.204 280.983C628.204 269.686 628.924 259.289 630.394 249.815L644.229 251.961ZM649.773 230.814C647.563 236.273 645.683 243.31 644.215 252.048L630.408 249.728C631.984 240.352 634.086 232.256 636.795 225.562L649.773 230.814ZM657.674 216.558C654.551 220.736 651.914 225.469 649.782 230.791L636.786 225.585C639.338 219.214 642.556 213.399 646.46 208.176L657.674 216.558ZM666.513 207.391C663.744 209.379 660.786 212.356 657.692 216.533L646.442 208.201C650.14 203.206 654.091 199.075 658.349 196.019L666.513 207.391ZM676.34 202.056C672.685 203.447 669.452 205.21 666.605 207.325L658.257 196.085C662.203 193.155 666.582 190.791 671.358 188.972L676.34 202.056ZM685.709 199.351C683.134 199.711 680.066 200.555 676.466 202.006L671.232 189.022C675.596 187.263 679.788 186.043 683.77 185.486L685.709 199.351ZM694.753 198.731C691.672 198.731 688.659 198.939 685.709 199.351L683.77 185.486C687.379 184.981 691.04 184.731 694.753 184.731L694.753 198.731ZM699.495 198.731L694.753 198.731L694.753 184.731L699.495 184.731L699.495 198.731ZM708.538 199.351C705.589 198.939 702.575 198.731 699.495 198.731L699.495 184.731C703.208 184.731 706.869 184.981 710.478 185.486L708.538 199.351ZM717.782 202.006C714.182 200.555 711.114 199.711 708.538 199.351L710.478 185.486C714.46 186.043 718.652 187.263 723.016 189.022L717.782 202.006ZM727.559 207.391C724.497 205.193 721.241 203.401 717.782 202.006L723.016 189.022C727.521 190.837 731.759 193.173 735.724 196.019L727.559 207.391ZM736.204 216.533C733.085 212.321 730.156 209.322 727.468 207.325L735.815 196.085C739.918 199.133 743.782 203.241 747.455 208.201L736.204 216.533ZM743.905 230.878C741.759 225.308 739.177 220.547 736.204 216.533L747.455 208.201C751.274 213.359 754.431 219.26 756.969 225.843L743.905 230.878ZM749.333 252.063C747.861 243.415 746.029 236.388 743.905 230.878L756.969 225.843C759.529 232.485 761.562 240.476 763.134 249.713L749.333 252.063ZM751.342 280.983C751.342 270.267 750.657 260.601 749.317 251.961L763.151 249.815C764.621 259.289 765.342 269.686 765.342 280.983L751.342 280.983ZM751.342 353.812L751.342 280.983L765.342 280.983L765.342 353.812L751.342 353.812ZM751.342 395L751.342 353.812L765.342 353.812L765.342 395L751.342 395ZM758.342 402L729.533 402L729.533 388L758.342 388L758.342 402ZM736.533 280.467L736.533 395L722.533 395L722.533 280.467L736.533 280.467ZM734.459 261.525C735.607 267.141 736.284 273.383 736.529 280.216L722.538 280.718C722.314 274.481 721.703 269.029 720.743 264.327L734.459 261.525ZM728.614 244.716C731.073 249.106 732.956 254.774 734.433 261.403L720.769 264.449C719.436 258.467 717.922 254.275 716.4 251.558L728.614 244.716ZM719.575 233.788C723.224 236.788 726.23 240.459 728.614 244.716L716.4 251.558C714.802 248.706 712.89 246.415 710.683 244.601L719.575 233.788ZM709.129 227.925C712.713 229.145 716.141 231.122 719.417 233.661L710.841 244.727C708.496 242.91 706.42 241.792 704.617 241.177L709.129 227.925ZM698.705 226.352C702.198 226.484 705.533 226.948 708.679 227.788L705.067 241.314C703.06 240.778 700.774 240.44 698.178 240.342L698.705 226.352ZM696.158 226.347L698.441 226.347L698.441 240.347L696.158 240.347L696.158 226.347ZM682.533 229.139C686.895 227.288 691.454 226.347 696.158 226.347L696.158 240.347C693.367 240.347 690.665 240.897 688.001 242.027L682.533 229.139ZM670.018 238.142C673.877 234.103 678.067 230.947 682.639 229.095L687.895 242.071C685.675 242.97 683.072 244.744 680.139 247.814L670.018 238.142ZM660.405 257.186C662.443 249.457 665.496 242.873 670.018 238.142L680.139 247.814C677.868 250.19 675.652 254.268 673.943 260.755L660.405 257.186ZM657.19 280.964C657.435 271.965 658.481 263.963 660.44 257.06L673.908 260.881C672.353 266.361 671.408 273.147 671.185 281.345L657.19 280.964ZM657.188 395L657.188 281.155L671.188 281.155L671.188 395L657.188 395ZM664.188 402L635.204 402L635.204 388L664.188 388L664.188 402Z" fill="#FD39C3" mask="url(#path-21-inside-11_215_2491)"/>
</svg>
