<svg width="759" height="395" viewBox="0 0 759 395" fill="none" xmlns="http://www.w3.org/2000/svg">
<mask id="path-1-inside-1_215_2546" fill="white">
<path fill-rule="evenodd" clip-rule="evenodd" d="M758.342 -0.00021687L758.342 117.008C758.342 128.303 757.621 138.598 756.178 147.893C754.616 157.187 752.573 164.952 750.049 171.188C747.646 177.188 744.641 182.6 741.036 187.424C737.551 192.13 734.005 195.778 730.4 198.366C726.915 200.955 723.009 203.072 718.682 204.719C714.596 206.367 710.871 207.425 707.506 207.896C704.141 208.367 700.716 208.602 697.23 208.602L692.363 208.602C688.878 208.602 685.453 208.367 682.088 207.896C678.723 207.425 674.997 206.367 670.911 204.719C666.825 203.072 662.979 200.955 659.374 198.366C655.889 195.778 652.403 192.13 648.918 187.424C645.433 182.718 642.489 177.247 640.085 171.012C637.682 164.776 635.699 157.07 634.136 147.893C632.694 138.598 631.973 128.303 631.973 117.008L631.973 42.2687L631.973 -0.000244141L661.537 -0.000237761L661.537 117.538C661.778 124.244 662.438 130.244 663.52 135.539C664.962 142.01 666.705 147.069 668.748 150.716C670.791 154.364 673.315 157.423 676.319 159.893C679.204 162.129 682.028 163.717 684.792 164.658C687.436 165.364 690.32 165.776 693.445 165.894L695.788 165.894C699.634 165.894 703.36 165.129 706.965 163.599C710.45 162.188 713.935 159.658 717.421 156.011C720.906 152.363 723.61 146.893 725.533 139.598C727.335 133.245 728.357 125.656 728.597 116.832L728.597 -0.000223289L758.342 -0.00021687Z"/>
</mask>
<path d="M758.342 -0.00021687L758.342 -7.00022L765.342 -7.00022L765.342 -0.000215359L758.342 -0.00021687ZM756.178 147.893L763.096 148.966L763.089 149.009L763.082 149.053L756.178 147.893ZM750.049 171.188L743.551 168.585L743.556 168.573L743.561 168.562L750.049 171.188ZM741.036 187.424L735.41 183.258L735.42 183.246L735.429 183.234L741.036 187.424ZM730.4 198.366L726.226 192.746L726.272 192.713L726.318 192.68L730.4 198.366ZM718.682 204.719L716.065 198.227L716.128 198.202L716.192 198.178L718.682 204.719ZM707.506 207.896L708.475 214.829L708.475 214.829L707.506 207.896ZM682.088 207.896L681.118 214.829L681.118 214.829L682.088 207.896ZM670.911 204.719L668.294 211.212L668.294 211.212L670.911 204.719ZM659.374 198.366L655.292 204.052L655.246 204.019L655.2 203.986L659.374 198.366ZM648.918 187.424L643.293 191.59L643.293 191.59L648.918 187.424ZM640.085 171.012L646.617 168.494L646.617 168.494L640.085 171.012ZM634.136 147.893L627.236 149.067L627.227 149.017L627.219 148.966L634.136 147.893ZM631.973 -0.000244141L624.973 -0.000245651L624.973 -7.00025L631.973 -7.00024L631.973 -0.000244141ZM661.537 -0.000237761L661.537 -7.00024L668.537 -7.00024L668.537 -0.00023625L661.537 -0.000237761ZM661.537 117.538L654.542 117.789L654.537 117.663L654.537 117.538L661.537 117.538ZM663.52 135.539L656.688 137.062L656.674 137.001L656.662 136.94L663.52 135.539ZM668.748 150.716L662.641 154.137L662.641 154.137L668.748 150.716ZM676.319 159.893L672.031 165.426L671.951 165.364L671.873 165.3L676.319 159.893ZM684.792 164.658L682.986 171.421L682.759 171.361L682.535 171.285L684.792 164.658ZM693.445 165.894L693.445 172.894L693.313 172.894L693.181 172.889L693.445 165.894ZM706.965 163.599L704.231 157.155L704.284 157.133L704.337 157.112L706.965 163.599ZM725.533 139.598L718.764 137.814L718.781 137.75L718.799 137.687L725.533 139.598ZM728.597 116.832L735.597 116.832L735.597 116.927L735.595 117.023L728.597 116.832ZM728.597 -0.000223289L721.597 -0.0002248L721.597 -7.00022L728.597 -7.00022L728.597 -0.000223289ZM751.342 117.008L751.342 -0.000218381L765.342 -0.000215359L765.342 117.008L751.342 117.008ZM749.261 146.819C750.639 137.942 751.342 128.013 751.342 117.008L765.342 117.008C765.342 128.594 764.603 139.254 763.096 148.966L749.261 146.819ZM743.561 168.562C745.834 162.944 747.767 155.708 749.275 146.732L763.082 149.053C761.466 158.666 759.312 166.961 756.538 173.814L743.561 168.562ZM735.429 183.234C738.644 178.932 741.358 174.061 743.551 168.585L756.547 173.791C753.934 180.316 750.639 186.269 746.643 191.615L735.429 183.234ZM726.318 192.68C729.179 190.626 732.228 187.556 735.41 183.258L746.661 191.59C742.873 196.705 738.832 200.93 734.482 204.052L726.318 192.68ZM716.192 198.178C719.957 196.744 723.29 194.927 726.226 192.746L734.574 203.986C730.539 206.982 726.06 209.401 721.173 211.261L716.192 198.178ZM706.536 200.964C709.198 200.591 712.361 199.72 716.065 198.227L721.3 211.212C716.831 213.013 712.543 214.26 708.475 214.829L706.536 200.964ZM697.23 201.602C700.4 201.602 703.501 201.388 706.536 200.964L708.475 214.829C704.781 215.345 701.032 215.602 697.23 215.602L697.23 201.602ZM692.363 201.602L697.23 201.602L697.23 215.602L692.363 215.602L692.363 201.602ZM683.057 200.964C686.093 201.388 689.194 201.602 692.363 201.602L692.363 215.602C688.562 215.602 684.813 215.345 681.118 214.829L683.057 200.964ZM673.528 198.227C677.232 199.72 680.395 200.591 683.057 200.964L681.118 214.829C677.05 214.26 672.762 213.013 668.294 211.212L673.528 198.227ZM663.456 192.68C666.611 194.944 669.965 196.791 673.528 198.227L668.294 211.212C663.685 209.354 659.348 206.965 655.292 204.052L663.456 192.68ZM654.544 183.258C657.752 187.591 660.77 190.683 663.548 192.746L655.2 203.986C651.008 200.872 647.055 196.67 643.293 191.59L654.544 183.258ZM646.617 168.494C648.825 174.223 651.482 179.124 654.544 183.258L643.293 191.59C639.384 186.312 636.152 180.271 633.554 173.529L646.617 168.494ZM641.037 146.718C642.549 155.6 644.431 162.824 646.617 168.494L633.554 173.529C630.932 166.727 628.848 158.539 627.236 149.067L641.037 146.718ZM638.973 117.008C638.973 128.013 639.676 137.942 641.053 146.819L627.219 148.966C625.712 139.254 624.973 128.594 624.973 117.008L638.973 117.008ZM638.973 42.2687L638.973 117.008L624.973 117.008L624.973 42.2687L638.973 42.2687ZM638.973 -0.00024263L638.973 42.2687L624.973 42.2687L624.973 -0.000245651L638.973 -0.00024263ZM631.973 -7.00024L661.537 -7.00024L661.537 6.99976L631.973 6.99976L631.973 -7.00024ZM654.537 117.538L654.537 -0.000239271L668.537 -0.00023625L668.537 117.538L654.537 117.538ZM656.662 136.94C655.487 131.189 654.793 124.793 654.542 117.789L668.533 117.287C668.762 123.695 669.39 129.3 670.378 134.138L656.662 136.94ZM662.641 154.137C660.129 149.653 658.202 143.857 656.688 137.062L670.352 134.016C671.722 140.163 673.281 144.485 674.855 147.295L662.641 154.137ZM671.873 165.3C668.147 162.236 665.077 158.487 662.641 154.137L674.855 147.295C676.505 150.24 678.482 152.609 680.765 154.487L671.873 165.3ZM682.535 171.285C678.881 170.04 675.381 168.022 672.031 165.426L680.607 154.36C683.026 156.235 685.174 157.394 687.048 158.032L682.535 171.285ZM693.181 172.889C689.608 172.754 686.199 172.279 682.986 171.421L686.598 157.895C688.672 158.449 691.032 158.798 693.708 158.899L693.181 172.889ZM695.788 172.894L693.445 172.894L693.445 158.894L695.788 158.894L695.788 172.894ZM709.699 170.043C705.245 171.933 700.591 172.894 695.788 172.894L695.788 158.894C698.677 158.894 701.474 158.325 704.231 157.155L709.699 170.043ZM722.482 160.847C718.533 164.979 714.254 168.199 709.593 170.087L704.337 157.112C706.646 156.176 709.338 154.337 712.36 151.175L722.482 160.847ZM732.301 141.382C730.215 149.298 727.092 156.022 722.482 160.847L712.36 151.175C714.72 148.705 717.005 144.487 718.764 137.814L732.301 141.382ZM735.595 117.023C735.343 126.247 734.272 134.444 732.267 141.509L718.799 137.687C720.399 132.046 721.37 125.065 721.6 116.641L735.595 117.023ZM735.597 -0.000221778L735.597 116.832L721.597 116.832L721.597 -0.0002248L735.597 -0.000221778ZM728.597 -7.00022L758.342 -7.00022L758.342 6.99978L728.597 6.99978L728.597 -7.00022Z" fill="#FD39C3" mask="url(#path-1-inside-1_215_2546)"/>
<mask id="path-3-inside-2_215_2546" fill="white">
<path fill-rule="evenodd" clip-rule="evenodd" d="M758.336 218.904L758.336 231.761C758.336 243.056 757.615 253.35 756.173 262.645C754.611 271.94 752.568 279.705 750.044 285.941C747.64 291.941 744.636 297.353 741.03 302.177C737.545 306.883 734 310.53 730.395 313.119C726.909 315.707 723.004 317.825 718.677 319.472C714.591 321.119 710.865 322.178 707.5 322.649C704.135 323.119 700.71 323.354 697.225 323.354L692.358 323.354C688.873 323.354 685.447 323.119 682.082 322.649C678.717 322.178 674.992 321.119 670.906 319.472C666.82 317.825 662.974 315.707 659.369 313.119C655.883 310.53 652.398 306.883 648.913 302.177C645.428 297.471 642.483 292 640.08 285.764C637.676 279.528 635.693 271.822 634.131 262.645C632.689 253.35 631.968 243.056 631.968 231.761L631.968 218.904L661.532 218.904L661.532 232.29C661.772 238.997 662.433 244.997 663.515 250.291C664.957 256.762 666.7 261.821 668.743 265.469C670.786 269.116 673.309 272.175 676.314 274.646C679.198 276.881 682.022 278.469 684.787 279.411C687.43 280.117 690.315 280.528 693.439 280.646L695.783 280.646C699.629 280.646 703.354 279.881 706.96 278.352C710.445 276.94 713.93 274.41 717.415 270.763C720.9 267.116 723.604 261.645 725.527 254.35C727.33 247.997 728.352 240.408 728.592 231.584L728.592 218.904L758.336 218.904Z"/>
</mask>
<path d="M758.336 218.904L758.336 211.904L765.336 211.904L765.336 218.904L758.336 218.904ZM756.173 262.645L763.09 263.718L763.084 263.762L763.076 263.805L756.173 262.645ZM750.044 285.941L743.546 283.338L743.551 283.326L743.555 283.314L750.044 285.941ZM741.03 302.177L735.405 298.011L735.414 297.998L735.424 297.986L741.03 302.177ZM730.395 313.119L726.221 307.499L726.266 307.465L726.312 307.432L730.395 313.119ZM718.677 319.472L716.06 312.98L716.123 312.954L716.186 312.93L718.677 319.472ZM707.5 322.649L708.47 329.581L708.47 329.581L707.5 322.649ZM682.082 322.649L681.113 329.581L681.113 329.581L682.082 322.649ZM670.906 319.472L673.523 312.98L670.906 319.472ZM659.369 313.119L655.286 318.805L655.24 318.772L655.195 318.738L659.369 313.119ZM648.913 302.177L654.538 298.011L654.538 298.011L648.913 302.177ZM640.08 285.764L646.611 283.246L646.611 283.246L640.08 285.764ZM634.131 262.645L627.23 263.82L627.222 263.769L627.214 263.718L634.131 262.645ZM631.968 231.761L638.968 231.761L631.968 231.761ZM631.968 218.904L624.968 218.904L624.968 211.904L631.968 211.904L631.968 218.904ZM661.532 218.904L661.532 211.904L668.532 211.904L668.532 218.904L661.532 218.904ZM661.532 232.29L654.536 232.541L654.532 232.416L654.532 232.29L661.532 232.29ZM663.515 250.291L656.682 251.814L656.669 251.753L656.656 251.692L663.515 250.291ZM676.314 274.646L672.026 280.179L671.946 280.117L671.868 280.052L676.314 274.646ZM684.787 279.411L682.981 286.174L682.753 286.113L682.53 286.037L684.787 279.411ZM693.439 280.646L693.439 287.646L693.308 287.646L693.176 287.641L693.439 280.646ZM695.783 280.646L695.783 287.646L695.783 280.646ZM706.96 278.352L704.226 271.908L704.278 271.885L704.331 271.864L706.96 278.352ZM717.415 270.763L712.354 265.927L712.354 265.927L717.415 270.763ZM725.527 254.35L718.759 252.566L718.775 252.503L718.793 252.44L725.527 254.35ZM728.592 231.584L735.592 231.584L735.592 231.68L735.589 231.775L728.592 231.584ZM728.592 218.904L721.592 218.904L721.592 211.904L728.592 211.904L728.592 218.904ZM765.336 218.904L765.336 231.761L751.336 231.761L751.336 218.904L765.336 218.904ZM765.336 231.761C765.336 243.346 764.597 254.006 763.09 263.718L749.256 261.572C750.633 252.694 751.336 242.765 751.336 231.761L765.336 231.761ZM763.076 263.805C761.46 273.419 759.307 281.713 756.533 288.567L743.555 283.314C745.829 277.697 747.761 270.461 749.27 261.485L763.076 263.805ZM756.542 288.543C753.928 295.068 750.633 301.021 746.637 306.367L735.424 297.986C738.638 293.685 741.352 288.813 743.546 283.338L756.542 288.543ZM746.656 306.343C742.868 311.458 738.827 315.682 734.477 318.805L726.312 307.432C729.173 305.378 732.223 302.308 735.405 298.011L746.656 306.343ZM734.568 318.738C730.534 321.734 726.055 324.153 721.168 326.014L716.186 312.93C719.952 311.496 723.285 309.679 726.221 307.499L734.568 318.738ZM721.294 325.964C716.826 327.765 712.538 329.012 708.47 329.581L706.531 315.716C709.193 315.344 712.356 314.473 716.06 312.98L721.294 325.964ZM708.47 329.581C704.776 330.098 701.026 330.354 697.225 330.354L697.225 316.354C700.394 316.354 703.495 316.141 706.531 315.716L708.47 329.581ZM697.225 330.354L692.358 330.354L692.358 316.354L697.225 316.354L697.225 330.354ZM692.358 330.354C688.557 330.354 684.807 330.098 681.113 329.581L683.052 315.716C686.088 316.141 689.189 316.354 692.358 316.354L692.358 330.354ZM681.113 329.581C677.045 329.012 672.757 327.765 668.289 325.964L673.523 312.98C677.227 314.473 680.39 315.344 683.052 315.716L681.113 329.581ZM668.289 325.964C663.68 324.106 659.343 321.717 655.286 318.805L663.451 307.432C666.605 309.697 669.96 311.543 673.523 312.98L668.289 325.964ZM655.195 318.738C651.002 315.625 647.05 311.423 643.288 306.343L654.538 298.011C657.747 302.343 660.764 305.436 663.542 307.499L655.195 318.738ZM643.288 306.343C639.379 301.065 636.147 295.024 633.548 288.282L646.611 283.246C648.82 288.975 651.476 293.876 654.538 298.011L643.288 306.343ZM633.548 288.282C630.926 281.48 628.843 273.291 627.23 263.82L641.032 261.47C642.544 270.353 644.426 277.577 646.611 283.246L633.548 288.282ZM627.214 263.718C625.707 254.006 624.968 243.346 624.968 231.761L638.968 231.761C638.968 242.765 639.671 252.694 641.048 261.572L627.214 263.718ZM624.968 231.761L624.968 218.904L638.968 218.904L638.968 231.761L624.968 231.761ZM631.968 211.904L661.532 211.904L661.532 225.904L631.968 225.904L631.968 211.904ZM668.532 218.904L668.532 232.29L654.532 232.29L654.532 218.904L668.532 218.904ZM668.527 232.04C668.757 238.448 669.385 244.053 670.373 248.89L656.656 251.692C655.481 245.941 654.787 239.545 654.536 232.541L668.527 232.04ZM670.347 248.769C671.717 254.915 673.275 259.237 674.85 262.048L662.635 268.89C660.124 264.406 658.197 258.609 656.682 251.814L670.347 248.769ZM674.85 262.048C676.499 264.993 678.477 267.361 680.76 269.239L671.868 280.052C668.142 276.989 665.072 273.239 662.635 268.89L674.85 262.048ZM680.602 269.113C683.021 270.987 685.169 272.146 687.043 272.784L682.53 286.037C678.876 284.793 675.376 282.775 672.026 280.179L680.602 269.113ZM686.592 272.648C688.667 273.202 691.027 273.55 693.703 273.651L693.176 287.641C689.603 287.507 686.194 287.032 682.981 286.174L686.592 272.648ZM693.439 273.646L695.783 273.646L695.783 287.646L693.439 287.646L693.439 273.646ZM695.783 273.646C698.672 273.646 701.469 273.077 704.226 271.908L709.693 284.796C705.24 286.685 700.586 287.646 695.783 287.646L695.783 273.646ZM704.331 271.864C706.641 270.928 709.332 269.09 712.354 265.927L722.476 275.599C718.528 279.731 714.249 282.952 709.588 284.84L704.331 271.864ZM712.354 265.927C714.714 263.457 717 259.239 718.759 252.566L732.296 256.135C730.209 264.051 727.086 270.774 722.476 275.599L712.354 265.927ZM718.793 252.44C720.394 246.798 721.365 239.818 721.595 231.394L735.589 231.775C735.338 240.999 734.266 249.196 732.262 256.261L718.793 252.44ZM721.592 231.584L721.592 218.904L735.592 218.904L735.592 231.584L721.592 231.584ZM728.592 211.904L758.336 211.904L758.336 225.904L728.592 225.904L728.592 211.904Z" fill="#41F168" mask="url(#path-3-inside-2_215_2546)"/>
<mask id="path-5-inside-3_215_2546" fill="white">
<path fill-rule="evenodd" clip-rule="evenodd" d="M758.341 332.953C758.275 333.401 758.208 333.847 758.139 334.29C756.577 343.585 754.534 351.35 752.01 357.586C749.606 363.586 746.602 368.998 742.997 373.822C739.511 378.528 735.966 382.176 732.361 384.764C728.875 387.352 724.97 389.47 720.643 391.117C716.557 392.764 712.831 393.823 709.466 394.294C706.101 394.765 702.676 395 699.191 395L694.324 395C690.839 395 687.414 394.765 684.048 394.294C680.683 393.823 676.958 392.764 672.872 391.117C668.786 389.47 664.94 387.352 661.335 384.764C657.849 382.176 654.364 378.528 650.879 373.822C647.394 369.116 644.449 363.645 642.046 357.409C639.642 351.174 637.659 343.467 636.097 334.29C636.028 333.847 635.961 333.401 635.895 332.953L668.748 332.953C669.368 334.5 670.021 335.887 670.709 337.114C672.752 340.761 675.275 343.82 678.28 346.291C681.164 348.527 683.988 350.115 686.753 351.056C689.396 351.762 692.281 352.174 695.405 352.292L697.749 352.292C701.595 352.292 705.32 351.527 708.926 349.997C712.411 348.585 715.896 346.056 719.381 342.409C721.653 340.031 723.592 336.88 725.2 332.953L758.341 332.953Z"/>
</mask>
<path d="M758.341 332.953L758.341 325.953L766.439 325.953L765.267 333.966L758.341 332.953ZM758.139 334.29L765.056 335.364L765.05 335.407L765.042 335.451L758.139 334.29ZM752.01 357.586L745.512 354.983L745.517 354.971L745.521 354.96L752.01 357.586ZM742.997 373.822L737.371 369.656L737.38 369.644L737.39 369.631L742.997 373.822ZM732.361 384.764L728.187 379.144L728.232 379.111L728.278 379.078L732.361 384.764ZM720.643 391.117L718.026 384.625L718.089 384.6L718.153 384.575L720.643 391.117ZM709.466 394.294L710.436 401.227L710.436 401.227L709.466 394.294ZM699.191 395L699.191 388L699.191 395ZM694.324 395L694.324 402L694.324 395ZM684.048 394.294L683.079 401.227L683.079 401.227L684.048 394.294ZM672.872 391.117L675.489 384.625L672.872 391.117ZM661.335 384.764L657.252 390.45L657.206 390.417L657.161 390.384L661.335 384.764ZM650.879 373.822L656.504 369.656L656.504 369.656L650.879 373.822ZM642.046 357.409L648.577 354.892L648.577 354.892L642.046 357.409ZM636.097 334.29L629.196 335.465L629.188 335.415L629.18 335.364L636.097 334.29ZM635.895 332.953L628.969 333.966L627.797 325.953L635.895 325.953L635.895 332.953ZM668.748 332.953L668.748 325.953L673.486 325.953L675.247 330.351L668.748 332.953ZM670.709 337.114L676.816 333.693L676.816 333.693L670.709 337.114ZM678.28 346.291L673.992 351.824L673.912 351.762L673.834 351.698L678.28 346.291ZM686.753 351.056L684.947 357.819L684.719 357.758L684.496 357.683L686.753 351.056ZM695.405 352.292L695.405 359.292L695.274 359.292L695.142 359.287L695.405 352.292ZM708.926 349.997L706.192 343.553L706.244 343.531L706.297 343.509L708.926 349.997ZM719.381 342.409L714.32 337.573L714.32 337.573L719.381 342.409ZM725.2 332.953L718.722 330.3L720.503 325.953L725.2 325.953L725.2 332.953ZM765.267 333.966C765.199 334.434 765.128 334.9 765.056 335.364L751.222 333.217C751.288 332.794 751.352 332.368 751.414 331.94L765.267 333.966ZM765.042 335.451C763.426 345.064 761.273 353.359 758.499 360.212L745.521 354.96C747.795 349.342 749.727 342.106 751.236 333.13L765.042 335.451ZM758.508 360.189C755.894 366.714 752.599 372.667 748.603 378.013L737.39 369.631C740.604 365.33 743.318 360.459 745.512 354.983L758.508 360.189ZM748.622 377.988C744.834 383.103 740.793 387.328 736.443 390.45L728.278 379.078C731.139 377.024 734.189 373.954 737.371 369.656L748.622 377.988ZM736.534 390.384C732.5 393.38 728.021 395.799 723.134 397.659L718.153 384.575C721.918 383.142 725.251 381.325 728.187 379.144L736.534 390.384ZM723.26 397.61C718.792 399.411 714.504 400.658 710.436 401.227L708.497 387.361C711.159 386.989 714.322 386.118 718.026 384.625L723.26 397.61ZM710.436 401.227C706.742 401.743 702.992 402 699.191 402L699.191 388C702.36 388 705.461 387.786 708.497 387.361L710.436 401.227ZM699.191 402L694.324 402L694.324 388L699.191 388L699.191 402ZM694.324 402C690.523 402 686.773 401.743 683.079 401.227L685.018 387.361C688.054 387.786 691.155 388 694.324 388L694.324 402ZM683.079 401.227C679.011 400.658 674.723 399.411 670.255 397.61L675.489 384.625C679.193 386.118 682.356 386.989 685.018 387.361L683.079 401.227ZM670.255 397.61C665.646 395.752 661.309 393.363 657.252 390.45L665.417 379.078C668.571 381.342 671.926 383.189 675.489 384.625L670.255 397.61ZM657.161 390.384C652.968 387.27 649.016 383.068 645.254 377.988L656.504 369.656C659.713 373.989 662.73 377.081 665.508 379.144L657.161 390.384ZM645.254 377.988C641.345 372.71 638.113 366.669 635.514 359.927L648.577 354.892C650.786 360.621 653.442 365.522 656.504 369.656L645.254 377.988ZM635.514 359.927C632.892 353.125 630.809 344.937 629.196 335.465L642.998 333.116C644.51 341.998 646.392 349.222 648.577 354.892L635.514 359.927ZM629.18 335.364C629.108 334.9 629.038 334.434 628.969 333.966L642.822 331.94C642.884 332.368 642.948 332.794 643.014 333.217L629.18 335.364ZM635.895 325.953L668.748 325.953L668.748 339.953L635.895 339.953L635.895 325.953ZM675.247 330.351C675.773 331.666 676.3 332.773 676.816 333.693L664.601 340.535C663.742 339.001 662.962 337.334 662.25 335.555L675.247 330.351ZM676.816 333.693C678.465 336.638 680.443 339.007 682.726 340.885L673.834 351.698C670.108 348.634 667.038 344.885 664.601 340.535L676.816 333.693ZM682.568 340.758C684.987 342.633 687.135 343.792 689.009 344.43L684.496 357.683C680.842 356.438 677.342 354.42 673.992 351.824L682.568 340.758ZM688.558 344.293C690.633 344.847 692.993 345.196 695.669 345.296L695.142 359.287C691.569 359.152 688.16 358.677 684.947 357.819L688.558 344.293ZM695.405 345.292L697.749 345.292L697.749 359.292L695.405 359.292L695.405 345.292ZM697.749 345.292C700.638 345.292 703.435 344.723 706.192 343.553L711.659 356.441C707.206 358.331 702.552 359.292 697.749 359.292L697.749 345.292ZM706.297 343.509C708.607 342.574 711.298 340.735 714.32 337.573L724.442 347.245C720.494 351.377 716.215 354.597 711.554 356.485L706.297 343.509ZM714.32 337.573C715.84 335.983 717.354 333.641 718.722 330.3L731.678 335.606C729.831 340.118 727.466 344.08 724.442 347.245L714.32 337.573ZM725.2 325.953L758.341 325.953L758.341 339.953L725.2 339.953L725.2 325.953Z" fill="#41F168" mask="url(#path-5-inside-3_215_2546)"/>
<mask id="path-7-inside-4_215_2546" fill="white">
<path fill-rule="evenodd" clip-rule="evenodd" d="M598.967 -0.000217567L598.967 114.017C598.967 125.023 598.265 135.055 596.86 144.112C595.337 153.169 593.346 160.735 590.887 166.812C588.545 172.659 585.617 177.932 582.104 182.633C578.708 187.219 575.253 190.773 571.74 193.295C568.344 195.817 564.538 197.881 560.322 199.486C556.34 201.091 552.71 202.123 549.431 202.581C546.152 203.04 542.815 203.269 539.418 203.269L534.676 203.269C531.28 203.269 527.942 203.04 524.663 202.581C521.384 202.123 517.754 201.091 513.772 199.486C509.79 197.881 506.043 195.817 502.53 193.295C499.134 190.773 495.738 187.219 492.341 182.633C488.945 178.047 486.076 172.716 483.734 166.64C481.392 160.563 479.46 153.054 477.937 144.112C476.532 135.055 475.829 125.023 475.829 114.017L475.829 41.1881L475.829 -0.000244141L504.638 -0.000237924L504.638 114.533C504.872 121.068 505.516 126.915 506.57 132.074C507.975 138.379 509.673 143.309 511.664 146.863C513.655 150.417 516.114 153.398 519.042 155.806C521.852 157.984 524.604 159.532 527.298 160.449C529.874 161.137 532.685 161.538 535.73 161.653L538.013 161.653C541.761 161.653 545.391 160.907 548.904 159.417C552.3 158.041 555.696 155.576 559.092 152.022C562.489 148.468 565.123 143.137 566.997 136.029C568.754 129.838 569.749 122.444 569.983 113.845L569.983 -0.000223822L598.967 -0.000217567Z"/>
</mask>
<path d="M598.967 -0.000217567L598.967 -7.00022L605.967 -7.00022L605.967 -0.000216057L598.967 -0.000217567ZM596.86 144.112L603.777 145.185L603.77 145.229L603.763 145.272L596.86 144.112ZM590.887 166.812L584.389 164.209L584.394 164.197L584.398 164.186L590.887 166.812ZM582.104 182.633L576.479 178.467L576.488 178.455L576.497 178.442L582.104 182.633ZM571.74 193.295L567.566 187.675L567.612 187.642L567.658 187.609L571.74 193.295ZM560.322 199.486L557.705 192.994L557.768 192.968L557.831 192.944L560.322 199.486ZM539.418 203.269L539.418 210.269L539.418 203.269ZM534.676 203.269L534.676 196.269L534.676 203.269ZM513.772 199.486L511.155 205.978L511.155 205.978L513.772 199.486ZM502.53 193.295L498.447 198.981L498.401 198.948L498.356 198.915L502.53 193.295ZM492.341 182.633L486.716 186.799L486.716 186.799L492.341 182.633ZM483.734 166.64L490.266 164.122L490.266 164.122L483.734 166.64ZM477.937 144.112L471.037 145.287L471.028 145.236L471.02 145.185L477.937 144.112ZM475.829 -0.000244141L468.829 -0.000245651L468.829 -7.00025L475.829 -7.00024L475.829 -0.000244141ZM504.638 -0.000237924L504.638 -7.00024L511.638 -7.00024L511.638 -0.000236413L504.638 -0.000237924ZM504.638 114.533L497.642 114.784L497.638 114.658L497.638 114.533L504.638 114.533ZM506.57 132.074L499.738 133.597L499.724 133.536L499.712 133.475L506.57 132.074ZM511.664 146.863L505.557 150.284L505.557 150.284L511.664 146.863ZM519.042 155.806L514.754 161.338L514.674 161.276L514.596 161.212L519.042 155.806ZM527.298 160.449L525.492 167.212L525.265 167.151L525.042 167.075L527.298 160.449ZM535.73 161.653L535.73 168.653L535.598 168.653L535.466 168.648L535.73 161.653ZM548.904 159.417L546.17 152.973L546.223 152.951L546.276 152.929L548.904 159.417ZM559.092 152.022L554.032 147.186L554.032 147.186L559.092 152.022ZM566.997 136.029L560.228 134.245L560.245 134.182L560.263 134.118L566.997 136.029ZM569.983 113.845L576.983 113.845L576.983 113.94L576.981 114.036L569.983 113.845ZM569.983 -0.000223822L562.983 -0.000225333L562.983 -7.00023L569.983 -7.00022L569.983 -0.000223822ZM591.967 114.017L591.967 -0.000219078L605.967 -0.000216057L605.967 114.017L591.967 114.017ZM589.942 143.038C591.283 134.399 591.967 124.733 591.967 114.017L605.967 114.017C605.967 125.314 605.247 135.711 603.777 145.185L589.942 143.038ZM584.398 164.186C586.608 158.727 588.488 151.69 589.956 142.951L603.763 145.272C602.187 154.648 600.085 162.744 597.376 169.438L584.398 164.186ZM576.497 178.442C579.62 174.264 582.257 169.531 584.389 164.209L597.385 169.415C594.833 175.786 591.615 181.601 587.711 186.824L576.497 178.442ZM567.658 187.609C570.427 185.621 573.385 182.644 576.479 178.467L587.729 186.799C584.031 191.793 580.08 195.925 575.822 198.981L567.658 187.609ZM557.831 192.944C561.486 191.552 564.719 189.79 567.566 187.675L575.914 198.915C571.968 201.845 567.589 204.209 562.813 206.028L557.831 192.944ZM548.462 195.649C551.037 195.288 554.105 194.445 557.705 192.994L562.939 205.978C558.576 207.737 554.383 208.957 550.401 209.514L548.462 195.649ZM539.418 196.269C542.499 196.269 545.512 196.061 548.462 195.649L550.401 209.514C546.792 210.018 543.131 210.269 539.418 210.269L539.418 196.269ZM534.676 196.269L539.418 196.269L539.418 210.269L534.676 210.269L534.676 196.269ZM525.633 195.649C528.582 196.061 531.596 196.269 534.676 196.269L534.676 210.269C530.963 210.269 527.302 210.018 523.693 209.514L525.633 195.649ZM516.389 192.993C519.989 194.445 523.057 195.288 525.633 195.649L523.693 209.514C519.711 208.957 515.519 207.737 511.155 205.978L516.389 192.993ZM506.612 187.609C509.674 189.807 512.93 191.599 516.389 192.994L511.155 205.978C506.65 204.162 502.412 201.827 498.447 198.981L506.612 187.609ZM497.967 178.467C501.086 182.679 504.015 185.678 506.703 187.675L498.356 198.915C494.253 195.867 490.389 191.758 486.716 186.799L497.967 178.467ZM490.266 164.122C492.413 169.692 494.994 174.453 497.967 178.467L486.716 186.799C482.897 181.641 479.74 175.74 477.202 169.157L490.266 164.122ZM484.838 142.937C486.31 151.585 488.142 158.612 490.266 164.122L477.202 169.157C474.642 162.515 472.609 154.523 471.037 145.287L484.838 142.937ZM482.829 114.017C482.829 124.733 483.514 134.399 484.854 143.038L471.02 145.185C469.55 135.711 468.829 125.314 468.829 114.017L482.829 114.017ZM482.829 41.1881L482.829 114.017L468.829 114.017L468.829 41.1881L482.829 41.1881ZM482.829 -0.00024263L482.829 41.1881L468.829 41.1881L468.829 -0.000245651L482.829 -0.00024263ZM475.829 -7.00024L504.638 -7.00024L504.638 6.99976L475.829 6.99976L475.829 -7.00024ZM497.638 114.533L497.638 -0.000239434L511.638 -0.000236413L511.638 114.533L497.638 114.533ZM499.712 133.475C498.564 127.859 497.887 121.617 497.642 114.784L511.633 114.282C511.857 120.519 512.468 125.97 513.428 130.673L499.712 133.475ZM505.557 150.284C503.098 145.894 501.215 140.226 499.738 133.597L513.402 130.551C514.735 136.533 516.249 140.725 517.771 143.442L505.557 150.284ZM514.596 161.212C510.947 158.212 507.941 154.54 505.557 150.284L517.771 143.442C519.369 146.294 521.281 148.584 523.488 150.399L514.596 161.212ZM525.042 167.075C521.458 165.855 518.03 163.878 514.754 161.338L523.33 150.273C525.675 152.09 527.751 153.208 529.554 153.822L525.042 167.075ZM535.466 168.648C531.973 168.516 528.638 168.052 525.492 167.212L529.104 153.686C531.111 154.222 533.397 154.56 535.993 154.658L535.466 168.648ZM538.013 168.653L535.73 168.653L535.73 154.653L538.013 154.653L538.013 168.653ZM551.638 165.861C547.276 167.711 542.717 168.653 538.013 168.653L538.013 154.653C540.804 154.653 543.506 154.103 546.17 152.973L551.638 165.861ZM564.153 156.858C560.294 160.897 556.104 164.053 551.532 165.905L546.276 152.929C548.496 152.03 551.099 150.256 554.032 147.186L564.153 156.858ZM573.766 137.813C571.728 145.543 568.675 152.127 564.153 156.858L554.032 147.186C556.303 144.81 558.519 140.732 560.228 134.245L573.766 137.813ZM576.981 114.036C576.736 123.034 575.69 131.037 573.731 137.94L560.263 134.118C561.818 128.639 562.763 121.853 562.986 113.655L576.981 114.036ZM576.983 -0.000222311L576.983 113.845L562.983 113.845L562.983 -0.000225333L576.983 -0.000222311ZM569.983 -7.00022L598.967 -7.00022L598.967 6.99978L569.983 6.99978L569.983 -7.00022Z" fill="#FD39C3" mask="url(#path-7-inside-4_215_2546)"/>
<mask id="path-9-inside-5_215_2546" fill="white">
<path fill-rule="evenodd" clip-rule="evenodd" d="M598.962 213.308L598.962 223.578C598.962 232.6 598.217 240.823 596.727 248.248C595.113 255.672 593.003 261.875 590.396 266.856C587.913 271.649 584.809 275.972 581.085 279.825C577.485 283.585 573.823 286.498 570.098 288.566C566.498 290.633 562.464 292.325 557.994 293.641C553.774 294.956 549.925 295.802 546.449 296.178C542.973 296.554 539.435 296.742 535.835 296.742L530.807 296.742C527.207 296.742 523.669 296.554 520.193 296.178C516.717 295.802 512.868 294.956 508.647 293.641C504.427 292.325 500.454 290.633 496.73 288.566C493.13 286.498 489.529 283.585 485.929 279.825C482.329 276.066 479.288 271.696 476.805 266.715C474.322 261.734 472.274 255.578 470.66 248.248C469.17 240.823 468.425 232.6 468.425 223.578L468.425 213.308L498.964 213.308L498.964 224.001C499.213 229.358 499.895 234.151 501.013 238.38C502.502 243.549 504.302 247.59 506.413 250.503C508.523 253.417 511.13 255.86 514.234 257.834C517.213 259.619 520.131 260.888 522.986 261.64C525.717 262.204 528.697 262.533 531.924 262.627L534.345 262.627C538.318 262.627 542.166 262.016 545.89 260.794C549.491 259.666 553.091 257.646 556.691 254.732C560.291 251.819 563.084 247.449 565.071 241.622C566.933 236.547 567.988 230.485 568.236 223.437L568.236 213.308L598.962 213.308ZM530.807 30.8692L530.64 30.8693L535.996 30.8693L535.835 30.8692L530.807 30.8692Z"/>
</mask>
<path d="M598.962 213.308L598.962 206.308L605.962 206.308L605.962 213.308L598.962 213.308ZM596.727 248.248L603.59 249.625L603.579 249.68L603.567 249.735L596.727 248.248ZM590.396 266.856L584.18 263.636L584.187 263.623L584.194 263.61L590.396 266.856ZM581.085 279.825L576.029 274.984L576.041 274.972L576.052 274.961L581.085 279.825ZM570.098 288.566L566.612 282.496L566.656 282.47L566.701 282.446L570.098 288.566ZM557.994 293.641L555.911 286.958L555.964 286.941L556.017 286.926L557.994 293.641ZM546.449 296.178L545.696 289.219L545.696 289.219L546.449 296.178ZM520.193 296.178L520.945 289.219L520.945 289.219L520.193 296.178ZM508.647 293.641L510.731 286.958L510.731 286.958L508.647 293.641ZM496.73 288.566L493.332 294.686L493.288 294.661L493.244 294.636L496.73 288.566ZM485.929 279.825L480.874 284.667L480.874 284.667L485.929 279.825ZM476.805 266.715L483.07 263.592L483.07 263.592L476.805 266.715ZM470.66 248.248L463.823 249.753L463.809 249.689L463.796 249.625L470.66 248.248ZM468.425 213.308L461.425 213.308L461.425 206.308L468.425 206.308L468.425 213.308ZM498.964 213.308L498.964 206.308L505.964 206.308L505.964 213.308L498.964 213.308ZM498.964 224.001L491.972 224.325L491.964 224.163L491.964 224.001L498.964 224.001ZM501.013 238.38L494.286 240.318L494.265 240.243L494.245 240.168L501.013 238.38ZM506.413 250.503L500.744 254.61L500.744 254.61L506.413 250.503ZM514.234 257.834L510.635 263.838L510.556 263.79L510.478 263.741L514.234 257.834ZM522.986 261.64L521.571 268.495L521.386 268.457L521.204 268.409L522.986 261.64ZM531.924 262.627L531.924 269.627L531.822 269.627L531.721 269.624L531.924 262.627ZM534.345 262.627L534.345 255.627L534.345 262.627ZM545.89 260.794L543.708 254.143L543.753 254.128L543.798 254.114L545.89 260.794ZM565.071 241.622L558.445 239.363L558.471 239.287L558.499 239.211L565.071 241.622ZM568.236 223.437L575.236 223.437L575.236 223.56L575.232 223.683L568.236 223.437ZM568.236 213.308L561.236 213.308L561.236 206.308L568.236 206.308L568.236 213.308ZM530.64 30.8693L530.64 37.8693L530.635 23.8693L530.64 30.8693ZM530.807 30.8692L530.802 23.8692L530.807 23.8692L530.807 30.8692ZM535.996 30.8693L536.002 23.8693L535.996 37.8693L535.996 30.8693ZM535.835 30.8692L535.835 23.8692L535.84 23.8692L535.835 30.8692ZM605.962 213.308L605.962 223.578L591.962 223.578L591.962 213.308L605.962 213.308ZM605.962 223.578C605.962 232.977 605.186 241.671 603.59 249.625L589.864 246.871C591.247 239.976 591.962 232.222 591.962 223.578L605.962 223.578ZM603.567 249.735C601.864 257.572 599.577 264.41 596.598 270.102L584.194 263.61C586.429 259.34 588.363 253.772 589.887 246.761L603.567 249.735ZM596.611 270.076C593.819 275.467 590.318 280.345 586.118 284.69L576.052 274.961C579.301 271.599 582.007 267.831 584.18 263.636L596.611 270.076ZM586.141 284.667C582.159 288.825 577.952 292.212 573.496 294.686L566.701 282.446C569.693 280.784 572.811 278.344 576.029 274.984L586.141 284.667ZM573.584 294.636C569.455 297.008 564.904 298.903 559.971 300.356L556.017 286.926C560.023 285.746 563.542 284.259 566.612 282.496L573.584 294.636ZM560.078 300.324C555.531 301.741 551.229 302.702 547.202 303.138L545.696 289.219C548.621 288.902 552.016 288.172 555.911 286.958L560.078 300.324ZM547.202 303.138C543.468 303.541 539.679 303.742 535.835 303.742L535.835 289.742C539.191 289.742 542.478 289.567 545.696 289.219L547.202 303.138ZM535.835 303.742L530.807 303.742L530.807 289.742L535.835 289.742L535.835 303.742ZM530.807 303.742C526.963 303.742 523.173 303.541 519.44 303.138L520.945 289.219C524.164 289.567 527.451 289.742 530.807 289.742L530.807 303.742ZM519.44 303.138C515.413 302.702 511.111 301.741 506.564 300.323L510.731 286.958C514.626 288.172 518.021 288.902 520.945 289.219L519.44 303.138ZM506.564 300.323C501.904 298.871 497.49 296.994 493.332 294.686L500.127 282.446C503.418 284.273 506.949 285.779 510.731 286.958L506.564 300.323ZM493.244 294.636C488.939 292.164 484.824 288.792 480.874 284.667L490.985 274.984C494.235 278.377 497.32 280.832 500.216 282.496L493.244 294.636ZM480.874 284.667C476.754 280.365 473.315 275.406 470.54 269.838L483.07 263.592C485.26 267.986 487.905 271.767 490.985 274.984L480.874 284.667ZM470.54 269.838C467.73 264.2 465.521 257.463 463.823 249.753L477.496 246.743C479.026 253.693 480.914 259.268 483.07 263.592L470.54 269.838ZM463.796 249.625C462.2 241.671 461.425 232.977 461.425 223.578L475.425 223.578C475.425 232.222 476.139 239.976 477.523 246.871L463.796 249.625ZM461.425 223.578L461.425 213.308L475.425 213.308L475.425 223.578L461.425 223.578ZM468.425 206.308L498.964 206.308L498.964 220.308L468.425 220.308L468.425 206.308ZM505.964 213.308L505.964 224.001L491.964 224.001L491.964 213.308L505.964 213.308ZM505.957 223.676C506.187 228.645 506.814 232.934 507.781 236.592L494.245 240.168C492.977 235.367 492.238 230.07 491.972 224.325L505.957 223.676ZM507.739 236.441C509.104 241.179 510.62 244.379 512.082 246.397L500.744 254.61C497.985 250.8 495.9 245.918 494.286 240.318L507.739 236.441ZM512.082 246.397C513.662 248.579 515.615 250.417 517.99 251.927L510.478 263.741C506.646 261.304 503.384 258.255 500.744 254.61L512.082 246.397ZM517.832 251.83C520.343 253.334 522.652 254.314 524.769 254.871L521.204 268.409C517.609 267.463 514.084 265.905 510.635 263.838L517.832 251.83ZM524.401 254.785C526.677 255.254 529.245 255.546 532.128 255.63L531.721 269.624C528.148 269.52 524.757 269.153 521.571 268.495L524.401 254.785ZM531.924 255.627L534.345 255.627L534.345 269.627L531.924 269.627L531.924 255.627ZM534.345 255.627C537.587 255.627 540.698 255.131 543.708 254.143L548.072 267.445C543.634 268.901 539.049 269.627 534.345 269.627L534.345 255.627ZM543.798 254.114C546.389 253.303 549.222 251.772 552.287 249.291L561.094 260.174C556.96 263.52 552.592 266.03 547.983 267.474L543.798 254.114ZM552.287 249.291C554.576 247.439 556.748 244.342 558.445 239.363L571.696 243.881C569.421 250.555 566.007 256.199 561.094 260.174L552.287 249.291ZM558.499 239.211C560.042 235.005 561.011 229.712 561.241 223.19L575.232 223.683C574.965 231.259 573.823 238.089 571.642 244.033L558.499 239.211ZM561.236 223.437L561.236 213.308L575.236 213.308L575.236 223.437L561.236 223.437ZM568.236 206.308L598.962 206.308L598.962 220.308L568.236 220.308L568.236 206.308ZM530.635 23.8693L530.802 23.8692L530.812 37.8692L530.646 37.8693L530.635 23.8693ZM535.996 37.8693L530.64 37.8693L530.64 23.8693L535.996 23.8693L535.996 37.8693ZM535.84 23.8692L536.002 23.8693L535.991 37.8693L535.829 37.8692L535.84 23.8692ZM530.807 23.8692L535.835 23.8692L535.835 37.8692L530.807 37.8692L530.807 23.8692Z" fill="#41F168" mask="url(#path-9-inside-5_215_2546)"/>
<mask id="path-11-inside-6_215_2546" fill="white">
<path fill-rule="evenodd" clip-rule="evenodd" d="M598.967 304.409C598.899 304.767 598.83 305.123 598.759 305.478C597.145 312.902 595.034 319.105 592.427 324.086C589.944 328.879 586.841 333.202 583.117 337.055C579.516 340.814 575.854 343.728 572.13 345.795C568.53 347.863 564.495 349.555 560.026 350.87C555.805 352.186 551.957 353.032 548.481 353.408C545.005 353.784 541.467 353.972 537.866 353.972L532.839 353.972C529.238 353.972 525.7 353.784 522.224 353.408C518.748 353.032 514.9 352.186 510.679 350.87C506.458 349.555 502.486 347.863 498.761 345.795C495.161 343.728 491.561 340.814 487.961 337.055C484.361 333.296 481.319 328.926 478.836 323.945C476.353 318.964 474.305 312.808 472.691 305.478C472.62 305.123 472.551 304.767 472.483 304.409L506.419 304.409C507.059 305.645 507.734 306.753 508.444 307.733C510.555 310.646 513.162 313.09 516.266 315.064C519.245 316.849 522.162 318.118 525.018 318.87C527.749 319.434 530.728 319.763 533.956 319.857L536.377 319.857C540.349 319.857 544.198 319.246 547.922 318.024C551.522 316.896 555.122 314.876 558.722 311.962C561.069 310.063 563.073 307.546 564.734 304.409L598.967 304.409Z"/>
</mask>
<path d="M598.967 304.409L598.967 297.409L607.415 297.409L605.845 305.71L598.967 304.409ZM598.759 305.478L605.622 306.855L605.611 306.91L605.599 306.964L598.759 305.478ZM592.427 324.086L586.212 320.866L586.219 320.853L586.225 320.84L592.427 324.086ZM583.117 337.055L578.061 332.214L578.072 332.202L578.083 332.19L583.117 337.055ZM572.13 345.795L568.644 339.725L568.688 339.7L568.732 339.675L572.13 345.795ZM560.026 350.87L557.943 344.188L557.996 344.171L558.049 344.155L560.026 350.87ZM510.679 350.87L512.762 344.188L512.762 344.188L510.679 350.87ZM498.761 345.795L495.364 351.916L495.319 351.891L495.275 351.866L498.761 345.795ZM487.961 337.055L482.905 341.897L482.905 341.897L487.961 337.055ZM478.836 323.945L485.101 320.822L485.101 320.822L478.836 323.945ZM472.691 305.478L465.855 306.983L465.841 306.919L465.828 306.855L472.691 305.478ZM472.483 304.409L465.605 305.71L464.035 297.409L472.483 297.409L472.483 304.409ZM506.419 304.409L506.419 297.409L510.678 297.409L512.636 301.19L506.419 304.409ZM508.444 307.733L514.113 303.627L514.113 303.627L508.444 307.733ZM516.266 315.064L512.667 321.068L512.587 321.02L512.509 320.97L516.266 315.064ZM525.018 318.87L523.602 325.725L523.417 325.687L523.235 325.639L525.018 318.87ZM533.956 319.857L533.956 326.857L533.854 326.857L533.752 326.854L533.956 319.857ZM536.377 319.857L536.377 326.857L536.377 319.857ZM547.922 318.024L545.74 311.373L545.785 311.358L545.829 311.344L547.922 318.024ZM558.722 311.962L554.319 306.521L554.319 306.521L558.722 311.962ZM564.734 304.409L558.547 301.133L560.519 297.409L564.734 297.409L564.734 304.409ZM605.845 305.71C605.772 306.093 605.698 306.475 605.622 306.855L591.895 304.1C591.961 303.772 592.026 303.441 592.089 303.108L605.845 305.71ZM605.599 306.964C603.895 314.802 601.608 321.64 598.629 327.332L586.225 320.84C588.46 316.57 590.394 311.002 591.918 303.991L605.599 306.964ZM598.643 327.306C595.85 332.697 592.349 337.575 588.15 341.92L578.083 332.19C581.332 328.829 584.039 325.061 586.212 320.866L598.643 327.306ZM588.172 341.897C584.19 346.055 579.984 349.442 575.528 351.916L568.732 339.675C571.725 338.014 574.843 335.574 578.061 332.214L588.172 341.897ZM575.616 351.866C571.486 354.237 566.936 356.133 562.003 357.586L558.049 344.155C562.055 342.976 565.573 341.489 568.644 339.725L575.616 351.866ZM562.109 357.553C557.563 358.971 553.261 359.932 549.233 360.367L547.728 346.449C550.653 346.132 554.047 345.402 557.943 344.188L562.109 357.553ZM549.233 360.367C545.5 360.771 541.711 360.972 537.866 360.972L537.866 346.972C541.223 346.972 544.509 346.797 547.728 346.449L549.233 360.367ZM537.866 360.972L532.839 360.972L532.839 346.972L537.866 346.972L537.866 360.972ZM532.839 360.972C528.994 360.972 525.205 360.771 521.472 360.367L522.977 346.449C526.196 346.797 529.482 346.972 532.839 346.972L532.839 360.972ZM521.472 360.367C517.444 359.932 513.142 358.971 508.596 357.553L512.762 344.188C516.658 345.402 520.052 346.132 522.977 346.449L521.472 360.367ZM508.596 357.553C503.936 356.101 499.521 354.224 495.364 351.916L502.159 339.675C505.45 341.502 508.98 343.009 512.762 344.188L508.596 357.553ZM495.275 351.866C490.971 349.394 486.856 346.022 482.905 341.897L493.016 332.214C496.266 335.607 499.351 338.062 502.247 339.725L495.275 351.866ZM482.905 341.897C478.785 337.595 475.347 332.636 472.572 327.068L485.101 320.822C487.291 325.216 489.936 328.997 493.016 332.214L482.905 341.897ZM472.572 327.068C469.761 321.43 467.552 314.693 465.855 306.983L479.528 303.972C481.058 310.923 482.946 316.498 485.101 320.822L472.572 327.068ZM465.828 306.855C465.752 306.475 465.677 306.093 465.605 305.71L479.361 303.108C479.424 303.441 479.488 303.772 479.554 304.1L465.828 306.855ZM472.483 297.409L506.419 297.409L506.419 311.409L472.483 311.409L472.483 297.409ZM512.636 301.19C513.139 302.162 513.635 302.966 514.113 303.627L502.776 311.84C501.834 310.539 500.98 309.128 500.203 307.628L512.636 301.19ZM514.113 303.627C515.694 305.808 517.647 307.646 520.022 309.157L512.509 320.97C508.677 318.534 505.416 315.485 502.776 311.84L514.113 303.627ZM519.864 309.059C522.374 310.564 524.684 311.543 526.8 312.101L523.235 325.639C519.641 324.693 516.116 323.135 512.667 321.068L519.864 309.059ZM526.433 312.014C528.709 312.484 531.277 312.776 534.16 312.86L533.752 326.854C530.179 326.75 526.789 326.383 523.602 325.725L526.433 312.014ZM533.956 312.857L536.377 312.857L536.377 326.857L533.956 326.857L533.956 312.857ZM536.377 312.857C539.618 312.857 542.73 312.36 545.74 311.373L550.104 324.675C545.666 326.131 541.08 326.857 536.377 326.857L536.377 312.857ZM545.829 311.344C548.421 310.532 551.253 309.002 554.319 306.521L563.126 317.404C558.992 320.749 554.624 323.26 550.015 324.704L545.829 311.344ZM554.319 306.521C555.814 305.311 557.252 303.58 558.547 301.133L570.92 307.685C568.893 311.511 566.324 314.816 563.126 317.404L554.319 306.521ZM564.734 297.409L598.967 297.409L598.967 311.409L564.734 311.409L564.734 297.409Z" fill="#41F168" mask="url(#path-11-inside-6_215_2546)"/>
<mask id="path-13-inside-7_215_2546" fill="white">
<path fill-rule="evenodd" clip-rule="evenodd" d="M435.425 -0.000217567L435.425 114.017C435.425 125.023 434.723 135.055 433.317 144.112C431.795 153.169 429.804 160.735 427.345 166.812C425.003 172.659 422.075 177.932 418.562 182.633C415.166 187.219 411.711 190.773 408.198 193.295C404.802 195.817 400.996 197.881 396.78 199.486C392.798 201.091 389.168 202.123 385.889 202.581C382.61 203.04 379.272 203.269 375.876 203.269L371.133 203.269C367.737 203.269 364.4 203.04 361.121 202.581C357.842 202.123 354.211 201.091 350.23 199.486C346.248 197.881 342.501 195.817 338.987 193.295C335.591 190.773 332.195 187.219 328.799 182.633C325.403 178.047 322.534 172.716 320.192 166.64C317.85 160.563 315.917 153.054 314.395 144.112C312.99 135.055 312.287 125.023 312.287 114.017L312.287 41.1881L312.287 -0.000244141L341.095 -0.000237924L341.095 114.533C341.33 121.068 341.974 126.915 343.028 132.074C344.433 138.379 346.131 143.309 348.122 146.863C350.113 150.417 352.572 153.398 355.5 155.806C358.31 157.984 361.062 159.532 363.756 160.449C366.332 161.137 369.143 161.538 372.187 161.653L374.471 161.653C378.218 161.653 381.849 160.907 385.362 159.417C388.758 158.041 392.154 155.576 395.55 152.022C398.946 148.468 401.581 143.137 403.455 136.029C405.212 129.838 406.207 122.444 406.441 113.845L406.441 -0.000223822L435.425 -0.000217567Z"/>
</mask>
<path d="M435.425 -0.000217567L435.425 -7.00022L442.425 -7.00022L442.425 -0.000216057L435.425 -0.000217567ZM433.317 144.112L440.235 145.185L440.228 145.229L440.22 145.272L433.317 144.112ZM427.345 166.812L420.847 164.209L420.851 164.197L420.856 164.185L427.345 166.812ZM418.562 182.633L412.936 178.467L412.946 178.455L412.955 178.442L418.562 182.633ZM408.198 193.295L404.024 187.675L404.07 187.642L404.115 187.609L408.198 193.295ZM396.78 199.486L394.163 192.994L394.226 192.968L394.289 192.944L396.78 199.486ZM361.121 202.581L362.09 195.649L361.121 202.581ZM350.23 199.486L347.613 205.978L347.613 205.978L350.23 199.486ZM338.987 193.295L334.905 198.981L334.859 198.948L334.814 198.915L338.987 193.295ZM328.799 182.633L323.174 186.799L323.174 186.799L328.799 182.633ZM320.192 166.64L326.723 164.122L326.723 164.122L320.192 166.64ZM314.395 144.112L307.494 145.287L307.486 145.236L307.478 145.185L314.395 144.112ZM312.287 -0.000244141L305.287 -0.000245651L305.287 -7.00025L312.287 -7.00024L312.287 -0.000244141ZM341.095 -0.000237924L341.095 -7.00024L348.095 -7.00024L348.095 -0.000236413L341.095 -0.000237924ZM341.095 114.533L334.1 114.784L334.095 114.658L334.095 114.533L341.095 114.533ZM343.028 132.074L336.195 133.597L336.182 133.536L336.169 133.475L343.028 132.074ZM348.122 146.863L342.015 150.284L342.015 150.284L348.122 146.863ZM355.5 155.806L351.211 161.338L351.132 161.276L351.053 161.212L355.5 155.806ZM363.756 160.449L361.95 167.212L361.722 167.151L361.499 167.075L363.756 160.449ZM372.187 161.653L372.187 168.653L372.056 168.653L371.924 168.648L372.187 161.653ZM374.471 161.653L374.471 154.653L374.471 161.653ZM385.362 159.417L382.628 152.973L382.681 152.951L382.734 152.929L385.362 159.417ZM403.455 136.029L396.686 134.245L396.703 134.182L396.721 134.118L403.455 136.029ZM406.441 113.845L413.441 113.845L413.441 113.94L413.439 114.036L406.441 113.845ZM406.441 -0.000223822L399.441 -0.000225333L399.441 -7.00023L406.441 -7.00022L406.441 -0.000223822ZM428.425 114.017L428.425 -0.000219078L442.425 -0.000216057L442.425 114.017L428.425 114.017ZM426.4 143.038C427.741 134.399 428.425 124.733 428.425 114.017L442.425 114.017C442.425 125.314 441.705 135.711 440.235 145.185L426.4 143.038ZM420.856 164.185C423.065 158.727 424.945 151.69 426.414 142.951L440.22 145.272C438.644 154.648 436.543 162.744 433.834 169.438L420.856 164.185ZM412.955 178.442C416.077 174.264 418.715 169.531 420.847 164.209L433.843 169.415C431.291 175.786 428.073 181.601 424.169 186.824L412.955 178.442ZM404.115 187.609C406.884 185.621 409.843 182.644 412.936 178.467L424.187 186.799C420.488 191.793 416.538 195.925 412.28 198.981L404.115 187.609ZM394.289 192.944C397.944 191.552 401.177 189.79 404.024 187.675L412.371 198.915C408.426 201.845 404.047 204.209 399.27 206.028L394.289 192.944ZM384.919 195.649C387.495 195.288 390.563 194.445 394.163 192.994L399.397 205.978C395.033 207.737 390.841 208.957 386.858 209.514L384.919 195.649ZM375.876 196.269C378.956 196.269 381.97 196.061 384.919 195.649L386.858 209.514C383.25 210.018 379.588 210.269 375.876 210.269L375.876 196.269ZM371.133 196.269L375.876 196.269L375.876 210.269L371.133 210.269L371.133 196.269ZM362.09 195.649C365.04 196.061 368.053 196.269 371.133 196.269L371.133 210.269C367.421 210.269 363.76 210.018 360.151 209.514L362.09 195.649ZM352.847 192.993C356.446 194.445 359.514 195.288 362.09 195.649L360.151 209.514C356.169 208.957 351.976 207.737 347.613 205.978L352.847 192.993ZM343.07 187.609C346.132 189.807 349.388 191.599 352.847 192.994L347.613 205.978C343.108 204.162 338.869 201.827 334.905 198.981L343.07 187.609ZM334.425 178.467C337.544 182.679 340.472 185.678 343.161 187.675L334.814 198.915C330.71 195.867 326.847 191.758 323.174 186.799L334.425 178.467ZM326.723 164.122C328.87 169.692 331.452 174.453 334.425 178.467L323.174 186.799C319.354 181.641 316.198 175.74 313.66 169.157L326.723 164.122ZM321.296 142.937C322.768 151.585 324.599 158.612 326.723 164.122L313.66 169.157C311.1 162.515 309.067 154.523 307.494 145.287L321.296 142.937ZM319.287 114.017C319.287 124.733 319.972 134.399 321.312 143.038L307.478 145.185C306.008 135.711 305.287 125.314 305.287 114.017L319.287 114.017ZM319.287 41.1881L319.287 114.017L305.287 114.017L305.287 41.1881L319.287 41.1881ZM319.287 -0.00024263L319.287 41.1881L305.287 41.1881L305.287 -0.000245651L319.287 -0.00024263ZM312.287 -7.00024L341.095 -7.00024L341.095 6.99976L312.287 6.99976L312.287 -7.00024ZM334.095 114.533L334.095 -0.000239434L348.095 -0.000236413L348.095 114.533L334.095 114.533ZM336.169 133.475C335.022 127.859 334.345 121.617 334.1 114.784L348.091 114.282C348.314 120.519 348.925 125.97 349.886 130.673L336.169 133.475ZM342.015 150.284C339.555 145.894 337.673 140.226 336.195 133.597L349.86 130.551C351.193 136.533 352.707 140.725 354.229 143.442L342.015 150.284ZM351.053 161.212C347.405 158.212 344.399 154.54 342.015 150.284L354.229 143.442C355.826 146.294 357.739 148.584 359.946 150.399L351.053 161.212ZM361.499 167.075C357.916 165.855 354.488 163.878 351.211 161.338L359.788 150.273C362.133 152.09 364.209 153.208 366.012 153.822L361.499 167.075ZM371.924 168.648C368.43 168.516 365.096 168.052 361.95 167.212L365.561 153.686C367.568 154.222 369.855 154.56 372.451 154.658L371.924 168.648ZM374.471 168.653L372.187 168.653L372.187 154.653L374.471 154.653L374.471 168.653ZM388.096 165.861C383.734 167.711 379.175 168.653 374.471 168.653L374.471 154.653C377.262 154.653 379.963 154.103 382.628 152.973L388.096 165.861ZM400.611 156.858C396.752 160.897 392.562 164.053 387.99 165.905L382.734 152.929C384.954 152.03 387.556 150.256 390.489 147.186L400.611 156.858ZM410.224 137.813C408.186 145.543 405.132 152.127 400.611 156.858L390.489 147.186C392.76 144.81 394.976 140.732 396.686 134.245L410.224 137.813ZM413.439 114.036C413.193 123.034 412.148 131.037 410.189 137.94L396.721 134.118C398.275 128.639 399.22 121.853 399.444 113.655L413.439 114.036ZM413.441 -0.000222311L413.441 113.845L399.441 113.845L399.441 -0.000225333L413.441 -0.000222311ZM406.441 -7.00022L435.425 -7.00022L435.425 6.99978L406.441 6.99978L406.441 -7.00022Z" fill="#FD39C3" mask="url(#path-13-inside-7_215_2546)"/>
<mask id="path-15-inside-8_215_2546" fill="white">
<path fill-rule="evenodd" clip-rule="evenodd" d="M435.42 213.308L435.42 223.537C435.42 232.523 434.717 240.713 433.312 248.108C431.789 255.503 429.798 261.681 427.339 266.642C424.997 271.416 422.069 275.722 418.556 279.56C415.16 283.304 411.705 286.206 408.192 288.265C404.796 290.324 400.99 292.009 396.774 293.32C392.793 294.63 389.162 295.473 385.883 295.847C382.604 296.221 379.267 296.409 375.871 296.409L371.128 296.409C367.732 296.409 364.394 296.221 361.115 295.847C357.836 295.473 354.206 294.63 350.224 293.32C346.243 292.009 342.495 290.324 338.982 288.265C335.586 286.206 332.19 283.304 328.794 279.56C325.397 275.815 322.528 271.463 320.186 266.502C317.844 261.541 315.912 255.409 314.389 248.108C312.984 240.713 312.281 232.523 312.281 223.537L312.281 213.308L341.09 213.308L341.09 223.958C341.324 229.294 341.968 234.067 343.022 238.28C344.427 243.428 346.125 247.453 348.116 250.355C350.107 253.257 352.566 255.69 355.494 257.656C358.305 259.434 361.057 260.698 363.75 261.447C366.326 262.009 369.137 262.336 372.182 262.43L374.465 262.43C378.213 262.43 381.843 261.821 385.356 260.605C388.752 259.481 392.149 257.469 395.545 254.567C398.941 251.665 401.576 247.313 403.449 241.509C405.206 236.454 406.201 230.417 406.436 223.396L406.436 213.308L435.42 213.308Z"/>
</mask>
<path d="M435.42 213.308L435.42 206.308L442.42 206.308L442.42 213.308L435.42 213.308ZM435.42 223.537L442.42 223.537L435.42 223.537ZM433.312 248.108L440.189 249.415L440.179 249.468L440.168 249.52L433.312 248.108ZM427.339 266.642L421.055 263.559L421.061 263.546L421.068 263.533L427.339 266.642ZM418.556 279.56L413.371 274.857L413.382 274.845L413.393 274.833L418.556 279.56ZM408.192 288.265L404.563 282.279L404.607 282.252L404.652 282.226L408.192 288.265ZM396.774 293.32L394.586 286.671L394.641 286.652L394.696 286.635L396.774 293.32ZM385.883 295.847L386.677 302.802L386.677 302.802L385.883 295.847ZM375.871 296.409L375.871 289.409L375.871 296.409ZM371.128 296.409L371.128 303.409L371.128 296.409ZM361.115 295.847L360.321 302.802L360.321 302.802L361.115 295.847ZM350.224 293.32L352.413 286.671L352.413 286.671L350.224 293.32ZM338.982 288.265L335.442 294.304L335.397 294.278L335.352 294.25L338.982 288.265ZM328.794 279.56L323.609 284.262L323.609 284.262L328.794 279.56ZM320.186 266.502L326.516 263.513L326.516 263.513L320.186 266.502ZM314.389 248.108L307.537 249.537L307.524 249.476L307.512 249.415L314.389 248.108ZM312.281 213.308L305.281 213.308L305.281 206.308L312.281 206.308L312.281 213.308ZM341.09 213.308L341.09 206.308L348.09 206.308L348.09 213.308L341.09 213.308ZM341.09 223.958L334.097 224.265L334.09 224.112L334.09 223.958L341.09 223.958ZM343.022 238.28L336.269 240.123L336.25 240.051L336.231 239.979L343.022 238.28ZM348.116 250.355L342.344 254.315L342.344 254.315L348.116 250.355ZM355.494 257.656L351.751 263.571L351.671 263.52L351.592 263.468L355.494 257.656ZM363.75 261.447L362.259 268.286L362.066 268.244L361.875 268.191L363.75 261.447ZM372.182 262.43L372.182 269.43L372.074 269.43L371.967 269.427L372.182 262.43ZM374.465 262.43L374.465 255.43L374.465 262.43ZM385.356 260.605L383.065 253.99L383.112 253.974L383.158 253.959L385.356 260.605ZM395.545 254.567L400.092 259.889L400.092 259.889L395.545 254.567ZM403.449 241.509L396.788 239.358L396.812 239.285L396.837 239.211L403.449 241.509ZM406.436 223.396L413.436 223.396L413.436 223.513L413.432 223.63L406.436 223.396ZM406.436 213.308L399.436 213.308L399.436 206.308L406.436 206.308L406.436 213.308ZM442.42 213.308L442.42 223.537L428.42 223.537L428.42 213.308L442.42 213.308ZM442.42 223.537C442.42 232.88 441.69 241.516 440.189 249.415L426.435 246.801C427.744 239.911 428.42 232.166 428.42 223.537L442.42 223.537ZM440.168 249.52C438.565 257.306 436.414 264.097 433.611 269.751L421.068 263.533C423.183 259.265 425.014 253.7 426.455 246.697L440.168 249.52ZM433.624 269.725C430.994 275.084 427.693 279.946 423.719 284.286L413.393 274.833C416.446 271.498 419 267.748 421.055 263.559L433.624 269.725ZM423.741 284.263C419.978 288.411 415.985 291.811 411.732 294.304L404.652 282.226C407.426 280.6 410.342 278.196 413.371 274.857L423.741 284.263ZM411.822 294.25C407.888 296.636 403.552 298.543 398.852 300.004L394.696 286.635C398.428 285.475 401.704 284.013 404.563 282.279L411.822 294.25ZM398.963 299.969C394.643 301.39 390.537 302.361 386.677 302.802L385.089 288.892C387.787 288.584 390.942 287.87 394.586 286.671L398.963 299.969ZM386.677 302.802C383.127 303.207 379.524 303.409 375.871 303.409L375.871 289.409C379.009 289.409 382.081 289.236 385.089 288.892L386.677 302.802ZM375.871 303.409L371.128 303.409L371.128 289.409L375.871 289.409L375.871 303.409ZM371.128 303.409C367.474 303.409 363.871 303.207 360.321 302.802L361.909 288.892C364.917 289.236 367.989 289.409 371.128 289.409L371.128 303.409ZM360.321 302.802C356.461 302.361 352.355 301.39 348.036 299.969L352.413 286.671C356.056 287.87 359.211 288.584 361.909 288.892L360.321 302.802ZM348.036 299.969C343.597 298.508 339.395 296.621 335.442 294.304L342.522 282.226C345.595 284.027 348.888 285.51 352.413 286.671L348.036 299.969ZM335.352 294.25C331.246 291.761 327.341 288.378 323.609 284.262L333.978 274.857C337.038 278.23 339.925 280.651 342.611 282.279L335.352 294.25ZM323.609 284.262C319.711 279.965 316.468 275.023 313.856 269.49L326.516 263.513C328.588 267.902 331.084 271.666 333.978 274.857L323.609 284.262ZM313.856 269.49C311.212 263.89 309.134 257.198 307.537 249.537L321.242 246.679C322.689 253.62 324.476 259.191 326.516 263.513L313.856 269.49ZM307.512 249.415C306.011 241.516 305.281 232.88 305.281 223.537L319.281 223.537C319.281 232.166 319.957 239.911 321.266 246.801L307.512 249.415ZM305.281 223.537L305.281 213.308L319.281 213.308L319.281 223.537L305.281 223.537ZM312.281 206.308L341.09 206.308L341.09 220.308L312.281 220.308L312.281 206.308ZM348.09 213.308L348.09 223.958L334.09 223.958L334.09 213.308L348.09 213.308ZM348.083 223.651C348.301 228.62 348.895 232.914 349.813 236.581L336.231 239.979C335.041 235.221 334.347 229.968 334.097 224.265L348.083 223.651ZM349.775 236.436C351.069 241.178 352.507 244.381 353.888 246.395L342.344 254.315C339.744 250.524 337.785 245.678 336.269 240.123L349.775 236.436ZM353.888 246.395C355.377 248.565 357.202 250.371 359.396 251.844L351.592 263.468C347.931 261.009 344.837 257.948 342.344 254.315L353.888 246.395ZM359.237 251.741C361.575 253.22 363.703 254.168 365.625 254.703L361.875 268.191C358.411 267.228 355.034 265.649 351.751 263.571L359.237 251.741ZM365.241 254.608C367.339 255.065 369.717 255.351 372.397 255.433L371.967 269.427C368.557 269.322 365.314 268.952 362.259 268.286L365.241 254.608ZM372.182 255.43L374.465 255.43L374.465 269.43L372.182 269.43L372.182 255.43ZM374.465 255.43C377.439 255.43 380.295 254.95 383.065 253.99L387.647 267.219C383.391 268.693 378.986 269.43 374.465 269.43L374.465 255.43ZM383.158 253.959C385.508 253.182 388.125 251.699 390.997 249.245L400.092 259.889C396.172 263.239 391.997 265.781 387.554 267.25L383.158 253.959ZM390.997 249.245C393.112 247.438 395.172 244.364 396.788 239.358L410.111 243.66C407.979 250.262 404.77 255.892 400.092 259.889L390.997 249.245ZM396.837 239.211C398.304 234.992 399.222 229.686 399.44 223.163L413.432 223.63C413.181 231.147 412.108 237.917 410.061 243.807L396.837 239.211ZM399.436 223.396L399.436 213.308L413.436 213.308L413.436 223.396L399.436 223.396ZM406.436 206.308L435.42 206.308L435.42 220.308L406.436 220.308L406.436 206.308Z" fill="#41F168" mask="url(#path-15-inside-8_215_2546)"/>
<mask id="path-17-inside-9_215_2546" fill="white">
<path fill-rule="evenodd" clip-rule="evenodd" d="M279.281 -0.000217567L279.281 114.017C279.281 125.023 278.579 135.055 277.173 144.112C275.651 153.169 273.66 160.735 271.201 166.812C268.859 172.659 265.931 177.932 262.418 182.633C259.022 187.219 255.567 190.773 252.054 193.295C248.658 195.817 244.852 197.881 240.636 199.486C236.654 201.091 233.024 202.123 229.745 202.581C226.466 203.04 223.128 203.269 219.732 203.269L214.989 203.269C211.593 203.269 208.256 203.04 204.977 202.581C201.698 202.123 198.067 201.091 194.086 199.486C190.104 197.881 186.357 195.817 182.843 193.295C179.447 190.773 176.051 187.219 172.655 182.633C169.259 178.047 166.39 172.716 164.048 166.64C161.706 160.563 159.773 153.054 158.251 144.112C156.846 135.055 156.143 125.023 156.143 114.017L156.143 41.1881L156.143 -0.000244141L184.951 -0.000237924L184.951 114.533C185.186 121.068 185.83 126.915 186.884 132.074C188.289 138.379 189.987 143.309 191.978 146.863C193.969 150.417 196.428 153.398 199.356 155.806C202.166 157.984 204.918 159.532 207.612 160.449C210.188 161.137 212.999 161.538 216.043 161.653L218.327 161.653C222.074 161.653 225.705 160.907 229.218 159.417C232.614 158.041 236.01 155.576 239.406 152.022C242.802 148.468 245.437 143.137 247.311 136.029C249.068 129.838 250.063 122.444 250.297 113.845L250.297 -0.000223822L279.281 -0.000217567Z"/>
</mask>
<path d="M279.281 -0.000217567L279.281 -7.00022L286.281 -7.00022L286.281 -0.000216057L279.281 -0.000217567ZM277.173 144.112L284.09 145.185L284.084 145.229L284.076 145.272L277.173 144.112ZM271.201 166.812L264.703 164.209L264.707 164.197L264.712 164.186L271.201 166.812ZM262.418 182.633L256.792 178.467L256.802 178.455L256.811 178.442L262.418 182.633ZM252.054 193.295L247.88 187.675L247.925 187.642L247.971 187.609L252.054 193.295ZM240.636 199.486L238.019 192.994L238.082 192.968L238.145 192.944L240.636 199.486ZM219.732 203.269L219.732 196.269L219.732 203.269ZM214.989 203.269L214.989 210.269L214.989 203.269ZM204.977 202.581L205.946 195.649L205.946 195.649L204.977 202.581ZM194.086 199.486L191.469 205.978L191.469 205.978L194.086 199.486ZM182.843 193.295L178.761 198.981L178.715 198.948L178.67 198.915L182.843 193.295ZM172.655 182.633L167.03 186.799L167.03 186.799L172.655 182.633ZM164.048 166.64L170.579 164.122L170.579 164.122L164.048 166.64ZM158.251 144.112L151.35 145.287L151.342 145.236L151.334 145.185L158.251 144.112ZM156.143 -0.000244141L149.143 -0.000245651L149.143 -7.00025L156.143 -7.00024L156.143 -0.000244141ZM184.951 -0.000237924L184.951 -7.00024L191.951 -7.00024L191.951 -0.000236413L184.951 -0.000237924ZM184.951 114.533L177.956 114.784L177.951 114.658L177.951 114.533L184.951 114.533ZM186.884 132.074L180.051 133.597L180.038 133.536L180.025 133.475L186.884 132.074ZM191.978 146.863L185.871 150.284L185.871 150.284L191.978 146.863ZM199.356 155.806L195.067 161.338L194.988 161.276L194.909 161.212L199.356 155.806ZM207.612 160.449L205.806 167.212L205.578 167.151L205.355 167.075L207.612 160.449ZM216.043 161.653L216.043 168.653L215.912 168.653L215.78 168.648L216.043 161.653ZM229.218 159.417L226.484 152.973L226.537 152.951L226.59 152.929L229.218 159.417ZM239.406 152.022L234.345 147.186L234.345 147.186L239.406 152.022ZM247.311 136.029L240.542 134.245L240.559 134.182L240.577 134.118L247.311 136.029ZM250.297 113.845L257.297 113.845L257.297 113.94L257.295 114.036L250.297 113.845ZM250.297 -0.000223822L243.297 -0.000225333L243.297 -7.00023L250.297 -7.00022L250.297 -0.000223822ZM272.281 114.017L272.281 -0.000219078L286.281 -0.000216057L286.281 114.017L272.281 114.017ZM270.256 143.038C271.597 134.399 272.281 124.733 272.281 114.017L286.281 114.017C286.281 125.314 285.56 135.711 284.09 145.185L270.256 143.038ZM264.712 164.186C266.921 158.727 268.801 151.69 270.27 142.951L284.076 145.272C282.5 154.648 280.399 162.744 277.689 169.438L264.712 164.186ZM256.811 178.442C259.933 174.264 262.571 169.531 264.703 164.209L277.699 169.415C275.147 175.786 271.928 181.601 268.025 186.824L256.811 178.442ZM247.971 187.609C250.74 185.621 253.699 182.644 256.792 178.467L268.043 186.799C264.344 191.793 260.394 195.925 256.136 198.981L247.971 187.609ZM238.145 192.944C241.8 191.552 245.033 189.79 247.88 187.675L256.227 198.915C252.282 201.845 247.903 204.209 243.126 206.028L238.145 192.944ZM228.775 195.649C231.351 195.288 234.419 194.445 238.019 192.994L243.253 205.978C238.889 207.737 234.697 208.957 230.714 209.514L228.775 195.649ZM219.732 196.269C222.812 196.269 225.826 196.061 228.775 195.649L230.714 209.514C227.106 210.018 223.444 210.269 219.732 210.269L219.732 196.269ZM214.989 196.269L219.732 196.269L219.732 210.269L214.989 210.269L214.989 196.269ZM205.946 195.649C208.896 196.061 211.909 196.269 214.989 196.269L214.989 210.269C211.277 210.269 207.616 210.018 204.007 209.514L205.946 195.649ZM196.703 192.993C200.302 194.445 203.37 195.288 205.946 195.649L204.007 209.514C200.025 208.957 195.832 207.737 191.469 205.978L196.703 192.993ZM186.926 187.609C189.988 189.807 193.244 191.599 196.703 192.994L191.469 205.978C186.964 204.162 182.725 201.827 178.761 198.981L186.926 187.609ZM178.28 178.467C181.4 182.679 184.328 185.678 187.017 187.675L178.67 198.915C174.566 195.867 170.703 191.758 167.03 186.799L178.28 178.467ZM170.579 164.122C172.726 169.692 175.308 174.453 178.281 178.467L167.03 186.799C163.21 181.641 160.054 175.74 157.516 169.157L170.579 164.122ZM165.152 142.937C166.624 151.585 168.455 158.612 170.579 164.122L157.516 169.157C154.956 162.515 152.923 154.523 151.35 145.287L165.152 142.937ZM163.143 114.017C163.143 124.733 163.828 134.399 165.168 143.038L151.334 145.185C149.864 135.711 149.143 125.314 149.143 114.017L163.143 114.017ZM163.143 41.1881L163.143 114.017L149.143 114.017L149.143 41.1881L163.143 41.1881ZM163.143 -0.00024263L163.143 41.1881L149.143 41.1881L149.143 -0.000245651L163.143 -0.00024263ZM156.143 -7.00024L184.951 -7.00024L184.951 6.99976L156.143 6.99976L156.143 -7.00024ZM177.951 114.533L177.951 -0.000239434L191.951 -0.000236413L191.951 114.533L177.951 114.533ZM180.025 133.475C178.878 127.859 178.201 121.617 177.956 114.784L191.947 114.282C192.17 120.519 192.781 125.97 193.742 130.673L180.025 133.475ZM185.871 150.284C183.411 145.894 181.529 140.226 180.051 133.597L193.716 130.551C195.049 136.533 196.563 140.725 198.085 143.442L185.871 150.284ZM194.909 161.212C191.261 158.212 188.255 154.54 185.871 150.284L198.085 143.442C199.682 146.294 201.595 148.584 203.802 150.399L194.909 161.212ZM205.355 167.075C201.772 165.855 198.344 163.878 195.067 161.338L203.644 150.273C205.989 152.09 208.065 153.208 209.868 153.822L205.355 167.075ZM215.78 168.648C212.286 168.516 208.952 168.052 205.806 167.212L209.417 153.686C211.424 154.222 213.711 154.56 216.307 154.658L215.78 168.648ZM218.327 168.653L216.043 168.653L216.043 154.653L218.327 154.653L218.327 168.653ZM231.952 165.861C227.59 167.711 223.031 168.653 218.327 168.653L218.327 154.653C221.117 154.653 223.819 154.103 226.484 152.973L231.952 165.861ZM244.467 156.858C240.608 160.897 236.418 164.053 231.846 165.905L226.59 152.929C228.81 152.03 231.412 150.256 234.345 147.186L244.467 156.858ZM254.08 137.813C252.042 145.543 248.988 152.127 244.467 156.858L234.345 147.186C236.616 144.81 238.832 140.732 240.542 134.245L254.08 137.813ZM257.295 114.036C257.049 123.034 256.004 131.037 254.045 137.94L240.577 134.118C242.131 128.639 243.076 121.853 243.3 113.655L257.295 114.036ZM257.297 -0.000222311L257.297 113.845L243.297 113.845L243.297 -0.000225333L257.297 -0.000222311ZM250.297 -7.00022L279.281 -7.00022L279.281 6.99978L250.297 6.99978L250.297 -7.00022Z" fill="#FD39C3" mask="url(#path-17-inside-9_215_2546)"/>
<mask id="path-19-inside-10_215_2546" fill="white">
<path fill-rule="evenodd" clip-rule="evenodd" d="M279.276 213.308L279.276 219.624C279.276 225.173 278.573 230.23 277.168 234.796C275.646 239.362 273.655 243.177 271.196 246.24C268.854 249.188 265.926 251.846 262.413 254.216C259.017 256.528 255.562 258.32 252.049 259.591C248.653 260.863 244.847 261.903 240.631 262.713C236.649 263.522 233.019 264.042 229.74 264.273C226.461 264.504 223.123 264.62 219.727 264.62L214.984 264.62C211.588 264.62 208.251 264.504 204.972 264.273C201.693 264.042 198.062 263.522 194.081 262.713C190.099 261.903 186.352 260.863 182.838 259.591C179.442 258.32 176.046 256.528 172.65 254.216C169.254 251.904 166.385 249.217 164.043 246.153C161.7 243.09 159.768 239.304 158.246 234.796C156.841 230.23 156.138 225.173 156.138 219.624L156.138 213.308L184.946 213.308L184.946 219.884C185.18 223.179 185.825 226.126 186.879 228.727C188.284 231.906 189.982 234.391 191.973 236.183C193.964 237.975 196.423 239.478 199.35 240.691C202.161 241.79 204.913 242.57 207.606 243.032C210.183 243.379 212.993 243.581 216.038 243.639L218.322 243.639C222.069 243.639 225.7 243.263 229.213 242.512C232.609 241.818 236.005 240.576 239.401 238.784C242.797 236.992 245.432 234.305 247.306 230.721C249.062 227.6 250.058 223.872 250.292 219.537L250.292 213.308L279.276 213.308ZM214.984 101.109L214.839 101.109L219.867 101.109L219.727 101.109L214.984 101.109Z"/>
</mask>
<path d="M279.276 213.308L279.276 206.308L286.276 206.308L286.276 213.308L279.276 213.308ZM277.168 234.796L283.858 236.855L283.834 236.933L283.809 237.01L277.168 234.796ZM271.196 246.24L265.715 241.885L265.726 241.872L265.737 241.858L271.196 246.24ZM262.413 254.216L258.473 248.43L258.486 248.421L258.498 248.413L262.413 254.216ZM252.049 259.591L249.594 253.036L249.63 253.022L249.666 253.009L252.049 259.591ZM240.631 262.713L239.237 255.853L239.274 255.845L239.311 255.838L240.631 262.713ZM229.74 264.273L230.232 271.256L230.232 271.256L229.74 264.273ZM219.727 264.62L219.727 257.62L219.727 264.62ZM214.984 264.62L214.984 271.62L214.984 264.62ZM204.972 264.273L204.479 271.256L204.479 271.256L204.972 264.273ZM194.081 262.713L192.687 269.572L192.687 269.572L194.081 262.713ZM182.838 259.591L180.456 266.174L180.42 266.16L180.384 266.147L182.838 259.591ZM172.65 254.216L176.589 248.43L176.589 248.43L172.65 254.216ZM164.043 246.153L169.603 241.902L169.603 241.902L164.043 246.153ZM158.246 234.796L151.614 237.036L151.583 236.946L151.556 236.855L158.246 234.796ZM156.138 219.624L163.138 219.624L156.138 219.624ZM156.138 213.308L149.138 213.308L149.138 206.308L156.138 206.308L156.138 213.308ZM184.946 213.308L184.946 206.308L191.946 206.308L191.946 213.308L184.946 213.308ZM184.946 219.884L177.964 220.38L177.946 220.133L177.946 219.884L184.946 219.884ZM186.879 228.727L180.476 231.557L180.432 231.457L180.391 231.356L186.879 228.727ZM191.973 236.183L187.29 241.386L187.29 241.386L191.973 236.183ZM199.35 240.691L196.803 247.211L196.736 247.185L196.67 247.158L199.35 240.691ZM207.606 243.032L206.673 249.97L206.547 249.953L206.422 249.931L207.606 243.032ZM216.038 243.639L216.038 250.639L215.972 250.639L215.905 250.638L216.038 243.639ZM229.213 242.512L227.749 235.667L227.78 235.66L227.812 235.654L229.213 242.512ZM239.401 238.784L236.135 232.593L239.401 238.784ZM247.306 230.721L241.103 227.478L241.153 227.382L241.206 227.288L247.306 230.721ZM250.292 219.537L257.292 219.537L257.292 219.726L257.282 219.915L250.292 219.537ZM250.292 213.308L243.292 213.308L243.292 206.308L250.292 206.308L250.292 213.308ZM214.839 101.109L214.839 108.109L214.836 94.1087L214.839 101.109ZM214.984 101.109L214.981 94.1087L214.984 94.1087L214.984 101.109ZM219.867 101.109L219.871 94.1087L219.867 108.109L219.867 101.109ZM219.727 101.109L219.727 94.1087L219.73 94.1087L219.727 101.109ZM286.276 213.308L286.276 219.624L272.276 219.624L272.276 213.308L286.276 213.308ZM286.276 219.624C286.276 225.761 285.499 231.524 283.858 236.855L270.478 232.737C271.648 228.935 272.276 224.585 272.276 219.624L286.276 219.624ZM283.809 237.01C282.081 242.192 279.735 246.785 276.654 250.622L265.737 241.858C267.575 239.569 269.21 236.532 270.527 232.582L283.809 237.01ZM276.676 250.595C273.837 254.168 270.36 257.299 266.327 260.019L258.498 248.413C261.492 246.394 263.87 244.208 265.715 241.885L276.676 250.595ZM266.352 260.003C262.52 262.611 258.546 264.684 254.431 266.174L249.666 253.009C252.578 251.955 255.513 250.445 258.473 248.43L266.352 260.003ZM254.503 266.147C250.679 267.579 246.484 268.717 241.95 269.587L239.311 255.838C243.209 255.09 246.626 254.147 249.594 253.036L254.503 266.147ZM242.025 269.572C237.812 270.428 233.875 270.999 230.232 271.256L229.247 257.29C232.163 257.085 235.486 256.615 239.237 255.853L242.025 269.572ZM230.232 271.256C226.784 271.499 223.282 271.62 219.727 271.62L219.727 257.62C222.964 257.62 226.138 257.51 229.247 257.29L230.232 271.256ZM219.727 271.62L214.984 271.62L214.984 257.62L219.727 257.62L219.727 271.62ZM214.984 271.62C211.429 271.62 207.927 271.499 204.479 271.256L205.464 257.29C208.574 257.51 211.747 257.62 214.984 257.62L214.984 271.62ZM204.479 271.256C200.837 270.999 196.899 270.428 192.687 269.572L195.475 255.853C199.225 256.615 202.549 257.085 205.464 257.29L204.479 271.256ZM192.687 269.572C188.398 268.701 184.318 267.571 180.456 266.174L185.221 253.009C188.385 254.155 191.8 255.106 195.475 255.853L192.687 269.572ZM180.384 266.147C176.4 264.655 172.509 262.588 168.711 260.003L176.589 248.43C179.583 250.468 182.485 251.984 185.293 253.036L180.384 266.147ZM168.711 260.003C164.736 257.297 161.308 254.101 158.482 250.405L169.603 241.902C171.462 244.332 173.772 246.512 176.589 248.43L168.711 260.003ZM158.482 250.405C155.581 246.611 153.326 242.106 151.614 237.036L164.878 232.556C166.211 236.503 167.82 239.569 169.603 241.902L158.482 250.405ZM151.556 236.855C149.915 231.524 149.138 225.761 149.138 219.624L163.138 219.624C163.138 224.585 163.766 228.935 164.936 232.737L151.556 236.855ZM149.138 219.624L149.138 213.308L163.138 213.308L163.138 219.624L149.138 219.624ZM156.138 206.308L184.946 206.308L184.946 220.308L156.138 220.308L156.138 206.308ZM191.946 213.308L191.946 219.884L177.946 219.884L177.946 213.308L191.946 213.308ZM191.929 219.388C192.12 222.076 192.632 224.286 193.366 226.098L180.391 231.356C179.017 227.967 178.241 224.281 177.964 220.38L191.929 219.388ZM193.281 225.897C194.401 228.43 195.583 230.015 196.655 230.98L187.29 241.386C184.381 238.768 182.167 235.382 180.476 231.557L193.281 225.897ZM196.655 230.98C197.958 232.153 199.707 233.261 202.031 234.225L196.67 247.158C193.139 245.694 189.969 243.797 187.29 241.386L196.655 230.98ZM201.898 234.171C204.313 235.115 206.609 235.759 208.791 236.133L206.422 249.931C203.217 249.381 200.009 248.464 196.803 247.211L201.898 234.171ZM208.54 236.095C210.811 236.4 213.35 236.587 216.171 236.64L215.905 250.638C212.637 250.576 209.555 250.358 206.673 249.97L208.54 236.095ZM216.038 236.639L218.322 236.639L218.322 250.639L216.038 250.639L216.038 236.639ZM218.322 236.639C221.598 236.639 224.737 236.311 227.749 235.667L230.677 249.357C226.662 250.216 222.54 250.639 218.322 250.639L218.322 236.639ZM227.812 235.654C230.492 235.106 233.263 234.108 236.135 232.593L242.667 244.975C238.747 247.044 234.726 248.531 230.613 249.37L227.812 235.654ZM236.135 232.593C238.207 231.5 239.849 229.874 241.103 227.478L253.509 233.965C251.015 238.735 247.387 242.485 242.667 244.975L236.135 232.593ZM241.206 227.288C242.335 225.281 243.114 222.646 243.302 219.16L257.282 219.915C257.002 225.099 255.79 229.919 253.406 234.154L241.206 227.288ZM243.292 219.537L243.292 213.308L257.292 213.308L257.292 219.537L243.292 219.537ZM250.292 206.308L279.276 206.308L279.276 220.308L250.292 220.308L250.292 206.308ZM214.836 94.1087L214.981 94.1087L214.987 108.109L214.842 108.109L214.836 94.1087ZM219.867 108.109L214.839 108.109L214.839 94.1087L219.867 94.1087L219.867 108.109ZM219.73 94.1087L219.871 94.1087L219.864 108.109L219.724 108.109L219.73 94.1087ZM214.984 94.1087L219.727 94.1087L219.727 108.109L214.984 108.109L214.984 94.1087Z" fill="#41F168" mask="url(#path-19-inside-10_215_2546)"/>
<mask id="path-21-inside-11_215_2546" fill="white">
<path fill-rule="evenodd" clip-rule="evenodd" d="M123.138 -0.000217567L123.138 114.017C123.138 125.023 122.435 135.055 121.03 144.112C119.508 153.169 117.517 160.735 115.058 166.812C112.716 172.659 109.788 177.932 106.275 182.633C102.879 187.219 99.4239 190.773 95.9107 193.295C92.5146 195.817 88.7086 197.881 84.4927 199.486C80.5111 201.091 76.8808 202.123 73.6018 202.581C70.3228 203.04 66.9852 203.269 63.5891 203.269L58.8463 203.269C55.4502 203.269 52.1126 203.04 48.8336 202.581C45.5546 202.123 41.9243 201.091 37.9427 199.486C33.961 197.881 30.2136 195.817 26.7004 193.295C23.3043 190.773 19.9082 187.219 16.5121 182.633C13.116 178.047 10.2468 172.716 7.9047 166.64C5.56255 160.563 3.63028 153.054 2.1079 144.112C0.702614 135.055 -2.76766e-05 125.023 -2.52402e-05 114.017L-9.11793e-06 41.1881L0 -0.000244141L28.8084 -0.000237924L28.8083 114.533C29.0425 121.068 29.6866 126.915 30.7406 132.074C32.1459 138.379 33.8439 143.309 35.8347 146.863C37.8256 150.417 40.2848 153.398 43.2125 155.806C46.0231 157.984 48.7751 159.532 51.4685 160.449C54.0449 161.137 56.8555 161.538 59.9003 161.653L62.1838 161.653C65.9313 161.653 69.5616 160.907 73.0748 159.417C76.4709 158.041 79.867 155.576 83.2631 152.022C86.6592 148.468 89.2942 143.137 91.1679 136.029C92.9245 129.838 93.9199 122.444 94.1541 113.845L94.1541 -0.000223822L123.138 -0.000217567Z"/>
</mask>
<path d="M123.138 -0.000217567L123.138 -7.00022L130.138 -7.00022L130.138 -0.000216057L123.138 -0.000217567ZM121.03 144.112L127.947 145.185L127.941 145.229L127.933 145.272L121.03 144.112ZM115.058 166.812L108.56 164.209L108.564 164.197L108.569 164.185L115.058 166.812ZM106.275 182.633L100.649 178.467L100.658 178.455L100.668 178.442L106.275 182.633ZM95.9107 193.295L91.7371 187.675L91.7824 187.642L91.8283 187.609L95.9107 193.295ZM84.4927 199.486L81.8756 192.994L81.9386 192.968L82.0021 192.944L84.4927 199.486ZM63.5891 203.269L63.5891 196.269L63.5891 203.269ZM58.8463 203.269L58.8463 210.269L58.8463 203.269ZM48.8336 202.581L49.8032 195.649L49.8032 195.649L48.8336 202.581ZM37.9427 199.486L35.3255 205.978L35.3255 205.978L37.9427 199.486ZM26.7004 193.295L22.618 198.981L22.5721 198.948L22.5268 198.915L26.7004 193.295ZM16.5121 182.633L10.8867 186.799L10.8867 186.799L16.5121 182.633ZM7.9047 166.64L14.4363 164.122L14.4363 164.122L7.9047 166.64ZM2.1079 144.112L-4.79281 145.287L-4.80145 145.236L-4.80933 145.185L2.1079 144.112ZM0 -0.000244141L-7 -0.000245651L-7 -7.00025L1.5496e-06 -7.00024L0 -0.000244141ZM28.8084 -0.000237924L28.8084 -7.00024L35.8084 -7.00024L35.8084 -0.000236413L28.8084 -0.000237924ZM28.8083 114.533L21.8128 114.784L21.8083 114.658L21.8083 114.533L28.8083 114.533ZM30.7406 132.074L23.9082 133.597L23.8947 133.536L23.8822 133.475L30.7406 132.074ZM35.8347 146.863L29.7276 150.284L29.7276 150.284L35.8347 146.863ZM43.2125 155.806L38.9244 161.338L38.8445 161.276L38.7664 161.212L43.2125 155.806ZM51.4685 160.449L49.6628 167.212L49.4352 167.151L49.2122 167.075L51.4685 160.449ZM59.9003 161.653L59.9003 168.653L59.7685 168.653L59.6368 168.648L59.9003 161.653ZM73.0748 159.417L70.341 152.973L70.3936 152.951L70.4466 152.929L73.0748 159.417ZM83.2631 152.022L88.324 156.858L88.324 156.858L83.2631 152.022ZM91.1679 136.029L84.3991 134.245L84.4158 134.181L84.4337 134.118L91.1679 136.029ZM94.1541 113.845L101.154 113.845L101.154 113.94L101.151 114.036L94.1541 113.845ZM94.1541 -0.000223822L87.1541 -0.000225333L87.1541 -7.00023L94.1541 -7.00022L94.1541 -0.000223822ZM116.138 114.017L116.138 -0.000219078L130.138 -0.000216057L130.138 114.017L116.138 114.017ZM114.113 143.038C115.453 134.399 116.138 124.733 116.138 114.017L130.138 114.017C130.138 125.314 129.417 135.711 127.947 145.185L114.113 143.038ZM108.569 164.185C110.778 158.727 112.658 151.69 114.127 142.951L127.933 145.272C126.357 154.648 124.256 162.744 121.546 169.438L108.569 164.185ZM100.668 178.442C103.79 174.264 106.428 169.531 108.56 164.209L121.556 169.415C119.003 175.786 115.785 181.601 111.882 186.824L100.668 178.442ZM91.8283 187.609C94.5973 185.621 97.5559 182.644 100.649 178.467L111.9 186.799C108.201 191.793 104.25 195.925 99.993 198.981L91.8283 187.609ZM82.0021 192.944C85.657 191.552 88.89 189.79 91.7371 187.675L100.084 198.915C96.1391 201.845 91.7601 204.209 86.9834 206.028L82.0021 192.944ZM72.6322 195.649C75.2081 195.288 78.276 194.445 81.8756 192.994L87.1099 205.978C82.7462 207.737 78.5535 208.957 74.5713 209.514L72.6322 195.649ZM63.5891 196.269C66.6692 196.269 69.6826 196.061 72.6322 195.649L74.5713 209.514C70.963 210.018 67.3013 210.269 63.5891 210.269L63.5891 196.269ZM58.8463 196.269L63.5891 196.269L63.5891 210.269L58.8463 210.269L58.8463 196.269ZM49.8032 195.649C52.7528 196.061 55.7662 196.269 58.8463 196.269L58.8463 210.269C55.1341 210.269 51.4724 210.018 47.8641 209.514L49.8032 195.649ZM40.5598 192.993C44.1594 194.445 47.2273 195.288 49.8032 195.649L47.8641 209.514C43.8819 208.957 39.6892 207.737 35.3255 205.978L40.5598 192.993ZM30.7827 187.609C33.8449 189.807 37.1009 191.599 40.5598 192.994L35.3255 205.978C30.8211 204.162 26.5823 201.827 22.618 198.981L30.7827 187.609ZM22.1374 178.467C25.2567 182.679 28.1852 185.678 30.874 187.675L22.5268 198.915C18.4234 195.867 14.5597 191.758 10.8867 186.799L22.1374 178.467ZM14.4363 164.122C16.5832 169.692 19.1646 174.453 22.1374 178.467L10.8867 186.799C7.06728 181.641 3.91051 175.74 1.37312 169.157L14.4363 164.122ZM9.00861 142.937C10.4809 151.585 12.3123 158.612 14.4363 164.122L1.37312 169.157C-1.18723 162.515 -3.22029 154.523 -4.79281 145.287L9.00861 142.937ZM6.99997 114.017C6.99997 124.733 7.68458 134.399 9.02513 143.038L-4.80933 145.185C-6.27935 135.711 -7.00003 125.314 -7.00003 114.017L6.99997 114.017ZM6.99999 41.1881L6.99997 114.017L-7.00003 114.017L-7.00001 41.1881L6.99999 41.1881ZM7 -0.00024263L6.99999 41.1881L-7.00001 41.1881L-7 -0.000245651L7 -0.00024263ZM1.5496e-06 -7.00024L28.8084 -7.00024L28.8084 6.99976L-1.5496e-06 6.99976L1.5496e-06 -7.00024ZM21.8083 114.533L21.8084 -0.000239434L35.8084 -0.000236413L35.8083 114.533L21.8083 114.533ZM23.8822 133.475C22.735 127.859 22.0577 121.617 21.8128 114.784L35.8038 114.282C36.0274 120.519 36.6383 125.97 37.5989 130.673L23.8822 133.475ZM29.7276 150.284C27.2682 145.894 25.3857 140.226 23.9082 133.597L37.573 130.551C38.906 136.533 40.4197 140.725 41.9419 143.442L29.7276 150.284ZM38.7664 161.212C35.1176 158.212 32.1118 154.54 29.7276 150.284L41.9419 143.442C43.5393 146.294 45.4521 148.584 47.6586 150.399L38.7664 161.212ZM49.2122 167.075C45.6287 165.855 42.2006 163.878 38.9244 161.338L47.5006 150.273C49.8455 152.09 51.9214 153.208 53.7249 153.822L49.2122 167.075ZM59.6368 168.648C56.1433 168.516 52.8085 168.052 49.6628 167.212L53.2742 153.686C55.2813 154.222 57.5676 154.56 60.1637 154.658L59.6368 168.648ZM62.1838 168.653L59.9003 168.653L59.9003 154.653L62.1838 154.653L62.1838 168.653ZM75.8086 165.861C71.4469 167.711 66.8881 168.653 62.1838 168.653L62.1838 154.653C64.9744 154.653 67.6762 154.103 70.341 152.973L75.8086 165.861ZM88.324 156.858C84.4648 160.897 80.2748 164.053 75.703 165.905L70.4466 152.929C72.6671 152.03 75.2693 150.256 78.2022 147.186L88.324 156.858ZM97.9366 137.813C95.8991 145.543 92.8453 152.127 88.324 156.858L78.2022 147.186C80.4732 144.81 82.6892 140.732 84.3991 134.245L97.9366 137.813ZM101.151 114.036C100.906 123.034 99.8606 131.037 97.902 137.94L84.4337 134.118C85.9884 128.639 86.9334 121.853 87.1567 113.655L101.151 114.036ZM101.154 -0.000222311L101.154 113.845L87.1541 113.845L87.1541 -0.000225333L101.154 -0.000222311ZM94.1541 -7.00022L123.138 -7.00022L123.138 6.99978L94.1541 6.99978L94.1541 -7.00022Z" fill="#FD39C3" mask="url(#path-21-inside-11_215_2546)"/>
</svg>
