<svg width="840" height="224" viewBox="0 0 840 224" fill="none" xmlns="http://www.w3.org/2000/svg">
<g clip-path="url(#clip0_215_2337)">
<path d="M319.805 121.655L374.501 142.362C378.634 143.927 382.295 145.591 385.485 147.356C388.614 149.143 391.143 150.866 393.073 152.524C395.002 154.182 396.573 155.913 397.784 157.717C398.996 159.52 399.82 161.177 400.256 162.688C400.675 164.238 400.887 165.802 400.891 167.38C400.895 168.959 400.736 170.337 400.416 171.514C400.095 172.691 399.679 173.855 399.169 175.007L398.456 176.616C397.945 177.767 397.357 178.867 396.692 179.913C396.027 180.96 395.093 182.045 393.892 183.167C392.656 184.368 391.308 185.365 389.851 186.159C388.375 186.991 386.521 187.658 384.289 188.158C381.996 188.681 379.575 188.924 377.027 188.887C374.376 188.857 371.235 188.456 367.605 187.685C363.993 186.874 360.12 185.686 355.988 184.122L301.292 163.414C297.159 161.849 293.476 160.177 290.243 158.396C287.071 156.592 284.529 154.842 282.617 153.144C280.705 151.446 279.165 149.703 277.996 147.916C276.759 146.056 275.923 144.371 275.486 142.861C275.067 141.311 274.865 139.727 274.878 138.109C274.935 136.507 275.115 135.137 275.418 134C275.738 132.823 276.154 131.658 276.665 130.506L277.378 128.898C277.906 127.707 278.494 126.607 279.141 125.6C279.789 124.593 280.701 123.501 281.877 122.323C283.096 121.161 284.434 120.183 285.892 119.39C287.349 118.597 289.195 117.951 291.427 117.451C293.66 116.951 296.093 116.736 298.727 116.806C301.421 116.852 304.553 117.272 308.122 118.067C311.778 118.894 315.672 120.09 319.805 121.655ZM383.383 169.448C383.797 168.399 384.069 167.389 384.198 166.418C384.259 165.374 384.091 164.22 383.696 162.958C383.232 161.623 382.483 160.365 381.447 159.184C380.412 158.004 378.816 156.727 376.66 155.354C374.881 154.263 372.782 153.214 370.363 152.205L315.732 131.522C303.503 127.125 295.875 128.341 292.847 135.172L292.556 135.827C291.975 137.138 291.709 138.475 291.758 139.838C291.79 141.242 292.183 142.736 292.939 144.32C293.702 146.001 295.269 147.684 297.639 149.369C299.854 150.95 302.675 152.412 306.101 153.756L360.281 174.268C363.545 175.411 366.471 176.125 369.06 176.409C372.011 176.784 374.409 176.648 376.254 176.002C378.099 175.356 379.535 174.554 380.563 173.598C381.65 172.619 382.476 171.493 383.039 170.223L383.383 169.448Z" fill="#FD39C3"/>
<path d="M302.892 142.355L357.386 121.319C361.503 119.73 365.364 118.519 368.968 117.686C372.548 116.909 375.654 116.478 378.287 116.393C380.92 116.308 383.355 116.508 385.593 116.994C387.83 117.481 389.682 118.116 391.147 118.9C392.63 119.724 393.978 120.694 395.19 121.809C396.403 122.923 397.346 124.002 398.022 125.045C398.697 126.088 399.296 127.183 399.817 128.332L400.546 129.936C401.068 131.085 401.495 132.247 401.827 133.422C402.159 134.597 402.331 135.974 402.342 137.552C402.389 139.21 402.202 140.795 401.78 142.308C401.376 143.861 400.578 145.542 399.384 147.353C398.165 149.22 396.642 150.972 394.814 152.608C392.919 154.318 390.394 156.084 387.239 157.907C384.067 159.69 380.422 161.376 376.304 162.966L321.811 184.002C317.693 185.591 313.811 186.81 310.164 187.66C306.541 188.453 303.405 188.872 300.754 188.918C298.103 188.964 295.68 188.735 293.485 188.232C291.187 187.723 289.305 187.076 287.84 186.292C286.356 185.468 285 184.479 283.769 183.324C282.582 182.153 281.66 181.066 281.002 180.063C280.327 179.02 279.729 177.925 279.207 176.776L278.478 175.172C277.938 173.984 277.511 172.822 277.197 171.686C276.883 170.551 276.69 169.182 276.618 167.58C276.588 165.962 276.785 164.397 277.207 162.884C277.628 161.371 278.436 159.709 279.63 157.899C280.824 156.088 282.378 154.347 284.291 152.678C286.229 150.952 288.763 149.206 291.893 147.439C295.108 145.639 298.775 143.944 302.892 142.355ZM384.41 134.699C383.899 133.685 383.317 132.793 382.664 132.021C381.907 131.242 380.905 130.535 379.658 129.899C378.308 129.257 376.815 128.855 375.179 128.695C373.544 128.535 371.439 128.673 368.864 129.108C366.772 129.497 364.485 130.123 362.005 130.988L307.576 151.999C295.57 156.866 291.115 162.706 294.21 169.518L294.506 170.172C295.1 171.479 295.937 172.599 297.016 173.532C298.113 174.505 299.536 175.306 301.283 175.935C303.11 176.626 305.506 176.796 308.471 176.442C311.246 176.116 314.359 175.31 317.808 174.025L371.787 153.188C374.968 151.867 377.581 150.462 379.627 148.974C381.999 147.314 383.588 145.653 384.396 143.991C385.204 142.329 385.605 140.825 385.597 139.477C385.615 138.074 385.336 136.738 384.761 135.471L384.41 134.699Z" fill="#FD39C3"/>
<path fill-rule="evenodd" clip-rule="evenodd" d="M270.976 131.41C270.82 131.432 270.666 131.455 270.512 131.478C267.283 132.01 264.585 132.705 262.418 133.563C260.333 134.381 258.453 135.403 256.777 136.629C255.142 137.815 253.874 139.021 252.975 140.247C252.076 141.432 251.34 142.761 250.767 144.233C250.195 145.623 249.827 146.89 249.664 148.034C249.5 149.179 249.418 150.344 249.418 151.53L249.418 153.185C249.418 154.371 249.5 155.536 249.664 156.68C249.827 157.825 250.195 159.092 250.767 160.482C251.34 161.872 252.076 163.18 252.975 164.407C253.874 165.592 255.142 166.778 256.777 167.963C258.412 169.149 260.313 170.15 262.479 170.968C264.646 171.785 267.324 172.46 270.512 172.991C270.666 173.015 270.82 173.037 270.976 173.06L270.976 161.884C270.439 161.674 269.957 161.452 269.531 161.218C268.264 160.523 267.201 159.665 266.342 158.643C265.566 157.662 265.014 156.701 264.687 155.761C264.442 154.861 264.299 153.88 264.258 152.817L264.258 152.02C264.258 150.712 264.523 149.445 265.055 148.218C265.545 147.033 266.424 145.847 267.691 144.662C268.517 143.889 269.612 143.23 270.976 142.683L270.976 131.41Z" fill="#41F168"/>
<path fill-rule="evenodd" clip-rule="evenodd" d="M405.788 173.059C405.944 173.037 406.098 173.014 406.252 172.99C409.482 172.459 412.18 171.764 414.346 170.906C416.431 170.088 418.312 169.066 419.988 167.84C421.623 166.654 422.89 165.448 423.789 164.222C424.689 163.036 425.425 161.708 425.997 160.236C426.569 158.846 426.937 157.579 427.101 156.434C427.264 155.29 427.346 154.125 427.346 152.939V151.283C427.346 150.098 427.264 148.933 427.101 147.788C426.937 146.644 426.569 145.376 425.997 143.987C425.425 142.597 424.689 141.288 423.789 140.062C422.89 138.877 421.623 137.691 419.988 136.506C418.352 135.32 416.452 134.319 414.285 133.501C412.118 132.683 409.441 132.009 406.252 131.477C406.098 131.454 405.944 131.431 405.788 131.409L405.788 142.584C406.325 142.795 406.807 143.017 407.233 143.251C408.501 143.946 409.563 144.804 410.422 145.826C411.199 146.807 411.75 147.768 412.077 148.708C412.323 149.607 412.466 150.589 412.507 151.651V152.449C412.507 153.757 412.241 155.024 411.71 156.25C411.219 157.436 410.34 158.621 409.073 159.807C408.247 160.579 407.152 161.239 405.788 161.786L405.788 173.059Z" fill="#41F168"/>
<path fill-rule="evenodd" clip-rule="evenodd" d="M463.674 161.949C463.76 161.817 463.844 161.685 463.928 161.554C465.649 158.77 466.898 156.28 467.674 154.082C468.428 151.974 468.893 149.885 469.07 147.815C469.251 145.804 469.174 144.056 468.841 142.572C468.538 141.115 468.02 139.688 467.287 138.289C466.615 136.945 465.902 135.835 465.146 134.959C464.391 134.084 463.566 133.257 462.673 132.478L461.425 131.39C460.531 130.611 459.599 129.907 458.629 129.278C457.658 128.649 456.461 128.094 455.038 127.612C453.614 127.13 452.144 126.825 450.629 126.697C449.144 126.596 447.418 126.773 445.45 127.226C443.482 127.68 441.478 128.455 439.438 129.551C437.398 130.647 435.13 132.222 432.634 134.277C432.515 134.377 432.397 134.479 432.278 134.581L440.702 141.924C441.214 141.658 441.698 141.441 442.154 141.273C443.51 140.774 444.856 140.537 446.19 140.562C447.44 140.621 448.527 140.836 449.451 141.207C450.29 141.613 451.123 142.15 451.952 142.818L452.552 143.341C453.539 144.201 454.319 145.234 454.894 146.44C455.466 147.589 455.782 149.031 455.843 150.765C455.883 151.895 455.661 153.154 455.177 154.541L463.674 161.949ZM385.406 218.542L385.435 218.568L386.683 219.655L386.711 219.68L385.406 218.542Z" fill="#FD39C3"/>
<path fill-rule="evenodd" clip-rule="evenodd" d="M482.843 148.142C482.948 148.259 483.051 148.377 483.153 148.494C485.276 150.985 486.887 153.258 487.986 155.313C489.05 157.284 489.826 159.279 490.313 161.297C490.796 163.259 490.984 164.998 490.879 166.515C490.8 168.001 490.504 169.49 489.99 170.984C489.529 172.414 488.992 173.619 488.377 174.599C487.763 175.578 487.073 176.521 486.307 177.426L485.238 178.69C484.472 179.595 483.657 180.431 482.793 181.2C481.929 181.968 480.83 182.698 479.495 183.389C478.16 184.081 476.754 184.604 475.275 184.96C473.823 185.284 472.09 185.371 470.076 185.219C468.062 185.068 465.964 184.605 463.781 183.83C461.599 183.055 459.119 181.841 456.342 180.187C456.209 180.105 456.076 180.023 455.943 179.94L463.161 171.408C463.707 171.594 464.218 171.736 464.695 171.832C466.111 172.12 467.477 172.151 468.792 171.926C470.019 171.678 471.061 171.301 471.918 170.795C472.686 170.266 473.429 169.61 474.146 168.825L474.661 168.216C475.506 167.217 476.122 166.078 476.508 164.799C476.899 163.577 476.994 162.104 476.792 160.381C476.661 159.257 476.251 158.047 475.563 156.748L482.843 148.142ZM396.928 104.019L396.946 103.997L398.016 102.733L398.034 102.712L396.928 104.019Z" fill="#FD39C3"/>
<path fill-rule="evenodd" clip-rule="evenodd" d="M443.524 148.142C443.628 148.259 443.732 148.377 443.834 148.494C445.956 150.985 447.567 153.258 448.667 155.313C449.731 157.284 450.506 159.279 450.994 161.297C451.476 163.259 451.665 164.998 451.56 166.515C451.481 168.001 451.184 169.49 450.671 170.984C450.21 172.414 449.672 173.619 449.058 174.599C448.443 175.578 447.753 176.521 446.988 177.426L445.918 178.69C445.153 179.595 444.338 180.431 443.474 181.2C442.61 181.968 441.51 182.698 440.176 183.389C438.841 184.081 437.434 184.604 435.956 184.96C434.504 185.284 432.77 185.371 430.756 185.219C428.742 185.068 426.644 184.605 424.462 183.83C422.28 183.055 419.8 181.841 417.022 180.187C416.89 180.106 416.757 180.023 416.624 179.94L423.842 171.408C424.388 171.594 424.899 171.736 425.375 171.832C426.792 172.12 428.158 172.151 429.473 171.926C430.7 171.678 431.741 171.301 432.598 170.795C433.367 170.266 434.109 169.61 434.827 168.825L435.342 168.216C436.187 167.217 436.802 166.078 437.189 164.799C437.58 163.577 437.675 162.104 437.473 160.381C437.341 159.257 436.931 158.047 436.243 156.748L443.524 148.142ZM357.608 104.019L357.627 103.997L358.696 102.733L358.714 102.712L357.608 104.019Z" fill="#FD39C3"/>
<path fill-rule="evenodd" clip-rule="evenodd" d="M509.184 161.973C509.269 161.841 509.354 161.709 509.437 161.578C511.159 158.794 512.408 156.304 513.184 154.106C513.938 151.998 514.403 149.908 514.58 147.839C514.76 145.828 514.684 144.08 514.35 142.596C514.048 141.139 513.53 139.712 512.796 138.313C512.125 136.968 511.411 135.858 510.656 134.983C509.9 134.108 509.076 133.281 508.182 132.502L506.934 131.414C506.041 130.635 505.109 129.931 504.138 129.302C503.168 128.673 501.971 128.118 500.547 127.636C499.123 127.154 497.654 126.849 496.138 126.721C494.654 126.62 492.927 126.797 490.959 127.25C488.991 127.704 486.987 128.479 484.947 129.575C482.907 130.671 480.639 132.246 478.144 134.301C478.025 134.401 477.906 134.503 477.787 134.605L486.211 141.948C486.723 141.682 487.207 141.465 487.663 141.297C489.02 140.798 490.365 140.561 491.7 140.586C492.95 140.645 494.037 140.86 494.96 141.231C495.799 141.637 496.633 142.174 497.461 142.842L498.062 143.365C499.048 144.225 499.829 145.258 500.404 146.464C500.975 147.613 501.291 149.055 501.352 150.789C501.392 151.919 501.17 153.178 500.686 154.565L509.184 161.973ZM430.914 218.565L430.945 218.592L432.193 219.679L432.223 219.705L430.914 218.565Z" fill="#FD39C3"/>
<path fill-rule="evenodd" clip-rule="evenodd" d="M528.353 148.166C528.457 148.283 528.56 148.4 528.663 148.517C530.785 151.009 532.396 153.282 533.496 155.337C534.559 157.308 535.335 159.302 535.822 161.321C536.305 163.282 536.494 165.021 536.388 166.539C536.309 168.024 536.013 169.514 535.499 171.007C535.038 172.438 534.501 173.643 533.886 174.623C533.272 175.602 532.582 176.544 531.816 177.449L530.747 178.713C529.981 179.618 529.166 180.455 528.302 181.223C527.438 181.992 526.339 182.721 525.004 183.413C523.67 184.104 522.263 184.628 520.784 184.983C519.332 185.308 517.599 185.394 515.585 185.243C513.571 185.092 511.473 184.629 509.291 183.854C507.108 183.079 504.629 181.864 501.851 180.211C501.718 180.129 501.586 180.047 501.453 179.963L508.67 171.432C509.216 171.618 509.728 171.759 510.204 171.856C511.62 172.144 512.986 172.175 514.302 171.949C515.528 171.702 516.57 171.325 517.427 170.818C518.195 170.29 518.938 169.633 519.656 168.848L520.17 168.24C521.015 167.241 521.631 166.102 522.017 164.822C522.408 163.601 522.503 162.128 522.301 160.404C522.17 159.281 521.76 158.07 521.072 156.772L528.353 148.166ZM442.437 104.043L442.455 104.021L443.525 102.757L443.543 102.736L442.437 104.043Z" fill="#FD39C3"/>
<path fill-rule="evenodd" clip-rule="evenodd" d="M549.674 180.709C549.812 180.784 549.949 180.859 550.086 180.932C552.991 182.44 555.568 183.498 557.818 184.108C559.977 184.701 562.095 185.008 564.172 185.029C566.192 185.058 567.929 184.851 569.383 184.407C570.813 183.996 572.198 183.372 573.537 182.536C574.828 181.765 575.881 180.971 576.697 180.152C577.514 179.333 578.277 178.448 578.986 177.499L579.977 176.173C580.687 175.223 581.319 174.241 581.873 173.226C582.428 172.211 582.892 170.976 583.265 169.52C583.639 168.064 583.833 166.576 583.846 165.055C583.836 163.567 583.53 161.859 582.93 159.93C582.33 158.002 581.407 156.062 580.161 154.11C578.915 152.158 577.174 150.015 574.938 147.68C574.829 147.569 574.719 147.458 574.608 147.348L567.918 156.299C568.222 156.789 568.475 157.256 568.676 157.698C569.275 159.013 569.613 160.337 569.688 161.67C569.723 162.92 569.59 164.02 569.289 164.969C568.947 165.836 568.475 166.708 567.871 167.584L567.394 168.222C566.611 169.27 565.639 170.126 564.479 170.79C563.377 171.446 561.963 171.87 560.238 172.061C559.114 172.185 557.842 172.058 556.422 171.68L549.674 180.709Z" fill="#FD39C3"/>
<path fill-rule="evenodd" clip-rule="evenodd" d="M559.392 160.001C559.452 159.856 559.51 159.711 559.568 159.566C560.743 156.511 561.508 153.832 561.863 151.529C562.212 149.317 562.281 147.178 562.071 145.112C561.875 143.102 561.475 141.399 560.872 140.003C560.304 138.627 559.53 137.32 558.55 136.082C557.64 134.886 556.733 133.928 555.828 133.208C554.923 132.488 553.96 131.828 552.937 131.229L551.509 130.391C550.486 129.792 549.44 129.273 548.369 128.835C547.299 128.398 546.02 128.074 544.531 127.865C543.043 127.656 541.542 127.629 540.029 127.785C538.552 127.961 536.888 128.455 535.039 129.266C533.189 130.077 531.364 131.21 529.563 132.666C527.762 134.122 525.826 136.091 523.755 138.573C523.657 138.694 523.559 138.816 523.461 138.938L533.102 144.59C533.555 144.233 533.99 143.93 534.408 143.68C535.648 142.938 536.926 142.456 538.242 142.232C539.481 142.058 540.589 142.068 541.565 142.261C542.465 142.504 543.384 142.877 544.322 143.379L545.009 143.782C546.138 144.444 547.097 145.314 547.886 146.393C548.661 147.415 549.239 148.773 549.621 150.466C549.87 151.569 549.885 152.847 549.667 154.3L559.392 160.001Z" fill="#FD39C3"/>
<path fill-rule="evenodd" clip-rule="evenodd" d="M618.383 181.504C618.521 181.579 618.658 181.653 618.796 181.726C621.701 183.234 624.278 184.293 626.527 184.902C628.686 185.495 630.805 185.802 632.881 185.823C634.901 185.853 636.638 185.645 638.092 185.202C639.522 184.79 640.907 184.167 642.247 183.33C643.537 182.56 644.59 181.765 645.407 180.946C646.223 180.127 646.986 179.243 647.696 178.293L648.687 176.967C649.396 176.017 650.028 175.035 650.583 174.021C651.137 173.006 651.601 171.77 651.975 170.315C652.348 168.859 652.542 167.37 652.556 165.85C652.545 164.362 652.24 162.653 651.64 160.725C651.039 158.796 650.116 156.856 648.87 154.904C647.624 152.952 645.883 150.809 643.648 148.474C643.538 148.364 643.428 148.253 643.317 148.142L636.627 157.093C636.931 157.584 637.184 158.05 637.385 158.492C637.984 159.807 638.322 161.131 638.398 162.464C638.432 163.715 638.299 164.815 637.998 165.764C637.656 166.631 637.184 167.502 636.58 168.378L636.103 169.017C635.32 170.065 634.348 170.921 633.188 171.585C632.086 172.241 630.672 172.664 628.947 172.855C627.823 172.979 626.551 172.852 625.132 172.474L618.383 181.504Z" fill="#FD39C3"/>
<path fill-rule="evenodd" clip-rule="evenodd" d="M617.775 160.398C617.835 160.253 617.893 160.108 617.951 159.963C619.126 156.909 619.891 154.23 620.246 151.926C620.595 149.714 620.664 147.575 620.454 145.509C620.258 143.499 619.858 141.796 619.255 140.4C618.687 139.024 617.913 137.718 616.933 136.48C616.023 135.283 615.116 134.325 614.211 133.605C613.307 132.885 612.343 132.225 611.32 131.626L609.892 130.788C608.869 130.189 607.823 129.67 606.752 129.232C605.682 128.795 604.403 128.471 602.914 128.262C601.426 128.053 599.925 128.026 598.412 128.182C596.935 128.358 595.271 128.852 593.422 129.663C591.572 130.474 589.747 131.608 587.946 133.063C586.145 134.519 584.209 136.488 582.138 138.97C582.04 139.091 581.942 139.213 581.844 139.336L591.485 144.987C591.938 144.63 592.373 144.327 592.791 144.077C594.031 143.335 595.309 142.853 596.625 142.629C597.864 142.455 598.972 142.465 599.949 142.658C600.848 142.901 601.767 143.274 602.705 143.776L603.392 144.179C604.521 144.841 605.48 145.711 606.269 146.79C607.044 147.812 607.622 149.17 608.004 150.863C608.253 151.966 608.268 153.244 608.05 154.697L617.775 160.398Z" fill="#FD39C3"/>
<path fill-rule="evenodd" clip-rule="evenodd" d="M685.69 165.959C685.75 165.813 685.808 165.668 685.866 165.524C687.04 162.469 687.805 159.79 688.16 157.487C688.509 155.274 688.579 153.135 688.368 151.069C688.173 149.059 687.773 147.356 687.17 145.96C686.602 144.585 685.828 143.278 684.848 142.04C683.938 140.843 683.031 139.885 682.126 139.165C681.221 138.445 680.258 137.785 679.235 137.186L677.807 136.349C676.784 135.749 675.737 135.23 674.667 134.793C673.597 134.355 672.318 134.031 670.829 133.822C669.341 133.613 667.84 133.586 666.327 133.742C664.85 133.918 663.186 134.412 661.336 135.223C659.487 136.034 657.661 137.168 655.86 138.624C654.059 140.079 652.123 142.048 650.052 144.53C649.955 144.651 649.857 144.773 649.759 144.896L659.4 150.547C659.853 150.19 660.288 149.887 660.705 149.638C661.946 148.896 663.224 148.413 664.54 148.189C665.779 148.015 666.887 148.025 667.863 148.218C668.763 148.462 669.682 148.834 670.62 149.336L671.307 149.74C672.436 150.401 673.395 151.271 674.184 152.35C674.959 153.373 675.537 154.73 675.919 156.423C676.168 157.526 676.183 158.804 675.965 160.258L685.69 165.959Z" fill="#FD39C3"/>
<path d="M71.717 93.8723C65.9385 93.8723 60.6624 93.4641 55.8889 92.6475C51.1153 91.831 47.0955 90.7632 43.8294 89.4442C40.5633 88.0624 37.674 86.4294 35.1617 84.5451C32.6493 82.5351 30.7022 80.588 29.3203 78.7037C27.8757 76.7566 26.6823 74.6525 25.7402 72.3914C24.798 70.1302 24.2013 68.0889 23.9501 66.2674C23.6361 64.3831 23.479 62.5302 23.479 60.7087V58.1649C23.479 55.2757 23.7617 52.5749 24.327 50.0625C24.8923 47.5501 26.1799 44.7236 28.1898 41.5831C30.2625 38.4427 32.9319 35.7418 36.198 33.4807C39.5269 31.2195 44.2377 29.3352 50.3302 27.8278C56.4228 26.2576 63.5517 25.4724 71.717 25.4724H196.551C204.466 25.4724 211.469 26.1319 217.561 27.4509C223.591 28.8328 228.27 30.4658 231.599 32.3501C234.928 34.2972 237.66 36.527 239.796 39.0393C241.869 41.5517 243.219 43.8129 243.847 45.8228C244.413 47.8327 244.727 49.717 244.789 51.4757V52.5121H220.859C220.608 51.7583 220.356 51.0988 220.105 50.5335C219.728 49.9054 218.975 49.0261 217.844 47.8955C216.651 46.6393 215.206 45.603 213.51 44.7864C211.751 43.9071 209.239 43.1534 205.973 42.5253C202.581 41.8344 199.409 41.4889 196.457 41.4889C114.051 41.4889 72.3765 41.4889 71.4343 41.4889C67.2261 41.6146 63.5517 42.0856 60.4112 42.9022C56.7682 43.9071 54.036 45.2575 52.2145 46.9534C50.393 48.7121 49.074 50.5335 48.2575 52.4178C47.5038 54.3649 47.1269 56.4377 47.1269 58.636V59.6724C47.1269 61.8079 47.5666 63.8806 48.4459 65.8905C49.3253 67.9005 50.6757 69.8162 52.4972 71.6376C54.3815 73.5219 57.1765 74.998 60.8823 76.0657C63.96 77.0079 67.4773 77.5732 71.4343 77.7616C72.188 77.7616 114.051 77.7616 197.023 77.7616C207.763 77.7616 214.892 75.469 218.409 70.8839C219.414 69.5649 220.231 68.0575 220.859 66.3616C220.859 66.236 220.89 66.1418 220.953 66.079H244.884V67.0211C244.821 69.031 244.475 71.0409 243.847 73.0509C243.156 75.1236 241.743 77.4475 239.608 80.0228C237.472 82.598 234.708 84.8905 231.317 86.9004C227.988 88.8475 223.308 90.512 217.279 91.8938C211.249 93.2128 204.34 93.8723 196.551 93.8723H71.717ZM299.449 27.8278H379.249C385.278 27.8278 390.774 28.2047 395.736 28.9584C400.635 29.7749 404.749 30.8113 408.078 32.0675C411.407 33.3237 414.328 34.8625 416.84 36.684C419.353 38.5055 421.3 40.327 422.682 42.1484C424.063 44.0327 425.194 46.0426 426.073 48.1782C426.953 50.3137 427.518 52.2608 427.769 54.0195C428.02 55.7782 428.146 57.5682 428.146 59.3897V61.9335C428.146 63.755 428.02 65.5451 427.769 67.3038C427.518 69.0624 426.953 71.0095 426.073 73.1451C425.194 75.4062 424.063 77.4475 422.682 79.269C421.3 81.1533 419.353 83.0062 416.84 84.8277C414.265 86.712 411.376 88.2822 408.172 89.5384C404.844 90.8574 400.698 91.9252 395.736 92.7417C390.774 93.4955 385.278 93.8723 379.249 93.8723H299.449C293.419 93.8723 287.892 93.4955 282.867 92.7417C277.905 91.9252 273.759 90.8574 270.431 89.5384C267.102 88.2194 264.212 86.6492 261.763 84.8277C259.188 82.9434 257.209 81.0905 255.827 79.269C254.445 77.3847 253.315 75.3434 252.436 73.1451C251.619 70.9467 251.085 68.9996 250.834 67.3038C250.583 65.5451 250.457 63.755 250.457 61.9335V59.3897C250.457 57.5054 250.583 55.7154 250.834 54.0195C251.085 52.3236 251.619 50.3765 252.436 48.1782C253.315 45.9798 254.445 43.9699 255.827 42.1484C257.209 40.327 259.156 38.5055 261.669 36.684C264.181 34.8625 267.102 33.3237 270.431 32.0675C273.822 30.7485 277.968 29.7121 282.867 28.9584C287.892 28.2047 293.419 27.8278 299.449 27.8278ZM405.346 59.955C405.283 58.322 405.063 56.8145 404.687 55.4327C404.184 53.9881 403.336 52.5121 402.143 51.0046C400.824 49.4344 399.191 48.1154 397.244 47.0476C395.296 45.9798 392.596 45.0691 389.141 44.3154C386.315 43.7501 383.111 43.4046 379.531 43.279H299.826C282.113 43.5931 273.257 49.1517 273.257 59.955V60.9914C273.257 63.0641 273.665 65.0112 274.482 66.8327C275.298 68.717 276.617 70.5385 278.439 72.2971C280.323 74.1814 283.212 75.6575 287.107 76.7252C290.749 77.7302 295.083 78.2641 300.108 78.3269H379.154C383.865 78.2013 387.916 77.6674 391.308 76.7252C395.202 75.7203 398.123 74.3071 400.07 72.4856C402.017 70.6641 403.367 68.8426 404.121 67.0211C404.938 65.1368 405.346 63.1897 405.346 61.1798V59.955ZM436.563 93.8723V28.0162H468.502L493.374 68.9996L518.247 28.0162H549.149V93.8723H526.915V48.2724L498.556 93.8723H486.497L458.232 48.2724V93.8723H436.563ZM582.824 28.0162V93.7781H560.401V28.0162H582.824ZM594.17 28.0162H619.325L665.208 69.4707V28.0162H687.348V93.8723H665.208L616.405 50.2509V93.8723H594.17V28.0162ZM745.7 95.0029H743.628C736.216 95.0029 729.621 94.2806 723.843 92.836C718.064 91.3285 713.448 89.4442 709.993 87.1831C706.538 84.8591 703.712 82.1897 701.514 79.1748C699.378 76.0971 697.902 73.1765 697.086 70.4128C696.269 67.5864 695.861 64.76 695.861 61.9335V59.3897C695.861 56.5005 696.206 53.7368 696.897 51.0988C697.588 48.3352 699.001 45.4774 701.137 42.5253C703.335 39.4476 706.099 36.8096 709.428 34.6113C712.819 32.4129 717.53 30.5914 723.56 29.1468C729.59 27.6394 736.562 26.8857 744.476 26.8857H748.621C756.221 26.8857 762.942 27.4823 768.783 28.6757C774.687 29.8691 779.272 31.3137 782.538 33.0096C785.867 34.7683 788.568 36.841 790.641 39.2278C792.776 41.6145 794.221 43.7815 794.975 45.7286C795.666 47.7385 796.042 49.7798 796.105 51.8526V51.9468H772.175C769.788 45.6658 761.277 42.5253 746.642 42.5253C728.49 42.5253 719.414 48.4608 719.414 60.3319V61.274C719.414 66.1104 721.644 70.2872 726.104 73.8046C730.563 77.2591 737.347 78.9864 746.454 78.9864C750.474 78.9864 754.148 78.7037 757.477 78.1385C760.806 77.636 763.476 77.0079 765.485 76.2542C767.495 75.4376 769.16 74.5897 770.479 73.7104C771.861 72.7682 772.834 71.9517 773.399 71.2608C773.902 70.5699 774.185 70.0046 774.247 69.5649V69.3765H746.077V56.9401H796.576V93.7781H780.371C780.371 93.7153 780.309 90.3236 780.183 83.6029C773.023 91.2029 761.528 95.0029 745.7 95.0029ZM65.8757 188.872C58.7153 188.872 52.4658 188.307 47.1269 187.176C41.7881 186.046 37.674 184.695 34.7848 183.125C31.8955 181.492 29.5716 179.545 27.8129 177.284C26.117 175.023 25.0493 172.981 24.6096 171.16C24.1071 169.276 23.8559 167.329 23.8559 165.319V164.282H47.3154C47.6922 169.181 50.5501 172.322 55.8889 173.704C58.7153 174.395 62.2955 174.74 66.6294 174.74H195.421C198.75 174.74 201.89 174.552 204.842 174.175C207.794 173.798 209.93 173.264 211.249 172.573C212.631 171.819 213.542 171.097 213.981 170.406C214.421 169.59 214.641 168.71 214.641 167.768C214.641 166.386 214.264 165.256 213.51 164.376C212.631 163.56 210.841 162.838 208.14 162.21C205.251 161.644 201.137 161.299 195.798 161.173L65.2161 160.985L59.8459 160.891C36.4807 160.262 24.798 153.824 24.798 141.577V140.729C24.8608 138.593 25.1435 136.646 25.646 134.887C26.3369 133.066 27.4989 131.244 29.1319 129.423C30.8906 127.664 33.1517 126.157 35.9154 124.901C38.7418 123.644 42.5418 122.639 47.3154 121.886C52.0889 121.069 57.6476 120.661 63.9914 120.661H194.196C200.728 120.661 206.507 121.069 211.532 121.886C216.556 122.702 220.576 123.77 223.591 125.089C226.606 126.408 229.056 128.01 230.94 129.894C232.824 131.778 234.143 133.631 234.897 135.453C235.588 137.4 235.933 139.41 235.933 141.482V142.33H212.568C212.38 141.639 212.191 141.043 212.003 140.54C211.751 140.038 211.218 139.378 210.401 138.562C209.585 137.745 208.485 137.054 207.104 136.489C205.722 135.986 203.712 135.515 201.074 135.076C198.373 134.699 195.641 134.51 192.877 134.51H65.8757C60.9765 134.51 57.0823 134.793 54.193 135.358C51.3038 135.986 49.5451 136.646 48.917 137.337C48.2889 138.028 47.9749 138.97 47.9749 140.163C48.0377 141.294 48.3831 142.205 49.0112 142.896C49.7021 143.586 51.3038 144.246 53.8162 144.874C56.3914 145.439 60.0029 145.753 64.6509 145.816L193.442 145.91L200.226 146.005C213.667 146.256 223.34 147.92 229.244 150.998C235.211 154.076 238.194 158.943 238.194 165.601V166.826C238.194 169.213 237.912 171.38 237.346 173.327C236.781 175.274 235.588 177.252 233.766 179.262C232.008 181.21 229.621 182.874 226.606 184.256C223.591 185.638 219.477 186.768 214.264 187.648C209.113 188.464 203.052 188.872 196.08 188.872H65.8757ZM701.634 123.016H726.789L772.671 164.471V123.016H794.812V188.872H772.671L723.868 145.251V188.872H701.634V123.016Z" fill="#CEFFD9"/>
</g>
<defs>
<clipPath id="clip0_215_2337">
<rect width="840" height="223.206" fill="white"/>
</clipPath>
</defs>
</svg>
