<svg width="79" height="77" viewBox="0 0 79 77" fill="none" xmlns="http://www.w3.org/2000/svg">
<g id="Group 376">
<path id="Vector" d="M0.123535 0L19.5294 10.5189V1.39927H34.9702V35.45L15.5643 24.9311V34.0508H0.123535V0Z" fill="#D4FF33"/>
<path id="Vector_2" d="M38.2542 17.6787C38.2542 7.78905 45.9056 0.605957 56.2579 0.605957C66.6102 0.605957 74.2645 7.78905 74.2645 17.6787C74.2645 27.5684 66.613 34.7975 56.2579 34.7975C45.9027 34.7975 38.2542 27.6144 38.2542 17.6787ZM58.8495 17.6787C58.8495 16.1847 57.683 15.1129 56.2378 15.1129C54.7925 15.1129 53.672 16.1847 53.672 17.6787C53.672 19.1728 54.7925 20.2905 56.2378 20.2905C57.683 20.2905 58.8495 19.1728 58.8495 17.6787Z" fill="#D4FF33"/>
<path id="Vector_3" d="M17.3084 42L21.2505 49.2032L25.1897 42H42.4952L21.2476 76.5162L0 42H17.3055H17.3084Z" fill="#D4FF33"/>
<path id="Vector_4" d="M56.1814 40L78.3599 74.5162H60.1235L56.1814 67.7814L52.2393 74.5162H34L56.1814 40Z" fill="#D4FF33"/>
</g>
</svg>
