<svg width="270" height="113" viewBox="0 0 270 113" fill="none" xmlns="http://www.w3.org/2000/svg">
<path d="M106.68 9.2157L189.58 40.601C195.844 42.9726 201.393 45.4952 206.228 48.1691C210.97 50.8784 214.804 53.4897 217.728 56.0028C220.653 58.5159 223.033 61.1393 224.869 63.873C226.705 66.6067 227.954 69.1181 228.616 71.4071C229.251 73.7564 229.571 76.1272 229.578 78.5196C229.584 80.9119 229.344 83.0002 228.858 84.7844C228.371 86.5686 227.741 88.3335 226.968 90.0791L225.887 92.5169C225.113 94.2625 224.222 95.9285 223.214 97.5151C222.205 99.1017 220.791 100.745 218.97 102.446C217.096 104.267 215.054 105.779 212.845 106.981C210.609 108.243 207.799 109.253 204.415 110.01C200.939 110.803 197.271 111.172 193.409 111.116C189.39 111.071 184.63 110.463 179.129 109.294C173.654 108.065 167.784 106.265 161.52 103.893L78.6202 72.5079C72.3562 70.1364 66.7743 67.6014 61.8745 64.9028C57.0667 62.1688 53.2138 59.5151 50.316 56.9418C47.4181 54.3685 45.0838 51.7273 43.3129 49.0183C41.4382 46.1997 40.17 43.6459 39.5084 41.3569C38.8735 39.0076 38.5662 36.6067 38.5867 34.1542C38.6725 31.7263 38.9451 29.6503 39.4046 27.9263C39.8908 26.1421 40.5208 24.3773 41.2947 22.6317L42.3754 20.1939C43.176 18.3881 44.067 16.722 45.0485 15.1957C46.03 13.6693 47.4119 12.0133 49.1941 10.2277C51.0416 8.46682 53.07 6.98532 55.2794 5.78322C57.4888 4.58111 60.2854 3.60133 63.6693 2.84387C67.0531 2.08642 70.7411 1.76041 74.733 1.86583C78.8169 1.93576 83.5637 2.573 88.9734 3.77753C94.5136 5.03148 100.416 6.8442 106.68 9.2157ZM203.042 81.6536C203.67 80.0639 204.082 78.5328 204.278 77.0603C204.37 75.4783 204.116 73.7303 203.517 71.8163C202.813 69.7927 201.677 67.8864 200.108 66.0974C198.539 64.3083 196.12 62.3733 192.852 60.2923C190.156 58.6389 186.975 57.048 183.309 55.5195L100.507 24.1712C81.9727 17.5059 70.4109 19.3498 65.821 29.7029L65.3807 30.696C64.5001 32.6824 64.097 34.7089 64.1713 36.7756C64.219 38.9025 64.8154 41.1669 65.9605 43.5687C67.1174 46.1155 69.4918 48.6664 73.0836 51.2213C76.4412 53.6171 80.7166 55.8333 85.9099 57.8697L168.027 88.9586C172.974 90.691 177.41 91.7727 181.333 92.2038C185.806 92.7723 189.44 92.5667 192.237 91.5869C195.034 90.6071 197.21 89.3926 198.767 87.9435C200.416 86.4589 201.667 84.7535 202.521 82.8273L203.042 81.6536Z" fill="#FD39C3"/>
<path d="M81.0464 40.5897L163.639 8.70699C169.88 6.2979 175.732 4.4623 181.195 3.20018C186.62 2.02319 191.328 1.36999 195.318 1.24058C199.309 1.11117 203 1.415 206.391 2.15209C209.783 2.88918 212.589 3.85213 214.81 5.04092C217.058 6.28974 219.101 7.759 220.938 9.4487C222.775 11.1384 224.206 12.7735 225.229 14.3539C226.253 15.9344 227.16 17.5951 227.951 19.336L229.055 21.7672C229.846 23.5081 230.493 25.2691 230.997 27.0503C231.5 28.8316 231.76 30.9183 231.777 33.3107C231.849 35.8231 231.565 38.2258 230.926 40.5187C230.314 42.8717 229.103 45.4206 227.293 48.1652C225.446 50.995 223.137 53.6501 220.367 56.1305C217.495 58.7212 213.668 61.3979 208.887 64.1608C204.078 66.8636 198.554 69.4196 192.313 71.8287L109.72 103.711C103.479 106.121 97.5951 107.969 92.0672 109.256C86.5771 110.458 81.823 111.094 77.8049 111.163C73.7868 111.232 70.1147 110.886 66.7886 110.124C63.3052 109.352 60.453 108.371 58.232 107.183C55.9837 105.934 53.9273 104.435 52.0628 102.685C50.2633 100.91 48.8653 99.2624 47.869 97.7419C46.8455 96.1615 45.9383 94.5008 45.1475 92.7599L44.043 90.3287C43.225 88.5278 42.5778 86.7667 42.1016 85.0456C41.6253 83.3244 41.3325 81.2501 41.2232 78.8228C41.1789 76.3705 41.4764 73.9978 42.1158 71.7048C42.7552 69.4119 43.9796 66.8931 45.7891 64.1484C47.5986 61.4037 49.9534 58.7661 52.8534 56.2355C55.7912 53.6197 59.6318 50.973 64.3752 48.2953C69.2486 45.5673 74.8057 42.9988 81.0464 40.5897ZM204.598 28.9856C203.824 27.4499 202.942 26.097 201.952 24.9269C200.805 23.747 199.287 22.675 197.397 21.7111C195.35 20.7374 193.087 20.1292 190.608 19.8866C188.13 19.644 184.939 19.8527 181.036 20.5125C177.865 21.1015 174.4 22.0511 170.64 23.3615L88.1447 55.2066C69.9488 62.5834 63.196 71.4344 67.8864 81.7596L68.3363 82.7501C69.2362 84.7311 70.5041 86.4289 72.14 87.8436C73.8032 89.3183 75.9592 90.5321 78.608 91.4852C81.3763 92.5333 85.0075 92.7897 89.5016 92.2543C93.7083 91.7593 98.4257 90.538 103.654 88.5905L185.466 57.0089C190.287 55.0067 194.248 52.8779 197.35 50.6223C200.944 48.1059 203.353 45.5884 204.578 43.0696C205.802 40.5507 206.409 38.2703 206.398 36.2283C206.425 34.1012 206.003 32.0771 205.13 30.1562L204.598 28.9856Z" fill="#FD39C3"/>
<path fill-rule="evenodd" clip-rule="evenodd" d="M32.6741 24.0004C32.4384 24.0342 32.2039 24.0688 31.9707 24.1042C27.0759 24.9097 22.9867 25.963 19.7029 27.2641C16.543 28.5033 13.6929 30.0522 11.1526 31.911C8.67424 33.7078 6.75352 35.5356 5.39043 37.3943C4.02734 39.1911 2.91208 41.2048 2.04465 43.4353C1.17724 45.5419 0.619617 47.4626 0.371776 49.1974C0.123943 50.9323 2.5898e-05 52.6981 2.5741e-05 54.4949L2.55216e-05 57.0042C2.53645e-05 58.801 0.123942 60.5668 0.371775 62.3017C0.619616 64.0365 1.17723 65.9572 2.04465 68.0638C2.91207 70.1704 4.02734 72.1531 5.39043 74.0119C6.75352 75.8087 8.67424 77.6055 11.1526 79.4023C13.6309 81.1991 16.512 82.7171 19.7958 83.9562C23.0796 85.1954 27.1379 86.2177 31.9707 87.0232C32.2039 87.0586 32.4384 87.0932 32.6741 87.127L32.6741 70.1893C31.8598 69.8701 31.1297 69.5334 30.4837 69.1791C28.563 68.1258 26.952 66.8247 25.6509 65.2757C24.4737 63.7887 23.6372 62.3327 23.1416 60.9076C22.7698 59.5445 22.553 58.0575 22.491 56.4466L22.491 55.2384C22.491 53.2557 22.8937 51.335 23.6992 49.4763C24.4427 47.6795 25.7748 45.8827 27.6955 44.0859C28.9472 42.9149 30.6067 41.915 32.6741 41.0862L32.6741 24.0004Z" fill="#41F168"/>
<path fill-rule="evenodd" clip-rule="evenodd" d="M237 87.1265C237.236 87.0928 237.47 87.0582 237.704 87.0228C242.598 86.2173 246.688 85.164 249.971 83.8629C253.131 82.6237 255.981 81.0747 258.522 79.216C261 77.4192 262.921 75.5914 264.284 73.7326C265.647 71.9358 266.762 69.9222 267.63 67.6917C268.497 65.5851 269.055 63.6644 269.303 61.9295C269.55 60.1947 269.674 58.4288 269.674 56.632V54.1227C269.674 52.3259 269.55 50.5601 269.303 48.8253C269.055 47.0904 268.497 45.1697 267.63 43.0631C266.762 40.9565 265.647 38.9738 264.284 37.1151C262.921 35.3183 261 33.5215 258.522 31.7247C256.043 29.9279 253.162 28.4099 249.879 27.1707C246.595 25.9315 242.536 24.9092 237.704 24.1038C237.47 24.0683 237.236 24.0337 237 24V40.9376C237.814 41.2568 238.545 41.5936 239.191 41.9479C241.111 43.0012 242.722 44.3023 244.023 45.8512C245.201 47.3383 246.037 48.7943 246.533 50.2193C246.905 51.5824 247.121 53.0694 247.183 54.6804V55.8885C247.183 57.8712 246.781 59.7919 245.975 61.6507C245.232 63.4475 243.9 65.2443 241.979 67.0411C240.727 68.212 239.068 69.2119 237 70.0408V87.1265Z" fill="#41F168"/>
</svg>
