<svg width="171" height="69" viewBox="0 0 171 69" fill="none" xmlns="http://www.w3.org/2000/svg">
<rect width="171" height="69" rx="20" fill="#D4FF33"/>
<path d="M47.92 43H43.804L40.976 35.412H39.044V43H35.124V23.68H41.172C44.896 23.68 47.332 25.668 47.332 29.588C47.332 32.192 46.296 33.9 44.644 34.74L47.92 43ZM39.044 32.108H40.724C42.376 32.108 43.412 31.604 43.412 29.588C43.412 27.572 42.376 27.012 40.724 27.012H39.044V32.108ZM49.999 23.68H60.191V26.984H53.919V31.352H59.491V34.656H53.919V39.696H60.191V43H49.999V23.68ZM74.2831 29.672H70.5591C70.3631 27.852 69.7751 26.732 68.3751 26.732C66.6391 26.732 65.9111 28.272 65.9111 31.968V34.712C65.9111 38.296 66.6391 39.948 68.3751 39.948C69.7751 39.948 70.4751 38.884 70.5871 36.252H68.4311V32.948H74.3391V34.684C74.3391 40.256 72.6031 43.252 68.3751 43.252C64.5951 43.252 61.9911 40.62 61.9911 34.712V31.968C61.9911 26.004 64.5951 23.428 68.3751 23.428C71.5391 23.428 73.7511 25.444 74.2831 29.672ZM81.2407 23.68V43H77.3207V23.68H81.2407ZM95.8689 26.564L93.0409 28.608C92.2569 27.46 91.4169 26.732 90.2689 26.732C88.9249 26.732 88.2809 27.544 88.2809 28.86C88.2809 30.372 89.1209 30.988 91.1649 31.66C94.6369 32.78 96.0929 34.208 96.0929 37.624C96.0929 40.788 94.0769 43.252 90.3529 43.252C87.4689 43.252 85.4809 42.328 83.9689 40.088L86.9089 38.016C87.8049 39.136 88.6449 39.948 90.0729 39.948C91.6409 39.948 92.1729 38.968 92.1729 37.792C92.1729 36.448 91.5569 35.692 89.1209 34.908C85.8729 33.844 84.3609 32.052 84.3609 28.86C84.3609 25.808 86.1809 23.428 90.1009 23.428C92.6769 23.428 94.7489 24.436 95.8689 26.564ZM97.0515 23.68H109.371V27.012H105.171V43H101.251V27.012H97.0515V23.68ZM111.194 23.68H121.386V26.984H115.114V31.352H120.686V34.656H115.114V39.696H121.386V43H111.194V23.68ZM136.486 43H132.37L129.542 35.412H127.61V43H123.69V23.68H129.738C133.462 23.68 135.898 25.668 135.898 29.588C135.898 32.192 134.862 33.9 133.21 34.74L136.486 43ZM127.61 32.108H129.29C130.942 32.108 131.978 31.604 131.978 29.588C131.978 27.572 130.942 27.012 129.29 27.012H127.61V32.108Z" fill="#3A307C"/>
</svg>
