<svg width="1031" height="113" viewBox="0 0 1031 113" fill="none" xmlns="http://www.w3.org/2000/svg">
<path d="M372.964 8.03076L409.085 21.7057L445.205 35.3806C450.664 37.4472 455.499 39.6455 459.712 41.9756C463.845 44.3366 467.186 46.6121 469.734 48.802C472.283 50.992 474.357 53.2781 475.957 55.6603C477.557 58.0425 478.645 60.231 479.222 62.2257C479.775 64.2729 480.055 66.3389 480.06 68.4236C480.066 70.5084 479.856 72.3282 479.433 73.883C479.009 75.4378 478.46 76.9757 477.786 78.4969L476.844 80.6212C476.169 82.1423 475.393 83.5942 474.514 84.9768C473.636 86.3594 472.403 87.7917 470.817 89.2737C469.183 90.8606 467.404 92.1778 465.479 93.2254C463.53 94.3254 461.082 95.2054 458.133 95.8655C455.104 96.5565 451.907 96.8775 448.542 96.8287C445.04 96.7893 440.892 96.2602 436.098 95.2415C431.327 94.1703 426.212 92.6014 420.753 90.5349L348.513 63.185C343.054 61.1184 338.19 58.9093 333.92 56.5577C329.73 54.1752 326.373 51.8628 323.848 49.6203C321.322 47.3779 319.288 45.0763 317.745 42.7157C316.111 40.2595 315.006 38.034 314.43 36.0393C313.876 33.9921 313.609 31.8999 313.627 29.7627C313.701 27.647 313.939 25.838 314.339 24.3356C314.763 22.7808 315.312 21.2429 315.986 19.7217L316.928 17.5974C317.626 16.0238 318.402 14.572 319.257 13.2418C320.113 11.9117 321.317 10.4687 322.87 8.91265C324.48 7.37817 326.248 6.08716 328.173 5.03962C330.098 3.99208 332.535 3.13828 335.484 2.47821C338.433 1.81816 341.647 1.53406 345.125 1.62593C348.684 1.68686 352.82 2.24216 357.535 3.29183C362.362 4.38454 367.506 5.96418 372.964 8.03076ZM456.936 71.1547C457.484 69.7694 457.843 68.4352 458.013 67.1521C458.093 65.7734 457.872 64.2502 457.35 62.5823C456.737 60.8189 455.747 59.1577 454.38 57.5987C453.013 56.0396 450.905 54.3534 448.056 52.54C445.707 51.0992 442.935 49.7129 439.741 48.3809L367.585 21.0633C351.434 15.255 341.359 16.8618 337.359 25.8837L336.975 26.7492C336.208 28.4801 335.857 30.2461 335.922 32.0471C335.963 33.9005 336.483 35.8737 337.481 37.9667C338.489 40.1861 340.558 42.4089 343.688 44.6353C346.614 46.7231 350.339 48.6543 354.865 50.4289L426.424 77.5205C430.735 79.0301 434.6 79.9727 438.019 80.3484C441.916 80.8438 445.084 80.6646 447.521 79.8108C449.958 78.957 451.855 77.8987 453.211 76.6359C454.648 75.3421 455.739 73.856 456.483 72.1775L456.936 71.1547Z" fill="#FD39C3"/>
<path d="M350.627 35.3708L422.6 7.58746C428.038 5.48812 433.138 3.88854 437.898 2.78871C442.626 1.76305 446.728 1.19384 450.206 1.08107C453.684 0.968295 456.9 1.23306 459.855 1.87538C462.81 2.5177 465.256 3.35683 467.191 4.39276C469.15 5.48101 470.93 6.76136 472.531 8.2338C474.132 9.70624 475.379 11.1311 476.271 12.5083C477.163 13.8856 477.953 15.3327 478.642 16.8498L479.605 18.9684C480.294 20.4854 480.858 22.02 481.297 23.5722C481.735 25.1244 481.962 26.9429 481.977 29.0277C482.039 31.217 481.792 33.3108 481.235 35.3089C480.702 37.3594 479.646 39.5805 478.07 41.9722C476.46 44.4381 474.448 46.7519 472.034 48.9134C469.531 51.1709 466.196 53.5035 462.03 55.9111C457.839 58.2664 453.025 60.4938 447.587 62.5931L375.614 90.3764C370.175 92.4757 365.048 94.0862 360.231 95.2079C355.446 96.2555 351.304 96.8095 347.802 96.8699C344.301 96.9304 341.101 96.6285 338.202 95.9643C335.167 95.2916 332.681 94.4372 330.746 93.4013C328.787 92.313 326.995 91.0065 325.37 89.4818C323.802 87.9352 322.584 86.4994 321.715 85.1744C320.823 83.7972 320.033 82.35 319.344 80.833L318.381 78.7144C317.668 77.145 317.104 75.6104 316.689 74.1105C316.274 72.6107 316.019 70.8031 315.924 68.6879C315.885 66.5509 316.145 64.4833 316.702 62.4851C317.259 60.487 318.326 58.2921 319.903 55.9003C321.48 53.5086 323.532 51.2101 326.059 49.0048C328.619 46.7254 331.966 44.419 336.099 42.0855C340.346 39.7084 345.189 37.4701 350.627 35.3708ZM458.293 25.2587C457.618 23.9204 456.849 22.7415 455.987 21.7218C454.987 20.6936 453.664 19.7595 452.017 18.9195C450.233 18.071 448.262 17.541 446.101 17.3296C443.941 17.1182 441.161 17.3 437.76 17.875C434.997 18.3883 431.977 19.2158 428.701 20.3577L356.812 48.1082C340.956 54.5365 335.072 62.2495 339.159 71.2471L339.551 72.1102C340.335 73.8365 341.44 75.316 342.866 76.5488C344.315 77.8339 346.194 78.8917 348.502 79.7222C350.914 80.6355 354.079 80.8589 357.995 80.3924C361.661 79.961 365.771 78.8968 370.327 77.1997L441.62 49.6788C445.822 47.934 449.274 46.0789 451.976 44.1134C455.108 41.9206 457.208 39.7267 458.275 37.5317C459.342 35.3368 459.871 33.3496 459.861 31.5701C459.885 29.7165 459.516 27.9527 458.756 26.2787L458.293 25.2587Z" fill="#FD39C3"/>
<path d="M26 16H57.141L113.941 67.3184V16H141.35V97.5263H113.941L53.5253 43.5253V97.5263H26V16Z" fill="#CEFFD9"/>
<path d="M984.657 98.2772L976.259 83.3482H794.079L786.148 98.2772H757.689L802.71 16.5176H967.045L1014.75 98.2772H984.657ZM949.317 35.2955H819.971L804.109 64.8036H965.996L949.317 35.2955Z" fill="#CEFFD9"/>
<path d="M727.893 97.2266H693.72L648 16.75H679.141L711.565 75.8828L741.889 16.75H770.464L727.893 97.2266Z" fill="#CEFFD9"/>
<path fill-rule="evenodd" clip-rule="evenodd" d="M306.461 29.9994L262.187 29.9994C257.913 29.9994 254.018 30.2665 250.501 30.8007C246.984 31.3794 244.045 32.1363 241.686 33.0711C239.415 33.9615 237.368 35.0745 235.542 36.41C233.762 37.7011 232.382 39.0144 231.402 40.3499C230.423 41.641 229.621 43.0878 228.998 44.6905C228.375 46.2041 227.974 47.5842 227.796 48.8307C227.618 50.0772 227.529 51.346 227.529 52.637L227.529 54.44C227.529 55.7311 227.618 56.9998 227.796 58.2463C227.974 59.4929 228.375 60.8729 228.998 62.3866C229.621 63.9002 230.423 65.3248 231.402 66.6603C232.382 67.9514 233.762 69.2424 235.542 70.5334C237.323 71.8245 239.393 72.9152 241.753 73.8056C244.112 74.6959 247.028 75.4305 250.501 76.0092C254.018 76.5434 257.913 76.8106 262.187 76.8106L290.467 76.8105L306.461 76.8105L306.461 65.859L261.986 65.859C259.449 65.77 257.178 65.5251 255.175 65.1245C252.726 64.5902 250.812 63.9447 249.432 63.1879C248.052 62.4311 246.895 61.4962 245.96 60.3832C245.114 59.3148 244.513 58.2686 244.157 57.2447C243.89 56.2653 243.734 55.1968 243.689 54.0394L243.689 53.1712C243.689 51.7467 243.979 50.3666 244.557 49.031C245.092 47.74 246.049 46.449 247.429 45.1579C248.809 43.8669 250.879 42.8652 253.639 42.1529C256.043 41.4851 258.915 41.1067 262.253 41.0177L306.461 41.0177L306.461 29.9994Z" fill="#41F168"/>
<path fill-rule="evenodd" clip-rule="evenodd" d="M489 72.8131L533.274 72.8131C537.548 72.8131 541.443 72.546 544.96 72.0118C548.477 71.4331 551.416 70.6762 553.775 69.7414C556.045 68.851 558.093 67.738 559.919 66.4025C561.699 65.1114 563.079 63.7981 564.059 62.4626C565.038 61.1715 565.84 59.7247 566.463 58.122C567.086 56.6084 567.487 55.2283 567.665 53.9818C567.843 52.7353 567.932 51.4665 567.932 50.1755V48.3725C567.932 47.0815 567.843 45.8127 567.665 44.5662C567.487 43.3196 567.086 41.9396 566.463 40.4259C565.84 38.9123 565.038 37.4877 564.059 36.1522C563.079 34.8611 561.699 33.5701 559.919 32.2791C558.138 30.988 556.068 29.8973 553.708 29.007C551.349 28.1166 548.433 27.382 544.96 26.8033C541.443 26.2691 537.548 26.002 533.274 26.002L504.994 26.002L489 26.002L489 36.9535L533.475 36.9535C536.012 37.0425 538.283 37.2874 540.286 37.6881C542.734 38.2223 544.649 38.8678 546.029 39.6246C547.409 40.3814 548.566 41.3163 549.501 42.4293C550.347 43.4977 550.948 44.5439 551.304 45.5678C551.571 46.5472 551.727 47.6157 551.772 48.7732V49.6413C551.772 51.0659 551.482 52.4459 550.904 53.7815C550.369 55.0725 549.412 56.3636 548.032 57.6546C546.652 58.9456 544.582 59.9473 541.822 60.6596C539.418 61.3274 536.546 61.7058 533.208 61.7948L489 61.7948L489 72.8131Z" fill="#41F168"/>
<path fill-rule="evenodd" clip-rule="evenodd" d="M223.631 30.0013L218.766 30.0013C214.492 30.0013 210.597 30.2684 207.08 30.8027C203.563 31.3814 200.625 32.1382 198.265 33.0731C195.995 33.9635 193.947 35.0764 192.122 36.412C190.341 37.703 188.961 39.0163 187.981 40.3519C187.002 41.6429 186.201 43.0898 185.578 44.6924C184.954 46.2061 184.554 47.5861 184.376 48.8326C184.197 50.0792 184.108 51.3479 184.108 52.639L184.108 54.442C184.108 55.733 184.197 57.0018 184.376 58.2483C184.554 59.4948 184.954 60.8749 185.578 62.3885C186.201 63.9021 187.002 65.3267 187.982 66.6623C188.961 67.9533 190.341 69.2444 192.122 70.5354C193.902 71.8264 195.973 72.9171 198.332 73.8075C200.692 74.6979 203.607 75.4324 207.08 76.0112C210.597 76.5454 214.492 76.8125 218.766 76.8125L223.631 76.8125L223.631 65.861L218.566 65.861C216.028 65.7719 213.758 65.5271 211.754 65.1264C209.306 64.5922 207.392 63.9467 206.011 63.1898C204.631 62.433 203.474 61.4981 202.539 60.3852C201.693 59.3167 201.092 58.2706 200.736 57.2466C200.469 56.2672 200.313 55.1988 200.269 54.0413L200.269 53.1732C200.269 51.7486 200.558 50.3685 201.137 49.033C201.671 47.7419 202.628 46.4509 204.008 45.1599C205.388 43.8688 207.458 42.8672 210.218 42.1549C212.622 41.4871 215.494 41.1087 218.833 41.0196L223.631 41.0196L223.631 30.0013Z" fill="#41F168"/>
<path fill-rule="evenodd" clip-rule="evenodd" d="M571.83 72.8112L576.695 72.8112C580.969 72.8112 584.864 72.5441 588.381 72.0098C591.898 71.4311 594.836 70.6743 597.196 69.7394C599.466 68.849 601.514 67.7361 603.339 66.4005C605.12 65.1095 606.5 63.7962 607.479 62.4606C608.459 61.1696 609.26 59.7227 609.883 58.1201C610.507 56.6064 610.907 55.2264 611.085 53.9799C611.264 52.7333 611.353 51.4646 611.353 50.1735V48.3705C611.353 47.0795 611.264 45.8107 611.085 44.5642C610.907 43.3177 610.507 41.9376 609.883 40.424C609.26 38.9104 608.459 37.4858 607.479 36.1502C606.5 34.8592 605.12 33.5681 603.339 32.2771C601.558 30.9861 599.488 29.8954 597.129 29.005C594.769 28.1146 591.853 27.3801 588.381 26.8013C584.864 26.2671 580.969 26 576.695 26L571.83 26V36.9515L576.895 36.9515C579.433 37.0406 581.703 37.2854 583.707 37.6861C586.155 38.2203 588.069 38.8658 589.449 39.6227C590.83 40.3795 591.987 41.3144 592.922 42.4273C593.768 43.4958 594.369 44.5419 594.725 45.5659C594.992 46.5453 595.148 47.6137 595.192 48.7712V49.6393C595.192 51.0639 594.903 52.444 594.324 53.7795C593.79 55.0706 592.833 56.3616 591.453 57.6526C590.073 58.9437 588.003 59.9453 585.242 60.6576C582.838 61.3254 579.967 61.7038 576.628 61.7929L571.83 61.7929V72.8112Z" fill="#41F168"/>
<path fill-rule="evenodd" clip-rule="evenodd" d="M180.477 29.9997C180.307 30.0239 180.138 30.0488 179.971 30.0743C176.454 30.653 173.516 31.4098 171.156 32.3447C168.886 33.2351 166.838 34.3481 165.012 35.6836C163.232 36.9747 161.852 38.288 160.872 39.6235C159.893 40.9145 159.092 42.3614 158.468 43.9641C157.845 45.4777 157.444 46.8578 157.266 48.1043C157.088 49.3508 156.999 50.6196 156.999 51.9106L156.999 53.7136C156.999 55.0046 157.088 56.2734 157.266 57.5199C157.444 58.7664 157.845 60.1465 158.468 61.6601C159.092 63.1738 159.893 64.5984 160.872 65.9339C161.852 67.225 163.232 68.516 165.012 69.807C166.793 71.0981 168.863 72.1888 171.223 73.0791C173.582 73.9695 176.498 74.7041 179.971 75.2828C180.138 75.3083 180.307 75.3332 180.477 75.3574L180.477 63.1875C179.891 62.9581 179.367 62.7161 178.902 62.4615C177.522 61.7047 176.365 60.7698 175.43 59.6568C174.584 58.5884 173.983 57.5422 173.627 56.5183C173.36 55.5389 173.204 54.4704 173.159 53.3129L173.159 52.4448C173.159 51.0202 173.449 49.6402 174.027 48.3046C174.562 47.0136 175.519 45.7225 176.899 44.4315C177.798 43.5901 178.991 42.8716 180.477 42.276L180.477 29.9997Z" fill="#41F168"/>
<path fill-rule="evenodd" clip-rule="evenodd" d="M614.984 72.8128C615.154 72.7886 615.322 72.7637 615.49 72.7382C619.007 72.1595 621.945 71.4027 624.305 70.4678C626.575 69.5774 628.623 68.4644 630.448 67.1289C632.229 65.8378 633.609 64.5246 634.589 63.189C635.568 61.898 636.369 60.4511 636.993 58.8484C637.616 57.3348 638.017 55.9547 638.195 54.7082C638.373 53.4617 638.462 52.1929 638.462 50.9019V49.0989C638.462 47.8079 638.373 46.5391 638.195 45.2926C638.017 44.0461 637.616 42.666 636.993 41.1524C636.369 39.6387 635.568 38.2141 634.589 36.8786C633.609 35.5875 632.229 34.2965 630.448 33.0055C628.668 31.7144 626.598 30.6237 624.238 29.7334C621.879 28.843 618.963 28.1084 615.49 27.5297C615.322 27.5042 615.154 27.4793 614.984 27.4551V39.625C615.57 39.8544 616.094 40.0964 616.559 40.351C617.939 41.1078 619.096 42.0427 620.031 43.1557C620.877 44.2241 621.478 45.2703 621.834 46.2942C622.101 47.2736 622.257 48.3421 622.302 49.4996V50.3677C622.302 51.7923 622.012 53.1723 621.433 54.5079C620.899 55.7989 619.942 57.09 618.562 58.381C617.663 59.2224 616.47 59.9409 614.984 60.5365V72.8128Z" fill="#41F168"/>
</svg>
