<svg width="152" height="152" viewBox="0 0 152 152" fill="none" xmlns="http://www.w3.org/2000/svg">
<path d="M26.8516 94.075C22.6985 94.075 19.0228 93.6933 15.8245 92.9297C12.5785 92.2139 9.97684 91.2833 8.01966 90.138C6.11022 88.9927 4.53493 87.6088 3.29379 85.9862C2.00492 84.3637 1.14567 82.7889 0.716041 81.2618C0.23868 79.687 0 78.0645 0 76.3942V75.2489C0 73.5309 0.23868 71.9084 0.716041 70.3813C1.1934 68.8542 2.02878 67.3033 3.22219 65.7285C4.46333 64.1537 6.03862 62.8175 7.94806 61.7199C9.90524 60.5746 12.483 59.6679 15.6813 58.9998C18.9274 58.2839 22.6269 57.926 26.7799 57.926H78.9078C96.7133 57.926 105.616 63.7003 105.616 75.2489V76.3942C105.616 88.1814 96.7133 94.075 78.9078 94.075H26.8516ZM76.9745 84.8409C81.7003 84.6023 84.9702 83.7433 86.7842 82.264C88.8846 80.4983 89.9348 78.3985 89.9348 75.9647V75.6784C89.9348 73.1969 88.8846 71.1449 86.7842 69.5223C84.6361 67.8521 81.3423 67.017 76.9029 67.017H27.7108C24.1306 67.017 21.4096 67.6612 19.5479 68.9497C19.3092 69.1406 19.0944 69.3076 18.9035 69.4508C16.8508 71.121 15.8245 73.1969 15.8245 75.6784V75.9647C15.8245 78.3985 16.8747 80.4983 18.9751 82.264C20.8845 83.8388 23.51 84.6978 26.8516 84.8409C27.2812 84.8409 27.6869 84.8409 28.0688 84.8409C59.9565 84.8409 76.2584 84.8409 76.9745 84.8409Z" fill="#FD39C3"/>
<path d="M49.2816 94.075C45.1286 94.075 41.4529 93.6933 38.2546 92.9297C35.0085 92.2139 32.4069 91.2833 30.4497 90.138C28.5403 88.9927 26.965 87.6088 25.7238 85.9862C24.435 84.3637 23.5757 82.7889 23.1461 81.2618C22.6687 79.687 22.4301 78.0645 22.4301 76.3942V75.2489C22.4301 73.5309 22.6687 71.9084 23.1461 70.3813C23.6235 68.8542 24.4588 67.3033 25.6522 65.7285C26.8934 64.1537 28.4687 62.8175 30.3781 61.7199C32.3353 60.5746 34.913 59.6679 38.1114 58.9998C41.3574 58.2839 45.057 57.926 49.21 57.926H101.338C119.143 57.926 128.046 63.7003 128.046 75.2489V76.3942C128.046 88.1814 119.143 94.075 101.338 94.075H49.2816ZM99.4045 84.8409C104.13 84.6023 107.4 83.7433 109.214 82.264C111.315 80.4983 112.365 78.3985 112.365 75.9647V75.6784C112.365 73.1969 111.315 71.1449 109.214 69.5223C107.066 67.8521 103.772 67.017 99.3329 67.017H50.1409C46.5606 67.017 43.8397 67.6612 41.978 68.9497C41.7393 69.1406 41.5245 69.3076 41.3335 69.4508C39.2809 71.121 38.2546 73.1969 38.2546 75.6784V75.9647C38.2546 78.3985 39.3048 80.4983 41.4052 82.264C43.3146 83.8388 45.9401 84.6978 49.2816 84.8409C49.7112 84.8409 50.117 84.8409 50.4989 84.8409C82.3866 84.8409 98.6885 84.8409 99.4045 84.8409Z" fill="#FD39C3"/>
<path d="M73.236 94.075C69.0829 94.075 65.4072 93.6933 62.2089 92.9297C58.9629 92.2139 56.3612 91.2833 54.4041 90.138C52.4946 88.9927 50.9193 87.6088 49.6782 85.9862C48.3893 84.3637 47.5301 82.7889 47.1004 81.2618C46.6231 79.687 46.3844 78.0645 46.3844 76.3942V75.2489C46.3844 73.5309 46.6231 71.9084 47.1004 70.3813C47.5778 68.8542 48.4132 67.3033 49.6066 65.7285C50.8477 64.1537 52.423 62.8175 54.3325 61.7199C56.2896 60.5746 58.8674 59.6679 62.0657 58.9998C65.3118 58.2839 69.0113 57.926 73.1643 57.926H125.292C143.098 57.926 152.001 63.7003 152.001 75.2489V76.3942C152.001 88.1814 143.098 94.075 125.292 94.075H73.236ZM123.359 84.8409C128.085 84.6023 131.355 83.7433 133.169 82.264C135.269 80.4983 136.319 78.3985 136.319 75.9647V75.6784C136.319 73.1969 135.269 71.1449 133.169 69.5223C131.02 67.8521 127.727 67.017 123.287 67.017H74.0952C70.515 67.017 67.794 67.6612 65.9323 68.9497C65.6936 69.1406 65.4788 69.3076 65.2879 69.4508C63.2352 71.121 62.2089 73.1969 62.2089 75.6784V75.9647C62.2089 78.3985 63.2591 80.4983 65.3595 82.264C67.2689 83.8388 69.8944 84.6978 73.236 84.8409C73.6656 84.8409 74.0713 84.8409 74.4532 84.8409C106.341 84.8409 122.643 84.8409 123.359 84.8409Z" fill="#FD39C3"/>
<path d="M94.0748 125.149C94.0748 129.302 93.693 132.978 92.9295 136.176C92.2137 139.422 91.2831 142.024 90.1378 143.981C88.9925 145.89 87.6085 147.466 85.986 148.707C84.3635 149.996 82.7887 150.855 81.2616 151.284C79.6868 151.762 78.0642 152 76.394 152L75.2487 152C73.5307 152 71.9082 151.762 70.3811 151.284C68.854 150.807 67.303 149.972 65.7282 148.778C64.1534 147.537 62.8172 145.962 61.7196 144.052C60.5743 142.095 59.6676 139.517 58.9995 136.319C58.2837 133.073 57.9258 129.374 57.9258 125.221L57.9258 73.0927C57.9258 55.2872 63.7001 46.3844 75.2487 46.3844L76.394 46.3844C88.1812 46.3844 94.0748 55.2872 94.0748 73.0927L94.0748 125.149ZM84.8407 75.026C84.6021 70.3002 83.7431 67.0302 82.2637 65.2163C80.498 63.1159 78.3983 62.0657 75.9645 62.0657L75.6782 62.0657C73.1966 62.0657 71.1446 63.1159 69.5221 65.2163C67.8518 67.3644 67.0167 70.6582 67.0167 75.0976L67.0167 124.29C67.0167 127.87 67.661 130.591 68.9494 132.453C69.1403 132.691 69.3074 132.906 69.4505 133.097C71.1208 135.15 73.1967 136.176 75.6782 136.176L75.9645 136.176C78.3983 136.176 80.498 135.126 82.2637 133.025C83.8385 131.116 84.6975 128.49 84.8407 125.149C84.8407 124.719 84.8407 124.314 84.8407 123.932C84.8407 92.044 84.8407 75.7421 84.8407 75.026Z" fill="#FD39C3"/>
<path d="M94.0748 102.719C94.0748 106.872 93.693 110.547 92.9295 113.746C92.2137 116.992 91.2831 119.593 90.1378 121.551C88.9925 123.46 87.6085 125.035 85.986 126.277C84.3635 127.565 82.7887 128.425 81.2616 128.854C79.6868 129.332 78.0642 129.57 76.394 129.57L75.2487 129.57C73.5307 129.57 71.9082 129.332 70.3811 128.854C68.854 128.377 67.303 127.542 65.7282 126.348C64.1534 125.107 62.8172 123.532 61.7196 121.622C60.5743 119.665 59.6676 117.087 58.9995 113.889C58.2837 110.643 57.9258 106.943 57.9258 102.79L57.9258 50.6626C57.9258 32.857 63.7001 23.9542 75.2487 23.9542L76.394 23.9542C88.1812 23.9542 94.0748 32.857 94.0748 50.6626L94.0748 102.719ZM84.8407 52.5959C84.6021 47.87 83.7431 44.6001 82.2637 42.7861C80.498 40.6857 78.3983 39.6355 75.9645 39.6355L75.6782 39.6355C73.1966 39.6355 71.1446 40.6857 69.5221 42.7861C67.8518 44.9342 67.0167 48.228 67.0167 52.6675L67.0167 101.86C67.0167 105.44 67.661 108.161 68.9494 110.022C69.1403 110.261 69.3074 110.476 69.4505 110.667C71.1208 112.719 73.1967 113.746 75.6782 113.746L75.9645 113.746C78.3983 113.746 80.498 112.696 82.2637 110.595C83.8385 108.686 84.6975 106.06 84.8407 102.719C84.8407 102.289 84.8407 101.883 84.8407 101.501C84.8407 69.6138 84.8407 53.3119 84.8407 52.5959Z" fill="#FD39C3"/>
<path d="M94.0748 78.7647C94.0748 82.9177 93.693 86.5934 92.9295 89.7917C92.2137 93.0377 91.2831 95.6394 90.1378 97.5965C88.9925 99.506 87.6085 101.081 85.986 102.322C84.3635 103.611 82.7887 104.471 81.2616 104.9C79.6868 105.378 78.0642 105.616 76.394 105.616L75.2487 105.616C73.5307 105.616 71.9082 105.378 70.3811 104.9C68.854 104.423 67.303 103.587 65.7282 102.394C64.1534 101.153 62.8172 99.5776 61.7196 97.6682C60.5743 95.711 59.6676 93.1332 58.9995 89.9349C58.2837 86.6889 57.9258 82.9893 57.9258 78.8363L57.9258 26.7085C57.9258 8.90289 63.7001 0.000106559 75.2487 0.000106054L76.394 0.000106004C88.1812 0.000105489 94.0748 8.90288 94.0748 26.7084L94.0748 78.7647ZM84.8407 28.6418C84.6021 23.9159 83.7431 20.646 82.2637 18.832C80.498 16.7316 78.3983 15.6814 75.9645 15.6814L75.6782 15.6814C73.1966 15.6814 71.1446 16.7316 69.5221 18.832C67.8518 20.9801 67.0167 24.2739 67.0167 28.7134L67.0167 77.9054C67.0167 81.4856 67.661 84.2066 68.9494 86.0683C69.1403 86.307 69.3074 86.5218 69.4505 86.7127C71.1208 88.7654 73.1967 89.7917 75.6782 89.7917L75.9645 89.7917C78.3983 89.7917 80.498 88.7415 82.2637 86.6411C83.8385 84.7317 84.6975 82.1062 84.8407 78.7647C84.8407 78.335 84.8407 77.9293 84.8407 77.5474C84.8407 45.6597 84.8407 29.3578 84.8407 28.6418Z" fill="#FD39C3"/>
<path d="M123.534 97.9731C126.47 100.91 128.799 103.779 130.521 106.58C132.31 109.382 133.492 111.879 134.066 114.073C134.606 116.233 134.741 118.326 134.472 120.351C134.236 122.409 133.73 124.13 132.954 125.514C132.178 126.965 131.199 128.281 130.018 129.462L129.208 130.272C127.994 131.487 126.677 132.465 125.26 133.208C123.843 133.95 122.155 134.456 120.198 134.726C118.207 134.962 116.148 134.793 114.022 134.218C111.828 133.644 109.364 132.463 106.63 130.674C103.829 128.884 100.96 126.522 98.0229 123.585L61.163 86.725C48.5726 74.1346 46.3604 63.7563 54.5265 55.5902L55.3364 54.7804C63.6712 46.4456 74.1338 48.5734 86.7242 61.1638L123.534 97.9731ZM81.5618 69.0604C78.0514 65.8874 75.1318 64.1826 72.803 63.946C70.0693 63.7093 67.842 64.4515 66.121 66.1724L65.9186 66.3749C64.1639 68.1296 63.4555 70.3232 63.7933 72.9557C64.1313 75.6557 65.8698 78.5753 69.009 81.7145L103.793 116.498C106.325 119.03 108.704 120.499 110.932 120.904C111.235 120.938 111.505 120.971 111.742 121.005C114.374 121.276 116.568 120.533 118.322 118.779L118.525 118.576C120.246 116.855 120.988 114.628 120.751 111.894C120.515 109.431 119.266 106.967 117.004 104.503C116.7 104.199 116.413 103.912 116.143 103.642C93.5953 81.0939 82.0681 69.5667 81.5618 69.0604Z" fill="#FD39C3"/>
<path d="M107.673 82.1125C110.61 85.0492 112.939 87.9182 114.66 90.7197C116.45 93.5211 117.631 96.0188 118.205 98.2126C118.746 100.373 118.881 102.465 118.611 104.49C118.375 106.549 117.869 108.27 117.093 109.653C116.317 111.105 115.339 112.421 114.158 113.602L113.348 114.412C112.133 115.626 110.817 116.605 109.4 117.347C107.982 118.089 106.295 118.595 104.337 118.865C102.346 119.101 100.288 118.932 98.1613 118.358C95.9675 117.784 93.5036 116.602 90.7696 114.813C87.9682 113.024 85.0991 110.661 82.1625 107.724L45.3025 70.8644C32.7121 58.274 30.4999 47.8957 38.666 39.7297L39.4759 38.9198C47.8107 30.585 58.2733 32.7128 70.8637 45.3032L107.673 82.1125ZM65.7013 53.1998C62.1909 50.0268 59.2713 48.322 56.9426 48.0854C54.2088 47.8487 51.9815 48.5909 50.2605 50.3118L50.0581 50.5143C48.3034 52.269 47.595 54.4626 47.9329 57.0951C48.2708 59.7951 50.0093 62.7147 53.1485 65.8539L87.9325 100.638C90.4641 103.169 92.8437 104.638 95.0712 105.043C95.3749 105.077 95.6449 105.111 95.8812 105.145C98.5137 105.415 100.707 104.673 102.462 102.918L102.664 102.716C104.385 100.995 105.128 98.7674 104.891 96.0337C104.654 93.57 103.405 91.1061 101.144 88.642C100.84 88.3382 100.553 88.0513 100.283 87.7813C77.7348 65.2333 66.2076 53.7061 65.7013 53.1998Z" fill="#FD39C3"/>
<path d="M90.7352 65.1748C93.6718 68.1114 96.001 70.9805 97.7226 73.7819C99.5118 76.5834 100.693 79.081 101.267 81.2748C101.808 83.4349 101.943 85.5273 101.673 87.5523C101.437 89.6109 100.931 91.3321 100.155 92.7157C99.3795 94.1668 98.4009 95.4829 97.2199 96.6639L96.41 97.4738C95.1952 98.6886 93.8792 99.6671 92.4618 100.409C91.0444 101.152 89.3571 101.658 87.3996 101.927C85.4085 102.163 83.3497 101.994 81.2234 101.42C79.0296 100.846 76.5657 99.6644 73.8318 97.8753C71.0303 96.0862 68.1612 93.7233 65.2246 90.7866L28.3647 53.9267C15.7742 41.3363 13.5621 30.958 21.7282 22.7919L22.538 21.982C30.8728 13.6472 41.3354 15.775 53.9259 28.3655L90.7352 65.1748ZM48.7634 36.262C45.253 33.0891 42.3334 31.3843 40.0047 31.1477C37.271 30.911 35.0436 31.6531 33.3227 33.3741L33.1202 33.5766C31.3655 35.3313 30.6571 37.5249 30.995 40.1574C31.3329 42.8574 33.0715 45.7769 36.2106 48.9161L70.9947 83.7001C73.5262 86.2317 75.9058 87.7002 78.1333 88.1055C78.4371 88.1393 78.7071 88.1731 78.9433 88.2069C81.5758 88.4773 83.7694 87.7351 85.5241 85.9804L85.7266 85.778C87.4475 84.057 88.1897 81.8297 87.953 79.096C87.7164 76.6322 86.4673 74.1683 84.2057 71.7043C83.9019 71.4005 83.615 71.1136 83.3449 70.8435C60.7969 48.2955 49.2698 36.7684 48.7634 36.262Z" fill="#FD39C3"/>
<path d="M97.9727 28.467C100.909 25.5303 103.778 23.2012 106.58 21.4795C109.381 19.6904 111.879 18.5088 114.073 17.9347C116.233 17.3944 118.325 17.2591 120.35 17.5288C122.409 17.7647 124.13 18.2707 125.514 19.0467C126.965 19.8227 128.281 20.8012 129.462 21.9823L130.272 22.7921C131.487 24.0069 132.465 25.323 133.207 26.7404C133.95 28.1577 134.456 29.8451 134.725 31.8025C134.961 33.7937 134.792 35.8524 134.218 37.9787C133.644 40.1725 132.462 42.6364 130.673 45.3704C128.884 48.1718 126.521 51.0409 123.585 53.9775L86.7247 90.8375C74.1342 103.428 63.756 105.64 55.5899 97.474L54.78 96.6641C46.4452 88.3293 48.573 77.8667 61.1635 65.2763L97.9727 28.467ZM69.06 70.4387C65.887 73.9491 64.1822 76.8687 63.9456 79.1975C63.709 81.9312 64.4511 84.1585 66.1721 85.8795L66.3745 86.0819C68.1292 87.8366 70.3228 88.545 72.9553 88.2071C75.6553 87.8692 78.5749 86.1307 81.7141 82.9915L116.498 48.2075C119.03 45.6759 120.498 43.2964 120.903 41.0688C120.937 40.7651 120.971 40.4951 121.005 40.2588C121.275 37.6263 120.533 35.4327 118.778 33.6781L118.576 33.4756C116.855 31.7546 114.628 31.0125 111.894 31.2492C109.43 31.4858 106.966 32.7349 104.502 34.9965C104.198 35.3003 103.912 35.5872 103.642 35.8572C81.0935 58.4052 69.5663 69.9324 69.06 70.4387Z" fill="#FD39C3"/>
<path d="M82.1123 44.3273C85.0489 41.3907 87.918 39.0615 90.7194 37.3399C93.5209 35.5507 96.0185 34.3691 98.2123 33.7951C100.372 33.2547 102.465 33.1194 104.49 33.3891C106.548 33.625 108.27 34.131 109.653 34.907C111.104 35.683 112.42 36.6616 113.601 37.8426L114.411 38.6525C115.626 39.8673 116.605 41.1833 117.347 42.6007C118.089 44.0181 118.595 45.7054 118.865 47.6629C119.101 49.654 118.932 51.7128 118.358 53.8391C117.784 56.0329 116.602 58.4968 114.813 61.2307C113.024 64.0322 110.661 66.9013 107.724 69.8379L70.8642 106.698C58.2738 119.288 47.8955 121.5 39.7294 113.334L38.9196 112.524C30.5847 104.19 32.7125 93.7271 45.303 81.1366L82.1123 44.3273ZM53.1995 86.2991C50.0266 89.8095 48.3218 92.7291 48.0852 95.0578C47.8485 97.7915 48.5907 100.019 50.3116 101.74L50.5141 101.942C52.2688 103.697 54.4624 104.405 57.0949 104.067C59.7949 103.73 62.7144 101.991 65.8536 98.8519L100.638 64.0678C103.169 61.5363 104.638 59.1567 105.043 56.9292C105.077 56.6254 105.111 56.3554 105.144 56.1192C105.415 53.4867 104.673 51.2931 102.918 49.5384L102.715 49.3359C100.995 47.615 98.7672 46.8728 96.0335 47.1095C93.5697 47.3461 91.1058 48.5952 88.6418 50.8568C88.338 51.1606 88.0511 51.4475 87.781 51.7176C65.233 74.2656 53.7059 85.7927 53.1995 86.2991Z" fill="#FD39C3"/>
<path d="M65.1744 61.2653C68.111 58.3287 70.9801 55.9995 73.7816 54.2779C76.583 52.4887 79.0807 51.3071 81.2745 50.733C83.4345 50.1927 85.527 50.0574 87.5519 50.3271C89.6106 50.563 91.3317 51.069 92.7153 51.845C94.1664 52.621 95.4825 53.5996 96.6635 54.7806L97.4734 55.5905C98.6882 56.8053 99.6667 58.1213 100.409 59.5387C101.151 60.956 101.657 62.6434 101.927 64.6009C102.163 66.592 101.994 68.6508 101.42 70.7771C100.846 72.9709 99.6641 75.4347 97.8749 78.1687C96.0858 80.9702 93.7229 83.8392 90.7863 86.7759L53.9263 123.636C41.3359 136.226 30.9576 138.438 22.7915 130.272L21.9817 129.462C13.6469 121.128 15.7747 110.665 28.3651 98.0746L65.1744 61.2653ZM36.2617 103.237C33.0887 106.747 31.3839 109.667 31.1473 111.996C30.9106 114.73 31.6528 116.957 33.3737 118.678L33.5762 118.88C35.3309 120.635 37.5245 121.343 40.157 121.005C42.857 120.668 45.7766 118.929 48.9157 115.79L83.6998 81.0058C86.2314 78.4742 87.6998 76.0947 88.1052 73.8672C88.139 73.5634 88.1727 73.2934 88.2065 73.0572C88.4769 70.4247 87.7348 68.2311 85.9801 66.4764L85.7776 66.2739C84.0567 64.553 81.8293 63.8108 79.0956 64.0475C76.6318 64.2841 74.168 65.5332 71.7039 67.7948C71.4001 68.0986 71.1132 68.3855 70.8432 68.6555C48.2952 91.2036 36.768 102.731 36.2617 103.237Z" fill="#FD39C3"/>
</svg>
