<svg width="912" height="250" viewBox="0 0 912 250" fill="none" xmlns="http://www.w3.org/2000/svg">
<path d="M545.656 71.7349L539.521 60.8275H406.417L400.622 71.7349H379.83L412.723 12H532.789L567.641 71.7349H545.656ZM519.836 25.7194H425.334L413.745 47.2785H532.022L519.836 25.7194Z" fill="#CEFFD9"/>
<path d="M358.059 70.9675H333.091L299.688 12.1699H322.44L346.129 55.3734L368.285 12.1699H389.162L358.059 70.9675Z" fill="#CEFFD9"/>
<path d="M0.800781 12.209H23.5529L65.052 49.7031V12.209H85.0773V71.7735H65.052L20.9113 32.3195V71.7735H0.800781V12.209Z" fill="#CEFFD9"/>
<path d="M176.357 6.62322L235.937 29.1795C240.439 30.8839 244.427 32.6969 247.901 34.6186C251.31 36.5658 254.065 38.4424 256.167 40.2486C258.269 42.0547 259.979 43.9401 261.299 45.9048C262.619 47.8695 263.516 49.6744 263.992 51.3195C264.448 53.0079 264.678 54.7118 264.683 56.4312C264.687 58.1505 264.515 59.6514 264.165 60.9336C263.816 62.2159 263.363 63.4843 262.807 64.7389L262.03 66.4909C261.474 67.7454 260.834 68.9428 260.109 70.0831C259.385 71.2233 258.368 72.4046 257.059 73.6268C255.712 74.9356 254.245 76.022 252.657 76.8859C251.05 77.7931 249.031 78.5189 246.599 79.0633C244.101 79.6332 241.464 79.898 238.689 79.8577C235.801 79.8252 232.38 79.3889 228.426 78.5487C224.491 77.6652 220.273 76.3713 215.771 74.667L156.191 52.1107C151.689 50.4063 147.678 48.5844 144.156 46.645C140.701 44.68 137.932 42.7729 135.849 40.9235C133.767 39.0741 132.089 37.1759 130.816 35.229C129.469 33.2033 128.558 31.3679 128.082 29.7227C127.626 28.0344 127.405 26.3089 127.42 24.5462C127.481 22.8013 127.677 21.3094 128.008 20.0704C128.357 18.7881 128.81 17.5197 129.366 16.2651L130.143 14.5131C130.718 13.2153 131.358 12.018 132.064 10.921C132.769 9.82397 133.762 8.63383 135.043 7.35054C136.371 6.08501 137.829 5.02028 139.417 4.15633C141.004 3.29239 143.014 2.58824 145.446 2.04386C147.878 1.49949 150.529 1.26519 153.398 1.34095C156.333 1.39121 159.744 1.84918 163.632 2.71487C167.614 3.61607 171.856 4.91885 176.357 6.62322ZM245.612 58.6835C246.063 57.541 246.36 56.4407 246.5 55.3824C246.566 54.2454 246.384 52.9892 245.953 51.6136C245.448 50.1593 244.631 48.7892 243.503 47.5034C242.376 46.2177 240.637 44.827 238.288 43.3314C236.351 42.1431 234.065 40.9998 231.43 39.9013L171.921 17.3716C158.601 12.5813 150.291 13.9065 146.993 21.3471L146.676 22.0609C146.043 23.4885 145.754 24.9449 145.807 26.4302C145.841 27.9588 146.27 29.5862 147.093 31.3123C147.924 33.1427 149.631 34.976 152.212 36.8122C154.625 38.534 157.698 40.1268 161.43 41.5903L220.447 63.9336C224.002 65.1786 227.19 65.956 230.01 66.2658C233.224 66.6744 235.837 66.5267 237.846 65.8225C239.856 65.1183 241.421 64.2455 242.54 63.204C243.725 62.1371 244.624 60.9114 245.238 59.5271L245.612 58.6835Z" fill="#FD39C3"/>
<path d="M157.935 29.1714L217.294 6.25762C221.779 4.52623 225.984 3.207 229.91 2.29994C233.809 1.45405 237.193 0.984599 240.061 0.891594C242.929 0.798584 245.582 1.01695 248.019 1.54669C250.456 2.07643 252.473 2.76848 254.069 3.62285C255.685 4.52037 257.153 5.57631 258.473 6.79068C259.794 8.00505 260.822 9.18016 261.558 10.316C262.293 11.4519 262.945 12.6454 263.514 13.8965L264.307 15.6438C264.876 16.895 265.341 18.1606 265.703 19.4408C266.064 20.7209 266.252 22.2207 266.264 23.94C266.315 25.7457 266.111 27.4725 265.652 29.1204C265.212 30.8114 264.342 32.6433 263.041 34.6158C261.714 36.6495 260.054 38.5577 258.064 40.3404C255.999 42.2023 253.249 44.126 249.812 46.1117C246.357 48.0542 242.386 49.8911 237.901 51.6225L178.543 74.5363C174.057 76.2677 169.828 77.5959 165.856 78.521C161.91 79.3849 158.493 79.8418 155.605 79.8917C152.718 79.9416 150.079 79.6926 147.688 79.1448C145.185 78.59 143.135 77.8854 141.539 77.031C139.923 76.1335 138.445 75.056 137.105 73.7985C135.812 72.5229 134.807 71.3388 134.091 70.2461C133.355 69.1102 132.703 67.9167 132.135 66.6655L131.341 64.9182C130.753 63.624 130.288 62.3583 129.946 61.1213C129.604 59.8843 129.393 58.3936 129.315 56.6491C129.283 54.8866 129.497 53.1814 129.956 51.5335C130.416 49.8856 131.296 48.0753 132.596 46.1028C133.896 44.1302 135.589 42.2346 137.673 40.4158C139.784 38.5359 142.545 36.6337 145.954 34.7093C149.456 32.7487 153.45 30.9028 157.935 29.1714ZM246.73 20.8316C246.174 19.7279 245.54 18.7556 244.829 17.9147C244.004 17.0667 242.913 16.2963 241.555 15.6035C240.084 14.9037 238.457 14.4666 236.676 14.2923C234.894 14.1179 232.601 14.2679 229.797 14.7421C227.518 15.1654 225.027 15.8479 222.325 16.7896L163.037 39.6764C149.959 44.978 145.106 51.3391 148.477 58.7597L148.8 59.4716C149.447 60.8953 150.358 62.1155 151.534 63.1322C152.729 64.1921 154.279 65.0645 156.183 65.7494C158.172 66.5027 160.782 66.6869 164.012 66.3022C167.035 65.9464 170.425 65.0687 174.183 63.669L232.98 40.9717C236.445 39.5327 239.292 38.0027 241.521 36.3817C244.104 34.5732 245.836 32.7639 246.716 30.9536C247.596 29.1434 248.032 27.5045 248.024 26.0369C248.044 24.5082 247.74 23.0535 247.113 21.6729L246.73 20.8316Z" fill="#FD39C3"/>
<path fill-rule="evenodd" clip-rule="evenodd" d="M123.172 17.2466C123.002 17.2709 122.833 17.2958 122.665 17.3213C119.147 17.9002 116.209 18.6572 113.849 19.5923C111.578 20.4829 109.529 21.5961 107.704 22.932C105.922 24.2233 104.542 25.5369 103.562 26.8728C102.583 28.1641 101.781 29.6113 101.158 31.2144C100.534 32.7283 100.134 34.1087 99.9555 35.3556C99.7774 36.6024 99.6883 37.8714 99.6883 39.1628L99.6883 40.9662C99.6883 42.2575 99.7774 43.5266 99.9555 44.7734C100.134 46.0202 100.534 47.4006 101.158 48.9146C101.781 50.4286 102.583 51.8535 103.562 53.1894C104.542 54.4808 105.922 55.7721 107.704 57.0634C109.485 58.3548 111.555 59.4457 113.915 60.3363C116.275 61.2269 119.192 61.9616 122.665 62.5405C122.833 62.566 123.002 62.5909 123.172 62.6152L123.172 50.4426C122.586 50.2131 122.061 49.9709 121.597 49.7162C120.216 48.9592 119.058 48.0241 118.123 46.9108C117.277 45.8421 116.676 44.7957 116.32 43.7715C116.053 42.7919 115.897 41.7232 115.852 40.5654L115.852 39.6971C115.852 38.2722 116.142 36.8918 116.721 35.5559C117.255 34.2646 118.212 32.9733 119.593 31.6819C120.493 30.8402 121.686 30.1214 123.172 29.5256L123.172 17.2466Z" fill="#41F168"/>
<path fill-rule="evenodd" clip-rule="evenodd" d="M270.018 62.6183C270.187 62.5941 270.355 62.5692 270.523 62.5438C274.041 61.9649 276.98 61.2079 279.34 60.2728C281.611 59.3822 283.659 58.269 285.485 56.9331C287.266 55.6418 288.646 54.3282 289.626 52.9923C290.606 51.701 291.407 50.2538 292.031 48.6507C292.654 47.1367 293.055 45.7563 293.233 44.5095C293.411 43.2627 293.5 41.9936 293.5 40.7023V38.8989C293.5 37.6075 293.411 36.3384 293.233 35.0916C293.055 33.8448 292.654 32.4644 292.031 30.9504C291.407 29.4365 290.606 28.0115 289.626 26.6757C288.646 25.3843 287.266 24.093 285.485 22.8016C283.704 21.5103 281.633 20.4193 279.273 19.5288C276.913 18.6382 273.996 17.9034 270.523 17.3246C270.355 17.2991 270.187 17.2742 270.018 17.25V29.4229C270.603 29.6523 271.127 29.8943 271.592 30.1489C272.972 30.9059 274.13 31.841 275.065 32.9542C275.911 34.0229 276.512 35.0694 276.868 36.0935C277.136 37.0732 277.291 38.1419 277.336 39.2996V40.1679C277.336 41.5929 277.047 42.9733 276.468 44.3091C275.933 45.6005 274.976 46.8918 273.596 48.1832C272.696 49.0247 271.503 49.7433 270.018 50.339V62.6183Z" fill="#41F168"/>
<path d="M0.800332 101.081H193.725V114.63H20.9108V123.493H192.617V137.127H20.9108V146.927H194.577V160.816H0.800332V101.081ZM203.599 160.816V101.252H232.487L254.983 138.32L277.48 101.252H305.43V160.816H285.319V119.573L259.67 160.816H248.763L223.199 119.573V160.816H203.599ZM315.692 100.996H384.375V114.545H335.803V123.408H383.182V137.042H335.803V146.841H385.227V160.731H315.692V100.996ZM414.615 139.683V160.816H394.249V101.167H559.138C577.941 101.167 587.343 106.336 587.343 116.676V117.613C587.343 123.919 583.31 128.265 575.243 130.651C578.936 131.616 581.918 133.236 584.19 135.508C586.463 137.78 587.599 140.734 587.599 144.37V153.147V160.816H567.148C567.148 160.76 567.148 159.51 567.148 157.067V150.165C567.148 146.472 566.125 143.802 564.08 142.155C562.035 140.507 558.541 139.683 553.599 139.683H414.615ZM414.615 114.716V126.475H557.859C560.7 126.475 562.773 125.936 564.08 124.856C565.443 123.777 566.125 122.357 566.125 120.595V120.51C566.125 118.806 565.443 117.414 564.08 116.335C562.773 115.255 560.7 114.716 557.859 114.716H414.615ZM639.068 161.839H637.193C630.49 161.839 624.525 161.186 619.299 159.879C614.072 158.516 609.897 156.811 606.772 154.766C603.648 152.664 601.091 150.25 599.103 147.523C597.171 144.739 595.836 142.098 595.098 139.598C594.359 137.042 593.99 134.485 593.99 131.929V129.628C593.99 127.015 594.302 124.515 594.927 122.129C595.552 119.63 596.83 117.045 598.762 114.375C600.75 111.591 603.25 109.205 606.261 107.217C609.328 105.229 613.589 103.581 619.043 102.274C624.497 100.911 630.802 100.229 637.96 100.229H641.71C648.584 100.229 654.662 100.769 659.946 101.848C665.286 102.928 669.433 104.234 672.387 105.768C675.398 107.359 677.84 109.234 679.715 111.392C681.647 113.551 682.953 115.511 683.635 117.272C684.26 119.09 684.601 120.936 684.658 122.811V122.896H663.013C660.854 117.215 653.157 114.375 639.92 114.375C623.502 114.375 615.293 119.743 615.293 130.48V131.332C615.293 135.707 617.31 139.485 621.344 142.666C625.377 145.79 631.513 147.353 639.75 147.353C643.386 147.353 646.709 147.097 649.72 146.586C652.731 146.131 655.145 145.563 656.963 144.881C658.781 144.143 660.286 143.376 661.479 142.581C662.729 141.729 663.61 140.99 664.121 140.365C664.575 139.74 664.831 139.229 664.888 138.831V138.661H639.409V127.413H685.084V160.731H670.427C670.427 160.674 670.37 157.607 670.256 151.528C663.78 158.402 653.384 161.839 639.068 161.839ZM714.524 101.252V160.731H694.243V101.252H714.524ZM724.785 101.252H747.537L789.037 138.746V101.252H809.062V160.816H789.037L744.896 121.362V160.816H724.785V101.252ZM861.839 161.839H859.964C853.261 161.839 847.296 161.186 842.07 159.879C836.843 158.516 832.668 156.811 829.543 154.766C826.419 152.664 823.862 150.25 821.874 147.523C819.942 144.739 818.607 142.098 817.869 139.598C817.13 137.042 816.761 134.485 816.761 131.929V129.628C816.761 127.015 817.073 124.515 817.698 122.129C818.323 119.63 819.601 117.045 821.533 114.375C823.521 111.591 826.021 109.205 829.032 107.217C832.099 105.229 836.36 103.581 841.814 102.274C847.268 100.911 853.573 100.229 860.731 100.229H864.481C871.355 100.229 877.433 100.769 882.717 101.848C888.057 102.928 892.204 104.234 895.158 105.768C898.169 107.359 900.611 109.234 902.486 111.392C904.418 113.551 905.724 115.511 906.406 117.272C907.031 119.09 907.372 120.936 907.429 122.811V122.896H885.784C883.625 117.215 875.928 114.375 862.691 114.375C846.273 114.375 838.064 119.743 838.064 130.48V131.332C838.064 135.707 840.081 139.485 844.115 142.666C848.148 145.79 854.284 147.353 862.521 147.353C866.157 147.353 869.48 147.097 872.491 146.586C875.502 146.131 877.916 145.563 879.734 144.881C881.552 144.143 883.057 143.376 884.25 142.581C885.5 141.729 886.381 140.99 886.892 140.365C887.346 139.74 887.602 139.229 887.659 138.831V138.661H862.18V127.413H907.855V160.731H893.198C893.198 160.674 893.141 157.607 893.027 151.528C886.551 158.402 876.155 161.839 861.839 161.839Z" fill="#CEFFD9"/>
<path d="M373.005 245.072V199.568H345.055V185.508H421.577V199.568H393.542V245.072H373.005ZM427.623 185.252H496.305V198.801H447.733V207.663H495.112V221.298H447.733V231.097H497.157V244.987H427.623V185.252ZM547.252 245.072C542.026 245.072 537.254 244.703 532.937 243.964C528.619 243.226 524.983 242.26 522.029 241.067C519.075 239.817 516.462 238.34 514.189 236.636C511.917 234.818 510.156 233.057 508.906 231.353C507.6 229.592 506.52 227.689 505.668 225.644C504.816 223.598 504.276 221.752 504.049 220.105C503.765 218.4 503.623 216.724 503.623 215.077V212.776C503.623 210.163 503.879 207.72 504.39 205.448C504.901 203.175 506.066 200.619 507.884 197.779C509.758 194.938 512.173 192.495 515.127 190.45C518.138 188.405 522.398 186.701 527.909 185.337C533.419 183.917 539.867 183.207 547.252 183.207H660.161C667.319 183.207 673.653 183.803 679.164 184.996C684.617 186.246 688.849 187.723 691.86 189.428C694.871 191.189 697.342 193.205 699.274 195.478C701.149 197.75 702.37 199.795 702.938 201.613C703.449 203.431 703.733 205.135 703.79 206.726V207.663H682.146C681.919 206.982 681.692 206.385 681.464 205.874C681.123 205.306 680.442 204.51 679.419 203.488C678.34 202.352 677.033 201.414 675.499 200.676C673.909 199.881 671.636 199.199 668.682 198.631C665.615 198.006 662.746 197.693 660.076 197.693C585.542 197.693 547.849 197.693 546.997 197.693C543.191 197.807 539.867 198.233 537.027 198.972C533.732 199.881 531.261 201.102 529.613 202.636C527.966 204.226 526.773 205.874 526.034 207.578C525.352 209.339 525.012 211.214 525.012 213.202V214.14C525.012 216.071 525.409 217.946 526.205 219.764C527 221.582 528.221 223.314 529.869 224.962C531.573 226.666 534.101 228.001 537.453 228.967C540.237 229.819 543.418 230.33 546.997 230.501C547.679 230.501 585.542 230.501 660.587 230.501C670.301 230.501 676.749 228.427 679.93 224.28C680.839 223.087 681.578 221.724 682.146 220.19C682.146 220.076 682.174 219.991 682.231 219.934H703.876V220.786C703.819 222.604 703.506 224.422 702.938 226.24C702.313 228.115 701.035 230.217 699.104 232.546C697.172 234.875 694.672 236.949 691.605 238.766C688.594 240.528 684.362 242.033 678.908 243.283C673.454 244.476 667.205 245.072 660.161 245.072H547.252ZM711.558 245.072V185.593H731.839V207.237H887.439V185.593H907.72V245.072H887.439V221.638H731.839V245.072H711.558Z" fill="#CEFFD9"/>
<path fill-rule="evenodd" clip-rule="evenodd" d="M640.814 70.8852L722.099 70.8852C727.542 70.8852 732.504 70.5321 736.983 69.8258C741.462 69.0607 745.205 68.0602 748.21 66.8243C751.102 65.6472 753.71 64.1758 756.035 62.4102C758.303 60.7034 760.06 58.9672 761.308 57.2016C762.555 55.4948 763.576 53.5821 764.37 51.4633C765.164 49.4623 765.674 47.6378 765.901 45.9899C766.128 44.342 766.241 42.6646 766.241 40.9579V38.5743C766.241 36.8675 766.128 35.1901 765.901 33.5422C765.674 31.8943 765.164 30.0698 764.37 28.0688C763.576 26.0677 762.555 24.1844 761.308 22.4188C760.06 20.712 758.303 19.0052 756.035 17.2985C753.767 15.5917 751.13 14.1498 748.125 12.9727C745.12 11.7956 741.406 10.8245 736.983 10.0594C732.504 9.35315 727.542 9.00003 722.099 9.00003H686.08L640.814 9V23.4781L722.354 23.4782C725.586 23.5959 728.478 23.9196 731.029 24.4493C734.148 25.1555 736.586 26.0089 738.344 27.0094C740.102 28.0099 741.576 29.2459 742.767 30.7172C743.844 32.1297 744.609 33.5128 745.063 34.8664C745.403 36.1612 745.602 37.5737 745.658 39.1039V40.2516C745.658 42.1349 745.29 43.9594 744.553 45.725C743.872 47.4318 742.653 49.1386 740.895 50.8454C739.138 52.5521 736.501 53.8764 732.986 54.818C729.924 55.7008 726.267 56.2011 722.014 56.3188L640.814 56.3188V70.8852Z" fill="#41F168"/>
<path fill-rule="evenodd" clip-rule="evenodd" d="M581.688 70.8852H638.078C643.521 70.8852 648.482 70.5321 652.962 69.8258C657.441 69.0607 661.184 68.0602 664.189 66.8242C667.08 65.6472 669.689 64.1758 672.013 62.4102C674.282 60.7034 676.039 58.9672 677.287 57.2016C678.534 55.4948 679.555 53.5821 680.349 51.4633C681.142 49.4623 681.653 47.6378 681.879 45.9899C682.106 44.3419 682.22 42.6646 682.22 40.9578V38.5742C682.22 36.8675 682.106 35.1901 681.879 33.5422C681.653 31.8943 681.142 30.0698 680.349 28.0688C679.555 26.0677 678.534 24.1844 677.287 22.4188C676.039 20.712 674.282 19.0052 672.013 17.2984C669.745 15.5917 667.109 14.1497 664.104 12.9727C661.098 11.7956 657.385 10.8245 652.962 10.0594C648.482 9.35313 643.521 9 638.078 9H602.058H581.688V23.4781H638.333C641.565 23.5958 644.457 23.9195 647.008 24.4492C650.127 25.1555 652.565 26.0089 654.323 27.0094C656.08 28.0099 657.555 29.2458 658.745 30.7172C659.823 32.1297 660.588 33.5128 661.042 34.8664C661.382 36.1612 661.58 37.5737 661.637 39.1039V40.2516C661.637 42.1349 661.269 43.9594 660.531 45.725C659.851 47.4318 658.632 49.1386 656.874 50.8453C655.116 52.5521 652.48 53.8763 648.964 54.818C645.903 55.7008 642.245 56.2011 637.993 56.3188H581.688V70.8852Z" fill="#41F168"/>
<path fill-rule="evenodd" clip-rule="evenodd" d="M731.055 70.8852H787.445C792.888 70.8852 797.85 70.5321 802.329 69.8258C806.808 69.0607 810.551 68.0602 813.556 66.8242C816.448 65.6472 819.056 64.1758 821.381 62.4102C823.649 60.7034 825.406 58.9672 826.654 57.2016C827.901 55.4948 828.922 53.5821 829.716 51.4633C830.51 49.4623 831.02 47.6378 831.247 45.9899C831.473 44.3419 831.587 42.6646 831.587 40.9578V38.5742C831.587 36.8675 831.473 35.1901 831.247 33.5422C831.02 31.8943 830.51 30.0698 829.716 28.0688C828.922 26.0677 827.901 24.1844 826.654 22.4188C825.406 20.712 823.649 19.0052 821.381 17.2984C819.113 15.5917 816.476 14.1497 813.471 12.9727C810.466 11.7956 806.752 10.8245 802.329 10.0594C797.85 9.35313 792.888 9 787.445 9H751.425H731.055V23.4781H787.7C790.932 23.5958 793.824 23.9195 796.375 24.4492C799.494 25.1555 801.932 26.0089 803.69 27.0094C805.448 28.0099 806.922 29.2458 808.113 30.7172C809.19 32.1297 809.955 33.5128 810.409 34.8664C810.749 36.1612 810.948 37.5737 811.004 39.1039V40.2516C811.004 42.1349 810.636 43.9594 809.899 45.725C809.218 47.4318 807.999 49.1386 806.241 50.8453C804.484 52.5521 801.847 53.8763 798.332 54.818C795.27 55.7008 791.612 56.2011 787.36 56.3188H731.055V70.8852Z" fill="#41F168"/>
<path fill-rule="evenodd" clip-rule="evenodd" d="M770.732 70.8852H832.542C837.985 70.8852 842.946 70.5321 847.426 69.8258C851.905 69.0607 855.647 68.0602 858.652 66.8242C861.544 65.6472 864.152 64.1758 866.477 62.4102C868.745 60.7034 870.503 58.9672 871.75 57.2016C872.998 55.4948 874.019 53.5821 874.812 51.4633C875.606 49.4623 876.116 47.6378 876.343 45.9899C876.57 44.3419 876.683 42.6646 876.683 40.9578V38.5742C876.683 36.8675 876.57 35.1901 876.343 33.5422C876.116 31.8943 875.606 30.0698 874.812 28.0688C874.019 26.0677 872.998 24.1844 871.75 22.4188C870.503 20.712 868.745 19.0052 866.477 17.2984C864.209 15.5917 861.573 14.1497 858.567 12.9727C855.562 11.7956 851.848 10.8245 847.426 10.0594C842.946 9.35313 837.985 9 832.542 9H796.522H770.732V23.4781H832.797C836.029 23.5958 838.92 23.9195 841.472 24.4492C844.591 25.1555 847.029 26.0089 848.786 27.0094C850.544 28.0099 852.018 29.2458 853.209 30.7172C854.286 32.1297 855.052 33.5128 855.506 34.8664C855.846 36.1612 856.044 37.5737 856.101 39.1039V40.2516C856.101 42.1349 855.732 43.9594 854.995 45.725C854.315 47.4318 853.096 49.1386 851.338 50.8453C849.58 52.5521 846.944 53.8763 843.428 54.818C840.366 55.7008 836.709 56.2011 832.456 56.3188H770.732V70.8852Z" fill="#41F168"/>
<path fill-rule="evenodd" clip-rule="evenodd" d="M800.293 70.8852H867.548C872.991 70.8852 877.953 70.5321 882.432 69.8258C886.912 69.0607 890.654 68.0602 893.659 66.8242C896.551 65.6472 899.159 64.1758 901.484 62.4102C903.752 60.7034 905.51 58.9672 906.757 57.2016C908.005 55.4948 909.025 53.5821 909.819 51.4633C910.613 49.4623 911.123 47.6378 911.35 45.9899C911.577 44.3419 911.69 42.6646 911.69 40.9578V38.5742C911.69 36.8675 911.577 35.1901 911.35 33.5422C911.123 31.8943 910.613 30.0698 909.819 28.0688C909.025 26.0677 908.005 24.1844 906.757 22.4188C905.51 20.712 903.752 19.0052 901.484 17.2984C899.216 15.5917 896.579 14.1497 893.574 12.9727C890.569 11.7956 886.855 10.8245 882.432 10.0594C877.953 9.35313 872.991 9 867.548 9H831.529H800.293V23.4781H867.803C871.035 23.5958 873.927 23.9195 876.479 24.4492C879.597 25.1555 882.035 26.0089 883.793 27.0094C885.551 28.0099 887.025 29.2458 888.216 30.7172C889.293 32.1297 890.059 33.5128 890.512 34.8664C890.852 36.1612 891.051 37.5737 891.108 39.1039V40.2516C891.108 42.1349 890.739 43.9594 890.002 45.725C889.321 47.4318 888.102 49.1386 886.345 50.8453C884.587 52.5521 881.95 53.8763 878.435 54.818C875.373 55.7008 871.716 56.2011 867.463 56.3188H800.293V70.8852Z" fill="#41F168"/>
<path fill-rule="evenodd" clip-rule="evenodd" d="M270.859 249.885L189.787 249.885C184.357 249.885 179.409 249.532 174.941 248.826C170.473 248.061 166.741 247.06 163.743 245.824C160.859 244.647 158.257 243.176 155.939 241.41C153.676 239.703 151.923 237.967 150.679 236.202C149.435 234.495 148.417 232.582 147.625 230.463C146.833 228.462 146.324 226.638 146.098 224.99C145.872 223.342 145.759 221.665 145.759 219.958V217.574C145.759 215.867 145.872 214.19 146.098 212.542C146.324 210.894 146.833 209.07 147.625 207.069C148.417 205.068 149.435 203.184 150.679 201.419C151.923 199.712 153.676 198.005 155.939 196.298C158.201 194.592 160.831 193.15 163.828 191.973C166.825 190.796 170.53 189.825 174.941 189.059C179.409 188.353 184.357 188 189.787 188H225.713L270.859 188V202.478L189.532 202.478C186.309 202.596 183.424 202.92 180.879 203.449C177.769 204.156 175.337 205.009 173.584 206.009C171.831 207.01 170.36 208.246 169.172 209.717C168.098 211.13 167.334 212.513 166.882 213.866C166.543 215.161 166.345 216.574 166.288 218.104V219.252C166.288 221.135 166.656 222.959 167.391 224.725C168.07 226.432 169.286 228.139 171.039 229.845C172.792 231.552 175.422 232.876 178.928 233.818C181.982 234.701 185.63 235.201 189.872 235.319L270.859 235.319V249.885Z" fill="#41F168"/>
<path fill-rule="evenodd" clip-rule="evenodd" d="M329.836 249.885H273.591C268.162 249.885 263.214 249.532 258.746 248.826C254.278 248.061 250.545 247.06 247.548 245.824C244.664 244.647 242.062 243.176 239.743 241.41C237.481 239.703 235.728 237.967 234.484 236.202C233.24 234.495 232.222 232.582 231.43 230.463C230.638 228.462 230.129 226.638 229.903 224.99C229.677 223.342 229.563 221.665 229.563 219.958V217.574C229.563 215.867 229.677 214.19 229.903 212.542C230.129 210.894 230.638 209.07 231.43 207.069C232.222 205.068 233.24 203.184 234.484 201.419C235.728 199.712 237.481 198.005 239.743 196.298C242.006 194.592 244.635 193.15 247.633 191.973C250.63 190.796 254.334 189.824 258.746 189.059C263.214 188.353 268.162 188 273.591 188H309.518H329.836V202.478H273.337C270.113 202.596 267.229 202.92 264.684 203.449C261.573 204.155 259.142 205.009 257.388 206.009C255.635 207.01 254.165 208.246 252.977 209.717C251.903 211.13 251.139 212.513 250.687 213.866C250.347 215.161 250.149 216.574 250.093 218.104V219.252C250.093 221.135 250.46 222.959 251.196 224.725C251.874 226.432 253.09 228.139 254.843 229.845C256.597 231.552 259.226 232.876 262.733 233.818C265.787 234.701 269.435 235.201 273.676 235.319H329.836V249.885Z" fill="#41F168"/>
<path fill-rule="evenodd" clip-rule="evenodd" d="M180.854 249.885H124.609C119.18 249.885 114.231 249.532 109.763 248.826C105.295 248.061 101.563 247.06 98.5655 245.824C95.6812 244.647 93.0797 243.176 90.7609 241.41C88.4987 239.703 86.7455 237.967 85.5013 236.202C84.2571 234.495 83.2391 232.582 82.4473 230.463C81.6556 228.462 81.1466 226.638 80.9204 224.99C80.6942 223.342 80.581 221.665 80.581 219.958V217.574C80.581 215.867 80.6942 214.19 80.9204 212.542C81.1466 210.894 81.6556 209.07 82.4473 207.069C83.2391 205.068 84.2571 203.184 85.5013 201.419C86.7455 199.712 88.4987 198.005 90.7609 196.298C93.0231 194.592 95.6529 193.15 98.6503 191.973C101.648 190.796 105.352 189.824 109.763 189.059C114.231 188.353 119.18 188 124.609 188H160.535H180.854V202.478H124.354C121.131 202.596 118.247 202.92 115.702 203.449C112.591 204.155 110.159 205.009 108.406 206.009C106.653 207.01 105.182 208.246 103.995 209.717C102.92 211.13 102.157 212.513 101.704 213.866C101.365 215.161 101.167 216.574 101.11 218.104V219.252C101.11 221.135 101.478 222.959 102.213 224.725C102.892 226.432 104.108 228.139 105.861 229.845C107.614 231.552 110.244 232.876 113.75 233.818C116.804 234.701 120.452 235.201 124.694 235.319H180.854V249.885Z" fill="#41F168"/>
<path fill-rule="evenodd" clip-rule="evenodd" d="M141.279 249.885H79.6305C74.2012 249.885 69.2527 249.532 64.7849 248.826C60.317 248.061 56.5844 247.06 53.587 245.824C50.7027 244.647 48.1012 243.176 45.7825 241.41C43.5203 239.703 41.7671 237.967 40.5229 236.202C39.2787 234.495 38.2607 232.582 37.4689 230.463C36.6771 228.462 36.1682 226.638 35.9419 224.99C35.7157 223.342 35.6026 221.665 35.6026 219.958V217.574C35.6026 215.867 35.7157 214.19 35.9419 212.542C36.1682 210.894 36.6771 209.07 37.4689 207.069C38.2607 205.068 39.2787 203.184 40.5229 201.419C41.7671 199.712 43.5203 198.005 45.7825 196.298C48.0446 194.592 50.6745 193.15 53.6719 191.973C56.6693 190.796 60.3736 189.824 64.7849 189.059C69.2527 188.353 74.2012 188 79.6305 188H115.557H141.279V202.478H79.376C76.1524 202.596 73.2681 202.92 70.7231 203.449C67.6126 204.155 65.1808 205.009 63.4276 206.009C61.6744 207.01 60.2039 208.246 59.0163 209.717C57.9417 211.13 57.1782 212.513 56.7258 213.866C56.3865 215.161 56.1885 216.574 56.132 218.104V219.252C56.132 221.135 56.4996 222.959 57.2348 224.725C57.9135 226.432 59.1294 228.139 60.8826 229.845C62.6358 231.552 65.2656 232.876 68.772 233.818C71.8259 234.701 75.4737 235.201 79.7153 235.319H141.279V249.885Z" fill="#41F168"/>
<path fill-rule="evenodd" clip-rule="evenodd" d="M111.795 249.885H44.715C39.2857 249.885 34.3372 249.532 29.8693 248.826C25.4015 248.061 21.6689 247.06 18.6715 245.824C15.7872 244.647 13.1857 243.176 10.8669 241.41C8.60474 239.703 6.85154 237.967 5.60733 236.202C4.36313 234.495 3.34514 232.582 2.55337 230.463C1.7616 228.462 1.25262 226.638 1.02639 224.99C0.800179 223.342 0.687065 221.665 0.687065 219.958V217.574C0.687065 215.867 0.800179 214.19 1.02639 212.542C1.25262 210.894 1.7616 209.07 2.55337 207.069C3.34514 205.068 4.36313 203.184 5.60733 201.419C6.85154 199.712 8.60474 198.005 10.8669 196.298C13.1291 194.592 15.7589 193.15 18.7563 191.973C21.7537 190.796 25.4581 189.824 29.8693 189.059C34.3372 188.353 39.2857 188 44.715 188H80.6414H111.795V202.478H44.4605C41.2368 202.596 38.3526 202.92 35.8076 203.449C32.6971 204.155 30.2652 205.009 28.512 206.009C26.7588 207.01 25.2884 208.246 24.1007 209.717C23.0262 211.13 22.2627 212.513 21.8103 213.866C21.4709 215.161 21.273 216.574 21.2164 218.104V219.252C21.2164 221.135 21.5841 222.959 22.3193 224.725C22.9979 226.432 24.2139 228.139 25.967 229.845C27.7202 231.552 30.3501 232.876 33.8564 233.818C36.9104 234.701 40.5582 235.201 44.7998 235.319H111.795V249.885Z" fill="#41F168"/>
</svg>
