<svg width="1155" height="338" viewBox="0 0 1155 338" fill="none" xmlns="http://www.w3.org/2000/svg">
<path d="M11.3004 158.829C11.3004 155.204 10.8029 152.539 9.80799 150.834C8.81302 149.057 6.82309 148.168 3.8382 148.168H1.70614V146.036H47.1191C53.16 146.036 56.1804 148.879 56.1804 154.565V162.56H54.0483C54.0483 154.387 49.6065 150.301 40.7229 150.301H20.8947V178.017H49.6776V182.281H20.8947V212.13H39.5503C44.454 212.13 48.2918 211.242 51.0634 209.465C53.8351 207.689 56.0383 204.668 57.6728 200.404L59.8049 200.937L56.0738 211.064C54.7945 214.618 52.1295 216.395 48.0785 216.395H11.3004V158.829ZM74.1797 158.829C74.1797 155.204 73.6822 152.539 72.6872 150.834C71.6923 149.057 69.7023 148.168 66.7175 148.168H64.5854V146.036H109.998C116.039 146.036 119.06 148.879 119.06 154.565V162.56H116.928C116.928 154.387 112.486 150.301 103.602 150.301H83.774V178.017H112.557V182.281H83.774V212.13H102.43C107.333 212.13 111.171 211.242 113.943 209.465C116.714 207.689 118.917 204.668 120.552 200.404L122.684 200.937L118.953 211.064C117.674 214.618 115.009 216.395 110.958 216.395H74.1797V158.829ZM215.412 221.192C210.295 221.192 206.315 220.41 203.473 218.846C200.63 217.283 198.605 214.867 197.396 211.597C196.259 208.257 195.691 203.815 195.691 198.272V157.23L169.04 216.395H166.908L139.191 156.164V216.395H134.927V146.036H145.054L170.639 201.47L195.691 146.036H205.285V198.272C205.285 204.881 206.102 209.998 207.737 213.623C209.443 217.247 212.001 219.06 215.412 219.06V221.192ZM227.63 158.829C227.63 155.204 227.133 152.539 226.138 150.834C225.143 149.057 223.153 148.168 220.168 148.168H218.036V146.036H263.449C269.49 146.036 272.51 148.879 272.51 154.565V162.56H270.378C270.378 154.387 265.936 150.301 257.053 150.301H237.224V178.017H266.007V182.281H237.224V212.13H255.88C260.784 212.13 264.621 211.242 267.393 209.465C270.165 207.689 272.368 204.668 274.002 200.404L276.134 200.937L272.403 211.064C271.124 214.618 268.459 216.395 264.408 216.395H227.63V158.829ZM337.415 217.461C333.648 217.461 330.343 216.359 327.501 214.156C324.729 211.882 321.637 207.831 318.226 202.003L307.566 183.881H300.104V216.395H290.509V158.829C290.509 155.204 290.012 152.539 289.017 150.834C288.022 149.057 286.032 148.168 283.047 148.168H280.915V146.036H308.632C315.383 146.036 321.495 147.387 326.968 150.087C332.511 152.717 335.283 157.763 335.283 165.225C335.283 174.677 329.597 180.718 318.226 183.348L329.419 202.003C332.049 206.409 334.394 209.501 336.455 211.278C338.587 212.983 341.039 213.978 343.811 214.262V216.395C343.171 216.679 342.247 216.928 341.039 217.141C339.902 217.354 338.694 217.461 337.415 217.461ZM308.099 180.149C310.302 180.149 312.683 179.616 315.241 178.55C317.871 177.484 320.074 175.814 321.851 173.54C323.698 171.266 324.622 168.494 324.622 165.225C324.622 161.743 323.698 158.864 321.851 156.59C320.074 154.245 317.871 152.539 315.241 151.473C312.683 150.336 310.302 149.768 308.099 149.768C305.611 149.768 302.946 150.123 300.104 150.834V179.083C302.946 179.794 305.611 180.149 308.099 180.149ZM400.814 217.461C397.048 217.461 393.743 216.359 390.9 214.156C388.129 211.882 385.037 207.831 381.626 202.003L370.966 183.881H363.503V216.395H353.909V158.829C353.909 155.204 353.412 152.539 352.417 150.834C351.422 149.057 349.432 148.168 346.447 148.168H344.315V146.036H372.032C378.783 146.036 384.895 147.387 390.367 150.087C395.911 152.717 398.682 157.763 398.682 165.225C398.682 174.677 392.997 180.718 381.626 183.348L392.819 202.003C395.449 206.409 397.794 209.501 399.855 211.278C401.987 212.983 404.439 213.978 407.211 214.262V216.395C406.571 216.679 405.647 216.928 404.439 217.141C403.302 217.354 402.094 217.461 400.814 217.461ZM371.499 180.149C373.702 180.149 376.083 179.616 378.641 178.55C381.271 177.484 383.474 175.814 385.25 173.54C387.098 171.266 388.022 168.494 388.022 165.225C388.022 161.743 387.098 158.864 385.25 156.59C383.474 154.245 381.271 152.539 378.641 151.473C376.083 150.336 373.702 149.768 371.499 149.768C369.011 149.768 366.346 150.123 363.503 150.834V179.083C366.346 179.794 369.011 180.149 371.499 180.149ZM446.944 218.527C439.98 218.527 433.726 216.821 428.182 213.41C422.71 209.998 418.41 205.379 415.283 199.551C412.227 193.653 410.699 187.185 410.699 180.149C410.699 173.398 412.05 167.286 414.75 161.814C417.451 156.27 421.289 151.9 426.263 148.701C431.309 145.503 437.137 143.904 443.746 143.904C449.858 143.904 455.117 144.722 459.524 146.356C464.001 147.92 467.27 149.945 469.331 152.433C470.468 153.854 471.179 155.737 471.463 158.083C471.819 160.428 471.996 163.342 471.996 166.824H469.864C468.514 160.57 465.955 155.915 462.189 152.859C458.422 149.732 453.341 148.168 446.944 148.168C441.188 148.168 436.391 149.696 432.553 152.752C428.715 155.737 425.873 159.646 424.025 164.479C422.248 169.311 421.36 174.535 421.36 180.149C421.36 192.16 423.705 200.866 428.396 206.267C433.086 211.597 439.269 214.262 446.944 214.262C450.569 214.262 453.66 213.943 456.219 213.303C458.777 212.663 461.194 211.74 463.468 210.531V191.982C463.468 189.566 463.859 187.47 464.641 185.693C465.422 183.916 467.093 182.459 469.651 181.322C472.281 180.114 476.083 179.51 481.058 179.51V181.642C477.859 181.642 475.727 182.459 474.661 184.094C473.595 185.728 473.062 188.287 473.062 191.769V211.811C469.225 214.156 465.209 215.862 461.016 216.928C456.823 217.994 452.133 218.527 446.944 218.527ZM501.816 216.395C499.186 216.395 497.197 216.075 495.846 215.435C494.567 214.724 493.643 213.481 493.075 211.704C492.506 209.927 492.222 207.227 492.222 203.602V146.036H501.816V203.602C501.816 207.227 502.313 209.927 503.308 211.704C504.303 213.41 506.293 214.262 509.278 214.262H511.41V216.395H501.816ZM529.123 216.395H524.859V158.829C524.859 155.417 524.113 152.788 522.62 150.94C521.199 149.092 518.747 148.168 515.265 148.168H514.199V146.036H521.128C524.397 146.036 527.169 146.569 529.443 147.635C531.717 148.701 533.743 150.301 535.519 152.433L572.83 198.805V146.036H577.095V217.461H574.963L529.123 160.428V216.395ZM627.046 218.527C620.081 218.527 613.827 216.821 608.283 213.41C602.811 209.998 598.511 205.379 595.384 199.551C592.329 193.653 590.801 187.185 590.801 180.149C590.801 173.398 592.151 167.286 594.851 161.814C597.552 156.27 601.39 151.9 606.365 148.701C611.41 145.503 617.238 143.904 623.848 143.904C629.959 143.904 635.219 144.722 639.625 146.356C644.102 147.92 647.371 149.945 649.432 152.433C650.569 153.854 651.28 155.737 651.564 158.083C651.92 160.428 652.097 163.342 652.097 166.824H649.965C648.615 160.57 646.057 155.915 642.29 152.859C638.523 149.732 633.442 148.168 627.046 148.168C621.289 148.168 616.492 149.696 612.654 152.752C608.816 155.737 605.974 159.646 604.126 164.479C602.349 169.311 601.461 174.535 601.461 180.149C601.461 192.16 603.806 200.866 608.497 206.267C613.187 211.597 619.37 214.262 627.046 214.262C630.67 214.262 633.762 213.943 636.32 213.303C638.879 212.663 641.295 211.74 643.569 210.531V191.982C643.569 189.566 643.96 187.47 644.742 185.693C645.524 183.916 647.194 182.459 649.752 181.322C652.382 180.114 656.184 179.51 661.159 179.51V181.642C657.961 181.642 655.828 182.459 654.762 184.094C653.696 185.728 653.163 188.287 653.163 191.769V211.811C649.326 214.156 645.31 215.862 641.117 216.928C636.924 217.994 632.234 218.527 627.046 218.527Z" fill="#CEFFD9"/>
<path d="M453.691 255.705C444.807 255.705 440.365 259.791 440.365 267.964H438.233V259.969C438.233 254.283 441.254 251.441 447.294 251.441H496.865V255.705H472.879V321.799H463.285V255.705H453.691ZM509.445 264.233C509.445 260.609 508.947 257.943 507.953 256.238C506.958 254.461 504.968 253.573 501.983 253.573H499.851V251.441H545.264C551.304 251.441 554.325 254.283 554.325 259.969V267.964H552.193C552.193 259.791 547.751 255.705 538.867 255.705H519.039V283.422H547.822V287.686H519.039V317.535H537.695C542.599 317.535 546.436 316.646 549.208 314.87C551.98 313.093 554.183 310.072 555.817 305.808L557.949 306.341L554.218 316.469C552.939 320.022 550.274 321.799 546.223 321.799H509.445V264.233ZM598.762 323.931C592.152 323.931 586.325 322.332 581.279 319.134C576.304 315.936 572.466 311.6 569.766 306.128C567.065 300.585 565.715 294.437 565.715 287.686C565.715 280.721 567.172 274.289 570.086 268.391C573.07 262.492 577.086 257.837 582.132 254.426C587.249 251.014 592.792 249.309 598.762 249.309C604.447 249.309 609.422 250.126 613.686 251.761C618.021 253.324 621.22 255.349 623.281 257.837C624.489 259.329 625.235 261.319 625.519 263.807C625.803 266.223 625.946 269.563 625.946 273.827H623.814C622.463 266.934 619.976 261.852 616.351 258.583C612.727 255.243 607.93 253.573 601.96 253.573C594.284 253.573 588.101 256.273 583.411 261.675C578.72 267.076 576.375 275.746 576.375 287.686C576.375 293.3 577.263 298.524 579.04 303.356C580.888 308.189 583.731 312.133 587.568 315.189C591.406 318.174 596.203 319.667 601.96 319.667C607.148 319.667 611.661 318.423 615.499 315.936C619.407 313.448 622.89 309.717 625.946 304.742L628.078 306.341C624.809 312.738 620.758 317.286 615.925 319.987C611.163 322.616 605.442 323.931 598.762 323.931ZM669.657 323.931C663.048 323.931 657.22 322.332 652.174 319.134C647.199 315.936 643.362 311.6 640.661 306.128C637.96 300.585 636.61 294.437 636.61 287.686C636.61 280.721 638.067 274.289 640.981 268.391C643.966 262.492 647.981 257.837 653.027 254.426C658.144 251.014 663.687 249.309 669.657 249.309C675.343 249.309 680.317 250.126 684.582 251.761C688.917 253.324 692.115 255.349 694.176 257.837C695.384 259.329 696.13 261.319 696.415 263.807C696.699 266.223 696.841 269.563 696.841 273.827H694.709C693.359 266.934 690.871 261.852 687.247 258.583C683.622 255.243 678.825 253.573 672.855 253.573C665.18 253.573 658.997 256.273 654.306 261.675C649.616 267.076 647.27 275.746 647.27 287.686C647.27 293.3 648.159 298.524 649.936 303.356C651.783 308.189 654.626 312.133 658.464 315.189C662.301 318.174 667.099 319.667 672.855 319.667C678.043 319.667 682.556 318.423 686.394 315.936C690.303 313.448 693.785 309.717 696.841 304.742L698.973 306.341C695.704 312.738 691.653 317.286 686.82 319.987C682.059 322.616 676.338 323.931 669.657 323.931ZM714.115 264.233C714.115 260.609 713.617 257.943 712.622 256.238C711.627 254.461 709.637 253.573 706.653 253.573H704.521V251.441H714.115C716.744 251.441 718.699 251.796 719.978 252.507C721.328 253.146 722.288 254.355 722.856 256.131C723.425 257.908 723.709 260.609 723.709 264.233V283.422H755.69V251.441H765.284V309.006C765.284 312.631 765.782 315.332 766.777 317.108C767.772 318.814 769.762 319.667 772.747 319.667H774.879V321.799H765.284C762.655 321.799 760.665 321.479 759.315 320.839C758.035 320.129 757.111 318.885 756.543 317.108C755.974 315.332 755.69 312.631 755.69 309.006V287.686H723.709V321.799H714.115V264.233ZM788.029 264.233C788.029 260.609 787.532 257.943 786.537 256.238C785.542 254.461 783.552 253.573 780.567 253.573H778.435V251.441H788.029C790.659 251.441 792.613 251.796 793.892 252.507C795.243 253.146 796.202 254.355 796.771 256.131C797.339 257.908 797.623 260.609 797.623 264.233V283.422H829.604V251.441H839.199V309.006C839.199 312.631 839.696 315.332 840.691 317.108C841.686 318.814 843.676 319.667 846.661 319.667H848.793V321.799H839.199C836.569 321.799 834.579 321.479 833.229 320.839C831.95 320.129 831.026 318.885 830.457 317.108C829.889 315.332 829.604 312.631 829.604 309.006V287.686H797.623V321.799H788.029V264.233Z" fill="#CEFFD9"/>
<path fill-rule="evenodd" clip-rule="evenodd" d="M756.018 97.6384L862.496 97.6385C869.626 97.6385 876.126 97.2354 881.993 96.4292C887.861 95.5559 892.763 94.4139 896.7 93.0031C900.488 91.6596 903.904 89.9801 906.95 87.9647C909.921 86.0165 912.223 84.0348 913.857 82.0194C915.491 80.0712 916.828 77.8879 917.868 75.4695C918.908 73.1854 919.576 71.1029 919.874 69.2219C920.171 67.3409 920.319 65.4263 920.319 63.4781V60.7573C920.319 58.8092 920.171 56.8946 919.874 55.0136C919.576 53.1326 918.908 51.05 917.868 48.7659C916.828 46.4819 915.491 44.3321 913.857 42.3168C912.223 40.3686 909.921 38.4204 906.95 36.4722C903.979 34.524 900.525 32.8782 896.588 31.5346C892.652 30.191 887.787 29.0826 881.993 28.2093C876.126 27.4031 869.626 27 862.496 27H815.313L756.018 27V43.526L862.83 43.526C867.064 43.6604 870.852 44.0298 874.194 44.6345C878.279 45.4406 881.473 46.4147 883.776 47.5567C886.078 48.6988 888.01 50.1095 889.569 51.789C890.981 53.4013 891.983 54.98 892.577 56.5251C893.023 58.003 893.283 59.6153 893.357 61.362V62.6719C893.357 64.8217 892.875 66.9042 891.909 68.9196C891.018 70.8677 889.421 72.8159 887.118 74.7641C884.816 76.7123 881.362 78.2238 876.757 79.2987C872.746 80.3064 867.955 80.8774 862.385 81.0117L756.018 81.0117V97.6384Z" fill="#41F168"/>
<path fill-rule="evenodd" clip-rule="evenodd" d="M697 97.6384H770.868C777.998 97.6384 784.497 97.2354 790.365 96.4292C796.233 95.5559 801.135 94.4138 805.072 93.0031C808.86 91.6595 812.276 89.9801 815.322 87.9647C818.293 86.0165 820.595 84.0347 822.229 82.0194C823.863 80.0712 825.2 77.8879 826.24 75.4694C827.28 73.1854 827.948 71.1028 828.245 69.2218C828.543 67.3408 828.691 65.4262 828.691 63.478V60.7573C828.691 58.8091 828.543 56.8945 828.245 55.0135C827.948 53.1325 827.28 51.05 826.24 48.7659C825.2 46.4818 823.863 44.3321 822.229 42.3167C820.595 40.3686 818.293 38.4204 815.322 36.4722C812.351 34.524 808.897 32.8781 804.96 31.5346C801.024 30.191 796.159 29.0825 790.365 28.2092C784.497 27.4031 777.998 27 770.868 27H723.685H697V43.526H771.202C775.436 43.6603 779.224 44.0298 782.566 44.6344C786.651 45.4406 789.845 46.4147 792.148 47.5567C794.45 48.6987 796.381 50.1095 797.941 51.7889C799.352 53.4012 800.355 54.9799 800.949 56.525C801.395 58.003 801.655 59.6153 801.729 61.3619V62.6719C801.729 64.8216 801.246 66.9042 800.281 68.9195C799.39 70.8677 797.793 72.8159 795.49 74.7641C793.188 76.7123 789.734 78.2238 785.129 79.2986C781.118 80.3063 776.327 80.8773 770.757 81.0117H697V97.6384Z" fill="#41F168"/>
<path fill-rule="evenodd" clip-rule="evenodd" d="M874.227 97.6384H948.094C955.225 97.6384 961.724 97.2354 967.592 96.4292C973.459 95.5559 978.362 94.4138 982.298 93.0031C986.086 91.6595 989.503 89.9801 992.548 87.9647C995.519 86.0165 997.822 84.0347 999.456 82.0194C1001.09 80.0712 1002.43 77.8879 1003.47 75.4694C1004.51 73.1854 1005.17 71.1028 1005.47 69.2218C1005.77 67.3408 1005.92 65.4262 1005.92 63.478V60.7573C1005.92 58.8091 1005.77 56.8945 1005.47 55.0135C1005.17 53.1325 1004.51 51.05 1003.47 48.7659C1002.43 46.4818 1001.09 44.3321 999.456 42.3167C997.822 40.3686 995.519 38.4204 992.548 36.4722C989.577 34.524 986.123 32.8781 982.187 31.5346C978.25 30.191 973.385 29.0825 967.592 28.2092C961.724 27.4031 955.225 27 948.094 27H900.911H874.227V43.526H948.429C952.662 43.6603 956.45 44.0298 959.793 44.6344C963.878 45.4406 967.072 46.4147 969.374 47.5567C971.677 48.6987 973.608 50.1095 975.168 51.7889C976.579 53.4012 977.582 54.9799 978.176 56.525C978.621 58.003 978.881 59.6153 978.956 61.3619V62.6719C978.956 64.8216 978.473 66.9042 977.507 68.9195C976.616 70.8677 975.019 72.8159 972.717 74.7641C970.414 76.7123 966.96 78.2238 962.355 79.2986C958.344 80.3063 953.554 80.8773 947.983 81.0117H874.227V97.6384Z" fill="#41F168"/>
<path fill-rule="evenodd" clip-rule="evenodd" d="M926.202 97.6384H1007.17C1014.3 97.6384 1020.8 97.2354 1026.67 96.4292C1032.53 95.5559 1037.43 94.4138 1041.37 93.0031C1045.16 91.6595 1048.58 89.9801 1051.62 87.9647C1054.59 86.0165 1056.9 84.0347 1058.53 82.0194C1060.16 80.0712 1061.5 77.8879 1062.54 75.4694C1063.58 73.1854 1064.25 71.1028 1064.55 69.2218C1064.84 67.3408 1064.99 65.4262 1064.99 63.478V60.7573C1064.99 58.8091 1064.84 56.8945 1064.55 55.0135C1064.25 53.1325 1063.58 51.05 1062.54 48.7659C1061.5 46.4818 1060.16 44.3321 1058.53 42.3167C1056.9 40.3686 1054.59 38.4204 1051.62 36.4722C1048.65 34.524 1045.2 32.8781 1041.26 31.5346C1037.32 30.191 1032.46 29.0825 1026.67 28.2092C1020.8 27.4031 1014.3 27 1007.17 27H959.985H926.202V43.526H1007.5C1011.74 43.6603 1015.52 44.0298 1018.87 44.6344C1022.95 45.4406 1026.15 46.4147 1028.45 47.5567C1030.75 48.6987 1032.68 50.1095 1034.24 51.7889C1035.65 53.4012 1036.66 54.9799 1037.25 56.525C1037.69 58.003 1037.95 59.6153 1038.03 61.3619V62.6719C1038.03 64.8216 1037.55 66.9042 1036.58 68.9195C1035.69 70.8677 1034.09 72.8159 1031.79 74.7641C1029.49 76.7123 1026.03 78.2238 1021.43 79.2986C1017.42 80.3063 1012.63 80.8773 1007.06 81.0117H926.202V97.6384Z" fill="#41F168"/>
<path fill-rule="evenodd" clip-rule="evenodd" d="M964.925 97.6384H1053.02C1060.15 97.6384 1066.65 97.2354 1072.52 96.4292C1078.39 95.5559 1083.29 94.4138 1087.23 93.0031C1091.01 91.6595 1094.43 89.9801 1097.48 87.9647C1100.45 86.0165 1102.75 84.0347 1104.38 82.0194C1106.02 80.0712 1107.36 77.8879 1108.4 75.4694C1109.43 73.1854 1110.1 71.1028 1110.4 69.2218C1110.7 67.3408 1110.85 65.4262 1110.85 63.478V60.7573C1110.85 58.8091 1110.7 56.8945 1110.4 55.0135C1110.1 53.1325 1109.43 51.05 1108.4 48.7659C1107.36 46.4818 1106.02 44.3321 1104.38 42.3167C1102.75 40.3686 1100.45 38.4204 1097.48 36.4722C1094.51 34.524 1091.05 32.8781 1087.12 31.5346C1083.18 30.191 1078.31 29.0825 1072.52 28.2092C1066.65 27.4031 1060.15 27 1053.02 27H1005.84H964.925V43.526H1053.36C1057.59 43.6603 1061.38 44.0298 1064.72 44.6344C1068.81 45.4406 1072 46.4147 1074.3 47.5567C1076.61 48.6987 1078.54 50.1095 1080.1 51.7889C1081.51 53.4012 1082.51 54.9799 1083.1 56.525C1083.55 58.003 1083.81 59.6153 1083.88 61.3619V62.6719C1083.88 64.8216 1083.4 66.9042 1082.44 68.9195C1081.54 70.8677 1079.95 72.8159 1077.65 74.7641C1075.34 76.7123 1071.89 78.2238 1067.28 79.2986C1063.27 80.3063 1058.48 80.8773 1052.91 81.0117H964.925V97.6384Z" fill="#41F168"/>
<path fill-rule="evenodd" clip-rule="evenodd" d="M344.749 314.638L241.296 314.638C234.368 314.638 228.054 314.201 222.353 313.327C216.652 312.379 211.889 311.14 208.064 309.609C204.383 308.152 201.064 306.33 198.105 304.143C195.219 302.029 192.981 299.879 191.394 297.693C189.806 295.579 188.507 293.21 187.497 290.586C186.487 288.108 185.837 285.849 185.548 283.808C185.26 281.767 185.115 279.69 185.115 277.577V274.625C185.115 272.511 185.26 270.434 185.548 268.393C185.837 266.352 186.487 264.093 187.497 261.615C188.507 259.137 189.806 256.804 191.394 254.618C192.981 252.504 195.219 250.39 198.105 248.277C200.992 246.163 204.347 244.377 208.172 242.92C211.997 241.462 216.724 240.259 222.353 239.312C228.054 238.437 234.368 238 241.296 238H287.138L344.749 238V255.93L240.971 255.93C236.858 256.075 233.177 256.476 229.93 257.132C225.961 258.007 222.858 259.064 220.621 260.303C218.383 261.542 216.507 263.072 214.992 264.895C213.621 266.644 212.646 268.357 212.069 270.033C211.636 271.636 211.383 273.386 211.311 275.281V276.702C211.311 279.034 211.78 281.294 212.719 283.48C213.585 285.594 215.136 287.708 217.373 289.821C219.61 291.935 222.966 293.575 227.44 294.741C231.337 295.834 235.992 296.454 241.404 296.599L344.749 296.599V314.638Z" fill="#41F168"/>
<path fill-rule="evenodd" clip-rule="evenodd" d="M420 314.638H348.231C341.303 314.638 334.989 314.201 329.288 313.326C323.587 312.379 318.824 311.14 314.999 309.609C311.319 308.152 307.999 306.33 305.04 304.143C302.154 302.029 299.917 299.879 298.329 297.693C296.741 295.579 295.442 293.21 294.432 290.586C293.422 288.108 292.772 285.849 292.484 283.808C292.195 281.767 292.051 279.69 292.051 277.576V274.625C292.051 272.511 292.195 270.434 292.484 268.393C292.772 266.352 293.422 264.093 294.432 261.615C295.442 259.137 296.741 256.804 298.329 254.618C299.917 252.504 302.154 250.39 305.04 248.277C307.927 246.163 311.283 244.377 315.107 242.92C318.932 241.462 323.659 240.259 329.288 239.312C334.989 238.437 341.303 238 348.231 238H394.074H420V255.93H347.906C343.793 256.075 340.113 256.476 336.865 257.132C332.896 258.007 329.793 259.064 327.556 260.303C325.319 261.542 323.443 263.072 321.927 264.895C320.556 266.644 319.582 268.357 319.004 270.033C318.571 271.636 318.319 273.386 318.247 275.281V276.702C318.247 279.034 318.716 281.294 319.654 283.48C320.52 285.594 322.071 287.707 324.308 289.821C326.546 291.935 329.901 293.575 334.376 294.741C338.272 295.834 342.927 296.454 348.339 296.599H420V314.638Z" fill="#41F168"/>
<path fill-rule="evenodd" clip-rule="evenodd" d="M229.897 314.638H158.128C151.2 314.638 144.886 314.201 139.185 313.326C133.484 312.379 128.721 311.14 124.896 309.609C121.216 308.152 117.896 306.33 114.937 304.143C112.051 302.029 109.814 299.879 108.226 297.693C106.638 295.579 105.339 293.21 104.329 290.586C103.319 288.108 102.669 285.849 102.381 283.808C102.092 281.767 101.948 279.69 101.948 277.576V274.625C101.948 272.511 102.092 270.434 102.381 268.393C102.669 266.352 103.319 264.093 104.329 261.615C105.339 259.137 106.638 256.804 108.226 254.618C109.814 252.504 112.051 250.39 114.937 248.277C117.824 246.163 121.18 244.377 125.004 242.92C128.829 241.462 133.556 240.259 139.185 239.312C144.886 238.437 151.2 238 158.128 238H203.971H229.897V255.93H157.803C153.69 256.075 150.009 256.476 146.762 257.132C142.793 258.007 139.69 259.064 137.453 260.303C135.216 261.542 133.339 263.072 131.824 264.895C130.453 266.644 129.479 268.357 128.901 270.033C128.468 271.636 128.216 273.386 128.143 275.281V276.702C128.143 279.034 128.613 281.294 129.551 283.48C130.417 285.594 131.968 287.707 134.205 289.821C136.442 291.935 139.798 293.575 144.272 294.741C148.169 295.834 152.824 296.454 158.236 296.599H229.897V314.638Z" fill="#41F168"/>
<path fill-rule="evenodd" clip-rule="evenodd" d="M179.4 314.638H100.734C93.8065 314.638 87.4921 314.201 81.791 313.326C76.09 312.379 71.3271 311.14 67.5024 309.609C63.822 308.152 60.5024 306.33 57.5436 304.143C54.657 302.029 52.4199 299.879 50.8323 297.693C49.2446 295.579 47.9456 293.21 46.9353 290.586C45.925 288.108 45.2756 285.849 44.9869 283.808C44.6982 281.767 44.5539 279.69 44.5539 277.576V274.625C44.5539 272.511 44.6982 270.434 44.9869 268.393C45.2756 266.352 45.925 264.093 46.9353 261.615C47.9456 259.137 49.2446 256.804 50.8323 254.618C52.4199 252.504 54.657 250.39 57.5436 248.277C60.4302 246.163 63.7859 244.377 67.6106 242.92C71.4354 241.462 76.1622 240.259 81.791 239.312C87.4921 238.437 93.8065 238 100.734 238H146.577H179.4V255.93H100.41C96.2962 256.075 92.6158 256.476 89.3684 257.132C85.3993 258.007 82.2962 259.064 80.0591 260.303C77.822 261.542 75.9457 263.072 74.4302 264.895C73.0591 266.644 72.0848 268.357 71.5075 270.033C71.0745 271.636 70.822 273.386 70.7498 275.281V276.702C70.7498 279.034 71.2189 281.294 72.157 283.48C73.023 285.594 74.5745 287.707 76.8117 289.821C79.0488 291.935 82.4045 293.575 86.8787 294.741C90.7756 295.834 95.4302 296.454 100.843 296.599H179.4V314.638Z" fill="#41F168"/>
<path fill-rule="evenodd" clip-rule="evenodd" d="M141.776 314.638H56.1805C49.2527 314.638 42.9382 314.201 37.2372 313.326C31.5361 312.379 26.7733 311.14 22.9485 309.609C19.2681 308.152 15.9485 306.33 12.9897 304.143C10.1031 302.029 7.86604 299.879 6.2784 297.693C4.69078 295.579 3.3918 293.21 2.38148 290.586C1.37117 288.108 0.721695 285.849 0.433029 283.808C0.144379 281.767 4.57764e-05 279.69 4.57764e-05 277.576V274.625C4.57764e-05 272.511 0.144379 270.434 0.433029 268.393C0.721695 266.352 1.37117 264.093 2.38148 261.615C3.3918 259.137 4.69078 256.804 6.2784 254.618C7.86604 252.504 10.1031 250.39 12.9897 248.277C15.8763 246.163 19.232 244.377 23.0568 242.92C26.8815 241.462 31.6083 240.259 37.2372 239.312C42.9382 238.437 49.2527 238 56.1805 238H102.023H141.776V255.93H55.8558C51.7424 256.075 48.062 256.476 44.8145 257.132C40.8455 258.007 37.7423 259.064 35.5052 260.303C33.2681 261.542 31.3918 263.072 29.8764 264.895C28.5052 266.644 27.531 268.357 26.9537 270.033C26.5207 271.636 26.2681 273.386 26.1959 275.281V276.702C26.1959 279.034 26.665 281.294 27.6032 283.48C28.4691 285.594 30.0207 287.707 32.2578 289.821C34.4949 291.935 37.8506 293.575 42.3248 294.741C46.2217 295.834 50.8764 296.454 56.2887 296.599H141.776V314.638Z" fill="#41F168"/>
<path d="M219.836 20.1204L292.883 47.7754C298.403 49.865 303.293 52.0878 307.552 54.4439C311.731 56.8312 315.109 59.1321 317.686 61.3465C320.263 63.5609 322.361 65.8725 323.978 68.2813C325.596 70.6901 326.697 72.903 327.28 74.9199C327.839 76.9899 328.122 79.079 328.127 81.187C328.133 83.295 327.921 85.1351 327.493 86.7073C327.064 88.2794 326.509 89.8345 325.827 91.3726L324.875 93.5207C324.193 95.0588 323.408 96.5268 322.52 97.9248C321.631 99.3228 320.385 100.771 318.781 102.27C317.129 103.874 315.33 105.206 313.383 106.265C311.413 107.378 308.937 108.268 305.955 108.935C302.893 109.634 299.66 109.958 296.258 109.909C292.717 109.869 288.522 109.334 283.674 108.304C278.85 107.221 273.678 105.635 268.159 103.545L195.112 75.8899C189.592 73.8003 184.674 71.5665 180.357 69.1887C176.12 66.7796 172.725 64.4414 170.172 62.1739C167.618 59.9065 165.562 57.5792 164.001 55.1922C162.349 52.7086 161.232 50.4583 160.649 48.4414C160.089 46.3713 159.819 44.2558 159.837 42.0947C159.912 39.9554 160.153 38.1262 160.557 36.6071C160.986 35.035 161.541 33.4799 162.223 31.9418L163.175 29.7937C163.881 28.2026 164.666 26.7345 165.531 25.3896C166.395 24.0446 167.613 22.5854 169.183 21.0121C170.811 19.4605 172.599 18.1551 174.545 17.0958C176.492 16.0366 178.956 15.1733 181.938 14.5059C184.92 13.8384 188.169 13.5512 191.687 13.6441C195.285 13.7057 199.468 14.2672 204.235 15.3286C209.116 16.4335 214.317 18.0307 219.836 20.1204ZM304.745 83.9485C305.299 82.5478 305.662 81.1987 305.834 79.9012C305.915 78.5072 305.692 76.967 305.164 75.2805C304.544 73.4974 303.543 71.8177 302.16 70.2413C300.778 68.6648 298.646 66.9598 295.766 65.1262C293.391 63.6693 290.588 62.2675 287.358 60.9207L214.397 33.2983C198.066 27.4252 187.878 29.0499 183.834 38.1725L183.446 39.0476C182.67 40.7979 182.315 42.5835 182.38 44.4046C182.422 46.2787 182.948 48.2739 183.957 50.3902C184.976 52.6344 187.069 54.8821 190.233 57.1333C193.192 59.2444 196.959 61.1971 201.535 62.9915L273.892 90.3853C278.251 91.9118 282.16 92.8649 285.617 93.2448C289.558 93.7457 292.76 93.5645 295.225 92.7012C297.689 91.8379 299.607 90.7678 300.979 89.4909C302.432 88.1827 303.534 86.68 304.287 84.9828L304.745 83.9485Z" fill="#FD39C3"/>
<path d="M197.25 47.7654L270.026 19.6721C275.525 17.5494 280.681 15.9319 285.495 14.8198C290.275 13.7827 294.423 13.2072 297.94 13.0931C301.456 12.9791 304.709 13.2468 307.697 13.8963C310.685 14.5458 313.157 15.3943 315.114 16.4418C317.095 17.5422 318.895 18.8368 320.514 20.3257C322.133 21.8145 323.394 23.2553 324.296 24.6479C325.197 26.0405 325.997 27.5038 326.694 29.0378L327.667 31.18C328.364 32.714 328.934 34.2657 329.377 35.8352C329.821 37.4047 330.05 39.2435 330.065 41.3515C330.129 43.5653 329.878 45.6824 329.315 47.7028C328.776 49.7762 327.709 52.022 326.114 54.4405C324.487 56.9339 322.452 59.2734 320.012 61.4591C317.48 63.7418 314.108 66.1004 309.895 68.5349C305.658 70.9165 300.791 73.1686 295.292 75.2914L222.516 103.385C217.017 105.507 211.832 107.136 206.961 108.27C202.123 109.329 197.934 109.89 194.394 109.951C190.853 110.012 187.617 109.707 184.687 109.035C181.617 108.355 179.104 107.491 177.147 106.443C175.166 105.343 173.354 104.022 171.711 102.48C170.125 100.916 168.894 99.4644 168.016 98.1247C167.114 96.7321 166.315 95.2688 165.618 93.7348L164.645 91.5926C163.924 90.0057 163.353 88.454 162.934 86.9373C162.514 85.4207 162.256 83.593 162.16 81.4542C162.121 79.2933 162.383 77.2027 162.946 75.1822C163.51 73.1618 164.589 70.9424 166.183 68.524C167.778 66.1055 169.852 63.7814 172.408 61.5515C174.996 59.2467 178.38 56.9145 182.56 54.5551C186.854 52.1514 191.751 49.8881 197.25 47.7654ZM306.117 37.5405C305.435 36.1873 304.658 34.9952 303.785 33.9642C302.774 32.9245 301.436 31.98 299.771 31.1306C297.968 30.2726 295.974 29.7367 293.79 29.5229C291.605 29.3092 288.794 29.493 285.355 30.0745C282.561 30.5934 279.508 31.4302 276.195 32.5848L203.504 60.6449C187.471 67.145 181.521 74.944 185.654 84.042L186.05 84.9147C186.843 86.6603 187.961 88.1563 189.402 89.4028C190.868 90.7022 192.767 91.7718 195.101 92.6116C197.541 93.5351 200.74 93.761 204.7 93.2893C208.407 92.8531 212.563 91.777 217.17 90.0609L289.259 62.233C293.507 60.4688 296.997 58.593 299.73 56.6055C302.897 54.3882 305.02 52.1699 306.099 49.9505C307.178 47.731 307.712 45.7217 307.703 43.9224C307.727 42.048 307.354 40.2646 306.585 38.5719L306.117 37.5405Z" fill="#FD39C3"/>
<path fill-rule="evenodd" clip-rule="evenodd" d="M154.628 33.151C154.42 33.1808 154.212 33.2115 154.006 33.2428C149.693 33.9526 146.089 34.8807 143.196 36.0272C140.411 37.119 137.9 38.4839 135.662 40.1217C133.478 41.705 131.786 43.3155 130.584 44.9534C129.383 46.5366 128.401 48.3109 127.636 50.2763C126.872 52.1325 126.381 53.8249 126.162 55.3536C125.944 56.8822 125.835 58.4382 125.835 60.0214L125.835 62.2325C125.835 63.8157 125.944 65.3717 126.162 66.9003C126.381 68.429 126.872 70.1214 127.636 71.9776C128.401 73.8338 129.383 75.5808 130.584 77.2187C131.786 78.8019 133.478 80.3852 135.662 81.9684C137.846 83.5516 140.384 84.8892 143.278 85.9811C146.171 87.073 149.747 87.9738 154.006 88.6835C154.212 88.7149 154.42 88.7455 154.628 88.7754L154.628 73.8517C153.91 73.5701 153.265 73.2729 152.695 72.9603C151.003 72.0322 149.583 70.8857 148.437 69.5209C147.4 68.2106 146.663 66.9276 146.226 65.6719C145.898 64.4709 145.707 63.1606 145.653 61.7411L145.653 60.6766C145.653 58.9295 146.007 57.2371 146.717 55.5993C147.372 54.016 148.546 52.4328 150.238 50.8496C151.342 49.8172 152.805 48.9357 154.628 48.2052L154.628 33.151Z" fill="#41F168"/>
<path fill-rule="evenodd" clip-rule="evenodd" d="M334.663 88.7693C334.871 88.7394 335.079 88.7088 335.285 88.6775C339.598 87.9678 343.201 87.0397 346.095 85.8932C348.879 84.8013 351.391 83.4364 353.629 81.7986C355.813 80.2153 357.505 78.6048 358.706 76.967C359.907 75.3837 360.89 73.6094 361.654 71.644C362.419 69.7878 362.91 68.0954 363.128 66.5667C363.347 65.0381 363.456 63.4821 363.456 61.8989V59.6878C363.456 58.1046 363.347 56.5487 363.128 55.02C362.91 53.4914 362.419 51.7989 361.654 49.9427C360.89 48.0865 359.907 46.3395 358.706 44.7017C357.505 43.1184 355.813 41.5352 353.629 39.9519C351.445 38.3687 348.906 37.0311 346.013 35.9392C343.119 34.8474 339.544 33.9465 335.285 33.2368C335.079 33.2055 334.871 33.1749 334.663 33.145V48.0689C335.381 48.3504 336.026 48.6475 336.595 48.96C338.288 49.8881 339.707 51.0346 340.854 52.3995C341.891 53.7097 342.628 54.9927 343.065 56.2484C343.392 57.4495 343.584 58.7597 343.638 60.1792V61.2438C343.638 62.9908 343.283 64.6832 342.574 66.3211C341.918 67.9043 340.745 69.4875 339.052 71.0708C337.949 72.103 336.486 72.9844 334.663 73.7149V88.7693Z" fill="#41F168"/>
<path d="M660.388 98.1389L652.988 84.9843H492.461L485.473 98.1389H460.397L500.066 26.0969H644.87L686.903 98.1389H660.388ZM629.248 42.6429H515.276L501.3 68.6438H643.945L629.248 42.6429Z" fill="#CEFFD9"/>
<path d="M434.141 97.2137H404.029L363.743 26.3022H391.183L419.753 78.4068L446.473 26.3022H471.652L434.141 97.2137Z" fill="#CEFFD9"/>
<path d="M6.00049 26.5234H33.4401L83.4892 71.7423V26.5234H107.64V98.3598H83.4892L30.2543 50.7772V98.3598H6.00049V26.5234Z" fill="#CEFFD9"/>
</svg>
