<svg width="787" height="112" viewBox="0 0 787 112" fill="none" xmlns="http://www.w3.org/2000/svg">
<g clip-path="url(#clip0_169_130)">
<path d="M756.657 97.7596L748.259 82.8306H566.079L558.148 97.7596H529.689L574.71 16H739.045L786.748 97.7596H756.657ZM721.317 34.7779H591.971L576.109 64.286H737.996L721.317 34.7779Z" fill="#CEFFD9"/>
<path d="M499.893 96.709H465.72L420 16.2324H451.141L483.565 75.3652L513.889 16.2324H542.464L499.893 96.709Z" fill="#CEFFD9"/>
<path d="M14 16.4824H45.141L101.941 67.8009V16.4824H129.35V98.0087H101.941L41.5253 44.0078V98.0087H14V16.4824Z" fill="#CEFFD9"/>
<path d="M256.68 9.2157L339.58 40.601C345.844 42.9726 351.393 45.4952 356.228 48.1691C360.97 50.8784 364.804 53.4897 367.728 56.0028C370.653 58.5159 373.033 61.1393 374.869 63.873C376.705 66.6067 377.954 69.1181 378.616 71.4071C379.251 73.7564 379.571 76.1272 379.578 78.5196C379.584 80.9119 379.344 83.0002 378.858 84.7844C378.371 86.5686 377.741 88.3335 376.968 90.0791L375.887 92.5169C375.113 94.2625 374.222 95.9285 373.214 97.5151C372.206 99.1017 370.791 100.745 368.97 102.446C367.096 104.267 365.054 105.779 362.845 106.981C360.609 108.243 357.799 109.253 354.415 110.01C350.939 110.803 347.271 111.172 343.409 111.116C339.39 111.071 334.63 110.463 329.129 109.294C323.654 108.065 317.784 106.265 311.52 103.893L228.62 72.5079C222.356 70.1364 216.774 67.6014 211.875 64.9028C207.067 62.1688 203.214 59.5151 200.316 56.9418C197.418 54.3685 195.084 51.7273 193.313 49.0183C191.438 46.1997 190.17 43.6459 189.508 41.3569C188.873 39.0076 188.566 36.6067 188.587 34.1542C188.672 31.7263 188.945 29.6503 189.405 27.9263C189.891 26.1421 190.521 24.3773 191.295 22.6317L192.375 20.1939C193.176 18.3881 194.067 16.722 195.049 15.1957C196.03 13.6693 197.412 12.0133 199.194 10.2277C201.042 8.46682 203.07 6.98532 205.279 5.78322C207.489 4.58111 210.285 3.60133 213.669 2.84387C217.053 2.08642 220.741 1.76041 224.733 1.86583C228.817 1.93576 233.564 2.573 238.973 3.77753C244.514 5.03148 250.416 6.8442 256.68 9.2157ZM353.042 81.6536C353.67 80.0639 354.082 78.5328 354.278 77.0603C354.37 75.4783 354.116 73.7303 353.517 71.8163C352.813 69.7927 351.677 67.8864 350.108 66.0974C348.539 64.3083 346.12 62.3733 342.852 60.2923C340.156 58.6389 336.975 57.048 333.309 55.5195L250.507 24.1712C231.973 17.5059 220.411 19.3498 215.821 29.7029L215.381 30.696C214.5 32.6824 214.097 34.7089 214.171 36.7756C214.219 38.9025 214.815 41.1669 215.96 43.5687C217.117 46.1155 219.492 48.6664 223.084 51.2213C226.441 53.6171 230.717 55.8333 235.91 57.8697L318.027 88.9586C322.974 90.691 327.41 91.7727 331.333 92.2038C335.806 92.7723 339.44 92.5667 342.237 91.5869C345.034 90.6071 347.21 89.3926 348.767 87.9435C350.416 86.4589 351.667 84.7535 352.521 82.8273L353.042 81.6536Z" fill="#FD39C3"/>
<path d="M231.046 40.5897L313.639 8.70699C319.88 6.2979 325.732 4.4623 331.195 3.20018C336.62 2.02319 341.328 1.36999 345.318 1.24058C349.309 1.11117 353 1.415 356.391 2.15209C359.783 2.88919 362.589 3.85213 364.81 5.04092C367.058 6.28974 369.101 7.759 370.938 9.4487C372.775 11.1384 374.206 12.7735 375.229 14.3539C376.253 15.9344 377.16 17.5951 377.951 19.336L379.055 21.7672C379.846 23.5081 380.493 25.2691 380.997 27.0503C381.5 28.8316 381.76 30.9183 381.777 33.3107C381.849 35.8231 381.565 38.2258 380.926 40.5187C380.314 42.8717 379.103 45.4206 377.293 48.1652C375.446 50.995 373.137 53.6501 370.367 56.1305C367.495 58.7212 363.668 61.3979 358.887 64.1608C354.078 66.8636 348.554 69.4196 342.313 71.8287L259.72 103.711C253.479 106.121 247.595 107.969 242.067 109.256C236.577 110.458 231.823 111.094 227.805 111.163C223.787 111.232 220.115 110.886 216.789 110.124C213.305 109.352 210.453 108.371 208.232 107.183C205.984 105.934 203.927 104.435 202.063 102.685C200.263 100.91 198.865 99.2624 197.869 97.7419C196.845 96.1615 195.938 94.5008 195.147 92.7599L194.043 90.3287C193.225 88.5278 192.578 86.7667 192.102 85.0456C191.625 83.3244 191.333 81.2501 191.223 78.8228C191.179 76.3705 191.476 73.9978 192.116 71.7048C192.755 69.4119 193.98 66.8931 195.789 64.1484C197.599 61.4037 199.953 58.7661 202.853 56.2355C205.791 53.6197 209.632 50.973 214.375 48.2953C219.249 45.5673 224.806 42.9988 231.046 40.5897ZM354.598 28.9856C353.824 27.4499 352.942 26.097 351.952 24.9269C350.805 23.747 349.287 22.675 347.397 21.7111C345.35 20.7374 343.087 20.1292 340.608 19.8866C338.13 19.644 334.939 19.8527 331.036 20.5125C327.865 21.1015 324.4 22.0511 320.64 23.3615L238.145 55.2066C219.949 62.5834 213.196 71.4344 217.886 81.7596L218.336 82.7501C219.236 84.7311 220.504 86.4289 222.14 87.8436C223.803 89.3183 225.959 90.5321 228.608 91.4852C231.376 92.5333 235.007 92.7897 239.502 92.2543C243.708 91.7593 248.426 90.538 253.654 88.5905L335.466 57.0089C340.287 55.0067 344.248 52.8779 347.35 50.6223C350.944 48.1059 353.353 45.5884 354.578 43.0696C355.802 40.5507 356.409 38.2703 356.398 36.2283C356.425 34.1012 356.003 32.0771 355.13 30.1562L354.598 28.9856Z" fill="#FD39C3"/>
<path fill-rule="evenodd" clip-rule="evenodd" d="M182.674 24.0004C182.438 24.0342 182.204 24.0688 181.971 24.1042C177.076 24.9097 172.987 25.963 169.703 27.2641C166.543 28.5033 163.693 30.0522 161.153 31.911C158.674 33.7078 156.754 35.5356 155.39 37.3943C154.027 39.1911 152.912 41.2048 152.045 43.4353C151.177 45.5419 150.62 47.4626 150.372 49.1974C150.124 50.9323 150 52.6981 150 54.4949L150 57.0042C150 58.801 150.124 60.5668 150.372 62.3017C150.62 64.0365 151.177 65.9572 152.045 68.0638C152.912 70.1704 154.027 72.1531 155.39 74.0119C156.754 75.8087 158.674 77.6055 161.153 79.4023C163.631 81.1991 166.512 82.7171 169.796 83.9562C173.08 85.1954 177.138 86.2177 181.971 87.0232C182.204 87.0586 182.438 87.0932 182.674 87.127L182.674 70.1893C181.86 69.8701 181.13 69.5334 180.484 69.1791C178.563 68.1258 176.952 66.8247 175.651 65.2757C174.474 63.7887 173.637 62.3327 173.142 60.9076C172.77 59.5445 172.553 58.0575 172.491 56.4466L172.491 55.2384C172.491 53.2557 172.894 51.335 173.699 49.4763C174.443 47.6795 175.775 45.8827 177.696 44.0859C178.947 42.9149 180.607 41.915 182.674 41.0862L182.674 24.0004Z" fill="#41F168"/>
<path fill-rule="evenodd" clip-rule="evenodd" d="M387 87.1265C387.236 87.0928 387.47 87.0582 387.704 87.0228C392.598 86.2173 396.688 85.164 399.971 83.8629C403.131 82.6237 405.981 81.0747 408.522 79.216C411 77.4192 412.921 75.5914 414.284 73.7326C415.647 71.9358 416.762 69.9222 417.63 67.6917C418.497 65.5851 419.055 63.6644 419.303 61.9295C419.55 60.1947 419.674 58.4288 419.674 56.632V54.1227C419.674 52.3259 419.55 50.5601 419.303 48.8253C419.055 47.0904 418.497 45.1697 417.63 43.0631C416.762 40.9565 415.647 38.9738 414.284 37.1151C412.921 35.3183 411 33.5215 408.522 31.7247C406.043 29.9279 403.162 28.4099 399.879 27.1707C396.595 25.9315 392.536 24.9092 387.704 24.1038C387.47 24.0683 387.236 24.0337 387 24V40.9376C387.814 41.2568 388.545 41.5936 389.191 41.9479C391.111 43.0012 392.722 44.3023 394.023 45.8512C395.201 47.3383 396.037 48.7943 396.533 50.2193C396.905 51.5824 397.121 53.0694 397.183 54.6804V55.8885C397.183 57.8712 396.781 59.7919 395.975 61.6507C395.232 63.4475 393.9 65.2443 391.979 67.0411C390.727 68.212 389.068 69.2119 387 70.0408V87.1265Z" fill="#41F168"/>
</g>
<defs>
<clipPath id="clip0_169_130">
<rect width="787" height="112" fill="white"/>
</clipPath>
</defs>
</svg>
