<svg width="259" height="69" viewBox="0 0 259 69" fill="none" xmlns="http://www.w3.org/2000/svg">
<rect width="259" height="69" rx="20" fill="#41F168"/>
<path d="M36.9927 37.3706V44H30.6039V25.3148H47.0437C52.9424 25.3148 55.8917 26.9276 55.8917 30.1532V30.4472C55.8917 32.4253 54.6354 33.7975 52.1226 34.5638C53.2632 34.8668 54.1898 35.3747 54.9027 36.0875C55.6155 36.8004 55.9719 37.727 55.9719 38.8676V41.5942L55.9987 44H49.5564C49.5564 43.9822 49.5653 43.5901 49.5831 42.8238V40.6586C49.5831 39.5002 49.2624 38.6626 48.6208 38.1458C47.9793 37.629 46.8833 37.3706 45.3329 37.3706H36.9927ZM36.9927 29.5651V33.2273H46.6694C47.5426 33.2273 48.1842 33.058 48.5941 32.7194C49.0218 32.3808 49.2356 31.9353 49.2356 31.3828V31.3561C49.2356 30.8214 49.0218 30.3937 48.5941 30.073C48.1842 29.7344 47.5426 29.5651 46.6694 29.5651H36.9927ZM58.8232 25.2346H80.3687V29.4849H65.1318V32.2649H79.9944V36.542H65.1318V39.6161H80.636V43.9733H58.8232V25.2346ZM96.7784 44.3208H96.1903C94.0874 44.3208 92.2162 44.1158 90.5767 43.706C88.9372 43.2783 87.6273 42.7436 86.6472 42.1021C85.667 41.4427 84.8651 40.6853 84.2414 39.8299C83.6355 38.9567 83.2167 38.128 82.985 37.3439C82.7533 36.542 82.6375 35.74 82.6375 34.9381V34.2163C82.6375 33.3966 82.7355 32.6124 82.9315 31.864C83.1276 31.0798 83.5285 30.269 84.1345 29.4314C84.7582 28.5582 85.5423 27.8097 86.4868 27.186C87.4491 26.5622 88.7857 26.0454 90.4965 25.6356C92.2073 25.2079 94.1854 24.994 96.4309 24.994H97.6071C99.7634 24.994 101.67 25.1633 103.328 25.5019C105.003 25.8405 106.304 26.2504 107.23 26.7315C108.175 27.2305 108.941 27.8186 109.529 28.4958C110.135 29.173 110.545 29.7878 110.759 30.3403C110.955 30.9105 111.062 31.4897 111.08 32.0778V32.1045H104.29C103.613 30.3225 101.198 29.4314 97.0457 29.4314C91.8955 29.4314 89.3203 31.1155 89.3203 34.4836V34.751C89.3203 36.1232 89.953 37.3083 91.2183 38.3062C92.4835 39.2864 94.4082 39.7764 96.9922 39.7764C98.1328 39.7764 99.1753 39.6963 100.12 39.5359C101.064 39.3933 101.822 39.2151 102.392 39.0012C102.962 38.7696 103.434 38.529 103.809 38.2795C104.201 38.0122 104.477 37.7805 104.637 37.5845C104.78 37.3884 104.86 37.2281 104.878 37.1033V37.0498H96.8853V33.5213H111.213V43.9733H106.616C106.616 43.9554 106.598 42.9931 106.562 41.0863C104.53 43.2426 101.269 44.3208 96.7784 44.3208ZM120.449 25.3148V43.9733H114.087V25.3148H120.449ZM134.895 44.3475C132.863 44.3297 131.09 44.1693 129.575 43.8663C128.06 43.5456 126.893 43.1624 126.073 42.7169C125.254 42.2536 124.594 41.7011 124.095 41.0596C123.614 40.418 123.311 39.8299 123.186 39.2953C123.044 38.7785 122.973 38.226 122.973 37.6379V37.3706H129.629C129.736 38.7428 130.546 39.6339 132.061 40.0438C132.863 40.2398 133.879 40.3378 135.109 40.3378H136.579C137.541 40.3378 138.432 40.2843 139.252 40.1774C140.09 40.0705 140.704 39.919 141.096 39.723C141.471 39.5091 141.72 39.2953 141.845 39.0814C141.97 38.8676 142.041 38.627 142.059 38.3597C142.059 37.9498 141.943 37.629 141.711 37.3974C141.48 37.1657 140.972 36.9607 140.188 36.7825C139.368 36.6043 138.209 36.4974 136.713 36.4618L134.708 36.435L133.184 36.3816C126.555 36.2212 123.24 34.3945 123.24 30.9016V30.6878C123.258 30.0819 123.338 29.5205 123.48 29.0037C123.659 28.5047 123.988 27.9968 124.47 27.48C124.969 26.9632 125.619 26.5355 126.421 26.1969C127.223 25.8405 128.292 25.5465 129.629 25.3148C130.983 25.0831 132.56 24.9673 134.36 24.9673H136.231C138.103 24.9673 139.751 25.092 141.177 25.3415C142.602 25.5732 143.734 25.8761 144.572 26.2504C145.427 26.6068 146.122 27.0523 146.657 27.587C147.209 28.1394 147.583 28.674 147.779 29.1908C147.975 29.7255 148.073 30.2868 148.073 30.8749V31.1422H141.444C141.408 30.9284 141.355 30.7591 141.284 30.6343C141.23 30.4918 141.079 30.3046 140.829 30.073C140.597 29.8235 140.295 29.6274 139.92 29.4849C139.51 29.3245 138.94 29.1908 138.209 29.0839C137.425 28.9592 136.641 28.8968 135.857 28.8968H134.895C133.505 28.8968 132.4 28.9859 131.58 29.1641C130.76 29.3423 130.261 29.5294 130.083 29.7255C129.905 29.9037 129.816 30.1621 129.816 30.5007C129.834 30.8214 129.932 31.0798 130.11 31.2759C130.306 31.4897 130.76 31.6858 131.473 31.864C132.204 32.0244 133.229 32.1045 134.547 32.1045L136.044 32.1313L137.969 32.158C141.765 32.2293 144.509 32.7105 146.202 33.6015C147.895 34.4747 148.742 35.8469 148.742 37.7181V38.0656C148.742 38.7607 148.661 39.3844 148.501 39.9368C148.323 40.4715 147.975 41.0239 147.459 41.5942C146.96 42.1644 146.282 42.6456 145.427 43.0377C144.589 43.4119 143.431 43.7238 141.952 43.9733C140.473 44.2228 138.753 44.3475 136.793 44.3475H134.895ZM158.666 44V29.7255H149.898V25.3148H173.902V29.7255H165.108V44H158.666ZM175.799 25.2346H197.344V29.4849H182.108V32.2649H196.97V36.542H182.108V39.6161H197.612V43.9733H175.799V25.2346ZM206.831 37.3706V44H200.442V25.3148H216.882C222.78 25.3148 225.73 26.9276 225.73 30.1532V30.4472C225.73 32.4253 224.473 33.7975 221.961 34.5638C223.101 34.8668 224.028 35.3747 224.741 36.0875C225.454 36.8004 225.81 37.727 225.81 38.8676V41.5942L225.837 44H219.394C219.394 43.9822 219.403 43.5901 219.421 42.8238V40.6586C219.421 39.5002 219.1 38.6626 218.459 38.1458C217.817 37.629 216.721 37.3706 215.171 37.3706H206.831ZM206.831 29.5651V33.2273H216.507C217.381 33.2273 218.022 33.058 218.432 32.7194C218.86 32.3808 219.074 31.9353 219.074 31.3828V31.3561C219.074 30.8214 218.86 30.3937 218.432 30.073C218.022 29.7344 217.381 29.5651 216.507 29.5651H206.831Z" fill="black"/>
</svg>
