<svg width="1512" height="106" viewBox="0 0 1512 106" fill="none" xmlns="http://www.w3.org/2000/svg">
<path d="M-52.5665 42.6852L-1.84691 61.8873C1.98551 63.3382 5.38063 64.8816 8.33847 66.5175C11.2401 68.1751 13.5855 69.7727 15.3748 71.3103C17.1641 72.8478 18.6204 74.4529 19.7438 76.1254C20.8671 77.7979 21.6312 79.3344 22.036 80.7349C22.4245 82.1722 22.6206 83.6227 22.6244 85.0864C22.6282 86.5501 22.4814 87.8278 22.1839 88.9194C21.8864 90.011 21.501 91.0908 21.0275 92.1587L20.3663 93.6502C19.8928 94.7182 19.3477 95.7375 18.7309 96.7082C18.114 97.6789 17.2486 98.6845 16.1346 99.725C14.988 100.839 13.7388 101.764 12.3871 102.499C11.019 103.272 9.29982 103.89 7.22951 104.353C5.10296 104.838 2.85843 105.064 0.495936 105.029C-1.96273 105.002 -4.87507 104.63 -8.24107 103.915C-11.5907 103.163 -15.1818 102.061 -19.0142 100.61L-69.7338 81.4084C-73.5662 79.9575 -76.9813 78.4065 -79.9791 76.7555C-82.9206 75.0827 -85.2778 73.4592 -87.0508 71.8848C-88.8237 70.3104 -90.2519 68.6945 -91.3354 67.0371C-92.4824 65.3126 -93.2582 63.7502 -93.663 62.3497C-94.0515 60.9124 -94.2395 59.4435 -94.2269 57.9429C-94.1745 56.4575 -94.0077 55.1874 -93.7266 54.1327C-93.4291 53.0411 -93.0436 51.9613 -92.5702 50.8933L-91.9089 49.4018C-91.4191 48.297 -90.874 47.2777 -90.2735 46.3438C-89.673 45.41 -88.8276 44.3968 -87.7372 43.3044C-86.6068 42.227 -85.3658 41.3206 -84.0141 40.5851C-82.6623 39.8497 -80.9513 39.2502 -78.881 38.7868C-76.8107 38.3234 -74.5544 38.1239 -72.112 38.1884C-69.6135 38.2312 -66.7093 38.6211 -63.3995 39.358C-60.0099 40.1252 -56.3989 41.2343 -52.5665 42.6852ZM6.38926 87.0039C6.77383 86.0313 7.02594 85.0945 7.1456 84.1936C7.20174 83.2257 7.04648 82.1563 6.67981 80.9853C6.24963 79.7472 5.55455 78.5809 4.59455 77.4863C3.63455 76.3917 2.15468 75.2079 0.154943 73.9347C-1.49456 72.9231 -3.44074 71.9498 -5.68359 71.0146L-56.3433 51.8352C-67.6827 47.7573 -74.7564 48.8854 -77.5646 55.2196L-77.8339 55.8272C-78.3727 57.0425 -78.6194 58.2824 -78.5739 59.5468C-78.5447 60.8481 -78.1798 62.2334 -77.4792 63.7029C-76.7714 65.2611 -75.3187 66.8218 -73.1212 68.3849C-71.067 69.8507 -68.4512 71.2066 -65.2738 72.4525L-15.0333 91.4732C-12.0066 92.5331 -9.29288 93.1949 -6.89225 93.4586C-4.15592 93.8065 -1.93225 93.6807 -0.221237 93.0812C1.48979 92.4818 2.82156 91.7387 3.77407 90.8521C4.78284 89.9438 5.54845 88.9004 6.0709 87.722L6.38926 87.0039Z" fill="#FD39C3"/>
<path d="M-68.2494 61.8803L-17.7178 42.3739C-13.8996 40.9 -10.3194 39.777 -6.97712 39.0048C-3.65795 38.2847 -0.777534 37.8851 1.66411 37.8059C4.10575 37.7267 6.36395 37.9126 8.4387 38.3636C10.5134 38.8145 12.2302 39.4037 13.5891 40.131C14.9646 40.895 16.2144 41.794 17.3385 42.8277C18.4625 43.8615 19.3377 44.8619 19.9639 45.8289C20.5902 46.7958 21.1452 47.8118 21.629 48.8769L22.3047 50.3644C22.7886 51.4295 23.1845 52.5069 23.4926 53.5967C23.8006 54.6865 23.9599 55.9632 23.9703 57.4269C24.0141 58.964 23.8404 60.434 23.4492 61.8369C23.0747 63.2765 22.3339 64.8359 21.2269 66.5151C20.0967 68.2464 18.6842 69.8709 16.9895 71.3884C15.2319 72.9735 12.8905 74.6111 9.96531 76.3015C7.02345 77.9551 3.64342 79.5189 -0.174788 80.9928L-50.7063 100.499C-54.5245 101.973 -58.1247 103.104 -61.5067 103.891C-64.8657 104.627 -67.7743 105.016 -70.2326 105.058C-72.691 105.101 -74.9376 104.889 -76.9726 104.422C-79.1038 103.95 -80.8488 103.35 -82.2076 102.623C-83.5832 101.859 -84.8413 100.942 -85.9821 99.8711C-87.083 98.7853 -87.9383 97.7772 -88.5479 96.847C-89.1741 95.88 -89.7291 94.864 -90.213 93.7989L-90.8887 92.3114C-91.3892 91.2096 -91.7851 90.1322 -92.0765 89.0791C-92.3679 88.0261 -92.547 86.757 -92.6139 85.272C-92.641 83.7716 -92.459 82.3199 -92.0678 80.9171C-91.6766 79.5142 -90.9275 77.9731 -89.8204 76.2939C-88.7133 74.6147 -87.2726 73.0009 -85.4983 71.4527C-83.701 69.8523 -81.3512 68.233 -78.4491 66.5947C-75.4675 64.9257 -72.0676 63.3542 -68.2494 61.8803ZM7.34161 54.7807C6.86806 53.8412 6.32844 53.0134 5.72276 52.2976C5.02085 51.5757 4.09184 50.9198 2.93574 50.3301C1.68341 49.7343 0.298949 49.3622 -1.21763 49.2138C-2.73422 49.0654 -4.68637 49.1931 -7.07409 49.5968C-9.01402 49.9571 -11.1342 50.5381 -13.4346 51.3398L-63.9065 70.8232C-75.0391 75.3364 -79.1705 80.7516 -76.3009 87.0687L-76.0256 87.6747C-75.4751 88.8867 -74.6994 89.9255 -73.6985 90.791C-72.6809 91.6932 -71.3618 92.4359 -69.7413 93.019C-68.0476 93.6602 -65.826 93.8171 -63.0764 93.4896C-60.5026 93.1867 -57.6165 92.4395 -54.418 91.248L-4.36369 71.9258C-1.41409 70.7009 1.00945 69.3984 2.90693 68.0184C5.10591 66.4789 6.57997 64.9386 7.3291 63.3975C8.07824 61.8565 8.44952 60.4613 8.44297 59.212C8.4595 57.9105 8.20082 56.6722 7.66694 55.4969L7.34161 54.7807Z" fill="#FD39C3"/>
<path d="M337.141 42.6852L387.86 61.8873C391.693 63.3382 395.088 64.8816 398.046 66.5175C400.947 68.1751 403.293 69.7727 405.082 71.3103C406.871 72.8478 408.327 74.4529 409.451 76.1254C410.574 77.7979 411.338 79.3344 411.743 80.7349C412.132 82.1722 412.328 83.6227 412.331 85.0864C412.335 86.5501 412.188 87.8278 411.891 88.9194C411.593 90.011 411.208 91.0908 410.735 92.1587L410.073 93.6502C409.6 94.7182 409.055 95.7375 408.438 96.7082C407.821 97.6789 406.956 98.6845 405.842 99.725C404.695 100.839 403.446 101.764 402.094 102.499C400.726 103.272 399.007 103.89 396.937 104.353C394.81 104.838 392.565 105.064 390.203 105.029C387.744 105.002 384.832 104.63 381.466 103.915C378.116 103.163 374.525 102.061 370.693 100.61L319.973 81.4084C316.141 79.9575 312.726 78.4065 309.728 76.7555C306.786 75.0827 304.429 73.4592 302.656 71.8848C300.883 70.3104 299.455 68.6945 298.372 67.0371C297.225 65.3126 296.449 63.7502 296.044 62.3497C295.656 60.9124 295.468 59.4435 295.48 57.9429C295.533 56.4575 295.699 55.1874 295.98 54.1327C296.278 53.0411 296.663 51.9613 297.137 50.8933L297.798 49.4018C298.288 48.297 298.833 47.2777 299.434 46.3438C300.034 45.41 300.879 44.3968 301.97 43.3044C303.1 42.227 304.341 41.3206 305.693 40.5851C307.045 39.8497 308.756 39.2502 310.826 38.7868C312.896 38.3234 315.153 38.1239 317.595 38.1884C320.094 38.2312 322.998 38.6211 326.307 39.358C329.697 40.1252 333.308 41.2343 337.141 42.6852ZM396.096 87.0039C396.481 86.0313 396.733 85.0945 396.853 84.1936C396.909 83.2257 396.754 82.1563 396.387 80.9853C395.957 79.7472 395.262 78.5809 394.302 77.4863C393.342 76.3917 391.862 75.2079 389.862 73.9347C388.212 72.9231 386.266 71.9498 384.023 71.0146L333.364 51.8352C322.024 47.7573 314.951 48.8854 312.142 55.2196L311.873 55.8272C311.334 57.0425 311.088 58.2824 311.133 59.5468C311.162 60.8481 311.527 62.2334 312.228 63.7029C312.936 65.2611 314.388 66.8218 316.586 68.3849C318.64 69.8507 321.256 71.2066 324.433 72.4525L374.674 91.4732C377.7 92.5331 380.414 93.1949 382.815 93.4586C385.551 93.8065 387.775 93.6807 389.486 93.0812C391.197 92.4818 392.529 91.7387 393.481 90.8521C394.49 89.9438 395.255 88.9004 395.778 87.722L396.096 87.0039Z" fill="#FD39C3"/>
<path d="M321.458 61.8803L371.989 42.3739C375.807 40.9 379.388 39.777 382.73 39.0048C386.049 38.2847 388.929 37.8851 391.371 37.8059C393.813 37.7267 396.071 37.9126 398.146 38.3636C400.22 38.8145 401.937 39.4037 403.296 40.131C404.672 40.895 405.921 41.794 407.045 42.8277C408.17 43.8615 409.045 44.8619 409.671 45.8289C410.297 46.7958 410.852 47.8118 411.336 48.8769L412.012 50.3644C412.496 51.4295 412.892 52.5069 413.2 53.5967C413.508 54.6865 413.667 55.9632 413.677 57.4269C413.721 58.964 413.547 60.434 413.156 61.8369C412.782 63.2765 412.041 64.8359 410.934 66.5151C409.804 68.2464 408.391 69.8709 406.697 71.3884C404.939 72.9735 402.598 74.6111 399.672 76.3015C396.73 77.9551 393.35 79.5189 389.532 80.9928L339.001 100.499C335.182 101.973 331.582 103.104 328.2 103.891C324.841 104.627 321.933 105.016 319.474 105.058C317.016 105.101 314.769 104.889 312.734 104.422C310.603 103.95 308.858 103.35 307.499 102.623C306.124 101.859 304.866 100.942 303.725 99.8711C302.624 98.7853 301.769 97.7772 301.159 96.847C300.533 95.88 299.978 94.864 299.494 93.7989L298.818 92.3114C298.318 91.2096 297.922 90.1322 297.631 89.0791C297.339 88.0261 297.16 86.757 297.093 85.272C297.066 83.7716 297.248 82.3199 297.639 80.9171C298.03 79.5142 298.78 77.9731 299.887 76.2939C300.994 74.6147 302.434 73.0009 304.209 71.4527C306.006 69.8523 308.356 68.233 311.258 66.5947C314.24 64.9257 317.639 63.3542 321.458 61.8803ZM397.049 54.7807C396.575 53.8412 396.035 53.0134 395.43 52.2976C394.728 51.5757 393.799 50.9198 392.643 50.3301C391.39 49.7343 390.006 49.3622 388.489 49.2138C386.973 49.0654 385.021 49.1931 382.633 49.5968C380.693 49.9571 378.573 50.5381 376.272 51.3398L325.801 70.8232C314.668 75.3364 310.536 80.7516 313.406 87.0687L313.681 87.6747C314.232 88.8867 315.008 89.9255 316.009 90.791C317.026 91.6932 318.345 92.4359 319.966 93.019C321.659 93.6602 323.881 93.8171 326.631 93.4896C329.204 93.1867 332.091 92.4395 335.289 91.248L385.343 71.9258C388.293 70.7009 390.716 69.3984 392.614 68.0184C394.813 66.4789 396.287 64.9386 397.036 63.3975C397.785 61.8565 398.157 60.4613 398.15 59.212C398.167 57.9105 397.908 56.6722 397.374 55.4969L397.049 54.7807Z" fill="#FD39C3"/>
<path d="M726.844 42.6852L777.563 61.8873C781.396 63.3382 784.791 64.8816 787.749 66.5175C790.65 68.1751 792.996 69.7727 794.785 71.3103C796.574 72.8478 798.031 74.4529 799.154 76.1254C800.277 77.7979 801.041 79.3344 801.446 80.7349C801.835 82.1722 802.031 83.6227 802.035 85.0864C802.038 86.5501 801.892 87.8278 801.594 88.9194C801.297 90.011 800.911 91.0908 800.438 92.1587L799.776 93.6502C799.303 94.7182 798.758 95.7375 798.141 96.7082C797.524 97.6789 796.659 98.6845 795.545 99.725C794.398 100.839 793.149 101.764 791.797 102.499C790.429 103.272 788.71 103.89 786.64 104.353C784.513 104.838 782.269 105.064 779.906 105.029C777.447 105.002 774.535 104.63 771.169 103.915C767.819 103.163 764.228 102.061 760.396 100.61L709.676 81.4084C705.844 79.9575 702.429 78.4065 699.431 76.7555C696.49 75.0827 694.132 73.4592 692.359 71.8848C690.586 70.3104 689.158 68.6945 688.075 67.0371C686.928 65.3126 686.152 63.7502 685.747 62.3497C685.359 60.9124 685.171 59.4435 685.183 57.9429C685.236 56.4575 685.402 55.1874 685.684 54.1327C685.981 53.0411 686.367 51.9613 686.84 50.8933L687.501 49.4018C687.991 48.297 688.536 47.2777 689.137 46.3438C689.737 45.41 690.583 44.3968 691.673 43.3044C692.803 42.227 694.044 41.3206 695.396 40.5851C696.748 39.8497 698.459 39.2502 700.529 38.7868C702.599 38.3234 704.856 38.1239 707.298 38.1884C709.797 38.2312 712.701 38.6211 716.011 39.358C719.4 40.1252 723.011 41.2343 726.844 42.6852ZM785.799 87.0039C786.184 86.0313 786.436 85.0945 786.556 84.1936C786.612 83.2257 786.457 82.1563 786.09 80.9853C785.66 79.7472 784.965 78.5809 784.005 77.4863C783.045 76.3917 781.565 75.2079 779.565 73.9347C777.916 72.9231 775.969 71.9498 773.727 71.0146L723.067 51.8352C711.728 47.7573 704.654 48.8854 701.846 55.2196L701.576 55.8272C701.037 57.0425 700.791 58.2824 700.836 59.5468C700.865 60.8481 701.23 62.2334 701.931 63.7029C702.639 65.2611 704.091 66.8218 706.289 68.3849C708.343 69.8507 710.959 71.2066 714.136 72.4525L764.377 91.4732C767.404 92.5331 770.117 93.1949 772.518 93.4586C775.254 93.8065 777.478 93.6807 779.189 93.0812C780.9 92.4818 782.232 91.7387 783.184 90.8521C784.193 89.9438 784.959 88.9004 785.481 87.722L785.799 87.0039Z" fill="#FD39C3"/>
<path d="M711.161 61.8803L761.692 42.3739C765.511 40.9 769.091 39.777 772.433 39.0048C775.752 38.2847 778.633 37.8851 781.074 37.8059C783.516 37.7267 785.774 37.9126 787.849 38.3636C789.924 38.8145 791.64 39.4037 792.999 40.131C794.375 40.895 795.625 41.794 796.749 42.8277C797.873 43.8615 798.748 44.8619 799.374 45.8289C800 46.7958 800.555 47.8118 801.039 48.8769L801.715 50.3644C802.199 51.4295 802.595 52.5069 802.903 53.5967C803.211 54.6865 803.37 55.9632 803.38 57.4269C803.424 58.964 803.251 60.434 802.859 61.8369C802.485 63.2765 801.744 64.8359 800.637 66.5151C799.507 68.2464 798.094 69.8709 796.4 71.3884C794.642 72.9735 792.301 74.6111 789.375 76.3015C786.434 77.9551 783.054 79.5189 779.235 80.9928L728.704 100.499C724.886 101.973 721.285 103.104 717.903 103.891C714.544 104.627 711.636 105.016 709.178 105.058C706.719 105.101 704.473 104.889 702.438 104.422C700.306 103.95 698.561 103.35 697.203 102.623C695.827 101.859 694.569 100.942 693.428 99.8711C692.327 98.7853 691.472 97.7772 690.862 96.847C690.236 95.88 689.681 94.864 689.197 93.7989L688.521 92.3114C688.021 91.2096 687.625 90.1322 687.334 89.0791C687.042 88.0261 686.863 86.757 686.796 85.272C686.769 83.7716 686.951 82.3199 687.342 80.9171C687.734 79.5142 688.483 77.9731 689.59 76.2939C690.697 74.6147 692.138 73.0009 693.912 71.4527C695.709 69.8523 698.059 68.233 700.961 66.5947C703.943 64.9257 707.343 63.3542 711.161 61.8803ZM786.752 54.7807C786.278 53.8412 785.739 53.0134 785.133 52.2976C784.431 51.5757 783.502 50.9198 782.346 50.3301C781.094 49.7343 779.709 49.3622 778.193 49.2138C776.676 49.0654 774.724 49.1931 772.336 49.5968C770.396 49.9571 768.276 50.5381 765.976 51.3398L715.504 70.8232C704.371 75.3364 700.24 80.7516 703.109 87.0687L703.385 87.6747C703.935 88.8867 704.711 89.9255 705.712 90.791C706.729 91.6932 708.048 92.4359 709.669 93.019C711.363 93.6602 713.584 93.8171 716.334 93.4896C718.908 93.1867 721.794 92.4395 724.992 91.248L775.046 71.9258C777.996 70.7009 780.42 69.3984 782.317 68.0184C784.516 66.4789 785.99 64.9386 786.739 63.3975C787.488 61.8565 787.86 60.4613 787.853 59.212C787.87 57.9105 787.611 56.6722 787.077 55.4969L786.752 54.7807Z" fill="#FD39C3"/>
<path d="M1116.43 42.6852L1167.15 61.8873C1170.99 63.3382 1174.38 64.8816 1177.34 66.5175C1180.24 68.1751 1182.59 69.7727 1184.37 71.3103C1186.16 72.8478 1187.62 74.4529 1188.74 76.1254C1189.87 77.7979 1190.63 79.3344 1191.04 80.7349C1191.42 82.1722 1191.62 83.6227 1191.62 85.0864C1191.63 86.5501 1191.48 87.8278 1191.18 88.9194C1190.89 90.011 1190.5 91.0908 1190.03 92.1587L1189.37 93.6502C1188.89 94.7182 1188.35 95.7375 1187.73 96.7082C1187.11 97.6789 1186.25 98.6845 1185.13 99.725C1183.99 100.839 1182.74 101.764 1181.39 102.499C1180.02 103.272 1178.3 103.89 1176.23 104.353C1174.1 104.838 1171.86 105.064 1169.5 105.029C1167.04 105.002 1164.12 104.63 1160.76 103.915C1157.41 103.163 1153.82 102.061 1149.99 100.61L1099.27 81.4084C1095.43 79.9575 1092.02 78.4065 1089.02 76.7555C1086.08 75.0827 1083.72 73.4592 1081.95 71.8848C1080.18 70.3104 1078.75 68.6945 1077.66 67.0371C1076.52 65.3126 1075.74 63.7502 1075.34 62.3497C1074.95 60.9124 1074.76 59.4435 1074.77 57.9429C1074.83 56.4575 1074.99 55.1874 1075.27 54.1327C1075.57 53.0411 1075.96 51.9613 1076.43 50.8933L1077.09 49.4018C1077.58 48.297 1078.13 47.2777 1078.73 46.3438C1079.33 45.41 1080.17 44.3968 1081.26 43.3044C1082.39 42.227 1083.63 41.3206 1084.99 40.5851C1086.34 39.8497 1088.05 39.2502 1090.12 38.7868C1092.19 38.3234 1094.45 38.1239 1096.89 38.1884C1099.39 38.2312 1102.29 38.6211 1105.6 39.358C1108.99 40.1252 1112.6 41.2343 1116.43 42.6852ZM1175.39 87.0039C1175.77 86.0313 1176.03 85.0945 1176.15 84.1936C1176.2 83.2257 1176.05 82.1563 1175.68 80.9853C1175.25 79.7472 1174.55 78.5809 1173.59 77.4863C1172.63 76.3917 1171.15 75.2079 1169.15 73.9347C1167.51 72.9231 1165.56 71.9498 1163.32 71.0146L1112.66 51.8352C1101.32 47.7573 1094.24 48.8854 1091.44 55.2196L1091.17 55.8272C1090.63 57.0425 1090.38 58.2824 1090.43 59.5468C1090.46 60.8481 1090.82 62.2334 1091.52 63.7029C1092.23 65.2611 1093.68 66.8218 1095.88 68.3849C1097.93 69.8507 1100.55 71.2066 1103.73 72.4525L1153.97 91.4732C1156.99 92.5331 1159.71 93.1949 1162.11 93.4586C1164.84 93.8065 1167.07 93.6807 1168.78 93.0812C1170.49 92.4818 1171.82 91.7387 1172.77 90.8521C1173.78 89.9438 1174.55 88.9004 1175.07 87.722L1175.39 87.0039Z" fill="#FD39C3"/>
<path d="M1100.75 61.8803L1151.28 42.3739C1155.1 40.9 1158.68 39.777 1162.02 39.0048C1165.34 38.2847 1168.22 37.8851 1170.66 37.8059C1173.11 37.7267 1175.36 37.9126 1177.44 38.3636C1179.51 38.8145 1181.23 39.4037 1182.59 40.131C1183.96 40.895 1185.21 41.794 1186.34 42.8277C1187.46 43.8615 1188.34 44.8619 1188.96 45.8289C1189.59 46.7958 1190.15 47.8118 1190.63 48.8769L1191.3 50.3644C1191.79 51.4295 1192.18 52.5069 1192.49 53.5967C1192.8 54.6865 1192.96 55.9632 1192.97 57.4269C1193.01 58.964 1192.84 60.434 1192.45 61.8369C1192.07 63.2765 1191.33 64.8359 1190.23 66.5151C1189.1 68.2464 1187.68 69.8709 1185.99 71.3884C1184.23 72.9735 1181.89 74.6111 1178.97 76.3015C1176.02 77.9551 1172.64 79.5189 1168.83 80.9928L1118.29 100.499C1114.48 101.973 1110.88 103.104 1107.49 103.891C1104.13 104.627 1101.23 105.016 1098.77 105.058C1096.31 105.101 1094.06 104.889 1092.03 104.422C1089.9 103.95 1088.15 103.35 1086.79 102.623C1085.42 101.859 1084.16 100.942 1083.02 99.8711C1081.92 98.7853 1081.06 97.7772 1080.45 96.847C1079.83 95.88 1079.27 94.864 1078.79 93.7989L1078.11 92.3114C1077.61 91.2096 1077.21 90.1322 1076.92 89.0791C1076.63 88.0261 1076.45 86.757 1076.39 85.272C1076.36 83.7716 1076.54 82.3199 1076.93 80.9171C1077.32 79.5142 1078.07 77.9731 1079.18 76.2939C1080.29 74.6147 1081.73 73.0009 1083.5 71.4527C1085.3 69.8523 1087.65 68.233 1090.55 66.5947C1093.53 64.9257 1096.93 63.3542 1100.75 61.8803ZM1176.34 54.7807C1175.87 53.8412 1175.33 53.0134 1174.72 52.2976C1174.02 51.5757 1173.09 50.9198 1171.94 50.3301C1170.68 49.7343 1169.3 49.3622 1167.78 49.2138C1166.27 49.0654 1164.31 49.1931 1161.93 49.5968C1159.99 49.9571 1157.87 50.5381 1155.57 51.3398L1105.09 70.8232C1093.96 75.3364 1089.83 80.7516 1092.7 87.0687L1092.97 87.6747C1093.52 88.8867 1094.3 89.9255 1095.3 90.791C1096.32 91.6932 1097.64 92.4359 1099.26 93.019C1100.95 93.6602 1103.17 93.8171 1105.92 93.4896C1108.5 93.1867 1111.38 92.4395 1114.58 91.248L1164.64 71.9258C1167.59 70.7009 1170.01 69.3984 1171.91 68.0184C1174.11 66.4789 1175.58 64.9386 1176.33 63.3975C1177.08 61.8565 1177.45 60.4613 1177.44 59.212C1177.46 57.9105 1177.2 56.6722 1176.67 55.4969L1176.34 54.7807Z" fill="#FD39C3"/>
<path d="M1506.43 42.6852L1557.15 61.8873C1560.99 63.3382 1564.38 64.8816 1567.34 66.5175C1570.24 68.1751 1572.59 69.7727 1574.37 71.3103C1576.16 72.8478 1577.62 74.4529 1578.74 76.1254C1579.87 77.7979 1580.63 79.3344 1581.04 80.7349C1581.42 82.1722 1581.62 83.6227 1581.62 85.0864C1581.63 86.5501 1581.48 87.8278 1581.18 88.9194C1580.89 90.011 1580.5 91.0908 1580.03 92.1587L1579.37 93.6502C1578.89 94.7182 1578.35 95.7375 1577.73 96.7082C1577.11 97.6789 1576.25 98.6845 1575.13 99.725C1573.99 100.839 1572.74 101.764 1571.39 102.499C1570.02 103.272 1568.3 103.89 1566.23 104.353C1564.1 104.838 1561.86 105.064 1559.5 105.029C1557.04 105.002 1554.12 104.63 1550.76 103.915C1547.41 103.163 1543.82 102.061 1539.99 100.61L1489.27 81.4084C1485.43 79.9575 1482.02 78.4065 1479.02 76.7555C1476.08 75.0827 1473.72 73.4592 1471.95 71.8848C1470.18 70.3104 1468.75 68.6945 1467.66 67.0371C1466.52 65.3126 1465.74 63.7502 1465.34 62.3497C1464.95 60.9124 1464.76 59.4435 1464.77 57.9429C1464.83 56.4575 1464.99 55.1874 1465.27 54.1327C1465.57 53.0411 1465.96 51.9613 1466.43 50.8933L1467.09 49.4018C1467.58 48.297 1468.13 47.2777 1468.73 46.3438C1469.33 45.41 1470.17 44.3968 1471.26 43.3044C1472.39 42.227 1473.63 41.3206 1474.99 40.5851C1476.34 39.8497 1478.05 39.2502 1480.12 38.7868C1482.19 38.3234 1484.45 38.1239 1486.89 38.1884C1489.39 38.2312 1492.29 38.6211 1495.6 39.358C1498.99 40.1252 1502.6 41.2343 1506.43 42.6852ZM1565.39 87.0039C1565.77 86.0313 1566.03 85.0945 1566.15 84.1936C1566.2 83.2257 1566.05 82.1563 1565.68 80.9853C1565.25 79.7472 1564.55 78.5809 1563.59 77.4863C1562.63 76.3917 1561.15 75.2079 1559.15 73.9347C1557.51 72.9231 1555.56 71.9498 1553.32 71.0146L1502.66 51.8352C1491.32 47.7573 1484.24 48.8854 1481.44 55.2196L1481.17 55.8272C1480.63 57.0425 1480.38 58.2824 1480.43 59.5468C1480.46 60.8481 1480.82 62.2334 1481.52 63.7029C1482.23 65.2611 1483.68 66.8218 1485.88 68.3849C1487.93 69.8507 1490.55 71.2066 1493.73 72.4525L1543.97 91.4732C1546.99 92.5331 1549.71 93.1949 1552.11 93.4586C1554.84 93.8065 1557.07 93.6807 1558.78 93.0812C1560.49 92.4818 1561.82 91.7387 1562.77 90.8521C1563.78 89.9438 1564.55 88.9004 1565.07 87.722L1565.39 87.0039Z" fill="#FD39C3"/>
<path d="M1490.75 61.8803L1541.28 42.3739C1545.1 40.9 1548.68 39.777 1552.02 39.0048C1555.34 38.2847 1558.22 37.8851 1560.66 37.8059C1563.11 37.7267 1565.36 37.9126 1567.44 38.3636C1569.51 38.8145 1571.23 39.4037 1572.59 40.131C1573.96 40.895 1575.21 41.794 1576.34 42.8277C1577.46 43.8615 1578.34 44.8619 1578.96 45.8289C1579.59 46.7958 1580.15 47.8118 1580.63 48.8769L1581.3 50.3644C1581.79 51.4295 1582.18 52.5069 1582.49 53.5967C1582.8 54.6865 1582.96 55.9632 1582.97 57.4269C1583.01 58.964 1582.84 60.434 1582.45 61.8369C1582.07 63.2765 1581.33 64.8359 1580.23 66.5151C1579.1 68.2464 1577.68 69.8709 1575.99 71.3884C1574.23 72.9735 1571.89 74.6111 1568.97 76.3015C1566.02 77.9551 1562.64 79.5189 1558.83 80.9928L1508.29 100.499C1504.48 101.973 1500.88 103.104 1497.49 103.891C1494.13 104.627 1491.23 105.016 1488.77 105.058C1486.31 105.101 1484.06 104.889 1482.03 104.422C1479.9 103.95 1478.15 103.35 1476.79 102.623C1475.42 101.859 1474.16 100.942 1473.02 99.8711C1471.92 98.7853 1471.06 97.7772 1470.45 96.847C1469.83 95.88 1469.27 94.864 1468.79 93.7989L1468.11 92.3114C1467.61 91.2096 1467.21 90.1322 1466.92 89.0791C1466.63 88.0261 1466.45 86.757 1466.39 85.272C1466.36 83.7716 1466.54 82.3199 1466.93 80.9171C1467.32 79.5142 1468.07 77.9731 1469.18 76.2939C1470.29 74.6147 1471.73 73.0009 1473.5 71.4527C1475.3 69.8523 1477.65 68.233 1480.55 66.5947C1483.53 64.9257 1486.93 63.3542 1490.75 61.8803ZM1566.34 54.7807C1565.87 53.8412 1565.33 53.0134 1564.72 52.2976C1564.02 51.5757 1563.09 50.9198 1561.94 50.3301C1560.68 49.7343 1559.3 49.3622 1557.78 49.2138C1556.27 49.0654 1554.31 49.1931 1551.93 49.5968C1549.99 49.9571 1547.87 50.5381 1545.57 51.3398L1495.09 70.8232C1483.96 75.3364 1479.83 80.7516 1482.7 87.0687L1482.97 87.6747C1483.52 88.8867 1484.3 89.9255 1485.3 90.791C1486.32 91.6932 1487.64 92.4359 1489.26 93.019C1490.95 93.6602 1493.17 93.8171 1495.92 93.4896C1498.5 93.1867 1501.38 92.4395 1504.58 91.248L1554.64 71.9258C1557.59 70.7009 1560.01 69.3984 1561.91 68.0184C1564.11 66.4789 1565.58 64.9386 1566.33 63.3975C1567.08 61.8565 1567.45 60.4613 1567.44 59.212C1567.46 57.9105 1567.2 56.6722 1566.67 55.4969L1566.34 54.7807Z" fill="#FD39C3"/>
<path fill-rule="evenodd" clip-rule="evenodd" d="M287.949 52.7599L251.737 52.7599C248.242 52.7599 245.056 52.9784 242.179 53.4153C239.303 53.8887 236.899 54.5077 234.97 55.2723C233.113 56.0006 231.438 56.9109 229.945 58.0032C228.488 59.0592 227.36 60.1333 226.558 61.2257C225.757 62.2816 225.102 63.465 224.592 64.7758C224.082 66.0138 223.755 67.1426 223.609 68.1621C223.463 69.1816 223.391 70.2194 223.391 71.2753L223.391 72.75C223.391 73.8059 223.463 74.8437 223.609 75.8632C223.755 76.8827 224.082 78.0115 224.592 79.2495C225.102 80.4875 225.757 81.6526 226.558 82.745C227.36 83.8009 228.488 84.8569 229.945 85.9128C231.401 86.9688 233.094 87.8609 235.024 88.5891C236.954 89.3173 239.339 89.9181 242.179 90.3915C245.056 90.8284 248.242 91.0469 251.737 91.0469L274.868 91.0469L287.949 91.0469L287.949 82.0896L251.573 82.0896C249.498 82.0168 247.641 81.8165 246.002 81.4888C244 81.0519 242.434 80.5239 241.305 79.9049C240.176 79.2859 239.23 78.5212 238.465 77.6109C237.773 76.7371 237.282 75.8814 236.99 75.0439C236.772 74.2429 236.645 73.369 236.608 72.4223L236.608 71.7122C236.608 70.5471 236.845 69.4183 237.318 68.3259C237.755 67.27 238.538 66.2141 239.667 65.1581C240.795 64.1022 242.489 63.2829 244.746 62.7003C246.712 62.1542 249.061 61.8447 251.792 61.7718L287.949 61.7718L287.949 52.7599Z" fill="#41F168"/>
<path fill-rule="evenodd" clip-rule="evenodd" d="M677.652 52.7599L641.44 52.7599C637.945 52.7599 634.759 52.9784 631.882 53.4153C629.006 53.8887 626.603 54.5077 624.673 55.2723C622.816 56.0006 621.141 56.9109 619.648 58.0032C618.191 59.0592 617.063 60.1333 616.262 61.2257C615.461 62.2816 614.805 63.465 614.295 64.7758C613.786 66.0138 613.458 67.1426 613.312 68.1621C613.167 69.1816 613.094 70.2194 613.094 71.2753L613.094 72.75C613.094 73.8059 613.167 74.8437 613.312 75.8632C613.458 76.8827 613.786 78.0115 614.295 79.2495C614.805 80.4875 615.461 81.6526 616.262 82.745C617.063 83.8009 618.191 84.8569 619.648 85.9128C621.104 86.9688 622.798 87.8609 624.727 88.5891C626.657 89.3173 629.042 89.9181 631.882 90.3915C634.759 90.8284 637.945 91.0469 641.44 91.0469L664.571 91.0469L677.652 91.0469L677.652 82.0896L641.276 82.0896C639.201 82.0168 637.344 81.8165 635.705 81.4888C633.703 81.0519 632.137 80.5239 631.008 79.9049C629.88 79.2859 628.933 78.5212 628.168 77.6109C627.476 76.7371 626.985 75.8814 626.694 75.0439C626.475 74.2429 626.348 73.369 626.311 72.4223L626.311 71.7122C626.311 70.5471 626.548 69.4183 627.021 68.3259C627.458 67.27 628.241 66.2141 629.37 65.1581C630.499 64.1022 632.192 63.2829 634.449 62.7003C636.415 62.1542 638.764 61.8447 641.495 61.7718L677.652 61.7718L677.652 52.7599Z" fill="#41F168"/>
<path fill-rule="evenodd" clip-rule="evenodd" d="M1067.24 52.7599L1031.03 52.7599C1027.53 52.7599 1024.35 52.9784 1021.47 53.4153C1018.6 53.8887 1016.19 54.5077 1014.26 55.2723C1012.41 56.0006 1010.73 56.9109 1009.24 58.0032C1007.78 59.0592 1006.65 60.1333 1005.85 61.2257C1005.05 62.2816 1004.39 63.465 1003.89 64.7758C1003.38 66.0138 1003.05 67.1426 1002.9 68.1621C1002.76 69.1816 1002.68 70.2194 1002.68 71.2753L1002.68 72.75C1002.68 73.8059 1002.76 74.8437 1002.9 75.8632C1003.05 76.8827 1003.38 78.0115 1003.89 79.2495C1004.39 80.4875 1005.05 81.6526 1005.85 82.745C1006.65 83.8009 1007.78 84.8569 1009.24 85.9128C1010.69 86.9688 1012.39 87.8609 1014.32 88.5891C1016.25 89.3173 1018.63 89.9181 1021.47 90.3915C1024.35 90.8284 1027.53 91.0469 1031.03 91.0469L1054.16 91.0469L1067.24 91.0469L1067.24 82.0896L1030.87 82.0896C1028.79 82.0168 1026.93 81.8165 1025.3 81.4888C1023.29 81.0519 1021.73 80.5239 1020.6 79.9049C1019.47 79.2859 1018.52 78.5212 1017.76 77.6109C1017.07 76.7371 1016.57 75.8814 1016.28 75.0439C1016.06 74.2429 1015.94 73.369 1015.9 72.4223L1015.9 71.7122C1015.9 70.5471 1016.14 69.4183 1016.61 68.3259C1017.05 67.27 1017.83 66.2141 1018.96 65.1581C1020.09 64.1022 1021.78 63.2829 1024.04 62.7003C1026.01 62.1542 1028.35 61.8447 1031.08 61.7718L1067.24 61.7718L1067.24 52.7599Z" fill="#41F168"/>
<path fill-rule="evenodd" clip-rule="evenodd" d="M1457.24 52.7599L1421.03 52.7599C1417.53 52.7599 1414.35 52.9784 1411.47 53.4153C1408.6 53.8887 1406.19 54.5077 1404.26 55.2723C1402.41 56.0006 1400.73 56.9109 1399.24 58.0032C1397.78 59.0592 1396.65 60.1333 1395.85 61.2257C1395.05 62.2816 1394.39 63.465 1393.89 64.7758C1393.38 66.0138 1393.05 67.1426 1392.9 68.1621C1392.76 69.1816 1392.68 70.2194 1392.68 71.2753L1392.68 72.75C1392.68 73.8059 1392.76 74.8437 1392.9 75.8632C1393.05 76.8827 1393.38 78.0115 1393.89 79.2495C1394.39 80.4875 1395.05 81.6526 1395.85 82.745C1396.65 83.8009 1397.78 84.8569 1399.24 85.9128C1400.69 86.9688 1402.39 87.8609 1404.32 88.5891C1406.25 89.3173 1408.63 89.9181 1411.47 90.3915C1414.35 90.8284 1417.53 91.0469 1421.03 91.0469L1444.16 91.0469L1457.24 91.0469L1457.24 82.0896L1420.87 82.0896C1418.79 82.0168 1416.93 81.8165 1415.3 81.4888C1413.29 81.0519 1411.73 80.5239 1410.6 79.9049C1409.47 79.2859 1408.52 78.5212 1407.76 77.6109C1407.07 76.7371 1406.57 75.8814 1406.28 75.0439C1406.06 74.2429 1405.94 73.369 1405.9 72.4223L1405.9 71.7122C1405.9 70.5471 1406.14 69.4183 1406.61 68.3259C1407.05 67.27 1407.83 66.2141 1408.96 65.1581C1410.09 64.1022 1411.78 63.2829 1414.04 62.7003C1416.01 62.1542 1418.35 61.8447 1421.08 61.7718L1457.24 61.7718L1457.24 52.7599Z" fill="#41F168"/>
<path fill-rule="evenodd" clip-rule="evenodd" d="M31.3574 91.3338L67.5694 91.3338C71.065 91.3338 74.251 91.1154 77.1275 90.6784C80.0041 90.2051 82.4072 89.5861 84.3371 88.8214C86.1941 88.0932 87.869 87.1829 89.3619 86.0905C90.8183 85.0346 91.9471 83.9605 92.7482 82.8681C93.5492 81.8122 94.2046 80.6288 94.7144 79.318C95.2242 78.08 95.5519 76.9512 95.6975 75.9317C95.8432 74.9121 95.916 73.8744 95.916 72.8185L95.916 71.3438C95.916 70.2878 95.8432 69.2501 95.6975 68.2306C95.5519 67.211 95.2242 66.0823 94.7144 64.8443C94.2046 63.6063 93.5492 62.4411 92.7482 61.3488C91.9471 60.2928 90.8183 59.2369 89.3619 58.1809C87.9054 57.125 86.2123 56.2329 84.2824 55.5047C82.3526 54.7764 79.9676 54.1756 77.1275 53.7023C74.251 53.2653 71.065 53.0469 67.5694 53.0469L44.4389 53.0469L31.3574 53.0469L31.3574 62.0042L67.7333 62.0042C69.8088 62.077 71.6658 62.2773 73.3043 62.605C75.3069 63.0419 76.8726 63.5699 78.0014 64.1889C79.1302 64.8079 80.0769 65.5725 80.8415 66.4828C81.5334 67.3567 82.0249 68.2124 82.3162 69.0498C82.5347 69.8509 82.6621 70.7248 82.6985 71.6715V72.3815C82.6985 73.5467 82.4618 74.6755 81.9885 75.7678C81.5516 76.8237 80.7687 77.8797 79.6399 78.9356C78.5112 79.9916 76.818 80.8108 74.5605 81.3934C72.5943 81.9396 70.2457 82.2491 67.5148 82.3219L31.3574 82.3219L31.3574 91.3338Z" fill="#41F168"/>
<path fill-rule="evenodd" clip-rule="evenodd" d="M421.059 91.3338L457.271 91.3338C460.766 91.3338 463.952 91.1154 466.829 90.6784C469.705 90.2051 472.108 89.5861 474.038 88.8214C475.895 88.0932 477.57 87.1829 479.063 86.0905C480.52 85.0346 481.648 83.9605 482.449 82.8681C483.25 81.8122 483.906 80.6288 484.416 79.318C484.925 78.08 485.253 76.9512 485.399 75.9317C485.544 74.9121 485.617 73.8744 485.617 72.8185V71.3438C485.617 70.2878 485.544 69.2501 485.399 68.2306C485.253 67.211 484.925 66.0823 484.416 64.8443C483.906 63.6063 483.25 62.4411 482.449 61.3488C481.648 60.2928 480.52 59.2369 479.063 58.1809C477.607 57.125 475.913 56.2329 473.984 55.5047C472.054 54.7764 469.669 54.1756 466.829 53.7023C463.952 53.2653 460.766 53.0469 457.271 53.0469L434.14 53.0469L421.059 53.0469L421.059 62.0042L457.434 62.0042C459.51 62.077 461.367 62.2773 463.005 62.605C465.008 63.0419 466.574 63.5699 467.703 64.1889C468.831 64.8079 469.778 65.5725 470.543 66.4828C471.235 67.3567 471.726 68.2124 472.017 69.0498C472.236 69.8509 472.363 70.7248 472.4 71.6715V72.3815C472.4 73.5467 472.163 74.6755 471.69 75.7678C471.253 76.8237 470.47 77.8797 469.341 78.9356C468.212 79.9916 466.519 80.8108 464.262 81.3934C462.295 81.9396 459.947 82.2491 457.216 82.3219L421.059 82.3219L421.059 91.3338Z" fill="#41F168"/>
<path fill-rule="evenodd" clip-rule="evenodd" d="M810.762 91.3338L846.974 91.3338C850.469 91.3338 853.655 91.1154 856.532 90.6784C859.408 90.2051 861.812 89.5861 863.741 88.8214C865.598 88.0932 867.273 87.1829 868.766 86.0905C870.223 85.0346 871.351 83.9605 872.152 82.8681C872.954 81.8122 873.609 80.6288 874.119 79.318C874.628 78.08 874.956 76.9512 875.102 75.9317C875.247 74.9121 875.32 73.8744 875.32 72.8185L875.32 71.3438C875.32 70.2878 875.247 69.2501 875.102 68.2306C874.956 67.211 874.628 66.0823 874.119 64.8443C873.609 63.6063 872.954 62.4411 872.152 61.3488C871.351 60.2928 870.223 59.2369 868.766 58.1809C867.31 57.125 865.617 56.2329 863.687 55.5047C861.757 54.7764 859.372 54.1756 856.532 53.7023C853.655 53.2653 850.469 53.0469 846.974 53.0469L823.843 53.0469L810.762 53.0469V62.0042L847.138 62.0042C849.213 62.077 851.07 62.2773 852.709 62.605C854.711 63.0419 856.277 63.5699 857.406 64.1889C858.534 64.8079 859.481 65.5725 860.246 66.4828C860.938 67.3567 861.429 68.2124 861.721 69.0498C861.939 69.8509 862.066 70.7248 862.103 71.6715V72.3815C862.103 73.5467 861.866 74.6755 861.393 75.7678C860.956 76.8237 860.173 77.8797 859.044 78.9356C857.915 79.9916 856.222 80.8108 853.965 81.3934C851.999 81.9396 849.65 82.2491 846.919 82.3219L810.762 82.3219V91.3338Z" fill="#41F168"/>
<path fill-rule="evenodd" clip-rule="evenodd" d="M1200.35 91.3338L1236.56 91.3338C1240.06 91.3338 1243.25 91.1154 1246.12 90.6784C1249 90.2051 1251.4 89.5861 1253.33 88.8214C1255.19 88.0932 1256.86 87.1829 1258.36 86.0905C1259.81 85.0346 1260.94 83.9605 1261.74 82.8681C1262.54 81.8122 1263.2 80.6288 1263.71 79.318C1264.22 78.08 1264.55 76.9512 1264.69 75.9317C1264.84 74.9121 1264.91 73.8744 1264.91 72.8185V71.3438C1264.91 70.2878 1264.84 69.2501 1264.69 68.2306C1264.55 67.211 1264.22 66.0823 1263.71 64.8443C1263.2 63.6063 1262.54 62.4411 1261.74 61.3488C1260.94 60.2928 1259.81 59.2369 1258.36 58.1809C1256.9 57.125 1255.21 56.2329 1253.28 55.5047C1251.35 54.7764 1248.96 54.1756 1246.12 53.7023C1243.25 53.2653 1240.06 53.0469 1236.56 53.0469L1213.43 53.0469L1200.35 53.0469V62.0042L1236.73 62.0042C1238.8 62.077 1240.66 62.2773 1242.3 62.605C1244.3 63.0419 1245.87 63.5699 1247 64.1889C1248.12 64.8079 1249.07 65.5725 1249.84 66.4828C1250.53 67.3567 1251.02 68.2124 1251.31 69.0498C1251.53 69.8509 1251.66 70.7248 1251.69 71.6715V72.3815C1251.69 73.5467 1251.46 74.6755 1250.98 75.7678C1250.55 76.8237 1249.76 77.8797 1248.63 78.9356C1247.51 79.9916 1245.81 80.8108 1243.55 81.3934C1241.59 81.9396 1239.24 82.2491 1236.51 82.3219L1200.35 82.3219V91.3338Z" fill="#41F168"/>
<path fill-rule="evenodd" clip-rule="evenodd" d="M220.203 52.7599L216.225 52.7599C212.729 52.7599 209.543 52.9784 206.666 53.4153C203.79 53.8887 201.387 54.5077 199.457 55.2723C197.6 56.0006 195.925 56.9109 194.432 58.0032C192.976 59.0592 191.847 60.1333 191.046 61.2257C190.245 62.2816 189.589 63.465 189.08 64.7758C188.57 66.0138 188.242 67.1426 188.096 68.1621C187.951 69.1816 187.878 70.2194 187.878 71.2753L187.878 72.75C187.878 73.8059 187.951 74.8436 188.096 75.8632C188.242 76.8827 188.57 78.0115 189.08 79.2495C189.589 80.4875 190.245 81.6526 191.046 82.745C191.847 83.8009 192.976 84.8569 194.432 85.9128C195.889 86.9688 197.582 87.8608 199.512 88.5891C201.441 89.3173 203.826 89.9181 206.666 90.3915C209.543 90.8284 212.729 91.0469 216.225 91.0469L220.203 91.0469L220.203 82.0896L216.061 82.0896C213.985 82.0168 212.128 81.8165 210.49 81.4888C208.487 81.0518 206.921 80.5239 205.793 79.9049C204.664 79.2859 203.717 78.5212 202.952 77.6109C202.261 76.7371 201.769 75.8814 201.478 75.0439C201.259 74.2429 201.132 73.369 201.095 72.4223L201.095 71.7122C201.095 70.5471 201.332 69.4183 201.806 68.3259C202.242 67.27 203.025 66.2141 204.154 65.1581C205.283 64.1022 206.976 63.2829 209.233 62.7003C211.2 62.1541 213.548 61.8447 216.279 61.7718L220.203 61.7718L220.203 52.7599Z" fill="#41F168"/>
<path fill-rule="evenodd" clip-rule="evenodd" d="M609.906 52.7599L605.926 52.7599C602.431 52.7599 599.244 52.9784 596.368 53.4153C593.491 53.8887 591.088 54.5077 589.158 55.2723C587.301 56.0006 585.626 56.9109 584.134 58.0032C582.677 59.0592 581.548 60.1333 580.747 61.2257C579.946 62.2816 579.291 63.465 578.781 64.7758C578.271 66.0138 577.944 67.1426 577.798 68.1621C577.652 69.1816 577.58 70.2194 577.58 71.2753L577.58 72.75C577.58 73.8059 577.652 74.8436 577.798 75.8632C577.944 76.8827 578.271 78.0115 578.781 79.2495C579.291 80.4875 579.946 81.6526 580.747 82.745C581.548 83.8009 582.677 84.8569 584.134 85.9128C585.59 86.9688 587.283 87.8608 589.213 88.5891C591.143 89.3173 593.528 89.9181 596.368 90.3915C599.244 90.8284 602.431 91.0469 605.926 91.0469L609.906 91.0469L609.906 82.0896L605.762 82.0896C603.687 82.0168 601.83 81.8165 600.191 81.4888C598.189 81.0518 596.623 80.5239 595.494 79.9049C594.365 79.2859 593.419 78.5212 592.654 77.6109C591.962 76.7371 591.471 75.8814 591.179 75.0439C590.961 74.2429 590.833 73.369 590.797 72.4223L590.797 71.7122C590.797 70.5471 591.034 69.4183 591.507 68.3259C591.944 67.27 592.727 66.2141 593.856 65.1581C594.984 64.1022 596.677 63.2829 598.935 62.7003C600.901 62.1541 603.25 61.8447 605.981 61.7718L609.906 61.7718L609.906 52.7599Z" fill="#41F168"/>
<path fill-rule="evenodd" clip-rule="evenodd" d="M999.496 52.7599L995.516 52.7599C992.02 52.7599 988.834 52.9784 985.958 53.4153C983.081 53.8887 980.678 54.5077 978.748 55.2723C976.891 56.0006 975.216 56.9109 973.723 58.0032C972.267 59.0592 971.138 60.1333 970.337 61.2257C969.536 62.2816 968.881 63.465 968.371 64.7758C967.861 66.0138 967.533 67.1426 967.388 68.1621C967.242 69.1816 967.169 70.2194 967.169 71.2753L967.169 72.75C967.169 73.8059 967.242 74.8436 967.388 75.8632C967.533 76.8827 967.861 78.0115 968.371 79.2495C968.881 80.4875 969.536 81.6526 970.337 82.745C971.138 83.8009 972.267 84.8569 973.723 85.9128C975.18 86.9688 976.873 87.8608 978.803 88.5891C980.733 89.3173 983.118 89.9181 985.958 90.3915C988.834 90.8284 992.02 91.0469 995.516 91.0469L999.496 91.0469L999.496 82.0896L995.352 82.0896C993.277 82.0168 991.42 81.8165 989.781 81.4888C987.778 81.0518 986.213 80.5239 985.084 79.9049C983.955 79.2859 983.008 78.5212 982.244 77.6109C981.552 76.7371 981.06 75.8814 980.769 75.0439C980.551 74.2429 980.423 73.369 980.387 72.4223L980.387 71.7122C980.387 70.5471 980.623 69.4183 981.097 68.3259C981.534 67.27 982.317 66.2141 983.445 65.1581C984.574 64.1022 986.267 63.2829 988.525 62.7003C990.491 62.1541 992.84 61.8447 995.571 61.7718L999.496 61.7718L999.496 52.7599Z" fill="#41F168"/>
<path fill-rule="evenodd" clip-rule="evenodd" d="M1389.5 52.7599L1385.52 52.7599C1382.02 52.7599 1378.83 52.9784 1375.96 53.4153C1373.08 53.8887 1370.68 54.5077 1368.75 55.2723C1366.89 56.0006 1365.22 56.9109 1363.72 58.0032C1362.27 59.0592 1361.14 60.1333 1360.34 61.2257C1359.54 62.2816 1358.88 63.465 1358.37 64.7758C1357.86 66.0138 1357.53 67.1426 1357.39 68.1621C1357.24 69.1816 1357.17 70.2194 1357.17 71.2753L1357.17 72.75C1357.17 73.8059 1357.24 74.8436 1357.39 75.8632C1357.53 76.8827 1357.86 78.0115 1358.37 79.2495C1358.88 80.4875 1359.54 81.6526 1360.34 82.745C1361.14 83.8009 1362.27 84.8569 1363.72 85.9128C1365.18 86.9688 1366.87 87.8608 1368.8 88.5891C1370.73 89.3173 1373.12 89.9181 1375.96 90.3915C1378.83 90.8284 1382.02 91.0469 1385.52 91.0469L1389.5 91.0469L1389.5 82.0896L1385.35 82.0896C1383.28 82.0168 1381.42 81.8165 1379.78 81.4888C1377.78 81.0518 1376.21 80.5239 1375.08 79.9049C1373.96 79.2859 1373.01 78.5212 1372.24 77.6109C1371.55 76.7371 1371.06 75.8814 1370.77 75.0439C1370.55 74.2429 1370.42 73.369 1370.39 72.4223L1370.39 71.7122C1370.39 70.5471 1370.62 69.4183 1371.1 68.3259C1371.53 67.27 1372.32 66.2141 1373.45 65.1581C1374.57 64.1022 1376.27 63.2829 1378.52 62.7003C1380.49 62.1541 1382.84 61.8447 1385.57 61.7718L1389.5 61.7718L1389.5 52.7599Z" fill="#41F168"/>
<path fill-rule="evenodd" clip-rule="evenodd" d="M99.1016 91.3338L103.081 91.3338C106.576 91.3338 109.762 91.1154 112.639 90.6784C115.515 90.2051 117.918 89.5861 119.848 88.8214C121.705 88.0932 123.38 87.1829 124.873 86.0905C126.33 85.0346 127.458 83.9605 128.259 82.8681C129.06 81.8122 129.716 80.6288 130.226 79.318C130.735 78.08 131.063 76.9512 131.209 75.9317C131.354 74.9121 131.427 73.8744 131.427 72.8185V71.3438C131.427 70.2878 131.354 69.2501 131.209 68.2306C131.063 67.211 130.735 66.0823 130.226 64.8443C129.716 63.6063 129.06 62.4411 128.259 61.3488C127.458 60.2928 126.33 59.2369 124.873 58.1809C123.417 57.125 121.723 56.2329 119.794 55.5047C117.864 54.7764 115.479 54.1756 112.639 53.7023C109.762 53.2653 106.576 53.0469 103.081 53.0469L99.1016 53.0469L99.1016 62.0042L103.245 62.0042C105.32 62.077 107.177 62.2773 108.815 62.605C110.818 63.0419 112.384 63.5699 113.513 64.1889C114.641 64.8079 115.588 65.5725 116.353 66.4828C117.045 67.3567 117.536 68.2124 117.827 69.0498C118.046 69.8509 118.173 70.7248 118.21 71.6715L118.21 72.3815C118.21 73.5467 117.973 74.6755 117.5 75.7678C117.063 76.8237 116.28 77.8797 115.151 78.9356C114.022 79.9916 112.329 80.8108 110.072 81.3934C108.105 81.9396 105.757 82.2491 103.026 82.3219L99.1016 82.3219L99.1016 91.3338Z" fill="#41F168"/>
<path fill-rule="evenodd" clip-rule="evenodd" d="M488.801 91.3338L492.778 91.3338C496.274 91.3338 499.46 91.1154 502.336 90.6784C505.213 90.2051 507.616 89.5861 509.546 88.8214C511.403 88.0932 513.078 87.1829 514.571 86.0905C516.027 85.0346 517.156 83.9605 517.957 82.8681C518.758 81.8122 519.413 80.6288 519.923 79.318C520.433 78.08 520.761 76.9512 520.906 75.9317C521.052 74.9121 521.125 73.8744 521.125 72.8185V71.3438C521.125 70.2878 521.052 69.2501 520.906 68.2306C520.761 67.211 520.433 66.0823 519.923 64.8443C519.413 63.6063 518.758 62.4411 517.957 61.3488C517.156 60.2928 516.027 59.2369 514.571 58.1809C513.114 57.125 511.421 56.2329 509.491 55.5047C507.561 54.7764 505.176 54.1756 502.336 53.7023C499.46 53.2653 496.274 53.0469 492.778 53.0469L488.801 53.0469L488.801 62.0042L492.942 62.0042C495.018 62.077 496.875 62.2773 498.513 62.605C500.516 63.0419 502.081 63.5699 503.21 64.1889C504.339 64.8079 505.286 65.5725 506.05 66.4828C506.742 67.3567 507.234 68.2124 507.525 69.0498C507.743 69.8509 507.871 70.7248 507.907 71.6715V72.3815C507.907 73.5467 507.671 74.6755 507.197 75.7678C506.76 76.8237 505.978 77.8797 504.849 78.9356C503.72 79.9916 502.027 80.8108 499.769 81.3934C497.803 81.9396 495.455 82.2491 492.724 82.3219L488.801 82.3219L488.801 91.3338Z" fill="#41F168"/>
<path fill-rule="evenodd" clip-rule="evenodd" d="M878.508 91.3338L882.486 91.3338C885.981 91.3338 889.167 91.1154 892.044 90.6784C894.92 90.2051 897.323 89.5861 899.253 88.8214C901.11 88.0932 902.785 87.1829 904.278 86.0905C905.734 85.0346 906.863 83.9605 907.664 82.8681C908.465 81.8122 909.121 80.6288 909.631 79.318C910.14 78.08 910.468 76.9512 910.614 75.9317C910.759 74.9121 910.832 73.8744 910.832 72.8185V71.3438C910.832 70.2878 910.759 69.2501 910.614 68.2306C910.468 67.211 910.14 66.0823 909.631 64.8443C909.121 63.6063 908.465 62.4411 907.664 61.3488C906.863 60.2928 905.734 59.2369 904.278 58.1809C902.822 57.125 901.128 56.2329 899.199 55.5047C897.269 54.7764 894.884 54.1756 892.044 53.7023C889.167 53.2653 885.981 53.0469 882.486 53.0469L878.508 53.0469V62.0042L882.649 62.0042C884.725 62.077 886.582 62.2773 888.22 62.605C890.223 63.0419 891.789 63.5699 892.918 64.1889C894.046 64.8079 894.993 65.5725 895.758 66.4828C896.45 67.3567 896.941 68.2124 897.232 69.0498C897.451 69.8509 897.578 70.7248 897.615 71.6715V72.3815C897.615 73.5467 897.378 74.6755 896.905 75.7678C896.468 76.8237 895.685 77.8797 894.556 78.9356C893.427 79.9916 891.734 80.8108 889.477 81.3934C887.51 81.9396 885.162 82.2491 882.431 82.3219L878.508 82.3219V91.3338Z" fill="#41F168"/>
<path fill-rule="evenodd" clip-rule="evenodd" d="M1268.1 91.3338L1272.08 91.3338C1275.57 91.3338 1278.76 91.1154 1281.63 90.6784C1284.51 90.2051 1286.91 89.5861 1288.84 88.8214C1290.7 88.0932 1292.37 87.1829 1293.87 86.0905C1295.32 85.0346 1296.45 83.9605 1297.25 82.8681C1298.06 81.8122 1298.71 80.6288 1299.22 79.318C1299.73 78.08 1300.06 76.9512 1300.2 75.9317C1300.35 74.9121 1300.42 73.8744 1300.42 72.8185V71.3438C1300.42 70.2878 1300.35 69.2501 1300.2 68.2306C1300.06 67.211 1299.73 66.0823 1299.22 64.8443C1298.71 63.6063 1298.06 62.4411 1297.25 61.3488C1296.45 60.2928 1295.32 59.2369 1293.87 58.1809C1292.41 57.125 1290.72 56.2329 1288.79 55.5047C1286.86 54.7764 1284.47 54.1756 1281.63 53.7023C1278.76 53.2653 1275.57 53.0469 1272.08 53.0469L1268.1 53.0469V62.0042L1272.24 62.0042C1274.31 62.077 1276.17 62.2773 1277.81 62.605C1279.81 63.0419 1281.38 63.5699 1282.51 64.1889C1283.64 64.8079 1284.58 65.5725 1285.35 66.4828C1286.04 67.3567 1286.53 68.2124 1286.82 69.0498C1287.04 69.8509 1287.17 70.7248 1287.2 71.6715V72.3815C1287.2 73.5467 1286.97 74.6755 1286.49 75.7678C1286.06 76.8237 1285.27 77.8797 1284.15 78.9356C1283.02 79.9916 1281.32 80.8108 1279.07 81.3934C1277.1 81.9396 1274.75 82.2491 1272.02 82.3219L1268.1 82.3219V91.3338Z" fill="#41F168"/>
<path fill-rule="evenodd" clip-rule="evenodd" d="M184.906 52.9496C184.769 52.9693 184.632 52.9895 184.496 53.0102C181.619 53.4835 179.216 54.1025 177.286 54.8672C175.429 55.5954 173.754 56.5057 172.262 57.5981C170.805 58.654 169.676 59.7282 168.875 60.8205C168.074 61.8765 167.419 63.0598 166.909 64.3707C166.399 65.6087 166.072 66.7374 165.926 67.757C165.78 68.7765 165.707 69.8142 165.707 70.8702L165.707 72.3448C165.707 73.4008 165.78 74.4385 165.926 75.458C166.072 76.4776 166.399 77.6063 166.909 78.8443C167.419 80.0823 168.074 81.2475 168.875 82.3399C169.676 83.3958 170.805 84.4517 172.262 85.5077C173.718 86.5636 175.411 87.4557 177.341 88.1839C179.271 88.9122 181.656 89.513 184.496 89.9863C184.632 90.007 184.769 90.0272 184.906 90.0469L184.906 80.0923C184.429 79.905 184.001 79.7075 183.622 79.4997C182.493 78.8807 181.547 78.1161 180.782 77.2058C180.09 76.3319 179.599 75.4762 179.307 74.6388C179.089 73.8377 178.961 72.9638 178.925 72.0171L178.925 71.3071C178.925 70.1419 179.162 69.0132 179.635 67.9208C180.072 66.8649 180.855 65.8089 181.983 64.753C182.718 64.0654 183.693 63.4782 184.906 62.9914L184.906 52.9496Z" fill="#41F168"/>
<path fill-rule="evenodd" clip-rule="evenodd" d="M574.611 52.9487C574.473 52.9686 574.335 52.9889 574.198 53.0097C571.321 53.4831 568.918 54.1021 566.988 54.8667C565.131 55.595 563.456 56.5053 561.963 57.5976C560.507 58.6536 559.378 59.7277 558.577 60.8201C557.776 61.876 557.121 63.0594 556.611 64.3702C556.101 65.6082 555.773 66.737 555.628 67.7565C555.482 68.776 555.409 69.8138 555.409 70.8697L555.409 72.3444C555.409 73.4003 555.482 74.4381 555.628 75.4576C555.773 76.4771 556.101 77.6059 556.611 78.8439C557.121 80.0819 557.776 81.2471 558.577 82.3394C559.378 83.3953 560.507 84.4513 561.963 85.5072C563.42 86.5632 565.113 87.4553 567.043 88.1835C568.973 88.9117 571.358 89.5125 574.198 89.9859C574.335 90.0067 574.473 90.027 574.611 90.0469L574.611 80.093C574.133 79.9054 573.704 79.7075 573.324 79.4993C572.195 78.8803 571.248 78.1156 570.484 77.2054C569.792 76.3315 569.3 75.4758 569.009 74.6383C568.791 73.8373 568.663 72.9634 568.627 72.0167L568.627 71.3066C568.627 70.1415 568.864 69.0127 569.337 67.9204C569.774 66.8644 570.557 65.8085 571.685 64.7525C572.421 64.0644 573.396 63.4768 574.611 62.9896L574.611 52.9487Z" fill="#41F168"/>
<path fill-rule="evenodd" clip-rule="evenodd" d="M964.201 52.9487C964.063 52.9686 963.925 52.9889 963.788 53.0097C960.911 53.4831 958.508 54.1021 956.578 54.8667C954.721 55.595 953.046 56.5053 951.553 57.5976C950.097 58.6536 948.968 59.7277 948.167 60.8201C947.366 61.876 946.711 63.0594 946.201 64.3702C945.691 65.6082 945.363 66.737 945.218 67.7565C945.072 68.776 944.999 69.8138 944.999 70.8697L944.999 72.3444C944.999 73.4003 945.072 74.4381 945.218 75.4576C945.363 76.4771 945.691 77.6059 946.201 78.8439C946.711 80.0819 947.366 81.2471 948.167 82.3394C948.968 83.3953 950.097 84.4513 951.553 85.5072C953.01 86.5632 954.703 87.4553 956.633 88.1835C958.563 88.9117 960.948 89.5125 963.788 89.9859C963.925 90.0067 964.063 90.027 964.201 90.0469L964.201 80.093C963.723 79.9054 963.293 79.7075 962.914 79.4993C961.785 78.8803 960.838 78.1156 960.074 77.2054C959.382 76.3315 958.89 75.4758 958.599 74.6383C958.381 73.8373 958.253 72.9634 958.217 72.0167L958.217 71.3066C958.217 70.1415 958.453 69.0127 958.927 67.9204C959.364 66.8644 960.146 65.8085 961.275 64.7525C962.011 64.0644 962.986 63.4768 964.201 62.9896L964.201 52.9487Z" fill="#41F168"/>
<path fill-rule="evenodd" clip-rule="evenodd" d="M1354.2 52.9487C1354.06 52.9686 1353.92 52.9889 1353.79 53.0097C1350.91 53.4831 1348.51 54.1021 1346.58 54.8667C1344.72 55.595 1343.05 56.5053 1341.55 57.5976C1340.1 58.6536 1338.97 59.7277 1338.17 60.8201C1337.37 61.876 1336.71 63.0594 1336.2 64.3702C1335.69 65.6082 1335.36 66.737 1335.22 67.7565C1335.07 68.776 1335 69.8138 1335 70.8697L1335 72.3444C1335 73.4003 1335.07 74.4381 1335.22 75.4576C1335.36 76.4771 1335.69 77.6059 1336.2 78.8439C1336.71 80.0819 1337.37 81.2471 1338.17 82.3394C1338.97 83.3953 1340.1 84.4513 1341.55 85.5072C1343.01 86.5632 1344.7 87.4553 1346.63 88.1835C1348.56 88.9117 1350.95 89.5125 1353.79 89.9859C1353.92 90.0067 1354.06 90.027 1354.2 90.0469L1354.2 80.093C1353.72 79.9054 1353.29 79.7075 1352.91 79.4993C1351.79 78.8803 1350.84 78.1156 1350.07 77.2054C1349.38 76.3315 1348.89 75.4758 1348.6 74.6383C1348.38 73.8373 1348.25 72.9634 1348.22 72.0167L1348.22 71.3066C1348.22 70.1415 1348.45 69.0127 1348.93 67.9204C1349.36 66.8644 1350.15 65.8085 1351.28 64.7525C1352.01 64.0644 1352.99 63.4768 1354.2 62.9896L1354.2 52.9487Z" fill="#41F168"/>
<path fill-rule="evenodd" clip-rule="evenodd" d="M134.398 90.1438C134.536 90.1242 134.672 90.104 134.808 90.0834C137.684 89.6101 140.087 88.9911 142.017 88.2264C143.874 87.4982 145.549 86.5879 147.042 85.4955C148.499 84.4396 149.627 83.3654 150.428 82.2731C151.229 81.2171 151.885 80.0338 152.395 78.7229C152.904 77.4849 153.232 76.3562 153.378 75.3367C153.523 74.3171 153.596 73.2794 153.596 72.2234V70.7488C153.596 69.6928 153.523 68.6551 153.378 67.6356C153.232 66.616 152.904 65.4873 152.395 64.2493C151.885 63.0113 151.229 61.8461 150.428 60.7537C149.627 59.6978 148.499 58.6419 147.042 57.5859C145.586 56.53 143.893 55.6379 141.963 54.9097C140.033 54.1814 137.648 53.5806 134.808 53.1073C134.672 53.0867 134.536 53.0665 134.398 53.0469L134.398 63.0017C134.875 63.1889 135.303 63.3863 135.682 63.5939C136.81 64.2129 137.757 64.9775 138.522 65.8878C139.214 66.7617 139.705 67.6174 139.996 68.4548C140.215 69.2559 140.342 70.1298 140.379 71.0765V71.7865C140.379 72.9517 140.142 74.0804 139.669 75.1728C139.232 76.2287 138.449 77.2847 137.32 78.3406C136.585 79.028 135.612 79.6151 134.398 80.1019L134.398 90.1438Z" fill="#41F168"/>
<path fill-rule="evenodd" clip-rule="evenodd" d="M524.1 90.144C524.237 90.1243 524.374 90.1042 524.51 90.0835C527.386 89.6101 529.789 88.9911 531.719 88.2265C533.576 87.4983 535.251 86.588 536.744 85.4956C538.2 84.4397 539.329 83.3655 540.13 82.2732C540.931 81.2172 541.587 80.0339 542.096 78.723C542.606 77.485 542.934 76.3563 543.08 75.3367C543.225 74.3172 543.298 73.2795 543.298 72.2235V70.7489C543.298 69.6929 543.225 68.6552 543.08 67.6357C542.934 66.6161 542.606 65.4874 542.096 64.2494C541.587 63.0114 540.931 61.8462 540.13 60.7538C539.329 59.6979 538.2 58.642 536.744 57.586C535.287 56.5301 533.594 55.638 531.664 54.9097C529.735 54.1815 527.35 53.5807 524.51 53.1074C524.374 53.0867 524.237 53.0666 524.1 53.0469V63.0016C524.577 63.1888 525.005 63.3863 525.383 63.594C526.512 64.213 527.459 64.9776 528.224 65.8879C528.915 66.7618 529.407 67.6174 529.698 68.4549C529.917 69.256 530.044 70.1299 530.081 71.0766V71.7866C530.081 72.9518 529.844 74.0805 529.371 75.1729C528.934 76.2288 528.151 77.2848 527.022 78.3407C526.287 79.0282 525.313 79.6154 524.1 80.1022V90.144Z" fill="#41F168"/>
<path fill-rule="evenodd" clip-rule="evenodd" d="M913.805 90.1447C913.943 90.1249 914.08 90.1046 914.217 90.0839C917.094 89.6105 919.497 88.9915 921.427 88.2269C923.284 87.4986 924.959 86.5883 926.452 85.496C927.908 84.44 929.037 83.3659 929.838 82.2735C930.639 81.2176 931.294 80.0342 931.804 78.7234C932.314 77.4854 932.642 76.3566 932.787 75.3371C932.933 74.3176 933.006 73.2798 933.006 72.2239V70.7492C933.006 69.6933 932.933 68.6556 932.787 67.636C932.642 66.6165 932.314 65.4877 931.804 64.2497C931.294 63.0117 930.639 61.8466 929.838 60.7542C929.037 59.6983 927.908 58.6423 926.452 57.5864C924.995 56.5304 923.302 55.6383 921.372 54.9101C919.442 54.1819 917.057 53.5811 914.217 53.1077C914.08 53.087 913.943 53.0667 913.805 53.0469V63.001C914.283 63.1885 914.712 63.3862 915.091 63.5943C916.22 64.2133 917.167 64.978 917.931 65.8883C918.623 66.7621 919.115 67.6178 919.406 68.4553C919.624 69.2563 919.752 70.1302 919.788 71.0769V71.787C919.788 72.9521 919.552 74.0809 919.078 75.1733C918.641 76.2292 917.858 77.2851 916.73 78.3411C915.994 79.029 915.019 79.6165 913.805 80.1036V90.1447Z" fill="#41F168"/>
<path fill-rule="evenodd" clip-rule="evenodd" d="M1303.39 90.1447C1303.53 90.1249 1303.67 90.1046 1303.81 90.0839C1306.68 89.6105 1309.09 88.9915 1311.02 88.2269C1312.87 87.4986 1314.55 86.5883 1316.04 85.496C1317.5 84.44 1318.63 83.3659 1319.43 82.2735C1320.23 81.2176 1320.88 80.0342 1321.39 78.7234C1321.9 77.4854 1322.23 76.3566 1322.38 75.3371C1322.52 74.3176 1322.6 73.2798 1322.6 72.2239V70.7492C1322.6 69.6933 1322.52 68.6556 1322.38 67.636C1322.23 66.6165 1321.9 65.4877 1321.39 64.2497C1320.88 63.0117 1320.23 61.8466 1319.43 60.7542C1318.63 59.6983 1317.5 58.6423 1316.04 57.5864C1314.58 56.5304 1312.89 55.6383 1310.96 54.9101C1309.03 54.1819 1306.65 53.5811 1303.81 53.1077C1303.67 53.087 1303.53 53.0667 1303.39 53.0469V63.001C1303.87 63.1885 1304.3 63.3862 1304.68 63.5943C1305.81 64.2133 1306.76 64.978 1307.52 65.8883C1308.21 66.7621 1308.7 67.6178 1309 68.4553C1309.21 69.2563 1309.34 70.1302 1309.38 71.0769V71.787C1309.38 72.9521 1309.14 74.0809 1308.67 75.1733C1308.23 76.2292 1307.45 77.2851 1306.32 78.3411C1305.58 79.029 1304.61 79.6165 1303.39 80.1036V90.1447Z" fill="#41F168"/>
</svg>
