<svg width="320" height="181" viewBox="0 0 320 181" fill="none" xmlns="http://www.w3.org/2000/svg">
<mask id="path-1-outside-1_215_2458" maskUnits="userSpaceOnUse" x="25.8839" y="-9.86834" width="269.158" height="200.702" fill="black">
<rect fill="white" x="25.8839" y="-9.86834" width="269.158" height="200.702"/>
<path d="M139.33 39.583L216.388 83.3966C222.21 86.7072 227.303 90.0568 231.667 93.4453C235.934 96.8547 239.318 100.027 241.819 102.961C244.321 105.896 246.267 108.856 247.659 111.84C249.051 114.825 249.897 117.499 250.197 119.863C250.461 122.282 250.412 124.674 250.049 127.038C249.685 129.403 249.125 131.429 248.369 133.117C247.614 134.804 246.718 136.451 245.684 138.056L244.24 140.297C243.206 141.903 242.068 143.411 240.827 144.823C239.586 146.235 237.934 147.64 235.873 149.039C233.74 150.549 231.489 151.727 229.12 152.573C226.716 153.475 223.784 154.039 220.324 154.264C216.767 154.511 213.086 154.308 209.279 153.657C205.316 152.991 200.707 151.656 195.451 149.651C190.232 147.591 184.711 144.906 178.889 141.595L101.831 97.7815C96.0088 94.471 90.8855 91.1041 86.4613 87.6811C82.1335 84.2373 78.7368 81.0203 76.2712 78.0303C73.8056 75.0403 71.9072 72.0702 70.576 69.1202C69.1592 66.0459 68.3007 63.3268 68.0006 60.9631C67.7361 58.5439 67.8035 56.1244 68.2025 53.7044C68.6622 51.3189 69.2522 49.31 69.9725 47.6777C70.7285 45.99 71.6235 44.3436 72.6578 42.7385L74.1021 40.4969C75.172 38.8365 76.3096 37.328 77.5151 35.9715C78.7206 34.6151 80.3417 33.1924 82.3783 31.7036C84.4756 30.2492 86.7086 29.0988 89.0771 28.2523C91.4456 27.4059 94.36 26.8699 97.8203 26.6442C101.281 26.4185 104.975 26.6661 108.902 27.3868C112.926 28.0867 117.518 29.4495 122.677 31.4752C127.957 33.5698 133.508 36.2724 139.33 39.583ZM223.347 126.036C224.213 124.562 224.857 123.113 225.278 121.689C225.613 120.14 225.632 118.374 225.336 116.39C224.953 114.282 224.125 112.223 222.852 110.213C221.578 108.203 219.487 105.918 216.579 103.357C214.171 101.307 211.273 99.2438 207.888 97.1674L130.921 53.4056C113.639 43.9575 101.931 43.9933 95.7975 53.5132L95.2091 54.4264C94.0322 56.2529 93.3209 58.1929 93.0752 60.2463C92.7938 62.355 93.0332 64.6843 93.7936 67.2341C94.5432 69.9291 96.4951 72.8161 99.6492 75.8951C102.596 78.7809 106.478 81.6308 111.295 84.445L187.624 127.845C192.244 130.32 196.459 132.074 200.27 133.106C204.6 134.359 208.223 134.717 211.138 134.181C214.052 133.645 216.39 132.781 218.152 131.59C220.011 130.378 221.51 128.886 222.651 127.115L223.347 126.036Z"/>
<path d="M109.159 66.6212L195.685 47.8785C202.223 46.4623 208.288 45.5526 213.88 45.1494C219.422 44.8245 224.174 44.9064 228.137 45.3949C232.1 45.8835 235.7 46.7538 238.936 48.0059C242.173 49.2579 244.797 50.6427 246.807 52.1603C248.836 53.7414 250.627 55.5086 252.181 57.4618C253.735 59.415 254.896 61.2514 255.663 62.971C256.431 64.6906 257.07 66.4715 257.583 68.3136L258.298 70.8862C258.811 72.7284 259.178 74.5682 259.401 76.4059C259.623 78.2435 259.558 80.3454 259.205 82.7117C258.888 85.205 258.236 87.535 257.25 89.7017C256.282 91.9319 254.692 94.2631 252.48 96.6953C250.218 99.2058 247.527 101.472 244.407 103.495C241.169 105.611 236.974 107.665 231.824 109.656C226.656 111.583 220.802 113.255 214.264 114.672L127.738 133.414C121.2 134.831 115.101 135.748 109.441 136.166C103.831 136.505 99.0356 136.399 95.0551 135.847C91.0745 135.295 87.5 134.385 84.3315 133.119C81.0091 131.818 78.3426 130.408 76.3319 128.891C74.3035 127.31 72.5034 125.511 70.9315 123.494C69.4277 121.463 68.301 119.619 67.5515 117.963C66.7844 116.243 66.1446 114.462 65.6321 112.62L64.9165 110.048C64.3864 108.142 64.0191 106.302 63.8144 104.528C63.6097 102.754 63.6408 100.659 63.9078 98.2442C64.2428 95.8144 64.9032 93.5162 65.8891 91.3495C66.875 89.1828 68.4738 86.8834 70.6855 84.4512C72.8972 82.019 75.6312 79.7767 78.8873 77.7244C82.1938 75.5938 86.3971 73.5721 91.4972 71.6591C96.7335 69.7167 102.621 68.0374 109.159 66.6212ZM233.02 74.2403C232.493 72.6035 231.83 71.1306 231.033 69.8217C230.081 68.4787 228.747 67.1851 227.029 65.9409C225.157 64.6626 223.015 63.7122 220.603 63.0896C218.192 62.4671 215.007 62.1804 211.049 62.2295C207.826 62.3216 204.255 62.7246 200.338 63.4385L113.914 82.159C94.797 86.6367 86.7581 94.3385 89.7973 105.264L90.0889 106.312C90.672 108.409 91.6624 110.282 93.0602 111.932C94.4756 113.646 96.4182 115.178 98.888 116.529C101.461 117.992 105.009 118.806 109.532 118.972C113.765 119.132 118.614 118.654 124.08 117.538L209.789 98.9721C214.861 97.7387 219.104 96.2472 222.517 94.4978C226.456 92.5668 229.226 90.4516 230.824 88.1521C232.423 85.8527 233.375 83.6934 233.68 81.6742C234.035 79.5768 233.93 77.5117 233.365 75.479L233.02 74.2403Z"/>
</mask>
<path d="M139.33 39.583L216.388 83.3966C222.21 86.7072 227.303 90.0568 231.667 93.4453C235.934 96.8547 239.318 100.027 241.819 102.961C244.321 105.896 246.267 108.856 247.659 111.84C249.051 114.825 249.897 117.499 250.197 119.863C250.461 122.282 250.412 124.674 250.049 127.038C249.685 129.403 249.125 131.429 248.369 133.117C247.614 134.804 246.718 136.451 245.684 138.056L244.24 140.297C243.206 141.903 242.068 143.411 240.827 144.823C239.586 146.235 237.934 147.64 235.873 149.039C233.74 150.549 231.489 151.727 229.12 152.573C226.716 153.475 223.784 154.039 220.324 154.264C216.767 154.511 213.086 154.308 209.279 153.657C205.316 152.991 200.707 151.656 195.451 149.651C190.232 147.591 184.711 144.906 178.889 141.595L101.831 97.7815C96.0088 94.471 90.8855 91.1041 86.4613 87.6811C82.1335 84.2373 78.7368 81.0203 76.2712 78.0303C73.8056 75.0403 71.9072 72.0702 70.576 69.1202C69.1592 66.0459 68.3007 63.3268 68.0006 60.9631C67.7361 58.5439 67.8035 56.1244 68.2025 53.7044C68.6622 51.3189 69.2522 49.31 69.9725 47.6777C70.7285 45.99 71.6235 44.3436 72.6578 42.7385L74.1021 40.4969C75.172 38.8365 76.3096 37.328 77.5151 35.9715C78.7206 34.6151 80.3417 33.1924 82.3783 31.7036C84.4756 30.2492 86.7086 29.0988 89.0771 28.2523C91.4456 27.4059 94.36 26.8699 97.8203 26.6442C101.281 26.4185 104.975 26.6661 108.902 27.3868C112.926 28.0867 117.518 29.4495 122.677 31.4752C127.957 33.5698 133.508 36.2724 139.33 39.583ZM223.347 126.036C224.213 124.562 224.857 123.113 225.278 121.689C225.613 120.14 225.632 118.374 225.336 116.39C224.953 114.282 224.125 112.223 222.852 110.213C221.578 108.203 219.487 105.918 216.579 103.357C214.171 101.307 211.273 99.2438 207.888 97.1674L130.921 53.4056C113.639 43.9575 101.931 43.9933 95.7975 53.5132L95.2091 54.4264C94.0322 56.2529 93.3209 58.1929 93.0752 60.2463C92.7938 62.355 93.0332 64.6843 93.7936 67.2341C94.5432 69.9291 96.4951 72.8161 99.6492 75.8951C102.596 78.7809 106.478 81.6308 111.295 84.445L187.624 127.845C192.244 130.32 196.459 132.074 200.27 133.106C204.6 134.359 208.223 134.717 211.138 134.181C214.052 133.645 216.39 132.781 218.152 131.59C220.011 130.378 221.51 128.886 222.651 127.115L223.347 126.036Z" fill="#FD39C3"/>
<path d="M109.159 66.6212L195.685 47.8785C202.223 46.4623 208.288 45.5526 213.88 45.1494C219.422 44.8245 224.174 44.9064 228.137 45.3949C232.1 45.8835 235.7 46.7538 238.936 48.0059C242.173 49.2579 244.797 50.6427 246.807 52.1603C248.836 53.7414 250.627 55.5086 252.181 57.4618C253.735 59.415 254.896 61.2514 255.663 62.971C256.431 64.6906 257.07 66.4715 257.583 68.3136L258.298 70.8862C258.811 72.7284 259.178 74.5682 259.401 76.4059C259.623 78.2435 259.558 80.3454 259.205 82.7117C258.888 85.205 258.236 87.535 257.25 89.7017C256.282 91.9319 254.692 94.2631 252.48 96.6953C250.218 99.2058 247.527 101.472 244.407 103.495C241.169 105.611 236.974 107.665 231.824 109.656C226.656 111.583 220.802 113.255 214.264 114.672L127.738 133.414C121.2 134.831 115.101 135.748 109.441 136.166C103.831 136.505 99.0356 136.399 95.0551 135.847C91.0745 135.295 87.5 134.385 84.3315 133.119C81.0091 131.818 78.3426 130.408 76.3319 128.891C74.3035 127.31 72.5034 125.511 70.9315 123.494C69.4277 121.463 68.301 119.619 67.5515 117.963C66.7844 116.243 66.1446 114.462 65.6321 112.62L64.9165 110.048C64.3864 108.142 64.0191 106.302 63.8144 104.528C63.6097 102.754 63.6408 100.659 63.9078 98.2442C64.2428 95.8144 64.9032 93.5162 65.8891 91.3495C66.875 89.1828 68.4738 86.8834 70.6855 84.4512C72.8972 82.019 75.6312 79.7767 78.8873 77.7244C82.1938 75.5938 86.3971 73.5721 91.4972 71.6591C96.7335 69.7167 102.621 68.0374 109.159 66.6212ZM233.02 74.2403C232.493 72.6035 231.83 71.1306 231.033 69.8217C230.081 68.4787 228.747 67.1851 227.029 65.9409C225.157 64.6626 223.015 63.7122 220.603 63.0896C218.192 62.4671 215.007 62.1804 211.049 62.2295C207.826 62.3216 204.255 62.7246 200.338 63.4385L113.914 82.159C94.797 86.6367 86.7581 94.3385 89.7973 105.264L90.0889 106.312C90.672 108.409 91.6624 110.282 93.0602 111.932C94.4756 113.646 96.4182 115.178 98.888 116.529C101.461 117.992 105.009 118.806 109.532 118.972C113.765 119.132 118.614 118.654 124.08 117.538L209.789 98.9721C214.861 97.7387 219.104 96.2472 222.517 94.4978C226.456 92.5668 229.226 90.4516 230.824 88.1521C232.423 85.8527 233.375 83.6934 233.68 81.6742C234.035 79.5768 233.93 77.5117 233.365 75.479L233.02 74.2403Z" fill="#FD39C3"/>
<path d="M139.33 39.583L216.388 83.3966C222.21 86.7072 227.303 90.0568 231.667 93.4453C235.934 96.8547 239.318 100.027 241.819 102.961C244.321 105.896 246.267 108.856 247.659 111.84C249.051 114.825 249.897 117.499 250.197 119.863C250.461 122.282 250.412 124.674 250.049 127.038C249.685 129.403 249.125 131.429 248.369 133.117C247.614 134.804 246.718 136.451 245.684 138.056L244.24 140.297C243.206 141.903 242.068 143.411 240.827 144.823C239.586 146.235 237.934 147.64 235.873 149.039C233.74 150.549 231.489 151.727 229.12 152.573C226.716 153.475 223.784 154.039 220.324 154.264C216.767 154.511 213.086 154.308 209.279 153.657C205.316 152.991 200.707 151.656 195.451 149.651C190.232 147.591 184.711 144.906 178.889 141.595L101.831 97.7815C96.0088 94.471 90.8855 91.1041 86.4613 87.6811C82.1335 84.2373 78.7368 81.0203 76.2712 78.0303C73.8056 75.0403 71.9072 72.0702 70.576 69.1202C69.1592 66.0459 68.3007 63.3268 68.0006 60.9631C67.7361 58.5439 67.8035 56.1244 68.2025 53.7044C68.6622 51.3189 69.2522 49.31 69.9725 47.6777C70.7285 45.99 71.6235 44.3436 72.6578 42.7385L74.1021 40.4969C75.172 38.8365 76.3096 37.328 77.5151 35.9715C78.7206 34.6151 80.3417 33.1924 82.3783 31.7036C84.4756 30.2492 86.7086 29.0988 89.0771 28.2523C91.4456 27.4059 94.36 26.8699 97.8203 26.6442C101.281 26.4185 104.975 26.6661 108.902 27.3868C112.926 28.0867 117.518 29.4495 122.677 31.4752C127.957 33.5698 133.508 36.2724 139.33 39.583ZM223.347 126.036C224.213 124.562 224.857 123.113 225.278 121.689C225.613 120.14 225.632 118.374 225.336 116.39C224.953 114.282 224.125 112.223 222.852 110.213C221.578 108.203 219.487 105.918 216.579 103.357C214.171 101.307 211.273 99.2438 207.888 97.1674L130.921 53.4056C113.639 43.9575 101.931 43.9933 95.7975 53.5132L95.2091 54.4264C94.0322 56.2529 93.3209 58.1929 93.0752 60.2463C92.7938 62.355 93.0332 64.6843 93.7936 67.2341C94.5432 69.9291 96.4951 72.8161 99.6492 75.8951C102.596 78.7809 106.478 81.6308 111.295 84.445L187.624 127.845C192.244 130.32 196.459 132.074 200.27 133.106C204.6 134.359 208.223 134.717 211.138 134.181C214.052 133.645 216.39 132.781 218.152 131.59C220.011 130.378 221.51 128.886 222.651 127.115L223.347 126.036Z" stroke="black" stroke-width="52" mask="url(#path-1-outside-1_215_2458)"/>
<path d="M109.159 66.6212L195.685 47.8785C202.223 46.4623 208.288 45.5526 213.88 45.1494C219.422 44.8245 224.174 44.9064 228.137 45.3949C232.1 45.8835 235.7 46.7538 238.936 48.0059C242.173 49.2579 244.797 50.6427 246.807 52.1603C248.836 53.7414 250.627 55.5086 252.181 57.4618C253.735 59.415 254.896 61.2514 255.663 62.971C256.431 64.6906 257.07 66.4715 257.583 68.3136L258.298 70.8862C258.811 72.7284 259.178 74.5682 259.401 76.4059C259.623 78.2435 259.558 80.3454 259.205 82.7117C258.888 85.205 258.236 87.535 257.25 89.7017C256.282 91.9319 254.692 94.2631 252.48 96.6953C250.218 99.2058 247.527 101.472 244.407 103.495C241.169 105.611 236.974 107.665 231.824 109.656C226.656 111.583 220.802 113.255 214.264 114.672L127.738 133.414C121.2 134.831 115.101 135.748 109.441 136.166C103.831 136.505 99.0356 136.399 95.0551 135.847C91.0745 135.295 87.5 134.385 84.3315 133.119C81.0091 131.818 78.3426 130.408 76.3319 128.891C74.3035 127.31 72.5034 125.511 70.9315 123.494C69.4277 121.463 68.301 119.619 67.5515 117.963C66.7844 116.243 66.1446 114.462 65.6321 112.62L64.9165 110.048C64.3864 108.142 64.0191 106.302 63.8144 104.528C63.6097 102.754 63.6408 100.659 63.9078 98.2442C64.2428 95.8144 64.9032 93.5162 65.8891 91.3495C66.875 89.1828 68.4738 86.8834 70.6855 84.4512C72.8972 82.019 75.6312 79.7767 78.8873 77.7244C82.1938 75.5938 86.3971 73.5721 91.4972 71.6591C96.7335 69.7167 102.621 68.0374 109.159 66.6212ZM233.02 74.2403C232.493 72.6035 231.83 71.1306 231.033 69.8217C230.081 68.4787 228.747 67.1851 227.029 65.9409C225.157 64.6626 223.015 63.7122 220.603 63.0896C218.192 62.4671 215.007 62.1804 211.049 62.2295C207.826 62.3216 204.255 62.7246 200.338 63.4385L113.914 82.159C94.797 86.6367 86.7581 94.3385 89.7973 105.264L90.0889 106.312C90.672 108.409 91.6624 110.282 93.0602 111.932C94.4756 113.646 96.4182 115.178 98.888 116.529C101.461 117.992 105.009 118.806 109.532 118.972C113.765 119.132 118.614 118.654 124.08 117.538L209.789 98.9721C214.861 97.7387 219.104 96.2472 222.517 94.4978C226.456 92.5668 229.226 90.4516 230.824 88.1521C232.423 85.8527 233.375 83.6934 233.68 81.6742C234.035 79.5768 233.93 77.5117 233.365 75.479L233.02 74.2403Z" stroke="black" stroke-width="52" mask="url(#path-1-outside-1_215_2458)"/>
<mask id="path-2-outside-2_215_2458" maskUnits="userSpaceOnUse" x="-8.74708" y="3.14303" width="103.133" height="135.641" fill="black">
<rect fill="white" x="-8.74708" y="3.14303" width="103.133" height="135.641"/>
<path fill-rule="evenodd" clip-rule="evenodd" d="M63.9294 42.7592C63.6913 42.7562 63.4543 42.7541 63.2184 42.7531C58.258 42.7929 54.0551 43.2019 50.6097 43.9802C47.2963 44.7164 44.2412 45.8065 41.4443 47.2506C38.7181 48.643 36.5382 50.1522 34.9043 51.7781C33.28 53.3428 31.8671 55.16 30.6656 57.2298C29.4832 59.1771 28.6356 60.9886 28.1228 62.6644C27.6099 64.3401 27.2147 66.0656 26.9372 67.8408L26.5496 70.3201C26.2721 72.0953 26.1218 73.8591 26.0986 75.6114C26.0755 77.3637 26.3298 79.3475 26.8614 81.5628C27.393 83.7781 28.1887 85.9092 29.2483 87.9562C30.3175 89.942 31.9376 92.0139 34.1087 94.1719C36.2797 96.33 38.8918 98.2748 41.9448 100.006C44.9977 101.738 48.8494 103.375 53.4998 104.917C53.7248 104.988 53.9511 105.058 54.1787 105.128L56.7949 88.3938C56.0398 87.9527 55.3704 87.5072 54.7869 87.0574C53.0519 85.72 51.6613 84.1857 50.615 82.4544C49.6816 80.8034 49.0801 79.2356 48.8105 77.7511C48.6538 76.3469 48.6692 74.8443 48.8568 73.2431L49.0434 72.0494C49.3497 70.0906 50.0443 68.2551 51.1272 66.5431C52.1393 64.8827 53.7329 63.3132 55.9081 61.8346C57.3256 60.8711 59.1197 60.1395 61.2903 59.6399L63.9294 42.7592Z"/>
</mask>
<path fill-rule="evenodd" clip-rule="evenodd" d="M63.9294 42.7592C63.6913 42.7562 63.4543 42.7541 63.2184 42.7531C58.258 42.7929 54.0551 43.2019 50.6097 43.9802C47.2963 44.7164 44.2412 45.8065 41.4443 47.2506C38.7181 48.643 36.5382 50.1522 34.9043 51.7781C33.28 53.3428 31.8671 55.16 30.6656 57.2298C29.4832 59.1771 28.6356 60.9886 28.1228 62.6644C27.6099 64.3401 27.2147 66.0656 26.9372 67.8408L26.5496 70.3201C26.2721 72.0953 26.1218 73.8591 26.0986 75.6114C26.0755 77.3637 26.3298 79.3475 26.8614 81.5628C27.393 83.7781 28.1887 85.9092 29.2483 87.9562C30.3175 89.942 31.9376 92.0139 34.1087 94.1719C36.2797 96.33 38.8918 98.2748 41.9448 100.006C44.9977 101.738 48.8494 103.375 53.4998 104.917C53.7248 104.988 53.9511 105.058 54.1787 105.128L56.7949 88.3938C56.0398 87.9527 55.3704 87.5072 54.7869 87.0574C53.0519 85.72 51.6613 84.1857 50.615 82.4544C49.6816 80.8034 49.0801 79.2356 48.8105 77.7511C48.6538 76.3469 48.6692 74.8443 48.8568 73.2431L49.0434 72.0494C49.3497 70.0906 50.0443 68.2551 51.1272 66.5431C52.1393 64.8827 53.7329 63.3132 55.9081 61.8346C57.3256 60.8711 59.1197 60.1395 61.2903 59.6399L63.9294 42.7592Z" fill="#41F168"/>
<path d="M63.9294 42.7592L89.6173 46.7753L94.2494 17.147L64.2637 16.7614L63.9294 42.7592ZM63.2184 42.7531L63.331 16.7534L63.1705 16.7527L63.0101 16.754L63.2184 42.7531ZM50.6097 43.9802L56.2492 69.3612L56.294 69.3513L56.3387 69.3412L50.6097 43.9802ZM41.4443 47.2506L53.2709 70.4051L53.3216 70.3792L53.3722 70.3531L41.4443 47.2506ZM34.9043 51.7781L52.9425 70.5031L53.0946 70.3566L53.2443 70.2076L34.9043 51.7781ZM30.6656 57.2298L52.8896 70.7239L53.0226 70.5049L53.1513 70.2833L30.6656 57.2298ZM28.1228 62.6644L3.26094 55.0558L3.26091 55.0559L28.1228 62.6644ZM26.9372 67.8408L52.6252 71.8569L26.9372 67.8408ZM26.5496 70.3201L0.861645 66.304L26.5496 70.3201ZM26.0986 75.6114L0.100907 75.2685L0.100905 75.2686L26.0986 75.6114ZM26.8614 81.5628L1.5792 87.6299L1.57922 87.6299L26.8614 81.5628ZM29.2483 87.9562L6.15847 99.9086L6.25556 100.096L6.35569 100.282L29.2483 87.9562ZM34.1087 94.1719L15.7792 112.612L15.7793 112.612L34.1087 94.1719ZM41.9448 100.006L54.7715 77.3905L54.7715 77.3905L41.9448 100.006ZM53.4998 104.917L45.3153 129.595L45.4931 129.654L45.6716 129.711L53.4998 104.917ZM54.1787 105.128L46.5621 129.988L75.2346 138.772L79.8667 109.144L54.1787 105.128ZM56.7949 88.3938L82.4829 92.4099L85.222 74.8892L69.91 65.944L56.7949 88.3938ZM54.7869 87.0574L38.9139 107.65L38.9139 107.65L54.7869 87.0574ZM50.615 82.4544L27.9817 95.2502L28.1674 95.5787L28.3625 95.9016L50.615 82.4544ZM48.8105 77.7511L22.971 80.6355L23.0698 81.5207L23.2289 82.397L48.8105 77.7511ZM48.8568 73.2431L23.1688 69.2271L23.0916 69.7209L23.0335 70.2173L48.8568 73.2431ZM49.0434 72.0494L23.3555 68.0334L49.0434 72.0494ZM51.1272 66.5431L73.1005 80.4417L73.2156 80.2597L73.3278 80.0757L51.1272 66.5431ZM55.9081 61.8346L70.5242 83.3374L70.5243 83.3374L55.9081 61.8346ZM61.2903 59.6399L67.122 84.9775L84.2616 81.0326L86.9782 63.656L61.2903 59.6399ZM64.2637 16.7614C63.9525 16.7574 63.6416 16.7547 63.331 16.7534L63.1058 68.7529C63.267 68.7536 63.4301 68.755 63.5951 68.7571L64.2637 16.7614ZM63.0101 16.754C56.8751 16.8031 50.7013 17.3044 44.8808 18.6192L56.3387 69.3412C57.4089 69.0994 59.6408 68.7826 63.4267 68.7523L63.0101 16.754ZM44.9702 18.5992C39.6412 19.7832 34.4514 21.6001 29.5163 24.1481L53.3722 70.3531C54.031 70.013 54.9515 69.6495 56.2492 69.3612L44.9702 18.5992ZM29.6176 24.0961C25.2265 26.339 20.6211 29.3116 16.5643 33.3487L53.2443 70.2076C53.0301 70.4207 52.8571 70.5713 52.7425 70.6655C52.628 70.7597 52.5639 70.8039 52.5638 70.804C52.5636 70.8042 52.6181 70.7665 52.7376 70.6959C52.8569 70.6253 53.0321 70.5271 53.2709 70.4051L29.6176 24.0961ZM16.8662 33.0531C13.4002 36.392 10.5194 40.1462 8.17989 44.1763L53.1513 70.2833C53.188 70.22 53.1914 70.2232 53.1522 70.2736C53.1123 70.325 53.0428 70.4065 52.9425 70.5031L16.8662 33.0531ZM8.44156 43.7356C6.45385 47.0092 4.56113 50.8073 3.26094 55.0558L52.9846 70.273C52.8384 70.7505 52.7151 71.02 52.6927 71.0677C52.6695 71.1173 52.7192 71.0047 52.8896 70.7239L8.44156 43.7356ZM3.26091 55.0559C2.37909 57.9374 1.71201 60.8648 1.24924 63.8248L52.6252 71.8569C52.7175 71.2665 52.8408 70.7428 52.9846 70.2728L3.26091 55.0559ZM1.24924 63.8248L0.861645 66.304L52.2376 74.3361L52.6252 71.8569L1.24924 63.8248ZM0.861645 66.304C0.398866 69.2642 0.140644 72.2554 0.100907 75.2685L52.0964 75.9542C52.1029 75.4627 52.1453 74.9264 52.2376 74.3361L0.861645 66.304ZM0.100905 75.2686C0.0423381 79.7112 0.685493 83.9057 1.5792 87.6299L52.1436 75.4956C52.067 75.1763 52.0541 75.0539 52.0611 75.1082C52.0678 75.1605 52.103 75.4547 52.0964 75.9541L0.100905 75.2686ZM1.57922 87.6299C2.60694 91.9125 4.14441 96.0178 6.15847 99.9086L52.3381 76.0038C52.2329 75.8006 52.1791 75.6436 52.1436 75.4956L1.57922 87.6299ZM6.35569 100.282C8.98215 105.16 12.3957 109.249 15.7792 112.612L52.4381 75.732C52.2227 75.5179 52.0611 75.3457 51.9452 75.2164C51.8291 75.0869 51.7667 75.0091 51.747 74.9839C51.7271 74.9585 51.7582 74.9962 51.8257 75.098C51.8931 75.1997 52.0045 75.377 52.1409 75.6303L6.35569 100.282ZM15.7793 112.612C19.8099 116.618 24.3412 119.913 29.1181 122.622L54.7715 77.3905C53.4423 76.6367 52.7495 76.0416 52.4381 75.732L15.7793 112.612ZM29.118 122.622C34.0982 125.447 39.6345 127.711 45.3153 129.595L61.6842 80.2388C58.0644 79.0383 55.8973 78.029 54.7715 77.3905L29.118 122.622ZM45.6716 129.711C45.9676 129.804 46.2645 129.896 46.5621 129.988L61.7953 80.2688C61.6377 80.2205 61.4819 80.1721 61.328 80.1235L45.6716 129.711ZM79.8667 109.144L82.4829 92.4099L31.107 84.3778L28.4907 101.112L79.8667 109.144ZM69.91 65.944C69.9414 65.9623 70.2203 66.1261 70.6598 66.4649L38.9139 107.65C40.5205 108.888 42.1381 109.943 43.6799 110.844L69.91 65.944ZM70.6598 66.4649C71.2631 66.9299 72.1148 67.7616 72.8675 69.0071L28.3625 95.9016C31.2078 100.61 34.8407 104.51 38.9139 107.65L70.6598 66.4649ZM73.2483 69.6585C73.3947 69.9174 74.0278 71.0993 74.3921 73.1052L23.2289 82.397C24.1324 87.3719 25.9685 91.6893 27.9817 95.2502L73.2483 69.6585ZM74.65 74.8667C74.7407 75.6795 74.6909 76.1768 74.6801 76.2689L23.0335 70.2173C22.6475 73.5118 22.5668 77.0144 22.971 80.6355L74.65 74.8667ZM74.5448 77.2591L74.7314 76.0654L23.3555 68.0334L23.1688 69.2271L74.5448 77.2591ZM74.7314 76.0654C74.4762 77.6977 73.8762 79.2153 73.1005 80.4417L29.1538 52.6444C26.2123 57.2949 24.2231 62.4834 23.3555 68.0334L74.7314 76.0654ZM73.3278 80.0757C72.5732 81.3137 71.8248 82.1534 71.3252 82.6454C71.0727 82.8941 70.8688 83.0687 70.7354 83.1767C70.6018 83.2847 70.5261 83.3361 70.5242 83.3374L41.292 40.3318C37.0714 43.2007 32.4231 47.2742 28.9265 53.0104L73.3278 80.0757ZM70.5243 83.3374C68.6107 84.6381 67.198 84.96 67.122 84.9775L55.4585 34.3024C51.0414 35.3191 46.0406 37.1041 41.292 40.3319L70.5243 83.3374ZM86.9782 63.656L89.6173 46.7753L38.2414 38.7432L35.6023 55.6239L86.9782 63.656Z" fill="black" mask="url(#path-2-outside-2_215_2458)"/>
<mask id="path-4-outside-3_215_2458" maskUnits="userSpaceOnUse" x="225.596" y="40.6635" width="103.133" height="135.641" fill="black">
<rect fill="white" x="225.596" y="40.6635" width="103.133" height="135.641"/>
<path fill-rule="evenodd" clip-rule="evenodd" d="M256.053 136.688C256.291 136.691 256.528 136.693 256.764 136.695C261.724 136.655 265.927 136.246 269.372 135.467C272.686 134.731 275.741 133.641 278.538 132.197C281.264 130.805 283.444 129.295 285.078 127.67C286.702 126.105 288.115 124.288 289.316 122.218C290.499 120.271 291.346 118.459 291.859 116.783C292.372 115.108 292.767 113.382 293.045 111.607L293.432 109.128C293.71 107.352 293.86 105.589 293.883 103.836C293.906 102.084 293.652 100.1 293.121 97.8849C292.589 95.6696 291.793 93.5384 290.734 91.4914C289.664 89.5056 288.044 87.4337 285.873 85.2757C283.702 83.1176 281.09 81.1729 278.037 79.4413C274.984 77.7098 271.133 76.0729 266.482 74.5306C266.257 74.4596 266.031 74.3892 265.803 74.3195L263.187 91.0538C263.942 91.495 264.612 91.9404 265.195 92.3902C266.93 93.7276 268.321 95.2619 269.367 96.9933C270.3 98.6443 270.902 100.212 271.171 101.697C271.328 103.101 271.313 104.603 271.125 106.205L270.939 107.398C270.632 109.357 269.938 111.193 268.855 112.905C267.843 114.565 266.249 116.134 264.074 117.613C262.656 118.577 260.862 119.308 258.692 119.808L256.053 136.688Z"/>
</mask>
<path fill-rule="evenodd" clip-rule="evenodd" d="M256.053 136.688C256.291 136.691 256.528 136.693 256.764 136.695C261.724 136.655 265.927 136.246 269.372 135.467C272.686 134.731 275.741 133.641 278.538 132.197C281.264 130.805 283.444 129.295 285.078 127.67C286.702 126.105 288.115 124.288 289.316 122.218C290.499 120.271 291.346 118.459 291.859 116.783C292.372 115.108 292.767 113.382 293.045 111.607L293.432 109.128C293.71 107.352 293.86 105.589 293.883 103.836C293.906 102.084 293.652 100.1 293.121 97.8849C292.589 95.6696 291.793 93.5384 290.734 91.4914C289.664 89.5056 288.044 87.4337 285.873 85.2757C283.702 83.1176 281.09 81.1729 278.037 79.4413C274.984 77.7098 271.133 76.0729 266.482 74.5306C266.257 74.4596 266.031 74.3892 265.803 74.3195L263.187 91.0538C263.942 91.495 264.612 91.9404 265.195 92.3902C266.93 93.7276 268.321 95.2619 269.367 96.9933C270.3 98.6443 270.902 100.212 271.171 101.697C271.328 103.101 271.313 104.603 271.125 106.205L270.939 107.398C270.632 109.357 269.938 111.193 268.855 112.905C267.843 114.565 266.249 116.134 264.074 117.613C262.656 118.577 260.862 119.308 258.692 119.808L256.053 136.688Z" fill="#41F168"/>
<path d="M256.053 136.688L230.365 132.672L225.733 162.301L255.718 162.686L256.053 136.688ZM256.764 136.695L256.651 162.694L256.811 162.695L256.972 162.694L256.764 136.695ZM269.372 135.467L263.733 110.086L263.688 110.096L263.643 110.106L269.372 135.467ZM278.538 132.197L266.711 109.043L266.66 109.068L266.61 109.095L278.538 132.197ZM285.078 127.67L267.039 108.945L266.887 109.091L266.738 109.24L285.078 127.67ZM289.316 122.218L267.092 108.724L266.959 108.943L266.831 109.164L289.316 122.218ZM291.859 116.783L316.721 124.392L316.721 124.392L291.859 116.783ZM293.045 111.607L267.357 107.591L293.045 111.607ZM293.432 109.128L319.12 113.144L293.432 109.128ZM293.883 103.836L319.881 104.179L319.881 104.179L293.883 103.836ZM293.121 97.8849L318.403 91.8177L318.403 91.8177L293.121 97.8849ZM290.734 91.4914L313.823 79.539L313.726 79.3514L313.626 79.1655L290.734 91.4914ZM285.873 85.2757L304.203 66.8357L304.203 66.8357L285.873 85.2757ZM278.037 79.4413L265.21 102.057L265.21 102.057L278.037 79.4413ZM266.482 74.5306L274.667 49.8524L274.489 49.7935L274.31 49.7371L266.482 74.5306ZM265.803 74.3195L273.42 49.4601L244.747 40.6752L240.115 70.3034L265.803 74.3195ZM263.187 91.0538L237.499 87.0378L234.76 104.558L250.072 113.504L263.187 91.0538ZM265.195 92.3902L281.068 71.7978L281.068 71.7978L265.195 92.3902ZM269.367 96.9933L292 84.1974L291.815 83.869L291.619 83.546L269.367 96.9933ZM271.171 101.697L297.011 98.8121L296.912 97.927L296.753 97.0507L271.171 101.697ZM271.125 106.205L296.813 110.221L296.89 109.727L296.948 109.23L271.125 106.205ZM268.855 112.905L246.881 99.0059L246.766 99.188L246.654 99.3719L268.855 112.905ZM264.074 117.613L249.458 96.1102L249.458 96.1103L264.074 117.613ZM258.692 119.808L252.86 94.4702L235.72 98.4151L233.004 115.792L258.692 119.808ZM255.718 162.686C256.029 162.69 256.34 162.693 256.651 162.694L256.876 110.695C256.715 110.694 256.552 110.693 256.387 110.691L255.718 162.686ZM256.972 162.694C263.107 162.645 269.281 162.143 275.101 160.828L263.643 110.106C262.573 110.348 260.341 110.665 256.555 110.695L256.972 162.694ZM275.012 160.848C280.341 159.664 285.531 157.848 290.466 155.299L266.61 109.095C265.951 109.435 265.03 109.798 263.733 110.086L275.012 160.848ZM290.364 155.352C294.755 153.109 299.361 150.136 303.418 146.099L266.738 109.24C266.952 109.027 267.125 108.876 267.239 108.782C267.354 108.688 267.418 108.644 267.418 108.644C267.418 108.643 267.364 108.681 267.244 108.752C267.125 108.822 266.95 108.921 266.711 109.043L290.364 155.352ZM303.116 146.395C306.582 143.056 309.463 139.301 311.802 135.271L266.831 109.164C266.794 109.228 266.79 109.224 266.83 109.174C266.87 109.123 266.939 109.041 267.039 108.945L303.116 146.395ZM311.54 135.712C313.528 132.438 315.421 128.64 316.721 124.392L266.997 109.175C267.144 108.697 267.267 108.428 267.289 108.38C267.312 108.33 267.263 108.443 267.092 108.724L311.54 135.712ZM316.721 124.392C317.603 121.51 318.27 118.583 318.733 115.623L267.357 107.591C267.264 108.181 267.141 108.705 266.997 109.175L316.721 124.392ZM318.733 115.623L319.12 113.144L267.744 105.112L267.357 107.591L318.733 115.623ZM319.12 113.144C319.583 110.184 319.841 107.192 319.881 104.179L267.886 103.493C267.879 103.985 267.837 104.521 267.744 105.112L319.12 113.144ZM319.881 104.179C319.94 99.7364 319.296 95.5419 318.403 91.8177L267.838 103.952C267.915 104.271 267.928 104.394 267.921 104.339C267.914 104.287 267.879 103.993 267.886 103.494L319.881 104.179ZM318.403 91.8177C317.375 87.5351 315.838 83.4298 313.823 79.539L267.644 103.444C267.749 103.647 267.803 103.804 267.838 103.952L318.403 91.8177ZM313.626 79.1655C311 74.2874 307.586 70.199 304.203 66.8357L267.544 103.716C267.759 103.93 267.921 104.102 268.037 104.231C268.153 104.361 268.215 104.439 268.235 104.464C268.255 104.489 268.224 104.451 268.156 104.35C268.089 104.248 267.977 104.071 267.841 103.817L313.626 79.1655ZM304.203 66.8357C300.172 62.8292 295.641 59.5347 290.864 56.8255L265.21 102.057C266.54 102.811 267.232 103.406 267.544 103.716L304.203 66.8357ZM290.864 56.8255C285.884 54.001 280.347 51.7364 274.667 49.8524L258.298 99.2089C261.918 100.409 264.085 101.419 265.21 102.057L290.864 56.8255ZM274.31 49.7371C274.014 49.6436 273.717 49.5513 273.42 49.4601L258.187 99.1788C258.344 99.2271 258.5 99.2756 258.654 99.3242L274.31 49.7371ZM240.115 70.3034L237.499 87.0378L288.875 95.0698L291.491 78.3355L240.115 70.3034ZM250.072 113.504C250.041 113.485 249.762 113.322 249.322 112.983L281.068 71.7978C279.461 70.5594 277.844 69.5046 276.302 68.604L250.072 113.504ZM249.322 112.983C248.719 112.518 247.867 111.686 247.114 110.441L291.619 83.546C288.774 78.8378 285.141 74.9374 281.068 71.7978L249.322 112.983ZM246.734 109.789C246.587 109.53 245.954 108.348 245.59 106.342L296.753 97.0507C295.849 92.0758 294.013 87.7584 292 84.1974L246.734 109.789ZM245.332 104.581C245.241 103.768 245.291 103.271 245.302 103.179L296.948 109.23C297.334 105.936 297.415 102.433 297.011 98.8121L245.332 104.581ZM245.437 102.188L245.251 103.382L296.626 111.414L296.813 110.221L245.437 102.188ZM245.251 103.382C245.506 101.75 246.106 100.232 246.881 99.0059L290.828 126.803C293.77 122.153 295.759 116.964 296.626 111.414L245.251 103.382ZM246.654 99.3719C247.409 98.1339 248.157 97.2943 248.657 96.8022C248.909 96.5535 249.113 96.3789 249.247 96.2709C249.38 96.1629 249.456 96.1115 249.458 96.1102L278.69 139.116C282.91 136.247 287.559 132.173 291.055 126.437L246.654 99.3719ZM249.458 96.1103C251.371 94.8096 252.784 94.4876 252.86 94.4702L264.523 145.145C268.941 144.129 273.941 142.344 278.69 139.116L249.458 96.1103ZM233.004 115.792L230.365 132.672L281.741 140.704L284.38 123.824L233.004 115.792Z" fill="black" mask="url(#path-4-outside-3_215_2458)"/>
<path d="M139.33 39.583L216.388 83.3966C222.21 86.7072 227.303 90.0568 231.667 93.4453C235.934 96.8547 239.318 100.027 241.819 102.961C244.321 105.896 246.267 108.856 247.659 111.84C249.051 114.825 249.897 117.499 250.197 119.863C250.461 122.282 250.412 124.674 250.049 127.038C249.685 129.403 249.125 131.429 248.369 133.117C247.614 134.804 246.718 136.451 245.684 138.056L244.24 140.297C243.206 141.903 242.068 143.411 240.827 144.823C239.586 146.235 237.934 147.64 235.873 149.039C233.74 150.549 231.489 151.727 229.12 152.573C226.716 153.475 223.784 154.039 220.324 154.264C216.767 154.511 213.086 154.308 209.279 153.657C205.316 152.991 200.707 151.656 195.451 149.651C190.232 147.591 184.711 144.906 178.889 141.595L101.831 97.7815C96.0088 94.471 90.8855 91.1041 86.4613 87.6811C82.1335 84.2373 78.7368 81.0203 76.2712 78.0303C73.8056 75.0403 71.9072 72.0702 70.576 69.1202C69.1592 66.0459 68.3007 63.3268 68.0006 60.9631C67.7361 58.5439 67.8035 56.1244 68.2025 53.7044C68.6622 51.3189 69.2522 49.31 69.9725 47.6777C70.7285 45.99 71.6235 44.3436 72.6578 42.7385L74.1021 40.4969C75.172 38.8365 76.3096 37.328 77.5151 35.9715C78.7206 34.6151 80.3417 33.1924 82.3783 31.7036C84.4756 30.2492 86.7086 29.0988 89.0771 28.2523C91.4456 27.4059 94.36 26.8699 97.8203 26.6442C101.281 26.4185 104.975 26.6661 108.902 27.3868C112.926 28.0867 117.518 29.4495 122.677 31.4752C127.957 33.5698 133.508 36.2724 139.33 39.583ZM223.347 126.036C224.213 124.562 224.857 123.113 225.278 121.689C225.613 120.14 225.632 118.374 225.336 116.39C224.953 114.282 224.125 112.223 222.852 110.213C221.578 108.203 219.487 105.918 216.579 103.357C214.171 101.307 211.273 99.2438 207.888 97.1674L130.921 53.4056C113.639 43.9575 101.931 43.9933 95.7975 53.5132L95.2091 54.4264C94.0322 56.2529 93.3209 58.1929 93.0752 60.2463C92.7938 62.355 93.0332 64.6843 93.7936 67.2341C94.5432 69.9291 96.4951 72.8161 99.6492 75.8951C102.596 78.7809 106.478 81.6308 111.295 84.445L187.624 127.845C192.244 130.32 196.459 132.074 200.27 133.106C204.6 134.359 208.223 134.717 211.138 134.181C214.052 133.645 216.39 132.781 218.152 131.59C220.011 130.378 221.51 128.886 222.651 127.115L223.347 126.036Z" fill="#FD39C3"/>
<path d="M109.159 66.6212L195.685 47.8785C202.223 46.4623 208.288 45.5526 213.88 45.1494C219.422 44.8245 224.174 44.9064 228.137 45.3949C232.1 45.8835 235.7 46.7538 238.936 48.0059C242.173 49.2579 244.797 50.6427 246.807 52.1603C248.836 53.7414 250.627 55.5086 252.181 57.4618C253.735 59.415 254.896 61.2514 255.663 62.971C256.431 64.6906 257.07 66.4715 257.583 68.3136L258.298 70.8862C258.811 72.7284 259.178 74.5682 259.401 76.4059C259.623 78.2435 259.558 80.3454 259.205 82.7117C258.888 85.205 258.236 87.535 257.25 89.7017C256.282 91.9319 254.692 94.2631 252.48 96.6953C250.218 99.2058 247.527 101.472 244.407 103.495C241.169 105.611 236.974 107.665 231.824 109.656C226.656 111.583 220.802 113.255 214.264 114.672L127.738 133.414C121.2 134.831 115.101 135.748 109.441 136.166C103.831 136.505 99.0356 136.399 95.0551 135.847C91.0745 135.295 87.5 134.385 84.3315 133.119C81.0091 131.818 78.3426 130.408 76.3319 128.891C74.3035 127.31 72.5034 125.511 70.9315 123.494C69.4277 121.463 68.301 119.619 67.5515 117.963C66.7844 116.243 66.1446 114.462 65.6321 112.62L64.9165 110.048C64.3864 108.142 64.0191 106.302 63.8144 104.528C63.6097 102.754 63.6408 100.659 63.9078 98.2442C64.2428 95.8144 64.9032 93.5162 65.8891 91.3495C66.875 89.1828 68.4738 86.8834 70.6855 84.4512C72.8972 82.019 75.6312 79.7767 78.8873 77.7244C82.1938 75.5938 86.3971 73.5721 91.4972 71.6591C96.7335 69.7167 102.621 68.0374 109.159 66.6212ZM233.02 74.2403C232.493 72.6035 231.83 71.1306 231.033 69.8217C230.081 68.4787 228.747 67.1851 227.029 65.9409C225.157 64.6626 223.015 63.7122 220.603 63.0896C218.192 62.4671 215.007 62.1804 211.049 62.2295C207.826 62.3216 204.255 62.7246 200.338 63.4385L113.914 82.159C94.797 86.6367 86.7581 94.3385 89.7973 105.264L90.0889 106.312C90.672 108.409 91.6624 110.282 93.0602 111.932C94.4756 113.646 96.4182 115.178 98.888 116.529C101.461 117.992 105.009 118.806 109.532 118.972C113.765 119.132 118.614 118.654 124.08 117.538L209.789 98.9721C214.861 97.7387 219.104 96.2472 222.517 94.4978C226.456 92.5668 229.226 90.4516 230.824 88.1521C232.423 85.8527 233.375 83.6934 233.68 81.6742C234.035 79.5768 233.93 77.5117 233.365 75.479L233.02 74.2403Z" fill="#FD39C3"/>
<path fill-rule="evenodd" clip-rule="evenodd" d="M63.9294 42.7592C63.6913 42.7562 63.4543 42.7541 63.2184 42.7531C58.258 42.7929 54.0551 43.2019 50.6097 43.9802C47.2963 44.7164 44.2412 45.8065 41.4443 47.2506C38.7181 48.643 36.5382 50.1522 34.9043 51.7781C33.28 53.3428 31.8671 55.16 30.6656 57.2298C29.4832 59.1771 28.6356 60.9886 28.1228 62.6644C27.6099 64.3401 27.2147 66.0656 26.9372 67.8408L26.5496 70.3201C26.2721 72.0953 26.1218 73.8591 26.0986 75.6114C26.0755 77.3637 26.3298 79.3475 26.8614 81.5628C27.393 83.7781 28.1887 85.9092 29.2483 87.9562C30.3175 89.942 31.9376 92.0139 34.1087 94.1719C36.2797 96.33 38.8918 98.2748 41.9448 100.006C44.9977 101.738 48.8494 103.375 53.4998 104.917C53.7248 104.988 53.9511 105.058 54.1787 105.128L56.7949 88.3938C56.0398 87.9527 55.3704 87.5072 54.7869 87.0574C53.0519 85.72 51.6613 84.1857 50.615 82.4544C49.6816 80.8034 49.0801 79.2356 48.8105 77.7511C48.6538 76.3469 48.6692 74.8443 48.8568 73.2431L49.0434 72.0494C49.3497 70.0906 50.0443 68.2551 51.1272 66.5431C52.1393 64.8827 53.7329 63.3132 55.9081 61.8346C57.3256 60.8711 59.1197 60.1395 61.2903 59.6399L63.9294 42.7592Z" fill="#41F168"/>
<path fill-rule="evenodd" clip-rule="evenodd" d="M256.053 136.688C256.291 136.691 256.528 136.693 256.764 136.695C261.724 136.655 265.927 136.246 269.372 135.467C272.686 134.731 275.741 133.641 278.538 132.197C281.264 130.805 283.444 129.295 285.078 127.67C286.702 126.105 288.115 124.288 289.316 122.218C290.499 120.271 291.346 118.459 291.859 116.783C292.372 115.108 292.767 113.382 293.045 111.607L293.432 109.128C293.71 107.352 293.86 105.589 293.883 103.836C293.906 102.084 293.652 100.1 293.121 97.8849C292.589 95.6696 291.793 93.5384 290.734 91.4914C289.664 89.5056 288.044 87.4337 285.873 85.2757C283.702 83.1176 281.09 81.1729 278.037 79.4413C274.984 77.7098 271.133 76.0729 266.482 74.5306C266.257 74.4596 266.031 74.3892 265.803 74.3195L263.187 91.0538C263.942 91.495 264.612 91.9404 265.195 92.3902C266.93 93.7276 268.321 95.2619 269.367 96.9933C270.3 98.6443 270.902 100.212 271.171 101.697C271.328 103.101 271.313 104.603 271.125 106.205L270.939 107.398C270.632 109.357 269.938 111.193 268.855 112.905C267.843 114.565 266.249 116.134 264.074 117.613C262.656 118.577 260.862 119.308 258.692 119.808L256.053 136.688Z" fill="#41F168"/>
</svg>
