<svg width="318" height="189" viewBox="0 0 318 189" fill="none" xmlns="http://www.w3.org/2000/svg">
<mask id="path-1-outside-1_215_2425" maskUnits="userSpaceOnUse" x="22.1313" y="-10.8695" width="275.086" height="211.682" fill="black">
<rect fill="white" x="22.1313" y="-10.8695" width="275.086" height="211.682"/>
<path d="M121.269 55.4448L209.05 67.7711C215.683 68.7024 221.652 69.9389 226.957 71.4805C232.18 73.077 236.496 74.7783 239.902 76.5844C243.309 78.3906 246.21 80.4243 248.604 82.6856C250.997 84.947 252.769 87.1211 253.92 89.2078C255.057 91.3591 255.893 93.6008 256.427 95.9329C256.96 98.265 257.187 100.355 257.106 102.202C257.026 104.05 256.8 105.91 256.431 107.783L255.914 110.4C255.544 112.273 255.043 114.094 254.409 115.864C253.776 117.634 252.759 119.549 251.358 121.61C249.932 123.799 248.274 125.724 246.384 127.384C244.481 129.108 241.963 130.713 238.83 132.198C235.615 133.739 232.118 134.907 228.339 135.704C224.409 136.547 219.633 137.004 214.009 137.078C208.397 137.086 202.275 136.625 195.642 135.694L107.861 123.367C101.229 122.436 95.225 121.195 89.8507 119.643C84.5582 118.037 80.2149 116.299 76.8208 114.428C73.4267 112.557 70.5672 110.496 68.2424 108.245C65.7922 105.909 63.9919 103.698 62.8417 101.611C61.7042 99.4597 60.8749 97.1857 60.3539 94.789C59.902 92.402 59.71 90.317 59.7779 88.5342C59.8586 86.6867 60.0838 84.8263 60.4535 82.953L60.97 80.3368C61.3525 78.399 61.8541 76.5774 62.4747 74.8721C63.0953 73.1668 64.0779 71.2468 65.4224 69.1121C66.8359 66.987 68.4876 65.0946 70.3774 63.4348C72.2672 61.7749 74.7788 60.2024 77.9122 58.7172C81.0457 57.232 84.5708 56.1005 88.4877 55.3228C92.4865 54.4902 97.2569 54.0647 102.799 54.0463C108.479 54.0473 114.636 54.5135 121.269 55.4448ZM231.236 104.843C231.498 103.154 231.562 101.57 231.428 100.09C231.169 98.5269 230.536 96.8779 229.529 95.1433C228.397 93.3247 226.868 91.7159 224.943 90.317C223.018 88.9181 220.232 87.5643 216.585 86.2555C213.59 85.2376 210.137 84.3875 206.224 83.7053L118.547 71.3937C98.999 68.9807 88.1287 73.3295 85.9355 84.44L85.7251 85.5058C85.3044 87.6375 85.3582 89.703 85.8866 91.7024C86.4023 93.7664 87.4834 95.8435 89.1301 97.9335C90.8203 100.162 93.6989 102.127 97.7658 103.826C101.569 105.423 106.228 106.641 111.743 107.482L198.695 119.692C203.902 120.29 208.467 120.367 212.389 119.922C216.877 119.49 220.376 118.487 222.888 116.915C225.4 115.342 227.255 113.678 228.454 111.921C229.735 110.109 230.579 108.17 230.987 106.103L231.236 104.843Z"/>
<path d="M103.187 91.7003L176.713 42.3846C182.269 38.6582 187.571 35.577 192.621 33.141C197.653 30.7964 202.101 29.1208 205.965 28.1142C209.829 27.1077 213.496 26.5899 216.966 26.5608C220.437 26.5318 223.386 26.852 225.814 27.5216C228.283 28.2438 230.599 29.2263 232.764 30.4691C234.929 31.7119 236.685 32.9912 238.032 34.3069C239.379 35.6227 240.63 37.0424 241.785 38.5659L243.399 40.6936C244.554 42.2172 245.574 43.7921 246.458 45.4184C247.342 47.0447 248.056 49.0227 248.6 51.3523C249.224 53.7871 249.477 56.1932 249.359 58.5707C249.281 61.0007 248.663 63.7539 247.503 66.8301C246.326 69.9976 244.659 73.0966 242.505 76.1269C240.274 79.2874 237.132 82.7424 233.078 86.4918C228.984 90.1887 224.159 93.9003 218.604 97.6267L145.078 146.942C139.523 150.669 134.191 153.769 129.083 156.244C123.993 158.628 119.497 160.296 115.593 161.25C111.689 162.204 108.031 162.676 104.619 162.667C101.051 162.682 98.0524 162.355 95.6239 161.685C93.1556 160.963 90.8191 159.954 88.6145 158.659C86.4678 157.325 84.7409 156.026 83.4338 154.763C82.0868 153.447 80.8356 152.028 79.6803 150.504L78.0668 148.376C76.8716 146.8 75.852 145.225 75.0078 143.652C74.1636 142.078 73.4205 140.119 72.7785 137.776C72.1943 135.394 71.9611 133.014 72.079 130.636C72.1968 128.259 72.8355 125.532 73.995 122.456C75.1545 119.38 76.8695 116.287 79.1399 113.179C81.4283 109.98 84.5905 106.551 88.6264 102.893C92.7781 99.1576 97.6317 95.4266 103.187 91.7003ZM221.136 53.1289C220.043 51.8018 218.884 50.6768 217.66 49.7539C216.281 48.8561 214.563 48.1455 212.508 47.6221C210.297 47.1238 207.955 47.0298 205.484 47.34C203.013 47.6501 199.947 48.5574 196.286 50.0619C193.323 51.3358 190.152 53.0264 186.774 55.1339L113.335 104.391C97.2145 115.6 92.5804 125.723 99.4327 134.759L100.09 135.626C101.405 137.36 103.016 138.736 104.924 139.755C106.871 140.826 109.242 141.535 112.035 141.88C114.967 142.292 118.565 141.741 122.83 140.227C126.824 138.817 131.156 136.585 135.826 133.532L208.657 84.6821C212.918 81.6659 216.312 78.7157 218.839 75.8316C221.79 72.5844 223.584 69.5974 224.223 66.8705C224.862 64.1437 224.951 61.7855 224.49 59.7962C224.047 57.7155 223.188 55.8346 221.913 54.1534L221.136 53.1289Z"/>
</mask>
<path d="M121.269 55.4448L209.05 67.7711C215.683 68.7024 221.652 69.9389 226.957 71.4805C232.18 73.077 236.496 74.7783 239.902 76.5844C243.309 78.3906 246.21 80.4243 248.604 82.6856C250.997 84.947 252.769 87.1211 253.92 89.2078C255.057 91.3591 255.893 93.6008 256.427 95.9329C256.96 98.265 257.187 100.355 257.106 102.202C257.026 104.05 256.8 105.91 256.431 107.783L255.914 110.4C255.544 112.273 255.043 114.094 254.409 115.864C253.776 117.634 252.759 119.549 251.358 121.61C249.932 123.799 248.274 125.724 246.384 127.384C244.481 129.108 241.963 130.713 238.83 132.198C235.615 133.739 232.118 134.907 228.339 135.704C224.409 136.547 219.633 137.004 214.009 137.078C208.397 137.086 202.275 136.625 195.642 135.694L107.861 123.367C101.229 122.436 95.225 121.195 89.8507 119.643C84.5582 118.037 80.2149 116.299 76.8208 114.428C73.4267 112.557 70.5672 110.496 68.2424 108.245C65.7922 105.909 63.9919 103.698 62.8417 101.611C61.7042 99.4597 60.8749 97.1857 60.3539 94.789C59.902 92.402 59.71 90.317 59.7779 88.5342C59.8586 86.6867 60.0838 84.8263 60.4535 82.953L60.97 80.3368C61.3525 78.399 61.8541 76.5774 62.4747 74.8721C63.0953 73.1668 64.0779 71.2468 65.4224 69.1121C66.8359 66.987 68.4876 65.0946 70.3774 63.4348C72.2672 61.7749 74.7788 60.2024 77.9122 58.7172C81.0457 57.232 84.5708 56.1005 88.4877 55.3228C92.4865 54.4902 97.2569 54.0647 102.799 54.0463C108.479 54.0473 114.636 54.5135 121.269 55.4448ZM231.236 104.843C231.498 103.154 231.562 101.57 231.428 100.09C231.169 98.5269 230.536 96.8779 229.529 95.1433C228.397 93.3247 226.868 91.7159 224.943 90.317C223.018 88.9181 220.232 87.5643 216.585 86.2555C213.59 85.2376 210.137 84.3875 206.224 83.7053L118.547 71.3937C98.999 68.9807 88.1287 73.3295 85.9355 84.44L85.7251 85.5058C85.3044 87.6375 85.3582 89.703 85.8866 91.7024C86.4023 93.7664 87.4834 95.8435 89.1301 97.9335C90.8203 100.162 93.6989 102.127 97.7658 103.826C101.569 105.423 106.228 106.641 111.743 107.482L198.695 119.692C203.902 120.29 208.467 120.367 212.389 119.922C216.877 119.49 220.376 118.487 222.888 116.915C225.4 115.342 227.255 113.678 228.454 111.921C229.735 110.109 230.579 108.17 230.987 106.103L231.236 104.843Z" fill="#FD39C3"/>
<path d="M103.187 91.7003L176.713 42.3846C182.269 38.6582 187.571 35.577 192.621 33.141C197.653 30.7964 202.101 29.1208 205.965 28.1142C209.829 27.1077 213.496 26.5899 216.966 26.5608C220.437 26.5318 223.386 26.852 225.814 27.5216C228.283 28.2438 230.599 29.2263 232.764 30.4691C234.929 31.7119 236.685 32.9912 238.032 34.3069C239.379 35.6227 240.63 37.0424 241.785 38.5659L243.399 40.6936C244.554 42.2172 245.574 43.7921 246.458 45.4184C247.342 47.0447 248.056 49.0227 248.6 51.3523C249.224 53.7871 249.477 56.1932 249.359 58.5707C249.281 61.0007 248.663 63.7539 247.503 66.8301C246.326 69.9976 244.659 73.0966 242.505 76.1269C240.274 79.2874 237.132 82.7424 233.078 86.4918C228.984 90.1887 224.159 93.9003 218.604 97.6267L145.078 146.942C139.523 150.669 134.191 153.769 129.083 156.244C123.993 158.628 119.497 160.296 115.593 161.25C111.689 162.204 108.031 162.676 104.619 162.667C101.051 162.682 98.0524 162.355 95.6239 161.685C93.1556 160.963 90.8191 159.954 88.6145 158.659C86.4678 157.325 84.7409 156.026 83.4338 154.763C82.0868 153.447 80.8356 152.028 79.6803 150.504L78.0668 148.376C76.8716 146.8 75.852 145.225 75.0078 143.652C74.1636 142.078 73.4205 140.119 72.7785 137.776C72.1943 135.394 71.9611 133.014 72.079 130.636C72.1968 128.259 72.8355 125.532 73.995 122.456C75.1545 119.38 76.8695 116.287 79.1399 113.179C81.4283 109.98 84.5905 106.551 88.6264 102.893C92.7781 99.1576 97.6317 95.4266 103.187 91.7003ZM221.136 53.1289C220.043 51.8018 218.884 50.6768 217.66 49.7539C216.281 48.8561 214.563 48.1455 212.508 47.6221C210.297 47.1238 207.955 47.0298 205.484 47.34C203.013 47.6501 199.947 48.5574 196.286 50.0619C193.323 51.3358 190.152 53.0264 186.774 55.1339L113.335 104.391C97.2145 115.6 92.5804 125.723 99.4327 134.759L100.09 135.626C101.405 137.36 103.016 138.736 104.924 139.755C106.871 140.826 109.242 141.535 112.035 141.88C114.967 142.292 118.565 141.741 122.83 140.227C126.824 138.817 131.156 136.585 135.826 133.532L208.657 84.6821C212.918 81.6659 216.312 78.7157 218.839 75.8316C221.79 72.5844 223.584 69.5974 224.223 66.8705C224.862 64.1437 224.951 61.7855 224.49 59.7962C224.047 57.7155 223.188 55.8346 221.913 54.1534L221.136 53.1289Z" fill="#FD39C3"/>
<path d="M121.269 55.4448L209.05 67.7711C215.683 68.7024 221.652 69.9389 226.957 71.4805C232.18 73.077 236.496 74.7783 239.902 76.5844C243.309 78.3906 246.21 80.4243 248.604 82.6856C250.997 84.947 252.769 87.1211 253.92 89.2078C255.057 91.3591 255.893 93.6008 256.427 95.9329C256.96 98.265 257.187 100.355 257.106 102.202C257.026 104.05 256.8 105.91 256.431 107.783L255.914 110.4C255.544 112.273 255.043 114.094 254.409 115.864C253.776 117.634 252.759 119.549 251.358 121.61C249.932 123.799 248.274 125.724 246.384 127.384C244.481 129.108 241.963 130.713 238.83 132.198C235.615 133.739 232.118 134.907 228.339 135.704C224.409 136.547 219.633 137.004 214.009 137.078C208.397 137.086 202.275 136.625 195.642 135.694L107.861 123.367C101.229 122.436 95.225 121.195 89.8507 119.643C84.5582 118.037 80.2149 116.299 76.8208 114.428C73.4267 112.557 70.5672 110.496 68.2424 108.245C65.7922 105.909 63.9919 103.698 62.8417 101.611C61.7042 99.4597 60.8749 97.1857 60.3539 94.789C59.902 92.402 59.71 90.317 59.7779 88.5342C59.8586 86.6867 60.0838 84.8263 60.4535 82.953L60.97 80.3368C61.3525 78.399 61.8541 76.5774 62.4747 74.8721C63.0953 73.1668 64.0779 71.2468 65.4224 69.1121C66.8359 66.987 68.4876 65.0946 70.3774 63.4348C72.2672 61.7749 74.7788 60.2024 77.9122 58.7172C81.0457 57.232 84.5708 56.1005 88.4877 55.3228C92.4865 54.4902 97.2569 54.0647 102.799 54.0463C108.479 54.0473 114.636 54.5135 121.269 55.4448ZM231.236 104.843C231.498 103.154 231.562 101.57 231.428 100.09C231.169 98.5269 230.536 96.8779 229.529 95.1433C228.397 93.3247 226.868 91.7159 224.943 90.317C223.018 88.9181 220.232 87.5643 216.585 86.2555C213.59 85.2376 210.137 84.3875 206.224 83.7053L118.547 71.3937C98.999 68.9807 88.1287 73.3295 85.9355 84.44L85.7251 85.5058C85.3044 87.6375 85.3582 89.703 85.8866 91.7024C86.4023 93.7664 87.4834 95.8435 89.1301 97.9335C90.8203 100.162 93.6989 102.127 97.7658 103.826C101.569 105.423 106.228 106.641 111.743 107.482L198.695 119.692C203.902 120.29 208.467 120.367 212.389 119.922C216.877 119.49 220.376 118.487 222.888 116.915C225.4 115.342 227.255 113.678 228.454 111.921C229.735 110.109 230.579 108.17 230.987 106.103L231.236 104.843Z" stroke="black" stroke-width="52" mask="url(#path-1-outside-1_215_2425)"/>
<path d="M103.187 91.7003L176.713 42.3846C182.269 38.6582 187.571 35.577 192.621 33.141C197.653 30.7964 202.101 29.1208 205.965 28.1142C209.829 27.1077 213.496 26.5899 216.966 26.5608C220.437 26.5318 223.386 26.852 225.814 27.5216C228.283 28.2438 230.599 29.2263 232.764 30.4691C234.929 31.7119 236.685 32.9912 238.032 34.3069C239.379 35.6227 240.63 37.0424 241.785 38.5659L243.399 40.6936C244.554 42.2172 245.574 43.7921 246.458 45.4184C247.342 47.0447 248.056 49.0227 248.6 51.3523C249.224 53.7871 249.477 56.1932 249.359 58.5707C249.281 61.0007 248.663 63.7539 247.503 66.8301C246.326 69.9976 244.659 73.0966 242.505 76.1269C240.274 79.2874 237.132 82.7424 233.078 86.4918C228.984 90.1887 224.159 93.9003 218.604 97.6267L145.078 146.942C139.523 150.669 134.191 153.769 129.083 156.244C123.993 158.628 119.497 160.296 115.593 161.25C111.689 162.204 108.031 162.676 104.619 162.667C101.051 162.682 98.0524 162.355 95.6239 161.685C93.1556 160.963 90.8191 159.954 88.6145 158.659C86.4678 157.325 84.7409 156.026 83.4338 154.763C82.0868 153.447 80.8356 152.028 79.6803 150.504L78.0668 148.376C76.8716 146.8 75.852 145.225 75.0078 143.652C74.1636 142.078 73.4205 140.119 72.7785 137.776C72.1943 135.394 71.9611 133.014 72.079 130.636C72.1968 128.259 72.8355 125.532 73.995 122.456C75.1545 119.38 76.8695 116.287 79.1399 113.179C81.4283 109.98 84.5905 106.551 88.6264 102.893C92.7781 99.1576 97.6317 95.4266 103.187 91.7003ZM221.136 53.1289C220.043 51.8018 218.884 50.6768 217.66 49.7539C216.281 48.8561 214.563 48.1455 212.508 47.6221C210.297 47.1238 207.955 47.0298 205.484 47.34C203.013 47.6501 199.947 48.5574 196.286 50.0619C193.323 51.3358 190.152 53.0264 186.774 55.1339L113.335 104.391C97.2145 115.6 92.5804 125.723 99.4327 134.759L100.09 135.626C101.405 137.36 103.016 138.736 104.924 139.755C106.871 140.826 109.242 141.535 112.035 141.88C114.967 142.292 118.565 141.741 122.83 140.227C126.824 138.817 131.156 136.585 135.826 133.532L208.657 84.6821C212.918 81.6659 216.312 78.7157 218.839 75.8316C221.79 72.5844 223.584 69.5974 224.223 66.8705C224.862 64.1437 224.951 61.7855 224.49 59.7962C224.047 57.7155 223.188 55.8346 221.913 54.1534L221.136 53.1289Z" stroke="black" stroke-width="52" mask="url(#path-1-outside-1_215_2425)"/>
<mask id="path-2-outside-2_215_2425" maskUnits="userSpaceOnUse" x="-12.0096" y="50.3415" width="110.258" height="139.695" fill="black">
<rect fill="white" x="-12.0096" y="50.3415" width="110.258" height="139.695"/>
<path fill-rule="evenodd" clip-rule="evenodd" d="M52.3472 86.1896C52.1248 86.2745 51.9037 86.3599 51.684 86.4459C47.0875 88.3113 43.3313 90.2406 40.4154 92.234C37.6066 94.1397 35.1684 96.2792 33.1007 98.6525C31.0797 100.952 29.6095 103.158 28.69 105.272C27.7568 107.325 27.1132 109.535 26.7591 111.902C26.3777 114.148 26.2575 116.144 26.3985 117.891C26.5394 119.638 26.8081 121.388 27.2044 123.14L27.7579 125.588C28.1542 127.34 28.6646 129.035 29.289 130.673C29.9134 132.31 30.881 134.061 32.1917 135.924C33.5024 137.787 35.0275 139.475 36.7671 140.987C38.4929 142.439 40.7627 143.768 43.5763 144.974C46.3899 146.18 49.5349 147.025 53.0112 147.509C56.4874 147.994 60.6712 148.096 65.5626 147.815C65.798 147.798 66.0343 147.78 66.2716 147.761L62.5355 131.241C61.6709 131.109 60.8845 130.942 60.1762 130.739C58.0705 130.135 56.2122 129.221 54.6015 127.997C53.1253 126.807 51.9882 125.571 51.1904 124.29C50.5272 123.043 49.9877 121.64 49.5719 120.083L49.3054 118.904C48.8681 116.97 48.8372 115.008 49.2128 113.018C49.5417 111.101 50.4446 109.055 51.9217 106.878C52.8843 105.46 54.2823 104.119 56.1159 102.854L52.3472 86.1896Z"/>
</mask>
<path fill-rule="evenodd" clip-rule="evenodd" d="M52.3472 86.1896C52.1248 86.2745 51.9037 86.3599 51.684 86.4459C47.0875 88.3113 43.3313 90.2406 40.4154 92.234C37.6066 94.1397 35.1684 96.2792 33.1007 98.6525C31.0797 100.952 29.6095 103.158 28.69 105.272C27.7568 107.325 27.1132 109.535 26.7591 111.902C26.3777 114.148 26.2575 116.144 26.3985 117.891C26.5394 119.638 26.8081 121.388 27.2044 123.14L27.7579 125.588C28.1542 127.34 28.6646 129.035 29.289 130.673C29.9134 132.31 30.881 134.061 32.1917 135.924C33.5024 137.787 35.0275 139.475 36.7671 140.987C38.4929 142.439 40.7627 143.768 43.5763 144.974C46.3899 146.18 49.5349 147.025 53.0112 147.509C56.4874 147.994 60.6712 148.096 65.5626 147.815C65.798 147.798 66.0343 147.78 66.2716 147.761L62.5355 131.241C61.6709 131.109 60.8845 130.942 60.1762 130.739C58.0705 130.135 56.2122 129.221 54.6015 127.997C53.1253 126.807 51.9882 125.571 51.1904 124.29C50.5272 123.043 49.9877 121.64 49.5719 120.083L49.3054 118.904C48.8681 116.97 48.8372 115.008 49.2128 113.018C49.5417 111.101 50.4446 109.055 51.9217 106.878C52.8843 105.46 54.2823 104.119 56.1159 102.854L52.3472 86.1896Z" fill="#41F168"/>
<path d="M52.3472 86.1896L77.7068 80.4545L71.092 51.205L43.0754 61.899L52.3472 86.1896ZM51.684 86.4459L42.2054 62.2353L42.056 62.2938L41.9073 62.3541L51.684 86.4459ZM40.4154 92.234L55.013 113.749L55.0509 113.724L55.0887 113.698L40.4154 92.234ZM33.1007 98.6525L52.6291 115.818L52.6667 115.775L52.7041 115.732L33.1007 98.6525ZM28.69 105.272L52.3599 116.03L52.4473 115.837L52.5316 115.644L28.69 105.272ZM26.7591 111.902L52.3922 116.254L52.4351 116.002L52.473 115.748L26.7591 111.902ZM26.3985 117.891L0.482685 119.982L0.482694 119.982L26.3985 117.891ZM27.2044 123.14L52.564 117.405L27.2044 123.14ZM27.7579 125.588L2.3983 131.323L27.7579 125.588ZM29.289 130.673L4.99534 139.936L4.99538 139.937L29.289 130.673ZM32.1917 135.924L10.9258 150.883L10.9259 150.883L32.1917 135.924ZM36.7671 140.987L19.7085 160.609L19.8679 160.748L20.0295 160.883L36.7671 140.987ZM43.5763 144.974L33.3342 168.872L33.3342 168.872L43.5763 144.974ZM53.0112 147.509L56.5988 121.758L56.5988 121.758L53.0112 147.509ZM65.5626 147.815L67.0506 173.773L67.2375 173.762L67.4243 173.748L65.5626 147.815ZM66.2716 147.761L68.3542 173.678L98.246 171.276L91.6312 142.026L66.2716 147.761ZM62.5355 131.241L87.8951 125.506L83.9835 108.209L66.4524 105.538L62.5355 131.241ZM60.1762 130.739L53.0111 155.732L53.0111 155.732L60.1762 130.739ZM54.6015 127.997L38.2782 148.235L38.5719 148.472L38.8723 148.7L54.6015 127.997ZM51.1904 124.29L28.2334 136.496L28.6515 137.282L29.1225 138.038L51.1904 124.29ZM49.5719 120.083L24.2123 125.818L24.3226 126.305L24.4515 126.788L49.5719 120.083ZM49.3054 118.904L74.665 113.169L49.3054 118.904ZM49.2128 113.018L74.762 117.839L74.8019 117.627L74.8383 117.415L49.2128 113.018ZM51.9217 106.878L73.4344 121.48L73.4345 121.48L51.9217 106.878ZM56.1159 102.854L70.8763 124.259L85.355 114.274L81.4755 97.1194L56.1159 102.854ZM43.0754 61.899C42.7847 62.0099 42.4947 62.122 42.2054 62.2353L61.1626 110.657C61.3127 110.598 61.4648 110.539 61.619 110.48L43.0754 61.899ZM41.9073 62.3541C36.2225 64.6611 30.6681 67.4026 25.742 70.7703L55.0887 113.698C55.9945 113.079 57.9525 111.961 61.4607 110.538L41.9073 62.3541ZM25.8177 70.7187C21.3003 73.7837 17.1457 77.3855 13.4972 81.5731L52.7041 115.732C53.1912 115.173 53.9129 114.496 55.013 113.749L25.8177 70.7187ZM13.5722 81.4874C10.3169 85.1909 7.13148 89.6517 4.84837 94.8998L52.5316 115.644C52.4111 115.921 52.3058 116.125 52.234 116.254C52.1622 116.384 52.119 116.449 52.1189 116.449C52.1187 116.449 52.1555 116.394 52.2405 116.284C52.3255 116.175 52.4521 116.019 52.6291 115.818L13.5722 81.4874ZM5.02002 94.5139C3.02874 98.8952 1.7346 103.447 1.04522 108.056L52.473 115.748C52.4839 115.676 52.4882 115.678 52.4704 115.739C52.4522 115.802 52.4176 115.903 52.3599 116.03L5.02002 94.5139ZM1.12603 107.549C0.484903 111.325 0.125377 115.554 0.482685 119.982L52.3143 115.8C52.3544 116.298 52.3391 116.594 52.3359 116.647C52.3326 116.701 52.3372 116.578 52.3922 116.254L1.12603 107.549ZM0.482694 119.982C0.725048 122.986 1.18393 125.953 1.8448 128.875L52.564 117.405C52.4322 116.822 52.3538 116.29 52.3142 115.8L0.482694 119.982ZM1.8448 128.875L2.3983 131.323L53.1175 119.853L52.564 117.405L1.8448 128.875ZM2.3983 131.323C3.05917 134.245 3.92166 137.121 4.99534 139.936L53.5827 121.409C53.4075 120.95 53.2493 120.435 53.1175 119.853L2.3983 131.323ZM4.99538 139.937C6.57843 144.088 8.72238 147.75 10.9258 150.883L53.4575 120.965C53.2686 120.697 53.2115 120.588 53.238 120.635C53.2635 120.682 53.4047 120.942 53.5826 121.409L4.99538 139.937ZM10.9259 150.883C13.4597 154.485 16.4021 157.734 19.7085 160.609L53.8256 121.366C53.653 121.216 53.5451 121.09 53.4575 120.965L10.9259 150.883ZM20.0295 160.883C24.269 164.45 28.9493 166.992 33.3342 168.872L53.8184 121.076C53.5392 120.957 53.3255 120.856 53.1702 120.779C53.0146 120.701 52.9278 120.652 52.9002 120.636C52.8724 120.619 52.9152 120.643 53.0154 120.713C53.1156 120.782 53.2845 120.906 53.5046 121.091L20.0295 160.883ZM33.3342 168.872C38.5578 171.11 43.9844 172.503 49.4235 173.261L56.5988 121.758C55.0854 121.547 54.222 121.249 53.8184 121.076L33.3342 168.872ZM49.4235 173.261C55.0941 174.051 61.0753 174.115 67.0506 173.773L64.0747 121.858C60.2672 122.076 57.8807 121.937 56.5988 121.758L49.4235 173.261ZM67.4243 173.748C67.7339 173.726 68.0439 173.703 68.3542 173.678L64.1891 121.845C64.0247 121.858 63.862 121.87 63.701 121.882L67.4243 173.748ZM91.6312 142.026L87.8951 125.506L37.1759 136.976L40.912 153.496L91.6312 142.026ZM66.4524 105.538C66.4883 105.543 66.808 105.592 67.3414 105.745L53.0111 155.732C54.961 156.291 56.8535 156.675 58.6186 156.944L66.4524 105.538ZM67.3414 105.745C68.0736 105.955 69.1719 106.414 70.3307 107.295L38.8723 148.7C43.2526 152.028 48.0674 154.315 53.0111 155.732L67.3414 105.745ZM70.9248 107.76C71.1563 107.947 72.1804 108.812 73.2584 110.543L29.1225 138.038C31.796 142.33 35.0942 145.667 38.2782 148.235L70.9248 107.76ZM74.1475 112.085C74.5314 112.807 74.6684 113.288 74.6923 113.377L24.4515 126.788C25.3069 129.993 26.5229 133.279 28.2334 136.496L74.1475 112.085ZM74.9315 114.348L74.665 113.169L23.9458 124.639L24.2123 125.818L74.9315 114.348ZM74.665 113.169C75.0294 114.781 75.031 116.413 74.762 117.839L23.6637 108.197C22.6434 113.604 22.7067 119.16 23.9458 124.639L74.665 113.169ZM74.8383 117.415C74.5932 118.843 74.207 119.9 73.9239 120.541C73.7808 120.866 73.6557 121.103 73.5714 121.253C73.4871 121.402 73.4357 121.478 73.4344 121.48L30.409 92.277C27.543 96.4995 24.7234 102 23.5873 108.621L74.8383 117.415ZM73.4345 121.48C72.1351 123.394 70.9404 124.214 70.8763 124.259L41.3556 81.4504C37.6242 84.0236 33.6335 87.5262 30.4089 92.277L73.4345 121.48ZM81.4755 97.1194L77.7068 80.4545L26.9876 91.9246L30.7564 108.59L81.4755 97.1194Z" fill="black" mask="url(#path-2-outside-2_215_2425)"/>
<mask id="path-4-outside-3_215_2425" maskUnits="userSpaceOnUse" x="219.664" y="-1.15637" width="110.258" height="139.695" fill="black">
<rect fill="white" x="219.664" y="-1.15637" width="110.258" height="139.695"/>
<path fill-rule="evenodd" clip-rule="evenodd" d="M265.565 102.691C265.787 102.606 266.008 102.52 266.228 102.434C270.825 100.569 274.581 98.6395 277.497 96.6461C280.305 94.7404 282.744 92.6009 284.811 90.2276C286.832 87.9284 288.303 85.722 289.222 83.6083C290.155 81.5551 290.799 79.3451 291.153 76.9782C291.534 74.7321 291.655 72.7357 291.514 70.9889C291.373 69.2422 291.104 67.4925 290.708 65.74L290.154 63.2924C289.758 61.5399 289.248 59.8449 288.623 58.2075C287.999 56.57 287.031 54.8196 285.72 52.9562C284.41 51.0929 282.885 49.405 281.145 47.8927C279.419 46.4408 277.149 45.112 274.336 43.9061C271.522 42.7002 268.377 41.8551 264.901 41.3708C261.425 40.8865 257.241 40.7846 252.349 41.065C252.114 41.0818 251.878 41.0998 251.641 41.1189L255.377 57.6393C256.241 57.7711 257.028 57.9385 257.736 58.1415C259.842 58.7452 261.7 59.6589 263.311 60.8828C264.787 62.0735 265.924 63.3091 266.722 64.5897C267.385 65.8373 267.924 67.2398 268.34 68.7974L268.607 69.9758C269.044 71.9097 269.075 73.8719 268.699 75.8625C268.37 77.7791 267.467 79.8255 265.99 82.0017C265.028 83.4199 263.63 84.7612 261.796 86.0256L265.565 102.691Z"/>
</mask>
<path fill-rule="evenodd" clip-rule="evenodd" d="M265.565 102.691C265.787 102.606 266.008 102.52 266.228 102.434C270.825 100.569 274.581 98.6395 277.497 96.6461C280.305 94.7404 282.744 92.6009 284.811 90.2276C286.832 87.9284 288.303 85.722 289.222 83.6083C290.155 81.5551 290.799 79.3451 291.153 76.9782C291.534 74.7321 291.655 72.7357 291.514 70.9889C291.373 69.2422 291.104 67.4925 290.708 65.74L290.154 63.2924C289.758 61.5399 289.248 59.8449 288.623 58.2075C287.999 56.57 287.031 54.8196 285.72 52.9562C284.41 51.0929 282.885 49.405 281.145 47.8927C279.419 46.4408 277.149 45.112 274.336 43.9061C271.522 42.7002 268.377 41.8551 264.901 41.3708C261.425 40.8865 257.241 40.7846 252.349 41.065C252.114 41.0818 251.878 41.0998 251.641 41.1189L255.377 57.6393C256.241 57.7711 257.028 57.9385 257.736 58.1415C259.842 58.7452 261.7 59.6589 263.311 60.8828C264.787 62.0735 265.924 63.3091 266.722 64.5897C267.385 65.8373 267.924 67.2398 268.34 68.7974L268.607 69.9758C269.044 71.9097 269.075 73.8719 268.699 75.8625C268.37 77.7791 267.467 79.8255 265.99 82.0017C265.028 83.4199 263.63 84.7612 261.796 86.0256L265.565 102.691Z" fill="#41F168"/>
<path d="M265.565 102.691L240.205 108.426L246.82 137.675L274.837 126.981L265.565 102.691ZM266.228 102.434L275.707 126.645L275.856 126.586L276.005 126.526L266.228 102.434ZM277.497 96.6461L262.899 75.1308L262.861 75.1565L262.823 75.1824L277.497 96.6461ZM284.811 90.2276L265.283 73.0626L265.245 73.1053L265.208 73.1483L284.811 90.2276ZM289.222 83.6083L265.552 72.8504L265.465 73.0427L265.381 73.2364L289.222 83.6083ZM291.153 76.9782L265.52 72.6256L265.477 72.8783L265.439 73.1317L291.153 76.9782ZM291.514 70.9889L317.429 68.898L317.429 68.8979L291.514 70.9889ZM290.708 65.74L316.067 60.0049L316.067 60.0048L290.708 65.74ZM290.154 63.2924L264.795 69.0275L264.795 69.0275L290.154 63.2924ZM288.623 58.2075L312.917 48.9437L312.917 48.9435L288.623 58.2075ZM285.72 52.9562L306.986 37.9975L306.986 37.9975L285.72 52.9562ZM281.145 47.8927L298.204 28.2712L298.044 28.1326L297.883 27.9966L281.145 47.8927ZM274.336 43.9061L284.578 20.0084L284.578 20.0084L274.336 43.9061ZM264.901 41.3708L261.313 67.1221L261.313 67.1221L264.901 41.3708ZM252.349 41.065L250.862 15.1076L250.675 15.1183L250.488 15.1317L252.349 41.065ZM251.641 41.1189L249.558 15.2024L219.666 17.6044L226.281 46.854L251.641 41.1189ZM255.377 57.6393L230.017 63.3744L233.929 80.671L251.46 83.3426L255.377 57.6393ZM257.736 58.1415L264.901 33.1483L264.901 33.1483L257.736 58.1415ZM263.311 60.8828L279.634 40.6454L279.34 40.4085L279.04 40.1803L263.311 60.8828ZM266.722 64.5897L289.679 52.3842L289.261 51.5978L288.79 50.8419L266.722 64.5897ZM268.34 68.7974L293.7 63.0623L293.59 62.5748L293.461 62.0919L268.34 68.7974ZM268.699 75.8625L243.15 71.0416L243.11 71.2533L243.074 71.4656L268.699 75.8625ZM265.99 82.0017L244.478 67.4002L244.478 67.4003L265.99 82.0017ZM261.796 86.0256L247.036 64.6216L232.557 74.6062L236.437 91.7607L261.796 86.0256ZM274.837 126.981C275.127 126.87 275.417 126.758 275.707 126.645L256.75 78.2235C256.599 78.2823 256.447 78.3411 256.293 78.3999L274.837 126.981ZM276.005 126.526C281.69 124.219 287.244 121.477 292.17 118.11L262.823 75.1824C261.918 75.8015 259.96 76.9187 256.451 78.3424L276.005 126.526ZM292.094 118.161C296.612 115.096 300.766 111.495 304.415 107.307L265.208 73.1483C264.721 73.7073 263.999 74.3844 262.899 75.1308L292.094 118.161ZM304.34 107.393C307.595 103.689 310.781 99.2284 313.064 93.9803L265.381 73.2364C265.501 72.9593 265.606 72.7555 265.678 72.6257C265.75 72.496 265.793 72.4312 265.793 72.4311C265.793 72.4308 265.757 72.486 265.672 72.5957C265.587 72.7053 265.46 72.8612 265.283 73.0626L304.34 107.393ZM312.892 94.3663C314.883 89.985 316.178 85.4332 316.867 80.8246L265.439 73.1317C265.428 73.2041 265.424 73.2024 265.442 73.1411C265.46 73.0786 265.495 72.9772 265.552 72.8504L312.892 94.3663ZM316.786 81.3307C317.427 77.5549 317.787 73.3266 317.429 68.898L265.598 73.0799C265.558 72.5821 265.573 72.2861 265.576 72.2335C265.579 72.1789 265.575 72.3018 265.52 72.6256L316.786 81.3307ZM317.429 68.8979C317.187 65.8942 316.728 62.9271 316.067 60.0049L265.348 71.475C265.48 72.0579 265.558 72.5901 265.598 73.08L317.429 68.8979ZM316.067 60.0048L315.514 57.5573L264.795 69.0275L265.348 71.4751L316.067 60.0048ZM315.514 57.5574C314.853 54.6352 313.99 51.7593 312.917 48.9437L264.329 67.4713C264.505 67.9305 264.663 68.4446 264.795 69.0275L315.514 57.5574ZM312.917 48.9435C311.334 44.7922 309.19 41.13 306.986 37.9975L264.455 67.915C264.644 68.1836 264.701 68.2926 264.674 68.2447C264.649 68.1986 264.507 67.938 264.329 67.4714L312.917 48.9435ZM306.986 37.9975C304.452 34.3952 301.51 31.1456 298.204 28.2712L264.086 67.5143C264.259 67.6644 264.367 67.7905 264.455 67.915L306.986 37.9975ZM297.883 27.9966C293.643 24.4301 288.963 21.8877 284.578 20.0084L264.094 67.8038C264.373 67.9234 264.587 68.0239 264.742 68.1014C264.898 68.179 264.984 68.2283 265.012 68.2445C265.04 68.2608 264.997 68.2372 264.897 68.1674C264.797 68.0977 264.628 67.974 264.407 67.7888L297.883 27.9966ZM284.578 20.0084C279.354 17.7697 273.928 16.3773 268.489 15.6195L261.313 67.1221C262.827 67.333 263.69 67.6308 264.094 67.8038L284.578 20.0084ZM268.489 15.6195C262.818 14.8295 256.837 14.765 250.862 15.1076L253.837 67.0223C257.645 66.8041 260.031 66.9435 261.313 67.1221L268.489 15.6195ZM250.488 15.1317C250.178 15.1539 249.868 15.1775 249.558 15.2024L253.723 67.0354C253.887 67.0222 254.05 67.0098 254.211 66.9982L250.488 15.1317ZM226.281 46.854L230.017 63.3744L280.736 51.9042L277 35.3838L226.281 46.854ZM251.46 83.3426C251.424 83.3371 251.104 83.2876 250.571 83.1347L264.901 33.1483C262.951 32.5893 261.059 32.205 259.293 31.936L251.46 83.3426ZM250.571 83.1347C249.839 82.9248 248.74 82.4656 247.581 81.5852L279.04 40.1803C274.66 36.8522 269.845 34.5656 264.901 33.1483L250.571 83.1347ZM246.987 81.1201C246.756 80.9333 245.732 80.068 244.654 78.3376L288.79 50.8419C286.116 46.5503 282.818 43.2136 279.634 40.6454L246.987 81.1201ZM243.765 76.7952C243.381 76.0731 243.244 75.5925 243.22 75.5029L293.461 62.0919C292.605 58.8871 291.389 55.6014 289.679 52.3842L243.765 76.7952ZM242.981 74.5325L243.247 75.7109L293.966 64.2407L293.7 63.0623L242.981 74.5325ZM243.247 75.7109C242.883 74.0995 242.881 72.4676 243.15 71.0416L294.248 80.6835C295.269 75.2762 295.205 69.7198 293.966 64.2407L243.247 75.7109ZM243.074 71.4656C243.319 70.0367 243.705 68.9803 243.988 68.3387C244.131 68.0144 244.256 67.777 244.341 67.6274C244.425 67.4778 244.476 67.4021 244.478 67.4002L287.503 96.6032C290.369 92.3806 293.189 86.8806 294.325 80.2595L243.074 71.4656ZM244.478 67.4003C245.777 65.4858 246.972 64.6659 247.036 64.6216L276.556 107.43C280.288 104.857 284.279 101.354 287.503 96.6031L244.478 67.4003ZM236.437 91.7607L240.205 108.426L290.925 96.9555L287.156 80.2906L236.437 91.7607Z" fill="black" mask="url(#path-4-outside-3_215_2425)"/>
<path d="M121.269 55.4448L209.05 67.7711C215.683 68.7024 221.652 69.9389 226.957 71.4805C232.18 73.077 236.496 74.7783 239.902 76.5844C243.309 78.3906 246.21 80.4243 248.604 82.6856C250.997 84.947 252.769 87.1211 253.92 89.2078C255.057 91.3591 255.893 93.6008 256.427 95.9329C256.96 98.265 257.187 100.355 257.106 102.202C257.026 104.05 256.8 105.91 256.431 107.783L255.914 110.4C255.544 112.273 255.043 114.094 254.409 115.864C253.776 117.634 252.759 119.549 251.358 121.61C249.932 123.799 248.274 125.724 246.384 127.384C244.481 129.108 241.963 130.713 238.83 132.198C235.615 133.739 232.118 134.907 228.339 135.704C224.409 136.547 219.633 137.004 214.009 137.078C208.397 137.086 202.275 136.625 195.642 135.694L107.861 123.367C101.229 122.436 95.225 121.195 89.8507 119.643C84.5582 118.037 80.2149 116.299 76.8208 114.428C73.4267 112.557 70.5672 110.496 68.2424 108.245C65.7922 105.909 63.9919 103.698 62.8417 101.611C61.7042 99.4597 60.8749 97.1857 60.3539 94.789C59.902 92.402 59.71 90.317 59.7779 88.5342C59.8586 86.6867 60.0838 84.8263 60.4535 82.953L60.97 80.3368C61.3525 78.399 61.8541 76.5774 62.4747 74.8721C63.0953 73.1668 64.0779 71.2468 65.4224 69.1121C66.8359 66.987 68.4876 65.0946 70.3774 63.4348C72.2672 61.7749 74.7788 60.2024 77.9122 58.7172C81.0457 57.232 84.5708 56.1005 88.4877 55.3228C92.4865 54.4902 97.2569 54.0647 102.799 54.0463C108.479 54.0473 114.636 54.5135 121.269 55.4448ZM231.236 104.843C231.498 103.154 231.562 101.57 231.428 100.09C231.169 98.5269 230.536 96.8779 229.529 95.1433C228.397 93.3247 226.868 91.7159 224.943 90.317C223.018 88.9181 220.232 87.5643 216.585 86.2555C213.59 85.2376 210.137 84.3875 206.224 83.7053L118.547 71.3937C98.999 68.9807 88.1287 73.3295 85.9355 84.44L85.7251 85.5058C85.3044 87.6375 85.3582 89.703 85.8866 91.7024C86.4023 93.7664 87.4834 95.8435 89.1301 97.9335C90.8203 100.162 93.6989 102.127 97.7658 103.826C101.569 105.423 106.228 106.641 111.743 107.482L198.695 119.692C203.902 120.29 208.467 120.367 212.389 119.922C216.877 119.49 220.376 118.487 222.888 116.915C225.4 115.342 227.255 113.678 228.454 111.921C229.735 110.109 230.579 108.17 230.987 106.103L231.236 104.843Z" fill="#FD39C3"/>
<path d="M103.187 91.7003L176.713 42.3846C182.269 38.6582 187.571 35.577 192.621 33.141C197.653 30.7964 202.101 29.1208 205.965 28.1142C209.829 27.1077 213.496 26.5899 216.966 26.5608C220.437 26.5318 223.386 26.852 225.814 27.5216C228.283 28.2438 230.599 29.2263 232.764 30.4691C234.929 31.7119 236.685 32.9912 238.032 34.3069C239.379 35.6227 240.63 37.0424 241.785 38.5659L243.399 40.6936C244.554 42.2172 245.574 43.7921 246.458 45.4184C247.342 47.0447 248.056 49.0227 248.6 51.3523C249.224 53.7871 249.477 56.1932 249.359 58.5707C249.281 61.0007 248.663 63.7539 247.503 66.8301C246.326 69.9976 244.659 73.0966 242.505 76.1269C240.274 79.2874 237.132 82.7424 233.078 86.4918C228.984 90.1887 224.159 93.9003 218.604 97.6267L145.078 146.942C139.523 150.669 134.191 153.769 129.083 156.244C123.993 158.628 119.497 160.296 115.593 161.25C111.689 162.204 108.031 162.676 104.619 162.667C101.051 162.682 98.0524 162.355 95.6239 161.685C93.1556 160.963 90.8191 159.954 88.6145 158.659C86.4678 157.325 84.7409 156.026 83.4338 154.763C82.0868 153.447 80.8356 152.028 79.6803 150.504L78.0668 148.376C76.8716 146.8 75.852 145.225 75.0078 143.652C74.1636 142.078 73.4205 140.119 72.7785 137.776C72.1943 135.394 71.9611 133.014 72.079 130.636C72.1968 128.259 72.8355 125.532 73.995 122.456C75.1545 119.38 76.8695 116.287 79.1399 113.179C81.4283 109.98 84.5905 106.551 88.6264 102.893C92.7781 99.1576 97.6317 95.4266 103.187 91.7003ZM221.136 53.1289C220.043 51.8018 218.884 50.6768 217.66 49.7539C216.281 48.8561 214.563 48.1455 212.508 47.6221C210.297 47.1238 207.955 47.0298 205.484 47.34C203.013 47.6501 199.947 48.5574 196.286 50.0619C193.323 51.3358 190.152 53.0264 186.774 55.1339L113.335 104.391C97.2145 115.6 92.5804 125.723 99.4327 134.759L100.09 135.626C101.405 137.36 103.016 138.736 104.924 139.755C106.871 140.826 109.242 141.535 112.035 141.88C114.967 142.292 118.565 141.741 122.83 140.227C126.824 138.817 131.156 136.585 135.826 133.532L208.657 84.6821C212.918 81.6659 216.312 78.7157 218.839 75.8316C221.79 72.5844 223.584 69.5974 224.223 66.8705C224.862 64.1437 224.951 61.7855 224.49 59.7962C224.047 57.7155 223.188 55.8346 221.913 54.1534L221.136 53.1289Z" fill="#FD39C3"/>
<path fill-rule="evenodd" clip-rule="evenodd" d="M52.3472 86.1896C52.1248 86.2745 51.9037 86.3599 51.684 86.4459C47.0875 88.3113 43.3313 90.2406 40.4154 92.234C37.6066 94.1397 35.1684 96.2792 33.1007 98.6525C31.0797 100.952 29.6095 103.158 28.69 105.272C27.7568 107.325 27.1132 109.535 26.7591 111.902C26.3777 114.148 26.2575 116.144 26.3985 117.891C26.5394 119.638 26.8081 121.388 27.2044 123.14L27.7579 125.588C28.1542 127.34 28.6646 129.035 29.289 130.673C29.9134 132.31 30.881 134.061 32.1917 135.924C33.5024 137.787 35.0275 139.475 36.7671 140.987C38.4929 142.439 40.7627 143.768 43.5763 144.974C46.3899 146.18 49.5349 147.025 53.0112 147.509C56.4874 147.994 60.6712 148.096 65.5626 147.815C65.798 147.798 66.0343 147.78 66.2716 147.761L62.5355 131.241C61.6709 131.109 60.8845 130.942 60.1762 130.739C58.0705 130.135 56.2122 129.221 54.6015 127.997C53.1253 126.807 51.9882 125.571 51.1904 124.29C50.5272 123.043 49.9877 121.64 49.5719 120.083L49.3054 118.904C48.8681 116.97 48.8372 115.008 49.2128 113.018C49.5417 111.101 50.4446 109.055 51.9217 106.878C52.8843 105.46 54.2823 104.119 56.1159 102.854L52.3472 86.1896Z" fill="#41F168"/>
<path fill-rule="evenodd" clip-rule="evenodd" d="M265.565 102.691C265.787 102.606 266.008 102.52 266.228 102.434C270.825 100.569 274.581 98.6395 277.497 96.6461C280.305 94.7404 282.744 92.6009 284.811 90.2276C286.832 87.9284 288.303 85.722 289.222 83.6083C290.155 81.5551 290.799 79.3451 291.153 76.9782C291.534 74.7321 291.655 72.7357 291.514 70.9889C291.373 69.2422 291.104 67.4925 290.708 65.74L290.154 63.2924C289.758 61.5399 289.248 59.8449 288.623 58.2075C287.999 56.57 287.031 54.8196 285.72 52.9562C284.41 51.0929 282.885 49.405 281.145 47.8927C279.419 46.4408 277.149 45.112 274.336 43.9061C271.522 42.7002 268.377 41.8551 264.901 41.3708C261.425 40.8865 257.241 40.7846 252.349 41.065C252.114 41.0818 251.878 41.0998 251.641 41.1189L255.377 57.6393C256.241 57.7711 257.028 57.9385 257.736 58.1415C259.842 58.7452 261.7 59.6589 263.311 60.8828C264.787 62.0735 265.924 63.3091 266.722 64.5897C267.385 65.8373 267.924 67.2398 268.34 68.7974L268.607 69.9758C269.044 71.9097 269.075 73.8719 268.699 75.8625C268.37 77.7791 267.467 79.8255 265.99 82.0017C265.028 83.4199 263.63 84.7612 261.796 86.0256L265.565 102.691Z" fill="#41F168"/>
</svg>
