<svg width="124" height="20" viewBox="0 0 124 20" fill="none" xmlns="http://www.w3.org/2000/svg">
<path d="M105.694 0.191698L105.694 7.6819L108.823 9.3778L105.694 11.0939L105.694 18.5841L120.634 9.3778L105.694 0.191698Z" fill="#FF90F9"/>
<path d="M89.1363 0.191698L89.1363 7.6819L92.2657 9.3778L89.1363 11.0939L89.1363 18.5841L104.076 9.3778L89.1363 0.191698Z" fill="#FF90F9"/>
<path d="M72.5792 0.191698L72.5792 7.6819L75.7085 9.3778L72.5792 11.0939L72.5792 18.5841L87.5192 9.3778L72.5792 0.191698Z" fill="#FF90F9"/>
<path d="M56.0218 0.191698L56.0218 7.6819L59.1512 9.3778L56.0218 11.0939L56.0218 18.5841L70.9619 9.3778L56.0218 0.191698Z" fill="#FF90F9"/>
<path d="M39.4645 0.191698L39.4645 7.6819L42.5938 9.3778L39.4645 11.0939L39.4645 18.5841L54.4045 9.3778L39.4645 0.191698Z" fill="#FF90F9"/>
<path d="M22.9073 0.191698L22.9073 7.6819L26.0367 9.3778L22.9073 11.0939L22.9073 18.5841L37.8474 9.3778L22.9073 0.191698Z" fill="#FF90F9"/>
<path d="M6.34996 0.191698L6.34996 7.6819L9.47929 9.3778L6.34996 11.0939L6.34996 18.5841L21.29 9.3778L6.34996 0.191698Z" fill="#FF90F9"/>
</svg>
