<svg width="153" height="38" viewBox="0 0 153 38" fill="none" xmlns="http://www.w3.org/2000/svg">
<path d="M14.0637 2.70095C12.2822 2.67239 10.5139 2.99675 8.86928 3.65372C7.22473 4.31069 5.73934 5.28611 4.50615 6.51893C2.04193 8.94609 0.663086 12.1995 0.663086 15.5866C0.663086 18.9738 2.04193 22.2272 4.50615 24.6543C5.74819 25.8501 7.22373 26.7997 8.8485 27.4487C10.4733 28.0978 12.2156 28.4338 13.9758 28.4373C15.736 28.4408 17.4796 28.1119 19.1073 27.4694C20.7349 26.8269 22.2146 25.8833 23.4619 24.6925C24.7091 23.5017 25.6995 22.0871 26.3765 20.5293C27.0536 18.9716 27.4039 17.3012 27.4076 15.6136C27.4113 13.9261 27.0682 12.2543 26.3981 10.6938C25.7279 9.13337 24.7437 7.71474 23.5017 6.51893C22.287 5.29438 20.8219 4.32327 19.1979 3.66634C17.574 3.00939 15.8261 2.68075 14.0637 2.70095ZM14.0637 25.0361C12.1083 25.0246 10.1998 24.4613 8.57615 23.4165C6.95257 22.3717 5.68586 20.8917 4.93409 19.161C4.18231 17.4304 3.97875 15.5258 4.34881 13.685C4.71888 11.8441 5.64618 10.1485 7.015 8.80972C7.92062 7.89245 9.01423 7.16459 10.2272 6.67182C11.4402 6.17905 12.7464 5.93202 14.0637 5.94623C15.3775 5.954 16.6768 6.21102 17.8866 6.70248C19.0963 7.19393 20.1926 7.91012 21.1123 8.80972C22.4811 10.1485 23.4084 11.8441 23.7785 13.685C24.1485 15.5258 23.945 17.4304 23.1932 19.161C22.4414 20.8917 21.1747 22.3717 19.5512 23.4165C17.9276 24.4613 16.019 25.0246 14.0637 25.0361Z" fill="#FF8945"/>
<path d="M40.2274 9.68746C38.8829 9.66734 37.5547 9.97147 36.3648 10.5719C35.1749 11.1723 34.1615 12.0498 33.4176 13.1237V10.1074H30.1123V34.9243H33.4574V25.0357C34.2112 26.0922 35.2298 26.9501 36.4197 27.5305C37.6097 28.111 38.9327 28.3953 40.2672 28.3574C41.5085 28.3636 42.7389 28.134 43.8872 27.6819C45.0355 27.2297 46.079 26.564 46.9574 25.723C48.6971 23.8943 49.6751 21.5164 49.7051 19.0415C49.698 16.5624 48.7169 14.1768 46.9574 12.36C46.0736 11.5128 45.0244 10.8406 43.8697 10.382C42.7149 9.92346 41.4772 9.68744 40.2274 9.68746ZM39.8689 12.78C40.729 12.7706 41.5822 12.9281 42.3772 13.2428C43.1721 13.5576 43.8926 14.0231 44.4951 14.6115C45.0977 15.2 45.57 15.8991 45.8837 16.6669C46.1973 17.4347 46.3458 18.2555 46.3202 19.0797C46.3202 20.7251 45.6384 22.3032 44.4249 23.4667C43.2113 24.6303 41.5653 25.2839 39.849 25.2839C38.1328 25.2839 36.4867 24.6303 35.2732 23.4667C34.0596 22.3032 33.3778 20.7251 33.3778 19.0797C33.3521 18.2522 33.5017 17.4283 33.8178 16.6578C34.1339 15.8874 34.6098 15.1865 35.2167 14.5975C35.8235 14.0086 36.5487 13.5439 37.3484 13.2314C38.1481 12.919 39.0056 12.7654 39.8689 12.78Z" fill="#FF8945"/>
<path d="M57.4306 5.21924L54.0855 6.17373V10.1063H50.5015V13.1988H54.0855V22.7438C54.0855 24.6527 54.5634 26.0654 55.6386 26.9817C56.8608 27.7986 58.3321 28.2016 59.82 28.1271C60.6209 28.102 61.4191 28.0255 62.2094 27.898H62.3288V25.0345H61.851C59.9394 25.1491 58.6253 25.2636 58.028 24.5764C57.5501 24.2327 57.4306 23.6219 57.4306 22.7438V13.1988H62.3288V10.1063H57.4306V5.21924Z" fill="#FF8945"/>
<path d="M69.3777 10.1445H65.9131V28.0127H69.3777V10.1445Z" fill="#FF8945"/>
<path d="M67.7049 2.81396C67.1029 2.81396 66.5256 3.04324 66.0999 3.45137C65.6742 3.85949 65.4351 4.41303 65.4351 4.99021C65.4374 5.27007 65.4986 5.5466 65.6151 5.80326C65.7315 6.05991 65.9008 6.29139 66.1127 6.48388C66.3246 6.67635 66.5749 6.82587 66.8485 6.92348C67.122 7.02108 67.4134 7.06477 67.7049 7.05192C67.9878 7.05319 68.2679 7.00071 68.5295 6.89755C68.791 6.79439 69.0285 6.64258 69.2285 6.45088C69.4284 6.25918 69.5868 6.03139 69.6944 5.78069C69.802 5.52998 69.8568 5.26131 69.8554 4.99021C69.8612 4.43097 69.6401 3.89145 69.2389 3.48545C68.8378 3.07944 68.2878 2.83868 67.7049 2.81396Z" fill="#FF8945"/>
<path d="M81.2053 24.462L75.4708 10.1445H71.8867L79.2938 27.8981H83.1167L90.5238 10.2591V10.1445H86.9398L81.2053 24.462Z" fill="#FF8945"/>
<path d="M100.559 9.68647C99.2657 9.65031 97.979 9.86913 96.778 10.3293C95.5761 10.7895 94.4865 11.4813 93.5756 12.3618C92.6646 13.2424 91.9518 14.2929 91.4813 15.4483C91.0117 16.6037 90.7941 17.8393 90.8419 19.0787C90.818 20.3111 91.048 21.5359 91.5194 22.6826C91.9916 23.8293 92.6947 24.8752 93.5897 25.7601C94.5431 26.6322 95.668 27.3142 96.8982 27.7664C98.1284 28.2186 99.4409 28.4322 100.758 28.3946C102.358 28.456 103.947 28.1191 105.371 27.4165C106.795 26.714 108.004 25.6697 108.882 24.3857L106.134 22.8966V22.7821L106.015 22.8966C105.443 23.7074 104.661 24.3622 103.748 24.7971C102.833 25.2321 101.817 25.4324 100.798 25.3783C99.2905 25.4581 97.8021 25.0222 96.5993 24.1482C95.3956 23.2741 94.5546 22.0188 94.2274 20.6059H109.639V20.4914C109.738 20.0397 109.778 19.578 109.758 19.1168C109.825 16.7128 108.927 14.3757 107.249 12.5882C106.419 11.6702 105.39 10.9355 104.235 10.4346C103.081 9.93375 101.826 9.67852 100.559 9.68647ZM100.559 12.779C102.005 12.7336 103.414 13.2174 104.501 14.1321C105.588 15.0469 106.272 16.324 106.413 17.7042H94.2274C94.4458 16.2717 95.2188 14.9705 96.3915 14.0583C97.5642 13.146 99.0517 12.6895 100.559 12.779Z" fill="#FF8945"/>
<path d="M121.824 9.916C120.673 9.83569 119.524 10.0872 118.523 10.6383C117.522 11.1895 116.717 12.0149 116.209 13.0086V10.1451H112.864V27.8987H116.209V18.5064C116.16 17.7805 116.26 17.0522 116.506 16.364C116.752 15.6757 117.139 15.0414 117.643 14.4975C118.214 14.0257 118.879 13.6706 119.598 13.4539C120.317 13.2373 121.075 13.1637 121.824 13.2376H121.943V9.916H121.824Z" fill="#FF8945"/>
<path d="M152.169 26.8682L140.621 3.15854C140.579 3.01221 140.483 2.88529 140.351 2.80112C140.22 2.71694 140.061 2.68117 139.904 2.70038H137.754C137.596 2.68117 137.437 2.71694 137.306 2.80112C137.175 2.88529 137.079 3.01221 137.037 3.15854L127.001 26.8682C126.947 26.981 126.924 27.1054 126.933 27.2295C126.943 27.3535 126.986 27.4731 127.058 27.5766C127.13 27.6802 127.229 27.7642 127.344 27.8206C127.46 27.8771 127.589 27.9041 127.719 27.899H151.493C152.05 27.899 152.567 27.2882 152.169 26.8682ZM137.953 13.1235L142.93 23.2029C142.985 23.3228 143.009 23.4532 143 23.5836C142.991 23.7139 142.95 23.8404 142.88 23.9524C142.809 24.0644 142.713 24.1588 142.597 24.2277C142.481 24.2965 142.35 24.3379 142.214 24.3483H133.054C132.915 24.3394 132.779 24.3005 132.657 24.2346C132.535 24.1688 132.431 24.0775 132.35 23.9676C132.27 23.8577 132.217 23.732 132.194 23.5997C132.171 23.4673 132.18 23.3318 132.218 23.2029L136.519 13.1235C136.585 12.9944 136.686 12.8855 136.813 12.8093C136.939 12.7331 137.086 12.6927 137.236 12.6927C137.386 12.6927 137.532 12.7331 137.659 12.8093C137.786 12.8855 137.887 12.9944 137.953 13.1235Z" fill="#FF8945"/>
</svg>
