<svg width="167" height="35" viewBox="0 0 167 35" fill="none" xmlns="http://www.w3.org/2000/svg">
<mask id="mask0_502_153" style="mask-type:luminance" maskUnits="userSpaceOnUse" x="0" y="1" width="166" height="33">
<path d="M165.205 1.66455H0V33.8712H165.205V1.66455Z" fill="white"/>
</mask>
<g mask="url(#mask0_502_153)">
<path d="M116.339 26.0595H113.656L108.508 14.0474H111.239L115.01 23.0619L118.781 14.0474H121.512L116.339 26.0595Z" fill="#FF8945"/>
<path d="M44.2373 23.9542C40.9741 23.9542 38.4117 21.3676 38.4117 17.9605C38.4117 14.5534 40.9741 11.9667 44.2373 11.9667C46.3267 11.9667 48.1032 12.8866 49.0708 14.7365L51.0766 13.0135C49.985 11.341 48.2763 10.1918 46.2373 9.74051C40.5645 8.48466 35.2061 13.1807 35.8565 18.9539C36.3352 23.2045 39.858 26.3953 44.2373 26.3953C47.1631 26.3953 49.6894 25.1034 51.1156 22.7936L49.0953 21.1369C48.1335 23.017 46.3455 23.9542 44.2373 23.9542Z" fill="#FF8945"/>
<path d="M58.7166 13.8052C55.1635 13.8052 52.2637 16.3428 52.2637 20.0642C52.2637 23.7856 55.1635 26.3478 58.7166 26.3478C62.2696 26.3478 65.1219 23.7856 65.1219 20.0642C65.1219 16.3428 62.2451 13.8052 58.7166 13.8052ZM58.7166 24.1735C56.6141 24.1735 54.728 22.5543 54.728 20.0642C54.728 17.5742 56.6127 15.955 58.7166 15.955C60.8204 15.955 62.6806 17.5742 62.6806 20.0642C62.6806 22.5543 60.7714 24.1735 58.7166 24.1735Z" fill="#FF8945"/>
<path d="M81.6796 13.7325C79.7099 13.7325 78.1944 14.5673 77.2268 15.9054C77.2181 15.9183 77.1994 15.9169 77.1922 15.9039C76.4149 14.5197 74.9239 13.7325 73.2195 13.7325C71.5151 13.7325 70.2822 14.3438 69.4127 15.3791C69.3997 15.3949 69.3752 15.3863 69.3752 15.3661V14.0915C69.3752 14.08 69.3651 14.0699 69.3535 14.0699H66.882C66.8704 14.0699 66.8604 14.08 66.8604 14.0915V26.0358C66.8604 26.0473 66.8704 26.0574 66.882 26.0574H69.3535C69.3651 26.0574 69.3752 26.0473 69.3752 26.0358V20.1112C69.3752 17.4279 70.6326 16.051 72.5663 16.051C74.1135 16.051 75.2729 17.1626 75.2729 18.9275V26.0358C75.2729 26.0473 75.283 26.0574 75.2945 26.0574H77.7661C77.7776 26.0574 77.7877 26.0473 77.7877 26.0358V20.1112C77.7877 17.4279 79.0682 16.051 81.0264 16.051C82.5737 16.051 83.733 17.1626 83.733 18.9275V26.0358C83.733 26.0473 83.7431 26.0574 83.7547 26.0574H86.2017C86.2132 26.0574 86.2233 26.0473 86.2233 26.0358V18.4199C86.2233 15.5925 84.1685 13.731 81.6796 13.731V13.7325Z" fill="#FF8945"/>
<path d="M103.483 13.7325C101.514 13.7325 99.9981 14.5673 99.0305 15.9054C99.0218 15.9183 99.0031 15.9169 98.9959 15.9039C98.2187 14.5197 96.7276 13.7325 95.0232 13.7325C93.3188 13.7325 92.0859 14.3438 91.2164 15.3791C91.2034 15.3949 91.1789 15.3863 91.1789 15.3661V14.0915C91.1789 14.08 91.1688 14.0699 91.1573 14.0699H88.6857C88.6742 14.0699 88.6641 14.08 88.6641 14.0915V26.0358C88.6641 26.0473 88.6742 26.0574 88.6857 26.0574H91.1573C91.1688 26.0574 91.1789 26.0473 91.1789 26.0358V20.1112C91.1789 17.4279 92.4363 16.051 94.37 16.051C95.9173 16.051 97.0766 17.1626 97.0766 18.9275V26.0358C97.0766 26.0473 97.0867 26.0574 97.0982 26.0574H99.5698C99.5813 26.0574 99.5914 26.0473 99.5914 26.0358V20.1112C99.5914 17.4279 100.872 16.051 102.83 16.051C104.377 16.051 105.537 17.1626 105.537 18.9275V26.0358C105.537 26.0473 105.547 26.0574 105.558 26.0574H108.005C108.017 26.0574 108.027 26.0473 108.027 26.0358V18.4199C108.027 15.5925 105.972 13.731 103.483 13.731V13.7325Z" fill="#FF8945"/>
<path d="M134.023 14.0722H131.551C131.54 14.0722 131.53 14.0823 131.53 14.0939V15.3987C131.53 15.4175 131.507 15.4261 131.494 15.4132C130.455 14.3476 128.972 13.7349 127.179 13.7349C124.037 13.7349 121.232 16.297 121.232 20.0675C121.232 23.8379 124.036 26.4001 127.179 26.4001C128.972 26.4001 130.457 25.7858 131.494 24.7217C131.507 24.7088 131.53 24.7174 131.53 24.7362V26.041C131.53 26.0526 131.54 26.0627 131.551 26.0627H134.023C134.034 26.0627 134.044 26.0526 134.044 26.041V14.0968C134.044 14.0852 134.034 14.0751 134.023 14.0751V14.0722ZM127.59 24.1753C125.391 24.1753 123.674 22.6037 123.674 20.066C123.674 17.5284 125.39 15.9567 127.59 15.9567C129.571 15.9567 131.53 17.5514 131.53 20.066C131.53 22.5806 129.571 24.1753 127.59 24.1753Z" fill="#FF8945"/>
<path d="M147.873 14.0708H145.403C145.392 14.0708 145.382 14.0809 145.382 14.0924V19.606C145.382 22.6267 143.98 24.0772 141.829 24.0772C140.088 24.0772 138.952 22.7478 138.952 20.7898V14.0924C138.952 14.0809 138.942 14.0708 138.93 14.0708H136.46C136.449 14.0708 136.438 14.0809 136.438 14.0924V21.2973C136.438 24.318 138.348 26.3972 141.249 26.3972C142.991 26.3972 144.379 25.7613 145.346 24.628C145.359 24.6136 145.382 24.6208 145.382 24.641V26.0367C145.382 26.0482 145.392 26.0583 145.403 26.0583H147.873C147.885 26.0583 147.895 26.0482 147.895 26.0367V14.0924C147.895 14.0809 147.885 14.0708 147.873 14.0708Z" fill="#FF8945"/>
<path d="M155.993 23.676C155.516 23.888 154.971 24.0278 154.566 24.0278C153.647 24.0278 153.018 23.4482 153.018 22.6264V8.46743C153.018 8.45589 153.008 8.4458 152.997 8.4458H150.527C150.515 8.4458 150.505 8.45589 150.505 8.46743V22.7244C150.505 24.756 152.157 26.4156 154.189 26.3954C155.233 26.3853 155.872 26.1041 156.485 25.7754C156.493 25.771 156.498 25.761 156.496 25.7509L156.022 23.689C156.019 23.676 156.005 23.6688 155.993 23.6746V23.676Z" fill="#FF8945"/>
<path d="M164.447 23.3998C164.443 23.3868 164.427 23.3824 164.417 23.3897C163.793 23.7919 163.03 24.0284 162.408 24.0284C161.224 24.0284 160.427 23.3031 160.427 21.8051V16.1718C160.427 16.1602 160.437 16.1501 160.449 16.1501H164.515C164.527 16.1501 164.537 16.14 164.537 16.1285V14.0926C164.537 14.0811 164.527 14.071 164.515 14.071H160.449C160.437 14.071 160.427 14.0609 160.427 14.0494V10.3698C160.427 10.3582 160.417 10.3481 160.405 10.3481H157.934C157.922 10.3481 157.912 10.3582 157.912 10.3698V14.0494C157.912 14.0609 157.902 14.071 157.89 14.071H155.347C155.335 14.071 155.325 14.0811 155.325 14.0926V16.1285C155.325 16.14 155.335 16.1501 155.347 16.1501H157.89C157.902 16.1501 157.912 16.1602 157.912 16.1718V21.9752C157.912 24.9483 159.653 26.3974 162.238 26.3974C163.249 26.3974 164.068 26.158 165.196 25.489C165.204 25.4832 165.209 25.4717 165.206 25.463L164.447 23.4012V23.3998Z" fill="#FF8945"/>
<path d="M14.2209 1.66455L0 9.87011V25.6583L14.2209 33.8711L28.4417 25.6583V9.87011L14.2209 1.66455ZM25.9817 24.2381L14.2209 31.0292L2.4658 24.2381V11.2903L14.2209 4.50499L25.9817 11.2961V24.2367V24.2381Z" fill="#FF8945"/>
<path d="M13.4018 18.2431L4.65039 13.188V22.9724L13.4018 28.0275V18.2431Z" fill="#FF8945"/>
<path d="M22.7067 23.6058L15.0498 19.188V28.0265L22.7067 23.6058Z" fill="#FF8945"/>
<path d="M22.7043 11.9264L14.2239 7.03564L5.74219 11.9264L14.2239 16.8215L22.7043 11.9264Z" fill="#FF8945"/>
</g>
<path d="M167 9.84096C167 10.782 166.261 11.5152 165.303 11.5152C164.344 11.5152 163.594 10.7762 163.594 9.84096C163.594 8.90572 164.35 8.18408 165.303 8.18408C166.255 8.18408 167 8.92304 167 9.84096ZM164.021 9.84096C164.021 10.5799 164.564 11.163 165.314 11.163C166.065 11.163 166.578 10.5799 166.578 9.85251C166.578 9.1251 166.042 8.51892 165.308 8.51892C164.575 8.51892 164.027 9.11355 164.027 9.84096H164.021ZM165.043 10.7069H164.662V9.05005C164.812 9.02118 165.025 8.99809 165.297 8.99809C165.609 8.99809 165.753 9.05005 165.874 9.11932C165.967 9.1886 166.036 9.32138 166.036 9.48303C166.036 9.662 165.897 9.80632 165.695 9.86405V9.88715C165.857 9.94488 165.949 10.0661 165.995 10.2913C166.047 10.5453 166.076 10.6434 166.117 10.7069H165.701C165.649 10.6492 165.62 10.4933 165.568 10.3028C165.539 10.1238 165.435 10.043 165.228 10.043H165.049V10.7069H165.043ZM165.054 9.76591H165.233C165.447 9.76591 165.614 9.69663 165.614 9.52344C165.614 9.37334 165.505 9.26942 165.262 9.26942C165.164 9.26942 165.089 9.28097 165.049 9.29252V9.76591H165.054Z" fill="white"/>
</svg>
