<svg width="244" height="48" viewBox="0 0 244 48" fill="none" xmlns="http://www.w3.org/2000/svg">
<g clip-path="url(#clip0_502_209)">
<path d="M72.4146 27.7389C72.4146 25.6735 72.8195 23.8663 73.6296 22.3173C74.4641 20.7437 75.6058 19.5389 77.0541 18.703C78.5267 17.8424 80.1838 17.4121 82.0249 17.4121C83.9396 17.4121 85.5842 17.8547 86.9588 18.7398C88.3581 19.625 89.3643 20.756 89.9781 22.1329V17.7072H92.5556V37.8444H89.9781V33.3818C89.3399 34.7586 88.3212 35.9019 86.922 36.8116C85.5474 37.6968 83.9027 38.1393 81.988 38.1393C80.1714 38.1393 78.5267 37.7091 77.0541 36.8485C75.6058 35.9879 74.4641 34.7709 73.6296 33.1973C72.8195 31.6237 72.4146 29.8041 72.4146 27.7389ZM89.9781 27.7758C89.9781 26.1529 89.6468 24.727 88.984 23.4975C88.3212 22.2681 87.413 21.3215 86.2592 20.6577C85.13 19.9938 83.8781 19.6619 82.5035 19.6619C81.0798 19.6619 79.8033 19.9815 78.6741 20.6208C77.5449 21.2601 76.6489 22.1944 75.9861 23.4238C75.3479 24.6285 75.0289 26.0669 75.0289 27.7389C75.0289 29.3863 75.3479 30.837 75.9861 32.0909C76.6489 33.3202 77.5449 34.2668 78.6741 34.9307C79.8033 35.5701 81.0798 35.8897 82.5035 35.8897C83.8781 35.8897 85.13 35.5576 86.2592 34.8938C87.413 34.2299 88.3212 33.2833 88.984 32.054C89.6468 30.8245 89.9781 29.3985 89.9781 27.7758Z" fill="#FF8945"/>
<path d="M106.504 17.4121C108.394 17.4121 110.039 17.8547 111.438 18.7398C112.837 19.625 113.843 20.7437 114.457 22.096V17.7072H117.035V38.3607C117.035 40.2048 116.629 41.8399 115.82 43.2659C115.034 44.6921 113.929 45.786 112.506 46.5483C111.082 47.3351 109.462 47.7285 107.645 47.7285C105.068 47.7285 102.92 47.1138 101.202 45.8845C99.5076 44.6552 98.4521 42.9832 98.035 40.8686H100.576C101.017 42.2702 101.852 43.3888 103.079 44.2249C104.331 45.0608 105.853 45.4789 107.645 45.4789C108.946 45.4789 110.112 45.1959 111.143 44.6305C112.174 44.0895 112.984 43.2781 113.573 42.1964C114.162 41.1144 114.457 39.836 114.457 38.3607V33.3818C113.819 34.7586 112.8 35.9019 111.401 36.8116C110.026 37.6968 108.394 38.1393 106.504 38.1393C104.663 38.1393 103.006 37.7091 101.533 36.8485C100.085 35.9879 98.9432 34.7709 98.1086 33.1973C97.2985 31.6237 96.8936 29.8041 96.8936 27.7389C96.8936 25.6735 97.2985 23.8663 98.1086 22.3173C98.9432 20.7437 100.085 19.5389 101.533 18.703C103.006 17.8424 104.663 17.4121 106.504 17.4121ZM114.457 27.7758C114.457 26.1529 114.126 24.727 113.463 23.4975C112.8 22.2681 111.892 21.3215 110.738 20.6577C109.609 19.9938 108.357 19.6619 106.982 19.6619C105.559 19.6619 104.282 19.9815 103.153 20.6208C102.024 21.2601 101.128 22.1944 100.465 23.4238C99.8269 24.6285 99.5076 26.0669 99.5076 27.7389C99.5076 29.3863 99.8269 30.837 100.465 32.0909C101.128 33.3202 102.024 34.2668 103.153 34.9307C104.282 35.5701 105.559 35.8897 106.982 35.8897C108.357 35.8897 109.609 35.5576 110.738 34.8938C111.892 34.2299 112.8 33.2833 113.463 32.054C114.126 30.8245 114.457 29.3985 114.457 27.7758Z" fill="#FF8945"/>
<path d="M140.74 26.743C140.74 27.6283 140.715 28.3044 140.666 28.7715H123.986C124.06 30.296 124.428 31.5991 125.091 32.681C125.754 33.7627 126.625 34.5866 127.705 35.152C128.785 35.693 129.964 35.9635 131.24 35.9635C132.909 35.9635 134.309 35.5576 135.438 34.7464C136.591 33.935 137.352 32.8408 137.721 31.4639H140.445C139.954 33.4309 138.899 35.0413 137.279 36.2953C135.683 37.5248 133.67 38.1393 131.24 38.1393C129.35 38.1393 127.656 37.7215 126.159 36.8854C124.661 36.0248 123.483 34.82 122.624 33.2711C121.789 31.6975 121.372 29.8657 121.372 27.7758C121.372 25.6858 121.789 23.854 122.624 22.2804C123.459 20.7068 124.625 19.5021 126.122 18.6661C127.619 17.8301 129.325 17.4121 131.24 17.4121C133.155 17.4121 134.824 17.8301 136.248 18.6661C137.696 19.5021 138.801 20.6331 139.562 22.0592C140.347 23.4606 140.74 25.0219 140.74 26.743ZM138.126 26.6692C138.15 25.1695 137.843 23.8909 137.205 22.8337C136.591 21.7764 135.745 20.9773 134.664 20.4364C133.584 19.8954 132.406 19.625 131.13 19.625C129.215 19.625 127.583 20.2397 126.232 21.4691C124.882 22.6984 124.134 24.4318 123.986 26.6692H138.126Z" fill="#FF8945"/>
<path d="M154.145 17.3379C156.551 17.3379 158.514 18.0878 160.036 19.5877C161.558 21.0629 162.319 23.2143 162.319 26.0418V37.844H159.778V26.337C159.778 24.1486 159.226 22.4767 158.122 21.3211C157.041 20.1655 155.556 19.5877 153.666 19.5877C151.727 19.5877 150.181 20.2024 149.027 21.4317C147.873 22.6611 147.296 24.4682 147.296 26.8533V37.844H144.719V17.7067H147.296V21.1367C147.934 19.9073 148.855 18.973 150.058 18.3337C151.261 17.6698 152.623 17.3379 154.145 17.3379Z" fill="#FF8945"/>
<path d="M171.002 19.883V32.3857C171.002 33.6152 171.236 34.4634 171.702 34.9305C172.168 35.3977 172.991 35.6313 174.169 35.6313H176.526V37.8443H173.764C171.947 37.8443 170.597 37.4262 169.714 36.5903C168.83 35.7298 168.388 34.3282 168.388 32.3857V19.883H165.59V17.707H168.388V12.6543H171.002V17.707H176.526V19.883H171.002Z" fill="#FF8945"/>
<path d="M198.561 17.707V37.8443H195.983V34.3036C195.394 35.5575 194.486 36.5165 193.259 37.1804C192.031 37.8443 190.657 38.1761 189.135 38.1761C186.729 38.1761 184.765 37.4384 183.243 35.9634C181.722 34.4633 180.96 32.2997 180.96 29.4722V17.707H183.501V29.177C183.501 31.3653 184.041 33.0374 185.121 34.1929C186.226 35.3486 187.723 35.9265 189.613 35.9265C191.553 35.9265 193.099 35.3117 194.253 34.0824C195.407 32.8529 195.983 31.0457 195.983 28.6607V17.707H198.561Z" fill="#FF8945"/>
<path d="M204.997 13.9081C204.482 13.9081 204.04 13.7237 203.672 13.3549C203.304 12.9861 203.12 12.5312 203.12 11.9903C203.12 11.4494 203.304 11.0068 203.672 10.6626C204.04 10.2938 204.482 10.1094 204.997 10.1094C205.513 10.1094 205.955 10.2938 206.323 10.6626C206.691 11.0068 206.875 11.4494 206.875 11.9903C206.875 12.5312 206.691 12.9861 206.323 13.3549C205.955 13.7237 205.513 13.9081 204.997 13.9081ZM206.286 17.7069V37.8442H203.709V17.7069H206.286Z" fill="#FF8945"/>
<path d="M216.21 19.883V32.3857C216.21 33.6152 216.443 34.4634 216.91 34.9305C217.376 35.3977 218.199 35.6313 219.377 35.6313H221.733V37.8443H218.972C217.155 37.8443 215.805 37.4262 214.921 36.5903C214.038 35.7298 213.596 34.3282 213.596 32.3857V19.883H210.797V17.707H213.596V12.6543H216.21V17.707H221.733V19.883H216.21Z" fill="#FF8945"/>
<path d="M244 17.707L232.07 47.3228H229.382L233.285 37.7336L225.037 17.707H227.872L234.721 34.8936L241.349 17.707H244Z" fill="#FF8945"/>
<path fill-rule="evenodd" clip-rule="evenodd" d="M54.004 47.7282H0L7.71448 34.328H0L1.96378 30.8857H44.3078L54.004 47.7282ZM11.6815 34.328L5.94877 44.2859H48.0553L42.3225 34.328H11.6815Z" fill="#FF8945"/>
<path fill-rule="evenodd" clip-rule="evenodd" d="M27.0023 0.766113L38.6495 21.0508H46.3944L48.3584 24.4931H13.3784L27.0023 0.766113ZM19.3194 21.0508L27.0023 7.67058L34.685 21.0508H19.3194Z" fill="#FF8945"/>
</g>
<defs>
<clipPath id="clip0_502_209">
<rect width="244" height="47" fill="white" transform="translate(0 0.766113)"/>
</clipPath>
</defs>
</svg>
