<svg width="165" height="45" viewBox="0 0 165 45" fill="none" xmlns="http://www.w3.org/2000/svg">
<path d="M95.5664 13.0447L105.012 9.4633L95.5664 5.77958V0.765625L111.745 7.41679V11.5098L95.5664 18.161V13.0447Z" fill="#FF8945"/>
<path d="M6.23039 44.7657C2.81373 44.7657 0 43.0262 0 39.1378V38.9331C0 34.2262 4.01961 32.5889 8.94363 32.5889H11.2549V31.668C11.2549 29.7238 10.451 28.5982 8.44118 28.5982C6.63235 28.5982 5.72794 29.6215 5.62745 31.0541H0.602941C1.0049 26.7564 4.32108 24.7099 8.74265 24.7099C13.2647 24.7099 16.5809 26.6541 16.5809 31.4634V44.3564H11.4559V42.1052C10.451 43.5378 8.74265 44.7657 6.23039 44.7657ZM11.2549 38.0122V36.1703H9.14461C6.53186 36.1703 5.22549 36.8866 5.22549 38.6262V38.8308C5.22549 40.161 6.02941 41.082 7.83824 41.082C9.64706 40.9796 11.2549 39.9564 11.2549 38.0122ZM28.5392 44.7657C23.3137 44.7657 19.4951 41.4913 19.4951 34.9424V34.6355C19.4951 28.0866 23.5147 24.6076 28.5392 24.6076C32.8603 24.6076 36.3775 26.8587 36.7794 31.8727H31.7549C31.4534 30.0308 30.4485 28.8029 28.6397 28.8029C26.4289 28.8029 24.8211 30.6448 24.8211 34.4308V35.0448C24.8211 38.9331 26.2279 40.6727 28.6397 40.6727C30.4485 40.6727 31.7549 39.3424 32.0564 37.1936H36.8799C36.5784 41.6959 33.6642 44.7657 28.5392 44.7657ZM48.2353 44.7657C43.0098 44.7657 39.1912 41.4913 39.1912 34.9424V34.6355C39.1912 28.0866 43.2108 24.6076 48.2353 24.6076C52.5564 24.6076 56.0735 26.8587 56.4755 31.8727H51.451C51.1495 30.0308 50.1446 28.8029 48.3358 28.8029C46.125 28.8029 44.5172 30.6448 44.5172 34.4308V35.0448C44.5172 38.9331 45.924 40.6727 48.3358 40.6727C50.1446 40.6727 51.451 39.3424 51.7525 37.1936H56.576C56.2745 41.6959 53.3603 44.7657 48.2353 44.7657ZM68.0319 44.7657C62.6054 44.7657 58.8873 41.4913 58.8873 35.0448V34.6355C58.8873 28.1889 62.8064 24.6076 67.9314 24.6076C72.6544 24.6076 76.5735 27.268 76.5735 33.7145V36.068H64.2132C64.4142 39.5471 65.9216 40.8773 68.1324 40.8773C70.1422 40.8773 71.2476 39.7517 71.6495 38.4215H76.5735C75.9706 42.0029 72.9559 44.7657 68.0319 44.7657ZM64.3137 32.4866H71.348C71.2476 29.6215 69.9412 28.3936 67.8309 28.3936C66.223 28.4959 64.7157 29.4169 64.3137 32.4866ZM79.7892 25.1192H85.1152V27.9843C86.0196 26.1424 87.9289 24.7099 90.8431 24.7099C94.2598 24.7099 96.5711 26.8587 96.5711 31.4634V44.3564H91.2451V32.282C91.2451 30.0308 90.3407 29.0076 88.4314 29.0076C86.6226 29.0076 85.1152 30.1331 85.1152 32.5889V44.3564H79.7892V25.1192ZM106.319 19.2866V25.1192H109.936V29.1099H106.319V38.2169C106.319 39.6494 106.922 40.3657 108.228 40.3657C109.032 40.3657 109.534 40.2634 110.037 40.0587V44.2541C109.434 44.4587 108.328 44.6634 107.022 44.6634C102.902 44.6634 100.993 42.7192 100.993 38.8308V29.1099H98.7819V25.1192H100.993V21.5378L106.319 19.2866ZM129.833 44.3564H124.608V41.4913C123.703 43.3331 121.895 44.7657 119.081 44.7657C115.664 44.7657 113.152 42.6169 113.152 38.1145V25.1192H118.478V37.3982C118.478 39.6494 119.382 40.6727 121.191 40.6727C123 40.6727 124.507 39.4448 124.507 37.0913V25.1192H129.833V44.3564ZM133.752 25.1192H139.078V28.7006C140.184 26.1424 141.993 24.9145 144.806 24.9145V30.2355C141.189 30.2355 139.078 31.361 139.078 34.5331V44.4587H133.752V25.1192ZM155.559 44.7657C150.132 44.7657 146.414 41.4913 146.414 35.0448V34.6355C146.414 28.1889 150.333 24.6076 155.458 24.6076C160.181 24.6076 164.101 27.268 164.101 33.7145V36.068H151.841C152.042 39.5471 153.549 40.8773 155.76 40.8773C157.77 40.8773 158.875 39.7517 159.277 38.4215H164.201C163.397 42.0029 160.483 44.7657 155.559 44.7657ZM151.74 32.4866H158.875C158.775 29.6215 157.468 28.3936 155.358 28.3936C153.75 28.4959 152.243 29.4169 151.74 32.4866Z" fill="#FF8945"/>
</svg>
