<svg width="175" height="71" viewBox="0 0 175 71" fill="none" xmlns="http://www.w3.org/2000/svg">
<path d="M110.909 54.925C110.909 55.9278 110.913 56.7986 110.909 57.6694C110.905 58.5433 110.89 59.4171 110.883 60.291C110.875 61.1405 110.87 61.9901 110.865 62.8397C110.861 63.7135 110.864 64.5873 110.85 65.4612C110.835 66.329 110.884 67.1998 110.799 68.1055C106.906 68.9019 103.051 69.6908 99.1967 70.4752C99.1055 70.4934 99.0018 70.4645 98.9122 70.4585C98.7927 69.8774 98.7785 16.9872 98.8917 16.2818C98.9059 16.2621 98.9169 16.2378 98.9357 16.2257C98.9546 16.212 98.9829 16.2044 99.0065 16.2044C102.326 16.1953 105.646 16.1862 108.966 16.1801C109.089 16.1801 109.213 16.1983 109.364 16.209C109.707 17.0995 109.721 18.0628 110.105 19.0216C110.369 18.8138 110.579 18.6515 110.788 18.4861C112.508 17.1253 114.434 16.1589 116.623 15.7311C120.742 14.927 124.516 15.7417 127.926 18.0871C130.575 19.9091 132.431 22.3577 133.755 25.1992C134.792 27.4278 135.41 29.7702 135.742 32.19C136.004 34.0969 136.081 36.0115 135.995 37.9291C135.834 41.4912 135.242 44.9729 133.748 48.2665C132.843 50.2645 131.648 52.079 130.042 53.6234C127.622 55.9491 124.719 57.3008 121.324 57.6998C117.881 58.1033 114.732 57.3888 111.873 55.4909C111.686 55.3665 111.504 55.2391 111.313 55.1192C111.235 55.0691 111.144 55.0358 110.909 54.9235V54.925ZM124.183 36.6775C124.117 35.8795 124.081 35.0785 123.977 34.2866C123.748 32.5389 123.249 30.8686 122.333 29.3287C121.904 28.6081 121.394 27.9482 120.764 27.3808C119.555 26.29 118.144 25.712 116.463 25.7393C114.616 25.7696 112.948 26.2354 111.515 27.4035C111.041 27.7889 110.821 28.2091 110.828 28.8372C110.879 34.1546 110.894 39.472 110.919 44.7894C110.919 44.8622 110.927 44.935 110.919 45.0078C110.889 45.2991 111.013 45.5145 111.23 45.7118C111.878 46.3034 112.609 46.7631 113.44 47.0756C114.173 47.3517 114.935 47.4807 115.713 47.5671C117.747 47.7932 119.486 47.2182 120.942 45.8346C121.814 45.0048 122.444 44.0156 122.922 42.934C123.804 40.9375 124.131 38.8378 124.185 36.679L124.183 36.6775Z" fill="#FF8945"/>
<path d="M174.03 40.9162H150.442C150.457 41.1589 150.455 41.3425 150.48 41.523C150.933 44.762 152.863 46.8449 156.155 47.6657C157.806 48.0768 159.486 48.136 161.173 48.0556C163.337 47.9509 165.483 47.6915 167.556 47.0573C168.704 46.7069 169.817 46.2548 170.946 45.8482C171.148 45.7754 171.35 45.695 171.607 45.5979V54.793C171.353 54.928 171.096 55.0736 170.829 55.2026C168.564 56.2979 166.173 57.0018 163.674 57.3963C161.607 57.7209 159.527 57.8651 157.436 57.8013C154.649 57.7179 151.937 57.2506 149.367 56.172C144.969 54.3257 141.948 51.1868 140.14 46.9299C139.217 44.7589 138.709 42.4924 138.455 40.1622C138.255 38.3447 138.224 36.5242 138.346 34.7082C138.632 30.4756 139.756 26.4826 142.215 22.9129C144.511 19.5814 147.604 17.2511 151.612 16.1179C153.984 15.4473 156.4 15.288 158.854 15.5581C163.919 16.1163 167.743 18.5573 170.458 22.6732C171.963 24.9534 172.878 27.4596 173.461 30.0902C174 32.5236 174.182 34.9874 174.138 37.4693C174.121 38.3917 174.094 39.3141 174.069 40.2365C174.064 40.4277 174.045 40.6173 174.027 40.9177L174.03 40.9162ZM162.795 32.2976C162.809 30.6076 162.496 29.0389 161.618 27.6007C161.111 26.7708 160.434 26.0988 159.571 25.6057C157.098 24.1918 153.813 24.7926 151.953 27.003C151.023 28.1089 150.542 29.3969 150.365 30.7957C150.304 31.2887 150.155 31.7894 150.298 32.2824C150.914 32.3886 161.883 32.4068 162.793 32.2976H162.795Z" fill="#FF8945"/>
<path d="M0.589009 44.2415C0.947416 44.4023 1.19578 44.507 1.43787 44.6238C4.0316 45.8845 6.73852 46.8372 9.57905 47.4289C10.8366 47.6898 12.1083 47.8703 13.3895 47.8764C14.2619 47.881 15.1407 47.7535 16.0084 47.6367C16.3479 47.5912 16.6812 47.4395 16.994 47.2908C18.5487 46.5535 18.7829 44.6314 17.846 43.4951C17.464 43.0308 17.0019 42.6531 16.4642 42.383C15.7301 42.0129 14.9866 41.6503 14.2179 41.3575C12.7466 40.7947 11.2516 40.2925 9.77241 39.7479C8.33878 39.2199 6.93187 38.6313 5.62086 37.853C5.10683 37.5481 4.6038 37.2234 4.12435 36.873C1.68466 35.0859 0.313915 32.7101 0.057685 29.7685C-0.141954 27.4852 0.166152 25.2597 1.14548 23.1524C2.47536 20.2912 4.73113 18.3342 7.65498 17.0583C9.57277 16.2209 11.5927 15.7566 13.6866 15.5716C18.338 15.162 22.8668 15.7051 27.2731 17.1979C27.4868 17.2707 27.6975 17.3496 27.9065 17.43C27.9993 17.4649 28.0873 17.5074 28.2209 17.565C28.2429 17.7395 28.2854 17.9276 28.2854 18.1157C28.2901 21.3441 28.2885 24.574 28.2854 27.8023C28.2854 27.9692 28.254 28.1346 28.2319 28.3561C28.037 28.2893 27.8735 28.2529 27.7273 28.1831C24.9544 26.8526 22.0196 26.0334 18.9558 25.6602C17.5851 25.4933 16.2002 25.3462 14.8215 25.6116C14.3342 25.7057 13.8328 25.8286 13.3942 26.0455C12.0958 26.6857 11.7719 28.2999 12.6837 29.4059C13.0499 29.8504 13.5105 30.1978 14.0356 30.436C14.8766 30.8153 15.7286 31.1778 16.5963 31.4934C18.3836 32.1427 20.1929 32.7313 21.9755 33.3913C23.2441 33.8616 24.4435 34.4775 25.5738 35.2148C28.8607 37.3585 30.5066 40.3623 30.6386 44.1687C30.6952 45.8086 30.5207 47.4183 29.9737 48.9763C29.0965 51.4795 27.4884 53.4456 25.2264 54.9233C23.3023 56.1794 21.166 56.9349 18.9024 57.3764C16.142 57.915 13.3612 57.9484 10.5662 57.6965C7.33901 57.4068 4.23438 56.6467 1.23037 55.4831C0.540276 55.2161 0.537136 55.21 0.537136 54.4773C0.535564 51.3217 0.535564 48.1647 0.537136 45.0091C0.537136 44.7937 0.562284 44.5798 0.582719 44.2415H0.589009Z" fill="#FF8945"/>
<path d="M33.204 8.50657C37.0805 7.70858 40.9066 6.92121 44.7407 6.13232C44.9529 6.41602 44.8727 6.71337 44.8711 6.991C44.8648 9.75816 44.8491 12.5253 44.835 15.2925C44.835 15.555 44.835 15.8189 44.835 16.0723C45.1321 16.268 45.4166 16.2073 45.6823 16.2073C48.1722 16.2118 50.6622 16.2088 53.1538 16.2119C53.4242 16.2119 53.6945 16.2285 53.9964 16.2392V25.9758C53.7401 26.1442 53.4572 26.0835 53.1899 26.0851C50.7 26.0896 48.21 26.0866 45.7184 26.0896C45.4496 26.0896 45.1808 26.1154 44.8648 26.1321C44.8523 26.434 44.8318 26.6706 44.8318 26.9088C44.8318 32.1519 44.8271 37.3949 44.8365 42.6365C44.8365 43.1432 44.8853 43.656 44.978 44.1551C45.3207 45.9953 46.5012 47.4107 49.0101 47.6474C50.4547 47.7839 51.8679 47.5761 53.2544 47.1801C53.4477 47.1255 53.6395 47.0679 53.8329 47.0178C53.8769 47.0072 53.9288 47.0239 54.0042 47.0315V56.3358C53.6914 56.4753 53.3629 56.6453 53.0186 56.7727C51.7925 57.2263 50.5113 57.4781 49.2144 57.6465C47.7651 57.8331 46.3063 57.8802 44.8475 57.8225C39.6758 57.6177 34.7933 54.4197 33.4351 48.767C33.1789 47.7005 33.094 46.6128 33.0971 45.5159C33.1097 37.7484 33.1113 29.9824 33.1223 22.215C33.1286 17.9428 33.1443 13.6707 33.1584 9.40013C33.1584 9.11492 33.1852 8.83122 33.2025 8.50808L33.204 8.50657Z" fill="#FF8945"/>
<path d="M57.986 56.9456V16.2983C58.1479 16.2665 58.2878 16.2149 58.4293 16.2149C61.5983 16.2103 64.769 16.2119 67.938 16.2149C68.0355 16.2149 68.133 16.2376 68.2823 16.2574C68.6501 17.2981 68.7335 18.4147 69.1123 19.5434C69.6342 18.929 70.0791 18.3616 70.5727 17.8351C71.0835 17.292 71.7092 16.8809 72.3914 16.5532C73.0925 16.2164 73.8235 15.9494 74.6063 15.8781C75.3546 15.8098 76.1107 15.7431 76.8589 15.7764C77.6056 15.8098 78.357 15.9206 79.0487 16.2027C79.187 16.8885 79.1744 26.1837 79.0298 26.792C78.5425 26.7162 78.0536 26.6236 77.56 26.5645C75.7711 26.3505 74.0435 26.5645 72.4307 27.3685C71.9434 27.6112 71.4797 27.9177 71.0537 28.253C69.9737 29.1056 69.9549 29.1814 69.9549 30.5392C69.9549 38.9864 69.9549 47.4335 69.9549 55.8806C69.9549 56.2159 69.9329 56.5497 69.9203 56.9259C69.6829 56.9578 69.4912 57.0063 69.2994 57.0078C65.7279 57.0124 62.1548 57.0124 58.5833 57.0078C58.412 57.0078 58.2406 56.9729 57.9875 56.9456H57.986Z" fill="#FF8945"/>
<path d="M94.2041 56.9351C94.0218 56.9669 93.9023 57.0064 93.7828 57.0079C90.0353 57.0094 86.2877 57.0079 82.5417 57.0034C82.4474 57.0034 82.3547 56.9548 82.2714 56.932C82.1519 56.3662 82.1299 17.0721 82.2431 16.3181C82.2619 16.3014 82.2792 16.2832 82.2996 16.2696C82.3201 16.2574 82.3437 16.2438 82.3657 16.2407C82.4899 16.2286 82.6156 16.2119 82.7398 16.2119C86.4874 16.2149 90.2333 16.221 93.9809 16.2271C94.0265 16.2271 94.0721 16.2605 94.1695 16.2969C94.19 16.4304 94.2261 16.5897 94.2371 16.7505C94.2497 16.9189 94.2403 17.0903 94.2403 17.2602C94.2403 30.1464 94.2403 43.0325 94.2403 55.9186C94.2403 56.2509 94.2167 56.5831 94.2041 56.9336V56.9351Z" fill="#FF8945"/>
<path d="M82.2571 3.12989C86.2404 2.32432 90.1829 1.49902 94.1364 0.719238C94.2889 1.44744 94.2763 9.50014 94.1364 10.069C92.7971 10.468 82.8811 12.4858 82.2901 12.4782C82.2744 12.463 82.2571 12.4478 82.2429 12.4296C82.2272 12.4099 82.2083 12.3887 82.2052 12.3674C82.1926 12.2476 82.1785 12.1262 82.1785 12.0048C82.1785 9.13907 82.1816 6.27481 82.1863 3.40903C82.1863 3.34076 82.2193 3.2725 82.2571 3.12837V3.12989Z" fill="#FF8945"/>
</svg>
