<svg width="361" height="56" viewBox="0 0 361 56" fill="none" xmlns="http://www.w3.org/2000/svg">
<path d="M90.2754 23.6991C91.6708 21.2054 93.6158 19.2552 96.1105 17.8621C98.6052 16.469 101.438 15.7725 104.595 15.7725C108.471 15.7725 111.783 16.7894 114.546 18.8094C117.309 20.8292 119.141 23.5875 120.071 27.0842H111.332C110.684 25.733 109.754 24.716 108.57 24.0055C107.372 23.2951 106.019 22.9467 104.497 22.9467C102.044 22.9467 100.071 23.7825 98.5487 25.4682C97.0266 27.1538 96.2655 29.4107 96.2655 32.2246C96.2655 35.0387 97.0266 37.2953 98.5487 38.981C100.071 40.6666 102.044 41.5025 104.497 41.5025C106.019 41.5025 107.372 41.1542 108.57 40.4438C109.768 39.7332 110.684 38.7164 111.332 37.3651H120.071C119.141 40.8616 117.294 43.6061 114.546 45.612C111.783 47.618 108.471 48.6211 104.595 48.6211C101.438 48.6211 98.6052 47.9245 96.1105 46.5314C93.6158 45.1384 91.6708 43.2021 90.2754 40.7224C88.8801 38.2427 88.1895 35.4147 88.1895 32.2246C88.1895 29.0345 88.8801 26.1926 90.2754 23.6991Z" fill="#FF8945"/>
<path d="M128.978 47.1573C126.949 46.0846 125.356 44.5522 124.186 42.5601C123.03 40.5681 122.438 38.2416 122.438 35.5807C122.438 32.9201 123.03 30.6214 124.2 28.6155C125.384 26.6095 126.991 25.077 129.035 24.0044C131.078 22.9318 133.376 22.4023 135.913 22.4023C138.45 22.4023 140.747 22.9318 142.791 24.0044C144.835 25.077 146.441 26.6095 147.625 28.6155C148.809 30.6214 149.387 32.9479 149.387 35.5807C149.387 38.2136 148.795 40.5401 147.597 42.5461C146.399 44.5522 144.778 46.0846 142.72 47.1573C140.663 48.2299 138.365 48.7593 135.814 48.7593C133.263 48.7593 130.994 48.2299 128.964 47.1573H128.978ZM139.718 40.3173C140.789 39.2167 141.325 37.6426 141.325 35.5807C141.325 33.5191 140.804 31.9588 139.775 30.8444C138.732 29.7438 137.463 29.1866 135.941 29.1866C134.419 29.1866 133.108 29.73 132.079 30.8164C131.05 31.903 130.543 33.4913 130.543 35.5669C130.543 37.6426 131.05 39.2028 132.051 40.3033C133.052 41.4039 134.32 41.9611 135.842 41.9611C137.365 41.9611 138.661 41.4039 139.718 40.3033V40.3173Z" fill="#FF8945"/>
<path d="M152.629 28.5875C153.629 26.5954 155.011 25.063 156.744 23.9903C158.478 22.9177 160.409 22.3883 162.551 22.3883C164.257 22.3883 165.807 22.7365 167.216 23.4471C168.626 24.1575 169.739 25.1048 170.543 26.289V14.3921H178.492V48.383H170.543V44.7053C169.796 45.9312 168.739 46.9064 167.357 47.6446C165.976 48.383 164.369 48.7452 162.551 48.7452C160.409 48.7452 158.478 48.2018 156.744 47.1154C155.011 46.0288 153.644 44.4823 152.629 42.4765C151.628 40.4704 151.121 38.1579 151.121 35.5111C151.121 32.8642 151.628 30.5657 152.629 28.5735V28.5875ZM168.894 30.9279C167.794 29.7995 166.455 29.2283 164.877 29.2283C163.298 29.2283 161.959 29.7855 160.86 30.8999C159.76 32.0144 159.211 33.5608 159.211 35.5111C159.211 37.4613 159.76 39.0216 160.86 40.1778C161.959 41.3202 163.298 41.9052 164.877 41.9052C166.455 41.9052 167.794 41.334 168.894 40.2056C169.993 39.0774 170.543 37.5309 170.543 35.5668C170.543 33.6026 169.993 32.0562 168.894 30.9279Z" fill="#FF8945"/>
<path d="M207.639 37.4614H189.655C189.781 39.0495 190.304 40.2755 191.205 41.1113C192.121 41.9471 193.248 42.3789 194.575 42.3789C196.562 42.3789 197.942 41.5571 198.718 39.8993H207.175C206.738 41.5849 205.962 43.1034 204.821 44.4406C203.693 45.792 202.269 46.8507 200.563 47.6169C198.858 48.3831 196.957 48.7591 194.842 48.7591C192.304 48.7591 190.036 48.2299 188.061 47.1571C186.074 46.0845 184.524 44.5522 183.411 42.56C182.298 40.5679 181.733 38.2416 181.733 35.5807C181.733 32.9201 182.284 30.5936 183.383 28.6015C184.482 26.6095 186.018 25.077 188.005 24.0044C189.992 22.9318 192.263 22.4023 194.842 22.4023C197.421 22.4023 199.578 22.9178 201.537 23.9626C203.482 25.0074 205.018 26.4841 206.117 28.4203C207.217 30.3428 207.767 32.5996 207.767 35.1767C207.767 35.9151 207.723 36.6814 207.625 37.4754L207.639 37.4614ZM199.648 33.1011C199.648 31.7498 199.183 30.6772 198.253 29.8832C197.322 29.089 196.167 28.6851 194.77 28.6851C193.376 28.6851 192.318 29.0612 191.403 29.8274C190.487 30.5936 189.923 31.6802 189.711 33.0871H199.662L199.648 33.1011Z" fill="#FF8945"/>
<path d="M228.133 48.3971L221.353 36.2215H219.451V48.3971H211.501V16.1475H224.835C227.413 16.1475 229.599 16.5933 231.417 17.4848C233.234 18.3764 234.589 19.5884 235.49 21.1347C236.392 22.6809 236.843 24.4084 236.843 26.303C236.843 28.4483 236.237 30.3568 235.012 32.0424C233.785 33.7281 231.981 34.9261 229.599 35.6225L237.124 48.3971H228.147H228.133ZM219.437 30.6632H224.369C225.821 30.6632 226.92 30.315 227.639 29.6045C228.373 28.8941 228.74 27.9049 228.74 26.6234C228.74 25.3418 228.373 24.4362 227.639 23.7258C226.906 23.0153 225.821 22.6671 224.369 22.6671H219.437V30.6632Z" fill="#FF8945"/>
<path d="M240.804 28.5873C241.805 26.5952 243.186 25.063 244.919 23.9902C246.653 22.9175 248.598 22.5415 250.726 22.5415H266.668V48.3829H258.718V44.761C257.942 45.959 256.871 46.9202 255.49 47.6585C254.11 48.3969 252.502 48.7591 250.684 48.7591C248.57 48.7591 246.653 48.2157 244.919 47.1292C243.186 46.0426 241.819 44.4962 240.804 42.4903C239.804 40.4842 239.295 38.1718 239.295 35.5249C239.295 32.878 239.804 30.5795 240.804 28.5873ZM257.068 30.9278C255.969 29.7993 254.63 29.2281 253.052 29.2281C251.473 29.2281 250.134 29.7853 249.035 30.8999C247.935 32.0144 247.387 33.5606 247.387 35.5109C247.387 37.4612 247.935 39.0214 249.035 40.1776C250.134 41.3201 251.473 41.9051 253.052 41.9051C254.63 41.9051 255.969 41.3339 257.068 40.2056C258.167 39.0772 258.718 37.531 258.718 35.5667C258.718 33.6024 258.167 32.0562 257.068 30.9278Z" fill="#FF8945"/>
<path d="M282.665 23.4889C284.06 22.7505 285.653 22.3883 287.457 22.3883C289.599 22.3883 291.53 22.9177 293.264 23.9903C294.998 25.063 296.364 26.5954 297.38 28.5875C298.381 30.5795 298.888 32.892 298.888 35.525C298.888 38.1579 298.381 40.4842 297.38 42.4903C296.378 44.4963 294.998 46.0426 293.264 47.1292C291.53 48.2158 289.599 48.7591 287.457 48.7591C285.625 48.7591 284.032 48.397 282.665 47.6864C281.298 46.962 280.227 46.0148 279.451 44.8167V48.397H271.501V14.3921H279.451V26.3864C280.199 25.1884 281.27 24.2271 282.665 23.4889ZM289.148 30.9139C288.049 29.7995 286.697 29.2423 285.075 29.2423C283.455 29.2423 282.158 29.8133 281.059 30.9417C279.958 32.0702 279.409 33.6164 279.409 35.5807C279.409 37.5449 279.958 39.0912 281.059 40.2196C282.158 41.348 283.497 41.9192 285.075 41.9192C286.653 41.9192 288.007 41.348 289.12 40.1918C290.234 39.0494 290.798 37.4891 290.798 35.525C290.798 33.5608 290.248 32.0284 289.148 30.9139Z" fill="#FF8945"/>
<path d="M313.291 23.4889C314.687 22.7504 316.28 22.3882 318.085 22.3882C320.226 22.3882 322.157 22.9176 323.89 23.9903C325.624 25.0631 326.992 26.5954 328.006 28.5874C329.007 30.5795 329.514 32.8921 329.514 35.525C329.514 38.1579 329.007 40.4844 328.006 42.4904C327.006 44.4963 325.624 46.0427 323.89 47.1292C322.157 48.2158 320.226 48.7592 318.085 48.7592C316.252 48.7592 314.66 48.397 313.291 47.6866C311.925 46.9621 310.853 46.0147 310.079 44.8167V48.397H302.129V14.3921H310.079V26.3864C310.825 25.1883 311.897 24.2271 313.291 23.4889ZM319.775 30.9139C318.675 29.7994 317.323 29.2422 315.703 29.2422C314.081 29.2422 312.784 29.8134 311.685 30.9417C310.586 32.0701 310.035 33.6165 310.035 35.5806C310.035 37.5449 310.586 39.0913 311.685 40.2196C312.784 41.348 314.123 41.9192 315.703 41.9192C317.281 41.9192 318.633 41.348 319.747 40.1918C320.86 39.0495 321.424 37.4893 321.424 35.525C321.424 33.5608 320.874 32.0283 319.775 30.9139Z" fill="#FF8945"/>
<path d="M333.348 18.8768C332.46 18.0688 332.023 17.0658 332.023 15.8678C332.023 14.6697 332.46 13.6249 333.348 12.817C334.235 12.009 335.363 11.605 336.759 11.605C338.153 11.605 339.239 12.009 340.126 12.817C341.014 13.6249 341.451 14.6419 341.451 15.8678C341.451 17.0938 341.014 18.0688 340.126 18.8768C339.239 19.6848 338.125 20.0888 336.759 20.0888C335.391 20.0888 334.221 19.6848 333.348 18.8768ZM340.719 22.7635V48.3959H332.769V22.7495H340.719V22.7635Z" fill="#FF8945"/>
<path d="M360.002 41.7234V48.3822H355.956C353.081 48.3822 350.825 47.6858 349.219 46.2927C347.611 44.8997 346.809 42.6288 346.809 39.4665V29.2694H343.651V22.7498H346.809V16.5088H354.757V22.7498H359.958V29.2694H354.757V39.5641C354.757 40.3303 354.941 40.8876 355.322 41.222C355.689 41.5562 356.309 41.7234 357.183 41.7234H360.016H360.002Z" fill="#FF8945"/>
<path d="M41.5788 55.7657C38.5062 54.7627 35.5322 47.9087 31.8394 47.9087C37.012 50.9874 34.8134 55.0691 34.3905 55.7657H41.5927H41.5788Z" fill="#FF8945"/>
<path d="M63.9605 30.9277C63.3121 14.6288 49.9788 1.33887 33.5025 0.586609C15.1374 -0.235303 0 14.2248 0 32.1814C0 39.0354 2.19873 45.3738 5.94785 50.5421C8.1043 53.5234 11.4729 55.404 15.1233 55.7105C9.75334 49.6923 14.3199 44.6633 14.3199 44.6633C12.1917 45.6804 11.3178 49.1073 11.3178 49.1073C7.28682 46.6554 8.21705 43.7301 8.21705 43.7301C8.47075 43.1171 9.04862 41.4314 12.1494 42.0444C18.1536 22.4997 37.9281 32.683 37.9281 32.683C37.6181 32.07 36.5891 28.5873 36.5891 28.5873C23.7492 26.7484 19.408 17.7493 19.408 17.7493C31.3179 14.169 38.5623 23.8927 38.5623 23.8927C35.2501 15.9104 27.2868 19.0866 25.2149 5.99173C39.0416 8.26243 41.043 18.9752 41.3248 21.2876C41.5222 20.8418 42.6215 20.2428 47.16 20.5076C54.1931 20.9114 59.7887 27.9744 59.7887 27.9744C59.7887 42.2951 42.0859 38.8404 42.0859 49.6645C42.0859 52.2 44.8766 52.0467 45.8069 53.2726C46.5679 54.2756 46.2439 55.39 46.0887 55.7523H47.7661C51.7407 55.7523 55.5179 53.9412 57.8576 50.7651C61.931 45.2346 64.2423 38.3528 63.9605 30.9137V30.9277Z" fill="#FF8945"/>
</svg>
