<svg width="159" height="117" viewBox="0 0 159 117" fill="none" xmlns="http://www.w3.org/2000/svg">
<path d="M91.5298 0.0203278C113.117 0.0203278 134.703 0.0203278 156.29 0.0203278C158.143 0.0203278 158.195 0.0677392 158.195 1.81257C158.195 21.8294 158.188 41.8462 158.219 61.8631C158.22 62.8723 157.883 63.5632 157.149 64.2283C155.779 65.4692 154.486 66.79 153.147 68.0621C152.253 68.9115 151.313 69.7135 150.43 70.5723C148.149 72.7913 145.906 75.0455 143.615 77.255C141.126 79.6541 138.597 82.0126 136.097 84.4009C135.454 85.016 134.848 85.6662 134.238 86.3138C133.812 86.7662 133.313 87.0101 132.668 86.9518C132.46 86.9329 132.249 86.9491 132.04 86.9491C88.9021 86.9491 45.7627 86.9491 2.62463 86.9491C1.27709 86.9491 0.603334 86.2921 0.603334 84.9781C0.603334 65.029 0.610349 45.0785 0.582275 25.1294C0.582275 24.1364 0.895299 23.4482 1.6196 22.7533C9.11387 15.5667 16.5857 8.35977 24.0294 1.1244C24.8576 0.319712 25.7054 -0.00135042 26.8775 4.26744e-06C48.4297 0.0284527 69.9818 0.0203278 91.5326 0.0203278H91.5298ZM66.7197 43.419C66.7197 49.2374 66.7197 55.0544 66.7197 60.8728C66.7197 61.1749 66.7043 61.4797 66.7309 61.7804C66.7983 62.5566 67.1871 62.9847 67.9816 62.9929C70.6654 63.02 73.3493 63.0159 76.0346 62.9942C76.7785 62.9888 77.1042 62.665 77.201 61.9592C77.2417 61.6612 77.2263 61.355 77.2263 61.0529C77.2277 58.1946 77.2235 55.3362 77.2305 52.4778C77.2333 51.4889 77.2586 51.4672 78.2959 51.4618C80.0392 51.4537 81.7826 51.4686 83.5246 51.4537C84.0524 51.4496 84.4342 51.558 84.7177 52.0592C86.5046 55.2156 88.3505 58.3395 90.1149 61.5068C90.6932 62.5445 91.4372 63.0484 92.6822 63.024C95.2608 62.9739 97.8408 63.0213 100.421 62.9996C100.982 62.9956 101.69 63.2435 102.042 62.6135C102.373 62.0215 101.889 61.519 101.603 61.038C99.9533 58.2704 98.2745 55.5204 96.628 52.7514C95.7858 51.3358 95.9992 51.5227 97.1909 50.9253C99.4452 49.7942 100.779 47.9586 100.831 45.5377C100.94 40.4617 100.911 35.3817 100.842 30.3043C100.815 28.3346 99.8986 26.6751 98.2858 25.4261C96.9888 24.4209 95.4952 23.9549 93.8291 23.9563C85.428 23.9617 77.027 23.959 68.6245 23.959C68.4855 23.959 68.3452 23.9563 68.2062 23.9617C67.1155 24.0064 66.7674 24.3315 66.7239 25.3584C66.7113 25.6604 66.7197 25.9639 66.7197 26.266C66.7197 31.9828 66.7197 37.6995 66.7197 43.4163V43.419ZM25.2857 43.438C25.2857 45.9943 25.2857 48.5506 25.2857 51.1082C25.2857 54.4719 25.2829 57.8356 25.2857 61.2006C25.2871 62.7179 25.5959 63.0064 27.2018 63.0105C28.736 63.0145 30.2702 63.0118 31.8044 63.0105C32.6761 63.0105 33.5478 63.024 34.4195 63.0037C35.4807 62.9807 35.7572 62.6989 35.7923 61.6599C35.8021 61.3578 35.7951 61.0543 35.7951 60.7522C35.7951 57.0187 35.7909 53.2838 35.7979 49.5503C35.8007 48.4476 36.0014 48.2485 37.1398 48.2444C40.6266 48.2349 44.1133 48.2349 47.6015 48.2444C48.7301 48.2485 48.9098 48.4381 48.9154 49.5733C48.9252 51.7598 48.9181 53.9463 48.9195 56.1327C48.9195 57.9155 48.9083 59.6983 48.9252 61.481C48.9364 62.5878 49.3603 62.9956 50.5212 63.0023C52.9622 63.0172 55.4032 63.0159 57.8442 63.0023C58.9615 62.9969 59.5033 62.493 59.596 61.4296C59.61 61.2629 59.6058 61.0936 59.6058 60.9256C59.6058 49.2862 59.6058 37.6467 59.6058 26.0086C59.6058 25.7742 59.6086 25.5345 59.5707 25.3042C59.4219 24.3992 58.9784 23.9766 58.0379 23.9684C55.4579 23.9468 52.8765 23.9441 50.2966 23.9725C49.401 23.982 48.9827 24.4385 48.928 25.3042C48.9111 25.5724 48.9224 25.842 48.9224 26.1116C48.9224 29.6771 48.9238 33.2426 48.921 36.8082C48.921 38.2224 48.7918 38.3417 47.2885 38.343C44.0811 38.3457 40.8722 38.3444 37.6648 38.343C35.8204 38.343 35.7993 38.3227 35.7993 36.5345C35.7993 32.8349 35.8035 29.1339 35.7951 25.4342C35.7923 24.3667 35.5045 23.9888 34.5262 23.9752C31.876 23.94 29.2259 23.9454 26.5757 23.9752C25.7377 23.9847 25.3475 24.4372 25.2941 25.2689C25.2745 25.571 25.2871 25.8745 25.2871 26.1766C25.2871 31.9286 25.2871 37.6806 25.2871 43.4339L25.2857 43.438ZM120.785 23.9603C116.322 23.9603 111.858 23.9603 107.394 23.9603C107.08 23.9603 106.764 23.9454 106.454 23.9725C105.627 24.047 105.238 24.3857 105.23 25.1958C105.202 27.5841 105.2 29.9724 105.234 32.3607C105.245 33.1532 105.624 33.5081 106.44 33.6436C106.815 33.7059 107.203 33.7019 107.585 33.7032C109.817 33.7086 112.049 33.6951 114.281 33.7127C115.232 33.7208 115.446 33.9471 115.487 34.8506C115.501 35.1527 115.491 35.4562 115.491 35.7583C115.491 44.034 115.491 52.3112 115.494 60.5869C115.494 61.0218 115.494 61.4661 115.575 61.8915C115.732 62.7111 116.065 62.9739 116.927 63.0023C117.623 63.0254 118.322 63.0105 119.02 63.0105C120.833 63.0105 122.647 63.0227 124.46 63.0051C125.55 62.9942 125.951 62.5878 125.993 61.5271C126.004 61.2589 125.996 60.9893 125.996 60.7197C125.996 55.6058 125.996 50.4918 125.996 45.3792C125.996 41.914 125.99 38.4487 126 34.9834C126.003 33.9267 126.205 33.7398 127.272 33.71C127.725 33.6978 128.179 33.7073 128.632 33.7073C130.62 33.7073 132.607 33.7208 134.595 33.7005C135.792 33.6883 136.373 33.2318 136.394 32.1819C136.439 29.8952 136.432 27.6071 136.394 25.3191C136.38 24.4548 135.902 24.047 135.016 23.9712C134.704 23.9454 134.389 23.9603 134.076 23.9603C129.647 23.9603 125.217 23.9603 120.788 23.9603H120.785Z" fill="#FF8945"/>
<path d="M156.05 103.274C156.613 102.222 157.474 102.686 158.314 102.697C158.34 103.041 158.38 103.334 158.38 103.626C158.384 106.012 158.42 108.399 158.362 110.783C158.34 111.712 158.23 112.676 157.941 113.556C157.365 115.311 155.456 116.241 153.282 115.974C151.431 115.747 149.971 114.358 149.769 112.623C149.757 112.532 149.808 112.435 149.861 112.208C150.221 112.208 150.594 112.226 150.965 112.204C151.45 112.174 151.734 112.356 151.901 112.811C152.149 113.483 152.625 113.938 153.389 114.082C154.927 114.373 155.981 113.647 156.178 112.132C156.217 111.833 156.224 111.53 156.226 111.227C156.226 111.07 156.184 110.912 156.143 110.63C155.866 110.802 155.678 110.925 155.484 111.041C153.936 111.962 151.856 111.694 150.598 110.412C149.036 108.82 148.8 106.084 150.03 104.231C151.143 102.553 153.862 101.644 156.047 103.275L156.05 103.274ZM156.33 106.811C156.311 106.685 156.297 106.38 156.22 106.092C155.922 104.97 155.034 104.268 153.918 104.248C152.855 104.229 151.97 104.871 151.607 105.948C151.328 106.777 151.366 107.604 151.748 108.396C152.26 109.46 153.473 109.958 154.624 109.599C155.673 109.273 156.334 108.258 156.331 106.811H156.33Z" fill="#FF8945"/>
<path d="M28.479 99.2103V100.207C28.479 103.534 28.486 106.86 28.4692 110.187C28.4678 110.553 28.6671 111.029 28.1435 111.247C27.568 111.485 26.5953 111.234 26.1784 110.731C25.2435 111.346 24.2244 111.721 23.0552 111.524C21.1532 111.206 20.0597 110.063 19.5656 108.326C19.2428 107.191 19.3003 106.061 19.7677 104.968C20.7854 102.592 23.5408 101.737 25.8274 103.075C25.9397 103.14 26.0633 103.188 26.3454 103.32C26.3454 102.313 26.3454 101.421 26.3454 100.531C26.3454 99.5585 26.8376 99.092 27.8221 99.1317C27.9905 99.1385 28.1562 99.171 28.4776 99.2089L28.479 99.2103ZM26.4774 106.833C26.4409 106.648 26.4058 106.278 26.2949 105.928C25.9748 104.911 25.1256 104.286 24.0686 104.255C23.0818 104.225 22.1961 104.794 21.8031 105.74C21.4367 106.622 21.448 107.51 21.8677 108.375C22.2705 109.205 22.9681 109.662 23.9128 109.716C25.3712 109.799 26.4816 108.615 26.4774 106.833Z" fill="#FF8945"/>
<path d="M131.628 103.411C131.628 102.151 131.621 101.114 131.63 100.076C131.639 99.1386 131.651 99.1318 132.635 99.1318C132.944 99.1318 133.252 99.1603 133.656 99.1792C133.691 99.4976 133.749 99.7848 133.75 100.071C133.756 103.467 133.76 106.862 133.744 110.258C133.743 110.621 133.94 111.105 133.343 111.27C132.668 111.457 131.889 111.244 131.476 110.709C130.488 111.386 129.397 111.756 128.161 111.487C127.923 111.435 127.682 111.386 127.454 111.305C125.484 110.605 124.338 108.411 124.707 106.061C125.028 104.028 126.628 102.573 128.711 102.414C129.733 102.337 130.614 102.693 131.628 103.41V103.411ZM131.771 106.877C131.744 106.722 131.715 106.386 131.625 106.065C131.309 104.939 130.42 104.259 129.293 104.255C128.226 104.251 127.351 104.911 126.997 105.984C126.733 106.786 126.772 107.576 127.134 108.337C127.547 109.207 128.267 109.69 129.26 109.716C130.693 109.755 131.743 108.623 131.769 106.877H131.771Z" fill="#FF8945"/>
<path d="M120.693 103.258C120.973 103.019 121.184 102.694 121.439 102.658C121.904 102.59 122.402 102.665 122.871 102.75C122.974 102.769 123.079 103.083 123.079 103.262C123.093 105.711 123.083 108.162 123.094 110.611C123.097 111.149 122.812 111.349 122.315 111.286C121.79 111.219 121.065 111.61 120.858 110.668C119.807 111.401 118.687 111.768 117.416 111.475C117.214 111.428 117.008 111.386 116.813 111.318C114.829 110.633 113.681 108.478 114.032 106.108C114.342 104.018 115.954 102.547 118.08 102.413C119.104 102.348 119.987 102.694 120.691 103.258H120.693ZM116.142 106.994C116.142 108.182 116.806 109.224 117.786 109.572C118.76 109.918 119.87 109.611 120.505 108.822C121.228 107.923 121.351 106.375 120.645 105.411C120.328 104.976 119.813 104.567 119.297 104.396C117.645 103.847 116.141 105.126 116.141 106.994H116.142Z" fill="#FF8945"/>
<path d="M0.438965 111.294V99.2946C0.555471 99.2295 0.611624 99.1713 0.673386 99.1672C1.90208 99.0733 2.51643 99.6098 2.51643 100.777C2.51643 101.512 2.51643 102.246 2.51643 103.116C2.87015 102.96 3.10597 102.861 3.33758 102.756C5.67892 101.683 7.98799 102.97 8.09607 105.464C8.16906 107.141 8.12836 108.822 8.11292 110.502C8.1059 111.225 8.0315 111.267 7.24684 111.293C7.07278 111.298 6.89732 111.281 6.72467 111.293C6.18285 111.334 5.98773 111.093 5.99615 110.579C6.0172 109.269 6.00317 107.959 6.00036 106.649C6.00036 106.347 6.013 106.042 5.98212 105.743C5.88666 104.837 5.39959 104.339 4.56299 104.266C3.74324 104.194 2.94594 104.679 2.73399 105.468C2.59643 105.983 2.5445 106.527 2.53046 107.061C2.49958 108.169 2.52906 109.277 2.51502 110.387C2.50379 111.251 2.46729 111.277 1.5577 111.293C1.2166 111.3 0.875514 111.293 0.441775 111.293L0.438965 111.294Z" fill="#FF8945"/>
<path d="M83.7211 107.466C83.7014 108.498 84.1113 109.178 84.9367 109.519C86.3137 110.088 87.3538 109.49 88.2101 108.372C88.7856 108.682 89.3218 108.969 89.9548 109.311C89.6783 109.673 89.4888 109.991 89.232 110.244C87.8423 111.615 86.1242 111.858 84.3149 111.354C82.6403 110.888 81.8205 109.625 81.5159 108.024C81.2885 106.822 81.4948 105.68 82.083 104.61C83.074 102.808 85.1276 102 87.1433 102.596C88.8894 103.112 90.1205 104.973 89.9998 106.851C89.9675 107.355 89.7092 107.468 89.2642 107.466C87.803 107.46 86.3418 107.466 84.8805 107.466C84.5086 107.466 84.1366 107.466 83.7197 107.466H83.7211ZM87.6837 105.706C87.3959 104.617 86.732 104.128 85.682 104.187C84.7247 104.242 84.1001 104.794 83.971 105.781C85.0181 105.781 86.054 105.785 87.0899 105.778C87.2865 105.778 87.4816 105.732 87.6837 105.706Z" fill="#FF8945"/>
<path d="M41.8323 102.403C44.5597 102.418 46.6119 104.389 46.6049 106.985C46.5978 109.578 44.533 111.564 41.8281 111.577C39.0853 111.591 36.9882 109.57 37.0065 106.931C37.0247 104.342 39.1078 102.387 41.8309 102.402L41.8323 102.403ZM44.4053 106.988C44.4025 105.363 43.3974 104.284 41.859 104.252C40.2953 104.221 39.199 105.354 39.2032 106.997C39.2074 108.616 40.2293 109.705 41.7636 109.727C43.3539 109.748 44.4067 108.655 44.4053 106.986V106.988Z" fill="#FF8945"/>
<path d="M142.331 103.129C143.233 102.547 144.171 102.274 145.225 102.468C146.585 102.717 147.418 103.457 147.631 104.774C147.743 105.465 147.724 106.179 147.733 106.882C147.747 108.024 147.745 109.164 147.733 110.306C147.725 111.268 147.683 111.298 146.65 111.294C146.546 111.294 146.441 111.286 146.337 111.293C145.796 111.326 145.597 111.074 145.603 110.568C145.618 109.292 145.614 108.016 145.6 106.739C145.596 106.305 145.586 105.862 145.5 105.438C145.333 104.6 144.916 104.278 144.074 104.245C143.188 104.21 142.606 104.527 142.392 105.298C142.232 105.875 142.166 106.487 142.145 107.086C142.107 108.193 142.144 109.303 142.127 110.411C142.116 111.229 142.065 111.264 141.244 111.291C141.035 111.298 140.826 111.284 140.618 111.29C140.176 111.299 139.994 111.081 139.999 110.671C140.006 110.235 139.998 109.798 139.998 109.361C139.998 107.514 139.985 105.667 140.009 103.82C140.013 103.443 140.11 102.763 140.245 102.744C140.833 102.662 141.451 102.758 142.054 102.82C142.147 102.83 142.223 103.006 142.326 103.129H142.331Z" fill="#FF8945"/>
<path d="M48.1882 102.682C49.0234 102.678 49.8025 102.315 50.4285 103.113C51.3521 102.525 52.3614 102.244 53.4829 102.5C54.6859 102.773 55.4986 103.444 55.6839 104.645C55.8075 105.438 55.8173 106.251 55.8327 107.055C55.8552 108.199 55.8509 109.343 55.8327 110.487C55.8215 111.232 55.7668 111.266 54.9863 111.294C54.8824 111.298 54.7772 111.297 54.6719 111.294C53.7651 111.277 53.7174 111.245 53.7075 110.387C53.6935 109.142 53.7131 107.897 53.6963 106.652C53.6907 106.217 53.6612 105.774 53.5644 105.351C53.3931 104.601 53.0268 104.318 52.2744 104.251C51.4406 104.178 50.7935 104.449 50.5647 105.115C50.371 105.68 50.2727 106.294 50.2489 106.891C50.1997 108.101 50.2138 109.314 50.2348 110.525C50.2446 111.084 50.0187 111.34 49.4347 111.294C49.2958 111.283 49.1554 111.297 49.0164 111.294C48.1518 111.274 48.1209 111.256 48.1054 110.445C48.0886 109.637 48.1012 108.83 48.1012 108.023C48.1012 106.508 48.0984 104.995 48.1054 103.48C48.1054 103.25 48.1503 103.02 48.1854 102.685L48.1882 102.682Z" fill="#FF8945"/>
<path d="M10.2745 102.741C10.4654 102.699 10.6283 102.641 10.7967 102.627C12.2664 102.516 12.3127 102.561 12.3169 103.997C12.3211 105.341 12.2846 106.686 12.345 108.027C12.4011 109.257 13.3093 109.922 14.4351 109.655C15.2422 109.464 15.6577 108.982 15.6914 108.027C15.7377 106.718 15.718 105.407 15.7223 104.097C15.7265 102.524 15.8051 102.454 17.4432 102.649C17.5414 102.661 17.6327 102.721 17.8348 102.803C17.8348 103.672 17.8376 104.572 17.8348 105.473C17.8306 106.447 17.8601 107.424 17.8053 108.395C17.7197 109.913 16.8101 110.965 15.2997 111.388C14.2961 111.67 13.3009 111.647 12.3324 111.258C11.2277 110.813 10.377 110.035 10.3096 108.887C10.1889 106.854 10.2759 104.81 10.2759 102.742L10.2745 102.741Z" fill="#FF8945"/>
<path d="M35.6124 103.987C35.124 104.301 34.6958 104.576 34.2242 104.881C33.9898 104.727 33.782 104.552 33.5434 104.445C33.2978 104.335 32.996 104.192 32.7658 104.246C32.5061 104.307 32.2043 104.533 32.1018 104.762C32.0387 104.903 32.259 105.274 32.4513 105.386C33.0423 105.736 33.6866 106.001 34.3 106.317C35.6349 107.003 36.1346 107.837 35.9521 109.051C35.7612 110.327 34.7927 111.262 33.4044 111.507C31.6246 111.823 30.3458 111.141 29.6426 109.422C30.1367 109.174 30.6434 108.919 31.1768 108.651C31.4224 108.945 31.5937 109.196 31.8113 109.4C32.3391 109.893 33.156 109.873 33.5757 109.379C33.9982 108.882 33.8424 108.296 33.1153 107.889C32.5763 107.585 31.9839 107.372 31.4337 107.084C30.3205 106.501 29.9135 105.805 30.0693 104.72C30.2265 103.62 30.8596 102.875 31.9699 102.547C33.4466 102.111 34.7548 102.601 35.611 103.986L35.6124 103.987Z" fill="#FF8945"/>
<path d="M76.8739 107.405C77.514 106.041 78.1358 104.909 78.5765 103.716C78.926 102.769 79.5282 102.49 80.4687 102.616C80.734 102.651 81.0007 102.677 81.4625 102.73C79.9325 105.778 78.4601 108.711 76.9876 111.645C76.8992 111.653 76.8107 111.66 76.7223 111.668C75.2442 108.739 73.7675 105.81 72.2585 102.819C73.0123 102.502 73.6749 102.581 74.3009 102.681C74.5255 102.717 74.7515 103.064 74.875 103.315C75.4169 104.404 75.9194 105.512 76.4401 106.611C76.5384 106.817 76.6577 107.015 76.8711 107.405H76.8739Z" fill="#FF8945"/>
<path d="M106.423 104.46C105.829 104.518 105.419 104.559 104.897 104.61C104.876 104.941 104.838 105.265 104.837 105.587C104.83 107.131 104.838 108.677 104.833 110.221C104.828 111.285 104.81 111.298 103.729 111.293C103.453 111.292 103.178 111.266 102.734 111.241C102.665 109.036 102.742 106.84 102.69 104.675C101.637 104.483 101.112 104.106 101.117 103.545C101.122 103.014 101.647 102.664 102.693 102.493V99.3283C102.883 99.2186 102.938 99.1604 102.998 99.155C104.221 99.052 104.833 99.5912 104.833 100.772C104.833 101.008 104.833 101.243 104.833 101.478C104.838 102.459 104.837 102.477 105.856 102.618C106.239 102.67 106.422 102.826 106.42 103.191C106.42 103.586 106.42 103.98 106.42 104.461L106.423 104.46Z" fill="#FF8945"/>
<path d="M64.4654 103.096C65.9253 102.227 66.8433 102.187 67.9929 102.944C67.7557 103.467 67.5101 104.006 67.263 104.552C67.0454 104.529 66.9093 104.525 66.7787 104.501C65.215 104.209 64.3854 104.805 64.2942 106.357C64.2395 107.293 64.276 108.233 64.2732 109.172C64.2732 109.54 64.2774 109.91 64.2732 110.278C64.2591 111.279 64.2451 111.292 63.2204 111.294C62.1929 111.297 62.1564 111.274 62.1522 110.296C62.1438 108.116 62.1395 105.938 62.1592 103.758C62.162 103.388 61.9445 102.83 62.4624 102.703C63.0337 102.562 63.6892 102.42 64.2381 102.866C64.3125 102.926 64.3742 103.001 64.4668 103.096H64.4654Z" fill="#FF8945"/>
<path d="M113.234 104.544C110.937 104.197 110.279 104.754 110.266 106.932C110.259 108.076 110.273 109.22 110.261 110.364C110.251 111.247 110.211 111.274 109.323 111.294C108.179 111.32 108.138 111.289 108.135 110.204C108.13 108.017 108.131 105.831 108.137 103.645C108.137 103.351 108.176 103.057 108.196 102.786C109.428 102.492 109.779 102.536 110.388 103.044C110.85 102.853 111.304 102.564 111.793 102.492C112.325 102.413 112.895 102.503 113.437 102.587C113.853 102.65 114.025 102.917 113.819 103.329C113.624 103.72 113.439 104.117 113.234 104.544Z" fill="#FF8945"/>
<path d="M93.7041 111.157C91.628 111.507 91.555 111.45 91.555 109.659C91.555 107.707 91.5424 105.756 91.5662 103.805C91.5705 103.41 91.3206 102.795 91.9382 102.693C92.5685 102.589 93.3363 102.306 93.8486 103.113C94.6572 102.517 95.5527 102.242 96.5718 102.498C97.341 102.69 97.4295 102.835 97.1249 103.545C96.9803 103.881 96.8034 104.204 96.6406 104.534C96.4764 104.534 96.3725 104.552 96.2756 104.531C94.6249 104.189 93.7799 104.779 93.7223 106.386C93.6788 107.596 93.7083 108.808 93.7055 110.019C93.7055 110.384 93.7055 110.747 93.7055 111.159L93.7041 111.157Z" fill="#FF8945"/>
<path d="M69.0667 102.695H71.1006C71.1399 102.996 71.1961 103.225 71.1961 103.452C71.2031 105.765 71.2115 108.077 71.1848 110.389C71.182 110.677 71.0094 111.183 70.8522 111.206C70.323 111.288 69.7657 111.209 69.2225 111.158C69.1593 111.152 69.0737 110.933 69.0723 110.812C69.0639 108.138 69.0653 105.462 69.0653 102.695H69.0667Z" fill="#FF8945"/>
<path d="M137.864 102.683C137.894 103.029 137.936 103.293 137.937 103.556C137.943 105.809 137.95 108.063 137.929 110.316C137.926 110.621 137.809 111.16 137.666 111.186C137.137 111.282 136.571 111.233 136.027 111.176C135.938 111.167 135.826 110.839 135.826 110.658C135.812 108.203 135.822 105.747 135.812 103.292C135.811 102.829 136.003 102.597 136.491 102.62C136.935 102.641 137.379 102.661 137.866 102.683H137.864Z" fill="#FF8945"/>
<path d="M70.0929 101.562C69.3433 101.539 68.7916 100.986 68.7944 100.263C68.7973 99.499 69.4191 98.9138 70.1911 98.9477C70.9519 98.9816 71.5583 99.6332 71.5036 100.362C71.4516 101.065 70.8396 101.587 70.0914 101.564L70.0929 101.562Z" fill="#FF8945"/>
<path d="M136.891 98.9464C137.652 98.9545 138.263 99.579 138.229 100.316C138.197 101.031 137.621 101.561 136.877 101.56C136.093 101.56 135.516 100.969 135.552 100.202C135.586 99.4842 136.168 98.9383 136.891 98.9464Z" fill="#FF8945"/>
<path d="M83.5401 42.3581C81.6227 42.3581 79.7052 42.3649 77.7892 42.3554C76.8642 42.35 76.8417 42.331 76.8389 41.4491C76.8291 39.0283 76.8291 36.6075 76.8389 34.1867C76.8431 33.3657 76.8866 33.317 77.7218 33.3142C81.6255 33.3048 85.5291 33.3048 89.4342 33.3142C90.2792 33.3156 90.3325 33.3684 90.3367 34.1718C90.3494 36.5926 90.348 39.0134 90.3367 41.4342C90.3325 42.3202 90.3045 42.3486 89.3963 42.3541C87.4437 42.3649 85.4926 42.3581 83.5401 42.3581Z" fill="#FF8945"/>
</svg>
