<svg width="166" height="64" viewBox="0 0 166 64" fill="none" xmlns="http://www.w3.org/2000/svg">
<path d="M31.743 57.0089C37.5111 57.0669 43.2785 56.8332 49.023 56.3089C54.083 55.8089 55.733 53.5389 56.183 49.1489C56.7147 43.3883 56.9417 37.6035 56.863 31.8189C56.9256 26.0379 56.6986 20.2573 56.183 14.4989C55.743 10.0789 54.183 7.82892 49.023 7.32892C41.233 6.57892 33.363 6.66892 31.743 6.66892C30.123 6.66892 22.253 6.55892 14.463 7.32892C9.19302 7.85892 7.72302 10.3289 7.30302 14.4989C6.78311 20.257 6.55615 26.0378 6.62302 31.8189C6.53897 37.6036 6.76597 43.3886 7.30302 49.1489C7.77302 53.6189 9.49302 55.8189 14.463 56.3089C22.253 57.0689 30.163 56.9789 31.743 56.9789V63.5389C24.8792 63.6228 18.0159 63.3357 11.183 62.6789C8.50301 62.3124 6.02543 61.0513 4.15216 59.0999C2.2789 57.1486 1.11985 54.6217 0.863023 51.9289C0.194108 45.2475 -0.0863638 38.5329 0.0230227 31.8189C-0.0694929 25.1052 0.210939 18.3915 0.863023 11.7089C1.16728 9.03882 2.34323 6.54347 4.20884 4.60917C6.07445 2.67486 8.52566 1.40949 11.183 1.00892C18.0109 0.273574 24.876 -0.0603337 31.743 0.0089242C38.6097 -0.0432663 45.4738 0.290594 52.303 1.00892C58.143 1.68892 62.143 6.93892 62.623 11.7589C63.2572 18.4427 63.5309 25.1557 63.443 31.8689C63.5617 38.5825 63.2879 45.2973 62.623 51.9789C62.3677 54.6671 61.2079 57.1892 59.3334 59.1328C57.4588 61.0764 54.9803 62.3266 52.303 62.6789C45.4695 63.3262 38.6067 63.6133 31.743 63.5389V57.0089Z" fill="#FF8945"/>
<path d="M37.4231 11.1489L37.8231 19.9189H50.7331C51.0525 19.9376 51.3729 19.9073 51.6831 19.8289C52.2831 33.4789 51.8031 37.7489 51.5631 46.5189L45.6431 46.8689C45.8831 43.0789 45.9431 39.6689 45.9431 37.5889L43.7831 37.6489C43.6664 37.6363 43.5485 37.6571 43.4431 37.7089L43.1531 29.4189H38.1531L38.8931 53.0089C34.1295 53.249 29.3567 53.249 24.5931 53.0089L25.4131 29.3989H20.3331L20.0231 37.7089C19.9174 37.6581 19.7998 37.6374 19.6831 37.6489L17.5131 37.5889C17.5131 39.6689 17.5731 43.0789 17.8131 46.8689L11.8931 46.5189C11.6531 37.7489 11.1831 33.5189 11.7731 19.8289C12.0994 19.9125 12.4371 19.9429 12.7731 19.9189H25.7731L25.9331 15.0589L20.9331 15.2589C21.0296 15.0295 21.0903 14.7867 21.1131 14.5389L21.3131 11.1989C21.3157 10.9454 21.2682 10.6939 21.1731 10.4589C26.9431 10.2189 30.9831 10.0789 37.5731 10.3189C37.4931 10.7789 37.4231 11.0089 37.4231 11.1489Z" fill="#FF8945"/>
<path d="M125.543 13.7991C125.543 12.6291 125.543 11.4291 125.543 10.4291C125.543 8.10914 124.313 6.61914 121.683 6.61914C118.863 6.61914 117.683 7.97914 117.763 10.4091H120.223C120.283 9.30914 120.123 8.30914 121.593 8.30914C123.063 8.30914 123.003 9.30914 123.073 10.3891C123.124 10.7507 123.124 11.1176 123.073 11.4791C121.954 11.5158 120.843 11.6836 119.763 11.9791C118.523 12.3991 117.513 13.2691 117.513 15.4891C117.513 17.3991 117.893 19.2491 120.383 19.4091C120.887 19.4283 121.389 19.3288 121.847 19.1187C122.306 18.9085 122.709 18.5935 123.023 18.1991C123.023 18.1991 123.153 18.1991 123.283 19.1991H125.663C125.663 19.1991 125.573 16.8891 125.573 14.4891H123.123C123.123 14.7391 123.123 14.9891 123.123 15.2191C123.023 16.1391 122.733 17.4191 121.263 17.4191C119.793 17.4191 119.893 15.8591 120.073 14.6791C120.253 13.4991 121.443 13.2491 123.153 13.1691C123.153 13.1691 123.153 13.4191 123.153 13.7791" fill="#FF8945"/>
<path d="M125.543 13.799C125.543 14.029 125.543 14.249 125.543 14.479H123.093V13.769" fill="#FF8945"/>
<path d="M116.463 6.80908H113.983V19.1991H116.473L116.463 6.80908Z" fill="#FF8945"/>
<path d="M93.3932 13.7991C93.3932 12.6291 93.3932 11.4291 93.3932 10.4291C93.3932 8.10914 92.1632 6.61914 89.5232 6.61914C86.7132 6.61914 85.5232 7.97914 85.6132 10.4091H88.0232C88.0232 9.30914 87.9232 8.30914 89.3932 8.30914C90.8632 8.30914 90.8032 9.30914 90.8732 10.3891C90.924 10.7507 90.924 11.1176 90.8732 11.4791C89.7541 11.5158 88.6432 11.6836 87.5632 11.9791C86.3232 12.3991 85.3032 13.2691 85.3032 15.4891C85.3032 17.3991 85.6932 19.2491 88.1732 19.4091C88.6771 19.4268 89.1781 19.3265 89.6364 19.1165C90.0947 18.9064 90.4977 18.5923 90.8132 18.1991C90.8132 18.1991 90.9432 18.1991 91.0732 19.1991H93.4532C93.4532 19.1991 93.3532 16.8891 93.3632 14.4891H90.9032C90.9032 14.7391 90.9032 14.9891 90.9032 15.2191C90.8032 16.1391 90.5132 17.4191 89.0432 17.4191C87.5732 17.4191 87.6732 15.8591 87.8432 14.6791C88.0132 13.4991 89.2132 13.2491 90.9232 13.1691C90.9232 13.1691 90.9232 13.4191 90.9232 13.7791" fill="#FF8945"/>
<path d="M93.3931 13.799V14.479H90.9331C90.9331 14.229 90.9331 13.989 90.9331 13.769" fill="#FF8945"/>
<path d="M97.1331 6.80873H94.6431C94.7756 7.80298 94.8324 8.80587 94.8131 9.80873V19.2487H97.3331V10.0087C97.3331 9.15873 97.6631 8.29873 98.8231 8.29873C99.035 8.29484 99.2454 8.33591 99.4403 8.41924C99.6352 8.50257 99.8102 8.62626 99.9538 8.78217C100.097 8.93807 100.206 9.12265 100.273 9.32373C100.341 9.52481 100.364 9.73782 100.343 9.94873V19.2187H102.883V10.2187C102.883 7.62873 101.673 6.60873 99.7331 6.60873C99.2668 6.5795 98.7998 6.65403 98.3658 6.82694C97.9318 6.99986 97.5415 7.26686 97.2231 7.60873C97.1551 7.34771 97.1248 7.07832 97.1331 6.80873Z" fill="#FF8945"/>
<path d="M109.903 12.6388V10.0088C109.93 9.78063 109.906 9.54932 109.834 9.33137C109.761 9.11343 109.641 8.91422 109.483 8.74799C109.324 8.58176 109.131 8.45261 108.916 8.36977C108.702 8.28693 108.472 8.25244 108.243 8.26877C106.803 8.26877 106.613 9.26877 106.613 12.7188C106.613 15.3788 106.473 17.5688 108.233 17.5688C109.993 17.5688 109.903 15.8088 109.903 14.4088V12.6388H112.403V14.4588C112.403 16.8888 112.523 19.1688 112.523 19.1688H110.113C110.105 18.7955 110.044 18.4252 109.933 18.0688C109.644 18.4166 109.284 18.6983 108.877 18.895C108.47 19.0916 108.025 19.1987 107.573 19.2088C104.383 19.2088 104.313 16.4588 104.233 15.4188C104.133 13.4467 104.133 11.4708 104.233 9.49877C104.286 8.68949 104.643 7.93029 105.233 7.37375C105.823 6.81722 106.602 6.50461 107.413 6.49877C108.325 6.4972 109.211 6.80771 109.923 7.37877V2.23877H112.383C112.383 3.60877 112.383 9.41877 112.383 12.6688L109.903 12.6388Z" fill="#FF8945"/>
<path d="M84.5031 6.81896C84.5031 5.27896 84.5031 1.68896 79.7031 1.68896C74.9031 1.68896 74.8731 5.26896 74.8731 6.06896C74.8731 7.17896 74.7431 9.06896 77.8131 10.799L80.2731 12.179C80.8358 12.4 81.3151 12.7919 81.6433 13.2996C81.9716 13.8073 82.1324 14.4051 82.1031 15.009C82.1359 15.3213 82.1017 15.6371 82.0029 15.9352C81.904 16.2333 81.7428 16.5069 81.5299 16.7377C81.317 16.9686 81.0573 17.1515 80.7682 17.2741C80.479 17.3968 80.1671 17.4564 79.8531 17.449C79.5444 17.498 79.2287 17.4796 78.9276 17.3953C78.6266 17.311 78.3474 17.1626 78.109 16.9603C77.8707 16.758 77.6788 16.5067 77.5466 16.2234C77.4144 15.9401 77.345 15.6316 77.3431 15.319C77.2733 14.8087 77.2399 14.294 77.2431 13.779H74.4431C74.4431 13.779 74.3431 16.779 75.6731 18.079C76.2044 18.5803 76.8348 18.9648 77.5238 19.2076C78.2127 19.4505 78.9449 19.5463 79.6731 19.489C80.3834 19.5472 81.0982 19.4622 81.7751 19.2389C82.4519 19.0156 83.0769 18.6585 83.6131 18.189C84.0322 17.7366 84.3547 17.2036 84.5611 16.6225C84.7674 16.0414 84.8531 15.4243 84.8131 14.809C84.8131 13.279 84.4531 11.539 81.8831 10.019C81.0631 9.53896 80.1831 9.09897 79.2731 8.59897C78.7578 8.38666 78.3158 8.02843 78.0013 7.5683C77.6869 7.10816 77.5137 6.56618 77.5031 6.00897C77.4725 5.71491 77.5058 5.4177 77.6008 5.13772C77.6958 4.85775 77.8502 4.60164 78.0535 4.38696C78.2568 4.17228 78.5041 4.00411 78.7785 3.89399C79.0529 3.78387 79.3478 3.73439 79.6431 3.74896C79.9336 3.71535 80.2279 3.74888 80.5034 3.84699C80.7789 3.94509 81.0282 4.10514 81.232 4.31479C81.4359 4.52445 81.5889 4.77812 81.6793 5.05625C81.7696 5.33437 81.7949 5.62953 81.7531 5.91896C81.7531 6.11896 81.7531 6.85896 81.7531 6.85896L84.5031 6.81896Z" fill="#FF8945"/>
<path d="M116.483 2.21875H113.983V4.71875H116.483V2.21875Z" fill="#FF8945"/>
<path d="M131.613 34.8587C131.613 33.6887 131.613 32.4887 131.613 31.4887C131.613 29.1687 130.393 27.6787 127.753 27.6787C124.943 27.6787 123.753 29.0387 123.843 31.4587H126.293C126.353 30.3587 126.193 29.3687 127.663 29.3687C129.133 29.3687 129.073 30.3687 129.153 31.4487C129.204 31.8069 129.204 32.1705 129.153 32.5287C128.031 32.5658 126.916 32.7336 125.833 33.0287C124.593 33.4587 123.583 34.3287 123.583 36.5387C123.583 38.4487 123.973 40.3087 126.453 40.4687C126.946 40.4728 127.433 40.3651 127.878 40.1538C128.323 39.9425 128.715 39.6331 129.023 39.2487C129.023 39.2487 129.153 39.2487 129.283 40.2487H131.663C131.663 40.2487 131.563 37.9387 131.573 35.5387H129.113C129.113 35.7887 129.113 36.0387 129.113 36.2687C129.013 37.1787 128.733 38.4687 127.263 38.4687C125.793 38.4687 125.893 36.9087 126.063 35.7287C126.233 34.5487 127.433 34.2987 129.143 34.2187C129.143 34.2187 129.143 34.4687 129.143 34.8287" fill="#FF8945"/>
<path d="M131.613 34.8586V35.5386H129.153C129.153 35.2886 129.153 35.0486 129.153 34.8286" fill="#FF8945"/>
<path d="M94.153 34.8587C94.153 33.6887 94.153 32.4887 94.153 31.4887C94.153 29.1687 92.933 27.6787 90.293 27.6787C87.483 27.6787 86.293 29.0387 86.383 31.4587H88.833C88.893 30.3587 88.733 29.3687 90.203 29.3687C91.673 29.3687 91.613 30.3687 91.693 31.4487C91.7437 31.8069 91.7437 32.1705 91.693 32.5287C90.574 32.5654 89.463 32.7332 88.383 33.0287C87.133 33.4587 86.123 34.3287 86.123 36.5387C86.123 38.4487 86.513 40.3087 88.993 40.4687C89.4975 40.4836 89.9985 40.3811 90.4566 40.1694C90.9148 39.9577 91.3175 39.6425 91.633 39.2487C91.633 39.2487 91.7631 39.2487 91.8931 40.2487H94.273C94.273 40.2487 94.1731 37.9387 94.1831 35.5387H91.723C91.723 35.7887 91.723 36.0387 91.723 36.2687C91.623 37.1787 91.343 38.4687 89.873 38.4687C88.403 38.4687 88.503 36.9087 88.673 35.7287C88.843 34.5487 90.0431 34.2987 91.7531 34.2187C91.7531 34.2187 91.7531 34.4687 91.7531 34.8287" fill="#FF8945"/>
<path d="M94.1529 34.8586V35.5386H91.6929C91.6929 35.2886 91.6929 35.0486 91.6929 34.8286" fill="#FF8945"/>
<path d="M110.813 33.2489C110.813 33.6889 110.813 34.1089 110.813 34.4789C110.813 35.3289 110.813 35.8889 110.813 36.7489C110.813 37.9189 110.433 38.6989 109.163 38.7489C107.893 38.7989 107.463 37.9689 107.473 36.8089C107.473 35.1089 107.473 33.5889 107.473 31.6589C107.473 29.7289 108.403 29.5289 108.983 29.5189C109.983 29.5189 110.773 29.6789 110.793 31.5889C110.793 32.1289 110.793 32.7089 110.793 33.2689L113.293 33.2089C113.294 32.4301 113.247 31.652 113.153 30.8789C112.753 28.5589 111.053 27.7589 108.973 27.7889C106.893 27.8189 105.443 28.6589 105.103 30.9889C104.916 33.2063 104.943 35.4366 105.183 37.6489C105.453 39.1889 106.663 40.5189 109.183 40.4889C111.703 40.4589 113.003 39.2189 113.183 37.4389C113.263 36.5889 113.323 35.5589 113.333 34.3289V33.1889L110.813 33.2489Z" fill="#FF8945"/>
<path d="M78.5529 23.2788H74.4429V40.2588H76.9829V26.6788L80.6629 40.2588H84.8329V23.2788H82.2929V36.6388L78.5529 23.2788Z" fill="#FF8945"/>
<path d="M98.4729 29.6387H100.283V27.8687H98.4729V24.6587L96.073 25.6587V27.8687H94.5229V29.6387H96.073V37.6387C96.073 38.6387 96.073 40.2387 98.783 40.2387H100.353V38.5787H99.2729C98.8729 38.5787 98.4729 38.4287 98.4729 37.2187V29.6387Z" fill="#FF8945"/>
<path d="M103.703 27.8691H101.213V40.2591H103.713L103.703 27.8691Z" fill="#FF8945"/>
<path d="M103.713 23.2788H101.213V25.7888H103.713V23.2788Z" fill="#FF8945"/>
<path d="M116.803 27.8687H114.313C114.443 28.8465 114.5 29.8325 114.483 30.8187V40.2687H117.023V31.0087C117.023 30.1587 117.353 29.2987 118.513 29.2987C118.729 29.2968 118.943 29.3414 119.141 29.4295C119.339 29.5175 119.515 29.647 119.658 29.8092C119.801 29.9713 119.908 30.1623 119.971 30.3693C120.034 30.5763 120.052 30.7943 120.023 31.0087V40.2887H122.553V31.2887C122.553 28.6887 121.343 27.6787 119.403 27.6787C118.937 27.653 118.471 27.7291 118.038 27.9018C117.604 28.0745 117.214 28.3396 116.893 28.6787C116.823 28.4146 116.793 28.1417 116.803 27.8687Z" fill="#FF8945"/>
<path d="M135.863 23.2891H133.243V40.2591H135.863V23.2891Z" fill="#FF8945"/>
<path d="M135.713 54.3388C135.713 54.7788 135.713 55.2088 135.713 55.5688C135.713 56.4288 135.713 56.9888 135.713 57.8488C135.713 59.0088 135.333 59.7988 134.063 59.8488C132.793 59.8988 132.363 59.0788 132.373 57.9088C132.373 56.2188 132.373 54.6888 132.373 52.7688C132.373 50.8488 133.293 50.6288 133.873 50.6188C134.873 50.6188 135.663 50.7788 135.683 52.6888C135.683 53.2288 135.683 53.8088 135.683 54.3688L138.183 54.3088C138.183 53.53 138.136 52.7519 138.043 51.9788C137.643 49.6588 135.953 48.8688 133.863 48.8988C131.773 48.9288 130.333 49.7588 129.993 52.0888C129.806 54.3062 129.833 56.5365 130.073 58.7488C130.343 60.2888 131.553 61.6188 134.073 61.5888C136.593 61.5588 137.893 60.3188 138.073 58.5888C138.163 57.7388 138.213 56.7088 138.223 55.4788V54.2788L135.713 54.3388Z" fill="#FF8945"/>
<path d="M106.023 54.3388C106.023 54.7788 106.023 55.2088 106.023 55.5688C106.023 56.4288 106.023 56.9888 106.023 57.8488C106.023 59.0088 105.643 59.7988 104.373 59.8488C103.103 59.8988 102.673 59.0788 102.683 57.9088C102.683 56.2188 102.683 54.6888 102.683 52.7688C102.683 50.8488 103.603 50.6288 104.183 50.6188C105.183 50.6188 105.973 50.7788 105.993 52.6888C105.993 53.2288 105.993 53.8088 105.993 54.3688L108.493 54.3088C108.493 53.53 108.446 52.7519 108.353 51.9788C107.953 49.6588 106.263 48.8688 104.173 48.8988C102.083 48.9288 100.643 49.7588 100.303 52.0888C100.116 54.3062 100.143 56.5365 100.383 58.7488C100.653 60.2888 101.863 61.6188 104.383 61.5888C106.903 61.5588 108.203 60.3188 108.383 58.5888C108.463 57.7388 108.523 56.7088 108.533 55.4788V54.2788L106.023 54.3388Z" fill="#FF8945"/>
<path d="M123.023 55.9488C123.023 54.7788 123.023 53.5788 123.023 52.5788C123.023 50.2588 121.793 48.7788 119.153 48.7788C116.343 48.7788 115.153 50.1288 115.243 52.5588H117.703C117.753 51.4588 117.603 50.4588 119.073 50.4588C120.543 50.4588 120.483 51.4588 120.553 52.5388C120.604 52.9004 120.604 53.2672 120.553 53.6288C119.434 53.6655 118.323 53.8333 117.243 54.1288C116.003 54.5488 114.983 55.4188 114.983 57.6388C114.983 59.5488 115.373 61.3988 117.853 61.5588C118.357 61.5764 118.858 61.4762 119.316 61.2662C119.774 61.0561 120.177 60.742 120.493 60.3488C120.493 60.3488 120.623 60.3488 120.753 61.3488H123.023C123.023 61.3488 122.933 59.0288 122.933 56.6288H120.473C120.473 56.8788 120.473 57.1288 120.473 57.3488C120.373 58.2688 120.083 59.5488 118.613 59.5488C117.143 59.5488 117.243 57.9988 117.413 56.8088C117.583 55.6188 118.783 55.3788 120.493 55.2988C120.493 55.2988 120.493 55.5488 120.493 55.9088" fill="#FF8945"/>
<path d="M123.023 55.9487C123.023 56.1787 123.023 56.4087 123.023 56.6287H120.563C120.563 56.3787 120.563 56.1287 120.563 55.9087" fill="#FF8945"/>
<path d="M89.2532 55.9488C89.2532 54.7788 89.2532 53.5788 89.2532 52.5788C89.2532 50.2588 88.0231 48.7788 85.3831 48.7788C82.5731 48.7788 81.3831 50.1288 81.4731 52.5588H83.9332C83.9332 51.4588 83.8331 50.4588 85.3031 50.4588C86.7731 50.4588 86.7131 51.4588 86.7831 52.5388C86.8339 52.9004 86.8339 53.2672 86.7831 53.6288C85.6641 53.6655 84.5531 53.8333 83.4731 54.1288C82.2331 54.5488 81.2231 55.4188 81.2231 57.6388C81.2231 59.5488 81.6031 61.3988 84.0831 61.5588C84.5871 61.5772 85.0884 61.4774 85.5468 61.2672C86.0052 61.0571 86.4081 60.7426 86.7231 60.3488C86.7231 60.3488 86.8531 60.3488 86.9831 61.3488H89.3631C89.3631 61.3488 89.2731 59.0288 89.2731 56.6288H86.8131C86.8131 56.8788 86.8131 57.1288 86.8131 57.3488C86.7131 58.2688 86.4231 59.5488 84.9531 59.5488C83.4831 59.5488 83.5231 58.0088 83.6931 56.8488C83.8631 55.6888 85.0631 55.4188 86.7731 55.3388C86.7731 55.3388 86.7731 55.5888 86.7731 55.9488" fill="#FF8945"/>
<path d="M89.253 55.9487V56.6287H86.793C86.793 56.3787 86.793 56.1287 86.793 55.9087" fill="#FF8945"/>
<path d="M147.463 48.9688H144.983V61.3488H147.473L147.463 48.9688Z" fill="#FF8945"/>
<path d="M74.4429 61.3591H80.5429V59.2691H77.1429V44.3691H74.4429V61.3591Z" fill="#FF8945"/>
<path d="M96.5129 56.7389C96.5129 56.2089 96.5129 55.6389 96.5129 55.0289C96.5129 51.5789 96.403 50.5389 94.963 50.5389C94.7331 50.5269 94.5033 50.564 94.2889 50.6478C94.0745 50.7315 93.8804 50.86 93.7196 51.0246C93.5587 51.1893 93.4348 51.3863 93.3561 51.6026C93.2773 51.8189 93.2456 52.0494 93.2629 52.2789V57.0989C93.2629 57.7489 93.1329 59.8389 94.9829 59.8389C96.4529 59.8389 96.5729 58.5489 96.5429 56.7389H98.9729C98.9729 57.1889 98.9729 57.5689 98.9129 57.8089C98.7729 58.9589 98.6329 61.5589 95.5929 61.5589C95.1334 61.5508 94.6808 61.4449 94.2653 61.2483C93.8497 61.0518 93.4808 60.769 93.183 60.4189C93.0734 60.7418 93.0094 61.0784 92.993 61.4189H90.5229C90.6828 60.4273 90.7531 59.4232 90.7329 58.4189V44.4189H93.1929V49.8189C93.898 49.2392 94.7802 48.9181 95.6929 48.9089C96.491 48.9025 97.2609 49.203 97.8435 49.7484C98.4261 50.2938 98.7768 51.0422 98.823 51.8389C98.923 52.7789 98.9829 55.1889 98.9529 56.7289L96.5129 56.7389Z" fill="#FF8945"/>
<path d="M114.763 48.8691C112.643 48.7791 112.383 50.5391 112.063 50.5491C112.063 50.5491 111.983 49.4791 111.893 48.9591H109.533C109.667 49.9096 109.723 50.8694 109.703 51.8291V61.3591H112.233V53.1891C112.194 52.8856 112.225 52.5771 112.324 52.2875C112.422 51.9978 112.586 51.7347 112.802 51.5183C113.019 51.3019 113.282 51.1381 113.572 51.0394C113.861 50.9407 114.17 50.9098 114.473 50.9491L114.763 48.8691Z" fill="#FF8945"/>
<path d="M127.423 50.739H129.233V49.009H127.423V45.749L125.023 46.749V49.009H123.473V50.779H125.023V58.779C125.023 59.779 125.023 61.379 127.743 61.379H129.313V59.669H128.223C127.823 59.669 127.423 59.529 127.423 58.309V50.739Z" fill="#FF8945"/>
<path d="M144.203 48.8691C142.343 48.9391 142.093 50.5391 141.783 50.5491C141.783 50.5491 141.703 49.4791 141.613 48.9591H139.253C139.394 49.909 139.454 50.8691 139.433 51.8291V61.3591H141.953V53.1891C141.914 52.8857 141.945 52.5772 142.043 52.2876C142.142 51.9979 142.306 51.7348 142.522 51.5184C142.739 51.302 143.002 51.1382 143.291 51.0395C143.581 50.9408 143.889 50.9099 144.193 50.9491L144.203 48.8691Z" fill="#FF8945"/>
<path d="M147.463 44.3789H144.983V46.8789H147.463V44.3789Z" fill="#FF8945"/>
<path d="M152.433 54.1291H151.023C151.023 53.6791 151.023 53.1991 151.023 52.6891C151.083 50.6891 151.923 50.5891 152.603 50.5891C153.603 50.5891 154.223 51.0091 154.223 52.9191C154.223 53.1291 154.223 53.8591 154.223 54.1291H152.473V55.8391H156.763C156.805 54.565 156.772 53.2894 156.663 52.0191C156.303 49.6891 154.733 48.8691 152.663 48.8691C150.593 48.8691 149.123 49.6891 148.753 52.0191C148.577 54.2134 148.601 56.4191 148.823 58.6091C148.966 59.5016 149.441 60.3069 150.154 60.8633C150.866 61.4197 151.762 61.6862 152.663 61.6091C155.143 61.6091 156.433 60.3591 156.663 58.6091C156.663 58.1591 156.723 58.0491 156.733 57.6091H154.243C154.243 58.4691 154.243 57.7491 154.243 58.0591C154.183 59.2191 153.973 59.8991 152.703 59.8991C151.433 59.8991 151.263 58.9691 151.233 57.7891C151.233 57.1391 151.233 56.5291 151.163 55.9191H152.533L152.433 54.1291Z" fill="#FF8945"/>
<path d="M165.083 52.6889C165.083 51.2289 165.183 48.8389 161.443 48.8389C158.243 48.8389 157.643 50.9089 157.643 52.0089C157.608 52.5149 157.704 53.0215 157.923 53.479C158.142 53.9365 158.477 54.3292 158.893 54.6189C159.593 55.2689 161.103 56.2889 161.783 56.7789C162.092 56.9753 162.35 57.2431 162.535 57.5598C162.719 57.8765 162.825 58.2328 162.843 58.5989C162.847 58.7751 162.814 58.9503 162.744 59.1122C162.674 59.2742 162.57 59.4191 162.439 59.5369C162.308 59.6548 162.153 59.7428 161.984 59.7949C161.816 59.8471 161.638 59.862 161.463 59.8389C160.533 59.8389 159.973 59.4789 159.893 58.5389C159.893 58.1789 159.833 57.8789 159.833 57.5389H157.433C157.323 58.4331 157.476 59.34 157.873 60.1489C158.583 61.2389 160.163 61.5789 161.543 61.5789C162.581 61.6527 163.607 61.3191 164.403 60.6489C164.716 60.3303 164.953 59.9459 165.099 59.5238C165.244 59.1017 165.293 58.6524 165.243 58.2089C165.27 57.6079 165.132 57.0111 164.845 56.4825C164.558 55.9539 164.132 55.5136 163.613 55.2089C163.073 54.7889 161.933 54.0189 161.323 53.6189C160.713 53.2189 160.093 52.6789 160.093 51.8589C160.093 51.0389 160.503 50.6289 161.403 50.6289C162.303 50.6289 162.623 51.1889 162.623 52.1689C162.623 52.3089 162.623 52.7289 162.623 52.7289L165.083 52.6889Z" fill="#FF8945"/>
</svg>
