<svg width="171" height="51" viewBox="0 0 171 51" fill="none" xmlns="http://www.w3.org/2000/svg">
<path fill-rule="evenodd" clip-rule="evenodd" d="M37.7834 7.43311H44.005C49.539 7.43311 54.0318 11.9259 54.0318 17.4599V39.337C54.0318 44.871 49.539 49.3638 44.005 49.3638H43.5147C40.6665 48.9183 39.4312 48.0641 38.477 47.3421L30.5667 40.8381C30.3685 40.6779 30.1213 40.5904 29.8664 40.5904C29.6116 40.5904 29.3644 40.6779 29.1662 40.8381L26.5964 42.9513L19.3586 37.0001C19.1607 36.8395 18.9136 36.7519 18.6587 36.7519C18.4039 36.7519 18.1567 36.8395 17.9588 37.0001L7.90375 45.8456C5.8801 47.4915 4.54153 47.1875 3.6735 47.092C1.43136 45.252 0 42.4604 0 39.337V17.4599C0 11.9259 4.49283 7.43311 10.0274 7.43311H16.2353L16.2241 7.45811L16.0148 8.06817L15.9497 8.27744L15.668 9.52717L15.6292 9.74632L15.5054 10.998L15.489 11.3415L15.4864 11.462L15.4982 12.0358L15.5265 12.3721L15.5963 12.8986L15.6851 13.3724L15.7904 13.8088L15.9273 14.2813L16.2827 15.2816L16.3998 15.5817L17.0184 16.8887L17.2369 17.2901L17.9522 18.5181L18.226 18.961L19.2243 20.4312L19.3685 20.626L20.6676 22.3166L21.0874 22.8372L22.5708 24.5713L22.8755 24.9049L24.0982 26.2205L24.5826 26.7219L25.3828 27.5169L25.2222 27.6512L25.1222 27.7413C24.8504 27.9947 24.5924 28.2639 24.3509 28.5469C24.2349 28.6837 24.1242 28.8251 24.0192 28.9707C23.8591 29.193 23.7159 29.4271 23.5908 29.6709C23.5269 29.7975 23.4696 29.9273 23.4191 30.0598C23.2888 30.3984 23.2105 30.7547 23.1868 31.1167L23.1821 31.4293C23.1935 31.8701 23.2833 32.3053 23.4474 32.7146C23.6135 33.1295 23.8559 33.5096 24.1621 33.8353C24.3845 34.0722 24.6379 34.2789 24.9156 34.4487C25.1518 34.5935 25.4039 34.7126 25.6658 34.8034C26.2352 34.9964 26.8393 35.065 27.4374 35.0048H27.4407C27.951 34.9553 28.447 34.808 28.9017 34.5711C29.0978 34.4671 29.2847 34.3467 29.4597 34.2098C29.961 33.8197 30.3494 33.3031 30.5851 32.7133C30.7694 32.2533 30.8595 31.7617 30.8516 31.2668L30.8371 31.0081C30.8037 30.6665 30.7222 30.3313 30.595 30.0124C30.5398 29.8736 30.4772 29.7378 30.4074 29.6057C30.2778 29.3624 30.1305 29.129 29.9665 28.9075C29.8914 28.8061 29.8137 28.7067 29.7335 28.6094C29.4664 28.2905 29.1789 27.9894 28.8727 27.7078L28.6562 27.5235L29.0228 27.1616L30.5982 25.5163L31.1432 24.9181L31.9901 23.9652L32.5409 23.3209L33.3267 22.364L33.8585 21.6954L34.6396 20.651L35.0338 20.1107L35.5932 19.2743L36.0591 18.5615L36.937 17.0328L37.4392 16.0298L37.4536 15.9989L37.838 15.0684C37.843 15.0563 37.8474 15.044 37.8511 15.0315L38.2651 13.7403L38.3085 13.5521L38.4882 12.5241L38.5231 12.2458L38.5336 12.0753L38.5461 11.4317L38.5428 11.3119L38.5099 10.7354L38.4691 10.2879L38.2651 8.9974C38.2618 8.98029 38.2585 8.96318 38.2532 8.94607L37.9913 7.99183L37.9012 7.72662L37.7834 7.43311ZM40.7408 34.7145C40.1135 34.7234 39.5144 34.9765 39.0707 35.4202C38.6271 35.8638 38.374 36.4629 38.3651 37.0903C38.3743 37.7174 38.6276 38.3163 39.0711 38.7598C39.5147 39.2032 40.1137 39.4563 40.7408 39.4653C41.368 39.4562 41.967 39.203 42.4106 38.7596C42.8543 38.3162 43.1077 37.7174 43.1172 37.0903C43.1082 36.4629 42.8549 35.8637 42.4112 35.4201C41.9675 34.9765 41.3682 34.7234 40.7408 34.7145Z" fill="#FF8945"/>
<path fill-rule="evenodd" clip-rule="evenodd" d="M23.4539 48.5071L23.0347 48.8592C22.6473 49.179 22.1617 49.356 21.6593 49.3607H10.0261C7.70903 49.3636 5.46304 48.5607 3.67285 47.0896C4.54088 47.185 5.87945 47.4891 7.9031 45.8432L17.9569 36.9983C18.155 36.8383 18.402 36.7511 18.6567 36.7511C18.9114 36.7511 19.1585 36.8383 19.3566 36.9983L26.5937 42.9489L29.1629 40.8364C29.5703 40.5073 30.1567 40.5073 30.5634 40.8364L38.473 47.3397C39.4273 48.0616 40.6625 48.9152 43.5101 49.3607H38.2486C37.7837 49.3552 37.3321 49.2047 36.9568 48.9303L36.8647 48.8592L36.4744 48.5348C36.443 48.4969 36.4082 48.4618 36.3704 48.4302C35.9282 48.0596 30.3245 43.4174 30.3245 43.4174C30.206 43.3189 30.0568 43.2651 29.9027 43.2654C29.7487 43.2656 29.5996 43.3199 29.4815 43.4187C29.4815 43.4187 29.4953 43.4358 23.5336 48.4302C23.5051 48.4538 23.4785 48.4795 23.4539 48.5071ZM40.7369 34.7134C40.1105 34.7249 39.513 34.9788 39.0699 35.4217C38.6269 35.8647 38.3728 36.4621 38.3612 37.0885C38.3731 37.7148 38.6273 38.312 39.0703 38.7549C39.5133 39.1978 40.1106 39.4518 40.7369 39.4636C41.3632 39.4518 41.9605 39.1978 42.4035 38.7549C42.8465 38.312 43.1007 37.7148 43.1126 37.0885C43.101 36.4621 42.8469 35.8647 42.4039 35.4217C41.9608 34.9788 41.3633 34.7249 40.7369 34.7134ZM25.3802 27.5165L24.58 26.7215L24.0956 26.22L22.8728 24.9045L22.5681 24.5708L21.0855 22.8374L20.6656 22.3168L19.3665 20.6262L19.2224 20.4314L18.224 18.9612L17.9503 18.5183L17.2349 17.2903L17.0164 16.8888L16.3978 15.5825L16.2807 15.2824L15.926 14.2821L15.7891 13.8096L15.6838 13.3733L15.5949 12.8995L15.5252 12.373L15.4969 12.0367L15.485 11.4628L15.4877 11.3424L15.5041 10.9989L15.6279 9.74783L15.6667 9.52868L15.9483 8.27896L16.0128 8.06968L16.2221 7.45962L16.2892 7.30168L16.6222 6.56988L16.8532 6.13422L17.175 5.60379L17.4955 5.13127L17.7239 4.83118L17.9871 4.51398L18.2767 4.19546L18.5248 3.9467L19.1289 3.41496L19.5705 3.05366C19.581 3.04445 19.5922 3.03655 19.6034 3.02865L20.1259 2.67525L20.5412 2.4107L21.3296 1.99544C21.3415 1.9882 21.3553 1.98228 21.3678 1.97635L22.4852 1.5124L22.5886 1.47357L23.5823 1.18269L24.0021 1.08858L24.5694 0.97473L24.9459 0.917476L25.523 0.845743L25.9165 0.810864L26.6977 0.769404L27.0037 0.766113L27.5835 0.777959L27.7342 0.786514L28.5739 0.856273L29.6842 1.0129L29.8125 1.03988L30.9102 1.31299L31.2327 1.40907L31.5907 1.5328L32.027 1.69798L32.3718 1.84408L32.8786 2.08297L33.1977 2.24683L33.7716 2.58378L33.9855 2.7154L34.768 3.28663L34.9924 3.48142L35.5373 3.97763L35.5643 4.00461L36.0269 4.50082L36.1862 4.68048L36.7291 5.40175L36.8397 5.57417L37.2707 6.30203L37.4004 6.55145L37.6432 7.09438L37.8972 7.72813L37.9874 7.99334L38.2493 8.94758C38.254 8.96451 38.258 8.98164 38.2611 8.99891L38.4652 10.2894L38.506 10.7363L38.5389 11.3128L38.5422 11.4326L38.5296 12.0762L38.5191 12.2466L38.4842 12.525L38.3046 13.553L38.2611 13.7412L37.8472 15.0324C37.8434 15.0448 37.839 15.0571 37.834 15.0692L37.4497 15.9998L37.4352 16.0307L36.9331 17.033L36.0552 18.5617L35.5893 19.2745L35.0305 20.1109L34.6363 20.6512L33.8552 21.6956L33.3234 22.3642L32.5377 23.3204L31.9868 23.9647L31.1399 24.9176L30.595 25.5158L29.0195 27.1611L28.6536 27.523L28.8694 27.7073C29.1754 27.989 29.463 28.2897 29.7302 28.6089C29.8105 28.7063 29.8882 28.8057 29.9632 28.907C30.1271 29.1281 30.2745 29.3618 30.4041 29.6046C30.4739 29.7362 30.5364 29.8725 30.5917 30.0113C30.7174 30.3298 30.8023 30.6668 30.8339 31.007L30.8483 31.2656C30.8562 31.7605 30.7661 32.2528 30.5818 32.7121C30.3461 33.302 29.9577 33.8185 29.4565 34.2087C29.2814 34.3455 29.0945 34.466 28.8984 34.57C28.4439 34.8067 27.9481 34.9539 27.4381 35.0036H27.4348C26.8366 35.0637 26.2326 34.995 25.6632 34.8023C25.4011 34.7113 25.1496 34.5923 24.9129 34.4475C24.6355 34.2777 24.382 34.0715 24.1594 33.8342C23.8535 33.5083 23.6112 33.1283 23.4447 32.7135C23.281 32.3041 23.1912 31.8689 23.1795 31.4282L23.1841 31.1156C23.2079 30.7536 23.2862 30.3973 23.4164 30.0587C23.4671 29.9258 23.5244 29.7961 23.5882 29.6698C23.7132 29.4263 23.8567 29.1926 24.0166 28.9702C24.1213 28.8248 24.2325 28.6833 24.3483 28.5464C24.5898 28.2634 24.8478 27.9942 25.1196 27.7409L25.2196 27.6507L25.3802 27.5165Z" fill="#97552F"/>
<path fill-rule="evenodd" clip-rule="evenodd" d="M23.0349 48.8605L29.4816 43.42C29.5997 43.3212 29.7488 43.2669 29.9029 43.2666C30.0569 43.2664 30.2061 43.3202 30.3246 43.4187L36.8648 48.8605C37.2623 49.1843 37.7598 49.3613 38.2724 49.362H21.6357C22.1464 49.362 22.6407 49.1849 23.0349 48.8605ZM27.0479 29.4394L27.1111 29.4578C27.1315 29.4677 27.1486 29.4815 27.1671 29.494L27.2197 29.5407C27.35 29.6605 27.4764 29.7862 27.5981 29.9152C27.6837 30.0067 27.7672 30.1008 27.8475 30.1982C27.9495 30.3212 28.045 30.4502 28.1318 30.5845C28.1693 30.6437 28.2042 30.7036 28.2371 30.7661C28.2654 30.8201 28.2911 30.876 28.3135 30.9326C28.3529 31.0313 28.3826 31.1353 28.3918 31.2413L28.3898 31.44C28.3766 31.6194 28.3209 31.793 28.2274 31.9467C28.134 32.1003 28.0053 32.2296 27.8521 32.3238C27.6532 32.4442 27.4295 32.5178 27.198 32.539L26.9525 32.5463L26.7452 32.5278C26.6483 32.5137 26.5529 32.4906 26.4603 32.4587C26.366 32.4266 26.2755 32.3842 26.1904 32.3324L26.0285 32.2139C25.8378 32.0511 25.7079 31.8284 25.66 31.5822C25.652 31.5407 25.6456 31.499 25.6409 31.4571L25.635 31.2676C25.6383 31.2163 25.6462 31.1656 25.6574 31.1149C25.6857 31.0043 25.7265 30.8971 25.7778 30.7951C25.8443 30.6674 25.92 30.5443 26.0042 30.4272C26.1444 30.2377 26.2964 30.0573 26.4589 29.8869C26.5636 29.7763 26.6708 29.6691 26.7827 29.5657L26.8624 29.494C26.9176 29.4578 26.9183 29.4578 26.9815 29.4394H27.0479ZM26.6406 3.01809L26.6662 3.01611V25.171L26.611 25.069C25.8816 23.7199 25.2027 22.3442 24.5755 20.9447C24.0667 19.8118 23.6058 18.658 23.1941 17.4864C22.8655 16.5531 22.5876 15.6027 22.3616 14.6394C22.1872 13.8741 22.053 13.0975 21.9977 12.3131C21.9762 11.9783 21.9698 11.6428 21.9786 11.3075C21.9839 11.0153 21.9957 10.7238 22.0141 10.4322C22.0431 9.97418 22.0898 9.5168 22.157 9.06271C22.2103 8.70537 22.2761 8.34934 22.357 7.99725C22.4215 7.71756 22.4965 7.43985 22.5821 7.16673C22.7058 6.77188 22.8539 6.38623 23.0263 6.0098C23.0895 5.87423 23.1573 5.73932 23.2283 5.60704C23.6561 4.81469 24.2365 4.08486 24.9966 3.59721C25.4905 3.27571 26.0542 3.07713 26.6406 3.01809ZM29.5132 3.07403L31.0038 3.49916C31.6941 3.75384 32.3588 4.08552 32.9695 4.50012C33.8019 5.06197 34.5194 5.77764 35.0833 6.60867C35.4137 7.10093 35.6874 7.63201 35.9013 8.18679C36.2113 9.00743 36.4035 9.86757 36.4712 10.7415C36.491 10.9705 36.5022 11.2002 36.5068 11.4299C36.512 11.6431 36.5107 11.857 36.4936 12.0702C36.4515 12.5473 36.362 13.0192 36.2258 13.4785C36.1164 13.8545 35.9875 14.2244 35.8395 14.5868C35.6552 15.0376 35.4505 15.4798 35.2261 15.9115C34.7299 16.8704 34.158 17.7884 33.546 18.6762C32.7873 19.7673 31.9785 20.8227 31.1222 21.839C30.1925 22.9478 29.2229 24.0225 28.2154 25.0611C28.899 23.779 29.5371 22.4732 30.1285 21.146C30.4575 20.4063 30.7675 19.6587 31.059 18.9039C31.3795 18.0747 31.6691 17.2343 31.9258 16.3834C32.1166 15.7457 32.2851 15.1014 32.4239 14.4499C32.5431 13.8912 32.6365 13.3265 32.6944 12.7586C32.7431 12.2848 32.7609 11.8083 32.749 11.3332C32.7445 11.0423 32.7338 10.7516 32.7168 10.4612C32.647 9.29305 32.4693 8.12822 32.1284 7.00748C31.9994 6.58255 31.8424 6.16661 31.6586 5.76235C31.2222 4.81206 30.6135 3.92429 29.7896 3.27606L29.5132 3.07403Z" fill="#FF8945"/>
<path fill-rule="evenodd" clip-rule="evenodd" d="M117.94 43.0815L110.864 27.9354C110.273 26.6739 109.921 26.2125 109.33 25.6775L108.755 25.1589C108.296 24.714 107.995 24.3021 107.995 23.8131C107.995 23.1129 108.55 22.5232 109.56 22.5232H115.703C116.667 22.5232 117.268 23.0247 117.268 23.7736C117.268 24.1915 117.076 24.5048 116.833 24.8121C116.544 25.1773 116.169 25.5334 116.169 26.1823C116.169 26.589 116.288 26.9944 116.516 27.5123L120.738 37.4002L124.526 27.761C124.759 27.12 124.918 26.5554 124.918 26.1033C124.918 25.3998 124.536 25.1129 124.241 24.7983C123.984 24.5252 123.779 24.2363 123.779 23.7736C123.779 23.0175 124.394 22.5232 125.222 22.5232H129.005C130.066 22.5232 130.57 23.0721 130.57 23.7736C130.57 24.2224 130.311 24.6384 129.802 25.0872L129.267 25.5268C128.522 26.1355 128.178 27.0161 127.786 27.9269L122.05 41.7456C121.372 43.3612 120.363 45.604 118.822 47.4441C117.256 49.3131 115.145 50.7662 112.286 50.7662C109.892 50.7662 108.443 49.623 108.443 47.9758C108.443 46.4668 109.559 45.2645 111.025 45.2645C111.828 45.2645 112.246 45.6435 112.67 46.0338C113.02 46.3556 113.375 46.686 114.076 46.686C114.726 46.686 115.332 46.4109 115.88 45.9666C116.719 45.2888 117.421 44.2214 117.94 43.0815ZM159.515 43.0276C162.699 43.0276 165.309 41.9365 167.344 39.7588C169.378 37.5845 170.395 34.9672 170.395 31.9071C170.395 28.9199 169.428 26.4659 167.502 24.5423C165.577 22.62 163.078 21.6546 160.003 21.6546C156.765 21.6546 154.117 22.7055 152.055 24.8003C149.992 26.897 148.96 29.4366 148.96 32.4197C148.96 35.3765 149.944 37.8826 151.91 39.9385C153.878 41.9957 156.411 43.0276 159.515 43.0276ZM132.585 42.7907C134.426 42.7907 135.736 41.5508 135.736 39.7634C135.736 38.0181 134.383 36.7757 132.585 36.7757C130.701 36.7757 129.352 38.0201 129.352 39.7634C129.352 41.5488 130.701 42.7907 132.585 42.7907ZM139.142 39.9576L139.59 39.4837C140.123 38.9658 140.295 38.4426 140.295 37.0001V28.4718C140.295 27.2247 140.125 26.6679 139.596 26.1915L139.069 25.719C138.553 25.2629 138.383 24.9793 138.383 24.5239C138.383 23.8763 138.885 23.3452 139.692 23.1609L143.272 22.2922C143.615 22.2093 144.001 22.1284 144.3 22.1284C144.712 22.1284 145.049 22.2639 145.286 22.4989C145.522 22.7345 145.662 23.0734 145.662 23.4972V37.0001C145.662 38.3617 145.827 38.9948 146.396 39.4732C146.405 39.4811 146.414 39.4897 146.421 39.4989L146.822 39.9648C147.324 40.4538 147.533 40.7782 147.533 41.2244C147.533 42.02 146.933 42.4748 145.969 42.4748H139.907C138.988 42.4748 138.383 42.0227 138.383 41.2244C138.383 40.7762 138.591 40.4492 139.142 39.9576ZM98.6251 39.9582L99.0733 39.4837C99.607 38.9658 99.7781 38.4426 99.7781 37.0001V19.1939C99.7781 17.9863 99.6504 17.3934 99.0851 16.9176L98.5441 16.3937C98.0776 15.9403 97.9071 15.6593 97.9071 15.2059C97.9071 14.5576 98.4119 14.0285 99.1753 13.8436L102.715 12.9749C103.057 12.892 103.443 12.811 103.743 12.811C104.152 12.811 104.498 12.9341 104.745 13.1677C104.992 13.402 105.145 13.7501 105.145 14.2194V37.0001C105.145 38.365 105.315 38.9619 105.885 39.4785L106.342 39.9615C106.848 40.4538 107.016 40.7762 107.016 41.2244C107.016 41.5548 106.916 41.8213 106.736 42.0246C106.483 42.3109 106.058 42.4748 105.492 42.4748H99.4313C98.8653 42.4748 98.4408 42.3109 98.1868 42.0246C98.0078 41.8213 97.9071 41.5548 97.9071 41.2244C97.9071 40.7756 98.0736 40.4505 98.6251 39.9582ZM82.1207 30.7883V36.9211C82.1207 37.8451 82.3036 38.6986 83.065 39.4008L83.5573 39.8786C84.1088 40.4136 84.2766 40.7341 84.2766 41.2244C84.2766 41.9733 83.6757 42.4748 82.7116 42.4748H75.8773C74.9132 42.4748 74.313 41.9733 74.313 41.2244C74.313 40.6426 74.4834 40.3669 75.0349 39.876L75.5252 39.3995C76.0964 38.8822 76.4689 38.1774 76.4689 36.9211V20.5364C76.4689 19.5381 76.2478 18.7214 75.5245 18.0561L75.0316 17.5783C74.5249 17.0867 74.313 16.7636 74.313 16.272C74.313 15.4783 74.9151 14.9821 75.8773 14.9821H94.1836C94.8832 14.9821 95.4978 15.1381 95.8907 15.5231C96.1638 15.7909 96.3382 16.1686 96.3579 16.6932L96.6429 20.9188C96.6712 21.4473 96.5152 21.8875 96.2105 22.1593C96.0006 22.3462 95.7183 22.4581 95.3629 22.4581C94.9147 22.4581 94.5712 22.289 94.2645 21.9968C93.9888 21.7342 93.7433 21.3656 93.4663 20.932C92.7976 19.8632 92.4864 19.4789 91.7736 18.9794C90.7819 18.2476 89.2709 17.9962 86.4134 17.9962C84.7649 17.9962 83.7244 18.0679 83.069 18.2371C82.6452 18.3463 82.4004 18.4884 82.2694 18.6971C82.1351 18.9103 82.1207 19.1801 82.1207 19.5098V27.8137H86.4134C87.4407 27.8137 88.1633 27.6281 89.0004 26.4837L89.005 26.4771C89.3407 26.05 89.5835 25.7354 89.8145 25.5268C90.0836 25.2833 90.3423 25.1681 90.6851 25.1681C91.0149 25.1711 91.3302 25.3042 91.5623 25.5385C91.7944 25.7728 91.9245 26.0894 91.9243 26.4192V32.144C91.9243 32.9107 91.3268 33.4338 90.6851 33.4338C90.366 33.4338 90.1067 33.32 89.8369 33.0818C89.6045 32.8777 89.3611 32.5717 89.0452 32.1631C88.1291 30.9772 87.4822 30.7883 86.4134 30.7883H82.1207ZM154.652 30.6435C154.652 28.5896 155.1 27.1135 156.027 26.2257C156.943 25.3491 157.928 24.9056 158.986 24.9056C160.442 24.9056 161.753 25.7203 162.936 27.3221C164.145 28.9601 164.743 31.1739 164.743 33.9597C164.743 36.0156 164.295 37.5055 163.366 38.4189C162.451 39.3199 161.467 39.7766 160.409 39.7766C158.954 39.7766 157.643 38.9553 156.459 37.341C155.25 35.6891 154.652 33.4556 154.652 30.6435ZM142.674 19.5361C144.519 19.5361 145.825 18.4977 145.825 16.7063C145.825 14.9571 144.52 13.916 142.674 13.916C140.784 13.916 139.481 14.9577 139.481 16.7063C139.481 18.4542 140.785 19.5361 142.674 19.5361Z" fill="#FF8945"/>
</svg>
