<svg width="368" height="95" viewBox="0 0 368 95" fill="none" xmlns="http://www.w3.org/2000/svg">
<path d="M98.4317 48.0376C98.4258 70.2993 80.7112 90.1611 56.9215 93.6755C30.4035 97.5918 5.43535 80.0236 1.27726 54.5243C-2.96922 28.4752 15.645 4.16062 42.7187 0.511632C50.3298 -0.513876 57.8426 0.121151 65.1512 2.53422C66.7657 3.06688 66.8698 3.25644 66.2885 4.73499C65.8583 5.82874 65.3516 6.89595 64.998 8.01055C64.672 9.03985 64.1299 9.12704 63.1537 8.80479C54.4682 5.92351 45.6374 5.60696 36.9716 8.48445C20.025 14.1105 9.93717 25.5826 7.76483 42.7717C5.04645 64.2808 20.9049 83.9057 43.1351 87.2211C66.3631 90.6862 88.3144 74.9226 91.1997 52.4145C93.1619 37.1058 87.4776 24.6272 75.0721 14.9503C73.4772 13.7049 73.4399 13.6954 74.6184 12.05C75.1703 11.2804 75.7183 10.507 76.2781 9.74122C77.1659 8.53184 77.4625 8.49013 78.7293 9.40759C84.5668 13.6328 89.2297 18.8343 92.6728 25.0404C96.5029 31.9403 98.3354 39.3274 98.4297 48.0357L98.4317 48.0376Z" fill="#FF8945"/>
<path d="M49.5381 10.0425C68.6316 10.0481 84.9536 23.7361 87.6346 41.9944C90.5966 62.1595 75.781 81.2897 54.806 83.7824C38.7235 85.6931 26.0587 79.7789 16.9667 66.8435C15.9807 65.4408 16.0652 65.2664 17.5697 64.493C18.597 63.9641 19.6419 63.4618 20.6436 62.8931C21.5589 62.3737 22.1089 62.4382 22.7551 63.403C27.6006 70.6252 34.3867 75.2087 43.135 77.0266C60.3821 80.6092 77.8945 69.1296 80.7169 52.4068C83.5276 35.7446 72.66 20.5345 55.5248 17.149C38.2384 13.735 20.8007 25.5142 18.2061 42.3355C17.7013 45.6054 17.6542 48.862 18.2591 52.1111C18.4536 53.1555 18.1845 53.6654 17.0571 53.8512C15.8648 54.0464 14.7001 54.4047 13.5216 54.6777C11.9405 55.0454 11.8737 55.0151 11.6125 53.5403C10.9663 49.8743 10.7188 46.1722 11.3355 42.5005C13.9439 26.9832 22.9711 16.5879 38.4996 11.6973C42.0076 10.5922 45.8043 10.3363 49.4674 9.68799C49.489 9.80551 49.5126 9.92493 49.5342 10.0425H49.5381Z" fill="#FF8945"/>
<path d="M49.4693 74.1055C34.8718 74.1055 22.8532 63.4884 21.5196 49.4175C20.2115 35.6158 30.4446 22.8642 44.7475 20.4701C61.8454 17.6078 77.5055 30.3309 77.533 47.0727C77.5389 50.3425 76.9948 53.4949 75.7967 56.5487C75.2409 57.9628 75.1937 57.9817 73.864 57.3031C72.7916 56.7553 71.7565 56.1279 70.6467 55.6634C69.5448 55.2009 69.3131 54.6512 69.6882 53.5025C72.0786 46.1836 70.7548 39.4562 65.5125 33.7051C59.9088 27.5558 52.6925 25.2906 44.447 27.2639C36.2232 29.2315 30.9239 34.4595 28.8301 42.3735C26.5615 50.9472 30.3955 59.6896 38.2128 64.5006C45.7198 69.1202 55.4718 68.614 62.6291 63.2325C64.0119 62.1937 64.1395 62.1918 65.4575 63.3197C66.2922 64.0343 67.0838 64.802 67.948 65.4825C68.8829 66.2199 68.7317 66.7981 67.8969 67.5203C63.0219 71.736 56.4381 74.1074 49.4674 74.1074L49.4693 74.1055Z" fill="#FF8945"/>
<path d="M230.524 57.7469C231.765 55.7888 232.789 54.1718 233.67 52.7824C236.379 53.5975 238.86 54.5737 241.441 55.04C243.083 55.3376 244.905 55.0381 246.585 54.7102C247.997 54.4334 248.898 53.3947 249.034 51.9066C249.175 50.3598 248.262 49.3628 246.944 48.8547C245.108 48.1439 243.165 47.689 241.282 47.0862C239.535 46.5289 237.736 46.0664 236.082 45.3138C229.666 42.3946 230.06 34.2266 234.643 30.9321C236.819 29.3682 239.266 28.6327 241.949 28.4754C246.408 28.2138 250.607 29.1199 254.801 31.0022C253.978 32.6912 253.184 34.3176 252.53 35.6615C249.596 35.1042 246.877 34.454 244.116 34.128C242.888 33.9839 241.525 34.3536 240.315 34.7516C239.035 35.1725 238.314 36.2264 238.296 37.5723C238.278 38.8385 239.046 39.7332 240.18 40.1787C241.743 40.7928 243.385 41.2232 244.992 41.735C247.013 42.3795 249.103 42.8761 251.035 43.712C254.481 45.2001 256.107 47.9108 256.077 51.5465C256.05 55.1689 254.378 57.836 250.994 59.4037C246.606 61.4338 242.02 61.2253 237.469 60.1145C235.157 59.5515 232.952 58.5905 230.524 57.7488V57.7469Z" fill="#FF8945"/>
<path d="M330.426 50.5911C330.576 53.878 333.047 55.9537 336.578 55.5518C338.796 55.2997 340.952 54.5377 343.38 53.9443C344.071 54.9604 344.992 56.3119 345.967 57.745C343.46 59.5287 340.726 60.5865 337.741 60.7855C335.781 60.9163 333.71 60.8841 331.825 60.4158C326.683 59.1363 323.984 55.5935 323.269 50.6783C322.615 46.1725 323.408 41.9832 327.068 38.7058C330.825 35.3392 337.338 34.6132 341.756 37.1078C345.073 38.9807 346.446 41.9965 346.703 45.5375C346.794 46.7847 346.544 48.051 346.524 49.3097C346.509 50.3617 345.99 50.6233 344.965 50.6119C340.64 50.5664 336.313 50.593 331.988 50.593C331.469 50.593 330.951 50.593 330.424 50.593L330.426 50.5911ZM340.061 45.6512C340.347 42.5481 338.721 40.554 335.916 40.4801C332.995 40.4023 330.371 42.9102 330.507 45.6512H340.061Z" fill="#FF8945"/>
<path d="M217.913 50.5873H201.909C201.936 53.7568 204.45 55.7661 207.994 55.622C210.339 55.5272 212.452 54.7785 214.605 53.5653C215.528 54.9187 216.451 56.2665 217.451 57.7318C215.179 59.4151 212.67 60.3515 209.966 60.7154C205.216 61.3542 200.777 60.7116 197.507 56.9243C194.755 53.7359 194.219 49.9391 194.734 45.9356C195.368 40.9957 198.894 37.1742 203.91 36.0141C206.024 35.5251 208.151 35.5061 210.262 35.9876C215.173 37.1079 217.999 40.6602 218.213 46.091C218.27 47.5222 218.028 48.9628 217.913 50.5873ZM201.83 45.6418H211.602C211.779 42.6809 210.355 40.7815 207.825 40.5123C204.835 40.1939 202.408 42.2373 201.828 45.6418H201.83Z" fill="#FF8945"/>
<path d="M304.225 50.5681C304.726 54.0484 306.929 55.7601 310.39 55.6217C312.737 55.5289 314.853 54.7839 316.998 53.5688C317.929 54.9147 318.86 56.2624 319.871 57.7239C317.622 59.3826 315.124 60.336 312.415 60.7038C307.896 61.318 303.702 60.7341 300.316 57.3789C295.103 52.2154 295.07 38.6639 306.293 36.0177C308.404 35.5191 310.534 35.5002 312.645 35.9779C317.948 37.1759 320.967 41.4637 320.631 47.3248C320.57 48.3806 320.364 49.4289 320.215 50.5662H304.223L304.225 50.5681ZM304.207 45.6207H314.045C314.12 42.6181 312.781 40.8249 310.329 40.5273C307.342 40.1633 305.071 42.0077 304.207 45.6207Z" fill="#FF8945"/>
<path d="M154.918 45.875C155.02 45.7063 155.06 45.6683 155.066 45.6285C155.523 41.7388 154.089 40.4384 150.051 41.155C148.961 41.3483 147.891 41.6876 146.844 42.0459C145.842 42.389 144.883 42.8477 143.768 43.314C142.962 41.718 142.163 40.1389 141.313 38.4557C146.076 36.236 150.913 34.9602 156.14 36.181C160.003 37.0833 161.979 39.8148 162.026 44.1576C162.06 47.2455 162.078 50.3353 162.013 53.4232C161.983 54.8297 162.325 55.8324 164.008 55.9443V60.4861C160.98 60.3989 157.996 60.5297 155.963 57.6863C154.284 59.1251 152.557 60.4387 150.302 60.6794C149.012 60.8178 147.669 60.9126 146.398 60.7211C143.42 60.2719 141.372 58.3725 140.853 55.8476C140.272 53.0213 141.448 50.3504 144.055 48.707C146.991 46.855 150.354 46.3678 153.74 45.9754C154.121 45.9318 154.506 45.9091 154.916 45.875H154.918ZM155.13 49.6093C152.972 49.6813 151.035 49.9581 149.293 50.9722C147.849 51.8138 147.246 53.2848 147.755 54.5359C148.242 55.7377 149.464 56.2684 151.29 56.0713C153.072 55.8798 155.04 54.7444 155.107 53.7359C155.197 52.4014 155.128 51.0556 155.128 49.6093H155.13Z" fill="#FF8945"/>
<path d="M190.526 60.2697H183.634V58.7115C183.634 53.9858 183.642 49.2601 183.632 44.5345C183.624 41.1755 181.426 39.7121 178.233 41.1035C175.842 42.1441 174.927 42.9554 175.019 45.4841C175.18 49.8762 175.064 54.2797 175.064 58.6774V60.2564H168.312V36.3626H174.589C174.727 37.0924 174.87 37.8526 175.047 38.7871C175.41 38.5103 175.722 38.2753 176.033 38.0364C178.286 36.2963 180.812 35.3826 183.73 35.7295C187.784 36.211 190.139 38.4781 190.365 42.4607C190.571 46.1002 190.497 49.753 190.528 53.4001C190.548 55.6426 190.532 57.885 190.532 60.2716L190.526 60.2697Z" fill="#FF8945"/>
<path d="M352.598 30.2704H359.521V36.2661H364.997V40.8952H359.557C359.557 42.3339 359.557 43.5812 359.557 44.8304C359.557 47.4501 359.549 50.0717 359.559 52.6913C359.568 55.1992 360.79 56.0579 363.3 55.3072C363.895 55.1291 364.461 54.858 365.231 54.5547C366.011 55.7774 366.81 57.0303 367.682 58.397C365.922 59.8756 363.89 60.5277 361.721 60.8044C360.721 60.9314 359.676 60.9049 358.669 60.793C354.774 60.3609 352.692 57.9232 352.623 53.6562C352.564 50.0072 352.609 46.3563 352.609 42.7054C352.609 42.1936 352.609 41.6799 352.609 40.9804H348.768V36.3135H352.596V30.2686L352.598 30.2704Z" fill="#FF8945"/>
<path d="M115.31 56.526C116.867 55.1612 118.37 53.8437 119.713 52.6685C120.986 53.3831 122.096 54.2835 123.372 54.6664C126.085 55.4796 128.344 54.0087 128.833 51.3283C128.949 50.6876 128.974 50.0241 128.976 49.3721C128.986 43.1906 128.982 37.011 128.982 30.8295C128.982 30.2779 128.982 29.7263 128.982 29.0742H136.069V30.6476C136.069 37.2025 136.098 43.7593 136.043 50.3142C136.031 51.607 135.841 52.9414 135.468 54.1812C134.607 57.0454 132.696 59.0604 129.756 60.1276C124.635 61.9871 118.937 60.6242 115.31 56.526Z" fill="#FF8945"/>
<path d="M268.395 36.2794H273.961V40.8573H268.756C268.605 41.1321 268.483 41.2496 268.483 41.3691C268.479 45.2531 268.408 49.139 268.52 53.0212C268.583 55.2371 269.783 55.9499 272.036 55.3584C272.727 55.1765 273.385 54.8788 274.138 54.6059C274.297 54.8087 274.483 55.0135 274.631 55.2409C275.289 56.2721 275.935 57.3109 276.571 58.3269C273.867 60.9144 267.992 61.7143 264.798 59.9552C262.3 58.579 261.65 56.2475 261.601 53.7245C261.53 50.0262 261.581 46.326 261.581 42.6258C261.581 42.1216 261.581 41.6174 261.581 40.971H257.763V36.2946H261.526V30.333H268.397V36.2756L268.395 36.2794Z" fill="#FF8945"/>
<path d="M279.734 60.2375V36.3797H285.997C286.16 37.445 286.312 38.4421 286.506 39.7159C288.987 35.957 292.304 34.8348 296.667 36.0518C296.339 38.0725 296.02 40.0306 295.692 42.0513C295.081 41.93 294.616 41.82 294.145 41.7499C290.668 41.2248 288.293 42.4058 286.803 45.4671C286.569 45.9486 286.532 46.5514 286.528 47.0992C286.506 50.9378 286.516 54.7782 286.516 58.6167C286.516 59.1248 286.516 59.6328 286.516 60.2394H279.734V60.2375Z" fill="#FF8945"/>
</svg>
