<svg width="148" height="30" viewBox="0 0 148 30" fill="none" xmlns="http://www.w3.org/2000/svg">
<path d="M32.5793 10.625L26.0635 6.81728V1.49463L37.1188 7.95448V20.8926L32.5793 18.2401V10.625Z" fill="#FF8945"/>
<path d="M4.5399 19.3766L11.0556 23.1839V28.5074L0 22.0475V9.10938L4.5399 11.762V19.3766Z" fill="#FF8945"/>
<path d="M25.0753 8.53271L7.48877 18.809L12.0435 21.4704L29.6302 11.1943L25.0753 8.53271Z" fill="#FF8945"/>
<path d="M30.6031 18.2393L13.0317 28.5069V23.1838L30.6031 12.917V18.2393Z" fill="#FF8945"/>
<path d="M25.0756 29.084L20.5205 26.4226L31.5914 19.9536L36.1468 22.6153L25.0756 29.084Z" fill="#FF8945"/>
<path d="M24.0874 1.49463L6.51611 11.7622V17.0845L24.0874 6.81726V1.49463Z" fill="#FF8945"/>
<path d="M5.52747 10.0479L16.5983 3.57884L12.0435 0.91748L0.972656 7.38616L5.52747 10.0479Z" fill="#FF8945"/>
<path d="M137.146 10.7335H139.954V12.3175C140.322 11.7415 140.81 11.2775 141.418 10.9255C142.042 10.5575 142.77 10.3735 143.602 10.3735C144.434 10.3735 145.154 10.5495 145.762 10.9015C146.386 11.2375 146.858 11.7415 147.178 12.4135C147.514 13.0695 147.682 13.8695 147.682 14.8135V22.9975H144.802V15.0535C144.802 14.3495 144.634 13.7895 144.298 13.3735C143.978 12.9415 143.466 12.7255 142.762 12.7255C142.282 12.7255 141.834 12.8455 141.418 13.0855C141.002 13.3255 140.666 13.7095 140.41 14.2375C140.154 14.7495 140.026 15.3895 140.026 16.1575V22.9975H137.146V10.7335Z" fill="#FF8945"/>
<path d="M128.347 23.3575C127.163 23.3575 126.091 23.0855 125.131 22.5415C124.171 21.9815 123.419 21.2055 122.875 20.2135C122.331 19.2215 122.059 18.1015 122.059 16.8535C122.059 15.6215 122.331 14.5095 122.875 13.5175C123.419 12.5255 124.171 11.7575 125.131 11.2135C126.091 10.6535 127.163 10.3735 128.347 10.3735C129.515 10.3735 130.579 10.6535 131.539 11.2135C132.499 11.7575 133.251 12.5255 133.795 13.5175C134.339 14.5095 134.611 15.6215 134.611 16.8535C134.611 18.1015 134.339 19.2215 133.795 20.2135C133.251 21.2055 132.499 21.9815 131.539 22.5415C130.579 23.0855 129.515 23.3575 128.347 23.3575ZM128.347 21.0295C129.019 21.0295 129.603 20.8695 130.099 20.5495C130.595 20.2294 130.979 19.7574 131.251 19.1335C131.539 18.4934 131.683 17.7335 131.683 16.8535C131.683 15.9895 131.539 15.2455 131.251 14.6215C130.979 13.9975 130.595 13.5255 130.099 13.2055C129.603 12.8695 129.019 12.7015 128.347 12.7015C127.675 12.7015 127.083 12.8695 126.571 13.2055C126.075 13.5255 125.683 13.9975 125.395 14.6215C125.123 15.2455 124.987 15.9895 124.987 16.8535C124.987 17.7335 125.123 18.4934 125.395 19.1335C125.683 19.7574 126.075 20.2294 126.571 20.5495C127.083 20.8695 127.675 21.0295 128.347 21.0295Z" fill="#FF8945"/>
<path d="M113.505 28.0375C111.889 28.0375 110.617 27.7175 109.689 27.0775C108.777 26.4375 108.233 25.5015 108.057 24.2695H111.033C111.161 24.7975 111.433 25.1895 111.849 25.4455C112.281 25.7015 112.865 25.8295 113.601 25.8295C114.609 25.8295 115.369 25.5735 115.881 25.0615C116.393 24.5495 116.649 23.8055 116.649 22.8295V20.7655C116.329 21.3415 115.849 21.8055 115.209 22.1575C114.585 22.5095 113.841 22.6855 112.977 22.6855C111.969 22.6855 111.049 22.4535 110.217 21.9895C109.385 21.5095 108.729 20.8055 108.249 19.8775C107.769 18.9495 107.529 17.8375 107.529 16.5415C107.529 15.2615 107.769 14.1575 108.249 13.2295C108.729 12.3015 109.385 11.5975 110.217 11.1175C111.049 10.6375 111.969 10.3975 112.977 10.3975C113.809 10.3975 114.553 10.5815 115.209 10.9495C115.865 11.3015 116.345 11.7575 116.649 12.3175V10.7335H119.505V22.7095C119.505 23.7335 119.289 24.6455 118.857 25.4455C118.441 26.2455 117.785 26.8775 116.889 27.3415C115.993 27.8055 114.865 28.0375 113.505 28.0375ZM113.553 20.4775C114.177 20.4775 114.721 20.3095 115.185 19.9735C115.665 19.6375 116.033 19.1735 116.289 18.5815C116.561 17.9735 116.697 17.2935 116.697 16.5415C116.697 15.7735 116.561 15.0935 116.289 14.5015C116.033 13.9095 115.665 13.4455 115.185 13.1095C114.721 12.7735 114.177 12.6055 113.553 12.6055C112.913 12.6055 112.361 12.7655 111.897 13.0855C111.433 13.4055 111.081 13.8615 110.841 14.4535C110.601 15.0295 110.481 15.7255 110.481 16.5415C110.481 17.7735 110.745 18.7415 111.273 19.4455C111.801 20.1335 112.561 20.4775 113.553 20.4775Z" fill="#FF8945"/>
<path d="M98.3485 23.3335C97.1165 23.3335 96.0765 23.0135 95.2285 22.3735C94.3965 21.7175 93.9805 20.7975 93.9805 19.6135C93.9805 18.7015 94.2285 17.9895 94.7245 17.4775C95.2365 16.9495 95.8285 16.5815 96.5005 16.3735C97.1725 16.1655 97.9565 15.9975 98.8525 15.8695L99.7407 15.7735C100.365 15.6935 100.845 15.5975 101.181 15.4855C101.533 15.3735 101.789 15.2135 101.949 15.0055C102.125 14.7975 102.213 14.5015 102.213 14.1175C102.213 13.6055 102.021 13.2055 101.637 12.9175C101.269 12.6135 100.741 12.4615 100.053 12.4615C99.3807 12.4615 98.8365 12.5975 98.4205 12.8695C98.0045 13.1255 97.7485 13.4695 97.6525 13.9015H94.5085C94.6525 13.2135 94.9565 12.6055 95.4205 12.0775C95.9005 11.5495 96.5325 11.1335 97.3165 10.8295C98.1005 10.5255 99.0205 10.3735 100.077 10.3735C101.197 10.3735 102.125 10.5255 102.861 10.8295C103.597 11.1175 104.141 11.5495 104.493 12.1255C104.861 12.7015 105.045 13.3975 105.045 14.2135V20.0455C105.045 20.5255 105.085 21.0295 105.165 21.5575C105.245 22.0695 105.341 22.5495 105.453 22.9975H102.597C102.469 22.4215 102.381 21.8855 102.333 21.3895C101.997 21.9335 101.485 22.3975 100.797 22.7815C100.125 23.1495 99.3085 23.3335 98.3485 23.3335ZM99.1405 21.1255C99.7487 21.1255 100.285 20.9895 100.749 20.7175C101.213 20.4455 101.573 20.0695 101.829 19.5895C102.085 19.0935 102.213 18.5495 102.213 17.9575V16.6375C102.005 16.9095 101.717 17.1255 101.349 17.2855C100.997 17.4295 100.461 17.5575 99.7407 17.6695C98.7805 17.8295 98.0845 18.0295 97.6525 18.2695C97.2205 18.5095 97.0045 18.9255 97.0045 19.5175C97.0045 20.0295 97.2045 20.4295 97.6045 20.7175C98.0045 20.9895 98.5165 21.1255 99.1405 21.1255Z" fill="#FF8945"/>
<path d="M86.8616 23.3575C85.6936 23.3575 84.6456 23.0935 83.7176 22.5655C82.7896 22.0375 82.0616 21.2935 81.5336 20.3335C81.0216 19.3575 80.7656 18.2055 80.7656 16.8775C80.7656 15.5975 81.0296 14.4695 81.5576 13.4935C82.0856 12.5015 82.8136 11.7415 83.7416 11.2135C84.6856 10.6695 85.7496 10.3975 86.9336 10.3975C87.9576 10.3975 88.8616 10.5895 89.6456 10.9735C90.4456 11.3415 91.0776 11.8455 91.5416 12.4855C92.0216 13.1255 92.3256 13.8375 92.4536 14.6215H89.5976C89.4056 14.0455 89.0856 13.5895 88.6376 13.2535C88.2056 12.9175 87.6536 12.7495 86.9816 12.7495C86.3576 12.7495 85.8056 12.9095 85.3256 13.2295C84.8456 13.5495 84.4616 14.0215 84.1736 14.6455C83.9016 15.2695 83.7656 16.0135 83.7656 16.8775C83.7656 17.7575 83.9016 18.5095 84.1736 19.1335C84.4616 19.7414 84.8376 20.2055 85.3016 20.5255C85.7816 20.8295 86.3256 20.9815 86.9336 20.9815C87.6376 20.9815 88.2056 20.8135 88.6376 20.4775C89.0856 20.1415 89.4136 19.6935 89.6216 19.1335H92.4536C92.3416 19.9014 92.0456 20.6135 91.5656 21.2695C91.0856 21.9095 90.4376 22.4215 89.6216 22.8055C88.8216 23.1735 87.9016 23.3575 86.8616 23.3575Z" fill="#FF8945"/>
<path d="M73.1111 23.3575C71.8151 23.3575 70.6871 23.0935 69.7271 22.5655C68.7671 22.0215 68.023 21.2615 67.495 20.2855C66.983 19.3095 66.7271 18.1735 66.7271 16.8775C66.7271 15.6295 67.0071 14.5095 67.5671 13.5175C68.1271 12.5255 68.8791 11.7575 69.8231 11.2135C70.7671 10.6535 71.7911 10.3735 72.8951 10.3735C74.1271 10.3735 75.1991 10.6615 76.1111 11.2375C77.0391 11.8135 77.759 12.6535 78.271 13.7575C78.783 14.8455 79.047 16.1575 79.063 17.6935H68.383V15.5815H77.287L76.2791 16.4935C76.2631 15.3415 75.9671 14.4135 75.3911 13.7095C74.8151 13.0055 74.0151 12.6535 72.9911 12.6535C72.3671 12.6535 71.799 12.8135 71.287 13.1335C70.791 13.4375 70.3911 13.8695 70.0871 14.4295C69.7991 14.9735 69.6551 15.5735 69.6551 16.2295V17.3575C69.6551 18.0775 69.8071 18.7255 70.1111 19.3015C70.4151 19.8615 70.8231 20.3015 71.3351 20.6215C71.8631 20.9415 72.471 21.1015 73.159 21.1015C73.799 21.1015 74.327 20.9815 74.743 20.7415C75.175 20.5015 75.495 20.1815 75.703 19.7815H78.7271C78.4071 20.8695 77.751 21.7415 76.759 22.3975C75.783 23.0375 74.5671 23.3575 73.1111 23.3575Z" fill="#FF8945"/>
<path d="M50.5586 6.19775H56.0786C57.7586 6.19775 59.2706 6.54975 60.6146 7.25375C61.9586 7.95775 63.0066 8.94975 63.7586 10.2298C64.5266 11.4938 64.9106 12.9498 64.9106 14.5978C64.9106 16.2458 64.5266 17.7098 63.7586 18.9898C63.0066 20.2538 61.9586 21.2378 60.6146 21.9418C59.2706 22.6458 57.7586 22.9978 56.0786 22.9978H50.5586V6.19775ZM55.8386 20.4298C57.1026 20.4298 58.1826 20.2058 59.0786 19.7578C59.9906 19.2938 60.6786 18.6298 61.1426 17.7658C61.6226 16.8858 61.8626 15.8298 61.8626 14.5978C61.8626 13.3658 61.6226 12.3178 61.1426 11.4538C60.6786 10.5738 59.9906 9.90975 59.0786 9.46175C58.1826 8.99775 57.1026 8.76575 55.8386 8.76575H53.5826V20.4298H55.8386Z" fill="#FF8945"/>
</svg>
