<svg width="234" height="89" viewBox="0 0 234 89" fill="none" xmlns="http://www.w3.org/2000/svg">
<path d="M0.0584027 44.5722C0.0584027 42.3937 -0.0065447 40.2113 0.0741443 38.0347C0.18829 35.0091 0.410675 31.9892 0.589765 28.9654C0.65471 27.8638 0.729497 26.7622 0.794442 25.6606C0.936139 23.2675 0.997146 20.8667 1.23528 18.4812C1.61314 14.7053 3.09112 11.3359 5.62003 8.42046C9.06211 4.45088 13.5098 2.26286 18.8058 1.64368C19.9079 1.51453 21.0238 1.49363 22.1357 1.43475C23.7042 1.35308 25.2747 1.29041 26.8432 1.20304C29.8799 1.0359 32.9185 0.857364 35.9551 0.684525C36.0535 0.678827 36.152 0.671227 36.2504 0.669327C40.8358 0.60475 45.4194 0.477491 50.0049 0.498384C53.1458 0.511679 56.2848 0.711108 59.4238 0.866853C62.6593 1.0264 65.8947 1.18784 69.1222 1.43665C71.3008 1.60379 73.5109 1.54872 75.6443 2.1432C83.4573 4.32363 88.3124 9.20679 90.0699 16.8763C90.3356 18.0367 90.373 19.2504 90.4655 20.4432C90.6662 23.0528 90.8413 25.6644 91.0165 28.276C91.0972 29.4726 91.168 30.6691 91.2231 31.8657C91.3097 33.7574 91.4042 35.6492 91.4475 37.5409C91.5262 40.8533 91.6443 44.1695 91.6049 47.4819C91.5656 50.7925 91.3707 54.103 91.2153 57.4135C91.1169 59.4933 90.983 61.5711 90.8394 63.6471C90.6603 66.2586 90.5934 68.8854 90.2313 71.4742C89.57 76.2035 87.2458 80.118 83.4731 83.2082C80.8182 85.381 77.756 86.7523 74.3277 87.3373C73.3968 87.495 72.4462 87.5577 71.5016 87.6203C68.6952 87.8084 65.8868 87.9755 63.0784 88.1464C61.8701 88.2205 60.6617 88.2965 59.4533 88.3497C57.5562 88.4333 55.659 88.5263 53.7618 88.5662C50.0954 88.6441 46.427 88.7637 42.7606 88.7276C39.226 88.6935 35.6954 88.4978 32.1628 88.3459C30.0058 88.2528 27.8508 88.1217 25.6958 87.9812C23.0862 87.8122 20.4629 87.7191 17.871 87.4095C14.1731 86.967 10.9081 85.4798 8.06235 83.1569C4.19125 79.9965 1.97525 75.9566 1.2707 71.1361C1.13884 70.232 1.10539 69.3147 1.05028 68.4011C0.896776 65.8503 0.759014 63.2995 0.613381 60.7468C0.436259 57.6927 0.205999 54.6405 0.0957896 51.5826C0.0111646 49.2483 0.0800481 46.9084 0.0800481 44.5722H0.0662705H0.0584027ZM45.3525 9.31505C44.1795 9.36443 42.5461 9.4347 40.9106 9.50308C37.8385 9.63223 34.7645 9.75379 31.6924 9.89244C28.8486 10.0216 26.0068 10.1564 23.165 10.3179C21.7618 10.3977 20.3527 10.4679 18.9672 10.6712C14.6139 11.3093 11.103 14.6958 10.483 19.1117C10.1859 21.2314 10.174 23.3871 10.0461 25.5277C9.95756 27.0072 9.88671 28.4887 9.80996 29.9683C9.62693 33.5276 9.35338 37.085 9.28843 40.6463C9.22349 44.2094 9.35141 47.7763 9.42816 51.3414C9.47736 53.5807 9.57773 55.82 9.67416 58.0574C9.7273 59.2862 9.81192 60.5132 9.89655 61.7402C10.0638 64.1618 10.3236 66.5796 10.3984 69.0051C10.544 73.799 14.1711 77.8597 19.1069 78.5549C20.4629 78.7467 21.8385 78.8094 23.2083 78.8929C26.5382 79.0962 29.8681 79.2956 33.1999 79.4608C36.272 79.6128 39.3461 79.7723 42.4201 79.8217C45.1025 79.8635 47.7889 79.7875 50.4693 79.7059C53.7067 79.6071 56.9421 79.4589 60.1795 79.3127C62.9564 79.1873 65.7353 79.0487 68.5102 78.8891C69.8799 78.8113 71.2595 78.7543 72.6096 78.5416C77.0396 77.8464 80.4915 74.4713 81.0445 70.1826C81.3633 67.7154 81.446 65.2197 81.6133 62.7354C81.757 60.6272 81.8947 58.5189 81.9911 56.4088C82.1427 53.1001 82.3336 49.7896 82.369 46.4791C82.4025 43.2939 82.2627 40.105 82.1978 36.9198C82.1978 36.8248 82.188 36.7299 82.182 36.6368C82.003 33.6777 81.8199 30.7204 81.6467 27.7613C81.5582 26.2494 81.509 24.7357 81.4086 23.2257C81.3161 21.8107 81.2394 20.3919 81.0504 18.9883C80.462 14.5876 76.5968 10.8706 71.4996 10.504C68.3685 10.278 65.2334 10.1166 62.0984 9.94372C59.5183 9.80128 56.9362 9.66262 54.3542 9.56765C51.5084 9.46129 48.6607 9.40811 45.3485 9.31884L45.3525 9.31505Z" fill="#FF8945"/>
<path d="M105.454 55.9908V32.6785C107.399 32.5722 109.309 32.6462 111.335 32.633C112.994 38.3309 114.643 43.9909 116.292 49.6528C116.329 49.6566 116.367 49.6604 116.404 49.6642C116.428 49.5103 116.461 49.3584 116.473 49.2046C116.485 49.0469 116.477 48.8893 116.477 48.7316C116.477 43.8067 116.477 38.8817 116.481 33.9568C116.481 33.5541 116.528 33.1515 116.558 32.6899H120.01C120.23 33.3813 120.309 54.4524 120.084 56.006C118.201 56.0915 116.292 56.0212 114.259 56.0459C112.598 50.1922 110.949 44.3765 109.298 38.5607C109.229 38.5683 109.16 38.5759 109.091 38.5835V55.9927H105.454V55.9908Z" fill="#FF8945"/>
<path d="M105.426 19.8013H109.534C109.553 20.1811 109.575 20.5154 109.589 20.8516C109.606 21.2923 109.557 21.7443 109.64 22.1735C110.087 24.4736 112.576 25.5619 114.704 24.4109C115.465 23.9988 115.975 23.3739 116.121 22.5667C116.445 20.7604 116.16 19.1004 114.233 17.976C112.779 17.127 111.285 16.3369 109.823 15.5012C109.317 15.2125 108.827 14.8915 108.37 14.5345C107.239 13.6475 106.479 12.525 106.273 11.1138C106.078 9.79375 106.08 8.46802 106.461 7.17268C106.995 5.35313 108.252 4.18885 110.098 3.63804C111.921 3.09484 113.779 3.06634 115.617 3.56207C117.972 4.19834 119.391 5.97991 119.596 8.5269C119.643 9.11569 119.604 9.71207 119.604 10.3749H115.874C115.839 10.1071 115.806 9.86782 115.78 9.63041C115.723 9.12899 115.703 8.62186 115.607 8.12994C115.442 7.28664 114.93 6.70165 114.052 6.47563C113.216 6.26101 112.366 6.20402 111.551 6.5383C110.026 7.16508 109.437 8.88208 110.144 10.5725C110.502 11.431 111.141 12.0539 111.952 12.5022C112.83 12.9884 113.761 13.3911 114.629 13.8944C115.69 14.5098 116.78 15.1119 117.736 15.864C120.905 18.3578 120.797 23.1251 118.73 25.5372C118.167 26.1944 117.494 26.6711 116.695 26.9712C114.522 27.7898 112.263 27.9 110.043 27.3245C108.04 26.806 106.599 25.5467 106.003 23.5468C105.651 22.3654 105.446 21.1612 105.432 19.7994L105.426 19.8013Z" fill="#FF8945"/>
<path d="M155.583 11.2199V4.05371H159.175C159.205 4.46017 159.256 4.85522 159.258 5.25218C159.287 11.7878 159.309 18.3252 159.342 24.8608C159.346 25.5787 159.415 26.2986 159.458 27.1058H155.884C155.796 26.7126 155.711 26.3309 155.605 25.8598C155.383 26.0327 155.233 26.139 155.095 26.2587C152.539 28.4809 148.748 27.4249 147.906 24.2112C147.644 23.2122 147.524 22.16 147.497 21.1286C147.436 18.9197 147.457 16.7089 147.485 14.4981C147.516 11.953 149.5 10.0898 152.108 10.0594C153.328 10.0442 154.44 10.2949 155.585 11.2218L155.583 11.2199ZM155.532 18.5987C155.532 18.5987 155.526 18.5987 155.522 18.5987C155.522 17.1799 155.562 15.7611 155.509 14.3442C155.469 13.2597 154.668 12.5076 153.598 12.4088C152.372 12.2949 151.677 12.7317 151.321 13.8732C151.208 14.2322 151.108 14.6101 151.092 14.9824C151.014 16.8077 150.907 18.6329 150.931 20.4563C150.945 21.5465 150.988 22.669 151.494 23.6927C151.907 24.5303 152.59 24.9045 153.55 24.8456C154.509 24.7867 155.091 24.3404 155.363 23.3983C155.465 23.0393 155.518 22.6576 155.524 22.2834C155.544 21.0545 155.532 19.8257 155.532 18.5949V18.5987Z" fill="#FF8945"/>
<path d="M131.987 61.5386V68.756C132.343 68.5585 132.593 68.4294 132.835 68.2869C135.901 66.4807 139.619 68.2109 140.071 71.6487C140.487 74.7997 140.449 77.9393 139.873 81.0693C139.804 81.4416 139.717 81.8101 139.607 82.1729C138.743 85.0579 134.834 85.7094 132.945 84.1576C132.674 83.9354 132.396 83.7189 131.981 83.3884C131.875 83.8443 131.796 84.1861 131.69 84.6401C130.582 84.868 129.432 84.7597 128.196 84.7046C128.56 76.9687 128.257 69.3125 128.405 61.5481C129.607 61.4399 130.759 61.474 131.985 61.5367L131.987 61.5386ZM136.649 76.5148H136.635C136.635 75.5366 136.686 74.5566 136.619 73.5841C136.562 72.7408 136.419 71.8975 136.222 71.0732C136.072 70.4464 135.596 70.0856 134.907 69.9583C133.317 69.6639 132.046 70.6136 132.02 72.2337C131.985 74.6288 131.985 77.0276 132.034 79.4226C132.048 80.0361 132.225 80.6762 132.471 81.246C132.839 82.0969 133.628 82.4141 134.549 82.3818C135.427 82.3514 136.047 81.9069 136.301 81.1035C136.48 80.5375 136.602 79.9412 136.635 79.3524C136.69 78.4103 136.649 77.4606 136.649 76.5148Z" fill="#FF8945"/>
<path d="M133.982 10.3388H137.458C137.578 10.5819 137.698 10.8288 137.834 11.1042C138.243 10.8725 138.613 10.599 139.03 10.4413C140.559 9.86775 142.114 9.86204 143.622 10.4793C144.958 11.0263 145.535 12.1583 145.745 13.4651C145.861 14.1792 145.899 14.9104 145.903 15.6341C145.918 19.0776 145.913 22.521 145.907 25.9626C145.907 26.3311 145.867 26.6996 145.842 27.1193H141.957C141.957 26.6825 141.957 26.314 141.957 25.9436C141.957 22.3425 141.957 18.7414 141.957 15.1403C141.957 14.7927 141.971 14.4394 141.912 14.1013C141.697 12.8668 141.004 12.3331 139.753 12.3957C138.617 12.4546 137.972 13.1042 137.879 14.3065C137.85 14.6844 137.851 15.0643 137.851 15.4423C137.851 18.9484 137.851 22.4546 137.848 25.9607C137.848 26.3292 137.808 26.6976 137.783 27.1231H134.193C134.167 26.728 134.124 26.3634 134.124 25.9987C134.116 21.8601 134.124 17.7233 134.102 13.5847C134.098 12.7034 133.996 11.8222 133.949 10.9409C133.939 10.7604 133.971 10.5781 133.988 10.3331L133.982 10.3388Z" fill="#FF8945"/>
<path d="M165.75 39.6852C166.919 38.7735 168.202 38.6349 169.539 38.7051C171.768 38.821 173.199 40.084 173.475 42.2113C173.563 42.8988 173.612 43.594 173.614 44.2872C173.628 47.7915 173.622 51.2938 173.618 54.7981C173.618 55.1704 173.583 55.5407 173.561 55.9776H169.966C169.942 55.6205 169.899 55.2577 169.897 54.8969C169.891 51.1723 169.899 47.4477 169.887 43.7231C169.887 43.2559 169.859 42.7678 169.718 42.3271C169.417 41.3813 168.7 40.9824 167.588 41.0394C166.683 41.085 166.041 41.6301 165.862 42.5684C165.786 42.9672 165.801 43.3851 165.801 43.7953C165.797 47.4572 165.799 51.1191 165.799 54.7791C165.799 55.1514 165.799 55.5217 165.799 55.9681H162.103C162.076 50.3233 162.046 44.7184 162.019 38.9634C163.048 38.859 164.172 38.9273 165.319 38.933C165.455 39.1705 165.577 39.3832 165.748 39.6852H165.75Z" fill="#FF8945"/>
<path d="M129.725 45.2216C129.924 44.1181 129.869 43.1172 129.507 42.1542C129.174 41.2691 128.383 40.912 127.261 41.0469C126.447 41.1457 126.065 41.5692 125.905 42.5379C125.834 42.9671 125.746 43.3926 125.661 43.8465C125.407 43.8693 125.216 43.8997 125.026 43.8997C124.177 43.9054 123.327 43.9016 122.503 43.9016C121.944 42.3346 122.697 40.3461 124.246 39.5331C126.354 38.4258 128.58 38.3442 130.77 39.2862C132.236 39.9168 132.937 41.1685 133.167 42.6518C133.278 43.366 133.297 44.0991 133.307 44.8228C133.344 47.7591 133.356 50.6955 133.392 53.6337C133.4 54.3175 133.472 54.9993 133.52 55.7553H130.205C130.048 55.4191 129.889 55.0829 129.702 54.6859C129.401 54.912 129.149 55.1057 128.893 55.2937C127.946 55.9851 126.885 56.3744 125.693 56.2719C123.697 56.099 122.55 55.1323 122.06 53.2311C121.717 51.8977 121.676 50.5397 121.977 49.1969C122.339 47.5863 123.329 46.4543 125.012 46.044C126.275 45.7344 127.576 45.5635 128.859 45.3337C129.111 45.2881 129.367 45.2653 129.723 45.2178L129.725 45.2216ZM129.723 47.9015C128.572 47.7781 127.533 47.8731 126.6 48.3745C126.199 48.5891 125.754 48.9557 125.612 49.347C125.244 50.3688 125.189 51.4495 125.588 52.4922C125.823 53.1019 126.297 53.4419 126.998 53.4837C128.354 53.5653 129.521 52.8322 129.692 51.5331C129.845 50.3669 129.723 49.1665 129.723 47.8997V47.9015Z" fill="#FF8945"/>
<path d="M186.44 55.778H183.126C182.976 55.4437 182.825 55.1075 182.634 54.6859C182.313 54.9214 182.041 55.1265 181.764 55.3221C180.782 56.0173 179.697 56.4029 178.463 56.2528C176.543 56.0192 175.454 55.0999 174.98 53.288C174.64 51.9869 174.626 50.6555 174.862 49.345C175.193 47.514 176.364 46.3554 178.233 45.9395C179.44 45.6698 180.677 45.5254 181.9 45.3279C182.09 45.2975 182.283 45.2785 182.549 45.2443C183.015 44.2244 182.712 43.2158 182.441 42.232C182.222 41.4438 181.602 41.0696 180.756 41.0335C179.491 40.9803 178.975 41.3982 178.798 42.6308C178.741 43.0297 178.652 43.4229 178.576 43.8369H175.334C174.913 41.8977 175.797 40.082 177.57 39.3108C179.304 38.5568 181.116 38.4732 182.937 38.9918C184.763 39.5122 185.731 40.7866 186.054 42.534C186.18 43.2121 186.206 43.9148 186.213 44.6061C186.249 47.5406 186.253 50.475 186.288 53.4095C186.298 54.1578 186.381 54.9062 186.438 55.7761L186.44 55.778ZM182.612 47.8882C181.512 47.7875 180.522 47.9091 179.579 48.3079C179.054 48.5301 178.599 48.8758 178.463 49.4266C178.219 50.4124 178.125 51.4152 178.459 52.4067C178.684 53.0714 179.182 53.4304 179.908 53.4817C181.223 53.5728 182.405 52.8644 182.577 51.6261C182.742 50.4314 182.612 49.2006 182.612 47.8882Z" fill="#FF8945"/>
<path d="M123.377 84.3876C123.213 84.023 123.074 83.7115 122.91 83.343C122.497 83.6431 122.155 83.928 121.779 84.1578C120.846 84.7276 119.842 85.1018 118.715 84.927C116.662 84.6117 115.611 83.6184 115.196 81.6336C114.928 80.3516 114.903 79.0638 115.202 77.7837C115.574 76.1977 116.558 75.1094 118.191 74.7087C119.549 74.3763 120.948 74.1997 122.332 73.9565C122.489 73.9281 122.651 73.9148 122.891 73.8825C122.952 73.6451 123.076 73.4095 123.06 73.1816C123.013 72.4922 122.979 71.7894 122.818 71.119C122.548 69.9889 121.385 69.3982 120.226 69.7344C119.685 69.892 119.311 70.2149 119.203 70.7714C119.094 71.326 118.994 71.8806 118.872 72.5244C117.774 72.6802 116.688 72.6498 115.625 72.5397C115.109 70.5568 116.347 68.629 117.656 68.0573C119.695 67.1646 121.775 67.0126 123.837 67.8882C125.796 68.7182 126.417 70.3991 126.471 72.3022C126.53 74.4162 126.471 76.5339 126.498 78.6498C126.514 79.9755 126.6 81.2993 126.642 82.6232C126.659 83.1854 126.644 83.7495 126.644 84.3876H123.377ZM123.145 76.5548C121.757 76.3934 120.629 76.5852 119.567 77.1227C119.075 77.3715 118.73 77.797 118.689 78.3079C118.62 79.1493 118.585 80.0097 118.699 80.8416C118.819 81.721 119.421 82.1084 120.35 82.1255C121.676 82.1483 122.658 81.4893 122.867 80.2262C123.06 79.0562 123.054 77.8578 123.145 76.5567V76.5548Z" fill="#FF8945"/>
<path d="M174.258 84.4102H171.018C170.869 84.0835 170.713 83.7492 170.524 83.337C170.225 83.5631 169.983 83.7606 169.727 83.9353C168.627 84.6894 167.458 85.1319 166.055 84.8793C164.298 84.5621 163.27 83.5422 162.869 81.9277C162.538 80.5982 162.483 79.2478 162.788 77.8936C163.152 76.2678 164.117 75.1358 165.785 74.7141C167.139 74.3722 168.541 74.2032 169.922 73.9563C170.111 73.9221 170.3 73.8917 170.595 73.8423C170.761 72.6629 170.727 71.5118 170.129 70.4577C169.696 69.6961 168.883 69.5879 168.062 69.6942C167.277 69.7949 166.87 70.2773 166.762 71.0256C166.695 71.491 166.598 71.9525 166.498 72.5033C165.41 72.7198 164.323 72.5888 163.27 72.5869C162.759 70.8395 163.599 68.8737 165.258 68.0855C167.293 67.1168 169.432 66.9953 171.516 67.9164C173.321 68.7141 173.998 70.2716 174.069 72.0836C174.128 73.6277 174.065 75.1775 174.092 76.7236C174.128 78.7103 174.205 80.697 174.256 82.6837C174.27 83.2174 174.258 83.753 174.258 84.4083V84.4102ZM170.641 76.5546C169.409 76.3855 168.32 76.5546 167.324 77.0712C166.952 77.2649 166.567 77.6334 166.429 78.0056C166.061 79.0028 166.073 80.0531 166.392 81.073C166.602 81.7454 167.096 82.0949 167.85 82.1253C169.413 82.188 170.487 81.2972 170.623 79.6732C170.707 78.6723 170.639 77.6581 170.639 76.5527L170.641 76.5546Z" fill="#FF8945"/>
<path d="M177.81 27.1288H174.553C174.407 26.7983 174.258 26.4622 174.075 26.0443C173.722 26.295 173.419 26.5172 173.11 26.73C171.926 27.5486 170.621 27.8202 169.202 27.4859C167.893 27.1782 166.986 26.3843 166.573 25.1611C166.014 23.5087 165.949 21.8145 166.447 20.1298C166.842 18.7908 167.73 17.8354 169.125 17.467C170.379 17.1346 171.678 16.956 172.957 16.711C173.331 16.6389 173.709 16.5781 174.1 16.5097C174.335 15.4119 174.191 14.4223 173.829 13.4708C173.5 12.6047 172.833 12.3084 171.672 12.4034C170.826 12.4736 170.509 12.7623 170.288 13.7272C170.184 14.183 170.123 14.6503 170.026 15.2049C168.95 15.3264 167.885 15.2505 166.844 15.2505C166.291 13.9684 166.933 12.0026 168.236 11.1156C168.759 10.7586 169.375 10.4186 169.991 10.3236C171.111 10.1508 172.278 10.0197 173.396 10.1299C175.956 10.3844 177.542 12.1868 177.605 14.7946C177.655 16.8763 177.597 18.9598 177.631 21.0415C177.657 22.6806 177.751 24.3197 177.808 25.9569C177.822 26.3254 177.808 26.6939 177.808 27.125L177.81 27.1288ZM174.189 19.2637C172.959 19.1498 171.904 19.2371 170.902 19.7063C170.3 19.9893 169.873 20.4394 169.814 21.07C169.741 21.8506 169.708 22.6521 169.816 23.4251C169.964 24.4717 170.796 24.9959 171.876 24.8325C172.982 24.6654 173.722 24.0671 174.014 23.0092C174.346 21.8012 174.157 20.5781 174.189 19.2637Z" fill="#FF8945"/>
<path d="M132.402 27.1439H129.216C129.042 26.7755 128.883 26.4412 128.694 26.0404C128.421 26.2456 128.198 26.4203 127.968 26.5817C127.218 27.1097 126.419 27.5257 125.469 27.596C123.062 27.7745 121.403 26.5855 120.97 24.3025C120.759 23.1857 120.686 22.0594 120.895 20.9141C121.233 19.0433 122.276 17.7898 124.189 17.3206C125.327 17.0414 126.502 16.9066 127.659 16.7091C128.005 16.6502 128.352 16.597 128.733 16.5343C128.903 15.4878 128.865 14.5191 128.533 13.5809C128.198 12.6331 127.458 12.2779 126.242 12.4109C125.427 12.4983 125.075 12.8933 124.902 13.898C124.833 14.3026 124.75 14.7053 124.66 15.1858H121.473C120.875 13.7917 121.802 11.5923 123.231 10.8743C125.396 9.78981 127.639 9.69294 129.847 10.6806C131.341 11.3492 131.979 12.6692 132.187 14.1886C132.242 14.5932 132.225 15.0092 132.235 15.4194C132.325 19.2067 132.414 22.9939 132.5 26.7812C132.502 26.8685 132.453 26.9578 132.4 27.1458L132.402 27.1439ZM128.773 19.2845C127.525 19.125 126.403 19.2181 125.398 19.8163C125.059 20.0158 124.707 20.3595 124.591 20.7071C124.268 21.6758 124.211 22.6824 124.532 23.6777C124.778 24.4431 125.282 24.8135 126.108 24.8515C127.47 24.9122 128.643 23.9664 128.757 22.5894C128.844 21.5295 128.775 20.4583 128.775 19.2845H128.773Z" fill="#FF8945"/>
<path d="M218.164 79.3048H221.644C221.644 79.658 221.703 79.9733 221.634 80.2601C220.91 83.3446 219.243 85.0293 215.657 84.9685C213.522 84.9325 211.768 84.1044 210.861 82.1025C210.631 81.5916 210.469 81.0123 210.446 80.4596C210.33 77.6865 210.18 74.9116 210.22 72.1386C210.257 69.5707 212.081 67.8993 214.756 67.6676C215.939 67.5651 217.11 67.5764 218.257 67.8784C220.404 68.4444 221.664 70.038 221.681 72.1842C221.693 73.5422 221.687 74.8983 221.681 76.2564C221.681 76.5318 221.646 76.8091 221.618 77.2136H213.963C213.919 78.5944 213.841 79.8499 214.051 81.092C214.199 81.96 214.774 82.3475 215.726 82.3969C216.826 82.452 217.582 82.074 217.836 81.2231C218.013 80.6305 218.05 79.998 218.163 79.3067L218.164 79.3048ZM218.127 74.6097C218.031 73.4777 218.015 72.414 217.832 71.377C217.653 70.3609 216.98 69.9278 215.87 69.9031C214.903 69.8822 214.313 70.2792 213.98 71.2289C213.601 72.3115 213.542 73.4264 213.685 74.6097H218.127Z" fill="#FF8945"/>
<path d="M148.556 47.6718C148.64 46.2017 148.741 44.6917 148.812 43.1799C148.845 42.4562 149.111 41.8181 149.553 41.2597C152.002 38.179 157.032 38.1581 159.447 41.2065C159.882 41.7554 160.189 42.5056 160.263 43.1913C160.592 46.2093 160.62 49.2368 160.293 52.2606C160.159 53.5027 159.472 54.4353 158.439 55.1456C156.19 56.6898 152.852 56.6955 150.591 55.1551C149.52 54.4258 148.851 53.4742 148.8 52.1618C148.741 50.6803 148.64 49.2007 148.556 47.6737V47.6718ZM157.054 47.6623C157.002 47.6623 156.953 47.6604 156.902 47.6585C156.902 46.555 156.924 45.4496 156.892 44.348C156.878 43.8484 156.798 43.3413 156.678 42.8551C156.402 41.7364 155.662 41.2179 154.472 41.2502C153.2 41.2863 152.48 41.8788 152.301 43.254C151.923 46.1428 151.929 49.0431 152.291 51.9358C152.366 52.5284 152.576 53.1095 153.165 53.4571C154.584 54.2985 156.473 53.5806 156.725 51.9946C156.951 50.5683 156.953 49.1096 157.054 47.6642V47.6623Z" fill="#FF8945"/>
<path d="M195.796 76.4733C195.703 77.9719 195.627 79.516 195.509 81.0564C195.434 82.0193 194.908 82.781 194.188 83.4153C191.854 85.4666 187.668 85.4742 185.344 83.4305C184.592 82.7696 184.092 81.9604 184.049 80.9614C183.964 78.9766 183.881 76.9899 183.866 75.0032C183.858 73.9016 183.952 72.7962 184.061 71.6984C184.165 70.6405 184.751 69.8029 185.56 69.1172C187.969 67.0774 191.71 67.102 194.095 69.178C194.979 69.9472 195.495 70.8931 195.538 72.0783C195.591 73.5274 195.707 74.9747 195.798 76.4733H195.796ZM192.334 76.3081C192.312 76.3081 192.293 76.3062 192.271 76.3043C192.271 75.799 192.309 75.2919 192.263 74.7905C192.163 73.6623 192.068 72.5303 191.885 71.4135C191.765 70.688 191.326 70.1561 190.496 70.0099C188.735 69.6984 187.802 70.3556 187.571 71.8276C187.538 72.046 187.481 72.2606 187.459 72.479C187.211 74.9975 187.207 77.516 187.449 80.0364C187.629 81.894 188.439 82.553 190.348 82.3308C190.413 82.3232 190.478 82.3137 190.543 82.3061C191.155 82.2358 191.578 81.9054 191.787 81.366C191.935 80.9861 192.051 80.5796 192.084 80.1789C192.19 78.8911 192.253 77.5996 192.332 76.31L192.334 76.3081Z" fill="#FF8945"/>
<path d="M153.717 76.5073C153.627 77.985 153.55 79.5272 153.428 81.0676C153.349 82.0666 152.791 82.8434 152.027 83.4835C149.701 85.4322 145.769 85.4626 143.407 83.5462C142.573 82.8681 142.016 82.021 141.97 80.9498C141.884 78.87 141.809 76.7884 141.789 74.7086C141.779 73.702 141.829 72.682 142.002 71.6925C142.112 71.0638 142.384 70.3933 142.783 69.89C145.109 66.9594 149.838 66.8074 152.438 69.5937C153.066 70.2661 153.416 71.0657 153.456 71.9964C153.519 73.4779 153.627 74.9555 153.719 76.5073H153.717ZM150.262 76.3306C150.24 76.3306 150.216 76.3287 150.195 76.3268C150.195 75.7912 150.234 75.2499 150.187 74.7181C150.086 73.5899 149.98 72.4598 149.795 71.343C149.693 70.7314 149.317 70.2186 148.636 70.0572C147.046 69.6849 145.755 70.0838 145.513 71.8084C145.483 72.0268 145.408 72.2395 145.387 72.4579C145.131 75.0087 145.127 77.5576 145.383 80.1084C145.564 81.9108 146.377 82.5414 148.252 82.3325C148.317 82.3249 148.382 82.3154 148.447 82.3097C149.106 82.2432 149.53 81.8729 149.748 81.3012C149.882 80.9498 149.978 80.5718 150.01 80.1996C150.114 78.9118 150.181 77.6203 150.264 76.3306H150.262Z" fill="#FF8945"/>
<path d="M226.224 79.2536C226.224 79.774 226.192 80.1501 226.229 80.5205C226.304 81.2441 226.558 81.9126 227.318 82.1918C228.138 82.4938 228.995 82.5204 229.768 82.0342C230.284 81.7094 230.423 81.1757 230.366 80.6154C230.286 79.8253 229.908 79.1662 229.252 78.6838C228.654 78.2432 228.046 77.812 227.408 77.4283C226.174 76.6876 225.137 75.7341 224.084 74.7807C221.831 72.7427 222.705 69.1264 225.535 68.0932C227.408 67.4094 229.311 67.4018 231.203 68.0343C232.299 68.4009 233.003 69.1416 233.314 70.2299C233.552 71.058 233.537 71.8899 233.547 72.7921H230.091C230.008 72.3515 229.898 71.9355 229.858 71.5139C229.723 70.0799 228.477 69.4512 227.2 70.1881C226.501 70.5908 226.253 71.8215 226.802 72.6572C227.089 73.0922 227.532 73.4607 227.971 73.7683C229.056 74.5262 230.207 75.2004 231.285 75.9678C233.194 77.3277 234.184 79.075 233.736 81.4511C233.421 83.1244 232.441 84.1728 230.801 84.6667C229.056 85.1909 227.314 85.0636 225.59 84.5261C223.242 83.7949 222.28 81.7455 222.691 79.3011C223.242 79.2878 223.821 79.2669 224.397 79.2593C224.948 79.2517 225.499 79.2593 226.224 79.2593V79.2536Z" fill="#FF8945"/>
<path d="M109.366 81.7131H114.046V84.5944C113.218 84.8261 106.399 84.8299 105.472 84.5868V61.6658C106.275 61.4398 108.286 61.4265 109.331 61.6582C109.408 63.8139 109.355 66.0114 109.364 68.2051C109.374 70.4463 109.366 72.6894 109.366 74.9306V81.7131Z" fill="#FF8945"/>
<path d="M139.564 34.54V38.8381C140.416 38.8856 141.148 38.9255 141.929 38.9692C142.165 39.7973 142.067 40.5931 142.01 41.4687C141.219 41.5105 140.483 41.5504 139.692 41.5941C139.66 41.9435 139.613 42.2189 139.611 42.4924C139.607 45.5219 139.599 48.5513 139.617 51.5826C139.621 52.198 139.515 52.8627 140.14 53.4344C140.67 53.4686 141.28 53.5066 141.931 53.5484C142.171 54.3442 142.055 55.1153 142.006 56.0232C140.522 56.0061 139.066 56.2398 137.653 55.6833C136.775 55.3376 136.2 54.7184 136.043 53.801C135.952 53.2749 135.889 52.7374 135.887 52.2056C135.874 49.0489 135.88 45.8941 135.88 42.7375C135.88 42.3956 135.88 42.0537 135.88 41.6207C135.203 41.558 134.604 41.5029 133.951 41.4421V38.9749C134.573 38.935 135.147 38.8989 135.842 38.8552V36.0936C137.08 35.5751 138.231 35.0946 139.56 34.5381L139.564 34.54Z" fill="#FF8945"/>
<path d="M180.615 82.0667C181.553 82.116 182.291 82.154 183.08 82.1958V84.7143C181.555 84.7922 180.062 84.8853 178.625 84.344C177.605 83.9603 177.159 83.1303 177.015 82.1369C176.962 81.7647 176.968 81.381 176.966 81.003C176.962 77.7856 176.964 74.57 176.964 71.3526C176.964 71.0126 176.964 70.6726 176.964 70.2472C176.202 70.2111 175.533 70.1807 174.77 70.1446V67.6185C175.498 67.5786 176.167 67.5406 176.946 67.497V64.7297C178.09 64.2244 179.146 63.7572 180.367 63.2178V67.552H182.844V70.1161C182.061 70.1636 181.268 70.2111 180.428 70.2624C180.41 70.5986 180.382 70.8739 180.38 71.1512C180.376 74.2414 180.369 77.3336 180.388 80.4238C180.392 80.9404 180.524 81.457 180.611 82.0705L180.615 82.0667Z" fill="#FF8945"/>
<path d="M192.124 55.9831H188.626V32.7031H192.035C192.242 33.4078 192.328 54.1579 192.124 55.9831Z" fill="#FF8945"/>
<path d="M197.046 67.624H200.496C200.58 68.2584 200.659 68.8358 200.767 69.6392C201.604 68.4388 202.452 67.567 204.005 67.6525C204.197 68.5186 204.097 69.3809 204.07 70.2831C203.851 70.3515 203.674 70.4122 203.495 70.4635C201.806 70.9421 201.064 71.85 201.039 73.5537C201.015 75.1624 201.033 76.7693 201.033 78.378C201.033 80.207 201.033 82.0361 201.031 83.8651C201.031 84.112 200.999 84.3608 200.978 84.6837H197.128C197.101 79.0086 197.073 73.3828 197.046 67.624Z" fill="#FF8945"/>
<path d="M158.953 84.6875H155.276V67.6126C156.256 67.5176 157.313 67.5062 158.457 67.6411C158.571 68.2603 158.677 68.8415 158.789 69.4492C159.309 68.9573 159.771 68.4008 160.352 68.002C160.936 67.6012 161.653 67.4815 162.493 67.6601C162.407 68.5565 162.326 69.3922 162.241 70.2735C162.013 70.3438 161.804 70.4141 161.594 70.4692C159.677 70.9668 158.962 71.8557 158.953 73.8044C158.943 75.981 158.951 78.1576 158.951 80.3342C158.951 81.7511 158.951 83.1661 158.951 84.6894L158.953 84.6875Z" fill="#FF8945"/>
<path d="M146.737 55.9891H143.366C143.132 55.2503 143.094 40.0158 143.33 38.9883H146.749C146.981 39.8905 146.969 55.1705 146.737 55.9891Z" fill="#FF8945"/>
<path d="M208.867 84.6629C207.626 84.8263 206.474 84.7883 205.345 84.7066C205.11 83.8443 205.091 68.6117 205.321 67.6336C206.35 67.4987 207.405 67.5291 208.556 67.6241C208.594 68.0154 208.647 68.3496 208.651 68.6839C208.672 70.0723 208.669 71.4626 208.69 72.851C208.745 76.3857 208.806 79.9203 208.865 83.455C208.871 83.8291 208.865 84.2014 208.865 84.6648L208.867 84.6629Z" fill="#FF8945"/>
<path d="M164.9 27.142H161.574C161.344 26.4297 161.279 11.5865 161.499 10.3481H164.849C165.069 11.0281 165.128 25.9188 164.9 27.142Z" fill="#FF8945"/>
<path d="M143.244 32.6841H146.833V36.0573H143.226C143.159 34.9196 143.139 33.8142 143.242 32.6841H143.244Z" fill="#FF8945"/>
<path d="M205.213 61.5518H208.575C208.702 62.7084 208.64 63.8176 208.606 65.0066H205.256C205.083 63.9069 205.164 62.7977 205.213 61.5518Z" fill="#FF8945"/>
<path d="M164.979 7.4459H161.462V4.0708H164.985C165.061 5.1819 165.065 6.30631 164.979 7.4459Z" fill="#FF8945"/>
<path d="M53.8778 15.5352C54.171 19.7896 54.1651 24.0061 54.3718 28.3233H73.5384C73.8178 29.1134 73.869 63.3563 73.6072 64.4712C71.0724 64.6099 68.5061 64.7504 65.7903 64.9004C65.682 62.7732 65.7548 60.7352 65.743 58.6992C65.7292 56.6517 65.7391 54.6042 65.7391 52.4789H61.8345V41.4058C59.4611 41.3223 57.2274 41.3754 54.9897 41.364C54.9228 41.6091 54.8618 41.7268 54.8638 41.8446C54.9071 43.7686 54.9563 45.6926 55.0075 47.6185C55.0134 47.8084 55.037 47.9965 55.0429 48.1864C55.1255 51.5634 55.1964 54.9404 55.2928 58.3174C55.4168 62.6403 55.5565 66.9612 55.7002 71.2822C55.7199 71.8748 55.7927 72.4636 55.8399 73.0277C55.0763 73.2955 37.126 73.3619 35.8704 73.1112C35.8547 72.8035 35.8133 72.4674 35.8212 72.1331C35.892 69.1663 35.9688 66.1996 36.0515 63.2348C36.1046 61.3411 36.1774 59.4494 36.2384 57.5577C36.3722 53.3944 36.5021 49.2291 36.6419 45.0658C36.6714 44.1826 36.7501 43.3032 36.7875 42.4201C36.8013 42.1143 36.758 41.8066 36.7363 41.4343H29.7065C29.7065 43.3185 29.7065 45.1418 29.7065 46.9632C29.7065 48.7847 29.7065 50.61 29.7065 52.4789H25.8099V64.8568C23.0979 64.7561 20.506 64.627 17.9338 64.4484C17.6996 63.702 17.6681 29.4021 17.9142 28.3708H37.0886C37.3681 26.2777 37.431 24.2796 37.372 22.1467C35.2524 21.9815 33.1663 22.16 30.9602 22.0327C30.8795 19.8599 30.9267 17.7365 30.9287 15.5389H53.8817L53.8778 15.5352Z" fill="#FF8945"/>
</svg>
