<svg width="182" height="50" viewBox="0 0 182 50" fill="none" xmlns="http://www.w3.org/2000/svg">
<g clip-path="url(#clip0_502_111)">
<path d="M48.4354 25.6517C48.4327 37.1497 39.6731 47.4082 27.9095 49.2236C14.7968 51.2461 2.45033 42.1723 0.394213 29.0021C-1.70561 15.5479 7.49883 2.98958 20.8864 1.1049C24.65 0.575235 28.365 0.903222 31.9789 2.14955C32.7773 2.42467 32.8288 2.52258 32.5413 3.28623C32.3286 3.85115 32.078 4.40236 31.9032 4.97804C31.742 5.50968 31.4739 5.55471 30.9912 5.38825C26.6964 3.9001 22.3297 3.7366 18.0445 5.22282C9.66472 8.12861 4.67639 14.0539 3.60222 22.9319C2.25802 34.0412 10.0998 44.1774 21.0923 45.8897C32.5782 47.6794 43.4328 39.5376 44.8595 27.9123C45.8298 20.0055 43.019 13.5604 36.8847 8.56233C36.096 7.91913 36.0776 7.91423 36.6603 7.06438C36.9332 6.66692 37.2042 6.26745 37.481 5.87191C37.92 5.24727 38.0667 5.22576 38.6931 5.69961C41.5796 7.88189 43.8854 10.5684 45.588 13.7738C47.4819 17.3376 48.3882 21.153 48.4345 25.6507L48.4354 25.6517Z" fill="#FF8945"/>
<path d="M24.2591 6.02829C33.7005 6.03123 41.7715 13.1009 43.0972 22.5312C44.5619 32.9464 37.2358 42.827 26.864 44.1144C18.9114 45.1013 12.6489 42.0466 8.15296 35.3656C7.66541 34.6411 7.70718 34.551 8.45116 34.1516C8.95914 33.8784 9.47582 33.619 9.97116 33.3253C10.4237 33.057 10.6957 33.0903 11.0152 33.5886C13.4113 37.3188 16.7669 39.6862 21.0928 40.6251C29.6213 42.4755 38.2809 36.5463 39.6765 27.9091C41.0664 19.3033 35.6925 11.4473 27.2194 9.69876C18.6715 7.93546 10.0489 14.0193 8.76584 22.7074C8.51622 24.3963 8.49293 26.0783 8.79205 27.7564C8.88824 28.2958 8.75514 28.5592 8.19765 28.6552C7.60812 28.756 7.03216 28.9411 6.44943 29.082C5.66758 29.272 5.63456 29.2563 5.5054 28.4946C5.18585 26.6011 5.06346 24.689 5.36846 22.7926C6.65825 14.7781 11.1221 9.40896 18.8007 6.88299C20.5353 6.31221 22.4127 6.18005 24.2241 5.84521C24.2348 5.90588 24.2464 5.96758 24.2571 6.02829H24.2591Z" fill="#FF8945"/>
<path d="M24.2251 39.1154C17.0068 39.1154 11.0638 33.6317 10.4043 26.3642C9.75749 19.2357 14.8176 12.6497 21.8902 11.4131C30.3448 9.93474 38.0885 16.5062 38.1022 25.1532C38.1051 26.842 37.836 28.4702 37.2436 30.0474C36.9687 30.7778 36.9454 30.7876 36.2879 30.4371C35.7576 30.1541 35.2457 29.8301 34.697 29.5902C34.1521 29.3513 34.0375 29.0674 34.223 28.4741C35.405 24.694 34.7504 21.2193 32.1582 18.2489C29.3872 15.0728 25.8189 13.9029 21.7416 14.9221C17.675 15.9383 15.0546 18.6385 14.0193 22.7261C12.8975 27.1543 14.7934 31.6697 18.6589 34.1546C22.371 36.5405 27.1932 36.2791 30.7324 33.4995C31.4161 32.9631 31.4793 32.9621 32.131 33.5446C32.5437 33.9137 32.9352 34.3102 33.3625 34.6617C33.8248 35.0425 33.75 35.3411 33.3372 35.7142C30.9266 37.8916 27.671 39.1164 24.2241 39.1164L24.2251 39.1154Z" fill="#FF8945"/>
<path d="M113.753 30.6663C114.367 29.6549 114.873 28.8198 115.309 28.1021C116.649 28.5231 117.876 29.0273 119.151 29.2682C119.964 29.4219 120.865 29.2672 121.695 29.0978C122.394 28.9549 122.839 28.4184 122.906 27.6498C122.976 26.8509 122.525 26.3359 121.873 26.0735C120.965 25.7064 120.004 25.4714 119.073 25.1601C118.209 24.8722 117.32 24.6333 116.502 24.2446C113.329 22.7369 113.524 18.5182 115.79 16.8166C116.866 16.0089 118.076 15.629 119.403 15.5478C121.608 15.4126 123.684 15.8806 125.758 16.8528C125.351 17.7252 124.959 18.5652 124.635 19.2593C123.184 18.9715 121.84 18.6357 120.474 18.4673C119.867 18.3929 119.193 18.5838 118.595 18.7894C117.962 19.0067 117.605 19.5511 117.597 20.2462C117.588 20.9002 117.968 21.3623 118.528 21.5924C119.301 21.9096 120.113 22.1319 120.907 22.3962C121.907 22.7291 122.94 22.9856 123.896 23.4173C125.6 24.1859 126.404 25.586 126.389 27.4638C126.376 29.3348 125.549 30.7123 123.875 31.5219C121.706 32.5705 119.438 32.4628 117.188 31.8891C116.044 31.5983 114.954 31.1019 113.753 30.6672V30.6663Z" fill="#FF8945"/>
<path d="M163.154 26.9706C163.228 28.6683 164.45 29.7404 166.196 29.5328C167.292 29.4026 168.359 29.009 169.559 28.7025C169.901 29.2273 170.357 29.9254 170.838 30.6656C169.599 31.5869 168.247 32.1332 166.771 32.236C165.802 32.3035 164.778 32.2869 163.845 32.045C161.303 31.3842 159.968 29.5544 159.615 27.0156C159.291 24.6885 159.684 22.5247 161.493 20.8319C163.351 19.0932 166.572 18.7182 168.756 20.0066C170.397 20.9739 171.075 22.5316 171.203 24.3604C171.247 25.0047 171.124 25.6587 171.114 26.3088C171.106 26.8522 170.85 26.9873 170.343 26.9814C168.204 26.9579 166.065 26.9716 163.926 26.9716C163.669 26.9716 163.413 26.9716 163.153 26.9716L163.154 26.9706ZM167.918 24.4192C168.06 22.8165 167.255 21.7865 165.869 21.7484C164.424 21.7082 163.127 23.0035 163.194 24.4192H167.918Z" fill="#FF8945"/>
<path d="M107.517 26.969H99.6034C99.6173 28.606 100.86 29.6437 102.613 29.5693C103.772 29.5204 104.817 29.1337 105.882 28.5071C106.338 29.2061 106.794 29.9022 107.289 30.659C106.165 31.5284 104.925 32.0121 103.587 32.2C101.239 32.53 99.0439 32.1981 97.4272 30.2419C96.0662 28.5952 95.8013 26.6341 96.0555 24.5663C96.3695 22.0149 98.1126 20.0412 100.593 19.442C101.638 19.1894 102.69 19.1796 103.734 19.4283C106.162 20.0069 107.56 21.8417 107.666 24.6467C107.694 25.3859 107.574 26.1299 107.517 26.969ZM99.5649 24.4146H104.396C104.484 22.8853 103.78 21.9043 102.529 21.7653C101.051 21.6008 99.8502 22.6562 99.5635 24.4146H99.5649Z" fill="#FF8945"/>
<path d="M150.197 26.9584C150.445 28.7559 151.535 29.64 153.246 29.5685C154.407 29.5206 155.453 29.1358 156.514 28.5082C156.974 29.2034 157.434 29.8995 157.934 30.6543C156.822 31.511 155.587 32.0035 154.248 32.1934C152.013 32.5106 149.939 32.209 148.265 30.4761C145.687 27.8092 145.67 20.81 151.22 19.4432C152.264 19.1857 153.317 19.1759 154.361 19.4226C156.984 20.0414 158.476 22.256 158.31 25.2832C158.28 25.8286 158.178 26.37 158.104 26.9574H150.196L150.197 26.9584ZM150.189 24.4031H155.054C155.09 22.8522 154.428 21.9261 153.216 21.7724C151.739 21.5844 150.616 22.537 150.189 24.4031Z" fill="#FF8945"/>
<path d="M76.3673 24.5351C76.4178 24.448 76.4372 24.4284 76.4405 24.4078C76.6665 22.3988 75.9575 21.7272 73.9606 22.0973C73.422 22.1971 72.8926 22.3724 72.3749 22.5575C71.8794 22.7346 71.4056 22.9716 70.8536 23.2124C70.4558 22.3881 70.0603 21.5725 69.6398 20.7031C71.9951 19.5566 74.3871 18.8977 76.9717 19.5282C78.882 19.9943 79.8591 21.4051 79.8823 23.6481C79.8989 25.243 79.9077 26.8388 79.8758 28.4337C79.861 29.1602 80.03 29.6781 80.8622 29.7359V32.0817C79.365 32.0366 77.8895 32.1042 76.8841 30.6356C76.0538 31.3787 75.2003 32.0572 74.0851 32.1815C73.447 32.253 72.7829 32.3019 72.1545 32.2031C70.6818 31.971 69.669 30.99 69.4124 29.6859C69.1248 28.2261 69.7069 26.8467 70.9958 25.9978C72.4476 25.0413 74.1101 24.7897 75.7847 24.587C75.9732 24.5645 76.1635 24.5527 76.3664 24.5351H76.3673ZM76.4724 26.4639C75.405 26.5011 74.4473 26.644 73.5859 27.1678C72.8718 27.6025 72.574 28.3622 72.8255 29.0084C73.0663 29.6291 73.6702 29.9033 74.5737 29.8015C75.4545 29.7026 76.4275 29.1161 76.4609 28.5952C76.5053 27.906 76.4715 27.2109 76.4715 26.4639H76.4724Z" fill="#FF8945"/>
<path d="M93.9756 31.9687H90.5671V31.164C90.5671 28.7232 90.5713 26.2824 90.5662 23.8416C90.5625 22.1068 89.4756 21.3509 87.8964 22.0696C86.7145 22.607 86.2616 23.0261 86.3075 24.3322C86.3871 26.6006 86.3297 28.875 86.3297 31.1464V31.9619H82.9907V19.6209H86.0949C86.1625 19.9978 86.2338 20.3905 86.3209 20.8731C86.5006 20.7302 86.6553 20.6088 86.8086 20.4855C87.9228 19.5867 89.1718 19.1148 90.6148 19.2939C92.6196 19.5426 93.7838 20.7136 93.8959 22.7705C93.9978 24.6503 93.9607 26.537 93.9765 28.4207C93.9862 29.5789 93.9783 30.7371 93.9783 31.9697L93.9756 31.9687Z" fill="#FF8945"/>
<path d="M174.118 16.4755H177.541V19.5723H180.249V21.9632H177.559C177.559 22.7062 177.559 23.3505 177.559 23.9956C177.559 25.3487 177.555 26.7027 177.56 28.0558C177.565 29.3511 178.169 29.7946 179.41 29.4069C179.704 29.3148 179.984 29.1749 180.365 29.0182C180.75 29.6497 181.145 30.2969 181.576 31.0027C180.706 31.7664 179.701 32.1032 178.629 32.2461C178.135 32.3117 177.618 32.298 177.12 32.2402C175.194 32.017 174.164 30.758 174.13 28.5541C174.101 26.6695 174.123 24.7838 174.123 22.8981C174.123 22.6338 174.123 22.3685 174.123 22.0072H172.224V19.5968H174.116V16.4746L174.118 16.4755Z" fill="#FF8945"/>
<path d="M56.7817 30.0351C57.5519 29.3302 58.2952 28.6497 58.9593 28.0427C59.5886 28.4118 60.1374 28.8769 60.7686 29.0746C62.1102 29.4946 63.2272 28.7349 63.469 27.3505C63.5264 27.0196 63.5389 26.677 63.5398 26.3402C63.5444 23.1475 63.5426 19.9557 63.5426 16.763C63.5426 16.4781 63.5426 16.1932 63.5426 15.8564H67.0469V16.6691C67.0469 20.0546 67.0617 23.4412 67.0344 26.8268C67.0284 27.4945 66.9344 28.1837 66.7496 28.824C66.3245 30.3034 65.3793 31.3441 63.9256 31.8953C61.3933 32.8558 58.5758 32.1518 56.7817 30.0351Z" fill="#FF8945"/>
<path d="M132.48 19.5786H135.233V21.943H132.659C132.585 22.085 132.524 22.1457 132.524 22.2074C132.522 24.2134 132.487 26.2205 132.542 28.2256C132.573 29.3701 133.167 29.7383 134.281 29.4328C134.623 29.3388 134.948 29.1851 135.32 29.0441C135.399 29.1489 135.491 29.2546 135.564 29.3721C135.889 29.9047 136.209 30.4412 136.524 30.966C135.186 32.3024 132.281 32.7155 130.702 31.807C129.466 31.0962 129.145 29.8919 129.121 28.5888C129.086 26.6787 129.111 24.7676 129.111 22.8565C129.111 22.5961 129.111 22.3356 129.111 22.0018H127.223V19.5864H129.084V16.5073H132.481V19.5766L132.48 19.5786Z" fill="#FF8945"/>
<path d="M138.087 31.9526V19.6303H141.184C141.265 20.1805 141.34 20.6955 141.436 21.3534C142.662 19.4119 144.303 18.8323 146.46 19.4609C146.298 20.5046 146.141 21.5159 145.978 22.5596C145.676 22.4969 145.446 22.4401 145.213 22.4039C143.494 22.1327 142.32 22.7427 141.582 24.3238C141.467 24.5725 141.449 24.8838 141.447 25.1668C141.436 27.1494 141.441 29.1329 141.441 31.1155C141.441 31.3779 141.441 31.6403 141.441 31.9536H138.087V31.9526Z" fill="#FF8945"/>
</g>
<defs>
<clipPath id="clip0_502_111">
<rect width="182" height="49" fill="white" transform="translate(0 0.553223)"/>
</clipPath>
</defs>
</svg>
