<svg width="178" height="45" viewBox="0 0 178 45" fill="none" xmlns="http://www.w3.org/2000/svg">
<path d="M167.236 12.7474L150.853 33.344C148.729 31.9968 146.865 30.1767 145.435 27.9298L166.039 11.541C166.678 11.032 166.452 10.0096 165.657 9.81872L148.165 5.61941C149.153 4.68308 150.265 3.84609 151.496 3.1356C159.944 -1.74221 170.748 1.15252 175.625 9.6011C179.63 16.537 178.395 25.0591 173.15 30.5875L168.959 13.1292C168.768 12.3342 167.745 12.1075 167.236 12.7474ZM157.828 35.9201C161.099 36.3899 164.521 35.9479 167.692 34.4886V14.7655L157.828 35.9201ZM144.263 11.0849C142.866 14.1478 142.354 17.581 142.842 20.9607L164.02 11.0849H144.263Z" fill="#FF8945"/>
<path d="M118.947 43.3381L120.924 40.5953C121.553 41.2406 122.263 41.644 123.296 41.644C125.111 41.644 126.03 40.8938 127.2 38.3124L127.539 37.5459L120.343 20.9601H123.868L129.249 33.6979L134.388 20.9601H137.889L130.08 39.232C128.354 43.3059 126.603 44.7659 123.328 44.7659C121.666 44.7659 120.053 44.2012 118.947 43.3381ZM3.25904 17.8382V24.7839H10.2371C13.0847 24.7839 14.44 23.2754 14.44 21.2344C14.44 19.145 12.9072 17.8382 10.108 17.8382H3.25904ZM0 14.8291H10.116C14.7949 14.8291 17.7475 17.2573 17.7475 21.2344C17.7475 23.4205 16.6987 25.2114 14.7142 26.2117C16.86 27.1959 18.0863 29.0675 18.0863 31.6409C18.0863 35.9406 15.0128 38.3849 10.2936 38.3849L0 38.3849V14.8291ZM3.25904 27.8494V35.3437H10.2855C13.0928 35.3437 14.7708 33.8432 14.7708 31.5844C14.7708 29.2933 13.3107 27.8494 10.0596 27.8494H3.25904ZM35.1424 29.6402C35.1424 26.3166 32.6336 23.5819 29.2375 23.5819C25.9057 23.5819 23.3242 26.2441 23.3242 29.6402C23.3242 33.0606 25.9057 35.7228 29.2375 35.7228C32.6336 35.7228 35.1424 33.0042 35.1424 29.6402ZM20.0652 29.6725C20.0652 24.2272 24.1391 20.6052 28.8663 20.6052C31.2461 20.6052 33.6179 21.7184 34.9569 23.5496V20.9601H38.1676V38.3849H34.9489V35.6986C33.5856 37.5944 31.2138 38.7399 28.8421 38.7399C24.1955 38.7399 20.0652 35.0936 20.0652 29.6725ZM41.8048 13.5859H45.1043V38.3849H41.8048V13.5859ZM45.9905 43.3381L47.9669 40.5953C48.5961 41.2406 49.306 41.644 50.3386 41.644C52.1537 41.644 53.0734 40.8938 54.2431 38.3124L54.5818 37.5459L47.386 20.9601H50.9114L56.2921 33.6979L61.4309 20.9601H64.9319L57.1231 39.232C55.3966 43.3059 53.6461 44.7659 50.3709 44.7659C48.7092 44.7659 47.0957 44.2012 45.9905 43.3381ZM80.1555 29.6402C80.1555 26.3166 77.6467 23.5819 74.2505 23.5819C70.9187 23.5819 68.3372 26.2441 68.3372 29.6402C68.3372 33.0606 70.9187 35.7228 74.2505 35.7228C77.6467 35.7228 80.1555 33.0042 80.1555 29.6402ZM65.0782 29.6725C65.0782 24.2272 69.1521 20.6052 73.8793 20.6052C76.2591 20.6052 78.6309 21.7184 79.97 23.5496V20.9601H83.1807V38.3849H79.9619V35.6986C78.5986 37.5944 76.2268 38.7399 73.8551 38.7399C69.2086 38.7399 65.0782 35.0936 65.0782 29.6725ZM85.4061 34.9484L88.3264 33.2301C89.4235 34.8919 90.9803 35.8761 93.2634 35.8761C95.6351 35.8761 96.8855 34.7064 96.8855 33.2785C96.8855 31.657 94.6913 31.2939 92.3357 30.802C89.3832 30.1968 86.2369 29.2691 86.2369 25.7358C86.2369 23.0252 88.786 20.5892 92.8923 20.5729C96.1432 20.5601 98.3618 21.7668 99.8864 23.7917L97.0872 25.4453C96.1755 24.1305 94.8526 23.3157 92.8923 23.3157C90.6255 23.3157 89.5767 24.3563 89.5767 25.6793C89.5767 27.1717 91.2846 27.5134 93.949 28.0752C96.8749 28.6922 100.169 29.6402 100.169 33.2462C100.169 35.8438 97.8697 38.7561 93.1262 38.7399C89.4155 38.7273 86.9065 37.3927 85.4061 34.9484ZM102.806 20.9601H106.017V23.5012C107.211 21.7588 109.204 20.6052 111.696 20.6052C116.149 20.6052 118.924 23.5254 118.924 28.3253V38.3849H115.617V28.5512C115.617 25.4776 113.987 23.5013 110.962 23.5013C108.203 23.5013 106.082 25.5664 106.082 28.7528V38.3849H102.806V20.9601Z" fill="#FF8945"/>
</svg>
