<svg width="209" height="41" viewBox="0 0 209 41" fill="none" xmlns="http://www.w3.org/2000/svg">
<g clip-path="url(#clip0_502_231)">
<mask id="mask0_502_231" style="mask-type:luminance" maskUnits="userSpaceOnUse" x="0" y="0" width="209" height="41">
<path d="M209 0.765625H0V40.7656H209V0.765625Z" fill="white"/>
</mask>
<g mask="url(#mask0_502_231)">
<mask id="mask1_502_231" style="mask-type:luminance" maskUnits="userSpaceOnUse" x="-13" y="-31" width="102" height="103">
<path d="M-12.249 -30.1001H88.3806V71.639H-12.249V-30.1001Z" fill="white"/>
</mask>
<g mask="url(#mask1_502_231)">
<mask id="mask2_502_231" style="mask-type:luminance" maskUnits="userSpaceOnUse" x="-13" y="-31" width="102" height="103">
<path d="M-12.249 -30.1001H88.3806V71.639H-12.249V-30.1001Z" fill="white"/>
</mask>
<g mask="url(#mask2_502_231)">
<mask id="mask3_502_231" style="mask-type:alpha" maskUnits="userSpaceOnUse" x="0" y="1" width="23" height="40">
<path d="M22.86 14.1444L22.9334 13.9956L15.6584 1.12764L15.4219 1.125C15.1925 1.25745 14.9631 1.48938 14.8321 1.7213L0.644097 26.5673C0.349103 27.0643 0.349103 27.7268 0.644097 28.2238L7.26292 39.8185C7.39392 40.0835 7.62332 40.2823 7.85272 40.4148L7.95204 40.2411L22.86 14.1444Z" fill="#FF8945"/>
</mask>
<g mask="url(#mask3_502_231)">
<mask id="mask4_502_231" style="mask-type:luminance" maskUnits="userSpaceOnUse" x="-13" y="-31" width="102" height="103">
<path d="M-12.249 -30.1001H88.3806V71.639H-12.249V-30.1001Z" fill="white"/>
</mask>
<g mask="url(#mask4_502_231)">
<path d="M38.0658 -30.1001C65.8345 -30.1001 88.3806 -7.30545 88.3806 20.7695C88.3806 48.8444 65.8345 71.639 38.0658 71.639C10.297 71.639 -12.249 48.8444 -12.249 20.7695C-12.249 -7.30545 10.297 -30.1001 38.0658 -30.1001Z" fill="#FF8945"/>
</g>
</g>
<path d="M37.9982 14.144L37.8095 13.9712H22.9712L22.7553 14.144L7.84717 40.2911L7.85294 40.4143C8.08234 40.547 8.37696 40.6463 8.67196 40.6463H21.9096C22.4994 40.6463 23.0238 40.315 23.3186 39.818L37.9654 14.144H37.9982Z" fill="#97552F"/>
<mask id="mask5_502_231" style="mask-type:alpha" maskUnits="userSpaceOnUse" x="15" y="0" width="23" height="15">
<path d="M22.8586 14.1439H37.9969L30.8864 1.72081C30.5914 1.22398 30.0672 0.892578 29.4774 0.892578H16.2396C15.9446 0.892578 15.6498 0.958897 15.4204 1.12451L22.8586 14.1439Z" fill="#FFB388"/>
</mask>
<g mask="url(#mask5_502_231)">
<mask id="mask6_502_231" style="mask-type:luminance" maskUnits="userSpaceOnUse" x="-13" y="-31" width="102" height="103">
<path d="M-12.249 -30.1001H88.3806V71.639H-12.249V-30.1001Z" fill="white"/>
</mask>
<g mask="url(#mask6_502_231)">
<path d="M38.0658 -30.1001C65.8345 -30.1001 88.3806 -7.30545 88.3806 20.7695C88.3806 48.8444 65.8345 71.639 38.0658 71.639C10.297 71.639 -12.249 48.8444 -12.249 20.7695C-12.249 -7.30545 10.297 -30.1001 38.0658 -30.1001Z" fill="#FFB388"/>
</g>
</g>
</g>
<mask id="mask7_502_231" style="mask-type:luminance" maskUnits="userSpaceOnUse" x="25" y="-31" width="102" height="103">
<path d="M25.394 71.6392H126.024V-30.1H25.394V71.6392Z" fill="white"/>
</mask>
<g mask="url(#mask7_502_231)">
<mask id="mask8_502_231" style="mask-type:alpha" maskUnits="userSpaceOnUse" x="37" y="1" width="24" height="40">
<path d="M60.5031 27.3947L60.5765 27.5435L53.3015 40.4114L53.0651 40.4141C52.8357 40.2816 52.6063 40.0497 52.4753 39.8178L37.9727 14.0768V14.0804L44.906 1.7206C45.037 1.45551 45.2664 1.25674 45.4958 1.1243L45.5952 1.29801L60.5031 27.3947Z" fill="#FF8945"/>
</mask>
<g mask="url(#mask8_502_231)">
<mask id="mask9_502_231" style="mask-type:luminance" maskUnits="userSpaceOnUse" x="25" y="-31" width="102" height="103">
<path d="M25.394 -30.1006H126.024V71.6385H25.394V-30.1006Z" fill="white"/>
</mask>
<g mask="url(#mask9_502_231)">
<path d="M75.7089 -30.1006C103.478 -30.1006 126.024 -7.30593 126.024 20.769C126.024 48.8439 103.478 71.6385 75.7089 71.6385C47.9401 71.6385 25.394 48.8439 25.394 20.769C25.394 -7.30593 47.9401 -30.1006 75.7089 -30.1006Z" fill="#FF8945"/>
</g>
</g>
<mask id="mask10_502_231" style="mask-type:alpha" maskUnits="userSpaceOnUse" x="45" y="0" width="31" height="28">
<path d="M75.6413 27.3951L75.4525 27.5679H60.6143L60.3983 27.3951L45.4902 1.24796L45.496 1.12474C45.7254 0.992104 46.02 0.892812 46.315 0.892812H59.5527C60.1425 0.892812 60.6669 1.22403 60.9617 1.72105L75.6085 27.3951H75.6413Z" fill="#FFB388"/>
</mask>
<g mask="url(#mask10_502_231)">
<mask id="mask11_502_231" style="mask-type:luminance" maskUnits="userSpaceOnUse" x="25" y="-31" width="102" height="103">
<path d="M25.394 -30.1001H126.024V71.639H25.394V-30.1001Z" fill="white"/>
</mask>
<g mask="url(#mask11_502_231)">
<path d="M75.7089 -30.1001C103.478 -30.1001 126.024 -7.30545 126.024 20.7695C126.024 48.8444 103.478 71.639 75.7089 71.639C47.9401 71.639 25.394 48.8444 25.394 20.7695C25.394 -7.30545 47.9401 -30.1001 75.7089 -30.1001Z" fill="#FFB388"/>
</g>
</g>
<path d="M60.5017 27.3952H75.6399L68.5295 39.8183C68.2345 40.3151 67.7103 40.6465 67.1205 40.6465H53.8827C53.5877 40.6465 53.2929 40.5802 53.0635 40.4146L60.5017 27.3952Z" fill="#97552F"/>
</g>
</g>
<path d="M121.189 6.74922H128.026V35.5127H122.907V15.0141L115.033 35.5127H110.405L102.531 14.9802V35.5127H97.4233V6.74922H104.26L112.747 28.9278L121.245 6.74922H121.189ZM152.472 25.0153C152.472 27.1238 152.014 28.9955 151.1 30.6755C150.197 32.3217 148.925 33.6409 147.297 34.5655C145.669 35.4788 143.773 35.9411 141.698 35.9411C139.613 35.9411 137.661 35.4789 136.033 34.5317C134.405 33.5733 133.133 32.2879 132.219 30.6079C131.304 28.9616 130.858 27.09 130.858 25.0153C130.858 22.9406 131.304 21.0351 132.219 19.3889C133.133 17.7426 134.438 16.4573 136.066 15.4989C137.695 14.5518 139.579 14.0895 141.698 14.0895C143.806 14.0895 145.669 14.5517 147.297 15.465C148.925 16.3896 150.197 17.7089 151.1 19.3551C152.014 21.0013 152.472 22.9068 152.472 25.0153ZM147.553 25.0153C147.553 23.7638 147.33 22.6137 146.84 21.6214C146.349 20.6405 145.669 19.8511 144.754 19.3212C143.873 18.7913 142.836 18.532 141.698 18.532C140.55 18.532 139.512 18.7913 138.598 19.3212C137.717 19.8511 137.003 20.6066 136.512 21.5876C136.033 22.5798 135.765 23.7299 135.765 25.0153C135.765 26.3007 136.033 27.4508 136.512 28.4317C137.003 29.4239 137.717 30.1794 138.598 30.7094C139.479 31.2393 140.516 31.4986 141.698 31.4986C142.869 31.4986 143.84 31.2393 144.754 30.7094C145.635 30.1794 146.349 29.4239 146.84 28.4317C147.33 27.4508 147.553 26.3007 147.553 25.0153ZM175.88 6.32075V35.4788H170.962V33.0434C170.304 33.9341 169.468 34.6219 168.386 35.1519C167.349 35.6818 166.078 35.9411 164.617 35.9411C162.721 35.9411 161.037 35.4788 159.565 34.5881C158.104 33.7086 156.966 32.4232 156.152 30.777C155.338 29.1308 154.947 27.1914 154.947 24.9815C154.947 22.7715 155.338 20.8998 156.118 19.2536C156.899 17.6074 158.003 16.322 159.431 15.3974C160.869 14.4841 162.531 14.0218 164.449 14.0218C165.944 14.0218 167.215 14.2473 168.297 14.7434C169.367 15.2395 170.249 15.8935 170.962 16.7505V6.21924H175.88V6.32075ZM171.13 25.0153C171.13 23.7638 170.895 22.6137 170.438 21.6214C169.981 20.6405 169.334 19.8511 168.486 19.3212C167.639 18.7913 166.669 18.532 165.52 18.532C164.315 18.532 163.312 18.7913 162.464 19.3212C161.617 19.8511 160.97 20.6405 160.512 21.6214C160.055 22.6137 159.832 23.7638 159.832 25.0153C159.832 26.2669 160.055 27.4169 160.512 28.4091C160.97 29.3901 161.617 30.1794 162.498 30.7094C163.379 31.2393 164.382 31.4986 165.553 31.4986C166.724 31.4986 167.639 31.2393 168.486 30.7094C169.334 30.1794 169.981 29.3901 170.472 28.4091C170.929 27.4169 171.152 26.2669 171.152 25.0153H171.13ZM199.68 14.5517V35.5127H194.762V33.1448C194.081 34.0356 193.234 34.7234 192.152 35.2195C191.115 35.7156 189.843 35.9749 188.382 35.9749C186.486 35.9749 184.791 35.5126 183.33 34.6219C181.869 33.7311 180.732 32.457 179.951 30.8108C179.137 29.1646 178.747 27.214 178.747 25.0153C178.747 22.8053 179.137 20.9336 179.918 19.2874C180.698 17.6412 181.802 16.3558 183.23 15.4313C184.669 14.518 186.33 14.0556 188.249 14.0556C189.776 14.0556 191.081 14.315 192.185 14.8449C193.289 15.3749 194.137 16.0627 194.762 16.9196V14.4841H199.68V14.5517ZM194.918 25.0153C194.918 23.7638 194.695 22.6137 194.237 21.6214C193.78 20.6405 193.133 19.8511 192.286 19.3212C191.438 18.7913 190.457 18.532 189.319 18.532C188.115 18.532 187.111 18.7913 186.263 19.3212C185.416 19.8511 184.769 20.6405 184.312 21.6214C183.854 22.6137 183.62 23.7638 183.62 25.0153C183.62 26.2669 183.854 27.4169 184.312 28.4091C184.769 29.3901 185.416 30.1794 186.297 30.7094C187.178 31.2393 188.182 31.4986 189.353 31.4986C190.524 31.4986 191.438 31.2393 192.286 30.7094C193.133 30.1794 193.78 29.3901 194.271 28.4091C194.728 27.4169 194.951 26.2669 194.951 25.0153H194.918ZM203.773 6.32075V35.4788H208.691V6.32075H203.773Z" fill="#FF8945"/>
</g>
</g>
<defs>
<clipPath id="clip0_502_231">
<rect width="209" height="40" fill="white" transform="translate(0 0.765625)"/>
</clipPath>
</defs>
</svg>
