<svg width="94" height="56" viewBox="0 0 94 56" fill="none" xmlns="http://www.w3.org/2000/svg">
<path d="M92.4033 0.766113C93.2483 0.766113 93.9998 1.42515 94 2.3667V38.3433C93.9061 39.1908 93.5302 39.9442 92.9668 40.5093L78.7871 54.8247C78.2237 55.3896 77.3782 55.7661 76.5332 55.7661H1.59668C0.751657 55.7661 0.000234834 55.1071 0 54.1655V18.189C2.75749e-05 17.3414 0.376059 16.5884 0.939453 15.9292L15.1191 1.70752C15.6826 1.14263 16.5281 0.766113 17.373 0.766113H92.4033ZM16.0576 16.3999C15.7761 16.4001 15.4944 16.6821 15.4941 16.9644V39.4731C15.4941 39.7556 15.776 40.0384 16.0576 40.0386H20.8467C21.1284 40.0386 21.4102 39.7557 21.4102 39.4731V31.7505C21.4103 31.4682 21.6921 31.1863 21.9736 31.186H28.7354C29.017 31.1861 29.2987 31.4681 29.2988 31.7505V39.4731C29.2988 39.7557 29.5806 40.0386 29.8623 40.0386H34.6514C34.933 40.0386 35.2147 39.756 35.2148 39.3794V16.9644C35.2146 16.682 34.933 16.3999 34.6514 16.3999H29.8623C29.5807 16.3999 29.2991 16.682 29.2988 16.9644V24.687C29.2988 24.9695 29.017 25.2524 28.7354 25.2524H21.9736C21.692 25.2522 21.4102 24.9694 21.4102 24.687V16.9644C21.4099 16.682 21.1283 16.3999 20.8467 16.3999H16.0576ZM39.7227 16.4937C39.2532 16.4937 39.0645 16.6821 39.0645 17.1528V39.3794C39.0645 39.8501 39.2532 40.0386 39.7227 40.0386H44.3232C44.7927 40.0386 44.9814 39.8501 44.9814 39.3794V33.3521C44.9814 33.2579 45.075 33.1636 45.1689 33.1636H49.0186C49.1124 33.1636 49.2069 33.1634 49.207 33.2573L52.7754 39.4731C52.8692 39.6614 52.9628 39.756 53.1504 39.8501C53.3381 39.9442 53.5262 40.0384 53.7139 40.0386H59.0674C59.2549 40.0384 59.3487 39.9436 59.2549 39.7554C59.3484 39.6613 59.3486 39.5674 59.2549 39.3794L55.6865 33.1636V33.0688C55.5927 32.9747 55.5925 32.8804 55.7803 32.8804H55.874C56.719 32.5979 57.3762 32.1274 57.8457 31.4683C58.3152 30.809 58.5977 30.0551 58.5977 29.2075V20.355C58.5976 19.8841 58.5032 19.319 58.3154 18.8481C58.1276 18.3774 57.8463 18.0002 57.4707 17.6235C57.189 17.247 56.7193 16.9652 56.25 16.7769C55.7805 16.5885 55.3105 16.4937 54.7471 16.4937H39.7227ZM62.166 16.3999C61.8844 16.3999 61.6028 16.682 61.6025 16.9644V21.7681C61.6027 22.0505 61.8844 22.3325 62.166 22.3325H67.4248C67.7064 22.3327 67.9883 22.6155 67.9883 22.8979V39.4731C67.9883 39.7557 68.27 40.0386 68.5518 40.0386H73.2471C73.5287 40.0384 73.8105 39.7556 73.8105 39.4731V22.8979C73.8106 22.6154 74.0923 22.3325 74.374 22.3325H79.6328C80.0081 22.3324 80.1962 22.1445 80.1963 21.7681V16.9644C80.196 16.6821 79.9143 16.4002 79.6328 16.3999H62.166ZM52.8691 21.8618V27.7007H45.0752V21.8618H52.8691Z" fill="#FF8945"/>
</svg>
