<svg width="145" height="18" viewBox="0 0 145 18" fill="none" xmlns="http://www.w3.org/2000/svg">
<path d="M0 17.5031H33.133V12.7331H0V17.5031ZM0 5.69912H6.629V0.933117H0V5.69912ZM13.254 5.69912H19.883V0.933117H13.253L13.254 5.69912ZM26.508 5.69912H33.133V0.933117H26.508V5.69912ZM15.996 11.6011H0V6.83512H15.996V11.6011ZM33.133 11.6011H17.137V6.83512H33.133V11.6011ZM58.195 16.9451C60.387 16.8711 60.871 16.4561 60.871 15.5581V2.95612C60.871 2.05812 60.387 1.62112 58.195 1.54612V1.01112H65.859V1.54612C63.668 1.62112 63.184 2.05812 63.184 2.95612V15.5581C63.184 16.4561 63.668 16.8711 65.859 16.9451V17.5031H58.195V16.9451ZM71.016 16.9451C73.18 16.8711 73.836 16.4561 73.836 15.5581V1.69112H72.62C70.577 1.69112 69.53 1.70612 68.339 4.69912L67.804 4.64812L67.948 1.01112H82.007L82.179 4.64812L81.644 4.69812C80.55 1.89812 79.479 1.69112 77.362 1.69112H76.12V15.5581C76.12 16.4561 76.78 16.8711 78.944 16.9451V17.5031H71.014V16.9451H71.016ZM114.684 16.9451C116.797 16.8711 117.336 16.4561 117.336 15.5581V2.95612C117.336 2.05812 116.796 1.62112 114.684 1.54612V1.01112H128.063L128.133 4.64412L127.598 4.66712C126.578 1.72212 125.75 1.71812 122.977 1.71812H119.645V8.60112H121.129C123.051 8.60112 123.902 8.16412 124.535 5.55812H125.02V12.3241H124.535C123.902 9.71812 123.051 9.30412 121.129 9.30412H119.645V16.6641H122.977C126.238 16.6641 127.332 16.7491 128.402 13.6361L128.938 13.6631L128.816 17.5031H114.684V16.9451ZM131.418 16.9451C133.535 16.8711 134.07 16.4561 134.07 15.5581V2.95612C134.07 2.05812 133.535 1.62112 131.418 1.54612V1.01112H138.91V1.54612C136.746 1.62112 136.379 2.03512 136.379 2.95612V16.6631H138.813C142.023 16.6631 143.168 15.7031 144.336 12.1521L144.871 12.1751L144.676 17.5031H131.418V16.9451ZM104.363 16.6911H102.563V1.69112H104.34C108.766 1.69112 110.957 3.61312 110.957 9.11312C110.957 14.5111 109.543 16.6911 104.363 16.6911ZM104.605 1.01112H98.004V1.57012C99.774 1.68712 100.254 2.12012 100.254 2.95612V15.5581C100.254 16.3941 99.774 16.8081 98.004 16.9181V17.5031H104.828C110.957 17.5031 113.605 13.3901 113.605 8.96412C113.605 4.34412 110.566 1.01112 104.605 1.01112ZM85.828 10.5461L88.504 3.66312H88.602L90.984 10.5461H85.828ZM94.949 14.7301L89.793 0.620117H88.969L83.906 13.2921C82.934 15.7021 82.254 16.6011 80.621 16.9921V17.5031H86.098V16.9921C83.93 16.6281 83.688 16.0931 84.711 13.4411L85.563 11.2261H91.23L92.543 15.0231C93.027 16.3861 92.687 16.8711 90.473 16.9921V17.5031H97.328V16.9171C95.863 16.6471 95.461 16.1051 94.949 14.7301ZM50.61 1.28112C47.738 1.28112 45.063 3.80812 45.063 9.35512C45.063 14.6321 48.273 16.8201 51.07 16.8201C51.9225 16.8105 52.7597 16.5917 53.508 16.1831C54.262 15.7691 54.949 15.2031 55.438 14.4881C55.781 13.9881 56.028 13.4801 56.246 12.8671L56.786 13.0311C56.512 13.9101 56.133 14.7691 55.574 15.5071C55.0379 16.2191 54.3494 16.8023 53.559 17.2141C53.3331 17.328 53.1007 17.4286 52.863 17.5151C52.5996 17.6113 52.3296 17.6881 52.055 17.7451C51.5157 17.8589 50.9661 17.9165 50.415 17.9171C45.719 17.9171 42.41 14.5351 42.41 9.45312C42.41 4.41712 46.133 0.621117 50.875 0.621117C52.602 0.621117 53.988 1.08512 55.012 1.64412L55.863 1.63212L56.039 3.22612L56.371 5.99612H55.863C54.743 2.98012 53.067 1.28112 50.61 1.28112Z" fill="#FF8945"/>
</svg>
