<svg width="192" height="43" viewBox="0 0 192 43" fill="none" xmlns="http://www.w3.org/2000/svg">
<path d="M43.24 19.4156V25.3156H42.24C41.24 21.0956 40.54 20.5356 37.07 20.5356H33.25V29.5356C38.05 29.4656 38.78 28.7056 38.91 26.0056H40V34.1456H38.9C38.78 31.4956 38 30.7256 33.25 30.6956V41.0256H33.88C41.28 41.0256 42.13 39.3056 42.68 35.3256H43.78L43.22 42.1456H26.9V41.0256H29.8V20.4956H26.9V19.4156H43.24ZM153.35 11.4356H190.09V12.5656H153.34L153.35 11.4356ZM149.56 0.765625L124 11.4956H0V12.5956H124.23L150 1.81562L149.56 0.815625M14.12 41.4956C12.1249 42.0221 10.0612 42.2413 8 42.1456H0V41.0256H2.9V20.4956H0V19.4156H8C10.0535 19.3174 12.11 19.5298 14.1 20.0456C18.6 21.3856 20.9 25.0456 20.9 30.7856C20.9 36.5256 18.6 40.1856 14.1 41.5256M13.3 21.3256C11.6052 20.7029 9.80407 20.4208 8 20.4956H6.36V41.0256H8C9.80069 41.1151 11.6014 40.8501 13.3 40.2456C15.95 39.0156 17.07 36.2456 17.07 30.7756C17.07 25.3056 16 22.5656 13.32 21.3256H13.3ZM118.65 42.1656L122.22 26.8856H124.45V25.7656H118.25V26.8856H121L118.2 38.7356L117.54 36.0356L114.99 27.3156H112.67L109.4 38.7656L108.85 36.0156L106.68 26.8856H109.15V25.7656H101.55V26.8856H103.71L107.38 42.1556H109.7L113 30.4256L113.75 33.4256L116.32 42.1456H118.62M183.57 25.4956C188.72 25.4956 191.17 28.1256 191.17 33.9956C191.17 39.8656 188.72 42.4956 183.57 42.4956C178.42 42.4956 176 39.7656 176 33.9456C176 28.1256 178.42 25.4456 183.57 25.4456M183.57 26.5456C181.71 26.5456 179.4 27.4256 179.4 33.9456C179.4 40.4656 181.72 41.3456 183.57 41.3456C185.42 41.3456 187.77 40.4456 187.77 33.9456C187.77 27.4456 185.44 26.4956 183.57 26.4956V26.5456ZM173.38 20.0856C171.327 19.3574 169.157 19.0183 166.98 19.0856C159.38 19.0856 155.55 23.1656 155.55 30.7856C155.55 38.2256 159.35 42.4856 166.98 42.4856C169.166 42.5118 171.334 42.0897 173.35 41.2456L173.85 35.3756H172.75C172.02 39.1456 170.02 41.2956 166.75 41.2956C165.944 41.3533 165.135 41.2505 164.37 40.993C163.604 40.7355 162.897 40.3285 162.29 39.7956C160.57 38.1456 159.65 35.1956 159.65 30.7956C159.65 26.3956 160.59 23.2256 162.48 21.5956C163.57 20.684 164.96 20.21 166.38 20.2656C169.88 20.2656 171.78 22.4456 172.38 25.2656H173.38V20.0656M64.88 20.1656C63.0562 19.4646 61.1135 19.125 59.16 19.1656C54.39 19.1656 51.66 21.4656 51.66 25.0956C51.66 28.3456 53.42 29.9956 56.44 31.2556L59.54 32.5556C59.54 32.5556 62.74 35.0556 62.74 37.1556C62.74 39.8556 61.22 41.3556 58.34 41.3556C55.46 41.3556 53.14 39.2256 52.27 35.3556H51.27L51.77 41.2856C53.6584 42.1187 55.7064 42.5283 57.77 42.4856C62.64 42.4856 65.89 39.9856 65.89 35.6856C65.89 32.0356 63.89 30.5856 60.89 29.3456L57.89 28.1056C55.79 27.2556 54.89 26.1856 54.89 23.8856C54.89 21.5856 56.59 20.2856 58.76 20.2856C61.58 20.2856 63.18 22.0156 63.82 25.3456H64.89V20.1456M83 30.0656C83 26.7656 80.9 25.3656 78.5 25.3656C77.4088 25.3311 76.3284 25.5916 75.3728 26.1196C74.4172 26.6475 73.6216 27.4235 73.07 28.3656V19.3656H67.7V20.4956H69.93V41.0356H67.7V42.1556H75.43V41.0256H73.1V32.0256C73.0755 30.9484 73.3414 29.8845 73.87 28.9456C74.218 28.3304 74.7199 27.8162 75.3264 27.4534C75.933 27.0905 76.6234 26.8914 77.33 26.8756C78.96 26.8756 79.86 28.0156 79.86 30.0756V41.0756H77.53V42.1756H85.23V41.0156H83V30.0156M99.6 37.1056V29.9056C99.6 26.6056 97.22 25.4256 93.54 25.4256C89.86 25.4256 87.34 26.7256 87.34 29.0756C87.3425 29.5179 87.5172 29.9418 87.8272 30.2574C88.1371 30.5729 88.5578 30.7552 89 30.7656H89.2C89.4874 30.7959 89.778 30.7572 90.0475 30.6529C90.317 30.5486 90.5578 30.3815 90.75 30.1656V29.4056C90.75 27.5256 91.67 26.4756 93.5 26.4756C93.8884 26.4254 94.2832 26.4636 94.6548 26.5874C95.0264 26.7112 95.3652 26.9173 95.6459 27.1904C95.9267 27.4634 96.1421 27.7964 96.2762 28.1644C96.4102 28.5324 96.4594 28.926 96.42 29.3156V31.7656L91 33.4956C89.5 34.0356 87 34.9256 87 37.8456C87 41.1056 89.26 42.5156 92.22 42.5156C94.62 42.5156 96.22 41.6756 97.04 39.8656C97.49 41.8656 99.44 42.6656 101.68 42.2156V41.2156C100.56 40.8656 99.68 39.4956 99.68 37.1156M96.53 37.1156C96.53 39.7756 95.45 41.0156 93.43 41.0156C91.63 41.0156 90.63 39.8156 90.63 37.8156C90.63 34.9856 92.1 34.4756 94.03 33.8156L96.53 32.9656V37.1156ZM145.93 39.2656C146.92 38.2196 147.687 36.9837 148.185 35.6328C148.684 34.2818 148.903 32.8438 148.83 31.4056C148.807 30.0472 148.584 28.6995 148.17 27.4056H142.8V28.4056C143.417 28.3671 144.035 28.4516 144.619 28.6542C145.202 28.8567 145.74 29.1734 146.2 29.5856C146.615 30.0435 146.933 30.581 147.134 31.1654C147.335 31.7499 147.416 32.3692 147.37 32.9856C147.367 35.0329 146.58 37.0013 145.17 38.4856C144.94 38.2456 144.54 37.8556 144.31 37.6056C140.982 34.2669 138.141 30.4764 135.87 26.3456C135.379 25.4444 135.105 24.4412 135.07 23.4156C135.037 22.9774 135.099 22.5372 135.252 22.1251C135.405 21.713 135.644 21.3386 135.954 21.0274C136.265 20.7162 136.638 20.4754 137.05 20.3215C137.462 20.1677 137.902 20.1042 138.34 20.1356C140.46 20.1356 142.11 21.3856 142.82 25.1356H143.82V20.1356C142.221 19.4099 140.475 19.0675 138.72 19.1356C134.92 19.1356 132.25 20.9356 132.25 24.5756C132.288 25.7885 132.578 26.9802 133.1 28.0756C131.784 28.5276 130.649 29.3911 129.862 30.5383C129.075 31.6854 128.678 33.0554 128.73 34.4456C128.73 38.3856 131.73 42.6156 137.73 42.6156C139.798 42.6735 141.843 42.1726 143.65 41.1656C145.296 42.0066 147.103 42.484 148.95 42.5656L149.27 41.6856C148.073 41.042 146.955 40.26 145.94 39.3556M139.44 41.2056C138.425 41.2253 137.417 41.0436 136.473 40.6711C135.529 40.2987 134.668 39.7428 133.94 39.0356C132.474 37.5047 131.676 35.4547 131.72 33.3356C131.653 32.4869 131.77 31.6337 132.063 30.8345C132.356 30.0352 132.819 29.309 133.42 28.7056C135.532 32.6593 138.248 36.2592 141.47 39.3756C141.859 39.7687 142.273 40.1361 142.71 40.4756C141.697 40.9629 140.583 41.2028 139.46 41.1756L139.44 41.2056Z" fill="#FF8945"/>
</svg>
