<svg width="140" height="47" viewBox="0 0 140 47" fill="none" xmlns="http://www.w3.org/2000/svg">
<path d="M100.863 46.5532C99.7221 46.5532 98.7093 45.5166 98.7093 44.3504V2.75604C98.7093 1.58984 99.7221 0.553223 100.863 0.553223C102.002 0.553223 103.015 1.58984 103.015 2.75604V44.3504C103.142 45.6461 102.129 46.5532 100.863 46.5532ZM138.1 40.7222C138.86 39.8152 138.733 38.3898 137.847 37.6124C136.96 36.8349 135.567 36.9645 134.807 37.8716C132.527 40.5926 129.234 42.1476 125.561 42.1476C119.608 42.1476 114.668 37.0941 114.668 31.0039C114.668 24.9138 119.608 19.8603 125.561 19.8603C130.5 19.8603 134.554 23.4885 135.44 28.1532H122.141C121.001 28.1532 119.988 29.1898 119.988 30.356C119.988 31.5222 121.001 32.5589 122.141 32.5589H137.847C138.987 32.5589 140 31.5222 140 30.356V30.0969C140 21.9335 133.54 15.4546 125.688 15.4546C117.328 15.4546 110.488 22.4518 110.488 31.0039C110.488 39.556 117.328 46.5532 125.688 46.5532C130.5 46.5532 135.06 44.48 138.1 40.7222ZM91.4893 44.3504V30.0969C91.4893 21.9335 85.0295 15.4546 77.1771 15.4546C68.8173 15.4546 61.9777 22.4518 61.9777 31.0039C61.9777 39.556 68.8173 46.5532 77.1771 46.5532C78.317 46.5532 79.3297 45.5166 79.3297 44.3504C79.3297 43.1842 78.317 42.1476 77.1771 42.1476C71.2238 42.1476 66.2841 37.0941 66.2841 31.0039C66.2841 24.9138 71.2238 19.8603 77.1771 19.8603C82.7499 19.8603 87.1828 24.3955 87.1828 30.0969V44.3504C87.1828 45.5166 88.1962 46.5532 89.336 46.5532C90.4758 46.5532 91.4893 45.6461 91.4893 44.3504ZM25.6263 37.6124C25.6263 35.4095 24.8664 32.4293 21.0666 30.7448C18.7867 29.7082 16.0002 29.1898 13.3403 28.8011C7.00734 27.7645 4.72747 26.987 4.72747 24.2659C4.72747 21.2856 8.6539 19.8603 12.5803 19.8603C14.9869 19.8603 18.5334 20.3786 21.4466 22.8405C22.3332 23.618 23.7264 23.4885 24.4864 22.5814C25.2463 21.6744 25.1197 20.249 24.2331 19.4716C20.3066 16.2321 15.7469 15.5842 12.5803 15.5842C4.22083 15.5842 0.294376 20.249 0.294376 24.5251C0.294376 26.7279 1.05433 29.7082 4.85413 31.5222C7.134 32.5589 9.92053 33.0772 12.5803 33.4659C18.9134 34.5025 21.0666 35.28 21.0666 37.8716C21.0666 40.5926 17.9001 42.2772 13.3403 42.2772C8.6539 42.2772 4.98079 40.3335 3.20755 39.1673C2.19428 38.5194 0.801013 38.7786 0.167716 39.8152C-0.212263 40.5926 0.0410565 42.018 1.05433 42.6659C4.72747 45.1279 9.16057 46.5532 13.5937 46.5532C21.8266 46.5532 25.6263 42.1476 25.6263 37.6124ZM57.1646 39.9448C57.7979 38.9082 57.5446 37.4828 56.5313 36.8349C55.518 36.187 54.1248 36.4461 53.4915 37.4828C51.5916 40.3335 48.5517 42.018 45.1319 42.018C39.1789 42.018 34.2392 36.9645 34.2392 30.8744C34.2392 24.7842 39.1789 19.7307 45.1319 19.7307C48.5517 19.7307 51.5916 21.4152 53.4915 24.2659C54.1248 25.3025 55.518 25.5617 56.5313 24.9138C57.5446 24.2659 57.7979 22.8405 57.1646 21.8039C54.5048 17.6575 50.0716 15.1955 45.1319 15.1955C36.7724 15.1955 29.9327 22.1926 29.9327 30.7448C29.9327 39.2969 36.7724 46.2941 45.1319 46.2941C49.945 46.5532 54.5048 44.0913 57.1646 39.9448Z" fill="#FF8945"/>
</svg>
