<svg width="189" height="61" viewBox="0 0 189 61" fill="none" xmlns="http://www.w3.org/2000/svg">
<path d="M93.58 1.09604L80.9577 60.0992H65.6824L78.3236 1.09604H93.58ZM157.838 39.1927L165.873 17.0326L170.505 39.1927H157.838ZM174.872 60.0992H189L176.674 1.09604H163.636C163.617 1.09604 163.592 1.09604 163.573 1.09604C160.68 1.09604 158.197 2.86607 157.151 5.37939L157.132 5.42348L134.226 60.0992H150.257L153.446 51.2806H173.038L174.872 60.0992ZM135.014 40.8367C135.077 25.2592 113.468 24.4025 113.619 17.4421C113.67 15.3256 115.68 13.0705 120.091 12.4973C120.91 12.4154 121.856 12.365 122.813 12.365C127.294 12.365 131.541 13.3855 135.322 15.2122L135.152 15.1366L137.83 2.62041C133.589 0.976355 128.68 0.0188971 123.551 0H123.544C108.446 0 97.8273 8.03129 97.7328 19.5145C97.6382 28.0056 105.314 32.7362 111.105 35.5707C117.06 38.462 119.058 40.3202 119.026 42.8965C118.988 46.8649 114.287 48.6035 109.889 48.6728C109.687 48.6791 109.441 48.6791 109.202 48.6791C103.713 48.6791 98.5457 47.2996 94.0337 44.8618L94.2038 44.9437L91.4374 57.8694C96.3905 59.8536 102.131 61 108.143 61C108.238 61 108.332 61 108.427 61H108.414C124.458 61 134.95 53.0821 135.007 40.8178L135.014 40.8367ZM71.7572 1.09604L47.0168 60.0992H30.8719L18.6971 13.0012C18.4639 10.7084 17.0586 8.79348 15.1051 7.83602L15.0673 7.81712C10.7318 5.68804 5.69042 3.9558 0.415912 2.86607L0 2.79678L0.365498 1.08974H26.3536C29.8952 1.08974 32.8381 3.67865 33.3863 7.06124L33.3926 7.09903L39.8266 41.2462L55.7195 1.08344L71.7572 1.09604Z" fill="#FF8945"/>
</svg>
